# Blender v2.79 (sub 0) OBJ File: 'Burg Test.blend'
# www.blender.org
mtllib AnfangsSteine_Final.mtl
o Anfangs_Steine_Circle.002
v -2.275761 4.321352 -12.239282
v -2.268207 4.371759 -12.211393
v -2.291851 4.408026 -12.173311
v -2.337659 4.416289 -12.139578
v -2.388138 4.393416 -12.123081
v -2.424008 4.348163 -12.130125
v -2.431567 4.297809 -12.158017
v -2.407926 4.261560 -12.196102
v -2.362113 4.253254 -12.229832
v -2.311630 4.276084 -12.246325
v -2.503923 3.624929 -11.250103
v -2.492429 3.655526 -11.239800
v -2.501752 3.683060 -11.224279
v -2.528162 3.696988 -11.209562
v -2.561493 3.692102 -11.201280
v -2.589138 3.670371 -11.202508
v -2.600707 3.640041 -11.212705
v -2.591754 3.612561 -11.228024
v -2.565498 3.598401 -11.242722
v -2.531891 3.603089 -11.251194
v -2.335478 3.965916 -11.799195
v -2.287596 3.964334 -11.823553
v -2.335708 4.076042 -11.740209
v -2.365022 4.034972 -11.747756
v -2.212070 4.071887 -11.803010
v -2.241534 4.098846 -11.774178
v -2.240137 3.988756 -11.833752
v -2.365077 3.992903 -11.770215
v -2.288611 4.100433 -11.750273
v -2.211404 4.029840 -11.825832
v -2.850238 4.500671 -12.540556
v -2.832700 4.559774 -12.519069
v -2.907608 4.409738 -12.409609
v -2.896541 4.407973 -12.472901
v -2.861662 4.564337 -12.353376
v -2.886044 4.506339 -12.335745
v -2.828702 4.597396 -12.466671
v -2.874624 4.442692 -12.522921
v -2.903596 4.447299 -12.357222
v -2.839763 4.599133 -12.403384
v -2.374711 4.209368 -11.945189
v -2.516457 3.228662 -10.844814
v -2.316357 4.107096 -12.018127
v -2.540854 3.269359 -10.813471
v -2.403523 3.822102 -11.500360
v -2.430462 3.905761 -11.479021
v -2.511910 3.861326 -11.504206
v -2.598682 3.221385 -10.858372
v -2.579051 3.203927 -10.871012
v -2.552119 3.198993 -10.872641
v -2.569582 3.417252 -11.008760
v -2.593095 3.403188 -11.016943
v -2.500437 3.372092 -11.036486
v -2.512414 3.398067 -11.020781
v -2.562647 3.335114 -11.057617
v -2.531522 3.333138 -11.059243
v -2.600561 3.378443 -11.031535
v -2.434555 3.805040 -11.510015
v -2.507705 3.347277 -11.051194
v -2.589010 3.352436 -11.047033
v -2.456223 3.151124 -10.566674
v -2.446116 3.161427 -10.560410
v -2.444496 3.175676 -10.553329
v -2.451984 3.188433 -10.548134
v -2.465717 3.194830 -10.546804
v -2.480452 3.192421 -10.549845
v -2.490560 3.182119 -10.556099
v -2.492181 3.167858 -10.563185
v -2.484693 3.155093 -10.568392
v -2.470959 3.148702 -10.569725
v -2.420743 2.944955 -10.257242
v -2.418345 2.953219 -10.255231
v -2.421146 2.961588 -10.254716
v -2.428068 2.966868 -10.255894
v -2.436455 2.967051 -10.258322
v -2.443101 2.962063 -10.261069
v -2.445480 2.953804 -10.263084
v -2.442693 2.945425 -10.263595
v -2.435797 2.940133 -10.262407
v -2.427413 2.939954 -10.259981
v -2.628025 2.817375 -12.553417
v -2.627329 2.943159 -12.486731
v -2.629746 2.918628 -12.346511
v -2.631936 2.777682 -12.326537
v -2.630872 2.715105 -12.454412
v -2.425561 2.719840 -12.545533
v -2.425018 2.817998 -12.493492
v -2.426905 2.798855 -12.384069
v -2.428614 2.688865 -12.368483
v -2.427784 2.640032 -12.468273
v -2.245951 2.461578 -12.468739
v -2.205612 2.521832 -12.429386
v -2.213063 2.508751 -12.348272
v -2.258007 2.440413 -12.337492
v -2.278332 2.411258 -12.411943
v -2.124568 2.184899 -12.545840
v -2.074683 2.219100 -12.513216
v -2.083549 2.210248 -12.445646
v -2.138914 2.170576 -12.436510
v -2.164266 2.154910 -12.498434
v -1.939493 1.948798 -12.613843
v -1.895586 1.960792 -12.585597
v -1.906440 1.952481 -12.533802
v -1.957055 1.935351 -12.530037
v -1.977484 1.933074 -12.579505
v -1.925376 1.649606 -12.585381
v -1.880410 1.651361 -12.556319
v -1.893536 1.643317 -12.505011
v -1.946614 1.636591 -12.502361
v -1.966292 1.640478 -12.552032
v -2.029744 1.299536 -12.564781
v -2.009419 1.289423 -12.549930
v -2.018313 1.286442 -12.524475
v -2.044134 1.294713 -12.523594
v -2.051199 1.302806 -12.548504
v -2.695904 2.303839 -10.608557
v -2.707054 2.383790 -10.549900
v -2.702334 2.353308 -10.455002
v -2.688267 2.254520 -10.455009
v -2.684292 2.223946 -10.549911
v -2.498612 2.092712 -10.575608
v -2.469717 2.146494 -10.533621
v -2.471738 2.124025 -10.463041
v -2.501883 2.056356 -10.461409
v -2.518491 2.037004 -10.530979
v -2.355757 1.876078 -10.680935
v -2.315062 1.909131 -10.648363
v -2.319385 1.891837 -10.589272
v -2.362751 1.848095 -10.585323
v -2.385231 1.838356 -10.641973
v -2.189931 1.630172 -10.649466
v -2.151651 1.643411 -10.623500
v -2.158355 1.628245 -10.578335
v -2.200778 1.605633 -10.576387
v -2.220293 1.606824 -10.620348
v -2.123219 1.420523 -10.722466
v -2.082572 1.424814 -10.697084
v -2.091344 1.409624 -10.652285
v -2.137413 1.395945 -10.649977
v -2.157112 1.402680 -10.693351
v -2.172034 1.089128 -10.727041
v -2.152110 1.081274 -10.715422
v -2.158712 1.074291 -10.693033
v -2.182717 1.077829 -10.690815
v -2.190950 1.086999 -10.711833
v -2.528214 3.208450 -10.862625
v -2.401112 3.884448 -11.481199
v -2.521293 3.251917 -10.826042
v -2.498889 3.891442 -11.493231
v -2.567703 3.274335 -10.811870
v -2.591627 3.264922 -10.821835
v -2.603478 3.244694 -10.839586
v -2.472105 3.807872 -11.514600
v -2.390807 3.852484 -11.489347
v -2.467764 3.908395 -11.483620
v -2.538850 3.415299 -11.010181
v -2.501702 3.829417 -11.512372
v -2.234450 4.240422 -11.970386
v -2.262625 4.118917 -12.027791
v -2.385794 4.163047 -11.966992
v -2.281144 4.257174 -11.947319
v -2.222911 4.154949 -12.020143
v -2.363491 4.123977 -11.994866
v -2.334680 4.245304 -11.937704
v -2.212222 4.201381 -11.998188
v -2.535787 3.403532 -11.240397
v -2.517411 3.424527 -11.249464
v -2.500659 3.399778 -11.215614
v -2.512616 3.390772 -11.214160
v -2.525486 3.388227 -11.219460
v -2.547986 3.500820 -11.152334
v -2.538908 3.493565 -11.143248
v -2.586323 3.477524 -11.155008
v -2.577230 3.490924 -11.159607
v -2.562191 3.458448 -11.131208
v -2.577008 3.457428 -11.137453
v -2.538723 3.480800 -11.134793
v -2.586256 3.464722 -11.146545
v -2.547571 3.467384 -11.130196
v -2.501212 3.363532 -11.383080
v -2.504496 3.368847 -11.388261
v -2.503656 3.376198 -11.391912
v -2.499011 3.382779 -11.392641
v -2.492336 3.386079 -11.390170
v -2.486178 3.384836 -11.385446
v -2.482892 3.379522 -11.380268
v -2.483732 3.372165 -11.376615
v -2.488379 3.365580 -11.375881
v -2.495056 3.362283 -11.378349
v -2.448108 3.257175 -11.534724
v -2.448769 3.261438 -11.536197
v -2.447352 3.265755 -11.535807
v -2.444403 3.268479 -11.533703
v -2.441055 3.268573 -11.530690
v -2.438588 3.266001 -11.527920
v -2.437936 3.261740 -11.526449
v -2.439345 3.257417 -11.526839
v -2.442280 3.254687 -11.528941
v -2.445626 3.254595 -11.531953
v -2.534333 3.393105 -11.229485
v -2.529320 3.415529 -11.248026
v -2.504586 3.427094 -11.244170
v -2.495719 3.422237 -11.234164
v -2.494208 3.411803 -11.223258
v -2.562573 3.499813 -11.158584
v -2.002682 2.019008 -12.539606
v -1.978355 2.030013 -12.535954
v -1.979319 2.045145 -12.513676
v -2.004242 2.043493 -12.503559
v -2.018681 2.027339 -12.519585
v -1.990246 1.908771 -12.472144
v -1.965428 1.916219 -12.464739
v -1.967557 1.931437 -12.442601
v -1.993691 1.933394 -12.436323
v -2.007714 1.919387 -12.454582
v -2.045180 1.800897 -12.328773
v -2.033924 1.800834 -12.321056
v -2.036150 1.808914 -12.310286
v -2.048782 1.813970 -12.311345
v -2.054363 1.809015 -12.322771
v -2.468978 2.033562 -10.406268
v -2.440361 2.064234 -10.382708
v -2.451346 2.061868 -10.335926
v -2.486752 2.029734 -10.330574
v -2.497649 2.012240 -10.374048
v -2.352932 1.857786 -10.434059
v -2.319810 1.880803 -10.407830
v -2.332696 1.877717 -10.361579
v -2.373781 1.852793 -10.359222
v -2.386288 1.840475 -10.404018
v -2.317845 1.547890 -10.316941
v -2.299078 1.549852 -10.301527
v -2.307779 1.548232 -10.278826
v -2.331923 1.545269 -10.280210
v -2.338145 1.545058 -10.303767
v -3.143512 5.612808 -23.640163
v -2.875645 2.541889 -10.493870
v -2.896325 2.739227 -10.581165
v -2.759189 2.579198 -12.307200
v -2.720070 2.368579 -12.346615
v -2.587205 3.254664 -11.219301
v -3.080491 3.439300 -11.358498
v -2.436553 1.839094 -10.773238
v -2.865718 1.367664 -10.381133
v -0.779304 2.501251 -11.217369
v -0.782059 2.388452 -11.216184
v -0.758812 2.390477 -11.447250
v -0.756506 2.514321 -11.444440
v -0.816325 2.512429 -11.758747
v -0.820515 2.374959 -11.757906
v -1.074802 2.335486 -11.896198
v -1.056093 2.546839 -11.896544
v -2.790802 3.010673 -11.953987
v -2.775837 2.857745 -12.117572
v -2.551444 1.786340 -12.218529
v -2.528228 1.666509 -12.075044
v -1.289053 2.784595 -11.722967
v -1.084805 2.704676 -11.721819
v -1.215488 2.671018 -11.868120
v -1.289053 2.129548 -11.722967
v -1.211450 2.241555 -11.872492
v -1.080702 2.204014 -11.722323
v -1.054879 2.702903 -11.310314
v -1.075168 2.718746 -11.557285
v -1.279999 2.821818 -11.574364
v -1.266266 2.810245 -11.345273
v -1.275087 2.140929 -11.344292
v -1.289053 2.129548 -11.573406
v -1.075168 2.195397 -11.557285
v -1.054879 2.211240 -11.310314
v -2.302089 2.548197 -10.724180
v -2.315908 2.765362 -10.784645
v -2.533490 2.794812 -10.719323
v -2.521547 2.588237 -10.657602
v -2.310954 2.178880 -10.794188
v -2.488970 2.098614 -10.664557
v -2.340789 1.946354 -10.763547
v -0.845931 2.506053 -11.074510
v -1.064735 2.517423 -10.969053
v -1.086175 2.334160 -10.977242
v -0.854801 2.361897 -11.079655
v -2.553938 2.982451 -10.920958
v -2.325945 2.902502 -10.890856
v -2.396468 3.071134 -11.063282
v -1.185317 2.649675 -11.036272
v -1.063481 2.662775 -11.190743
v -1.259302 2.759633 -11.208125
v -1.259302 2.154510 -11.208125
v -1.050801 2.238635 -11.187174
v -1.177142 2.253903 -11.023518
v -1.713405 2.550019 -12.010958
v -1.715428 2.344389 -12.009596
v -1.951325 2.352731 -12.068691
v -1.952483 2.554463 -12.070014
v -2.070853 3.079760 -11.276251
v -1.835743 2.991131 -11.299541
v -1.876317 3.022064 -11.493265
v -2.097464 3.117013 -11.445514
v -1.871027 2.088132 -11.503915
v -1.826230 2.101707 -11.278482
v -2.010936 2.038856 -11.168585
v -2.075645 2.008678 -11.398225
v -1.800524 2.717297 -11.949123
v -2.056433 2.742836 -11.986851
v -2.098027 2.905017 -11.838634
v -1.871541 2.880125 -11.806525
v -2.028899 2.120286 -12.032749
v -1.797046 2.196040 -11.950852
v -1.871027 2.088132 -11.792458
v -2.077081 2.010530 -11.844501
v -1.630795 2.339563 -10.900661
v -1.627114 2.533656 -10.896638
v -1.875370 2.597228 -10.864738
v -1.853204 2.387690 -10.863382
v -2.001584 2.924844 -11.097658
v -1.932908 2.729737 -10.943264
v -1.689083 2.682090 -10.981367
v -1.766057 2.861287 -11.118779
v -1.684388 2.228848 -10.976532
v -1.914025 2.202288 -10.914918
v -1.995574 2.096621 -11.080408
v -1.775953 2.117743 -11.146435
v -2.748235 4.048855 -15.749424
v -2.748235 3.826392 -15.775626
v 1.702647 3.883905 -14.056286
v 1.715779 4.064748 -14.061102
v 1.695351 4.064252 -13.851826
v 1.675143 3.878672 -13.840740
v -2.748235 3.834313 -12.218453
v -2.748235 4.039857 -12.228106
v -2.748235 2.219803 -14.104204
v -2.748235 2.251653 -13.887400
v -2.748235 4.831957 -13.876653
v -2.748235 4.831957 -14.105910
v -2.565845 2.638408 -15.427650
v -2.862252 2.416381 -15.236725
v -2.552534 4.728393 -15.447510
v -2.858283 4.714490 -15.248224
v 1.096786 3.895307 -15.422263
v 1.094031 4.008107 -15.423449
v 1.199762 3.997338 -15.216949
v 1.199705 3.886497 -15.216795
v 1.031897 3.244038 -14.039816
v 1.027834 3.245787 -13.852372
v 0.783484 3.151305 -13.836398
v 0.791527 3.149956 -14.058899
v 1.237908 4.639743 -13.903200
v 1.237611 4.637244 -14.069914
v 0.974548 4.732866 -14.103204
v 0.974548 4.732867 -13.879367
v 0.913135 3.862069 -12.717132
v 0.914451 3.997828 -12.716147
v 0.675290 4.017047 -12.618052
v 0.671808 3.837627 -12.619315
v -2.748235 2.857190 -12.728596
v -2.748235 3.016709 -12.579806
v -2.748235 4.652462 -12.570731
v -2.748235 4.760023 -12.742173
v 0.156516 3.300489 -13.084336
v 0.368754 3.386116 -13.021660
v 0.169330 3.418705 -12.897650
v 0.163360 4.580751 -13.084279
v 0.168105 4.458471 -12.899633
v 0.377373 4.489152 -13.014905
v 0.334035 3.410640 -15.163115
v 0.382048 3.376393 -14.942893
v 0.153443 3.303205 -14.897750
v 0.113826 3.340329 -15.129137
v 0.113826 4.538645 -15.129137
v 0.163360 4.580750 -14.898290
v 0.401074 4.500889 -14.952526
v 0.334035 4.468334 -15.163115
v -2.218373 4.042819 -16.333889
v -2.218656 3.841930 -16.334063
v -2.404603 3.830117 -16.240191
v -2.404602 4.048855 -16.240191
v -2.218961 4.552115 -16.043261
v -2.404603 4.609851 -15.926430
v -2.274740 4.666718 -15.878743
v 0.847175 3.926833 -15.875478
v 0.628371 3.915463 -15.980934
v 0.606930 4.098726 -15.972746
v 0.838305 4.070989 -15.870333
v -2.436530 3.198410 -15.933197
v -2.218961 3.326858 -16.043261
v -2.258408 3.141076 -15.912147
v 0.240914 3.495973 -15.759053
v 0.362750 3.482872 -15.604582
v 0.166929 3.386015 -15.587200
v 0.166929 4.492959 -15.587200
v 0.375429 4.408834 -15.608150
v 0.249088 4.393565 -15.771807
v -3.328669 4.074758 -18.227219
v -3.328669 4.297177 -18.252998
v 0.637847 4.260807 -19.942032
v 0.612079 4.072407 -19.936762
v 0.586304 4.068739 -20.164091
v 0.612340 4.258173 -20.169178
v -3.328669 4.288381 -21.774204
v -3.287048 4.078362 -21.785780
v -3.328669 4.978490 -19.896290
v -3.328669 4.978490 -20.125988
v -3.293474 2.683685 -20.124462
v -3.328669 2.655653 -19.896477
v -3.132969 4.976715 -18.554913
v -3.438718 4.958082 -18.754026
v -3.146803 2.808695 -18.553316
v -3.381628 2.774855 -18.748316
v 0.516352 4.231989 -18.580166
v 0.513597 4.119189 -18.578981
v 0.573276 4.127350 -18.800232
v 0.573912 4.242370 -18.799232
v 0.419930 4.563931 -19.960459
v 0.415428 4.563630 -20.152218
v 0.196608 4.689559 -20.169512
v 0.205631 4.688307 -19.940304
v 0.028638 3.482199 -20.122501
v 0.028872 3.482842 -19.909138
v -0.171343 3.394838 -19.898914
v -0.171343 3.394838 -20.123375
v 0.370636 4.222606 -21.007896
v 0.366551 4.084942 -21.007256
v 0.109193 4.048734 -21.144974
v 0.127902 4.260086 -21.145321
v -3.328669 4.998943 -21.259956
v -3.328670 4.900784 -21.431692
v -2.943067 3.173847 -21.416599
v -2.938386 3.039862 -21.267776
v -0.425189 4.785003 -20.913574
v -0.181267 4.695797 -20.936153
v -0.407009 4.684771 -21.065037
v -0.450100 3.552095 -20.919785
v -0.402971 3.689277 -21.069405
v -0.235277 3.629194 -20.928310
v -0.246400 4.716656 -18.839314
v -0.192186 4.720099 -19.062162
v -0.428113 4.786121 -19.108425
v -0.466608 4.786966 -18.873291
v -0.466608 3.588651 -18.873291
v -0.450099 3.552095 -19.102505
v -0.232888 3.618704 -19.074505
v -0.246400 3.658962 -18.839314
v -2.798985 4.074739 -17.644957
v -2.799090 4.285365 -17.668362
v -2.985037 4.297177 -17.762232
v -2.980901 4.074574 -17.728714
v -2.802494 3.013797 -17.978397
v -2.979131 2.868143 -18.087563
v -2.871699 2.875201 -18.121372
v 0.266741 4.200463 -18.126951
v 0.047937 4.211833 -18.021494
v 0.026496 4.028570 -18.029684
v 0.257871 4.056307 -18.132097
v -2.985037 4.854033 -18.073677
v -2.799396 4.800437 -17.959162
v -2.855174 4.915040 -18.123680
v -0.339521 4.631323 -18.243376
v -0.217685 4.644423 -18.397846
v -0.413505 4.741281 -18.415228
v -0.413505 3.634336 -18.415228
v -0.205005 3.718462 -18.394278
v -0.331346 3.733730 -18.230621
v -0.947811 3.836748 -12.432508
v -0.947236 4.029161 -12.431904
v -1.188293 4.030061 -12.405517
v -1.188674 3.837647 -12.406141
v -0.896521 3.019471 -14.080538
v -0.898020 3.020048 -13.856214
v -1.123031 2.962810 -13.861356
v -1.122347 2.962035 -14.080844
v -0.795273 4.782218 -14.105190
v -1.042597 4.787569 -14.105190
v -1.042597 4.787569 -13.877377
v -0.795273 4.782218 -13.877377
v -1.420258 3.181852 -15.312855
v -1.198579 3.246933 -15.285843
v -1.199436 3.211242 -15.058190
v -1.423296 3.143592 -15.073973
v -1.181349 4.659151 -15.054569
v -1.198579 4.632041 -15.285843
v -1.433878 4.648785 -15.313938
v -1.433741 4.679163 -15.071675
v -1.189989 3.331697 -12.747624
v -1.436692 3.300064 -12.714264
v -1.441197 3.175016 -12.893480
v -1.197623 3.210445 -12.924372
v -1.435415 4.564179 -12.719145
v -1.190744 4.546768 -12.748360
v -1.181349 4.659152 -12.927998
v -1.439296 4.677508 -12.897198
v -0.758555 4.073627 -16.149200
v -0.755040 3.879291 -16.153091
v -0.993381 3.873522 -16.182014
v -0.995605 4.067890 -16.177965
v -1.261446 3.284366 -15.757752
v -1.181543 3.398264 -15.923513
v -0.940472 3.415420 -15.894729
v -1.026148 3.301110 -15.729657
v -0.936122 4.466636 -15.899410
v -1.178971 4.483918 -15.928408
v -1.261446 4.594608 -15.757752
v -1.026148 4.577863 -15.729657
v -1.442103 4.272297 -21.429125
v -1.444127 4.066668 -21.427761
v -1.688266 4.069084 -21.473072
v -1.686557 4.274716 -21.474493
v -1.422455 4.821427 -19.919985
v -1.424103 4.821685 -20.149559
v -1.664650 4.841747 -20.146574
v -1.664073 4.841578 -19.916988
v -1.624536 3.346935 -19.897192
v -1.846453 3.298768 -19.897896
v -1.846453 3.298768 -20.124388
v -1.624536 3.346935 -20.125092
v -1.971419 4.894054 -18.693607
v -1.736532 4.877339 -18.721655
v -1.732143 4.882776 -18.952906
v -1.977704 4.899658 -18.938374
v -1.761697 3.470592 -18.948248
v -1.736532 3.498278 -18.721655
v -1.958994 3.435519 -18.694534
v -1.981643 3.408516 -18.925238
v -1.710825 4.782201 -21.231861
v -1.966737 4.800413 -21.262419
v -1.981743 4.900352 -21.099186
v -1.729936 4.882433 -21.069118
v -1.966807 3.546668 -21.281206
v -1.707348 3.592611 -21.233589
v -1.761697 3.470592 -21.074036
v -1.987657 3.418929 -21.106737
v -1.293179 4.052732 -17.859051
v -1.289498 4.246825 -17.855026
v -1.528613 4.252613 -17.826008
v -1.531062 4.058490 -17.830183
v -1.802288 4.840112 -18.249401
v -1.722497 4.726307 -18.083488
v -1.480531 4.709087 -18.112381
v -1.567401 4.823397 -18.277447
v -1.475836 3.663326 -18.107544
v -1.718546 3.602262 -18.062923
v -1.787769 3.484755 -18.251669
v -1.567401 3.552221 -18.277447
v 0.326579 5.123133 -24.127934
v 0.294451 4.944993 -24.117672
v 0.311383 4.952125 -24.342621
v 0.337467 5.126101 -24.346645
v -3.169854 5.151686 -25.404022
v -3.097445 4.938124 -25.426664
v -3.164492 5.599273 -24.089134
v -3.169854 5.597885 -24.318729
v -2.628456 3.733009 -24.315613
v -2.652702 3.741284 -24.097200
v 0.188645 5.278035 -24.146782
v 0.184859 5.280818 -24.323866
v -0.081052 5.404633 -24.348026
v -0.071061 5.396723 -24.118622
v -0.147584 4.597271 -24.105148
v -0.350464 4.488371 -24.097858
v -0.360427 4.477034 -24.312895
v -0.153173 4.586963 -24.312193
v 0.140054 5.086833 -24.856388
v 0.136854 4.970502 -24.855864
v -0.200921 4.923718 -24.988598
v -0.174766 5.134831 -24.988644
v -3.169854 5.610727 -25.030787
v -3.169854 5.512562 -25.202187
v -2.552347 4.086540 -25.174223
v -2.509798 3.957438 -25.036022
v -0.562190 5.460559 -24.791393
v -0.284196 5.378750 -24.817326
v -0.545944 5.360718 -24.943165
v -0.589249 4.603785 -24.796974
v -0.542424 4.740115 -24.947697
v -0.362722 4.669125 -24.808254
v -2.786498 4.939373 -23.067642
v -2.797182 5.151533 -23.149603
v -2.711949 4.178068 -23.015564
v -2.729409 4.341634 -22.929415
v 0.028839 5.070950 -23.504494
v -0.211423 5.098711 -23.398823
v -0.242439 4.915715 -23.406605
v 0.021198 4.945062 -23.507816
v -2.797182 5.448860 -23.315895
v -2.928758 5.573308 -23.473856
v -0.485914 5.328167 -23.518867
v -0.267589 5.341600 -23.634449
v -0.492975 5.421766 -23.699135
v -0.521985 4.640187 -23.689854
v -0.307000 4.707283 -23.651020
v -0.478330 4.763579 -23.505848
v -1.478493 5.141408 -25.167377
v -1.480566 4.936059 -25.165974
v -1.743028 4.938058 -25.203476
v -1.740356 5.143404 -25.204796
v -1.438025 5.482740 -24.105579
v -1.460312 5.490151 -24.335001
v -1.709283 5.506139 -24.332624
v -1.670705 5.497682 -24.103355
v -1.607747 4.133077 -24.112003
v -1.834268 4.059081 -24.111275
v -1.856761 4.047240 -24.299049
v -1.638537 4.119014 -24.298996
v -1.673808 5.427146 -25.057999
v -1.947411 5.442138 -25.083153
v -1.963161 5.541883 -24.919922
v -1.702675 5.527611 -24.895977
v -1.924545 4.581735 -25.137590
v -1.668932 4.674559 -25.059696
v -1.750068 4.503304 -24.920193
v -1.950620 4.419150 -24.948288
v -1.343952 4.928445 -23.293240
v -1.340009 5.122371 -23.289215
v -1.589063 5.127012 -23.265945
v -1.592944 4.933084 -23.269978
v -1.756590 5.493807 -23.582947
v -1.730270 5.392909 -23.409718
v -1.477957 5.379085 -23.432911
v -1.520580 5.480876 -23.604643
v -1.552490 4.549711 -23.576086
v -1.471339 4.720228 -23.428125
v -1.705679 4.671985 -23.361038
v -1.763262 4.507555 -23.513617
vt 0.988620 0.041986
vt 0.913254 0.040632
vt 0.913343 0.035244
vt 0.989726 0.033400
vt 0.987416 0.017224
vt 0.914864 0.023891
vt 0.916014 0.017424
vt 0.985049 0.010077
vt 0.979627 0.072845
vt 0.914146 0.064577
vt 0.914353 0.057624
vt 0.980931 0.065292
vt 0.986180 0.050214
vt 0.913434 0.045913
vt 0.989207 0.024962
vt 0.913824 0.029699
vt 0.979392 0.081009
vt 0.913188 0.071925
vt 0.983299 0.057823
vt 0.913902 0.051509
vt 0.916674 0.010196
vt 0.982575 0.002437
vt 0.804480 0.019626
vt 0.752726 0.018019
vt 0.752292 0.013279
vt 0.804506 0.014555
vt 0.805405 0.053985
vt 0.755214 0.049040
vt 0.757822 0.045184
vt 0.807493 0.049457
vt 0.809390 0.039457
vt 0.760861 0.036564
vt 0.759946 0.031968
vt 0.808610 0.034609
vt 0.805484 0.024908
vt 0.754766 0.022801
vt 0.803348 0.058284
vt 0.752781 0.052850
vt 0.808992 0.044514
vt 0.759977 0.041079
vt 0.807086 0.029902
vt 0.757573 0.027444
vt 0.753479 0.008959
vt 0.805543 0.009877
vt 0.887199 0.038725
vt 0.863275 0.038902
vt 0.862961 0.033835
vt 0.886533 0.032999
vt 0.885419 0.056892
vt 0.852968 0.053738
vt 0.857779 0.048790
vt 0.886768 0.050658
vt 0.884421 0.013784
vt 0.853310 0.019078
vt 0.851002 0.013082
vt 0.884845 0.006936
vt 0.860901 0.028929
vt 0.885617 0.026951
vt 0.861541 0.043948
vt 0.887326 0.044564
vt 0.881746 0.069385
vt 0.847510 0.065797
vt 0.849067 0.059480
vt 0.883585 0.063006
vt 0.857305 0.024147
vt 0.884786 0.020468
vt 0.710225 0.046853
vt 0.677463 0.043783
vt 0.676594 0.039976
vt 0.711157 0.042852
vt 0.711086 0.033962
vt 0.676924 0.031545
vt 0.678266 0.027312
vt 0.710304 0.029774
vt 0.708958 0.022566
vt 0.681019 0.020204
vt 0.681449 0.016783
vt 0.708946 0.018621
vt 0.708899 0.050684
vt 0.678226 0.047702
vt 0.711438 0.038486
vt 0.676318 0.035890
vt 0.709472 0.026129
vt 0.679856 0.023576
vt 0.709511 0.014393
vt 0.681155 0.013139
vt 0.680110 0.009363
vt 0.710500 0.010228
vt 0.636323 0.016596
vt 0.635987 0.014379
vt 0.634743 0.031688
vt 0.634388 0.029666
vt 0.634442 0.025356
vt 0.634975 0.023210
vt 0.636161 0.018889
vt 0.635133 0.033712
vt 0.634248 0.027543
vt 0.635638 0.021090
vt 0.635288 0.035877
vt 0.584079 0.029715
vt 0.584215 0.028462
vt 0.583292 0.026151
vt 0.582670 0.025084
vt 0.582287 0.022740
vt 0.582662 0.021629
vt 0.583528 0.030811
vt 0.583898 0.027243
vt 0.582287 0.023938
vt 0.583269 0.020612
vt 0.583864 0.019555
vt 0.967038 0.182473
vt 0.941705 0.168689
vt 0.953513 0.161651
vt 0.979973 0.170642
vt 0.984048 0.153457
vt 0.957094 0.149534
vt 0.951444 0.138832
vt 0.977223 0.136373
vt 0.955430 0.193579
vt 0.932968 0.180353
vt 0.944352 0.128838
vt 0.969178 0.120422
vt 0.911164 0.134321
vt 0.909049 0.123651
vt 0.906753 0.160635
vt 0.912028 0.153713
vt 0.914168 0.144268
vt 0.901998 0.168761
vt 0.865783 0.161543
vt 0.869745 0.154184
vt 0.871850 0.145678
vt 0.871355 0.136479
vt 0.870819 0.127603
vt 0.872482 0.119047
vt 0.833543 0.125574
vt 0.834307 0.119415
vt 0.830278 0.144105
vt 0.831569 0.137587
vt 0.832604 0.131538
vt 0.828599 0.150770
vt 0.799658 0.126023
vt 0.799931 0.119922
vt 0.793265 0.142484
vt 0.794534 0.136501
vt 0.797306 0.131489
vt 0.798740 0.113699
vt 0.754397 0.121737
vt 0.755688 0.118551
vt 0.756566 0.115440
vt 0.756416 0.112144
vt 0.753627 0.124898
vt 0.753265 0.128131
vt 0.962942 0.198738
vt 0.921104 0.196050
vt 0.918314 0.185141
vt 0.954292 0.189177
vt 0.951960 0.229599
vt 0.917810 0.222774
vt 0.922956 0.215418
vt 0.964858 0.223230
vt 0.970336 0.210414
vt 0.924645 0.206062
vt 0.945250 0.242043
vt 0.913431 0.230977
vt 0.875235 0.225950
vt 0.878055 0.217251
vt 0.881486 0.207998
vt 0.883029 0.199253
vt 0.882640 0.191597
vt 0.882032 0.183637
vt 0.841292 0.189163
vt 0.841207 0.182305
vt 0.837577 0.207742
vt 0.838945 0.201917
vt 0.840394 0.195970
vt 0.836766 0.213715
vt 0.811909 0.191745
vt 0.811704 0.186237
vt 0.806762 0.209227
vt 0.808195 0.202928
vt 0.810576 0.197364
vt 0.810704 0.180328
vt 0.766066 0.190681
vt 0.767302 0.187565
vt 0.768092 0.184259
vt 0.767603 0.180993
vt 0.765474 0.193707
vt 0.765478 0.196792
vt 0.448066 0.022645
vt 0.430271 0.020648
vt 0.429672 0.018608
vt 0.448428 0.020444
vt 0.448802 0.015620
vt 0.429581 0.013973
vt 0.430173 0.011597
vt 0.448826 0.013159
vt 0.446068 0.032590
vt 0.430134 0.028445
vt 0.430727 0.026686
vt 0.446480 0.030144
vt 0.447578 0.024954
vt 0.430780 0.022694
vt 0.448667 0.018116
vt 0.429388 0.016379
vt 0.445758 0.034770
vt 0.429139 0.030090
vt 0.447015 0.027503
vt 0.430941 0.024751
vt 0.445390 0.037003
vt 0.427870 0.031887
vt 0.406125 0.020050
vt 0.406222 0.018745
vt 0.405748 0.016362
vt 0.405477 0.015216
vt 0.403986 0.024727
vt 0.404553 0.023580
vt 0.405746 0.021310
vt 0.406048 0.017507
vt 0.405328 0.014008
vt 0.405369 0.012758
vt 0.405182 0.022478
vt 0.376744 0.015771
vt 0.376809 0.015053
vt 0.376260 0.013745
vt 0.375895 0.013143
vt 0.375237 0.018021
vt 0.375560 0.017439
vt 0.376442 0.016400
vt 0.376616 0.014361
vt 0.375116 0.018689
vt 0.376001 0.016931
vt 0.375213 0.019366
vt 0.604163 0.143089
vt 0.546667 0.130073
vt 0.547240 0.118790
vt 0.604435 0.129266
vt 0.591128 0.178771
vt 0.533153 0.163493
vt 0.537245 0.151350
vt 0.596078 0.167794
vt 0.601529 0.155908
vt 0.543015 0.140925
vt 0.546239 0.106959
vt 0.605748 0.116025
vt 0.456153 0.119337
vt 0.459175 0.113404
vt 0.461334 0.107008
vt 0.460958 0.100466
vt 0.454425 0.125211
vt 0.453865 0.131314
vt 0.970475 0.229121
vt 0.938018 0.209785
vt 0.940631 0.202402
vt 0.972966 0.219622
vt 0.954968 0.249775
vt 0.921508 0.229716
vt 0.927340 0.222550
vt 0.961348 0.244416
vt 0.967281 0.237585
vt 0.933552 0.216508
vt 0.942943 0.194358
vt 0.977421 0.211817
vt 0.879443 0.183181
vt 0.882823 0.180035
vt 0.885907 0.176136
vt 0.886981 0.171598
vt 0.877085 0.186716
vt 0.875608 0.190705
vt 0.506018 0.871161
vt 0.476261 0.888073
vt 0.374560 0.846024
vt 0.499361 0.827263
vt 0.593917 0.336362
vt 0.586945 0.355144
vt 0.567829 0.350448
vt 0.569256 0.339991
vt 0.510540 0.887996
vt 0.523807 0.926486
vt 0.515329 0.931371
vt 0.491250 0.898445
vt 0.521901 0.944408
vt 0.530916 0.938666
vt 0.544207 0.954537
vt 0.528451 0.969234
vt 0.554021 0.349467
vt 0.513782 0.355095
vt 0.511950 0.329877
vt 0.554428 0.339410
vt 0.530751 0.380895
vt 0.521366 0.369853
vt 0.560382 0.360333
vt 0.572821 0.364798
vt 0.557440 0.324714
vt 0.516836 0.316106
vt 0.526743 0.302122
vt 0.560640 0.315564
vt 0.498695 0.312634
vt 0.459671 0.304580
vt 0.478365 0.292507
vt 0.509166 0.297713
vt 0.348181 0.682135
vt 0.290824 0.657632
vt 0.340829 0.638112
vt 0.376825 0.652032
vt 0.461927 0.942672
vt 0.465531 0.933324
vt 0.489018 0.958167
vt 0.488968 0.966766
vt 0.508970 0.954038
vt 0.514147 0.975888
vt 0.503557 0.975938
vt 0.502375 0.959032
vt 0.415350 0.935605
vt 0.423287 0.909249
vt 0.451640 0.922969
vt 0.448259 0.936433
vt 0.552875 0.822407
vt 0.538556 0.876391
vt 0.522610 0.869773
vt 0.512046 0.824973
vt 0.419506 0.310551
vt 0.456168 0.239319
vt 0.478995 0.258224
vt 0.470912 0.277165
vt 0.595111 0.321309
vt 0.572986 0.324672
vt 0.574920 0.316764
vt 0.592189 0.311976
vt 0.548579 0.279738
vt 0.581960 0.300797
vt 0.570043 0.305046
vt 0.538692 0.289066
vt 0.494504 0.265587
vt 0.529964 0.273515
vt 0.521044 0.282342
vt 0.489012 0.277342
vt 0.418496 0.880880
vt 0.463188 0.901006
vt 0.457660 0.907642
vt 0.422661 0.891657
vt 0.453420 0.406219
vt 0.447723 0.381486
vt 0.502537 0.373425
vt 0.513482 0.386796
vt 0.494717 0.324876
vt 0.497123 0.357677
vt 0.444594 0.364922
vt 0.478399 0.909746
vt 0.503061 0.939993
vt 0.496147 0.945779
vt 0.472265 0.918310
vt 0.538018 0.892431
vt 0.544733 0.934617
vt 0.536577 0.927081
vt 0.525933 0.888513
vt 0.309119 0.639767
vt 0.322297 0.569408
vt 0.353378 0.568396
vt 0.338928 0.629263
vt 0.161528 0.824032
vt 0.271674 0.829608
vt 0.234584 0.878850
vt 0.142585 0.892670
vt 0.073727 0.556438
vt 0.134326 0.467772
vt 0.160800 0.504103
vt 0.115262 0.581595
vt 0.301881 0.352432
vt 0.292967 0.391302
vt 0.228877 0.410682
vt 0.221733 0.365024
vt 0.346482 0.835360
vt 0.293599 0.913339
vt 0.249258 0.883767
vt 0.287954 0.829582
vt 0.349166 0.820802
vt 0.288977 0.817752
vt 0.256516 0.754943
vt 0.322695 0.736507
vt 0.239457 0.741003
vt 0.152128 0.720725
vt 0.168044 0.691565
vt 0.245440 0.711384
vt 0.168495 0.945503
vt 0.144667 0.907497
vt 0.236862 0.893351
vt 0.276800 0.920330
vt 0.249177 0.499131
vt 0.181987 0.496132
vt 0.227742 0.424819
vt 0.286843 0.404788
vt 0.162330 0.808598
vt 0.150229 0.736451
vt 0.240369 0.756894
vt 0.272957 0.815750
vt 0.143812 0.454649
vt 0.209748 0.374332
vt 0.216366 0.417812
vt 0.169510 0.490127
vt 0.262294 0.504331
vt 0.298217 0.409023
vt 0.330991 0.464517
vt 0.311807 0.548515
vt 0.614984 0.633512
vt 0.619118 0.530941
vt 0.653586 0.567430
vt 0.661171 0.643487
vt 0.404945 0.547052
vt 0.371296 0.551413
vt 0.385572 0.476766
vt 0.410449 0.457545
vt 0.351098 0.459090
vt 0.390908 0.412694
vt 0.408652 0.442079
vt 0.378332 0.466078
vt 0.383790 0.641045
vt 0.351200 0.629475
vt 0.367567 0.567198
vt 0.402533 0.563272
vt 0.313418 0.355603
vt 0.380730 0.401088
vt 0.339275 0.451150
vt 0.301644 0.394264
vt 0.023097 0.719736
vt 0.047615 0.618917
vt 0.087541 0.615046
vt 0.073092 0.661071
vt 0.639001 0.542248
vt 0.724702 0.530055
vt 0.736761 0.561801
vt 0.659203 0.564649
vt 0.836774 0.746400
vt 0.727681 0.735138
vt 0.772287 0.691876
vt 0.861986 0.680022
vt 0.646321 0.266031
vt 0.751764 0.309882
vt 0.721734 0.342475
vt 0.646722 0.337952
vt 0.907018 0.421707
vt 0.853038 0.427385
vt 0.838146 0.375481
vt 0.888644 0.360707
vt 0.685974 0.727399
vt 0.711610 0.672591
vt 0.755679 0.688901
vt 0.711100 0.733771
vt 0.682092 0.743823
vt 0.708675 0.746709
vt 0.743283 0.812199
vt 0.678351 0.828060
vt 0.761229 0.827488
vt 0.847791 0.850351
vt 0.830789 0.880551
vt 0.753713 0.857650
vt 0.833755 0.628701
vt 0.859887 0.666207
vt 0.770002 0.679919
vt 0.727545 0.663467
vt 0.742976 0.429300
vt 0.734758 0.359849
vt 0.823450 0.376724
vt 0.839219 0.428066
vt 0.835366 0.762480
vt 0.849780 0.833913
vt 0.760503 0.811063
vt 0.725174 0.750146
vt 0.768070 0.315682
vt 0.869733 0.350886
vt 0.828635 0.364070
vt 0.740635 0.346212
vt 0.743315 0.445101
vt 0.839730 0.442390
vt 0.828244 0.497237
vt 0.738097 0.512441
vt 0.645865 0.747583
vt 0.615553 0.785548
vt 0.591978 0.766053
vt 0.608134 0.736430
vt 0.783114 0.603755
vt 0.762048 0.573784
vt 0.840986 0.557217
vt 0.871385 0.574524
vt 0.844314 0.515027
vt 0.906180 0.533953
vt 0.887333 0.565993
vt 0.848697 0.545491
vt 0.674929 0.643487
vt 0.665476 0.574820
vt 0.743752 0.576622
vt 0.766741 0.609462
vt 0.909115 0.437679
vt 0.910209 0.518338
vt 0.843876 0.498489
vt 0.853670 0.441107
vt 0.971537 0.869787
vt 0.966942 0.940088
vt 0.921041 0.953932
vt 0.925861 0.910212
vt 0.316837 0.721762
vt 0.255050 0.739654
vt 0.259608 0.710327
vt 0.302157 0.688245
vt 0.198967 0.647233
vt 0.288168 0.678843
vt 0.252681 0.699449
vt 0.176619 0.679198
vt 0.101971 0.615130
vt 0.183135 0.642120
vt 0.160381 0.674751
vt 0.090636 0.654326
vt 0.136241 0.717538
vt 0.048850 0.706829
vt 0.083558 0.668498
vt 0.151986 0.687326
vt 0.201354 0.619748
vt 0.127585 0.587884
vt 0.173182 0.510878
vt 0.242995 0.513662
vt 0.215823 0.625390
vt 0.256713 0.519119
vt 0.307213 0.564403
vt 0.021094 0.814187
vt 0.145133 0.823089
vt 0.125167 0.894862
vt 0.030514 0.903342
vt 0.047379 0.978158
vt 0.033182 0.918234
vt 0.127256 0.910105
vt 0.152246 0.949419
vt 0.021045 0.799019
vt 0.134122 0.734279
vt 0.145995 0.807627
vt 0.325647 0.554446
vt 0.343926 0.471901
vt 0.371785 0.478369
vt 0.356874 0.553389
vt 0.681181 0.844100
vt 0.745155 0.828136
vt 0.739049 0.857991
vt 0.695959 0.877503
vt 0.796953 0.927845
vt 0.708355 0.888052
vt 0.745582 0.869660
vt 0.821538 0.893412
vt 0.906039 0.955858
vt 0.814089 0.933542
vt 0.838831 0.898149
vt 0.911717 0.915824
vt 0.864251 0.854755
vt 0.943995 0.878888
vt 0.917959 0.903393
vt 0.847318 0.884956
vt 0.616564 0.434565
vt 0.644141 0.351754
vt 0.717921 0.357659
vt 0.726953 0.429640
vt 0.614293 0.450606
vt 0.727409 0.445557
vt 0.722311 0.514369
vt 0.979181 0.760667
vt 0.854144 0.747691
vt 0.880691 0.678336
vt 0.984135 0.669831
vt 0.978131 0.599978
vt 0.983857 0.654599
vt 0.879113 0.663952
vt 0.851862 0.624517
vt 0.977501 0.778163
vt 0.867374 0.837229
vt 0.852614 0.764413
vt 0.740620 0.528170
vt 0.828314 0.513172
vt 0.833563 0.544034
vt 0.753441 0.560027
vt 0.563406 0.618132
vt 0.633822 0.674395
vt 0.606720 0.670785
vt 0.539941 0.626108
vt 0.482255 0.532372
vt 0.549658 0.605872
vt 0.521770 0.615279
vt 0.464284 0.605921
vt 0.506839 0.689521
vt 0.525942 0.636566
vt 0.596822 0.681038
vt 0.596582 0.717929
vt 0.249757 0.265392
vt 0.244779 0.296798
vt 0.215307 0.296215
vt 0.236960 0.265449
vt 0.235753 0.255509
vt 0.207756 0.230410
vt 0.227838 0.217317
vt 0.247782 0.252391
vt 0.414454 0.813132
vt 0.403332 0.771290
vt 0.489285 0.772052
vt 0.499761 0.791242
vt 0.156187 0.345004
vt 0.137562 0.330254
vt 0.202902 0.306965
vt 0.228957 0.309726
vt 0.432348 0.664460
vt 0.459106 0.618663
vt 0.510723 0.630352
vt 0.490442 0.684085
vt 0.140916 0.265600
vt 0.132002 0.233898
vt 0.194804 0.235680
vt 0.220044 0.256277
vt 0.651833 0.732484
vt 0.611715 0.722694
vt 0.612103 0.686005
vt 0.652969 0.692884
vt 0.593123 0.732143
vt 0.577383 0.759808
vt 0.502998 0.754878
vt 0.504896 0.703474
vt 0.517122 0.789949
vt 0.508020 0.771854
vt 0.578953 0.775432
vt 0.595180 0.789030
vt 0.143760 0.201778
vt 0.213653 0.210957
vt 0.195252 0.223971
vt 0.134174 0.220921
vt 0.045258 0.199549
vt 0.127156 0.200735
vt 0.117493 0.220846
vt 0.045722 0.222740
vt 0.141565 0.279897
vt 0.221116 0.268959
vt 0.198995 0.297211
vt 0.132743 0.318785
vt 0.403239 0.757794
vt 0.426278 0.678882
vt 0.487847 0.698040
vt 0.486226 0.754829
vt 0.048977 0.385180
vt 0.040976 0.358224
vt 0.120237 0.335514
vt 0.140034 0.351619
vt 0.027416 0.281131
vt 0.024438 0.250310
vt 0.037780 0.236922
vt 0.116576 0.234143
vt 0.126063 0.267348
vt 0.029422 0.296519
vt 0.125801 0.282477
vt 0.116304 0.323438
vt 0.038000 0.345214
vt 0.603515 0.319516
vt 0.603515 0.338413
vt 0.594568 0.361313
vt 0.579621 0.377725
vt 0.503568 0.251140
vt 0.487208 0.244098
vt 0.407901 0.900480
vt 0.589939 0.290488
vt 0.600966 0.306753
vt 0.536014 0.394924
vt 0.518821 0.400856
vt 0.556438 0.267627
vt 0.540219 0.261115
vt 0.317742 0.343840
vt 0.301579 0.340248
vt 0.396668 0.407417
vt 0.385720 0.395515
vt 0.217935 0.357115
vt 0.202185 0.365723
vt 0.396022 0.647020
vt 0.388941 0.660455
vt 0.417312 0.437671
vt 0.423029 0.454663
vt 0.666958 0.741411
vt 0.671723 0.722380
vt 0.673006 0.847238
vt 0.669459 0.829080
vt 0.704269 0.665447
vt 0.721166 0.649731
vt 0.904426 0.972047
vt 0.921344 0.971960
vt 0.701559 0.899811
vt 0.687703 0.884673
vt 0.133757 0.446849
vt 0.123737 0.460084
vt 0.418448 0.548783
vt 0.415847 0.565869
vt 0.829710 0.614072
vt 0.848293 0.609228
vt 0.791702 0.941428
vt 0.809498 0.947636
vt 0.259075 0.246947
vt 0.262691 0.264920
vt 0.251434 0.300968
vt 0.235968 0.321288
vt 0.216179 0.199330
vt 0.232982 0.210654
vt 0.161520 0.357282
vt 0.145118 0.364302
vt 0.144956 0.189090
vt 0.127947 0.187695
vt 0.399880 0.934756
vt 0.464198 0.224842
vt 0.460719 0.420796
vt 0.361428 0.692082
vt 0.970435 0.958755
vt 0.062090 0.548452
vt 0.971918 0.584594
vt 0.058460 0.397200
vt 0.045964 0.184163
vt 0.374560 0.928725
vn 0.5180 0.2501 -0.8180
vn -0.2595 -0.9643 -0.0520
vn -0.3224 0.2808 0.9040
vn 0.5064 0.7185 -0.4768
vn 0.0607 -0.7866 -0.6145
vn -0.4574 -0.2765 0.8452
vn 0.2992 0.9510 0.0774
vn 0.3581 -0.2997 -0.8843
vn -0.4421 -0.7396 0.5075
vn -0.0383 0.7752 0.6306
vn -0.5485 -0.5664 -0.6151
vn -0.5561 0.7371 0.3840
vn 0.8878 0.1156 0.4455
vn -0.0131 -0.7880 -0.6156
vn -0.9264 0.3765 0.0012
vn 0.5412 0.5522 0.6342
vn 0.5577 -0.7445 -0.3670
vn -0.9105 -0.1399 -0.3892
vn 0.0067 0.7911 0.6117
vn 0.9193 -0.3880 0.0657
vn 0.9943 -0.0733 -0.0777
vn -0.1524 0.7635 0.6276
vn -0.8558 -0.4442 -0.2652
vn 0.7178 -0.5513 -0.4252
vn 0.4197 0.7156 0.5584
vn -0.9898 0.0602 0.1289
vn 0.1709 -0.7956 -0.5813
vn 0.8589 0.4138 0.3018
vn -0.6965 0.5336 0.4796
vn -0.4066 -0.7512 -0.5200
vn -0.5301 0.6868 0.4972
vn 0.9614 0.1869 0.2020
vn -0.1282 -0.8022 -0.5831
vn -0.9442 0.2711 0.1870
vn 0.6707 0.5854 0.4555
vn 0.5274 -0.7135 -0.4613
vn -0.9646 -0.2006 -0.1714
vn 0.1270 0.7996 0.5869
vn 0.9438 -0.3022 -0.1337
vn -0.6718 -0.5845 -0.4551
vn -0.5938 -0.4654 -0.6563
vn 0.9447 -0.2040 -0.2568
vn 0.0973 0.5708 0.8153
vn -0.9393 -0.1991 -0.2793
vn 0.4810 -0.5113 -0.7122
vn 0.5882 0.4537 0.6694
vn -0.9396 0.1996 0.2780
vn -0.1026 -0.5747 -0.8119
vn 0.9318 0.1906 0.3090
vn -0.4859 0.5073 0.7118
vn -0.9153 -0.2780 0.2913
vn 0.2775 0.9427 0.1853
vn 0.8715 -0.3898 -0.2974
vn -0.7040 -0.7005 0.1166
vn -0.3868 0.8356 0.3900
vn 0.9561 0.2175 -0.1965
vn -0.2727 -0.9589 -0.0779
vn -0.8608 0.2906 0.4179
vn 0.7360 0.6763 -0.0291
vn 0.3616 -0.8972 -0.2537
vn -0.4018 0.6941 0.5973
vn 0.9971 0.0651 -0.0389
vn -0.2170 -0.8191 -0.5310
vn -0.8302 0.3746 0.4129
vn 0.7708 0.5407 0.3370
vn 0.4024 -0.7359 -0.5445
vn -0.9920 -0.0830 0.0951
vn 0.2038 0.7832 0.5874
vn 0.8403 -0.4055 -0.3599
vn -0.7806 -0.5600 -0.2776
vn 0.2552 0.1318 0.9579
vn 0.2512 0.4523 -0.8558
vn -0.2896 -0.8607 0.4188
vn 0.5235 0.8377 0.1556
vn -0.2916 -0.6611 -0.6913
vn -0.5286 -0.5369 -0.6576
vn 0.0242 0.1400 0.9899
vn 0.6249 0.2629 -0.7352
vn -0.8148 -0.4897 0.3103
vn 0.7846 0.6038 0.1406
vn -0.7673 -0.4871 0.4171
vn 0.9228 0.3535 0.1534
vn -0.7600 -0.1410 -0.6344
vn 0.3569 -0.1618 0.9200
vn 0.3048 0.3758 -0.8752
vn -0.6211 -0.2641 -0.7379
vn 0.2196 -0.1925 0.9564
vn 0.3100 0.4640 -0.8298
vn -0.6473 -0.6646 0.3731
vn 0.8339 0.5099 0.2111
vn 0.5469 -0.0529 -0.8355
vn -0.9270 0.0011 0.3750
vn 0.9695 0.0662 0.2360
vn -0.6295 -0.0998 -0.7705
vn 0.0399 0.0939 0.9948
vn 0.9193 -0.3285 0.2165
vn -0.6244 0.1449 -0.7676
vn 0.0432 -0.0718 0.9965
vn 0.5282 -0.2044 -0.8242
vn -0.9029 0.2330 0.3612
vn -0.4655 -0.5181 -0.7176
vn 0.0406 0.0058 0.9992
vn 0.5488 0.4550 -0.7013
vn -0.7182 -0.6486 0.2520
vn 0.6883 0.6941 0.2109
vn -0.6676 -0.6532 0.3573
vn 0.8634 0.4690 0.1861
vn -0.7535 -0.1702 -0.6351
vn 0.4124 -0.2280 0.8820
vn 0.2101 0.5345 -0.8186
vn -0.4689 -0.4117 -0.7814
vn 0.0256 0.0556 0.9981
vn 0.4922 0.2241 -0.8412
vn -0.7765 -0.5118 0.3676
vn 0.8184 0.5184 0.2480
vn 0.4310 0.4115 -0.8030
vn -0.8545 -0.3849 0.3488
vn 0.9476 0.2154 0.2357
vn -0.6854 0.0414 -0.7270
vn 0.1595 -0.2778 0.9473
vn 0.9662 -0.2081 0.1524
vn -0.6632 0.1111 -0.7401
vn 0.0837 -0.1377 0.9869
vn 0.5177 -0.0618 -0.8534
vn -0.9080 0.0748 0.4123
vn 0.8984 -0.2995 0.3211
vn -0.1882 0.8526 0.4876
vn -0.8089 -0.1974 -0.5538
vn 0.6994 -0.7146 -0.0144
vn 0.4134 0.6179 0.6688
vn -0.8956 0.3100 -0.3191
vn 0.2065 -0.9080 -0.3645
vn 0.7991 0.1792 0.5738
vn -0.7009 0.7101 0.0676
vn -0.4097 -0.6997 -0.5853
vn -0.4711 -0.7716 -0.4273
vn -0.6484 0.5041 0.5705
vn 0.8900 0.4410 0.1156
vn 0.1178 -0.7992 -0.5894
vn -0.9605 0.0439 0.2748
vn 0.4871 0.7369 0.4688
vn 0.6635 -0.5195 -0.5385
vn -0.8877 -0.4479 -0.1068
vn -0.0918 0.7592 0.6444
vn 0.9611 -0.0404 -0.2734
vn 0.6938 0.6868 -0.2164
vn -0.7772 0.1869 -0.6008
vn -0.1388 -0.8023 0.5806
vn 0.9313 0.2711 0.2433
vn -0.4051 0.5854 -0.7023
vn -0.6757 -0.7135 0.1853
vn 0.7934 -0.2006 0.5747
vn 0.1415 0.7996 -0.5836
vn -0.9077 -0.3023 -0.2911
vn 0.4062 -0.5845 0.7024
vn 0.9508 -0.2780 0.1368
vn -0.1690 0.9427 -0.2877
vn -0.9140 -0.3898 -0.1122
vn 0.6844 -0.7005 0.2019
vn 0.5181 0.8356 -0.1824
vn -0.9461 0.2175 -0.2399
vn 0.2115 -0.9589 0.1890
vn 0.9569 0.2906 -0.0009
vn -0.6751 0.6763 -0.2946
vn -0.4360 -0.8972 0.0707
vn 0.6220 0.6941 -0.3624
vn -0.9143 0.0652 -0.3997
vn -0.0358 -0.8190 0.5726
vn 0.9272 0.3745 -0.0098
vn -0.5468 0.5407 -0.6393
vn -0.5996 -0.7359 0.3146
vn 0.9343 -0.0831 0.3468
vn 0.0727 0.7832 -0.6175
vn -0.9131 -0.4055 -0.0424
vn 0.5815 -0.5600 0.5901
vn 0.3563 -0.4623 -0.8120
vn -0.8370 0.2209 0.5005
vn 0.9944 0.1059 -0.0031
vn -0.7770 -0.3855 -0.4976
vn 0.2628 0.5260 0.8088
vn 0.9358 -0.2172 0.2776
vn -0.7470 -0.3583 -0.5600
vn 0.2161 0.6573 0.7220
vn 0.3619 -0.8048 -0.4704
vn -0.8103 0.5582 0.1785
vn 0.3682 0.3683 -0.8537
vn -0.7467 -0.5446 0.3819
vn 0.8282 0.5055 0.2421
vn -0.5963 -0.2642 -0.7580
vn 0.1423 -0.0573 0.9882
vn 0.9402 0.1522 0.3047
vn -0.5031 -0.3525 -0.7890
vn -0.0868 0.2367 0.9677
vn 0.6688 -0.1921 -0.7182
vn -0.9597 -0.0617 0.2743
vn 0.6162 -0.7875 -0.0139
vn 0.5661 0.8170 -0.1094
vn 0.0710 -0.9975 0.0000
vn 0.5408 -0.8387 -0.0643
vn 0.2283 0.9070 -0.3539
vn 0.1576 0.4113 -0.8978
vn 0.2794 0.8624 0.4222
vn 0.3282 0.7796 0.5334
vn -0.7755 0.2997 -0.5557
vn 0.1050 -0.5910 0.7998
vn 0.4935 -0.8595 0.1333
vn 0.2501 -0.2371 0.9388
vn 0.3657 -0.1443 -0.9195
vn 0.1174 0.7478 0.6535
vn 0.4958 0.8305 0.2539
vn 0.1242 0.5337 0.8365
vn 0.3557 0.5872 0.7270
vn 0.6488 -0.6607 0.3775
vn 0.2439 0.5354 -0.8086
vn 0.2243 0.8465 -0.4829
vn 0.0813 -0.9927 0.0896
vn 0.1516 -0.4381 -0.8860
vn 0.0813 0.9927 -0.0896
vn 0.0816 -0.9673 0.2400
vn 0.1140 0.5119 0.8515
vn 0.5396 0.6703 0.5095
vn 0.5455 -0.7122 0.4418
vn 0.5302 -0.7737 -0.3468
vn 0.0813 -0.9927 -0.0896
vn 0.1075 -0.5972 0.7949
vn 0.0498 0.9807 0.1889
vn 0.0846 -0.9700 -0.2281
vn 0.1105 0.5868 0.8022
vn 0.0498 0.9807 -0.1889
vn -0.8202 -0.1745 0.5448
vn 0.1057 0.6013 -0.7920
vn 0.5067 0.8540 -0.1185
vn 0.1114 0.5174 -0.8484
vn 0.5317 0.7321 -0.4259
vn -0.7436 -0.2098 -0.6348
vn 0.4634 -0.8779 -0.1203
vn 0.0758 0.9958 0.0512
vn 0.2083 -0.3496 -0.9134
vn 0.6310 -0.7318 -0.2575
vn 0.6688 0.6779 -0.3052
vn 0.5901 0.7948 0.1418
vn 0.0813 0.9927 0.0896
vn 0.1568 0.4026 -0.9018
vn 0.0557 -0.9836 -0.1716
vn 0.0751 0.9960 -0.0487
vn 0.1511 -0.4288 -0.8907
vn 0.0557 -0.9836 0.1716
vn 0.5439 -0.7829 0.3022
vn 0.1056 -0.6028 0.7908
vn 0.5067 -0.8540 0.1185
vn 0.1931 -0.3643 0.9110
vn 0.5931 -0.7877 0.1667
vn -0.7759 0.3001 0.5549
vn 0.5191 -0.8249 -0.2238
vn 0.1246 -0.5351 -0.8356
vn 0.1257 -0.4994 -0.8572
vn 0.3250 -0.8587 -0.3961
vn 0.0467 0.9944 0.0944
vn 0.0317 0.9930 -0.1139
vn 0.3221 -0.8665 0.3814
vn 0.1442 -0.4594 0.8765
vn 0.4316 -0.8698 -0.2390
vn 0.5191 0.8249 0.2238
vn 0.1246 0.5357 0.8352
vn 0.1257 0.4999 0.8569
vn 0.3872 -0.9072 -0.1643
vn 0.4083 -0.9030 0.1337
vn 0.0767 0.9967 0.0261
vn 0.1538 0.4632 -0.8728
vn 0.0620 0.9981 -0.0053
vn 0.1170 -0.4346 -0.8930
vn 0.1765 -0.2008 -0.9636
vn 0.1840 -0.8694 -0.4586
vn 0.5569 0.7643 -0.3253
vn 0.5790 0.7229 0.3771
vn 0.2699 0.0354 0.9622
vn 0.1215 0.4083 -0.9047
vn 0.4935 -0.8007 -0.3397
vn 0.0609 0.9981 0.0082
vn 0.5302 -0.7998 -0.2814
vn 0.1848 -0.8317 0.5236
vn 0.0814 -0.5994 0.7963
vn 0.0962 0.5364 0.8384
vn 0.0972 0.4986 0.8614
vn 0.0585 0.9970 0.0505
vn 0.4171 -0.8052 0.4215
vn 0.1190 0.4670 -0.8762
vn 0.0769 0.9969 0.0139
vn 0.0591 0.9979 0.0258
vn 0.9948 -0.0220 0.0993
vn 0.4878 -0.0350 -0.8723
vn 0.3227 0.8179 -0.4764
vn 0.2987 -0.8317 -0.4680
vn 0.4492 0.8932 0.0193
vn 0.2956 -0.9547 0.0333
vn 0.3179 0.2805 0.9057
vn 0.5785 0.0332 0.8150
vn 0.4203 -0.0757 0.9042
vn 0.1730 0.7386 0.6516
vn 0.3842 0.8439 0.3746
vn 0.3239 -0.8857 0.3327
vn 0.2412 -0.0069 -0.9704
vn 0.3849 0.9174 0.1011
vn 0.3466 -0.9380 0.0068
vn 0.1739 0.6894 -0.7032
vn 0.4069 -0.8313 -0.3786
vn 0.1454 0.0001 0.9894
vn 0.2403 0.6532 0.7180
vn 0.2191 -0.8671 0.4473
vn 0.9902 -0.0853 0.1106
vn 0.8922 0.0081 -0.4515
vn 0.3624 -0.9319 0.0177
vn 0.3376 0.9413 -0.0063
vn 0.3776 -0.0124 0.9259
vn 0.1847 -0.8360 0.5167
vn 0.1770 0.8227 0.5403
vn 0.2661 -0.9428 -0.2006
vn 0.2634 0.9373 -0.2281
vn -0.4501 0.0007 -0.8930
vn -0.1284 0.7928 -0.5958
vn 0.4203 0.0757 -0.9042
vn -0.0839 -0.5626 -0.8224
vn 0.3842 -0.8439 -0.3746
vn 0.3239 0.8857 -0.3327
vn 0.9844 -0.1380 -0.1092
vn 0.9664 -0.0142 0.2567
vn 0.5002 0.8658 -0.0141
vn 0.4014 -0.9159 0.0011
vn 0.4817 -0.0339 -0.8757
vn 0.2526 0.8206 -0.5127
vn 0.2455 -0.7518 -0.6120
vn 0.2759 0.9592 0.0613
vn 0.2716 -0.9465 0.1741
vn -0.4291 0.1135 0.8961
vn 0.2422 -0.7526 0.6123
vn -0.1407 0.7894 0.5976
vn 0.1088 -0.0034 0.9941
vn 0.2465 -0.9691 0.0042
vn 0.0216 0.9998 0.0000
vn 0.2954 -0.9440 -0.1472
vn 0.0859 0.9887 -0.1232
vn 0.1837 -0.8113 0.5551
vn 0.1231 0.8384 0.5310
vn 0.1199 0.0220 -0.9925
vn 0.1223 -0.8445 -0.5213
vn 0.1206 0.8584 -0.4985
vn 0.1824 -0.0083 -0.9832
vn 0.0831 0.9965 0.0005
vn 0.2121 -0.9772 -0.0000
vn 0.0718 0.9972 0.0228
vn 0.2795 -0.9564 0.0851
vn 0.1215 0.8515 -0.5101
vn 0.2510 -0.8015 -0.5428
vn 0.1199 -0.0229 0.9925
vn 0.1223 0.8449 0.5207
vn 0.3013 -0.8595 0.4128
vn 0.9853 -0.1605 0.0581
vn 0.4190 0.9079 0.0097
vn 0.4709 -0.8817 0.0279
vn 0.3759 -0.0353 -0.9260
vn 0.1950 0.8289 -0.5244
vn 0.1871 -0.7567 -0.6264
vn 0.3788 -0.0805 0.9220
vn 0.1830 0.8754 0.4474
vn 0.1669 -0.8368 0.5215
vn 0.1414 -0.0082 -0.9899
vn 0.0643 0.9976 0.0260
vn 0.3114 -0.9500 0.0214
vn 0.0939 0.8535 -0.5125
vn 0.4081 -0.7038 -0.5815
vn 0.0926 -0.0225 0.9954
vn 0.0926 0.8665 0.4906
vn 0.3267 -0.7026 0.6322
vn 0.8953 -0.0473 0.4429
vn 0.9815 -0.0230 -0.1902
vn 0.1727 -0.0126 -0.9849
vn 0.3233 0.9374 0.1295
vn 0.0762 -0.9961 0.0448
vn 0.5271 -0.8494 0.0278
vn 0.5506 0.8330 0.0537
vn 0.4086 0.8965 -0.1712
vn 0.3163 -0.9481 -0.0315
vn 0.4093 -0.7344 -0.5414
vn 0.4337 0.7029 -0.5637
vn 0.1806 0.7531 -0.6326
vn 0.6327 -0.6582 -0.4079
vn 0.4471 -0.0676 0.8919
vn 0.1325 -0.0409 0.9903
vn 0.2225 0.6816 0.6971
vn 0.3510 0.6966 0.6258
vn 0.1028 -0.8766 0.4701
vn 0.3532 -0.8277 0.4361
vn 0.3836 0.7713 0.5079
vn 0.3223 -0.9385 0.1236
vn 0.1123 0.7402 0.6629
vn 0.3944 0.8656 0.3085
vn 0.6888 -0.1572 0.7077
vn 0.3207 0.3505 0.8799
vn 0.3114 0.1175 -0.9430
vn 0.3156 0.9473 0.0547
vn 0.7293 -0.6377 0.2481
vn 0.2272 0.7053 -0.6715
vn 0.1298 -0.8360 -0.5332
vn 0.2920 0.1612 0.9427
vn 0.1895 0.7617 0.6196
vn 0.5285 -0.4589 0.7142
vn 0.2910 -0.9299 0.2249
vn 0.2396 0.5620 0.7917
vn 0.1712 -0.4445 0.8793
vn 0.3569 -0.9342 -0.0031
vn 0.2185 0.8730 -0.4361
vn 0.3163 -0.3513 -0.8812
vn 0.1972 0.4591 -0.8662
vn 0.3073 0.8001 0.5152
vn 0.8731 0.0470 -0.4853
vn 0.9148 -0.0482 -0.4011
vn 0.7736 0.6325 0.0380
vn 0.8259 -0.0376 0.5626
vn 0.6939 -0.7184 0.0481
vn 0.1143 -0.0062 0.9934
vn 0.0774 -0.9970 0.0059
vn 0.0279 0.9996 0.0000
vn 0.4494 -0.8677 -0.2124
vn 0.0824 0.9838 -0.1593
vn 0.4536 0.8603 -0.2328
vn 0.4548 -0.8554 -0.2478
vn 0.3001 -0.8650 0.4021
vn 0.2951 -0.8838 -0.3631
vn 0.2833 0.8592 -0.4260
vn 0.2876 0.8514 0.4387
vn 0.2850 0.7158 0.6375
vn 0.2924 -0.7381 0.6081
vn 0.1162 -0.8324 0.5419
vn 0.1160 0.8402 0.5297
vn -0.3784 0.4550 -0.8061
vn 0.1248 0.0400 -0.9914
vn -0.2798 -0.4376 -0.8545
vn 0.1665 -0.7266 -0.6666
vn 0.1113 0.8771 -0.4672
vn 0.3675 0.8105 -0.4561
vn 0.4130 -0.7288 -0.5462
vn 0.3294 0.9412 -0.0752
vn -0.0362 -0.6650 -0.7459
vn 0.3619 -0.9280 -0.0887
vn -0.2555 0.9171 -0.3059
vn -0.8113 0.0347 -0.5835
vn 0.8731 -0.0470 0.4853
vn 0.9952 -0.0860 0.0462
vn 0.7163 -0.6969 -0.0355
vn 0.9605 -0.0930 -0.2624
vn 0.8247 0.5620 -0.0630
vn 0.1784 -0.0129 -0.9839
vn 0.0814 0.9967 0.0014
vn 0.0329 -0.9995 0.0000
vn 0.0460 0.9970 -0.0616
vn 0.0820 -0.9871 0.1376
vn 0.4864 -0.8627 0.1387
vn 0.4893 0.8590 0.1506
vn 0.4116 0.8901 -0.1956
vn 0.3789 0.9150 0.1385
vn 0.3243 -0.9065 0.2704
vn 0.3484 -0.8922 -0.2874
vn 0.3888 -0.6542 -0.6487
vn 0.4153 0.6160 -0.6694
vn 0.1276 0.8429 -0.5227
vn 0.3730 -0.7302 -0.5725
vn -0.3682 -0.2712 0.8893
vn 0.1249 -0.0404 0.9914
vn -0.3736 0.4543 0.8087
vn 0.1210 0.8391 0.5304
vn 0.1112 -0.8775 0.4665
vn 0.3675 -0.8105 0.4561
vn 0.4130 0.7288 0.5462
vn 0.3294 -0.9412 0.0752
vn -0.2742 0.9083 0.3158
vn 0.3619 0.9280 0.0887
vn 0.0710 -0.9923 0.1011
vn -0.8177 0.0686 0.5715
vn 0.1163 0.0224 0.9930
vn 0.4063 -0.9112 0.0688
vn 0.0260 0.9997 0.0000
vn 0.0878 -0.9827 -0.1633
vn 0.0458 0.9989 -0.0056
vn 0.2412 -0.7347 0.6341
vn 0.1128 0.8347 0.5391
vn 0.1246 0.0112 -0.9921
vn 0.1191 -0.8516 -0.5104
vn 0.1176 0.8460 -0.5201
vn 0.1266 -0.5165 -0.8469
vn 0.1124 0.5577 -0.8224
vn 0.0550 0.9884 0.1417
vn 0.0550 0.9884 -0.1417
vn 0.2011 -0.9430 0.2652
vn 0.2675 -0.9284 -0.2578
vn 0.1154 0.5496 0.8274
vn 0.1355 -0.5545 0.8211
vn 0.1873 -0.9769 -0.1024
vn 0.1858 0.0418 -0.9817
vn 0.0819 0.9966 0.0003
vn 0.3945 -0.9185 -0.0261
vn 0.0744 0.9971 0.0167
vn 0.4217 -0.8978 -0.1268
vn 0.1240 0.8565 -0.5010
vn 0.1277 -0.7803 -0.6123
vn 0.1346 0.0462 0.9898
vn 0.1191 0.8518 0.5101
vn 0.4724 -0.7820 0.4066
vn 0.2825 -0.9593 0.0032
vn 0.1266 0.5176 0.8462
vn 0.1877 -0.5466 0.8161
vn 0.2254 -0.9620 -0.1539
vn 0.2465 -0.9573 0.1512
vn 0.0747 0.9965 0.0387
vn 0.0744 0.9965 -0.0373
vn 0.1995 -0.4464 -0.8723
vn 0.1527 0.4322 -0.8888
vn 0.9038 -0.1088 0.4139
vn 0.6186 -0.7854 0.0220
vn 0.9358 -0.0997 -0.3382
vn 0.7292 0.6839 0.0230
vn 0.1365 -0.0127 -0.9906
vn 0.0626 0.9976 0.0289
vn 0.2707 -0.9621 0.0333
vn 0.3459 0.9167 -0.2003
vn 0.3451 -0.8746 -0.3407
vn 0.3188 -0.6744 -0.6660
vn 0.3420 0.6380 -0.6899
vn 0.1005 0.8451 -0.5250
vn 0.5509 -0.6093 -0.5703
vn 0.0988 -0.0403 0.9943
vn 0.0988 0.8440 0.5272
vn 0.1107 -0.7644 0.6352
vn 0.2805 -0.7657 0.5789
vn 0.3297 0.6955 0.6384
vn 0.3326 -0.8593 0.3886
vn 0.3518 0.9033 0.2456
vn 0.1498 0.0751 -0.9859
vn 0.0654 0.9978 0.0091
vn 0.3689 -0.9283 0.0476
vn 0.0969 0.8587 -0.5033
vn 0.1229 -0.7077 -0.6958
vn 0.1315 0.1889 0.9731
vn 0.0900 0.8761 0.4736
vn 0.4995 -0.5489 0.6702
vn 0.0978 0.5193 0.8490
vn 0.2024 -0.5069 0.8379
vn 0.3283 -0.7874 -0.5218
vn 0.2873 -0.7766 0.5607
vn 0.0576 0.9976 0.0387
vn 0.2657 -0.4031 -0.8757
vn 0.1181 0.4343 -0.8930
vn 0.0601 0.9981 0.0155
vn 0.4671 0.0680 0.8816
usemtl Steine+Wurzel
s off
f 32/1/1 2/2/1 1/3/1 31/4/1
f 34/5/2 9/6/2 8/7/2 33/8/2
f 36/9/3 6/10/3 5/11/3 35/12/3
f 37/13/4 3/14/4 2/2/4 32/1/4
f 38/15/5 10/16/5 9/6/5 34/5/5
f 39/17/6 7/18/6 6/10/6 36/9/6
f 40/19/7 4/20/7 3/14/7 37/13/7
f 31/4/8 1/3/8 10/16/8 38/15/8
f 33/8/9 8/7/9 7/21/9 39/22/9
f 35/12/10 5/11/10 4/20/10 40/19/10
f 153/23/11 19/24/11 18/25/11 157/26/11
f 149/27/12 16/28/12 15/29/12 155/30/12
f 147/31/13 13/32/13 12/33/13 154/34/13
f 58/35/14 20/36/14 19/24/14 153/23/14
f 47/37/15 17/38/15 16/28/15 149/27/15
f 46/39/16 14/40/16 13/32/16 147/31/16
f 45/41/17 11/42/17 20/36/17 58/35/17
f 157/26/18 18/25/18 17/43/18 47/44/18
f 155/30/19 15/29/19 14/40/19 46/39/19
f 154/34/20 12/33/20 11/42/20 45/41/20
f 165/45/21 25/46/21 30/47/21 162/48/21
f 164/49/22 23/50/22 29/51/22 161/52/22
f 163/53/23 21/54/23 28/55/23 160/56/23
f 162/48/24 30/47/24 27/57/24 159/58/24
f 161/52/25 29/51/25 26/59/25 158/60/25
f 160/61/26 28/62/26 24/63/26 41/64/26
f 159/58/27 27/57/27 22/65/27 43/66/27
f 158/60/28 26/59/28 25/46/28 165/45/28
f 41/64/29 24/63/29 23/50/29 164/49/29
f 43/66/30 22/65/30 21/54/30 163/53/30
f 52/67/31 151/68/31 150/69/31 51/70/31
f 54/71/32 148/72/32 42/73/32 53/74/32
f 56/75/33 50/76/33 49/77/33 55/78/33
f 57/79/34 152/80/34 151/68/34 52/67/34
f 156/81/35 44/82/35 148/72/35 54/71/35
f 59/83/36 146/84/36 50/76/36 56/75/36
f 60/85/37 48/86/37 152/87/37 57/88/37
f 51/70/38 150/69/38 44/82/38 156/81/38
f 53/74/39 42/73/39 146/84/39 59/83/39
f 55/78/40 49/77/40 48/86/40 60/85/40
f 19/24/41 55/78/41 60/85/41 18/25/41
f 12/33/42 53/74/42 59/83/42 11/42/42
f 15/29/43 51/70/43 156/81/43 14/40/43
f 18/25/44 60/85/44 57/88/44 17/43/44
f 11/42/45 59/83/45 56/75/45 20/36/45
f 14/40/46 156/81/46 54/71/46 13/32/46
f 17/38/47 57/79/47 52/67/47 16/28/47
f 20/36/48 56/75/48 55/78/48 19/24/48
f 13/32/49 54/71/49 53/74/49 12/33/49
f 16/28/50 52/67/50 51/70/50 15/29/50
f 48/86/51 68/89/51 67/90/51 152/87/51
f 150/69/52 65/91/52 64/92/52 44/82/52
f 42/73/53 62/93/53 61/94/53 146/84/53
f 49/77/54 69/95/54 68/89/54 48/86/54
f 151/68/55 66/96/55 65/91/55 150/69/55
f 148/72/56 63/97/56 62/93/56 42/73/56
f 50/76/57 70/98/57 69/95/57 49/77/57
f 152/80/58 67/99/58 66/96/58 151/68/58
f 44/82/59 64/92/59 63/97/59 148/72/59
f 146/84/60 61/94/60 70/98/60 50/76/60
f 66/96/61 76/100/61 75/101/61 65/91/61
f 63/97/62 73/102/62 72/103/62 62/93/62
f 70/98/63 80/104/63 79/105/63 69/95/63
f 67/99/64 77/106/64 76/100/64 66/96/64
f 64/92/65 74/107/65 73/102/65 63/97/65
f 61/94/66 71/108/66 80/104/66 70/98/66
f 68/89/67 78/109/67 77/110/67 67/90/67
f 65/91/68 75/101/68 74/107/68 64/92/68
f 62/93/69 72/103/69 71/108/69 61/94/69
f 69/95/70 79/105/70 78/109/70 68/89/70
f 84/111/71 89/112/71 88/113/71 83/114/71
f 82/115/72 87/116/72 86/117/72 81/118/72
f 85/119/73 90/120/73 89/112/73 84/111/73
f 83/114/74 88/113/74 87/116/74 82/115/74
f 81/118/75 86/117/75 90/121/75 85/122/75
f 86/117/76 91/123/76 95/124/76 90/121/76
f 89/112/77 94/125/77 93/126/77 88/113/77
f 87/116/78 92/127/78 91/123/78 86/117/78
f 90/120/79 95/128/79 94/125/79 89/112/79
f 88/113/80 93/126/80 92/127/80 87/116/80
f 95/128/81 100/129/81 99/130/81 94/125/81
f 93/126/82 98/131/82 97/132/82 92/127/82
f 91/123/83 96/133/83 100/134/83 95/124/83
f 94/125/84 99/130/84 98/131/84 93/126/84
f 92/127/85 97/132/85 96/133/85 91/123/85
f 96/133/86 101/135/86 105/136/86 100/134/86
f 99/130/87 104/137/87 103/138/87 98/131/87
f 97/132/88 102/139/88 101/135/88 96/133/88
f 100/129/89 105/140/89 104/137/89 99/130/89
f 98/131/90 103/138/90 102/139/90 97/132/90
f 102/139/91 107/141/91 106/142/91 101/135/91
f 105/140/92 110/143/92 109/144/92 104/137/92
f 103/138/93 108/145/93 107/141/93 102/139/93
f 101/135/94 106/142/94 110/146/94 105/136/94
f 104/137/95 109/144/95 108/145/95 103/138/95
f 108/145/96 113/147/96 112/148/96 107/141/96
f 106/142/97 111/149/97 115/150/97 110/146/97
f 109/144/98 114/151/98 113/147/98 108/145/98
f 107/141/99 112/148/99 111/149/99 106/142/99
f 110/143/100 115/152/100 114/151/100 109/144/100
f 116/153/101 121/154/101 125/155/101 120/156/101
f 119/157/102 124/158/102 123/159/102 118/160/102
f 117/161/103 122/162/103 121/154/103 116/153/103
f 120/163/104 125/164/104 124/158/104 119/157/104
f 118/160/105 123/159/105 122/162/105 117/161/105
f 125/164/106 130/165/106 129/166/106 124/158/106
f 123/159/107 128/167/107 127/168/107 122/162/107
f 121/154/108 126/169/108 130/170/108 125/155/108
f 124/158/109 129/166/109 128/167/109 123/159/109
f 122/162/110 127/168/110 126/169/110 121/154/110
f 126/169/111 131/171/111 135/172/111 130/170/111
f 129/166/112 134/173/112 133/174/112 128/167/112
f 127/168/113 132/175/113 131/171/113 126/169/113
f 130/165/114 135/176/114 134/173/114 129/166/114
f 128/167/115 133/174/115 132/175/115 127/168/115
f 132/175/116 137/177/116 136/178/116 131/171/116
f 135/176/117 140/179/117 139/180/117 134/173/117
f 133/174/118 138/181/118 137/177/118 132/175/118
f 131/171/119 136/178/119 140/182/119 135/172/119
f 134/173/120 139/180/120 138/181/120 133/174/120
f 138/181/121 143/183/121 142/184/121 137/177/121
f 136/178/122 141/185/122 145/186/122 140/182/122
f 139/180/123 144/187/123 143/183/123 138/181/123
f 137/177/124 142/184/124 141/185/124 136/178/124
f 140/179/125 145/188/125 144/187/125 139/180/125
f 25/46/126 154/34/126 45/41/126 30/47/126
f 23/50/127 155/30/127 46/39/127 29/51/127
f 21/54/128 157/26/128 47/44/128 28/55/128
f 30/47/129 45/41/129 58/35/129 27/57/129
f 29/51/130 46/39/130 147/31/130 26/59/130
f 28/62/131 47/37/131 149/27/131 24/63/131
f 27/57/132 58/35/132 153/23/132 22/65/132
f 26/59/133 147/31/133 154/34/133 25/46/133
f 24/63/134 149/27/134 155/30/134 23/50/134
f 22/65/135 153/23/135 157/26/135 21/54/135
f 9/6/136 43/66/136 163/53/136 8/7/136
f 6/10/137 41/64/137 164/49/137 5/11/137
f 3/14/138 158/60/138 165/45/138 2/2/138
f 10/16/139 159/58/139 43/66/139 9/6/139
f 7/18/140 160/61/140 41/64/140 6/10/140
f 4/20/141 161/52/141 158/60/141 3/14/141
f 1/3/142 162/48/142 159/58/142 10/16/142
f 8/7/143 163/53/143 160/56/143 7/21/143
f 5/11/144 164/49/144 161/52/144 4/20/144
f 2/2/145 165/45/145 162/48/145 1/3/145
f 172/189/146 203/190/146 202/191/146 171/192/146
f 174/193/147 201/194/147 166/195/147 173/196/147
f 176/197/148 170/198/148 169/199/148 175/200/148
f 177/201/149 204/202/149 203/190/149 172/189/149
f 205/203/150 167/204/150 201/194/150 174/193/150
f 178/205/151 200/206/151 170/198/151 176/197/151
f 179/207/152 168/208/152 204/202/152 177/201/152
f 171/192/153 202/191/153 167/204/153 205/203/153
f 173/209/154 166/210/154 200/206/154 178/205/154
f 175/200/155 169/199/155 168/208/155 179/207/155
f 168/208/156 187/211/156 186/212/156 204/202/156
f 202/191/157 184/213/157 183/214/157 167/204/157
f 166/210/158 181/215/158 180/216/158 200/206/158
f 169/199/159 188/217/159 187/211/159 168/208/159
f 203/190/160 185/218/160 184/213/160 202/191/160
f 201/194/161 182/219/161 181/220/161 166/195/161
f 170/198/162 189/221/162 188/217/162 169/199/162
f 204/202/163 186/212/163 185/218/163 203/190/163
f 167/204/164 183/214/164 182/219/164 201/194/164
f 200/206/165 180/216/165 189/221/165 170/198/165
f 185/218/166 195/222/166 194/223/166 184/213/166
f 182/219/167 192/224/167 191/225/167 181/220/167
f 189/221/168 199/226/168 198/227/168 188/217/168
f 186/212/169 196/228/169 195/222/169 185/218/169
f 183/214/170 193/229/170 192/224/170 182/219/170
f 180/216/171 190/230/171 199/226/171 189/221/171
f 187/211/172 197/231/172 196/228/172 186/212/172
f 184/213/173 194/223/173 193/229/173 183/214/173
f 181/215/174 191/232/174 190/230/174 180/216/174
f 188/217/175 198/227/175 197/231/175 187/211/175
f 207/233/176 212/234/176 211/235/176 206/236/176
f 210/237/177 215/238/177 214/239/177 209/240/177
f 208/241/178 213/242/178 212/234/178 207/233/178
f 206/236/179 211/235/179 215/243/179 210/244/179
f 209/240/180 214/239/180 213/242/180 208/241/180
f 213/242/181 218/245/181 217/246/181 212/234/181
f 211/235/182 216/247/182 220/248/182 215/243/182
f 214/239/183 219/249/183 218/245/183 213/242/183
f 212/234/184 217/246/184 216/247/184 211/235/184
f 215/238/185 220/250/185 219/249/185 214/239/185
f 222/251/186 227/252/186 226/253/186 221/254/186
f 225/255/187 230/256/187 229/257/187 224/258/187
f 223/259/188 228/260/188 227/252/188 222/251/188
f 221/254/189 226/253/189 230/261/189 225/262/189
f 224/258/190 229/257/190 228/260/190 223/259/190
f 228/260/191 233/263/191 232/264/191 227/252/191
f 226/253/192 231/265/192 235/266/192 230/261/192
f 229/257/193 234/267/193 233/263/193 228/260/193
f 227/252/194 232/264/194 231/265/194 226/253/194
f 230/256/195 235/268/195 234/267/195 229/257/195
f 310/269/196 302/270/196 244/271/196 256/272/196
f 248/273/197 249/274/197 258/275/197 264/276/197
f 309/277/198 260/278/198 268/279/198 299/280/198
f 269/281/199 262/282/199 250/283/199 247/284/199
f 257/285/200 306/286/200 297/287/200 265/288/200
f 291/289/201 303/290/201 259/291/201 252/292/201
f 266/293/202 296/294/202 318/295/202 287/296/202
f 295/297/203 241/298/203 284/299/203 315/300/203
f 323/301/204 338/302/204 378/303/204 376/304/204
f 311/305/205 319/306/205 290/307/205 280/308/205
f 270/309/206 246/310/206 281/311/206 289/312/206
f 271/313/207 275/314/207 320/315/207 314/316/207
f 240/317/208 293/318/208 307/319/208 255/320/208
f 242/321/209 238/322/209 273/323/209 282/324/209
f 245/325/210 263/326/210 286/327/210 278/328/210
f 312/329/211 279/330/211 285/331/211 317/332/211
f 272/333/212 313/334/212 316/335/212 283/336/212
f 243/337/213 301/338/213 321/339/213 277/340/213
f 239/341/214 254/342/214 304/343/214 294/344/214
f 242/321/215 298/345/215 305/346/215 253/347/215
f 300/348/216 267/349/216 288/350/216 322/351/216
f 292/352/217 251/353/217 261/354/217 308/355/217
f 337/356/218 481/357/218 501/358/218 379/359/218
f 468/360/219 345/361/219 359/362/219 486/363/219
f 330/364/220 465/365/220 487/366/220 357/367/220
f 327/368/221 347/369/221 364/370/221 352/371/221
f 328/372/222 351/373/222 360/374/222 344/375/222
f 325/376/223 343/377/223 366/378/223 342/379/223
f 368/380/224 476/381/224 498/382/224 389/383/224
f 463/384/225 483/385/225 361/386/225 354/387/225
f 474/388/226 489/389/226 362/390/226 350/391/226
f 467/392/227 477/393/227 367/394/227 346/395/227
f 464/396/228 353/397/228 363/398/228 488/399/228
f 471/400/229 349/401/229 370/402/229 479/403/229
f 393/404/230 408/405/230 448/406/230 446/407/230
f 491/408/231 499/409/231 392/410/231 382/411/231
f 372/412/232 340/413/232 383/414/232 391/415/232
f 373/416/233 377/417/233 500/418/233 494/419/233
f 326/420/234 341/421/234 371/422/234 348/423/234
f 336/424/235 324/425/235 375/426/235 384/427/235
f 407/428/236 521/429/236 541/430/236 449/431/236
f 508/432/237 415/433/237 429/434/237 526/435/237
f 400/436/238 505/437/238 527/438/238 427/439/238
f 397/440/239 417/441/239 434/442/239 422/443/239
f 398/444/240 421/445/240 430/446/240 414/447/240
f 395/448/241 413/449/241 436/450/241 412/451/241
f 438/452/242 516/453/242 538/454/242 459/455/242
f 503/456/243 523/457/243 431/458/243 424/459/243
f 514/460/244 529/461/244 432/462/244 420/463/244
f 507/464/245 517/465/245 437/466/245 416/467/245
f 504/468/246 423/469/246 433/470/246 528/471/246
f 511/472/247 419/473/247 440/474/247 519/475/247
f 544/476/248 582/477/248 589/478/248 557/479/248
f 531/480/249 539/481/249 462/482/249 452/483/249
f 442/484/250 410/485/250 453/486/250 461/487/250
f 443/488/251 447/489/251 540/490/251 534/491/251
f 396/492/252 411/493/252 441/494/252 418/495/252
f 406/496/253 394/497/253 445/498/253 454/499/253
f 339/500/254 365/501/254 388/502/254 380/503/254
f 492/504/255 381/505/255 387/506/255 497/507/255
f 374/508/256 493/509/256 496/510/256 385/511/256
f 475/512/257 335/513/257 386/514/257 495/515/257
f 333/516/258 358/517/258 490/518/258 473/519/258
f 334/520/259 472/521/259 482/522/259 338/302/259
f 332/523/260 469/524/260 485/525/260 355/526/260
f 329/527/261 356/528/261 484/529/261 466/530/261
f 331/531/262 336/424/262 478/532/262 470/533/262
f 480/534/218 369/535/218 390/536/218 502/537/218
f 409/538/263 435/539/263 458/540/263 450/541/263
f 532/542/264 451/543/264 457/544/264 537/545/264
f 444/546/265 533/547/265 536/548/265 455/549/265
f 515/550/242 405/551/242 456/552/242 535/553/242
f 403/554/266 428/555/266 530/556/266 513/557/266
f 404/558/267 512/559/267 522/560/267 408/405/267
f 402/561/268 509/562/268 525/563/268 425/564/268
f 399/565/269 426/566/269 524/567/269 506/568/269
f 401/569/270 406/496/270 518/570/270 510/571/270
f 520/572/216 439/573/216 460/574/216 542/575/216
f 592/576/271 563/577/271 573/578/271 608/579/271
f 548/580/272 593/581/272 607/582/272 567/583/272
f 602/584/273 609/585/273 572/586/273 559/587/273
f 546/588/274 561/589/274 570/590/274 554/591/274
f 553/592/275 586/593/275 579/594/275 543/595/275
f 575/596/276 578/597/276 621/598/276 614/599/276
f 591/600/277 603/601/277 571/602/277 564/603/277
f 551/604/278 568/605/278 610/606/278 601/607/278
f 595/608/279 618/609/279 587/610/279 556/611/279
f 545/612/280 560/613/280 574/614/280 562/615/280
f 558/616/281 588/617/281 619/618/281 599/619/281
f 611/620/282 620/621/282 590/622/282 581/623/282
f 612/624/283 580/625/283 585/626/283 617/627/283
f 576/628/284 613/629/284 616/630/284 583/631/284
f 596/632/285 555/633/285 569/634/285 606/635/285
f 577/636/286 552/637/286 600/638/286 622/639/286
f 547/640/287 566/641/287 604/642/287 594/643/287
f 549/644/288 236/645/288 584/646/288 615/647/288 598/648/288
f 550/649/289 597/650/289 605/651/289 565/652/289
f 245/325/290 246/653/290 247/654/290 248/273/290
f 249/274/291 250/655/291 251/656/291 252/292/291
f 257/285/292 258/275/292 259/291/292
f 260/278/293 261/354/293 262/282/293
f 263/326/294 264/276/294 265/288/294 266/293/294
f 267/349/295 268/279/295 269/281/295 270/309/295
f 271/657/296 272/333/296 273/323/296 274/658/296
f 275/314/297 276/659/297 277/340/297
f 278/328/298 279/330/298 280/660/298 281/661/298
f 282/324/299 283/336/299 284/299/299
f 285/331/300 286/327/300 287/296/300
f 288/350/301 289/312/301 290/307/301
f 291/289/302 292/662/302 293/663/302 294/344/302
f 295/297/303 296/294/303 297/287/303 298/345/303
f 299/280/304 300/348/304 301/338/304 302/270/304
f 303/290/305 304/343/305 305/346/305 306/286/305
f 307/319/306 308/355/306 309/277/306 310/269/306
f 311/664/307 312/329/307 313/334/307 314/665/307
f 315/300/308 316/335/308 317/332/308 318/295/308
f 319/306/309 320/315/309 321/339/309 322/351/309
f 325/666/310 326/420/310 327/368/310 328/667/310
f 339/668/311 340/413/311 341/421/311 342/669/311
f 343/377/312 344/375/312 345/361/312 346/395/312
f 347/369/313 348/423/313 349/401/313 350/391/313
f 351/670/314 352/371/314 353/397/314 354/671/314
f 359/362/315 360/374/315 361/386/315
f 362/390/316 363/398/316 364/370/316
f 365/501/317 366/378/317 367/394/317 368/380/317
f 369/535/318 370/402/318 371/422/318 372/412/318
f 373/416/319 374/672/319 375/673/319 376/304/319
f 377/417/320 378/303/320 379/359/320
f 380/674/321 381/675/321 382/411/321 383/414/321
f 384/427/322 385/511/322 386/514/322
f 387/506/323 388/502/323 389/383/323
f 390/536/324 391/415/324 392/410/324
f 395/448/325 396/676/325 397/677/325 398/444/325
f 409/538/326 410/678/326 411/679/326 412/451/326
f 413/449/327 414/447/327 415/433/327 416/467/327
f 417/441/328 418/495/328 419/473/328 420/463/328
f 421/445/329 422/680/329 423/681/329 424/459/329
f 429/434/330 430/446/330 431/458/330
f 432/462/331 433/470/331 434/442/331
f 435/539/332 436/450/332 437/466/332 438/452/332
f 439/573/333 440/474/333 441/494/333 442/484/333
f 443/682/334 444/546/334 445/498/334 446/683/334
f 447/489/335 448/406/335 449/431/335
f 450/541/298 451/543/298 452/684/298 453/685/298
f 454/499/336 455/549/336 456/552/336
f 457/544/300 458/540/300 459/455/300
f 460/574/301 461/487/301 462/482/301
f 463/686/337 464/396/337 465/365/337 466/687/337
f 467/392/338 468/360/338 469/524/338 470/533/338
f 471/400/339 472/521/339 473/519/339 474/388/339
f 475/512/340 476/381/340 477/393/340 478/532/340
f 479/403/341 480/534/341 481/357/341 482/522/341
f 483/385/342 484/529/342 485/525/342 486/363/342
f 487/366/343 488/399/343 489/389/343 490/518/343
f 491/408/344 492/688/344 493/689/344 494/419/344
f 495/515/345 496/510/345 497/507/345 498/382/345
f 499/409/346 500/418/346 501/358/346 502/537/346
f 503/456/347 504/690/347 505/691/347 506/568/347
f 507/464/348 508/432/348 509/562/348 510/571/348
f 511/472/349 512/559/349 513/557/349 514/460/349
f 515/550/350 516/453/350 517/465/350 518/570/350
f 519/475/351 520/572/351 521/429/351 522/560/351
f 523/457/352 524/567/352 525/563/352 526/435/352
f 527/438/353 528/471/353 529/461/353 530/556/353
f 531/692/354 532/542/354 533/547/354 534/693/354
f 535/553/355 536/548/355 537/545/355 538/454/355
f 539/481/356 540/490/356 541/430/356 542/575/356
f 543/595/357 544/694/357 545/695/357 546/588/357
f 553/592/358 554/591/358 555/633/358 556/611/358
f 557/479/359 558/616/359 559/587/359 560/613/359
f 561/589/360 562/696/360 563/697/360 564/603/360
f 569/634/361 570/590/361 571/602/361
f 572/586/362 573/578/362 574/614/362
f 579/594/363 580/625/363 581/698/363 582/699/363
f 585/626/364 586/593/364 587/610/364
f 588/617/365 589/478/365 590/622/365
f 591/600/366 592/700/366 593/701/366 594/643/366
f 595/608/367 596/632/367 597/650/367 598/648/367
f 599/619/368 600/638/368 601/607/368 602/584/368
f 603/601/369 604/642/369 605/651/369 606/635/369
f 607/582/370 608/579/370 609/585/370 610/606/370
f 611/702/371 612/624/371 613/629/371 614/703/371
f 615/647/372 616/630/372 617/627/372 618/609/372
f 619/618/373 620/621/373 621/598/373 622/639/373
f 245/325/374 278/328/374 281/661/374 246/653/374
f 247/654/375 250/655/375 249/274/375 248/273/375
f 291/289/376 252/292/376 251/656/376 292/662/376
f 298/345/377 242/321/377 241/298/377 295/297/377
f 299/280/378 268/279/378 267/349/378 300/348/378
f 269/281/379 247/284/379 246/310/379 270/309/379
f 248/273/380 264/276/380 263/326/380 245/325/380
f 257/285/381 265/288/381 264/276/381 258/275/381
f 268/279/382 260/278/382 262/282/382 269/281/382
f 261/354/383 251/353/383 250/283/383 262/282/383
f 252/292/384 259/291/384 258/275/384 249/274/384
f 306/286/385 257/285/385 259/291/385 303/290/385
f 310/269/386 256/272/386 255/320/386 307/319/386
f 274/704/387 276/659/387 275/314/387 271/313/387
f 311/664/388 280/660/388 279/330/388 312/329/388
f 272/333/389 283/336/389 282/324/389 273/323/389
f 315/300/390 284/299/390 283/336/390 316/335/390
f 322/351/391 288/350/391 290/307/391 319/306/391
f 289/312/392 281/311/392 280/308/392 290/307/392
f 278/328/393 286/327/393 285/331/393 279/330/393
f 288/350/394 267/349/394 270/309/394 289/312/394
f 242/321/395 282/324/395 284/299/395 241/298/395
f 286/327/396 263/326/396 266/293/396 287/296/396
f 276/659/397 244/271/397 243/337/397 277/340/397
f 237/705/398 274/658/398 273/323/398 238/322/398
f 239/341/399 294/344/399 293/663/399 240/706/399
f 265/288/400 297/287/400 296/294/400 266/293/400
f 244/271/401 302/270/401 301/338/401 243/337/401
f 253/347/402 305/346/402 304/343/402 254/342/402
f 260/278/403 309/277/403 308/355/403 261/354/403
f 271/657/404 314/665/404 313/334/404 272/333/404
f 287/296/405 318/295/405 317/332/405 285/331/405
f 277/340/406 321/339/406 320/315/406 275/314/406
f 300/348/407 322/351/407 321/339/407 301/338/407
f 312/329/408 317/332/408 316/335/408 313/334/408
f 319/306/409 311/305/409 314/316/409 320/315/409
f 309/277/410 299/280/410 302/270/410 310/269/410
f 297/287/411 306/286/411 305/346/411 298/345/411
f 292/352/412 308/355/412 307/319/412 293/318/412
f 303/290/413 291/289/413 294/344/413 304/343/413
f 295/297/414 315/300/414 318/295/414 296/294/414
f 339/668/415 380/674/415 383/414/415 340/413/415
f 325/666/416 342/669/416 341/421/416 326/420/416
f 326/420/417 348/423/417 347/369/417 327/368/417
f 327/368/418 352/371/418 351/670/418 328/667/418
f 328/372/419 344/375/419 343/377/419 325/376/419
f 463/686/420 354/671/420 353/397/420 464/396/420
f 467/392/421 346/395/421 345/361/421 468/360/421
f 474/388/422 350/391/422 349/401/422 471/400/422
f 478/532/423 336/424/423 335/513/423 475/512/423
f 479/403/424 370/402/424 369/535/424 480/534/424
f 371/422/425 341/421/425 340/413/425 372/412/425
f 342/379/426 366/378/426 365/501/426 339/500/426
f 359/362/427 345/361/427 344/375/427 360/374/427
f 346/395/428 367/394/428 366/378/428 343/377/428
f 370/402/429 349/401/429 348/423/429 371/422/429
f 350/391/430 362/390/430 364/370/430 347/369/430
f 363/398/431 353/397/431 352/371/431 364/370/431
f 354/387/432 361/386/432 360/374/432 351/373/432
f 486/363/433 359/362/433 361/386/433 483/385/433
f 490/518/434 358/517/434 357/367/434 487/366/434
f 376/304/435 378/303/435 377/417/435 373/416/435
f 491/408/436 382/411/436 381/675/436 492/688/436
f 374/508/437 385/511/437 384/427/437 375/426/437
f 495/515/438 386/514/438 385/511/438 496/510/438
f 502/537/439 390/536/439 392/410/439 499/409/439
f 391/415/440 383/414/440 382/411/440 392/410/440
f 380/503/441 388/502/441 387/506/441 381/505/441
f 390/536/442 369/535/442 372/412/442 391/415/442
f 336/424/443 384/427/443 386/514/443 335/513/443
f 388/502/444 365/501/444 368/380/444 389/383/444
f 378/303/445 338/302/445 337/356/445 379/359/445
f 323/301/446 376/304/446 375/673/446 324/707/446
f 409/538/447 450/541/447 453/685/447 410/678/447
f 395/448/448 412/451/448 411/679/448 396/676/448
f 396/492/449 418/495/449 417/441/449 397/440/449
f 397/677/450 422/680/450 421/445/450 398/444/450
f 398/444/451 414/447/451 413/449/451 395/448/451
f 503/456/452 424/459/452 423/681/452 504/690/452
f 507/464/453 416/467/453 415/433/453 508/432/453
f 514/460/454 420/463/454 419/473/454 511/472/454
f 518/570/455 406/496/455 405/551/455 515/550/455
f 519/475/456 440/474/456 439/573/456 520/572/456
f 441/494/457 411/493/457 410/485/457 442/484/457
f 412/451/458 436/450/458 435/539/458 409/538/458
f 429/434/459 415/433/459 414/447/459 430/446/459
f 416/467/460 437/466/460 436/450/460 413/449/460
f 440/474/461 419/473/461 418/495/461 441/494/461
f 420/463/462 432/462/462 434/442/462 417/441/462
f 433/470/463 423/469/463 422/443/463 434/442/463
f 424/459/464 431/458/464 430/446/464 421/445/464
f 526/435/465 429/434/465 431/458/465 523/457/465
f 530/556/466 428/555/466 427/439/466 527/438/466
f 446/407/467 448/406/467 447/489/467 443/488/467
f 531/692/468 452/684/468 451/543/468 532/542/468
f 444/546/469 455/549/469 454/499/469 445/498/469
f 535/553/470 456/552/470 455/549/470 536/548/470
f 542/575/471 460/574/471 462/482/471 539/481/471
f 461/487/472 453/486/472 452/483/472 462/482/472
f 450/541/473 458/540/473 457/544/473 451/543/473
f 460/574/474 439/573/474 442/484/474 461/487/474
f 406/496/475 454/499/475 456/552/475 405/551/475
f 458/540/476 435/539/476 438/452/476 459/455/476
f 448/406/477 408/405/477 407/428/477 449/431/477
f 393/708/478 446/683/478 445/498/478 394/497/478
f 329/709/479 466/687/479 465/365/479 330/364/479
f 331/531/480 470/533/480 469/524/480 332/523/480
f 333/516/481 473/519/481 472/521/481 334/520/481
f 367/394/482 477/393/482 476/381/482 368/380/482
f 338/302/483 482/522/483 481/357/483 337/356/483
f 355/526/484 485/525/484 484/529/484 356/528/484
f 362/390/485 489/389/485 488/399/485 363/398/485
f 373/416/486 494/419/486 493/689/486 374/672/486
f 389/383/487 498/382/487 497/507/487 387/506/487
f 379/359/488 501/358/488 500/418/488 377/417/488
f 480/534/218 502/537/218 501/358/218 481/357/218
f 492/504/489 497/507/489 496/510/489 493/509/489
f 499/409/490 491/408/490 494/419/490 500/418/490
f 489/389/491 474/388/491 473/519/491 490/518/491
f 471/400/492 479/403/492 482/522/492 472/521/492
f 468/360/493 486/363/493 485/525/493 469/524/493
f 477/393/494 467/392/494 470/533/494 478/532/494
f 464/396/495 488/399/495 487/366/495 465/365/495
f 483/385/496 463/384/496 466/530/496 484/529/496
f 475/512/497 495/515/497 498/382/497 476/381/497
f 399/565/498 506/568/498 505/691/498 400/710/498
f 401/569/499 510/571/499 509/562/499 402/561/499
f 403/554/500 513/557/500 512/559/500 404/558/500
f 437/466/501 517/465/501 516/453/501 438/452/501
f 408/405/502 522/560/502 521/429/502 407/428/502
f 425/564/503 525/563/503 524/567/503 426/566/503
f 432/462/504 529/461/504 528/471/504 433/470/504
f 443/682/505 534/693/505 533/547/505 444/546/505
f 459/455/506 538/454/506 537/545/506 457/544/506
f 449/431/507 541/430/507 540/490/507 447/489/507
f 520/572/508 542/575/508 541/430/508 521/429/508
f 532/542/509 537/545/509 536/548/509 533/547/509
f 539/481/510 531/480/510 534/491/510 540/490/510
f 529/461/511 514/460/511 513/557/511 530/556/511
f 511/472/512 519/475/512 522/560/512 512/559/512
f 508/432/513 526/435/513 525/563/513 509/562/513
f 517/465/514 507/464/514 510/571/514 518/570/514
f 504/468/515 528/471/515 527/438/515 505/437/515
f 523/457/516 503/456/516 506/568/516 524/567/516
f 515/550/242 535/553/242 538/454/242 516/453/242
f 543/595/517 579/594/517 582/699/517 544/694/517
f 544/476/518 557/479/518 560/613/518 545/612/518
f 545/695/519 562/696/519 561/589/519 546/588/519
f 546/588/520 554/591/520 553/592/520 543/595/520
f 591/600/521 564/603/521 563/697/521 592/700/521
f 595/608/522 556/611/522 555/633/522 596/632/522
f 602/584/523 559/587/523 558/616/523 599/619/523
f 569/634/524 555/633/524 554/591/524 570/590/524
f 559/587/525 572/586/525 574/614/525 560/613/525
f 573/578/526 563/577/526 562/615/526 574/614/526
f 564/603/527 571/602/527 570/590/527 561/589/527
f 606/635/528 569/634/528 571/602/528 603/601/528
f 610/606/529 568/605/529 567/583/529 607/582/529
f 611/702/530 581/698/530 580/625/530 612/624/530
f 615/647/531 584/646/531 583/631/531 616/630/531
f 619/618/532 588/617/532 590/622/532 620/621/532
f 589/478/533 582/477/533 581/623/533 590/622/533
f 579/594/534 586/593/534 585/626/534 580/625/534
f 588/617/535 558/616/535 557/479/535 589/478/535
f 586/593/536 553/592/536 556/611/536 587/610/536
f 547/640/537 594/643/537 593/701/537 548/711/537
f 549/644/538 598/648/538 597/650/538 550/649/538
f 551/604/539 601/607/539 600/638/539 552/637/539
f 565/652/540 605/651/540 604/642/540 566/641/540
f 572/586/541 609/585/541 608/579/541 573/578/541
f 575/712/542 614/703/542 613/629/542 576/628/542
f 587/610/543 618/609/543 617/627/543 585/626/543
f 577/636/544 622/639/544 621/598/544 578/597/544
f 612/624/545 617/627/545 616/630/545 613/629/545
f 620/621/546 611/620/546 614/599/546 621/598/546
f 609/585/547 602/584/547 601/607/547 610/606/547
f 599/619/548 619/618/548 622/639/548 600/638/548
f 596/632/549 606/635/549 605/651/549 597/650/549
f 592/576/550 608/579/550 607/582/550 593/581/550
f 603/601/551 591/600/551 594/643/551 604/642/551
f 598/648/552 615/647/552 618/609/552 595/608/552
f 237/713/553 244/271/553 276/659/553 274/704/553
