# Blender v2.79 (sub 0) OBJ File: 'Burg Test.blend'
# www.blender.org
mtllib AnfangsWurzel_Final.mtl
o Wurzel_anfang_Circle
v -2.004671 3.134462 -12.413010
v -2.004671 3.295130 -12.360806
v -2.004671 3.394429 -12.224133
v -2.004671 3.394429 -12.055197
v -2.004671 3.295130 -11.918524
v -2.004671 3.134462 -11.866320
v -2.004671 2.973794 -11.918524
v -2.004671 2.874495 -12.055197
v -2.004671 2.874495 -12.224133
v -2.004671 2.973794 -12.360806
v -1.715613 3.061450 -12.512791
v -1.715613 3.205245 -12.466068
v -1.715613 3.294115 -12.343749
v -1.715613 3.294115 -12.192554
v -1.715613 3.205245 -12.070235
v -1.715613 3.061450 -12.023513
v -1.715613 2.917655 -12.070235
v -1.715613 2.828784 -12.192554
v -1.715613 2.828784 -12.343749
v -1.715613 2.917655 -12.466068
v -1.249066 3.045920 -12.401500
v -1.245226 3.178859 -12.356573
v -1.253403 3.260534 -12.242694
v -1.270473 3.259746 -12.103360
v -1.289917 3.176797 -11.991793
v -1.304307 3.043371 -11.950605
v -1.308147 2.910432 -11.995532
v -1.299970 2.828758 -12.109411
v -1.282899 2.829545 -12.248745
v -1.263456 2.912494 -12.360312
v -0.711119 2.998801 -12.241919
v -0.703224 3.130758 -12.194686
v -0.720741 3.212170 -12.081676
v -0.756979 3.211941 -11.946056
v -0.798095 3.130159 -11.839628
v -0.828386 2.998060 -11.803043
v -0.836281 2.866103 -11.850277
v -0.818763 2.784691 -11.963286
v -0.782526 2.784919 -12.098906
v -0.741409 2.866702 -12.205334
v -0.374839 2.981028 -11.997791
v -0.373405 3.099591 -11.952579
v -0.409623 3.172907 -11.855539
v -0.469659 3.172971 -11.743739
v -0.530581 3.099758 -11.659882
v -0.569119 2.981234 -11.635999
v -0.570553 2.862670 -11.681211
v -0.534335 2.789354 -11.778252
v -0.474299 2.789291 -11.890052
v -0.413377 2.862504 -11.973908
v -0.031183 2.915792 -11.491354
v -0.042570 3.032571 -11.447378
v -0.114269 3.106272 -11.377991
v -0.218893 3.108749 -11.309682
v -0.316466 3.039459 -11.267715
v -0.369708 2.925103 -11.267638
v -0.358293 2.809089 -11.310040
v -0.286596 2.735344 -11.379519
v -0.182001 2.732074 -11.449459
v -0.084445 2.800919 -11.492342
v 0.132173 2.814822 -11.043113
v 0.116394 2.905903 -11.014940
v 0.046559 2.966490 -10.980907
v -0.050653 2.973584 -10.953718
v -0.138109 2.924505 -10.943700
v -0.182408 2.837869 -10.954944
v -0.166633 2.746672 -10.983356
v -0.096808 2.685812 -11.017949
v 0.000402 2.678666 -11.045245
v 0.087867 2.727986 -11.054769
v 0.162525 2.706058 -10.659882
v 0.148797 2.785110 -10.635704
v 0.088057 2.838668 -10.604637
v 0.003450 2.846766 -10.578145
v -0.072694 2.806008 -10.566769
v -0.111228 2.731498 -10.575159
v -0.097413 2.651668 -10.599996
v -0.036576 2.597401 -10.631509
v 0.047998 2.589729 -10.657526
v 0.124025 2.631397 -10.668257
v -0.084601 2.559468 -9.671334
v -0.094556 2.618715 -9.650390
v -0.137804 2.659331 -9.625077
v -0.197818 2.665539 -9.605467
v -0.251675 2.634814 -9.599314
v -0.278817 2.579086 -9.608745
v -0.268878 2.519872 -9.629758
v -0.225645 2.479769 -9.654293
v -0.165626 2.473851 -9.673357
v -0.111749 2.504232 -9.679947
v -0.029220 2.152004 -9.087155
v -0.037037 2.196023 -9.061200
v -0.071840 2.223226 -9.035108
v -0.120336 2.223213 -9.018845
v -0.164003 2.196008 -9.018624
v -0.186168 2.152022 -9.034533
v -0.178362 2.108048 -9.060493
v -0.143562 2.080860 -9.086586
v -0.095058 2.080837 -9.102846
v -0.051382 2.108004 -9.103063
v -0.166787 1.668510 -8.313009
v -0.170467 1.694728 -8.300094
v -0.191268 1.712874 -8.286212
v -0.221237 1.715965 -8.276678
v -0.248942 1.702913 -8.275112
v -0.263815 1.678814 -8.282088
v -0.260173 1.652850 -8.294949
v -0.239387 1.634809 -8.308808
v -0.209389 1.631529 -8.318385
v -0.181652 1.644359 -8.320000
v -0.117627 1.863573 -8.820145
v -0.076505 1.861755 -8.834293
v -0.133660 1.960310 -8.765888
v -0.152950 1.924473 -8.777851
v -0.026068 1.955779 -8.802780
v -0.055255 1.979700 -8.781282
v -0.039186 1.882831 -8.835578
v -0.146830 1.887538 -8.798571
v -0.096345 1.981410 -8.767204
v -0.019927 1.918762 -8.823524
v -0.079505 2.394782 -9.386018
v -0.088518 2.447226 -9.362714
v -0.207964 2.316120 -9.379851
v -0.153333 2.313781 -9.396613
v -0.231531 2.453297 -9.318827
v -0.256285 2.402312 -9.331774
v -0.127852 2.481086 -9.337952
v -0.104264 2.343815 -9.398968
v -0.247286 2.349926 -9.355084
v -0.182477 2.483400 -9.321188
v -0.076044 2.753674 -10.123492
v -0.142031 2.720775 -10.111558
v 0.062490 2.620408 -10.205150
v 0.050355 2.691431 -10.181720
v -0.110162 2.533891 -10.173733
v -0.036699 2.523105 -10.199976
v -0.175285 2.656152 -10.119121
v -0.002554 2.742365 -10.150425
v 0.029239 2.556193 -10.211979
v -0.163103 2.584688 -10.142936
v -0.137290 2.732533 -9.866411
v -0.021927 2.593450 -9.905723
v -0.190171 2.534566 -9.905604
v -0.201546 2.710066 -9.866261
v -0.026275 2.660339 -9.890977
v -0.123226 2.515779 -9.914701
v -0.238571 2.654657 -9.875604
v -0.070342 2.713490 -9.875936
v -0.058960 2.538278 -9.914718
v -0.234227 2.587589 -9.890695
v -0.267000 1.366048 -7.950169
v -0.272000 1.385886 -7.933124
v -0.290685 1.397004 -7.917501
v -0.315923 1.395183 -7.909256
v -0.338077 1.381134 -7.911526
v -0.348683 1.360205 -7.923446
v -0.343685 1.340364 -7.940478
v -0.324990 1.329192 -7.956121
v -0.299745 1.330983 -7.964392
v -0.277595 1.345067 -7.962118
v -0.310946 1.571142 -8.058788
v -0.323819 1.549601 -8.068102
v -0.238684 1.569264 -8.081833
v -0.258336 1.583347 -8.067268
v -0.272378 1.512817 -8.106230
v -0.247357 1.525634 -8.105919
v -0.319636 1.527642 -8.082853
v -0.285936 1.584050 -8.058468
v -0.234488 1.547200 -8.096598
v -0.299988 1.513600 -8.097418
v -0.283796 1.150799 -7.677009
v -0.287114 1.166116 -7.668499
v -0.299709 1.175970 -7.660963
v -0.316770 1.176607 -7.657279
v -0.331784 1.167791 -7.658850
v -0.339014 1.152883 -7.665072
v -0.335698 1.137567 -7.673573
v -0.323101 1.127691 -7.681109
v -0.306036 1.127040 -7.684803
v -0.291023 1.135869 -7.683238
v -0.388930 1.006974 -7.431797
v -0.390892 1.013592 -7.427235
v -0.396291 1.019695 -7.426290
v -0.403063 1.022955 -7.429321
v -0.408622 1.022131 -7.435169
v -0.410848 1.017534 -7.441599
v -0.408889 1.010916 -7.446159
v -0.403492 1.004803 -7.447107
v -0.396717 1.001537 -7.444080
v -0.391155 1.002368 -7.438232
v -2.412130 3.264667 -12.295061
v -2.412130 3.425335 -12.242857
v -2.412130 3.524634 -12.106184
v -2.412130 3.524634 -11.937248
v -2.412130 3.425335 -11.800575
v -2.412130 3.264667 -11.748371
v -2.412130 3.103999 -11.800575
v -2.412130 3.004700 -11.937248
v -2.412130 3.004700 -12.106184
v -2.412130 3.103999 -12.242857
v -0.096332 2.600483 -9.845471
v -0.101251 2.626225 -9.805203
v -0.129848 2.635333 -9.766837
v -0.171252 2.624345 -9.745385
v -0.209687 2.597481 -9.749269
v -0.230450 2.565020 -9.776783
v -0.225553 2.539326 -9.817075
v -0.196854 2.530188 -9.854746
v -0.155366 2.541113 -9.875743
v -0.116979 2.567962 -9.872276
v -0.031028 2.290314 -9.720243
v -0.031905 2.298669 -9.682310
v -0.051621 2.293706 -9.648574
v -0.082720 2.277428 -9.632180
v -0.113374 2.256130 -9.639555
v -0.131840 2.237902 -9.667710
v -0.130984 2.229589 -9.705646
v -0.111123 2.234345 -9.738873
v -0.079915 2.250456 -9.754946
v -0.049335 2.271853 -9.747887
v 0.019795 2.051330 -9.709781
v 0.020941 2.050756 -9.685660
v 0.010398 2.042295 -9.665242
v -0.007867 2.029280 -9.656462
v -0.026919 2.016753 -9.662759
v -0.039448 2.009445 -9.681633
v -0.040608 2.010045 -9.705747
v -0.029948 2.018310 -9.725896
v -0.011597 2.031179 -9.734512
v 0.007392 2.043811 -9.728388
v 0.090369 1.816247 -9.782112
v 0.092351 1.812197 -9.766137
v 0.086258 1.803136 -9.753331
v 0.074366 1.792613 -9.748661
v 0.061186 1.784706 -9.753953
v 0.051778 1.782385 -9.767133
v 0.049786 1.786451 -9.783099
v 0.055976 1.795342 -9.795760
v 0.067936 1.805745 -9.800347
v 0.081064 1.813747 -9.795152
v 0.145092 1.627339 -9.799599
v 0.145757 1.626859 -9.786738
v 0.140185 1.622188 -9.775884
v 0.130472 1.615164 -9.771254
v 0.120305 1.608508 -9.774662
v 0.113585 1.604734 -9.784756
v 0.112912 1.605227 -9.797613
v 0.118547 1.609792 -9.808326
v 0.128307 1.616737 -9.812870
v 0.138439 1.623450 -9.809552
v -0.062627 2.752278 -10.933209
v -0.082718 2.803676 -10.916663
v -0.108862 2.852314 -10.936684
v -0.131249 2.879674 -10.985570
v -0.141365 2.875317 -11.044639
v -0.135185 2.840854 -11.091376
v -0.114949 2.789406 -11.107966
v -0.088466 2.740653 -11.088048
v -0.066014 2.713272 -11.039181
v -0.056198 2.717730 -10.980021
v -0.466919 2.450292 -10.854689
v -0.496002 2.492105 -10.841186
v -0.522042 2.534457 -10.861534
v -0.535272 2.561194 -10.907951
v -0.530672 2.562110 -10.962707
v -0.509840 2.536831 -11.004893
v -0.480614 2.494997 -11.018406
v -0.454237 2.452598 -10.998076
v -0.440944 2.425851 -10.951662
v -0.445841 2.424978 -10.896890
v -0.673430 2.301716 -10.912628
v -0.696892 2.335449 -10.901733
v -0.717901 2.369617 -10.918150
v -0.728574 2.391188 -10.955598
v -0.724863 2.391926 -10.999772
v -0.708057 2.371532 -11.033807
v -0.684479 2.337782 -11.044708
v -0.663199 2.303576 -11.028307
v -0.652474 2.281998 -10.990862
v -0.656425 2.281293 -10.946674
v -0.985168 2.215643 -11.050456
v -0.997578 2.233487 -11.044693
v -1.008691 2.251560 -11.053376
v -1.014337 2.262969 -11.073185
v -1.012373 2.263360 -11.096551
v -1.003484 2.252573 -11.114553
v -0.991012 2.234721 -11.120319
v -0.979756 2.216627 -11.111645
v -0.974083 2.205214 -11.091838
v -0.976173 2.204841 -11.068464
v -1.076658 2.138865 -11.327210
v -1.088709 2.150204 -11.332423
v -1.091446 2.163781 -11.343424
v -1.083861 2.174410 -11.356053
v -1.068859 2.178031 -11.365499
v -1.052136 2.173260 -11.368111
v -1.040053 2.161922 -11.362861
v -1.037245 2.148345 -11.351775
v -1.044816 2.137717 -11.339128
v -1.059882 2.134095 -11.329760
v -1.136501 2.141978 -11.567287
v -1.143770 2.150327 -11.568729
v -1.144971 2.160561 -11.573564
v -1.139670 2.168778 -11.579968
v -1.129897 2.171842 -11.585505
v -1.119362 2.168575 -11.588034
v -1.112073 2.160220 -11.586568
v -1.110825 2.149971 -11.581681
v -1.116117 2.141751 -11.575266
v -1.125932 2.138700 -11.569777
v -2.762422 3.273866 -12.293356
v -2.762422 3.444864 -12.237795
v -2.762422 3.550548 -12.092335
v -2.762422 3.550548 -11.912536
v -2.762422 3.444864 -11.767076
v -2.762422 3.273865 -11.711514
v -2.762422 3.102867 -11.767076
v -2.762422 2.997184 -11.912536
v -2.762422 2.997184 -12.092335
v -2.762422 3.102867 -12.237795
vt 0.858972 0.219275
vt 0.819302 0.221735
vt 0.823935 0.202273
vt 0.866527 0.199922
vt 0.884915 0.163779
vt 0.836809 0.157872
vt 0.842106 0.133991
vt 0.890662 0.143845
vt 0.888959 0.101291
vt 0.846774 0.089135
vt 0.845630 0.070197
vt 0.884142 0.079730
vt 0.879566 0.036592
vt 0.842843 0.036660
vt 0.842857 0.018467
vt 0.883011 0.015686
vt 0.876106 0.182048
vt 0.830088 0.180988
vt 0.891795 0.122803
vt 0.845967 0.110635
vt 0.880311 0.058153
vt 0.844200 0.053165
vt 0.772689 0.145958
vt 0.776265 0.126508
vt 0.784164 0.089448
vt 0.786933 0.071583
vt 0.788376 0.036227
vt 0.787119 0.018641
vt 0.770046 0.165614
vt 0.780367 0.107694
vt 0.788331 0.053927
vt 0.768115 0.184883
vt 0.766127 0.203161
vt 0.714714 0.081237
vt 0.719387 0.065310
vt 0.723015 0.033552
vt 0.721324 0.016579
vt 0.700465 0.156078
vt 0.700951 0.136014
vt 0.709088 0.098018
vt 0.722341 0.049528
vt 0.701296 0.175144
vt 0.703993 0.116388
vt 0.701323 0.193015
vt 0.677062 0.034862
vt 0.674550 0.019834
vt 0.653892 0.147438
vt 0.654075 0.127871
vt 0.662631 0.092386
vt 0.668751 0.077850
vt 0.676624 0.049583
vt 0.655751 0.165894
vt 0.657217 0.108912
vt 0.673690 0.063847
vt 0.657001 0.182553
vt 0.593886 0.134251
vt 0.595182 0.118875
vt 0.599452 0.089504
vt 0.602066 0.075478
vt 0.606614 0.047308
vt 0.607726 0.032443
vt 0.592275 0.149987
vt 0.597032 0.104042
vt 0.604573 0.061559
vt 0.589501 0.165680
vt 0.607471 0.017109
vt 0.548512 0.083175
vt 0.549489 0.070464
vt 0.550586 0.047144
vt 0.550798 0.035283
vt 0.538785 0.136883
vt 0.542261 0.123657
vt 0.547148 0.096544
vt 0.550172 0.058581
vt 0.534899 0.149673
vt 0.545025 0.110165
vt 0.550689 0.022611
vt 0.486047 0.124069
vt 0.485880 0.112026
vt 0.490322 0.088163
vt 0.494874 0.076818
vt 0.502715 0.055370
vt 0.503863 0.044988
vt 0.486535 0.135625
vt 0.487236 0.099944
vt 0.499513 0.065897
vt 0.502922 0.034673
vt 0.500198 0.024108
vt 0.394054 0.072196
vt 0.363831 0.068206
vt 0.366877 0.062323
vt 0.397159 0.064975
vt 0.403184 0.049373
vt 0.372278 0.049120
vt 0.372868 0.041260
vt 0.404294 0.040948
vt 0.390805 0.105117
vt 0.360072 0.096584
vt 0.359314 0.088843
vt 0.390623 0.096162
vt 0.391801 0.079643
vt 0.361247 0.074382
vt 0.400508 0.057454
vt 0.369978 0.056145
vt 0.403456 0.032452
vt 0.371533 0.033440
vt 0.369026 0.025841
vt 0.401048 0.024153
vt 0.390737 0.087601
vt 0.359625 0.081317
vt 0.332511 0.043977
vt 0.285245 0.038879
vt 0.284675 0.032657
vt 0.331834 0.037014
vt 0.320780 0.089364
vt 0.274567 0.081315
vt 0.274789 0.074952
vt 0.321137 0.082411
vt 0.325057 0.069524
vt 0.278156 0.062629
vt 0.280756 0.056816
vt 0.327834 0.063442
vt 0.332011 0.050821
vt 0.284766 0.045019
vt 0.330461 0.030027
vt 0.283446 0.026420
vt 0.282181 0.020055
vt 0.329183 0.022941
vt 0.322626 0.075797
vt 0.276008 0.068677
vt 0.330333 0.057279
vt 0.283157 0.051019
vt 0.231907 0.073047
vt 0.156877 0.055249
vt 0.155825 0.051135
vt 0.231048 0.067489
vt 0.232299 0.055920
vt 0.156098 0.043325
vt 0.157795 0.039823
vt 0.234709 0.050442
vt 0.240194 0.039882
vt 0.162293 0.032898
vt 0.163756 0.029072
vt 0.241600 0.034316
vt 0.240453 0.023481
vt 0.163083 0.021370
vt 0.161405 0.017721
vt 0.238646 0.018331
vt 0.231018 0.061678
vt 0.155438 0.047097
vt 0.237628 0.045186
vt 0.160081 0.036451
vt 0.241576 0.028780
vt 0.164026 0.025185
vt 0.424855 0.108480
vt 0.422556 0.098221
vt 0.444394 0.042248
vt 0.443480 0.032896
vt 0.430265 0.069699
vt 0.436619 0.061081
vt 0.422337 0.087983
vt 0.439659 0.024118
vt 0.441907 0.051838
vt 0.424996 0.078412
vt 0.427434 0.118515
vt 0.123669 0.038203
vt 0.092912 0.035472
vt 0.094249 0.032291
vt 0.125223 0.035349
vt 0.128773 0.029501
vt 0.097512 0.025823
vt 0.098455 0.022233
vt 0.129890 0.026215
vt 0.129009 0.019365
vt 0.097789 0.015152
vt 0.096647 0.011761
vt 0.127620 0.015807
vt 0.122846 0.041453
vt 0.092241 0.038826
vt 0.127049 0.032526
vt 0.095949 0.029155
vt 0.129957 0.022778
vt 0.098527 0.018615
vt 0.123038 0.045093
vt 0.092287 0.042312
vt 0.124006 0.048797
vt 0.092885 0.045741
vt 0.048349 0.033368
vt 0.048440 0.030944
vt 0.050011 0.026238
vt 0.051156 0.024108
vt 0.052612 0.019674
vt 0.052530 0.017305
vt 0.048609 0.035732
vt 0.049024 0.028517
vt 0.052125 0.021962
vt 0.051977 0.015008
vt 0.051124 0.012846
vt 0.011670 0.022222
vt 0.011524 0.021128
vt 0.011114 0.018978
vt 0.011101 0.017846
vt 0.011622 0.015597
vt 0.011959 0.014538
vt 0.011615 0.023333
vt 0.011292 0.020063
vt 0.011288 0.016707
vt 0.011308 0.024402
vt 0.010780 0.025383
vt 0.929664 0.186717
vt 0.920716 0.205536
vt 0.944546 0.130545
vt 0.942791 0.149723
vt 0.938120 0.068115
vt 0.940773 0.090175
vt 0.912572 0.224990
vt 0.937460 0.168298
vt 0.943554 0.110828
vt 0.939334 0.022796
vt 0.937587 0.045095
vt 0.393228 0.155853
vt 0.352440 0.142315
vt 0.352553 0.137173
vt 0.394169 0.149881
vt 0.376786 0.194085
vt 0.337700 0.171003
vt 0.340976 0.167623
vt 0.381589 0.189922
vt 0.389704 0.180131
vt 0.347332 0.160874
vt 0.349929 0.156846
vt 0.392052 0.174151
vt 0.393137 0.161826
vt 0.352349 0.147380
vt 0.372241 0.198519
vt 0.334671 0.174878
vt 0.386078 0.185424
vt 0.344244 0.164375
vt 0.393057 0.167900
vt 0.351652 0.152273
vt 0.353186 0.132114
vt 0.396289 0.144067
vt 0.311979 0.153109
vt 0.314178 0.150987
vt 0.318298 0.146425
vt 0.319846 0.143588
vt 0.321044 0.137244
vt 0.321085 0.133909
vt 0.309916 0.155473
vt 0.316333 0.148850
vt 0.320753 0.140489
vt 0.321288 0.130547
vt 0.321894 0.127317
vt 0.286110 0.130988
vt 0.287537 0.129186
vt 0.289087 0.125154
vt 0.289272 0.123051
vt 0.280735 0.138160
vt 0.281689 0.136140
vt 0.284505 0.132638
vt 0.288554 0.127212
vt 0.289329 0.120902
vt 0.289500 0.118721
vt 0.282971 0.134305
vt 0.264422 0.115411
vt 0.264557 0.113698
vt 0.258458 0.125450
vt 0.259333 0.123988
vt 0.261520 0.121469
vt 0.262609 0.120181
vt 0.264123 0.117093
vt 0.264728 0.111966
vt 0.265083 0.110266
vt 0.260389 0.122682
vt 0.263519 0.118708
vt 0.018783 0.060581
vt 0.084053 0.075515
vt 0.083012 0.082066
vt 0.017897 0.068702
vt 0.018282 0.084633
vt 0.081360 0.094160
vt 0.080282 0.100352
vt 0.018237 0.092532
vt 0.015474 0.108232
vt 0.077697 0.113878
vt 0.076692 0.120820
vt 0.013108 0.115553
vt 0.020793 0.052829
vt 0.085486 0.068752
vt 0.017935 0.076736
vt 0.082204 0.088180
vt 0.017305 0.100502
vt 0.079002 0.106939
vt 0.023785 0.045648
vt 0.087466 0.062021
vt 0.076207 0.127862
vt 0.010736 0.122911
vt 0.109439 0.100214
vt 0.108986 0.105252
vt 0.109815 0.115145
vt 0.110524 0.120166
vt 0.118787 0.079968
vt 0.115697 0.085200
vt 0.110692 0.095290
vt 0.109185 0.110304
vt 0.121544 0.074848
vt 0.112853 0.090293
vt 0.111013 0.125448
vt 0.154969 0.115097
vt 0.155698 0.118497
vt 0.156091 0.098598
vt 0.153216 0.099686
vt 0.149749 0.104020
vt 0.149382 0.106796
vt 0.153059 0.111988
vt 0.158602 0.096866
vt 0.151098 0.101577
vt 0.150521 0.109536
vt 0.155130 0.121698
vt 0.199457 0.105736
vt 0.198080 0.108278
vt 0.194109 0.112563
vt 0.192670 0.114822
vt 0.192182 0.119983
vt 0.193051 0.122433
vt 0.199949 0.102977
vt 0.196084 0.110526
vt 0.192001 0.117400
vt 0.194181 0.124804
vt 0.194858 0.127347
vt 0.232729 0.119985
vt 0.231870 0.121656
vt 0.231634 0.125481
vt 0.232166 0.127379
vt 0.236276 0.113567
vt 0.235859 0.115341
vt 0.233855 0.118500
vt 0.231494 0.123529
vt 0.232791 0.129175
vt 0.233181 0.131006
vt 0.234986 0.116999
vt 0.983550 0.044333
vt 0.984191 0.066725
vt 0.970684 0.200771
vt 0.961789 0.221189
vt 0.986446 0.135063
vt 0.983585 0.157555
vt 0.985672 0.089343
vt 0.952704 0.241096
vt 0.978288 0.179523
vt 0.986863 0.112181
vt 0.983892 0.021477
vn -0.1562 -0.9877 0.0000
vn 0.5115 0.2655 0.8172
vn 0.0375 0.8084 -0.5874
vn -0.3480 -0.7585 -0.5511
vn 0.4021 -0.2829 0.8708
vn 0.3279 0.9447 0.0000
vn -0.3765 -0.2863 -0.8811
vn 0.1497 -0.7999 0.5812
vn 0.4887 0.7059 0.5128
vn -0.2428 0.2998 -0.9226
vn -0.1529 0.3059 0.9397
vn 0.1805 0.8004 -0.5717
vn 0.1277 -0.8043 -0.5803
vn -0.1780 -0.3071 0.9349
vn 0.0732 0.9973 0.0070
vn 0.2124 -0.3054 -0.9282
vn -0.1181 -0.8070 0.5786
vn -0.0550 0.8069 0.5882
vn 0.2314 0.3030 -0.9245
vn 0.0014 -1.0000 -0.0026
vn 0.2370 0.8014 -0.5492
vn 0.1020 -0.8071 -0.5816
vn -0.3074 -0.3005 0.9029
vn 0.0854 0.9961 0.0202
vn 0.2454 -0.3103 -0.9184
vn -0.2418 -0.8007 0.5481
vn -0.1031 0.8071 0.5813
vn 0.2963 0.3021 -0.9060
vn -0.0840 -0.9963 -0.0200
vn -0.2541 0.3110 0.9158
vn 0.3334 -0.8106 -0.4815
vn -0.5256 -0.2772 0.8043
vn 0.1013 0.9941 0.0401
vn 0.5412 -0.3347 -0.7714
vn -0.3239 -0.7994 0.5060
vn -0.2585 0.8122 0.5229
vn 0.5814 0.2625 -0.7701
vn 0.0125 -0.9999 0.0042
vn -0.4982 0.3302 0.8017
vn 0.4245 0.7774 -0.4641
vn -0.8677 -0.2059 0.4525
vn 0.1033 0.9914 0.0804
vn 0.7526 -0.3507 -0.5573
vn -0.6125 -0.7459 0.2617
vn -0.4405 0.8175 0.3710
vn 0.8231 0.2313 -0.5186
vn -0.0967 -0.9929 -0.0694
vn -0.7941 0.3631 0.4874
vn 0.5968 0.7527 -0.2779
vn 0.4220 -0.8185 -0.3898
vn 0.1728 0.9471 0.2703
vn 0.8375 -0.3805 -0.3921
vn -0.5930 -0.7795 0.2018
vn -0.3723 0.7934 0.4816
vn 0.9330 0.2207 -0.2844
vn -0.0935 -0.9917 -0.0879
vn -0.7645 0.3406 0.5472
vn 0.6782 0.7345 -0.0255
vn 0.4463 -0.8380 -0.3138
vn -0.8555 -0.2644 0.4452
vn -0.6770 -0.7334 -0.0609
vn -0.4179 0.8421 0.3409
vn 0.9835 0.1789 -0.0271
vn -0.1385 -0.9694 -0.2028
vn -0.8675 0.4119 0.2790
vn 0.6941 0.7012 0.1628
vn 0.4461 -0.8582 -0.2539
vn -0.9705 -0.2065 0.1241
vn 0.1663 0.9402 0.2973
vn 0.8829 -0.4290 -0.1908
vn -0.3982 0.9032 0.1599
vn 0.9622 0.0326 0.2705
vn -0.2336 -0.9465 -0.2227
vn -0.8656 0.5006 -0.0051
vn 0.7581 0.5682 0.3201
vn 0.4047 -0.9122 -0.0647
vn -0.9852 -0.0663 -0.1578
vn 0.2489 0.9267 0.2816
vn 0.8473 -0.5139 0.1340
vn -0.7570 -0.6044 -0.2482
vn 0.9834 0.1807 -0.0180
vn -0.2049 -0.7856 -0.5838
vn -0.8511 0.2868 0.4398
vn 0.7279 0.5827 0.3614
vn 0.4015 -0.6786 -0.6151
vn -0.9774 -0.2020 0.0617
vn 0.2127 0.7624 0.6111
vn 0.8651 -0.3068 -0.3969
vn -0.7242 -0.6065 -0.3281
vn -0.3877 0.6564 0.6472
vn -0.2099 -0.8722 -0.4418
vn -0.8741 0.4836 0.0462
vn 0.7392 0.4869 0.4653
vn 0.4349 -0.8579 -0.2737
vn -0.9725 -0.0274 -0.2314
vn 0.2251 0.8312 0.5085
vn 0.8683 -0.4959 0.0086
vn -0.7395 -0.5310 -0.4138
vn -0.4250 0.8379 0.3425
vn 0.9608 0.0017 0.2771
vn 0.9890 0.1264 0.0763
vn -0.3765 0.6522 0.6580
vn -0.7339 -0.5601 -0.3843
vn 0.8804 -0.3408 -0.3298
vn 0.2379 0.7101 0.6627
vn -0.9869 -0.1608 -0.0157
vn 0.4020 -0.6935 -0.5978
vn 0.7371 0.5106 0.4426
vn -0.8653 0.3124 0.3921
vn -0.2211 -0.7647 -0.6053
vn -0.4050 0.7570 0.5129
vn -0.7306 -0.6055 -0.3156
vn 0.8903 -0.3861 -0.2414
vn 0.2243 0.8287 0.5127
vn -0.9870 -0.1591 -0.0211
vn 0.4181 -0.7811 -0.4637
vn 0.7350 0.5881 0.3374
vn -0.8807 0.3650 0.3020
vn -0.2129 -0.8475 -0.4862
vn 0.9877 0.1423 0.0643
vn -0.7221 -0.6609 -0.2042
vn 0.8787 -0.4656 0.1057
vn 0.1963 0.9519 0.2351
vn -0.9804 -0.1178 -0.1577
vn 0.4594 -0.8869 -0.0474
vn 0.7286 0.6241 0.2822
vn -0.8854 0.4623 -0.0481
vn -0.1688 -0.9714 -0.1673
vn 0.9686 0.0939 0.2301
vn -0.4445 0.8900 0.1017
vn -0.7591 -0.6140 -0.2162
vn 0.8321 -0.5166 0.2019
vn 0.2459 0.9577 0.1498
vn -0.9643 -0.0416 -0.2613
vn 0.3976 -0.9141 0.0796
vn 0.7615 0.5948 0.2577
vn -0.8338 0.5159 -0.1966
vn -0.2245 -0.9712 -0.0792
vn 0.9629 0.0412 0.2668
vn -0.3938 0.9185 -0.0364
vn -0.8913 0.3468 0.2920
vn 0.7117 0.3604 0.6030
vn 0.3849 -0.6083 -0.6941
vn -0.9737 -0.0439 -0.2235
vn 0.2388 0.5806 0.7784
vn 0.8947 -0.3635 -0.2597
vn -0.7122 -0.3640 -0.6001
vn -0.3837 0.6043 0.6983
vn 0.9687 0.0251 0.2470
vn -0.2425 -0.5714 -0.7840
vn -0.2266 -0.8176 -0.5293
vn 0.9562 -0.0117 0.2924
vn -0.3999 0.8306 0.3875
vn -0.7267 -0.4839 -0.4876
vn 0.8580 -0.5133 -0.0203
vn 0.2280 0.8038 0.5494
vn -0.9627 -0.0012 -0.2707
vn 0.4026 -0.8460 -0.3497
vn 0.7268 0.4712 0.4997
vn -0.8623 0.5027 0.0604
vn -0.6997 -0.5787 -0.4190
vn -0.4705 0.6679 0.5767
vn 0.9807 0.1195 0.1549
vn -0.1439 -0.7983 -0.5848
vn -0.9081 0.3089 0.2826
vn 0.7050 0.5251 0.4767
vn 0.4897 -0.7091 -0.5073
vn -0.9820 -0.1635 -0.0946
vn 0.1616 0.7450 0.6472
vn 0.9138 -0.3447 -0.2150
vn -0.8951 0.4454 -0.0177
vn 0.6763 0.4546 0.5796
vn 0.4848 -0.8365 -0.2556
vn -0.9454 -0.0344 -0.3241
vn 0.1460 0.7942 0.5898
vn 0.8715 -0.4816 0.0925
vn -0.6936 -0.5113 -0.5074
vn -0.4977 0.7949 0.3471
vn 0.9211 -0.0103 0.3893
vn -0.1539 -0.8516 -0.5011
vn -0.0880 -0.8059 0.5855
vn 0.3940 0.7436 0.5402
vn -0.1739 0.3043 -0.9366
vn -0.3044 -0.9525 0.0000
vn 0.3503 0.2894 0.8908
vn 0.0880 0.8059 -0.5855
vn -0.3940 -0.7436 -0.5402
vn 0.1739 -0.3043 0.9366
vn 0.3044 0.9525 0.0000
vn -0.3503 -0.2894 -0.8908
vn -0.2810 -0.4245 -0.8607
vn -0.8004 -0.0376 0.5983
vn 0.7858 0.3557 0.5061
vn 0.3399 -0.2908 -0.8944
vn -0.9604 -0.2745 0.0487
vn 0.3166 0.3703 0.8733
vn 0.8320 -0.0452 -0.5529
vn -0.7629 -0.4136 -0.4969
vn -0.3037 0.2188 0.9273
vn 0.9795 0.2010 -0.0150
vn -0.7025 -0.3190 0.6362
vn 0.8409 0.1729 0.5128
vn 0.2647 -0.0121 -0.9643
vn -0.9241 -0.3786 0.0516
vn 0.4326 0.0447 0.9005
vn 0.7859 0.1424 -0.6018
vn -0.7848 -0.3247 -0.5279
vn -0.1661 -0.1499 0.9747
vn 0.9777 0.2077 -0.0303
vn -0.3468 -0.1896 -0.9186
vn 0.8687 0.0964 0.4858
vn 0.1278 0.3166 -0.9399
vn -0.9236 -0.3824 0.0281
vn 0.5013 -0.1559 0.8511
vn 0.6944 0.3952 -0.6014
vn -0.8409 -0.1618 -0.5164
vn -0.0831 -0.3892 0.9174
vn 0.9535 0.2987 -0.0399
vn -0.4595 0.0976 -0.8828
vn -0.6497 -0.4805 0.5890
vn 0.2563 0.1474 -0.9553
vn -0.9429 -0.3314 0.0347
vn 0.3923 0.0046 0.9198
vn 0.7532 0.2730 -0.5985
vn -0.8056 -0.2360 -0.5434
vn -0.2346 -0.1931 0.9527
vn 0.9586 0.2814 -0.0438
vn -0.3510 -0.0526 -0.9349
vn -0.7387 -0.3169 0.5949
vn 0.8352 0.1837 0.5184
vn -0.4402 0.7003 0.5620
vn 0.5626 -0.5950 0.5740
vn 0.0673 -0.3701 -0.9266
vn -0.6221 0.7829 0.0065
vn 0.2912 -0.1509 0.9447
vn 0.4191 -0.7129 -0.5622
vn -0.5900 0.5758 -0.5660
vn -0.1007 0.3547 0.9296
vn 0.6043 -0.7967 -0.0010
vn -0.3268 0.1289 -0.9363
vn 0.3469 -0.7177 0.6038
vn 0.3095 -0.2477 -0.9181
vn -0.6539 0.7554 -0.0423
vn -0.0304 -0.3262 0.9448
vn 0.5417 -0.6518 -0.5308
vn -0.4519 0.6490 -0.6120
vn -0.4089 0.1785 0.8949
vn 0.5573 -0.8295 0.0366
vn -0.0752 0.2586 -0.9631
vn -0.6346 0.5776 0.5136
vn 0.3097 -0.2475 -0.9181
vn -0.4029 0.9150 -0.0185
vn -0.2532 -0.4523 0.8552
vn 0.3522 -0.7637 -0.5410
vn -0.1697 0.8062 -0.5669
vn -0.4627 0.1364 0.8760
vn 0.2307 -0.9730 0.0051
vn 0.1032 0.3703 -0.9232
vn -0.5191 0.6683 0.5329
vn 0.0076 -0.8558 0.5172
vn -0.5000 0.8521 -0.1544
vn -0.7003 -0.5945 0.3951
vn 0.9360 -0.3143 -0.1587
vn 0.2741 0.9001 -0.3388
vn -0.9218 -0.1949 0.3351
vn 0.4268 -0.8971 0.1142
vn 0.7198 0.6112 -0.3292
vn -0.9383 0.3095 0.1542
vn -0.2756 -0.9004 0.3366
vn 0.9305 0.2411 -0.2758
vn -0.7315 -0.6597 0.1720
vn 0.6863 -0.6927 -0.2218
vn 0.2639 0.9593 -0.1006
vn -0.9739 -0.0103 0.2268
vn 0.2137 -0.9737 -0.0793
vn 0.7318 0.6383 -0.2389
vn -0.7301 0.6637 0.1629
vn -0.2724 -0.9606 0.0560
vn 0.9513 -0.0427 -0.3053
vn -0.2393 0.9702 0.0372
vn -0.0127 -0.3090 -0.9510
vn 0.0587 -0.8076 0.5868
vn 0.1008 0.8049 0.5848
vn 0.0035 0.3090 -0.9511
vn 0.0215 -0.9998 0.0000
vn 0.1076 0.3072 0.9455
vn 0.0366 0.8085 -0.5874
vn -0.0059 -0.8090 -0.5878
vn 0.0916 -0.3077 0.9471
vn 0.0738 0.9973 0.0000
usemtl Steine+Wurzel
s off
f 9/1/1 19/2/1 18/3/1 8/4/1
f 6/5/2 16/6/2 15/7/2 5/8/2
f 3/9/3 13/10/3 12/11/3 2/12/3
f 10/13/4 20/14/4 19/15/4 9/16/4
f 7/17/5 17/18/5 16/6/5 6/5/5
f 4/19/6 14/20/6 13/10/6 3/9/6
f 1/21/7 11/22/7 20/14/7 10/13/7
f 8/4/8 18/3/8 17/18/8 7/17/8
f 5/8/9 15/7/9 14/20/9 4/19/9
f 2/12/10 12/11/10 11/22/10 1/21/10
f 16/6/11 26/23/11 25/24/11 15/7/11
f 13/10/12 23/25/12 22/26/12 12/11/12
f 20/14/13 30/27/13 29/28/13 19/15/13
f 17/18/14 27/29/14 26/23/14 16/6/14
f 14/20/15 24/30/15 23/25/15 13/10/15
f 11/22/16 21/31/16 30/27/16 20/14/16
f 18/3/17 28/32/17 27/29/17 17/18/17
f 15/7/18 25/24/18 24/30/18 14/20/18
f 12/11/19 22/26/19 21/31/19 11/22/19
f 19/2/20 29/33/20 28/32/20 18/3/20
f 23/25/21 33/34/21 32/35/21 22/26/21
f 30/27/22 40/36/22 39/37/22 29/28/22
f 27/29/23 37/38/23 36/39/23 26/23/23
f 24/30/24 34/40/24 33/34/24 23/25/24
f 21/31/25 31/41/25 40/36/25 30/27/25
f 28/32/26 38/42/26 37/38/26 27/29/26
f 25/24/27 35/43/27 34/40/27 24/30/27
f 22/26/28 32/35/28 31/41/28 21/31/28
f 29/33/29 39/44/29 38/42/29 28/32/29
f 26/23/30 36/39/30 35/43/30 25/24/30
f 40/36/31 50/45/31 49/46/31 39/37/31
f 37/38/32 47/47/32 46/48/32 36/39/32
f 34/40/33 44/49/33 43/50/33 33/34/33
f 31/41/34 41/51/34 50/45/34 40/36/34
f 38/42/35 48/52/35 47/47/35 37/38/35
f 35/43/36 45/53/36 44/49/36 34/40/36
f 32/35/37 42/54/37 41/51/37 31/41/37
f 39/44/38 49/55/38 48/52/38 38/42/38
f 36/39/39 46/48/39 45/53/39 35/43/39
f 33/34/40 43/50/40 42/54/40 32/35/40
f 47/47/41 57/56/41 56/57/41 46/48/41
f 44/49/42 54/58/42 53/59/42 43/50/42
f 41/51/43 51/60/43 60/61/43 50/45/43
f 48/52/44 58/62/44 57/56/44 47/47/44
f 45/53/45 55/63/45 54/58/45 44/49/45
f 42/54/46 52/64/46 51/60/46 41/51/46
f 49/55/47 59/65/47 58/62/47 48/52/47
f 46/48/48 56/57/48 55/63/48 45/53/48
f 43/50/49 53/59/49 52/64/49 42/54/49
f 50/45/50 60/61/50 59/66/50 49/46/50
f 54/58/51 64/67/51 63/68/51 53/59/51
f 51/60/52 61/69/52 70/70/52 60/61/52
f 58/62/53 68/71/53 67/72/53 57/56/53
f 55/63/54 65/73/54 64/67/54 54/58/54
f 52/64/55 62/74/55 61/69/55 51/60/55
f 59/65/56 69/75/56 68/71/56 58/62/56
f 56/57/57 66/76/57 65/73/57 55/63/57
f 53/59/58 63/68/58 62/74/58 52/64/58
f 60/61/59 70/70/59 69/77/59 59/66/59
f 57/56/60 67/72/60 66/76/60 56/57/60
f 68/71/61 78/78/61 77/79/61 67/72/61
f 65/73/62 75/80/62 74/81/62 64/67/62
f 62/74/63 72/82/63 71/83/63 61/69/63
f 69/75/64 79/84/64 78/78/64 68/71/64
f 66/76/65 76/85/65 75/80/65 65/73/65
f 63/68/66 73/86/66 72/82/66 62/74/66
f 70/70/67 80/87/67 79/88/67 69/77/67
f 67/72/68 77/79/68 76/85/68 66/76/68
f 64/67/69 74/81/69 73/86/69 63/68/69
f 61/69/70 71/83/70 80/87/70 70/70/70
f 144/89/71 85/90/71 84/91/71 141/92/71
f 145/93/72 82/94/72 81/95/72 142/96/72
f 146/97/73 89/98/73 88/99/73 143/100/73
f 147/101/74 86/102/74 85/90/74 144/89/74
f 148/103/75 83/104/75 82/94/75 145/93/75
f 149/105/76 90/106/76 89/107/76 146/108/76
f 150/109/77 87/110/77 86/102/77 147/101/77
f 141/92/78 84/91/78 83/104/78 148/103/78
f 142/96/79 81/95/79 90/106/79 149/105/79
f 143/100/80 88/99/80 87/110/80 150/109/80
f 122/111/81 92/112/81 91/113/81 121/114/81
f 124/115/82 99/116/82 98/117/82 123/118/82
f 126/119/83 96/120/83 95/121/83 125/122/83
f 127/123/84 93/124/84 92/112/84 122/111/84
f 128/125/85 100/126/85 99/127/85 124/128/85
f 129/129/86 97/130/86 96/120/86 126/119/86
f 130/131/87 94/132/87 93/124/87 127/123/87
f 121/114/88 91/113/88 100/126/88 128/125/88
f 123/118/89 98/117/89 97/130/89 129/129/89
f 125/122/90 95/121/90 94/132/90 130/131/90
f 112/133/91 109/134/91 108/135/91 111/136/91
f 114/137/92 106/138/92 105/139/92 113/140/92
f 116/141/93 103/142/93 102/143/93 115/144/93
f 117/145/94 110/146/94 109/147/94 112/148/94
f 118/149/95 107/150/95 106/138/95 114/137/95
f 119/151/96 104/152/96 103/142/96 116/141/96
f 120/153/97 101/154/97 110/146/97 117/145/97
f 111/136/98 108/135/98 107/150/98 118/149/98
f 113/140/99 105/139/99 104/152/99 119/151/99
f 115/144/100 102/143/100 101/154/100 120/153/100
f 92/112/101 115/144/101 120/153/101 91/113/101
f 95/121/102 113/140/102 119/151/102 94/132/102
f 98/117/103 111/136/103 118/149/103 97/130/103
f 91/113/104 120/153/104 117/145/104 100/126/104
f 94/132/105 119/151/105 116/141/105 93/124/105
f 97/130/106 118/149/106 114/137/106 96/120/106
f 100/126/107 117/145/107 112/148/107 99/127/107
f 93/124/108 116/141/108 115/144/108 92/112/108
f 96/120/109 114/137/109 113/140/109 95/121/109
f 99/116/110 112/133/110 111/136/110 98/117/110
f 85/90/111 125/122/111 130/131/111 84/91/111
f 88/99/112 123/118/112 129/129/112 87/110/112
f 81/95/113 121/114/113 128/125/113 90/106/113
f 84/91/114 130/131/114 127/123/114 83/104/114
f 87/110/115 129/129/115 126/119/115 86/102/115
f 90/106/116 128/125/116 124/128/116 89/107/116
f 83/104/117 127/123/117 122/111/117 82/94/117
f 86/102/118 126/119/118 125/122/118 85/90/118
f 89/98/119 124/115/119 123/118/119 88/99/119
f 82/94/120 122/111/120 121/114/120 81/95/120
f 78/78/121 135/155/121 140/156/121 77/79/121
f 71/83/122 133/157/122 139/158/122 80/87/122
f 74/81/123 131/159/123 138/160/123 73/86/123
f 77/79/124 140/156/124 137/161/124 76/85/124
f 80/87/125 139/158/125 136/162/125 79/88/125
f 73/86/126 138/160/126 134/163/126 72/82/126
f 76/85/127 137/161/127 132/164/127 75/80/127
f 79/84/128 136/165/128 135/155/128 78/78/128
f 72/82/129 134/163/129 133/157/129 71/83/129
f 75/80/130 132/164/130 131/159/130 74/81/130
f 135/155/131 143/100/131 150/109/131 140/156/131
f 133/157/132 142/96/132 149/105/132 139/158/132
f 131/159/133 141/92/133 148/103/133 138/160/133
f 140/156/134 150/109/134 147/101/134 137/161/134
f 139/158/135 149/105/135 146/108/135 136/162/135
f 138/160/136 148/103/136 145/93/136 134/163/136
f 137/161/137 147/101/137 144/89/137 132/164/137
f 136/165/138 146/97/138 143/100/138 135/155/138
f 134/163/139 145/93/139 142/96/139 133/157/139
f 132/164/140 144/89/140 141/92/140 131/159/140
f 162/166/141 156/167/141 155/168/141 161/169/141
f 164/170/142 153/171/142 152/172/142 163/173/142
f 166/174/143 160/175/143 159/176/143 165/177/143
f 167/178/144 157/179/144 156/167/144 162/166/144
f 168/180/145 154/181/145 153/171/145 164/170/145
f 169/182/146 151/183/146 160/175/146 166/174/146
f 170/184/147 158/185/147 157/179/147 167/178/147
f 161/169/148 155/168/148 154/181/148 168/180/148
f 163/173/149 152/172/149 151/183/149 169/182/149
f 165/186/150 159/187/150 158/185/150 170/184/150
f 109/134/151 165/186/151 170/184/151 108/135/151
f 102/143/152 163/173/152 169/182/152 101/154/152
f 105/139/153 161/169/153 168/180/153 104/152/153
f 108/135/154 170/184/154 167/178/154 107/150/154
f 101/154/155 169/182/155 166/174/155 110/146/155
f 104/152/156 168/180/156 164/170/156 103/142/156
f 107/150/157 167/178/157 162/166/157 106/138/157
f 110/146/158 166/174/158 165/177/158 109/147/158
f 103/142/159 164/170/159 163/173/159 102/143/159
f 106/138/160 162/166/160 161/169/160 105/139/160
f 158/185/161 178/188/161 177/189/161 157/179/161
f 155/168/162 175/190/162 174/191/162 154/181/162
f 152/172/163 172/192/163 171/193/163 151/183/163
f 159/187/164 179/194/164 178/188/164 158/185/164
f 156/167/165 176/195/165 175/190/165 155/168/165
f 153/171/166 173/196/166 172/192/166 152/172/166
f 160/175/167 180/197/167 179/198/167 159/176/167
f 157/179/168 177/189/168 176/195/168 156/167/168
f 154/181/169 174/191/169 173/196/169 153/171/169
f 151/183/170 171/193/170 180/197/170 160/175/170
f 176/195/171 186/199/171 185/200/171 175/190/171
f 173/196/172 183/201/172 182/202/172 172/192/172
f 180/197/173 190/203/173 189/204/173 179/198/173
f 177/189/174 187/205/174 186/199/174 176/195/174
f 174/191/175 184/206/175 183/201/175 173/196/175
f 171/193/176 181/207/176 190/203/176 180/197/176
f 178/188/177 188/208/177 187/205/177 177/189/177
f 175/190/178 185/200/178 184/206/178 174/191/178
f 172/192/179 182/202/179 181/207/179 171/193/179
f 179/194/180 189/209/180 188/208/180 178/188/180
f 7/17/181 197/210/181 198/211/181 8/4/181
f 4/19/182 194/212/182 195/213/182 5/8/182
f 1/21/183 191/214/183 192/215/183 2/12/183
f 8/4/184 198/211/184 199/216/184 9/1/184
f 5/8/185 195/213/185 196/217/185 6/5/185
f 2/12/186 192/215/186 193/218/186 3/9/186
f 9/16/187 199/219/187 200/220/187 10/13/187
f 6/5/188 196/217/188 197/210/188 7/17/188
f 3/9/189 193/218/189 194/212/189 4/19/189
f 10/13/190 200/220/190 191/214/190 1/21/190
f 209/221/191 219/222/191 218/223/191 208/224/191
f 206/225/192 216/226/192 215/227/192 205/228/192
f 203/229/193 213/230/193 212/231/193 202/232/193
f 210/233/194 220/234/194 219/222/194 209/221/194
f 207/235/195 217/236/195 216/226/195 206/225/195
f 204/237/196 214/238/196 213/230/196 203/229/196
f 201/239/197 211/240/197 220/234/197 210/233/197
f 208/224/198 218/223/198 217/241/198 207/242/198
f 205/228/199 215/227/199 214/238/199 204/237/199
f 202/232/200 212/231/200 211/240/200 201/239/200
f 216/226/201 226/243/201 225/244/201 215/227/201
f 213/230/202 223/245/202 222/246/202 212/231/202
f 220/234/203 230/247/203 229/248/203 219/222/203
f 217/236/204 227/249/204 226/243/204 216/226/204
f 214/238/205 224/250/205 223/245/205 213/230/205
f 211/240/206 221/251/206 230/247/206 220/234/206
f 218/223/207 228/252/207 227/253/207 217/241/207
f 215/227/208 225/244/208 224/250/208 214/238/208
f 212/231/209 222/246/209 221/251/209 211/240/209
f 219/222/210 229/248/210 228/252/210 218/223/210
f 223/245/211 233/254/211 232/255/211 222/246/211
f 230/247/212 240/256/212 239/257/212 229/248/212
f 227/249/213 237/258/213 236/259/213 226/243/213
f 224/250/214 234/260/214 233/254/214 223/245/214
f 221/251/215 231/261/215 240/256/215 230/247/215
f 228/252/216 238/262/216 237/263/216 227/253/216
f 225/244/217 235/264/217 234/260/217 224/250/217
f 222/246/218 232/255/218 231/261/218 221/251/218
f 229/248/219 239/257/219 238/262/219 228/252/219
f 226/243/220 236/259/220 235/264/220 225/244/220
f 240/256/221 250/265/221 249/266/221 239/257/221
f 237/258/222 247/267/222 246/268/222 236/259/222
f 234/260/223 244/269/223 243/270/223 233/254/223
f 231/261/224 241/271/224 250/265/224 240/256/224
f 238/262/225 248/272/225 247/273/225 237/263/225
f 235/264/226 245/274/226 244/269/226 234/260/226
f 232/255/227 242/275/227 241/271/227 231/261/227
f 239/257/228 249/266/228 248/272/228 238/262/228
f 236/259/229 246/268/229 245/274/229 235/264/229
f 233/254/230 243/270/230 242/275/230 232/255/230
f 254/276/231 264/277/231 263/278/231 253/279/231
f 251/280/232 261/281/232 270/282/232 260/283/232
f 258/284/233 268/285/233 267/286/233 257/287/233
f 255/288/234 265/289/234 264/277/234 254/276/234
f 252/290/235 262/291/235 261/281/235 251/280/235
f 259/292/236 269/293/236 268/285/236 258/284/236
f 256/294/237 266/295/237 265/289/237 255/288/237
f 253/279/238 263/278/238 262/291/238 252/290/238
f 260/283/239 270/282/239 269/293/239 259/292/239
f 257/287/240 267/286/240 266/296/240 256/297/240
f 261/281/241 271/298/241 280/299/241 270/282/241
f 268/285/242 278/300/242 277/301/242 267/286/242
f 265/289/243 275/302/243 274/303/243 264/277/243
f 262/291/244 272/304/244 271/298/244 261/281/244
f 269/293/245 279/305/245 278/300/245 268/285/245
f 266/295/246 276/306/246 275/302/246 265/289/246
f 263/278/247 273/307/247 272/304/247 262/291/247
f 270/282/248 280/299/248 279/305/248 269/293/248
f 267/286/249 277/301/249 276/308/249 266/296/249
f 264/277/250 274/303/250 273/307/250 263/278/250
f 278/300/251 288/309/251 287/310/251 277/301/251
f 275/302/252 285/311/252 284/312/252 274/303/252
f 272/304/253 282/313/253 281/314/253 271/298/253
f 279/305/254 289/315/254 288/309/254 278/300/254
f 276/306/255 286/316/255 285/311/255 275/302/255
f 273/307/256 283/317/256 282/313/256 272/304/256
f 280/299/257 290/318/257 289/315/257 279/305/257
f 277/301/258 287/310/258 286/319/258 276/308/258
f 274/303/259 284/312/259 283/317/259 273/307/259
f 271/298/260 281/314/260 290/318/260 280/299/260
f 285/311/261 295/320/261 294/321/261 284/312/261
f 282/313/262 292/322/262 291/323/262 281/314/262
f 289/315/263 299/324/263 298/325/263 288/309/263
f 286/316/264 296/326/264 295/320/264 285/311/264
f 283/317/265 293/327/265 292/322/265 282/313/265
f 290/318/266 300/328/266 299/324/266 289/315/266
f 287/310/267 297/329/267 296/330/267 286/319/267
f 284/312/268 294/321/268 293/327/268 283/317/268
f 281/314/269 291/323/269 300/328/269 290/318/269
f 288/309/270 298/325/270 297/329/270 287/310/270
f 292/322/271 302/331/271 301/332/271 291/323/271
f 299/324/272 309/333/272 308/334/272 298/325/272
f 296/326/273 306/335/273 305/336/273 295/320/273
f 293/327/274 303/337/274 302/331/274 292/322/274
f 300/328/275 310/338/275 309/333/275 299/324/275
f 297/329/276 307/339/276 306/340/276 296/330/276
f 294/321/277 304/341/277 303/337/277 293/327/277
f 291/323/278 301/332/278 310/338/278 300/328/278
f 298/325/279 308/334/279 307/339/279 297/329/279
f 295/320/280 305/336/280 304/341/280 294/321/280
f 200/220/281 320/342/281 311/343/281 191/214/281
f 197/210/282 317/344/282 318/345/282 198/211/282
f 194/212/283 314/346/283 315/347/283 195/213/283
f 191/214/284 311/343/284 312/348/284 192/215/284
f 198/211/285 318/345/285 319/349/285 199/216/285
f 195/213/286 315/347/286 316/350/286 196/217/286
f 192/215/287 312/348/287 313/351/287 193/218/287
f 199/219/288 319/352/288 320/342/288 200/220/288
f 196/217/289 316/350/289 317/344/289 197/210/289
f 193/218/290 313/351/290 314/346/290 194/212/290
