# Blender v2.79 (sub 0) OBJ File: 'Burg Test.blend'
# www.blender.org
mtllib Baumstamm_v1.mtl
o Cylinder
v 0.092127 5.134697 -124.441429
v 0.105522 5.321413 -135.137360
v 0.092396 4.569375 -124.315018
v 0.058351 4.838758 -135.395081
v 0.377090 4.688622 -124.423164
v 0.434151 4.873766 -135.144485
v 0.630860 4.809531 -124.382835
v 0.766132 4.913815 -135.156174
v 0.690105 5.030074 -124.469398
v 0.875933 5.126119 -135.137268
v 0.675077 5.232262 -124.728294
v 0.823772 5.351807 -135.040924
v 0.592280 5.367690 -124.432541
v 0.792203 5.584086 -135.029175
v 0.379606 5.578958 -124.403671
v 0.584671 5.775300 -134.999054
v 0.092396 5.582730 -124.476509
v 0.242473 5.831284 -135.035721
v -0.164150 5.532035 -124.488136
v -0.109471 5.761278 -135.111481
v -0.343523 5.393649 -124.530083
v -0.431520 5.604773 -135.156998
v -0.454790 5.226610 -124.528061
v -0.571623 5.400497 -135.124954
v -0.504177 5.001075 -124.688042
v -0.567152 5.231627 -135.110336
v -0.431420 4.859329 -124.404922
v -0.538702 5.075105 -135.248672
v -0.247373 4.601405 -124.273895
v -0.354600 4.903224 -135.440567
v 0.104216 4.586493 -126.982063
v 0.121990 4.598130 -129.821045
v 0.103119 4.619088 -132.643524
v 0.427631 4.753749 -132.559723
v 0.460650 4.716082 -129.795059
v 0.427858 4.710808 -127.040665
v 0.730154 4.860748 -132.599701
v 0.767418 4.803667 -129.796799
v 0.718814 4.818296 -127.023651
v 0.838647 5.097075 -132.594360
v 0.869175 5.020240 -129.815460
v 0.797432 5.052440 -127.090561
v 0.788645 5.337445 -132.542007
v 0.833024 5.228362 -129.776840
v 0.768686 5.271934 -127.086357
v 0.710369 5.568784 -132.593063
v 0.745251 5.436645 -129.786072
v 0.598384 5.406439 -127.062592
v 0.465993 5.718851 -132.628845
v 0.486736 5.599688 -129.803253
v 0.431539 5.538049 -127.053345
v 0.107417 5.725532 -132.638184
v 0.119919 5.625127 -129.850510
v 0.091707 5.479542 -127.114418
v -0.243020 5.686120 -132.626541
v -0.221678 5.573138 -129.855515
v -0.218772 5.506925 -127.118561
v -0.500688 5.553591 -132.618591
v -0.467547 5.419739 -129.874969
v -0.397332 5.432330 -127.146919
v -0.590333 5.334843 -132.548767
v -0.574891 5.215161 -129.835251
v -0.552353 5.264526 -127.122223
v -0.565058 5.113503 -132.487488
v -0.581325 5.007167 -129.778091
v -0.581736 5.058627 -127.057426
v -0.499179 4.885406 -132.552673
v -0.508512 4.797082 -129.801193
v -0.501760 4.833989 -127.025795
v -0.291679 4.653115 -132.645020
v -0.291157 4.598640 -129.813339
v -0.288956 4.608976 -126.951538
v 0.121768 4.628392 -130.964874
v 0.113349 4.627700 -131.554825
v 0.441114 4.748934 -131.494217
v 0.452327 4.732186 -130.882416
v 0.740956 4.832211 -131.486298
v 0.753670 4.805227 -130.849548
v 0.804333 5.070412 -131.266479
v 0.867382 5.072796 -130.909653
v 0.793787 5.327194 -131.418076
v 0.804758 5.264052 -130.601044
v 0.696518 5.492283 -131.317520
v 0.746948 5.521079 -130.912933
v 0.471606 5.687314 -131.521088
v 0.474177 5.650928 -130.862259
v 0.116211 5.698017 -131.580902
v 0.113007 5.679664 -130.955688
v -0.232809 5.653324 -131.567764
v -0.231256 5.629394 -130.980621
v -0.488919 5.510543 -131.553802
v -0.480179 5.472345 -130.982956
v -0.585399 5.295103 -131.510803
v -0.579946 5.258021 -130.951752
v -0.569723 5.081555 -131.474304
v -0.573964 5.052378 -130.916260
v -0.500213 4.865546 -131.507782
v -0.501382 4.846014 -130.941254
v -0.287924 4.650729 -131.551392
v -0.285067 4.645322 -130.968933
v 1.077260 5.180736 -131.233185
v 1.125242 5.181442 -130.982437
v 1.071205 5.381226 -131.349289
v 1.079813 5.329834 -130.864182
v 0.996623 5.513244 -131.263229
v 1.036876 5.524632 -130.978439
v 0.408324 4.708241 -125.914757
v 0.682422 4.820029 -125.885201
v 0.752192 5.039935 -125.957642
v 0.729305 5.233685 -126.062172
v 0.642625 5.391202 -125.914322
v 0.411122 5.560045 -125.891998
v 0.093187 5.595291 -125.962875
v -0.194604 5.520933 -125.977776
v -0.356151 5.440152 -126.015358
v -0.509748 5.256554 -126.001450
v -0.547412 5.036647 -126.034645
v -0.469844 4.849827 -125.895988
v -0.268580 4.612864 -125.799484
v 0.101985 4.587091 -125.836143
vt 0.750000 0.250000
vt 0.750000 0.490000
vt 0.854132 0.466233
vt 0.250000 0.250000
vt 0.354132 0.466233
vt 0.250000 0.490000
vt 1.000000 0.875000
vt 1.000000 1.000000
vt 0.928571 1.000000
vt 0.928571 0.875000
vt 0.937640 0.399638
vt 0.437640 0.399638
vt 0.857143 1.000000
vt 0.857143 0.875000
vt 0.983983 0.303405
vt 0.483983 0.303405
vt 0.785714 1.000000
vt 0.785714 0.875000
vt 0.983983 0.196595
vt 0.483983 0.196595
vt 0.714286 1.000000
vt 0.714286 0.875000
vt 0.937640 0.100362
vt 0.437640 0.100362
vt 0.642857 1.000000
vt 0.642857 0.875000
vt 0.854132 0.033767
vt 0.354132 0.033767
vt 0.571428 1.000000
vt 0.571428 0.875000
vt 0.750000 0.010000
vt 0.250000 0.010000
vt 0.500000 1.000000
vt 0.500000 0.875000
vt 0.645868 0.033767
vt 0.145868 0.033767
vt 0.428571 1.000000
vt 0.428571 0.875000
vt 0.562361 0.100362
vt 0.062360 0.100362
vt 0.357143 1.000000
vt 0.357143 0.875000
vt 0.516017 0.196595
vt 0.016017 0.196595
vt 0.285714 1.000000
vt 0.285714 0.875000
vt 0.516017 0.303405
vt 0.016017 0.303405
vt 0.214286 1.000000
vt 0.214286 0.875000
vt 0.562361 0.399638
vt 0.062360 0.399638
vt 0.142857 1.000000
vt 0.142857 0.875000
vt 0.645868 0.466233
vt 0.145868 0.466233
vt 0.071428 1.000000
vt 0.071428 0.875000
vt -0.000000 1.000000
vt -0.000000 0.875000
vt 0.071428 0.562500
vt 0.071428 0.625000
vt -0.000000 0.625000
vt -0.000000 0.562500
vt 0.071428 0.750000
vt -0.000000 0.750000
vt 0.071428 0.833333
vt -0.000000 0.833333
vt 0.142857 0.562500
vt 0.142857 0.625000
vt 0.142857 0.750000
vt 0.142857 0.833333
vt 0.214286 0.562500
vt 0.214286 0.625000
vt 0.214286 0.750000
vt 0.214286 0.833333
vt 0.285714 0.562500
vt 0.285714 0.625000
vt 0.285714 0.750000
vt 0.285714 0.833333
vt 0.357143 0.562500
vt 0.357143 0.625000
vt 0.357143 0.750000
vt 0.357143 0.833333
vt 0.428571 0.562500
vt 0.428571 0.625000
vt 0.428571 0.750000
vt 0.428571 0.833333
vt 0.500000 0.562500
vt 0.500000 0.625000
vt 0.500000 0.750000
vt 0.500000 0.833333
vt 0.571428 0.562500
vt 0.571428 0.625000
vt 0.571428 0.750000
vt 0.571428 0.833333
vt 0.642857 0.562500
vt 0.642857 0.625000
vt 0.642857 0.750000
vt 0.642857 0.833333
vt 0.714286 0.562500
vt 0.714286 0.625000
vt 0.714286 0.750000
vt 0.714286 0.833333
vt 0.785714 0.562500
vt 0.785714 0.625000
vt 0.785714 0.750000
vt 0.785714 0.833333
vt 0.857143 0.562500
vt 0.857143 0.625000
vt 0.857143 0.750000
vt 0.857143 0.833333
vt 0.928571 0.562500
vt 0.928571 0.625000
vt 0.928571 0.750000
vt 0.928571 0.833333
vt 1.000000 0.562500
vt 1.000000 0.625000
vt 1.000000 0.750000
vt 1.000000 0.833333
vt 1.000000 0.791667
vt 0.928571 0.791667
vt 0.857143 0.791667
vt 0.785714 0.791667
vt 0.714286 0.791667
vt 0.642857 0.791667
vt 0.714286 0.791667
vt 0.642857 0.791667
vt 0.785714 0.833333
vt 0.785714 0.791667
vt 0.571428 0.791667
vt 0.500000 0.791667
vt 0.428571 0.791667
vt 0.357143 0.791667
vt 0.285714 0.791667
vt 0.214286 0.791667
vt 0.142857 0.791667
vt 0.071428 0.791667
vt -0.000000 0.791667
vt 0.714286 0.833333
vt 0.642857 0.833333
vt 1.000000 0.500000
vt 0.928571 0.500000
vt 0.857143 0.500000
vt 0.785714 0.500000
vt 0.714286 0.500000
vt 0.642857 0.500000
vt 0.571428 0.500000
vt 0.500000 0.500000
vt 0.428571 0.500000
vt 0.357143 0.500000
vt 0.285714 0.500000
vt 0.214286 0.500000
vt 0.142857 0.500000
vt 0.071428 0.500000
vt -0.000000 0.500000
vn -0.0289 0.1247 0.9918
vn 0.2394 -0.6523 0.7191
vn 0.3385 -0.6771 0.6534
vn 0.1226 0.2519 -0.9600
vn 0.2979 -0.6827 -0.6671
vn 0.2935 -0.4903 -0.8206
vn 0.1087 -0.9933 -0.0388
vn 0.2942 -0.9554 -0.0262
vn 0.5630 -0.4124 0.7161
vn 0.4958 -0.5896 -0.6376
vn 0.6547 -0.7557 -0.0120
vn 0.7429 0.3049 0.5959
vn 0.7641 0.0287 -0.6445
vn 0.9936 -0.1127 0.0096
vn 0.9283 0.2868 0.2365
vn 0.7505 0.3104 -0.5834
vn 0.9689 0.2467 0.0178
vn 0.7292 0.0262 0.6837
vn 0.6690 0.4657 -0.5792
vn 0.8068 0.5900 0.0316
vn 0.2403 0.6899 0.6828
vn 0.3144 0.7885 -0.5286
vn 0.3321 0.9425 0.0368
vn -0.1489 0.7679 0.6229
vn 0.0626 0.8108 -0.5819
vn -0.0442 0.9985 0.0308
vn -0.3606 0.6734 0.6453
vn -0.1327 0.7482 -0.6500
vn -0.3048 0.9521 0.0245
vn -0.5765 0.5499 0.6043
vn -0.5051 0.5042 -0.7005
vn -0.7129 0.7011 0.0145
vn -0.7201 0.0873 0.6883
vn -0.7663 0.1108 -0.6329
vn -0.9836 0.1801 0.0038
vn -0.9587 -0.0598 0.2780
vn -0.8418 0.0388 -0.5383
vn -0.9840 -0.1781 -0.0063
vn -0.7915 0.0942 0.6038
vn -0.8070 0.0158 -0.5903
vn -0.8725 -0.4884 -0.0148
vn -0.3748 -0.5458 0.7494
vn -0.4024 -0.3323 -0.8530
vn -0.4358 -0.8993 -0.0354
vn -0.4620 -0.8868 0.0080
vn -0.4202 -0.9074 0.0094
vn 0.1579 -0.9874 0.0013
vn 0.1534 -0.9881 -0.0028
vn -0.3822 -0.9239 -0.0165
vn 0.1552 -0.9878 -0.0142
vn -0.4161 -0.9093 -0.0054
vn 0.1470 -0.9891 -0.0048
vn -0.8564 -0.5158 0.0224
vn -0.8501 -0.5264 0.0162
vn -0.8391 -0.5438 -0.0106
vn -0.8569 -0.5152 -0.0126
vn -0.9944 -0.1003 0.0334
vn -0.9943 -0.1045 0.0204
vn -0.9894 -0.1451 -0.0025
vn -0.9821 -0.1878 -0.0085
vn -0.9094 0.4143 0.0356
vn -0.9229 0.3846 0.0182
vn -0.9590 0.2833 0.0082
vn -0.9844 0.1751 0.0155
vn -0.6327 0.7741 0.0204
vn -0.6331 0.7739 0.0138
vn -0.7092 0.7046 0.0254
vn -0.7375 0.6742 0.0389
vn -0.3242 0.9460 -0.0082
vn -0.2566 0.9665 0.0005
vn -0.3060 0.9513 0.0382
vn -0.3135 0.9488 0.0382
vn -0.0694 0.9971 -0.0300
vn -0.0485 0.9988 -0.0073
vn -0.0411 0.9982 0.0438
vn -0.0471 0.9983 0.0330
vn 0.3459 0.9382 -0.0109
vn 0.2915 0.9565 -0.0020
vn 0.2771 0.9598 0.0446
vn 0.3151 0.9486 0.0295
vn 0.7533 0.6574 0.0181
vn 0.6841 0.7291 0.0177
vn 0.7412 0.6705 0.0311
vn 0.4863 0.8543 -0.1835
vn 0.9252 0.3780 0.0325
vn 0.9158 0.4006 0.0285
vn 0.9451 0.3264 0.0146
vn 0.8394 0.2429 -0.4861
vn 0.9961 -0.0798 0.0384
vn 0.9944 -0.1009 0.0307
vn 0.9945 -0.1042 0.0052
vn 0.8509 -0.4695 -0.2355
vn 0.7444 -0.6674 0.0217
vn 0.7107 -0.7031 0.0202
vn 0.6688 -0.7435 0.0011
vn 0.6865 -0.7265 -0.0280
vn 0.3748 -0.9271 0.0021
vn 0.3437 -0.9390 0.0043
vn 0.3072 -0.9516 -0.0060
vn 0.3111 -0.9502 -0.0196
vn 0.1473 -0.9889 -0.0193
vn 0.2882 -0.9573 -0.0227
vn 0.6614 -0.7491 -0.0379
vn 0.8276 -0.5459 0.1306
vn 0.9442 0.2575 0.2054
vn 0.4309 0.8865 0.1684
vn 0.8271 0.1440 0.5432
vn 0.5520 0.8069 0.2101
vn 0.7535 -0.5198 -0.4025
vn 0.8568 -0.4921 0.1539
vn 0.2944 0.9551 0.0331
vn -0.0452 0.9980 0.0439
vn -0.3386 0.9398 0.0462
vn -0.7421 0.6689 0.0428
vn -0.9782 0.2070 0.0156
vn -0.9846 -0.1747 -0.0103
vn -0.8419 -0.5392 -0.0226
vn -0.3873 -0.9217 -0.0227
vn 0.7059 0.1608 -0.6897
vn 0.4521 0.8079 -0.3781
usemtl None
s 1
f 1/1/1 3/2/2 5/3/3
f 2/4/4 6/5/5 4/6/6
f 33/7/7 4/8/6 6/9/5 34/10/8
f 1/1/1 5/3/3 7/11/9
f 2/4/4 8/12/10 6/5/5
f 34/10/8 6/9/5 8/13/10 37/14/11
f 1/1/1 7/11/9 9/15/12
f 2/4/4 10/16/13 8/12/10
f 37/14/11 8/13/10 10/17/13 40/18/14
f 1/1/1 9/15/12 11/19/15
f 2/4/4 12/20/16 10/16/13
f 40/18/14 10/17/13 12/21/16 43/22/17
f 1/1/1 11/19/15 13/23/18
f 2/4/4 14/24/19 12/20/16
f 43/22/17 12/21/16 14/25/19 46/26/20
f 1/1/1 13/23/18 15/27/21
f 2/4/4 16/28/22 14/24/19
f 46/26/20 14/25/19 16/29/22 49/30/23
f 1/1/1 15/27/21 17/31/24
f 2/4/4 18/32/25 16/28/22
f 49/30/23 16/29/22 18/33/25 52/34/26
f 1/1/1 17/31/24 19/35/27
f 2/4/4 20/36/28 18/32/25
f 52/34/26 18/33/25 20/37/28 55/38/29
f 1/1/1 19/35/27 21/39/30
f 2/4/4 22/40/31 20/36/28
f 55/38/29 20/37/28 22/41/31 58/42/32
f 1/1/1 21/39/30 23/43/33
f 2/4/4 24/44/34 22/40/31
f 58/42/32 22/41/31 24/45/34 61/46/35
f 1/1/1 23/43/33 25/47/36
f 2/4/4 26/48/37 24/44/34
f 61/46/35 24/45/34 26/49/37 64/50/38
f 1/1/1 25/47/36 27/51/39
f 2/4/4 28/52/40 26/48/37
f 64/50/38 26/49/37 28/53/40 67/54/41
f 1/1/1 27/51/39 29/55/42
f 2/4/4 30/56/43 28/52/40
f 67/54/41 28/53/40 30/57/43 70/58/44
f 1/1/1 29/55/42 3/2/2
f 2/4/4 4/6/6 30/56/43
f 70/58/44 30/57/43 4/59/6 33/60/7
f 119/61/45 72/62/46 31/63/47 120/64/48
f 72/62/46 71/65/49 32/66/50 31/63/47
f 99/67/51 70/58/44 33/60/7 74/68/52
f 118/69/53 69/70/54 72/62/46 119/61/45
f 69/70/54 68/71/55 71/65/49 72/62/46
f 97/72/56 67/54/41 70/58/44 99/67/51
f 117/73/57 66/74/58 69/70/54 118/69/53
f 66/74/58 65/75/59 68/71/55 69/70/54
f 95/76/60 64/50/38 67/54/41 97/72/56
f 116/77/61 63/78/62 66/74/58 117/73/57
f 63/78/62 62/79/63 65/75/59 66/74/58
f 93/80/64 61/46/35 64/50/38 95/76/60
f 115/81/65 60/82/66 63/78/62 116/77/61
f 60/82/66 59/83/67 62/79/63 63/78/62
f 91/84/68 58/42/32 61/46/35 93/80/64
f 114/85/69 57/86/70 60/82/66 115/81/65
f 57/86/70 56/87/71 59/83/67 60/82/66
f 89/88/72 55/38/29 58/42/32 91/84/68
f 113/89/73 54/90/74 57/86/70 114/85/69
f 54/90/74 53/91/75 56/87/71 57/86/70
f 87/92/76 52/34/26 55/38/29 89/88/72
f 112/93/77 51/94/78 54/90/74 113/89/73
f 51/94/78 50/95/79 53/91/75 54/90/74
f 85/96/80 49/30/23 52/34/26 87/92/76
f 111/97/81 48/98/82 51/94/78 112/93/77
f 48/98/82 47/99/83 50/95/79 51/94/78
f 83/100/84 46/26/20 49/30/23 85/96/80
f 110/101/85 45/102/86 48/98/82 111/97/81
f 45/102/86 44/103/87 47/99/83 48/98/82
f 81/104/88 43/22/17 46/26/20 83/100/84
f 109/105/89 42/106/90 45/102/86 110/101/85
f 42/106/90 41/107/91 44/103/87 45/102/86
f 79/108/92 40/18/14 43/22/17 81/104/88
f 108/109/93 39/110/94 42/106/90 109/105/89
f 39/110/94 38/111/95 41/107/91 42/106/90
f 77/112/96 37/14/11 40/18/14 79/108/92
f 107/113/97 36/114/98 39/110/94 108/109/93
f 36/114/98 35/115/99 38/111/95 39/110/94
f 75/116/100 34/10/8 37/14/11 77/112/96
f 120/117/48 31/118/47 36/114/98 107/113/97
f 31/118/47 32/119/50 35/115/99 36/114/98
f 74/120/52 33/7/7 34/10/8 75/116/100
f 32/119/50 73/121/101 76/122/102 35/115/99
f 73/121/101 74/120/52 75/116/100 76/122/102
f 35/115/99 76/122/102 78/123/103 38/111/95
f 76/122/102 75/116/100 77/112/96 78/123/103
f 38/111/95 78/123/103 80/124/104 41/107/91
f 78/123/103 77/112/96 79/108/92 80/124/104
f 41/107/91 80/124/104 82/125/105 44/103/87
f 84/126/106 82/125/105 104/127/107 106/128/108
f 44/103/87 82/125/105 84/126/106 47/99/83
f 80/124/104 79/108/92 101/129/109 102/130/110
f 47/99/83 84/126/106 86/131/111 50/95/79
f 84/126/106 83/100/84 85/96/80 86/131/111
f 50/95/79 86/131/111 88/132/112 53/91/75
f 86/131/111 85/96/80 87/92/76 88/132/112
f 53/91/75 88/132/112 90/133/113 56/87/71
f 88/132/112 87/92/76 89/88/72 90/133/113
f 56/87/71 90/133/113 92/134/114 59/83/67
f 90/133/113 89/88/72 91/84/68 92/134/114
f 59/83/67 92/134/114 94/135/115 62/79/63
f 92/134/114 91/84/68 93/80/64 94/135/115
f 62/79/63 94/135/115 96/136/116 65/75/59
f 94/135/115 93/80/64 95/76/60 96/136/116
f 65/75/59 96/136/116 98/137/117 68/71/55
f 96/136/116 95/76/60 97/72/56 98/137/117
f 68/71/55 98/137/117 100/138/118 71/65/49
f 98/137/117 97/72/56 99/67/51 100/138/118
f 71/65/49 100/138/118 73/139/101 32/66/50
f 100/138/118 99/67/51 74/68/52 73/139/101
f 102/130/110 101/129/109 103/140/119 104/127/107
f 104/127/107 103/140/119 105/141/120 106/128/108
f 82/125/105 80/124/104 102/130/110 104/127/107
f 81/104/88 83/100/84 105/141/120 103/140/119
f 79/108/92 81/104/88 103/140/119 101/129/109
f 83/100/84 84/126/106 106/128/108 105/141/120
f 3/142/2 120/117/48 107/113/97 5/143/3
f 5/143/3 107/113/97 108/109/93 7/144/9
f 7/144/9 108/109/93 109/105/89 9/145/12
f 9/145/12 109/105/89 110/101/85 11/146/15
f 11/146/15 110/101/85 111/97/81 13/147/18
f 13/147/18 111/97/81 112/93/77 15/148/21
f 15/148/21 112/93/77 113/89/73 17/149/24
f 17/149/24 113/89/73 114/85/69 19/150/27
f 19/150/27 114/85/69 115/81/65 21/151/30
f 21/151/30 115/81/65 116/77/61 23/152/33
f 23/152/33 116/77/61 117/73/57 25/153/36
f 25/153/36 117/73/57 118/69/53 27/154/39
f 27/154/39 118/69/53 119/61/45 29/155/42
f 29/155/42 119/61/45 120/64/48 3/156/2
