# Blender v2.79 (sub 0) OBJ File: 'Burg Test.blend'
# www.blender.org
mtllib BaumMitGabelung.mtl
o BaumMitGabelung_Cylinder.008
v -0.349476 0.451597 -38.396217
v -0.392446 3.250419 -48.549377
v -0.225616 0.467251 -38.394356
v -0.256448 3.216066 -48.549053
v -0.110451 0.513426 -38.388878
v -0.129333 3.207760 -48.547501
v -0.009514 0.586961 -38.386330
v -0.020646 3.234032 -48.540985
v 0.090609 0.687476 -38.436890
v 0.066702 3.292920 -48.507404
v 0.162226 0.804707 -38.486343
v 0.120736 3.375235 -48.459724
v 0.166139 0.917688 -38.449493
v 0.142260 3.439248 -48.343601
v 0.139143 1.020287 -38.416462
v 0.139036 3.506330 -48.225731
v 0.098048 1.108525 -38.425343
v 0.109054 3.603978 -48.186813
v 0.005327 1.174214 -38.381092
v 0.050550 3.708933 -48.181351
v -0.056660 1.202060 -38.463074
v -0.053754 3.808824 -48.223217
v -0.133722 1.217412 -38.552254
v -0.196998 3.859582 -48.245365
v -0.301366 1.261338 -38.457993
v -0.345807 3.857763 -48.201687
v -0.456601 1.282919 -38.382797
v -0.499287 3.888066 -48.256794
v -0.590961 1.270043 -38.334003
v -0.624116 3.862337 -48.221436
v -0.717319 1.204186 -38.258957
v -0.689626 3.841564 -48.182755
v -0.801454 1.106812 -38.236813
v -0.779093 3.755847 -48.219471
v -0.834839 1.012856 -38.282227
v -0.846616 3.689610 -48.388180
v -0.822408 0.916204 -38.367531
v -0.835819 3.605696 -48.354301
v -0.793578 0.803800 -38.408878
v -0.807828 3.522858 -48.339062
v -0.752728 0.690553 -38.400818
v -0.780660 3.443972 -48.398293
v -0.687451 0.590155 -38.383064
v -0.736958 3.379907 -48.490089
v -0.589124 0.515089 -38.388821
v -0.649054 3.340940 -48.550743
v -0.473468 0.467893 -38.394329
v -0.527577 3.297559 -48.551929
v -0.543267 1.302296 -43.214485
v -0.408012 1.322447 -43.209251
v -0.283808 1.376929 -43.199322
v -0.183433 1.464330 -43.182903
v -0.142442 1.596091 -43.141689
v -0.123015 1.737306 -43.105461
v -0.088528 1.853063 -43.102318
v -0.079816 1.955541 -43.107700
v -0.132427 2.058814 -43.097622
v -0.220836 2.142419 -43.087440
v -0.332431 2.198735 -43.081787
v -0.459477 2.227879 -43.080391
v -0.593506 2.233081 -43.082771
v -0.725883 2.218339 -43.087727
v -0.847873 2.181826 -43.095428
v -0.951363 2.120526 -43.106224
v -1.029446 2.034269 -43.119942
v -1.076662 1.926432 -43.136028
v -1.089384 1.803548 -43.153675
v -1.066321 1.674887 -43.171642
v -1.009025 1.553264 -43.187874
v -0.921332 1.448328 -43.201031
v -0.809163 1.367825 -43.210171
v -0.680174 1.317832 -43.214695
v -0.347628 2.514552 -46.439690
v -0.220801 2.527831 -46.437222
v -0.103142 2.570087 -46.429684
v -0.002932 2.637894 -46.418060
v 0.059333 2.728464 -46.393314
v 0.075811 2.835448 -46.354301
v 0.074119 2.945935 -46.325031
v 0.073169 3.049054 -46.321350
v 0.054658 3.141715 -46.329529
v -0.006538 3.222420 -46.328583
v -0.105212 3.285797 -46.318760
v -0.219629 3.328910 -46.313183
v -0.342767 3.345964 -46.309582
v -0.466237 3.339597 -46.311119
v -0.581698 3.304522 -46.315170
v -0.681660 3.245429 -46.323769
v -0.759099 3.163637 -46.335316
v -0.808681 3.064662 -46.349304
v -0.827251 2.956187 -46.365654
v -0.813215 2.845472 -46.383072
v -0.767117 2.740360 -46.400204
v -0.691717 2.648622 -46.415714
v -0.591919 2.577268 -46.428417
v -0.474417 2.531411 -46.436665
v -0.427896 2.318061 -45.260258
v -0.338265 2.325834 -45.248798
v -0.251799 2.353162 -45.250305
v -0.174391 2.398185 -45.264671
v -0.111316 2.457832 -45.290924
v -0.066873 2.528040 -45.327271
v -0.044090 2.604025 -45.371235
v -0.044519 2.680607 -45.419819
v -0.068132 2.752568 -45.469711
v -0.113320 2.815003 -45.517517
v -0.177002 2.863659 -45.559975
v -0.254839 2.895219 -45.594189
v -0.341527 2.907532 -45.617832
v -0.431158 2.899760 -45.629292
v -0.517624 2.872431 -45.627785
v -0.595032 2.827409 -45.613419
v -0.658107 2.767762 -45.587166
v -0.702550 2.697553 -45.550819
v -0.725333 2.621569 -45.506859
v -0.724904 2.544987 -45.458275
v -0.701291 2.473026 -45.408379
v -0.656103 2.410590 -45.360573
v -0.592421 2.361935 -45.318119
v -0.514584 2.330375 -45.283901
v 0.796485 0.922063 -47.969505
v 0.723759 0.919029 -47.978901
v 0.864379 0.951613 -47.961777
v 0.922280 0.989279 -47.956730
v 0.966139 1.033356 -47.951359
v 0.991657 1.091947 -47.932049
v 0.999314 1.167486 -47.911598
v 0.991648 1.240424 -47.916084
v 0.971914 1.301260 -47.956913
v 0.955159 1.349386 -47.977406
v 0.931927 1.384226 -47.977322
v 0.882182 1.404572 -47.991634
v 0.803044 1.408973 -48.045292
v 0.710768 1.398009 -48.111446
v 0.624689 1.370908 -48.160545
v 0.560007 1.328925 -48.169613
v 0.513084 1.278312 -48.157120
v 0.483100 1.228932 -48.131527
v 0.471221 1.176911 -48.099743
v 0.476995 1.117898 -48.070328
v 0.498524 1.065012 -48.045433
v 0.535515 1.021243 -48.024021
v 0.587485 0.977559 -48.007225
v 0.652147 0.938329 -47.992447
v 0.247067 1.466538 -46.807175
v 0.205954 1.436072 -46.771141
v 0.276749 1.508666 -46.842686
v 0.292976 1.559583 -46.875259
v 0.294643 1.615820 -46.902672
v 0.281635 1.673544 -46.923058
v 0.254840 1.728822 -46.935028
v 0.216083 1.777887 -46.937767
v 0.168006 1.817394 -46.931084
v 0.113885 1.844652 -46.915436
v 0.057408 1.857802 -46.891891
v 0.002424 1.855950 -46.862057
v -0.047319 1.839220 -46.827957
v -0.088433 1.808753 -46.791927
v -0.118115 1.766626 -46.756413
v -0.134342 1.715709 -46.723839
v -0.136008 1.659472 -46.696426
v -0.123001 1.601748 -46.676041
v -0.096206 1.546470 -46.664070
v -0.057449 1.497405 -46.661335
v -0.009372 1.457898 -46.668015
v 0.044749 1.430640 -46.683662
v 0.101226 1.417489 -46.707207
v 0.156210 1.419342 -46.737045
v -0.647621 1.111902 -48.174980
v -0.680220 1.111296 -48.156937
v -0.617588 1.119901 -48.193745
v -0.591630 1.135629 -48.206696
v -0.570941 1.159049 -48.207062
v -0.558129 1.184825 -48.211563
v -0.554693 1.209368 -48.228275
v -0.560179 1.233206 -48.246311
v -0.572280 1.255505 -48.251110
v -0.587447 1.271518 -48.234863
v -0.610573 1.286005 -48.217220
v -0.646940 1.307292 -48.214355
v -0.686982 1.324098 -48.211525
v -0.717260 1.319187 -48.189552
v -0.745815 1.308438 -48.167755
v -0.775480 1.300741 -48.153992
v -0.799440 1.288373 -48.143185
v -0.812108 1.265367 -48.131073
v -0.814908 1.237216 -48.121311
v -0.808731 1.207688 -48.115837
v -0.794143 1.179028 -48.115112
v -0.772266 1.153393 -48.119263
v -0.744680 1.132674 -48.128056
v -0.713296 1.118333 -48.140911
v -0.967648 0.930753 -48.670658
v -0.987658 0.928080 -48.657963
v -0.949883 0.939178 -48.684151
v -0.934010 0.952350 -48.695492
v -0.915535 0.968038 -48.696060
v -0.896216 0.985946 -48.684700
v -0.879887 1.004981 -48.667046
v -0.871462 1.024791 -48.649536
v -0.875790 1.046242 -48.634331
v -0.893223 1.067616 -48.613750
v -0.922480 1.085955 -48.605671
v -0.964224 1.099855 -48.644192
v -1.003110 1.103836 -48.680763
v -1.031890 1.099960 -48.689636
v -1.051261 1.091137 -48.680588
v -1.065572 1.077529 -48.667229
v -1.075454 1.059675 -48.654888
v -1.080232 1.038787 -48.644421
v -1.079582 1.016289 -48.636539
v -1.073547 0.993714 -48.631783
v -1.062540 0.972600 -48.630474
v -1.047309 0.954385 -48.632702
v -1.028893 0.940313 -48.638313
v -1.008547 0.931340 -48.646931
v -0.352170 1.792540 -44.340248
v -0.230793 1.840478 -44.333366
v -0.126849 1.915438 -44.324764
v -0.056297 2.011547 -44.307243
v -0.035879 2.121967 -44.273354
v -0.050716 2.237388 -44.237312
v -0.082759 2.348208 -44.214500
v -0.118409 2.446332 -44.213631
v -0.166822 2.525975 -44.227055
v -0.240860 2.583987 -44.241829
v -0.351634 2.619262 -44.244579
v -0.479669 2.629642 -44.245445
v -0.607400 2.615230 -44.249954
v -0.726536 2.577142 -44.257195
v -0.829212 2.515814 -44.266869
v -0.908698 2.433450 -44.278160
v -0.959726 2.334384 -44.290146
v -0.978551 2.224580 -44.302296
v -0.963566 2.111557 -44.313889
v -0.915117 2.003644 -44.324833
v -0.836554 1.909409 -44.333996
v -0.733386 1.836290 -44.340263
v -0.612609 1.790223 -44.343246
v -0.482416 1.775352 -44.343658
v -0.501127 0.874241 -41.886482
v -0.378397 0.895533 -41.878281
v -0.269102 0.951667 -41.864265
v -0.181080 1.038776 -41.845245
v -0.120294 1.150696 -41.822517
v -0.068609 1.290035 -41.922302
v -0.091346 1.425418 -41.787754
v -0.124488 1.619777 -41.810093
v -0.186727 1.670201 -41.731613
v -0.271961 1.760011 -41.717407
v -0.377178 1.799743 -41.707718
v -0.494233 1.803193 -41.704056
v -0.613555 1.794024 -41.708286
v -0.727461 1.790432 -41.720573
v -0.831097 1.775882 -41.738113
v -0.919287 1.728855 -41.758339
v -0.985456 1.634861 -41.779613
v -1.023409 1.512601 -41.801502
v -1.029628 1.380955 -41.823189
v -1.002972 1.248768 -41.843456
v -0.944729 1.125499 -41.861145
v -0.858541 1.019639 -41.875195
v -0.750395 0.938820 -41.884624
v -0.628263 0.889101 -41.888554
v -0.221476 0.425103 -39.560368
v -0.098696 0.476059 -39.553070
v 0.005725 0.555388 -39.542099
v 0.084677 0.656795 -39.528263
v 0.132819 0.772268 -39.512608
v 0.146909 0.892851 -39.496304
v 0.126002 1.009298 -39.480534
v 0.071413 1.112991 -39.466366
v -0.013327 1.196851 -39.454685
v -0.122290 1.256085 -39.446304
v -0.247871 1.288453 -39.441780
v -0.381356 1.294223 -39.441364
v -0.513611 1.275096 -39.444969
v -0.635862 1.231786 -39.452221
v -0.739976 1.165560 -39.462574
v -0.818619 1.079051 -39.475521
v -0.866520 0.976515 -39.490269
v -0.880486 0.863924 -39.505898
v -0.859578 0.748649 -39.521393
v -0.805192 0.638878 -39.535717
v -0.720985 0.542886 -39.547874
v -0.612648 0.468289 -39.556980
v -0.487524 0.421389 -39.562344
v -0.354110 0.406471 -39.563519
v -0.338864 0.665452 -41.181526
v -0.257770 0.464663 -40.109642
v -0.319003 0.540482 -40.645077
v -0.225623 0.724527 -41.166859
v -0.139179 0.521120 -40.098465
v -0.215046 0.601832 -40.626930
v -0.135766 0.814888 -41.146523
v -0.042057 0.606912 -40.082592
v -0.133549 0.694129 -40.603569
v -0.073934 0.929747 -41.122421
v 0.028370 0.714728 -40.063648
v -0.077586 0.809930 -40.577499
v -0.042425 1.060359 -41.096878
v 0.068409 0.835578 -40.043373
v -0.047355 0.939721 -40.551880
v -0.041965 1.196557 -41.072048
v 0.075739 0.959689 -40.023399
v -0.042350 1.071967 -40.529621
v -0.071763 1.323672 -41.048756
v 0.049463 1.077467 -40.005066
v -0.065544 1.195909 -40.511574
v -0.130808 1.430201 -41.028160
v -0.009097 1.177683 -39.989761
v -0.118612 1.301750 -40.497936
v -0.216373 1.509605 -41.011631
v -0.096639 1.248471 -39.978745
v -0.200088 1.381710 -40.488613
v -0.321603 1.559453 -41.001144
v -0.208150 1.290547 -39.972122
v -0.304524 1.430667 -40.483601
v -0.438480 1.581073 -40.998333
v -0.335220 1.310197 -39.970100
v -0.424144 1.450635 -40.483864
v -0.559730 1.578684 -41.003906
v -0.467870 1.314768 -39.972702
v -0.550258 1.445919 -40.489906
v -0.678271 1.556568 -41.017563
v -0.596543 1.302042 -39.979870
v -0.672321 1.419556 -40.501930
v -0.786856 1.513993 -41.037277
v -0.712649 1.266418 -39.991249
v -0.781762 1.372735 -40.518787
v -0.878743 1.449172 -41.060604
v -0.808794 1.202964 -40.006287
v -0.872114 1.304149 -40.538647
v -0.947849 1.362025 -41.085331
v -0.879444 1.117465 -40.023544
v -0.937667 1.213370 -40.559719
v -0.988994 1.254965 -41.109650
v -0.920434 1.015881 -40.041695
v -0.974169 1.105249 -40.580887
v -0.997837 1.133352 -41.132275
v -0.928886 0.903308 -40.059742
v -0.978965 0.987094 -40.601391
v -0.972667 1.005283 -41.152191
v -0.903779 0.786623 -40.076786
v -0.950999 0.866317 -40.620232
v -0.915251 0.883932 -41.169067
v -0.846273 0.674239 -40.091888
v -0.891431 0.751245 -40.636436
v -0.829230 0.780058 -41.182030
v -0.759644 0.576152 -40.104027
v -0.803711 0.650583 -40.649071
v -0.720413 0.701374 -41.190235
v -0.649473 0.500748 -40.112385
v -0.693400 0.573077 -40.657257
v -0.596421 0.653913 -41.193069
v -0.523177 0.454620 -40.116329
v -0.567965 0.526230 -40.660213
v -0.389470 0.442078 -40.115456
v -0.466109 0.641516 -41.190170
v -0.439424 0.514762 -40.656395
v -0.326180 0.894998 -38.439369
v 0.448649 1.199119 -47.154560
v 0.072935 1.680954 -46.210556
v 0.253538 1.444411 -46.669689
v -0.017875 1.685861 -46.205807
v 0.372555 1.212497 -47.158783
v 0.171460 1.442281 -46.678223
v 0.521761 1.203209 -47.161312
v 0.161104 1.686377 -46.237858
v 0.331061 1.455114 -46.674431
v 0.587695 1.233211 -47.176601
v 0.237565 1.726631 -46.260365
v 0.399344 1.479382 -46.691113
v 0.641051 1.285682 -47.199459
v 0.297326 1.786873 -46.284885
v 0.452968 1.517386 -46.713963
v 0.651556 1.347385 -47.246315
v 0.313328 1.851098 -46.326366
v 0.485763 1.567763 -46.740372
v 0.650034 1.405681 -47.292999
v 0.310974 1.912550 -46.363880
v 0.471570 1.632192 -46.785599
v 0.665151 1.450780 -47.317749
v 0.313571 1.967229 -46.381966
v 0.442381 1.695796 -46.828728
v 0.668249 1.488600 -47.337940
v 0.280245 2.018685 -46.414993
v 0.437946 1.745960 -46.845467
v 0.631581 1.526587 -47.371456
v 0.197395 2.072257 -46.478600
v 0.420118 1.792005 -46.864620
v 0.575390 1.562016 -47.405350
v 0.176349 2.126371 -46.493576
v 0.361419 1.840345 -46.907192
v 0.507797 1.594498 -47.435204
v 0.120526 2.173177 -46.529755
v 0.292618 1.878695 -46.949341
v 0.433188 1.618882 -47.458244
v 0.050891 2.187653 -46.571468
v 0.226868 1.883585 -46.984974
v 0.356064 1.629763 -47.471279
v -0.014253 2.167530 -46.598034
v 0.161748 1.862833 -47.008404
v 0.281769 1.622780 -47.473282
v -0.112107 2.175288 -46.607765
v 0.073440 1.866464 -47.015438
v 0.215543 1.595760 -47.464195
v -0.197704 2.148723 -46.596615
v -0.005819 1.845213 -47.005814
v 0.161574 1.549662 -47.443806
v -0.257875 2.087937 -46.571110
v -0.060494 1.788246 -46.982025
v 0.123606 1.488008 -47.413624
v -0.299238 2.016830 -46.535713
v -0.101559 1.721636 -46.949135
v 0.104522 1.420061 -47.376869
v -0.318978 1.940066 -46.492859
v -0.120498 1.649977 -46.909500
v 0.105758 1.352597 -47.336189
v -0.315726 1.862772 -46.445515
v -0.117813 1.579329 -46.865635
v 0.128230 1.300992 -47.291904
v -0.289688 1.790289 -46.396896
v -0.092905 1.521482 -46.819431
v 0.170349 1.268181 -47.247131
v -0.242573 1.727848 -46.350342
v -0.015060 1.487021 -46.773037
v 0.228480 1.248140 -47.206795
v -0.178440 1.687241 -46.301525
v 0.105874 1.471494 -46.730679
v 0.297697 1.231802 -47.176041
v -0.102824 1.681413 -46.243561
v 0.089962 1.444675 -46.700089
v -0.508824 1.024667 -42.353992
v -0.381456 1.045597 -42.346939
v -0.266814 1.101213 -42.334446
v -0.173029 1.187638 -42.317345
v -0.106490 1.298654 -42.296692
v -0.074816 1.391091 -42.221615
v -0.069450 1.560831 -42.251122
v -0.121810 1.694985 -42.105511
v -0.160839 1.807415 -42.212883
v -0.247631 1.895079 -42.199966
v -0.355430 1.940648 -42.191597
v -0.476380 1.953410 -42.188683
v -0.601391 1.949328 -42.192097
v -0.722534 1.941440 -42.201447
v -0.833527 1.919060 -42.215183
v -0.927822 1.866973 -42.231819
v -0.998425 1.775617 -42.250305
v -1.039484 1.658328 -42.270142
v -1.047550 1.529673 -42.290482
v -1.021491 1.398649 -42.310089
v -0.962783 1.275896 -42.327461
v -0.875244 1.170312 -42.341415
v -0.764939 1.089574 -42.350952
v -0.639804 1.039750 -42.355270
v 0.211582 1.463942 -42.124290
v 0.215315 1.403453 -41.945084
v 0.216155 1.565490 -42.142300
v 0.202424 1.484513 -41.864723
v 0.183550 1.645884 -42.054764
v 0.181632 1.600930 -41.877834
v -0.458788 1.299264 -47.450897
v -0.430194 1.269125 -47.455814
v -0.386833 1.514750 -47.564026
v -0.421831 1.501299 -47.537739
v -0.175265 1.360215 -47.612137
v -0.185974 1.390954 -47.623310
v -0.352989 1.256658 -47.471916
v -0.453400 1.482216 -47.515289
v -0.205373 1.422074 -47.625973
v -0.296977 1.242655 -47.484337
v -0.270443 1.235684 -47.503067
v -0.271600 1.240837 -47.525673
v -0.476953 1.455228 -47.495422
v -0.230741 1.450214 -47.616634
v -0.235992 1.253994 -47.552319
v -0.488919 1.418711 -47.476982
v -0.263325 1.475470 -47.604866
v -0.206822 1.274414 -47.575516
v -0.489608 1.377287 -47.462643
v -0.304695 1.500370 -47.597912
v -0.185902 1.300750 -47.588303
v -0.479316 1.336549 -47.453835
v -0.348625 1.516991 -47.587608
v -0.175080 1.330156 -47.598934
vt 0.787206 0.081978
vt 0.997349 0.074437
vt 0.996472 0.087592
vt 0.787740 0.093968
vt 0.996266 0.099561
vt 0.788652 0.105698
vt 0.996616 0.110077
vt 0.789902 0.117015
vt 0.995355 0.120386
vt 0.790489 0.127557
vt 0.993388 0.130485
vt 0.790118 0.138302
vt 0.984701 0.139640
vt 0.790650 0.148940
vt 0.975870 0.148815
vt 0.793255 0.158183
vt 0.974875 0.159090
vt 0.796523 0.166361
vt 0.977064 0.170231
vt 0.798485 0.175547
vt 0.983354 0.182950
vt 0.799071 0.186437
vt 0.986541 0.197105
vt 0.799429 0.197782
vt 0.982400 0.211163
vt 0.799214 0.209327
vt 0.988034 0.225766
vt 0.798822 0.220832
vt 0.984042 0.237585
vt 0.797853 0.232051
vt 0.979949 0.243767
vt 0.796617 0.242876
vt 0.980746 0.255899
vt 0.795020 0.253377
vt 0.993882 0.268427
vt 0.793200 0.263717
vt 0.988364 0.274958
vt 0.791376 0.274037
vt 0.793140 0.013831
vt 0.989936 0.013344
vt 0.986162 0.020791
vt 0.791250 0.024315
vt 0.989172 0.029912
vt 0.789610 0.035151
vt 0.995542 0.039225
vt 0.788329 0.046392
vt 0.999873 0.048990
vt 0.787491 0.058006
vt 0.609811 0.632464
vt 0.596735 0.631500
vt 0.583462 0.629812
vt 0.571534 0.628049
vt 0.562162 0.623041
vt 0.555892 0.613721
vt 0.552088 0.604946
vt 0.545803 0.599530
vt 0.538859 0.594596
vt 0.550058 0.580403
vt 0.556099 0.569943
vt 0.563405 0.568965
vt 0.575424 0.566066
vt 0.590927 0.566197
vt 0.605421 0.565864
vt 0.619713 0.567207
vt 0.632751 0.572456
vt 0.640481 0.580621
vt 0.644601 0.589970
vt 0.645871 0.602587
vt 0.645349 0.615133
vt 0.640185 0.623959
vt 0.631939 0.630190
vt 0.621719 0.632464
vt 0.998823 0.061063
vt 0.787109 0.069922
vt 0.378286 0.062980
vt 0.461268 0.061472
vt 0.460697 0.074028
vt 0.377429 0.075225
vt 0.379641 0.050508
vt 0.462521 0.048956
vt 0.381387 0.037868
vt 0.464327 0.036516
vt 0.383388 0.025180
vt 0.466558 0.024202
vt 0.385485 0.012563
vt 0.469077 0.012049
vt 0.387509 0.000127
vt 0.471742 0.000127
vt 0.387390 0.273728
vt 0.471756 0.275439
vt 0.469974 0.286925
vt 0.385453 0.285744
vt 0.388928 0.262049
vt 0.473331 0.264523
vt 0.389775 0.251123
vt 0.474603 0.253716
vt 0.389686 0.240906
vt 0.475519 0.242500
vt 0.389034 0.230239
vt 0.476059 0.230561
vt 0.388355 0.218848
vt 0.476232 0.218018
vt 0.388090 0.207110
vt 0.476043 0.205339
vt 0.387929 0.195679
vt 0.475466 0.192994
vt 0.387381 0.184665
vt 0.474445 0.181153
vt 0.386076 0.173065
vt 0.472983 0.169653
vt 0.373199 0.165148
vt 0.470874 0.158819
vt 0.382781 0.148334
vt 0.467327 0.149705
vt 0.374990 0.134113
vt 0.464105 0.138735
vt 0.379214 0.123353
vt 0.463128 0.124929
vt 0.378079 0.111162
vt 0.462802 0.111474
vt 0.377346 0.099183
vt 0.461580 0.099085
vt 0.377114 0.087259
vt 0.460804 0.086577
vt 0.575676 0.065699
vt 0.575541 0.078233
vt 0.576657 0.053392
vt 0.578335 0.041455
vt 0.580580 0.029998
vt 0.583277 0.019088
vt 0.586266 0.008736
vt 0.586296 0.267474
vt 0.584234 0.277837
vt 0.588289 0.257088
vt 0.590037 0.246348
vt 0.591440 0.235058
vt 0.592448 0.223193
vt 0.593019 0.210951
vt 0.593154 0.198690
vt 0.592278 0.187613
vt 0.589448 0.178966
vt 0.585939 0.170657
vt 0.583102 0.161057
vt 0.581850 0.149840
vt 0.581617 0.138153
vt 0.581180 0.126881
vt 0.579423 0.115464
vt 0.577445 0.103294
vt 0.576148 0.090816
vt 0.232678 0.392691
vt 0.231459 0.387463
vt 0.302581 0.383815
vt 0.300685 0.390356
vt 0.233608 0.403323
vt 0.233334 0.397023
vt 0.301628 0.397178
vt 0.301430 0.402085
vt 0.222897 0.359464
vt 0.220078 0.353177
vt 0.306356 0.352597
vt 0.307346 0.359482
vt 0.219832 0.462792
vt 0.221057 0.455418
vt 0.301387 0.452335
vt 0.299838 0.458063
vt 0.233086 0.410835
vt 0.299600 0.405326
vt 0.225317 0.366008
vt 0.308012 0.365891
vt 0.005124 0.345725
vt 0.004005 0.337387
vt 0.114731 0.343521
vt 0.117700 0.351207
vt 0.219107 0.470203
vt 0.298632 0.463786
vt 0.231856 0.418912
vt 0.298146 0.410121
vt 0.227265 0.373188
vt 0.308012 0.371640
vt 0.218370 0.312400
vt 0.219787 0.305236
vt 0.298787 0.308610
vt 0.297995 0.314744
vt 0.229994 0.426988
vt 0.299206 0.418860
vt 0.229563 0.380388
vt 0.305922 0.377395
vt 0.217111 0.318890
vt 0.298055 0.320585
vt 0.227662 0.434612
vt 0.301343 0.429229
vt 0.007622 0.387675
vt 0.007766 0.379287
vt 0.124835 0.381614
vt 0.124582 0.388268
vt 0.215991 0.325235
vt 0.298780 0.326272
vt 0.225180 0.441714
vt 0.302910 0.438665
vt 0.215310 0.332014
vt 0.300465 0.332550
vt 0.222884 0.448478
vt 0.302527 0.445879
vt 0.215600 0.339373
vt 0.302652 0.339275
vt 0.201203 0.657543
vt 0.194998 0.660469
vt 0.188016 0.661423
vt 0.180881 0.660432
vt 0.174625 0.658537
vt 0.169414 0.656181
vt 0.165042 0.652335
vt 0.161632 0.647173
vt 0.159938 0.641620
vt 0.159938 0.635714
vt 0.161664 0.629389
vt 0.165950 0.623532
vt 0.174333 0.618846
vt 0.183896 0.614133
vt 0.192281 0.611012
vt 0.197468 0.611367
vt 0.200432 0.613923
vt 0.204075 0.617541
vt 0.209378 0.622251
vt 0.212400 0.628418
vt 0.213112 0.635733
vt 0.212077 0.641887
vt 0.209742 0.647234
vt 0.206058 0.652557
vt 0.001089 0.312330
vt 0.000538 0.303952
vt 0.117152 0.310425
vt 0.117629 0.318711
vt 0.000825 0.454358
vt 0.001561 0.446007
vt 0.120398 0.437983
vt 0.118150 0.446890
vt 0.007221 0.396090
vt 0.123261 0.393452
vt 0.001903 0.320696
vt 0.117518 0.326877
vt 0.000330 0.462756
vt 0.116642 0.455075
vt 0.006524 0.404415
vt 0.122215 0.399844
vt 0.002899 0.329047
vt 0.115445 0.335208
vt 0.006148 0.354090
vt 0.121849 0.358518
vt 0.000127 0.471158
vt 0.116540 0.463307
vt 0.005603 0.412857
vt 0.122063 0.410837
vt 0.217434 0.346479
vt 0.304630 0.345982
vt 0.000271 0.479557
vt 0.116798 0.471550
vt 0.004578 0.421122
vt 0.119948 0.415993
vt 0.006978 0.362477
vt 0.123727 0.366404
vt 0.000795 0.487941
vt 0.117523 0.479813
vt 0.003512 0.429396
vt 0.118548 0.423538
vt 0.007538 0.370869
vt 0.124356 0.374446
vt 0.000313 0.295560
vt 0.000457 0.287179
vt 0.117240 0.293728
vt 0.117009 0.302085
vt 0.002477 0.437689
vt 0.119064 0.431271
vt 0.462944 0.368846
vt 0.461715 0.365101
vt 0.514299 0.365462
vt 0.518714 0.367793
vt 0.397517 0.313964
vt 0.398413 0.310165
vt 0.468611 0.321073
vt 0.468021 0.324206
vt 0.394737 0.381050
vt 0.394599 0.376674
vt 0.462987 0.372246
vt 0.463076 0.375645
vt 0.392947 0.351817
vt 0.392414 0.348558
vt 0.461461 0.351465
vt 0.462356 0.354048
vt 0.394669 0.320844
vt 0.467437 0.327511
vt 0.395229 0.385121
vt 0.463720 0.378634
vt 0.393202 0.355360
vt 0.462262 0.356317
vt 0.392583 0.325995
vt 0.466827 0.330916
vt 0.394167 0.330618
vt 0.392564 0.329120
vt 0.466224 0.334375
vt 0.465647 0.337809
vt 0.395808 0.388947
vt 0.464432 0.381187
vt 0.392779 0.359127
vt 0.461335 0.358555
vt 0.393867 0.334981
vt 0.465101 0.341146
vt 0.396300 0.392910
vt 0.464870 0.383795
vt 0.392721 0.363242
vt 0.460724 0.361415
vt 0.393517 0.338986
vt 0.464104 0.344053
vt 0.396847 0.396933
vt 0.465270 0.386523
vt 0.393541 0.367833
vt 0.392755 0.342308
vt 0.462185 0.346350
vt 0.399533 0.306342
vt 0.400683 0.302496
vt 0.469758 0.315327
vt 0.469192 0.318122
vt 0.394515 0.372342
vt 0.392234 0.345420
vt 0.461110 0.348786
vt 0.293779 0.650835
vt 0.292450 0.652625
vt 0.290708 0.654016
vt 0.288668 0.654914
vt 0.286466 0.655262
vt 0.284248 0.655037
vt 0.282160 0.654257
vt 0.280335 0.652978
vt 0.278882 0.651287
vt 0.277877 0.649297
vt 0.277340 0.647134
vt 0.277220 0.644908
vt 0.277798 0.642825
vt 0.280225 0.641353
vt 0.282941 0.637151
vt 0.286224 0.632780
vt 0.289535 0.632938
vt 0.292304 0.634575
vt 0.294076 0.636326
vt 0.294885 0.638790
vt 0.295101 0.641649
vt 0.295101 0.644331
vt 0.294945 0.646591
vt 0.294605 0.648765
vt 0.519827 0.350759
vt 0.517433 0.351909
vt 0.524457 0.332010
vt 0.524061 0.334152
vt 0.520889 0.369579
vt 0.514736 0.352773
vt 0.523680 0.336291
vt 0.521490 0.371646
vt 0.512432 0.353894
vt 0.523307 0.338429
vt 0.521718 0.373858
vt 0.510899 0.355852
vt 0.522935 0.340569
vt 0.522564 0.342709
vt 0.522198 0.344848
vt 0.521988 0.376079
vt 0.509687 0.358891
vt 0.521843 0.346996
vt 0.522295 0.378283
vt 0.510017 0.362186
vt 0.521305 0.349082
vt 0.522637 0.380476
vt 0.524878 0.329866
vt 0.263635 0.098161
vt 0.331120 0.097991
vt 0.331546 0.109785
vt 0.263597 0.109816
vt 0.120662 0.075422
vt 0.168167 0.075731
vt 0.166951 0.087276
vt 0.119847 0.086835
vt 0.332378 0.121984
vt 0.263903 0.121876
vt 0.345130 0.133193
vt 0.264553 0.134486
vt 0.336708 0.149340
vt 0.265437 0.147378
vt 0.344218 0.166692
vt 0.266413 0.159905
vt 0.338592 0.175744
vt 0.267274 0.171679
vt 0.339974 0.187508
vt 0.267978 0.183059
vt 0.340378 0.198202
vt 0.268585 0.194428
vt 0.340346 0.209271
vt 0.269237 0.206024
vt 0.340706 0.220535
vt 0.270087 0.217845
vt 0.341969 0.231178
vt 0.271196 0.229616
vt 0.343392 0.240933
vt 0.272278 0.241055
vt 0.344066 0.250341
vt 0.272970 0.252151
vt 0.343338 0.261103
vt 0.273066 0.263081
vt 0.341732 0.273009
vt 0.272443 0.274187
vt 0.339718 0.285262
vt 0.271154 0.285727
vt 0.273299 0.003256
vt 0.341715 0.000317
vt 0.339754 0.012878
vt 0.271845 0.015394
vt 0.337711 0.025526
vt 0.270213 0.027666
vt 0.335746 0.038156
vt 0.268582 0.039809
vt 0.334007 0.050636
vt 0.267059 0.051767
vt 0.332608 0.062840
vt 0.265738 0.063527
vt 0.331635 0.074733
vt 0.264697 0.075126
vt 0.165594 0.098629
vt 0.118792 0.098110
vt 0.331137 0.086386
vt 0.263999 0.086665
vt 0.164199 0.109902
vt 0.117565 0.109226
vt 0.162923 0.121240
vt 0.116287 0.120145
vt 0.161919 0.132630
vt 0.115043 0.130844
vt 0.161360 0.144003
vt 0.113935 0.141363
vt 0.161224 0.155200
vt 0.113086 0.151807
vt 0.161513 0.166159
vt 0.112500 0.162304
vt 0.162128 0.176958
vt 0.112206 0.173119
vt 0.162939 0.188561
vt 0.112197 0.184471
vt 0.163918 0.201216
vt 0.112448 0.196500
vt 0.165097 0.214330
vt 0.112907 0.209099
vt 0.166400 0.227100
vt 0.113601 0.221830
vt 0.167656 0.239057
vt 0.114476 0.234264
vt 0.168665 0.250343
vt 0.115440 0.246115
vt 0.169326 0.261123
vt 0.116402 0.257306
vt 0.169573 0.271641
vt 0.117260 0.268077
vt 0.169365 0.282309
vt 0.117954 0.278739
vt 0.118527 0.007481
vt 0.170435 0.005940
vt 0.170864 0.017130
vt 0.119782 0.018190
vt 0.170915 0.028730
vt 0.120674 0.029259
vt 0.170631 0.040523
vt 0.121193 0.040621
vt 0.170051 0.052332
vt 0.121352 0.052231
vt 0.169216 0.064084
vt 0.121168 0.063867
vt 0.017409 0.061846
vt 0.017321 0.073200
vt 0.017098 0.050492
vt 0.016667 0.039245
vt 0.018203 0.028354
vt 0.018714 0.017386
vt 0.014681 0.006925
vt 0.004235 0.262483
vt 0.011931 0.271706
vt 0.000127 0.253203
vt 0.002290 0.241322
vt 0.009393 0.228241
vt 0.014111 0.215848
vt 0.021236 0.201472
vt 0.029975 0.185511
vt 0.021800 0.178378
vt 0.014259 0.172298
vt 0.018184 0.161808
vt 0.017328 0.152929
vt 0.020355 0.143209
vt 0.023835 0.132888
vt 0.019682 0.120220
vt 0.015486 0.107137
vt 0.016059 0.095787
vt 0.016870 0.084530
vt 0.214873 0.086224
vt 0.216136 0.075262
vt 0.213645 0.097210
vt 0.212578 0.108735
vt 0.211796 0.121141
vt 0.211481 0.134252
vt 0.211670 0.147390
vt 0.212392 0.160015
vt 0.213507 0.171853
vt 0.214792 0.183191
vt 0.215988 0.194569
vt 0.217094 0.206469
vt 0.218185 0.218785
vt 0.219309 0.230909
vt 0.220346 0.242424
vt 0.221065 0.253368
vt 0.221260 0.264140
vt 0.220927 0.275012
vt 0.220143 0.286142
vt 0.221385 0.016407
vt 0.221874 0.004826
vt 0.220607 0.028242
vt 0.219621 0.040211
vt 0.218513 0.052136
vt 0.217355 0.063904
vt 0.428963 0.644741
vt 0.433298 0.609047
vt 0.447034 0.644741
vt 0.457164 0.640935
vt 0.465700 0.636399
vt 0.474328 0.629529
vt 0.478102 0.621574
vt 0.480689 0.611915
vt 0.480676 0.601223
vt 0.473997 0.589883
vt 0.464901 0.579749
vt 0.455982 0.572804
vt 0.445771 0.568103
vt 0.434696 0.565864
vt 0.423392 0.566246
vt 0.412500 0.569236
vt 0.402765 0.574716
vt 0.395629 0.582972
vt 0.413110 0.643786
vt 0.400499 0.640557
vt 0.388282 0.632740
vt 0.381754 0.623048
vt 0.381239 0.613268
vt 0.385456 0.602435
vt 0.390332 0.592472
vt 0.165669 0.345895
vt 0.167259 0.353238
vt 0.169417 0.360114
vt 0.171694 0.366615
vt 0.173457 0.372853
vt 0.174365 0.378911
vt 0.174773 0.386431
vt 0.174622 0.394337
vt 0.173546 0.399382
vt 0.172266 0.404433
vt 0.171577 0.413044
vt 0.171004 0.421818
vt 0.171644 0.429203
vt 0.172572 0.436276
vt 0.170197 0.444646
vt 0.167841 0.452385
vt 0.167311 0.460256
vt 0.167065 0.468231
vt 0.167320 0.475990
vt 0.167394 0.300226
vt 0.166475 0.307842
vt 0.165686 0.314915
vt 0.165611 0.323671
vt 0.166183 0.335166
vt 0.164890 0.338368
vt 0.034969 0.612724
vt 0.061092 0.588540
vt 0.067381 0.606994
vt 0.050597 0.619337
vt 0.082243 0.668896
vt 0.034969 0.647018
vt 0.048578 0.641451
vt 0.081397 0.649750
vt 0.095968 0.616265
vt 0.094681 0.633419
vt 0.111127 0.612804
vt 0.109336 0.642724
vt 0.309263 0.356268
vt 0.308798 0.350420
vt 0.314190 0.396776
vt 0.313468 0.391013
vt 0.313727 0.298226
vt 0.315550 0.292668
vt 0.308455 0.344559
vt 0.312738 0.385260
vt 0.317545 0.287179
vt 0.308266 0.338692
vt 0.311968 0.379485
vt 0.318070 0.425455
vt 0.317167 0.419740
vt 0.308266 0.332829
vt 0.311198 0.373692
vt 0.316369 0.414014
vt 0.308489 0.326977
vt 0.308977 0.321103
vt 0.309726 0.315310
vt 0.310485 0.367899
vt 0.315633 0.408282
vt 0.310776 0.309564
vt 0.309837 0.362095
vt 0.314914 0.402538
vt 0.312118 0.303870
vn -0.0724 -0.9455 -0.3176
vn 0.1420 -0.9440 -0.2980
vn 0.4153 -0.8723 -0.2581
vn 0.7296 -0.6592 -0.1823
vn 0.9450 -0.3191 -0.0718
vn 0.9937 -0.1122 -0.0009
vn 0.9994 0.0001 0.0342
vn 0.9686 0.2326 0.0878
vn 0.8320 0.5309 0.1608
vn 0.5887 0.7762 0.2256
vn 0.3162 0.9132 0.2569
vn 0.0994 0.9599 0.2622
vn 0.0289 0.9636 0.2659
vn -0.2022 0.9402 0.2740
vn -0.3766 0.8843 0.2760
vn -0.7221 0.6578 0.2142
vn -0.8783 0.4528 0.1535
vn -0.9988 0.0426 0.0250
vn -0.9750 -0.2109 -0.0702
vn -0.9383 -0.3270 -0.1123
vn -0.8361 -0.5210 -0.1715
vn -0.5635 -0.7825 -0.2650
vn 0.0864 0.4959 -0.8641
vn -0.3432 -0.8863 -0.3110
vn -0.2253 -0.9196 -0.3217
vn -0.1066 -0.9475 -0.3015
vn -0.3600 -0.8926 -0.2712
vn -0.5843 -0.7806 -0.2219
vn -0.7688 -0.6195 -0.1588
vn -0.9046 -0.4175 -0.0864
vn -0.9828 -0.1845 -0.0095
vn -0.9951 0.0720 0.0680
vn -0.9292 0.3420 0.1403
vn -0.7687 0.6068 0.2023
vn -0.5073 0.8237 0.2533
vn -0.2595 0.9229 0.2845
vn -0.1016 0.9488 0.2991
vn -0.0026 0.9543 0.2988
vn 0.1645 0.9441 0.2858
vn 0.4204 0.8696 0.2590
vn 0.6971 0.6842 0.2143
vn 0.8827 0.4442 0.1535
vn 0.9873 0.1486 0.0565
vn 0.9850 -0.1460 -0.0919
vn 0.9807 -0.1629 -0.1084
vn 0.9176 -0.3686 -0.1486
vn 0.6705 -0.7036 -0.2352
vn 0.4232 -0.8598 -0.2857
vn 0.1611 -0.9378 -0.3075
vn -0.1198 -0.9336 -0.3377
vn -0.3530 -0.8742 -0.3335
vn -0.5705 -0.7609 -0.3093
vn -0.7598 -0.5940 -0.2644
vn -0.9053 -0.3756 -0.1985
vn -0.9872 -0.1135 -0.1123
vn -0.9853 0.1703 -0.0119
vn -0.8926 0.4415 0.0914
vn -0.7232 0.6657 0.1840
vn -0.5109 0.8211 0.2544
vn -0.2972 0.9068 0.2990
vn -0.0857 0.9424 0.3233
vn 0.1060 0.9378 0.3305
vn 0.3146 0.8922 0.3241
vn 0.5426 0.7843 0.3009
vn 0.7908 0.5598 0.2473
vn 0.9472 0.2752 0.1648
vn 0.9841 0.1379 0.1122
vn 0.9959 0.0515 0.0741
vn 0.9861 -0.1662 -0.0033
vn 0.8215 -0.5520 -0.1430
vn 0.5724 -0.7848 -0.2376
vn 0.3532 -0.8898 -0.2890
vn 0.1187 -0.9390 -0.3227
vn 0.8819 0.0601 0.4676
vn 0.7657 0.6075 0.2113
vn 0.2117 -0.8985 0.3845
vn -0.8260 0.2524 -0.5039
vn 0.6256 0.7693 0.1294
vn 0.4586 -0.7728 0.4388
vn -0.0074 -0.8324 0.5542
vn -0.8959 -0.0223 -0.4438
vn 0.4182 0.9080 -0.0250
vn 0.6621 -0.5810 0.4733
vn -0.8938 -0.2542 -0.3693
vn 0.2598 0.9517 -0.1637
vn 0.8742 -0.1565 0.4597
vn -0.8229 -0.5110 -0.2485
vn 0.1255 0.9548 -0.2695
vn 0.9472 0.0473 0.3172
vn -0.6580 -0.7488 -0.0799
vn -0.0763 0.9233 -0.3765
vn 0.8905 0.0479 0.4525
vn -0.5171 -0.8548 0.0431
vn -0.4070 0.7719 -0.4884
vn 0.8726 0.3548 0.3358
vn -0.4174 -0.8994 0.1296
vn -0.6713 0.5211 -0.5270
vn 0.3176 -0.2216 -0.9220
vn -0.8209 -0.5688 0.0502
vn -0.0572 0.7934 -0.6061
vn 0.9572 0.1184 0.2641
vn -0.6589 -0.7197 0.2188
vn -0.3928 0.6698 -0.6301
vn 0.9048 0.4256 0.0122
vn -0.4272 -0.8214 0.3780
vn 0.2421 -0.7545 0.6100
vn -0.6797 0.4451 -0.5830
vn 0.7531 0.6200 -0.2199
vn -0.2111 -0.8509 0.4811
vn -0.2902 -0.9337 0.2097
vn -0.8267 0.2448 -0.5066
vn 0.8042 0.5712 -0.1643
vn 0.4891 -0.6151 0.6185
vn -0.9172 0.0296 -0.3972
vn 0.6012 0.7265 -0.3328
vn 0.6782 -0.4483 0.5822
vn -0.9468 -0.1863 -0.2625
vn 0.3392 0.8092 -0.4797
vn 0.8846 -0.1402 0.4449
vn -0.9143 -0.3897 -0.1106
vn 0.0038 0.7987 -0.6017
vn 0.4364 0.6535 -0.6184
vn -0.6309 -0.6418 0.4360
vn -0.4024 0.9126 -0.0726
vn 0.8566 -0.0217 -0.5155
vn -0.2245 -0.9292 0.2936
vn -0.4250 0.9038 -0.0503
vn 0.7540 0.3687 -0.5436
vn -0.2124 -0.9280 0.3063
vn 0.2369 -0.9704 0.0458
vn -0.6018 0.7940 0.0865
vn 0.4861 0.7271 -0.4848
vn -0.0879 -0.9670 0.2390
vn 0.3129 -0.9497 0.0099
vn -0.8235 0.4887 0.2882
vn 0.3510 0.8228 -0.4470
vn 0.4927 -0.8630 -0.1117
vn -0.8970 0.1842 0.4019
vn 0.4057 0.7830 -0.4714
vn 0.6979 -0.6582 -0.2822
vn -0.8809 -0.1130 0.4597
vn 0.2778 0.8634 -0.4211
vn 0.8007 -0.4511 -0.3943
vn -0.7897 -0.3944 0.4699
vn -0.2200 0.9587 -0.1803
vn 0.8418 -0.2971 -0.4507
vn -0.0634 0.0971 -0.9933
vn 0.7815 -0.5209 -0.3434
vn -0.7568 -0.3671 0.5409
vn -0.2037 0.9347 -0.2913
vn 0.8225 -0.3636 -0.4374
vn -0.5982 -0.5858 0.5468
vn -0.4384 0.8913 -0.1157
vn 0.8105 -0.0616 -0.5825
vn -0.4102 -0.7544 0.5125
vn -0.4809 0.8716 -0.0951
vn 0.6116 0.3930 -0.6867
vn -0.2084 -0.8714 0.4441
vn 0.1926 -0.9545 0.2277
vn -0.6548 0.7552 0.0287
vn 0.2175 0.7746 -0.5938
vn -0.0047 -0.9377 0.3475
vn 0.3769 -0.9220 0.0890
vn -0.8509 0.4645 0.2454
vn 0.2076 0.7868 -0.5813
vn 0.5425 -0.8377 -0.0624
vn -0.9033 0.1748 0.3918
vn 0.5369 0.5141 -0.6689
vn 0.6871 -0.6933 -0.2174
vn -0.8655 -0.1067 0.4894
vn 0.7105 -0.6552 -0.2568
vn 0.1562 -0.9847 -0.0774
vn 0.8790 -0.4348 -0.1959
vn 0.9345 -0.3268 -0.1410
vn 0.9954 0.0939 -0.0209
vn 0.9814 0.1921 0.0004
vn 0.8242 0.5487 0.1397
vn 0.7084 0.6821 0.1813
vn 0.3988 0.8755 0.2728
vn 0.1098 0.9471 0.3014
vn -0.0580 0.9522 0.2999
vn -0.1387 0.9405 0.3103
vn -0.2993 0.8933 0.3354
vn -0.5544 0.7642 0.3295
vn -0.8044 0.5353 0.2576
vn -0.9426 0.2927 0.1610
vn -0.9967 0.0479 0.0652
vn -0.9812 -0.1917 -0.0240
vn -0.9047 -0.4128 -0.1056
vn -0.7715 -0.6104 -0.1793
vn -0.5876 -0.7726 -0.2405
vn -0.3587 -0.8885 -0.2862
vn -0.0940 -0.9450 -0.3132
vn 0.1411 -0.9162 -0.3750
vn 0.3820 -0.8607 -0.3364
vn 0.6194 -0.7383 -0.2669
vn 0.9036 -0.4164 -0.1005
vn 0.9867 -0.1613 0.0180
vn 0.9958 -0.0888 0.0244
vn 0.9932 0.1044 0.0516
vn 0.9095 0.3909 0.1417
vn 0.7423 0.6269 0.2367
vn 0.4887 0.8177 0.3043
vn 0.2454 0.9129 0.3261
vn 0.0521 0.9444 0.3248
vn -0.1170 0.9434 0.3103
vn -0.2995 0.9121 0.2800
vn -0.5144 0.8268 0.2275
vn -0.7334 0.6630 0.1503
vn -0.9048 0.4223 0.0544
vn -0.9890 0.1402 -0.0474
vn -0.9803 -0.1369 -0.1426
vn -0.8945 -0.3852 -0.2271
vn -0.7492 -0.5921 -0.2967
vn -0.5608 -0.7511 -0.3483
vn -0.3420 -0.8595 -0.3798
vn -0.1045 -0.9152 -0.3892
vn 0.4109 -0.9063 -0.0989
vn 0.1895 -0.9287 -0.3187
vn 0.6387 -0.7601 -0.1195
vn 0.8162 -0.5614 -0.1361
vn 0.9342 -0.3269 -0.1429
vn 0.9886 -0.0665 -0.1349
vn 0.9712 0.2116 -0.1093
vn 0.8682 0.4916 -0.0678
vn 0.6663 0.7454 -0.0214
vn 0.4179 0.9085 0.0071
vn 0.2021 0.9792 0.0190
vn 0.0385 0.9987 0.0335
vn -0.1235 0.9903 0.0637
vn -0.3199 0.9420 0.1016
vn -0.5505 0.8248 0.1289
vn -0.7599 0.6360 0.1344
vn -0.9170 0.3796 0.1226
vn -0.9916 0.0841 0.0978
vn -0.9768 -0.2032 0.0674
vn -0.8904 -0.4536 0.0384
vn -0.7498 -0.6616 0.0129
vn -0.5665 -0.8240 -0.0103
vn -0.3479 -0.9370 -0.0328
vn -0.1022 -0.9932 -0.0553
vn -0.1198 -0.9920 0.0399
vn -0.3620 -0.9312 0.0430
vn -0.5837 -0.8106 0.0470
vn -0.7952 -0.6037 0.0557
vn -0.9169 -0.3934 0.0670
vn -0.9715 -0.2283 0.0644
vn -0.9992 -0.0113 0.0386
vn -0.9249 0.3800 0.0085
vn -0.7489 0.6627 -0.0058
vn -0.5002 0.8658 -0.0141
vn -0.2155 0.9764 -0.0106
vn 0.0114 0.9999 0.0115
vn 0.1739 0.9841 0.0366
vn 0.2112 0.9764 0.0449
vn 0.4487 0.8935 0.0149
vn 0.6437 0.7653 -0.0040
vn 0.8946 0.4465 -0.0183
vn 0.9759 0.2176 -0.0187
vn 0.9972 -0.0720 -0.0214
vn 0.8891 -0.4577 -0.0012
vn 0.7499 -0.6612 0.0214
vn 0.5955 -0.8027 0.0308
vn 0.3761 -0.9259 0.0342
vn 0.1317 -0.9906 0.0370
vn 0.2092 -0.9498 -0.2325
vn 0.1960 -0.9685 -0.1539
vn 0.4981 -0.8418 -0.2078
vn 0.4787 -0.8576 -0.1879
vn 0.7387 -0.6557 -0.1561
vn 0.7126 -0.6662 -0.2202
vn 0.8948 -0.4362 -0.0953
vn 0.8647 -0.4399 -0.2425
vn 0.9740 -0.2228 -0.0415
vn 0.9438 -0.2193 -0.2474
vn 0.9998 -0.0204 0.0003
vn 0.9740 -0.0096 -0.2265
vn 0.9790 0.1998 0.0414
vn 0.9600 0.2221 -0.1704
vn 0.8866 0.4530 0.0934
vn 0.8720 0.4833 -0.0775
vn 0.6945 0.7032 0.1524
vn 0.6681 0.7426 0.0479
vn 0.4296 0.8798 0.2033
vn 0.3906 0.9055 0.1659
vn 0.1708 0.9568 0.2351
vn 0.1558 0.9596 0.2344
vn -0.0395 0.9678 0.2486
vn -0.0091 0.9666 0.2561
vn -0.2168 0.9435 0.2505
vn -0.1679 0.9527 0.2535
vn -0.4026 0.8829 0.2419
vn -0.3597 0.9012 0.2418
vn -0.6096 0.7625 0.2167
vn -0.5907 0.7747 0.2255
vn -0.8063 0.5661 0.1716
vn -0.7961 0.5725 0.1961
vn -0.9420 0.3163 0.1118
vn -0.9360 0.3174 0.1521
vn -0.9978 0.0486 0.0453
vn -0.9940 0.0400 0.1019
vn -0.9784 -0.2061 -0.0180
vn -0.9728 -0.2255 0.0533
vn -0.8979 -0.4342 -0.0724
vn -0.8886 -0.4586 0.0094
vn -0.7640 -0.6339 -0.1206
vn -0.7532 -0.6571 -0.0296
vn -0.5807 -0.7974 -0.1642
vn -0.5720 -0.8178 -0.0639
vn -0.3505 -0.9146 -0.2014
vn -0.3472 -0.9330 -0.0951
vn -0.0836 -0.9703 -0.2271
vn -0.0883 -0.9884 -0.1238
vn 0.4688 -0.8307 -0.3003
vn 0.4922 0.0109 0.8704
vn -0.5798 0.5550 0.5965
vn -0.5683 0.5463 0.6153
vn 0.1627 -0.3829 0.9093
vn -0.0675 0.0687 0.9953
vn 0.0334 -0.2983 0.9539
vn 0.0339 -0.3110 0.9498
vn 0.1471 0.3068 0.9403
vn 0.1529 0.3183 0.9356
vn -0.0856 0.0830 0.9929
vn -0.0814 0.0853 0.9930
vn 0.0277 0.0954 0.9951
vn 0.0790 0.0776 0.9939
vn 0.1040 0.0601 0.9928
vn 0.0042 0.1768 0.9842
vn 0.4377 0.0161 0.8990
vn 0.3431 -0.0216 0.9391
vn 0.3544 -0.0946 0.9303
vn -0.0273 0.0983 0.9948
vn 0.4741 0.0886 0.8760
vn 0.1576 -0.4746 0.8660
vn 0.0810 -0.6537 0.7524
vn 0.1228 -0.3147 0.9412
vn 0.0477 0.0880 0.9950
vn -0.0242 -0.8925 0.4504
vn -0.0974 -0.9082 0.4070
vn 0.1805 -0.8411 0.5099
vn 0.1221 -0.8631 0.4901
vn 0.4592 -0.6917 0.5573
vn 0.4230 -0.7289 0.5383
vn 0.6664 -0.5043 0.5491
vn 0.6701 -0.5294 0.5203
vn 0.8939 -0.1257 0.4303
vn 0.9196 -0.1084 0.3777
vn 0.9448 0.2575 0.2028
vn 0.9416 0.2707 0.2005
vn 0.9492 0.2838 0.1360
vn 0.9301 0.2735 0.2451
vn 0.9239 0.3766 0.0681
vn 0.9248 0.1591 0.3455
vn 0.7413 0.6631 -0.1037
vn 0.8187 0.5707 0.0634
vn 0.7953 0.6058 -0.0235
vn 0.6415 0.7549 -0.1369
vn 0.6439 0.7291 -0.2319
vn 0.5406 0.8100 -0.2273
vn 0.3670 0.8213 -0.4367
vn 0.3308 0.8744 -0.3550
vn -0.0208 0.7998 -0.5999
vn 0.0537 0.8910 -0.4508
vn 0.1011 0.8168 -0.5679
vn 0.0071 0.8893 -0.4574
vn -0.2853 0.6989 -0.6558
vn -0.3247 0.7609 -0.5618
vn -0.6768 0.4019 -0.6168
vn -0.6748 0.4660 -0.5723
vn -0.8108 0.2155 -0.5441
vn -0.8171 0.2474 -0.5207
vn -0.9033 -0.0030 -0.4290
vn -0.8993 0.0057 -0.4373
vn -0.9313 -0.2175 -0.2921
vn -0.9170 -0.2269 -0.3281
vn -0.8887 -0.4403 -0.1277
vn -0.8494 -0.5020 -0.1625
vn -0.6609 -0.7416 0.1154
vn -0.5618 -0.8158 0.1373
vn -0.3891 -0.8887 0.2426
vn -0.3216 -0.8941 0.3118
vn -0.5843 -0.8057 0.0969
vn -0.6879 -0.7200 0.0912
vn -0.1358 -0.9017 0.4104
vn -0.2112 -0.9183 0.3347
vn -0.0929 -0.9518 0.2924
vn 0.1766 -0.9366 -0.3027
vn 0.4553 -0.8481 -0.2710
vn 0.6966 -0.6862 -0.2097
vn 0.8717 -0.4729 -0.1282
vn 0.9325 -0.3463 -0.1023
vn 0.3127 -0.6428 0.6993
vn 0.1138 0.9626 0.2460
vn 0.8211 0.5422 0.1785
vn 0.7167 0.6605 0.2239
vn 0.3776 0.8855 0.2709
vn 0.0730 0.9543 0.2898
vn -0.0610 0.9524 0.2986
vn -0.0741 0.9509 0.3006
vn -0.2029 0.9362 0.2870
vn -0.5007 0.8285 0.2509
vn -0.8094 0.5579 0.1832
vn -0.9489 0.2924 0.1185
vn -0.9976 0.0465 0.0509
vn -0.9809 -0.1929 -0.0234
vn -0.9041 -0.4158 -0.0984
vn -0.7724 -0.6123 -0.1689
vn -0.5915 -0.7728 -0.2300
vn -0.3668 -0.8882 -0.2767
vn -0.1060 -0.9471 -0.3030
vn 0.9989 0.0344 0.0325
vn 0.9692 0.2266 0.0962
vn 0.3315 -0.8918 -0.3079
vn 0.2229 0.7565 -0.6149
vn 0.2225 0.1485 0.9636
vn 0.3547 -0.1739 -0.9187
vn 0.8118 0.0863 -0.5775
vn -0.4771 0.8640 -0.1608
vn -0.6436 -0.5983 0.4773
vn 0.8475 -0.1590 -0.5065
vn -0.1669 0.9218 -0.3499
vn -0.7930 -0.3710 0.4833
vn 0.8173 -0.4171 -0.3975
vn 0.0339 0.8845 -0.4652
vn -0.8868 -0.1178 0.4469
vn 0.7101 -0.6546 -0.2593
vn 0.1502 0.8350 -0.5293
vn -0.9177 0.1427 0.3709
vn 0.5637 -0.8152 -0.1329
vn 0.2061 -0.9714 0.1181
vn 0.3302 0.7387 -0.5876
vn -0.8773 0.4088 0.2516
vn 0.5455 -0.8278 -0.1311
vn -0.0194 -0.9733 0.2289
vn 0.5471 0.5583 -0.6237
vn -0.7776 0.6187 0.1117
vn -0.1052 -0.9586 0.2647
vn 0.7113 0.3330 -0.6190
vn -0.6598 0.7513 -0.0148
vn -0.4422 -0.7896 0.4254
usemtl BaumMitGabelungTestur
s off
f 73/1/1 2/2/1 4/3/1 74/4/1
f 74/4/2 4/3/2 6/5/2 75/6/2
f 75/6/3 6/5/3 8/7/3 76/8/3
f 76/8/4 8/7/4 10/9/4 77/10/4
f 77/10/5 10/9/5 12/11/5 78/12/5
f 78/12/6 12/11/6 14/13/6 79/14/6
f 79/14/7 14/13/7 16/15/7 80/16/7
f 80/16/8 16/15/8 18/17/8 81/18/8
f 81/18/9 18/17/9 20/19/9 82/20/9
f 82/20/10 20/19/10 22/21/10 83/22/10
f 83/22/11 22/21/11 24/23/11 84/24/11
f 84/24/12 24/23/12 26/25/12 85/26/12
f 85/26/13 26/25/13 28/27/13 86/28/13
f 86/28/14 28/27/14 30/29/14 87/30/14
f 87/30/15 30/29/15 32/31/15 88/32/15
f 88/32/16 32/31/16 34/33/16 89/34/16
f 89/34/17 34/33/17 36/35/17 90/36/17
f 90/36/18 36/35/18 38/37/18 91/38/18
f 91/39/19 38/40/19 40/41/19 92/42/19
f 92/42/20 40/41/20 42/43/20 93/44/20
f 93/44/21 42/43/21 44/45/21 94/46/21
f 94/46/22 44/45/22 46/47/22 95/48/22
f 4/49/23 2/50/23 48/51/23 46/52/23 44/53/23 42/54/23 40/55/23 38/56/23 36/57/23 34/58/23 32/59/23 30/60/23 28/61/23 26/62/23 24/63/23 22/64/23 20/65/23 18/66/23 16/67/23 14/68/23 12/69/23 10/70/23 8/71/23 6/72/23
f 95/48/24 46/47/24 48/73/24 96/74/24
f 96/74/25 48/73/25 2/2/25 73/1/25
f 457/75/26 72/76/26 49/77/26 434/78/26
f 456/79/27 71/80/27 72/76/27 457/75/27
f 455/81/28 70/82/28 71/80/28 456/79/28
f 454/83/29 69/84/29 70/82/29 455/81/29
f 453/85/30 68/86/30 69/84/30 454/83/30
f 452/87/31 67/88/31 68/86/31 453/85/31
f 451/89/32 66/90/32 67/91/32 452/92/32
f 450/93/33 65/94/33 66/90/33 451/89/33
f 449/95/34 64/96/34 65/94/34 450/93/34
f 448/97/35 63/98/35 64/96/35 449/95/35
f 447/99/36 62/100/36 63/98/36 448/97/36
f 446/101/37 61/102/37 62/100/37 447/99/37
f 445/103/38 60/104/38 61/102/38 446/101/38
f 444/105/39 59/106/39 60/104/39 445/103/39
f 443/107/40 58/108/40 59/106/40 444/105/40
f 442/109/41 57/110/41 58/108/41 443/107/41
f 441/111/42 56/112/42 57/110/42 442/109/42
f 440/113/43 55/114/43 56/112/43 441/111/43
f 439/115/44 54/116/44 55/114/44 440/113/44
f 438/117/45 53/118/45 54/116/45 439/115/45
f 437/119/46 52/120/46 53/118/46 438/117/46
f 436/121/47 51/122/47 52/120/47 437/119/47
f 435/123/48 50/124/48 51/122/48 436/121/48
f 434/78/49 49/77/49 50/124/49 435/123/49
f 239/125/50 96/74/50 73/1/50 240/126/50
f 238/127/51 95/48/51 96/74/51 239/125/51
f 237/128/52 94/46/52 95/48/52 238/127/52
f 236/129/53 93/44/53 94/46/53 237/128/53
f 235/130/54 92/42/54 93/44/54 236/129/54
f 234/131/55 91/39/55 92/42/55 235/130/55
f 233/132/56 90/36/56 91/38/56 234/133/56
f 232/134/57 89/34/57 90/36/57 233/132/57
f 231/135/58 88/32/58 89/34/58 232/134/58
f 230/136/59 87/30/59 88/32/59 231/135/59
f 229/137/60 86/28/60 87/30/60 230/136/60
f 228/138/61 85/26/61 86/28/61 229/137/61
f 227/139/62 84/24/62 85/26/62 228/138/62
f 226/140/63 83/22/63 84/24/63 227/139/63
f 225/141/64 82/20/64 83/22/64 226/140/64
f 224/142/65 81/18/65 82/20/65 225/141/65
f 223/143/66 80/16/66 81/18/66 224/142/66
f 222/144/67 79/14/67 80/16/67 223/143/67
f 221/145/68 78/12/68 79/14/68 222/144/68
f 220/146/69 77/10/69 78/12/69 221/145/69
f 219/147/70 76/8/70 77/10/70 220/146/70
f 218/148/71 75/6/71 76/8/71 219/147/71
f 217/149/72 74/4/72 75/6/72 218/148/72
f 240/126/73 73/1/73 74/4/73 217/149/73
f 383/150/74 380/151/74 127/152/74 128/153/74
f 389/154/75 386/155/75 129/156/75 130/157/75
f 368/158/76 362/159/76 121/160/76 123/161/76
f 413/162/77 410/163/77 137/164/77 138/165/77
f 392/166/78 389/154/78 130/157/78 131/167/78
f 371/168/79 368/158/79 123/161/79 124/169/79
f 98/170/80 97/171/80 365/172/80 363/173/80
f 416/174/81 413/162/81 138/165/81 139/175/81
f 395/176/82 392/166/82 131/167/82 132/177/82
f 374/178/83 371/168/83 124/169/83 125/179/83
f 419/180/84 416/181/84 139/182/84 140/183/84
f 398/184/85 395/176/85 132/177/85 133/185/85
f 377/186/86 374/178/86 125/179/86 126/187/86
f 422/188/87 419/180/87 140/183/87 141/189/87
f 401/190/88 398/184/88 133/185/88 134/191/88
f 103/192/89 102/193/89 378/194/89 381/195/89
f 425/196/90 422/188/90 141/189/90 142/197/90
f 404/198/91 401/190/91 134/191/91 135/199/91
f 380/151/92 377/186/92 126/187/92 127/152/92
f 428/200/93 425/196/93 142/197/93 143/201/93
f 407/202/94 404/198/94 135/199/94 136/203/94
f 386/155/95 383/150/95 128/153/95 129/156/95
f 431/204/96 428/200/96 143/201/96 144/205/96
f 410/163/97 407/202/97 136/203/97 137/164/97
f 121/206/98 122/207/98 144/208/98 143/209/98 142/210/98 141/211/98 140/212/98 139/213/98 138/214/98 137/215/98 136/216/98 135/217/98 134/218/98 133/219/98 132/220/98 131/221/98 130/222/98 129/223/98 128/224/98 127/225/98 126/226/98 125/227/98 124/228/98 123/229/98
f 118/230/99 117/231/99 423/232/99 426/233/99
f 111/234/100 110/235/100 402/236/100 405/237/100
f 104/238/101 103/192/101 381/195/101 384/239/101
f 119/240/102 118/230/102 426/233/102 429/241/102
f 112/242/103 111/234/103 405/237/103 408/243/103
f 105/244/104 104/238/104 384/239/104 387/245/104
f 120/246/105 119/240/105 429/241/105 432/247/105
f 99/248/106 98/170/106 363/173/106 369/249/106
f 113/250/107 112/242/107 408/243/107 411/251/107
f 106/252/108 105/244/108 387/245/108 390/253/108
f 97/171/109 120/246/109 432/247/109 365/172/109
f 366/254/110 431/204/110 144/205/110 122/255/110
f 114/256/111 113/250/111 411/251/111 414/257/111
f 107/258/112 106/252/112 390/253/112 393/259/112
f 100/260/113 99/248/113 369/249/113 372/261/113
f 115/262/114 114/256/114 414/257/114 417/263/114
f 108/264/115 107/258/115 393/259/115 396/265/115
f 101/266/116 100/260/116 372/261/116 375/267/116
f 116/268/117 115/269/117 417/270/117 420/271/117
f 109/272/118 108/264/118 396/265/118 399/273/118
f 102/193/119 101/266/119 375/267/119 378/194/119
f 117/231/120 116/268/120 420/271/120 423/232/120
f 110/235/121 109/272/121 399/273/121 402/236/121
f 181/274/122 180/275/122 204/276/122 205/277/122
f 465/278/123 464/279/123 189/280/123 190/281/123
f 467/282/124 466/283/124 182/284/124 183/285/124
f 469/286/125 468/287/125 175/288/125 176/289/125
f 470/290/126 465/278/126 190/281/126 191/291/126
f 471/292/127 467/282/127 183/285/127 184/293/127
f 472/294/128 469/286/128 176/289/128 177/295/128
f 473/296/129 470/290/129 191/291/129 192/297/129
f 475/298/130 474/299/130 170/300/130 169/301/130
f 476/302/131 471/292/131 184/293/131 185/303/131
f 477/304/132 472/294/132 177/295/132 178/305/132
f 474/299/133 473/296/133 192/297/133 170/300/133
f 478/306/134 475/298/134 169/301/134 171/307/134
f 479/308/135 476/302/135 185/303/135 186/309/135
f 480/310/136 477/304/136 178/305/136 179/311/136
f 481/312/137 478/306/137 171/307/137 172/313/137
f 482/314/138 479/308/138 186/309/138 187/315/138
f 483/316/139 480/310/139 179/311/139 180/275/139
f 484/317/140 481/312/140 172/313/140 173/318/140
f 485/319/141 482/320/141 187/321/141 188/322/141
f 486/323/142 483/316/142 180/275/142 181/274/142
f 487/324/143 484/317/143 173/318/143 174/325/143
f 464/279/144 485/319/144 188/322/144 189/280/144
f 466/283/145 486/323/145 181/274/145 182/284/145
f 468/287/146 487/324/146 174/325/146 175/288/146
f 193/326/147 194/327/147 216/328/147 215/329/147 214/330/147 213/331/147 212/332/147 211/333/147 210/334/147 209/335/147 208/336/147 207/337/147 206/338/147 205/339/147 204/340/147 203/341/147 202/342/147 201/343/147 200/344/147 199/345/147 198/346/147 197/347/147 196/348/147 195/349/147
f 174/325/148 173/318/148 197/350/148 198/351/148
f 189/280/149 188/322/149 212/352/149 213/353/149
f 182/284/150 181/274/150 205/277/150 206/354/150
f 175/288/151 174/325/151 198/351/151 199/355/151
f 190/281/152 189/280/152 213/353/152 214/356/152
f 183/285/153 182/284/153 206/354/153 207/357/153
f 176/289/154 175/288/154 199/355/154 200/358/154
f 191/291/155 190/281/155 214/356/155 215/359/155
f 184/293/156 183/285/156 207/357/156 208/360/156
f 177/295/157 176/289/157 200/358/157 201/361/157
f 192/297/158 191/291/158 215/359/158 216/362/158
f 169/301/159 170/300/159 194/363/159 193/364/159
f 185/303/160 184/293/160 208/360/160 209/365/160
f 178/305/161 177/295/161 201/361/161 202/366/161
f 170/300/162 192/297/162 216/362/162 194/363/162
f 171/307/163 169/301/163 193/364/163 195/367/163
f 186/309/164 185/303/164 209/365/164 210/368/164
f 179/311/165 178/305/165 202/366/165 203/369/165
f 172/313/166 171/307/166 195/367/166 196/370/166
f 187/315/167 186/309/167 210/368/167 211/371/167
f 180/275/168 179/311/168 203/369/168 204/276/168
f 173/318/169 172/313/169 196/370/169 197/350/169
f 188/322/170 187/321/170 211/372/170 212/352/170
f 292/373/171 243/374/171 244/375/171 295/376/171
f 288/377/172 358/378/172 290/379/172 265/380/172
f 295/376/173 244/375/173 245/381/173 298/382/173
f 298/382/174 245/381/174 246/383/174 301/384/174
f 301/384/175 246/383/175 247/385/175 304/386/175
f 304/386/176 247/385/176 248/387/176 307/388/176
f 307/388/177 248/387/177 249/389/177 310/390/177
f 310/390/178 249/389/178 250/391/178 313/392/178
f 313/392/179 250/391/179 251/393/179 316/394/179
f 316/394/180 251/393/180 252/395/180 319/396/180
f 319/396/181 252/395/181 253/397/181 322/398/181
f 322/398/182 253/397/182 254/399/182 325/400/182
f 325/400/183 254/399/183 255/401/183 328/402/183
f 328/402/184 255/401/184 256/403/184 331/404/184
f 331/404/185 256/403/185 257/405/185 334/406/185
f 334/406/186 257/405/186 258/407/186 337/408/186
f 337/408/187 258/407/187 259/409/187 340/410/187
f 340/411/188 259/412/188 260/413/188 343/414/188
f 343/414/189 260/413/189 261/415/189 346/416/189
f 346/416/190 261/415/190 262/417/190 349/418/190
f 349/418/191 262/417/191 263/419/191 352/420/191
f 352/420/192 263/419/192 264/421/192 355/422/192
f 355/422/193 264/421/193 241/423/193 359/424/193
f 49/77/194 240/126/194 217/149/194 50/124/194
f 50/124/195 217/149/195 218/148/195 51/122/195
f 51/122/196 218/148/196 219/147/196 52/120/196
f 52/120/197 219/147/197 220/146/197 53/118/197
f 53/118/198 220/146/198 221/145/198 54/116/198
f 54/116/199 221/145/199 222/144/199 55/114/199
f 55/114/200 222/144/200 223/143/200 56/112/200
f 56/112/201 223/143/201 224/142/201 57/110/201
f 57/110/202 224/142/202 225/141/202 58/108/202
f 58/108/203 225/141/203 226/140/203 59/106/203
f 59/106/204 226/140/204 227/139/204 60/104/204
f 60/104/205 227/139/205 228/138/205 61/102/205
f 61/102/206 228/138/206 229/137/206 62/100/206
f 62/100/207 229/137/207 230/136/207 63/98/207
f 63/98/208 230/136/208 231/135/208 64/96/208
f 64/96/209 231/135/209 232/134/209 65/94/209
f 65/94/210 232/134/210 233/132/210 66/90/210
f 66/90/211 233/132/211 234/133/211 67/91/211
f 67/88/212 234/131/212 235/130/212 68/86/212
f 68/86/213 235/130/213 236/129/213 69/84/213
f 69/84/214 236/129/214 237/128/214 70/82/214
f 70/82/215 237/128/215 238/127/215 71/80/215
f 71/80/216 238/127/216 239/125/216 72/76/216
f 72/76/217 239/125/217 240/126/217 49/77/217
f 265/380/218 290/379/218 293/425/218 266/426/218
f 359/424/219 241/423/219 242/427/219 289/428/219
f 266/426/220 293/425/220 296/429/220 267/430/220
f 267/430/221 296/429/221 299/431/221 268/432/221
f 268/432/222 299/431/222 302/433/222 269/434/222
f 269/434/223 302/433/223 305/435/223 270/436/223
f 270/436/224 305/435/224 308/437/224 271/438/224
f 271/438/225 308/437/225 311/439/225 272/440/225
f 272/440/226 311/439/226 314/441/226 273/442/226
f 273/442/227 314/441/227 317/443/227 274/444/227
f 274/444/228 317/443/228 320/445/228 275/446/228
f 275/446/229 320/445/229 323/447/229 276/448/229
f 276/448/230 323/447/230 326/449/230 277/450/230
f 277/450/231 326/449/231 329/451/231 278/452/231
f 278/452/232 329/451/232 332/453/232 279/454/232
f 279/454/233 332/453/233 335/455/233 280/456/233
f 280/456/234 335/455/234 338/457/234 281/458/234
f 281/458/235 338/457/235 341/459/235 282/460/235
f 282/461/236 341/462/236 344/463/236 283/464/236
f 283/464/237 344/463/237 347/465/237 284/466/237
f 284/466/238 347/465/238 350/467/238 285/468/238
f 285/468/239 350/467/239 353/469/239 286/470/239
f 286/470/240 353/469/240 356/471/240 287/472/240
f 287/472/241 356/471/241 358/378/241 288/377/241
f 47/473/242 287/472/242 288/377/242 1/474/242
f 45/475/243 286/470/243 287/472/243 47/473/243
f 43/476/244 285/468/244 286/470/244 45/475/244
f 41/477/245 284/466/245 285/468/245 43/476/245
f 39/478/246 283/464/246 284/466/246 41/477/246
f 37/479/247 282/461/247 283/464/247 39/478/247
f 35/480/248 281/458/248 282/460/248 37/481/248
f 33/482/249 280/456/249 281/458/249 35/480/249
f 31/483/250 279/454/250 280/456/250 33/482/250
f 29/484/251 278/452/251 279/454/251 31/483/251
f 27/485/252 277/450/252 278/452/252 29/484/252
f 25/486/253 276/448/253 277/450/253 27/485/253
f 23/487/254 275/446/254 276/448/254 25/486/254
f 21/488/255 274/444/255 275/446/255 23/487/255
f 19/489/256 273/442/256 274/444/256 21/488/256
f 17/490/257 272/440/257 273/442/257 19/489/257
f 15/491/258 271/438/258 272/440/258 17/490/258
f 13/492/259 270/436/259 271/438/259 15/491/259
f 11/493/260 269/434/260 270/436/260 13/492/260
f 9/494/261 268/432/261 269/434/261 11/493/261
f 7/495/262 267/430/262 268/432/262 9/494/262
f 5/496/263 266/426/263 267/430/263 7/495/263
f 3/497/264 265/380/264 266/426/264 5/496/264
f 1/474/265 288/377/265 265/380/265 3/497/265
f 359/424/266 289/428/266 291/498/266 360/499/266
f 360/499/267 291/498/267 290/379/267 358/378/267
f 289/428/268 292/373/268 294/500/268 291/498/268
f 291/498/269 294/500/269 293/425/269 290/379/269
f 292/373/270 295/376/270 297/501/270 294/500/270
f 294/500/271 297/501/271 296/429/271 293/425/271
f 295/376/272 298/382/272 300/502/272 297/501/272
f 297/501/273 300/502/273 299/431/273 296/429/273
f 298/382/274 301/384/274 303/503/274 300/502/274
f 300/502/275 303/503/275 302/433/275 299/431/275
f 301/384/276 304/386/276 306/504/276 303/503/276
f 303/503/277 306/504/277 305/435/277 302/433/277
f 304/386/278 307/388/278 309/505/278 306/504/278
f 306/504/279 309/505/279 308/437/279 305/435/279
f 307/388/280 310/390/280 312/506/280 309/505/280
f 309/505/281 312/506/281 311/439/281 308/437/281
f 310/390/282 313/392/282 315/507/282 312/506/282
f 312/506/283 315/507/283 314/441/283 311/439/283
f 313/392/284 316/394/284 318/508/284 315/507/284
f 315/507/285 318/508/285 317/443/285 314/441/285
f 316/394/286 319/396/286 321/509/286 318/508/286
f 318/508/287 321/509/287 320/445/287 317/443/287
f 319/396/288 322/398/288 324/510/288 321/509/288
f 321/509/289 324/510/289 323/447/289 320/445/289
f 322/398/290 325/400/290 327/511/290 324/510/290
f 324/510/291 327/511/291 326/449/291 323/447/291
f 325/400/292 328/402/292 330/512/292 327/511/292
f 327/511/293 330/512/293 329/451/293 326/449/293
f 328/402/294 331/404/294 333/513/294 330/512/294
f 330/512/295 333/513/295 332/453/295 329/451/295
f 331/404/296 334/406/296 336/514/296 333/513/296
f 333/513/297 336/514/297 335/455/297 332/453/297
f 334/406/298 337/408/298 339/515/298 336/514/298
f 336/514/299 339/515/299 338/457/299 335/455/299
f 337/408/300 340/410/300 342/516/300 339/515/300
f 339/515/301 342/516/301 341/459/301 338/457/301
f 340/411/302 343/414/302 345/517/302 342/518/302
f 342/518/303 345/517/303 344/463/303 341/462/303
f 343/414/304 346/416/304 348/519/304 345/517/304
f 345/517/305 348/519/305 347/465/305 344/463/305
f 346/416/306 349/418/306 351/520/306 348/519/306
f 348/519/307 351/520/307 350/467/307 347/465/307
f 349/418/308 352/420/308 354/521/308 351/520/308
f 351/520/309 354/521/309 353/469/309 350/467/309
f 352/420/310 355/422/310 357/522/310 354/521/310
f 354/521/311 357/522/311 356/471/311 353/469/311
f 355/422/312 359/424/312 360/499/312 357/522/312
f 357/522/313 360/499/313 358/378/313 356/471/313
f 289/428/314 242/427/314 243/374/314 292/373/314
f 25/523/315 361/524/315 23/525/315
f 23/525/316 361/524/316 21/526/316
f 21/526/317 361/524/317 19/527/317
f 19/527/318 361/524/318 17/528/318
f 17/528/319 361/524/319 15/529/319
f 15/529/320 361/524/320 13/530/320
f 13/530/321 361/524/321 11/531/321
f 11/531/322 361/524/322 9/532/322
f 9/532/323 361/524/323 7/533/323
f 7/533/324 361/524/324 5/534/324
f 5/534/325 361/524/325 3/535/325
f 1/536/326 361/524/326 47/537/326
f 47/537/327 361/524/327 45/538/327
f 45/538/328 361/524/328 43/539/328
f 43/539/329 361/524/329 41/540/329
f 25/523/330 27/541/330 361/524/330
f 29/542/331 361/524/331 27/541/331
f 361/524/332 31/543/332 33/544/332
f 3/535/333 361/524/333 1/536/333
f 31/543/334 361/524/334 29/542/334
f 33/544/335 35/545/335 361/524/335
f 37/546/336 361/524/336 35/545/336
f 39/547/337 361/524/337 37/546/337
f 41/540/338 361/524/338 39/547/338
f 363/173/339 365/172/339 367/548/339 364/549/339
f 364/549/340 367/548/340 366/254/340 362/159/340
f 369/249/341 363/173/341 364/549/341 370/550/341
f 370/550/342 364/549/342 362/159/342 368/158/342
f 372/261/343 369/249/343 370/550/343 373/551/343
f 373/551/344 370/550/344 368/158/344 371/168/344
f 375/267/345 372/261/345 373/551/345 376/552/345
f 376/552/346 373/551/346 371/168/346 374/178/346
f 378/194/347 375/267/347 376/552/347 379/553/347
f 379/553/348 376/552/348 374/178/348 377/186/348
f 381/195/349 378/194/349 379/553/349 382/554/349
f 382/554/350 379/553/350 377/186/350 380/151/350
f 384/239/351 381/195/351 382/554/351 385/555/351
f 385/555/352 382/554/352 380/151/352 383/150/352
f 387/245/353 384/239/353 385/555/353 388/556/353
f 388/556/354 385/555/354 383/150/354 386/155/354
f 390/253/355 387/245/355 388/556/355 391/557/355
f 391/557/356 388/556/356 386/155/356 389/154/356
f 393/259/357 390/253/357 391/557/357 394/558/357
f 394/558/358 391/557/358 389/154/358 392/166/358
f 396/265/359 393/259/359 394/558/359 397/559/359
f 397/559/360 394/558/360 392/166/360 395/176/360
f 399/273/361 396/265/361 397/559/361 400/560/361
f 400/560/362 397/559/362 395/176/362 398/184/362
f 402/236/363 399/273/363 400/560/363 403/561/363
f 403/561/364 400/560/364 398/184/364 401/190/364
f 405/237/365 402/236/365 403/561/365 406/562/365
f 406/562/366 403/561/366 401/190/366 404/198/366
f 408/243/367 405/237/367 406/562/367 409/563/367
f 409/563/368 406/562/368 404/198/368 407/202/368
f 411/251/369 408/243/369 409/563/369 412/564/369
f 412/564/370 409/563/370 407/202/370 410/163/370
f 414/257/371 411/251/371 412/564/371 415/565/371
f 415/565/372 412/564/372 410/163/372 413/162/372
f 417/263/373 414/257/373 415/565/373 418/566/373
f 418/566/374 415/565/374 413/162/374 416/174/374
f 420/271/375 417/270/375 418/567/375 421/568/375
f 421/568/376 418/567/376 416/181/376 419/180/376
f 423/232/377 420/271/377 421/568/377 424/569/377
f 424/569/378 421/568/378 419/180/378 422/188/378
f 426/233/379 423/232/379 424/569/379 427/570/379
f 427/570/380 424/569/380 422/188/380 425/196/380
f 429/241/381 426/233/381 427/570/381 430/571/381
f 430/571/382 427/570/382 425/196/382 428/200/382
f 432/247/383 429/241/383 430/571/383 433/572/383
f 433/572/384 430/571/384 428/200/384 431/204/384
f 365/172/385 432/247/385 433/572/385 367/548/385
f 367/548/386 433/572/386 431/204/386 366/254/386
f 362/159/387 366/254/387 122/255/387 121/160/387
f 241/423/388 434/78/388 435/123/388 242/427/388
f 242/427/389 435/123/389 436/121/389 243/374/389
f 243/374/390 436/121/390 437/119/390 244/375/390
f 244/375/391 437/119/391 438/117/391 245/381/391
f 245/381/392 438/117/392 439/115/392 246/383/392
f 247/573/393 246/574/393 459/575/393 461/576/393
f 441/577/394 248/578/394 463/579/394 462/580/394
f 248/387/395 441/111/395 442/109/395 249/389/395
f 249/389/396 442/109/396 443/107/396 250/391/396
f 250/391/397 443/107/397 444/105/397 251/393/397
f 251/393/398 444/105/398 445/103/398 252/395/398
f 252/395/399 445/103/399 446/101/399 253/397/399
f 253/397/400 446/101/400 447/99/400 254/399/400
f 254/399/401 447/99/401 448/97/401 255/401/401
f 255/401/402 448/97/402 449/95/402 256/403/402
f 256/403/403 449/95/403 450/93/403 257/405/403
f 257/405/404 450/93/404 451/89/404 258/407/404
f 258/407/405 451/89/405 452/92/405 259/409/405
f 259/412/406 452/87/406 453/85/406 260/413/406
f 260/413/407 453/85/407 454/83/407 261/415/407
f 261/415/408 454/83/408 455/81/408 262/417/408
f 262/417/409 455/81/409 456/79/409 263/419/409
f 263/419/410 456/79/410 457/75/410 264/421/410
f 264/421/411 457/75/411 434/78/411 241/423/411
f 459/575/412 458/581/412 460/582/412 461/576/412
f 461/576/413 460/582/413 462/580/413 463/579/413
f 246/574/414 439/583/414 458/581/414 459/575/414
f 440/584/415 441/577/415 462/580/415 460/582/415
f 248/578/416 247/573/416 461/576/416 463/579/416
f 439/583/417 440/584/417 460/582/417 458/581/417
f 151/585/418 150/586/418 487/324/418 468/287/418
f 158/587/419 157/588/419 486/323/419 466/283/419
f 165/589/420 164/590/420 485/319/420 464/279/420
f 150/586/421 149/591/421 484/317/421 487/324/421
f 157/588/422 156/592/422 483/316/422 486/323/422
f 164/590/423 163/593/423 482/320/423 485/319/423
f 149/591/424 148/594/424 481/312/424 484/317/424
f 156/592/425 155/595/425 480/310/425 483/316/425
f 163/596/426 162/597/426 479/308/426 482/314/426
f 148/594/427 147/598/427 478/306/427 481/312/427
f 155/595/428 154/599/428 477/304/428 480/310/428
f 162/597/429 161/600/429 476/302/429 479/308/429
f 147/598/430 145/601/430 475/298/430 478/306/430
f 146/602/431 168/603/431 473/296/431 474/299/431
f 154/599/432 153/604/432 472/294/432 477/304/432
f 161/600/433 160/605/433 471/292/433 476/302/433
f 145/601/434 146/602/434 474/299/434 475/298/434
f 168/603/435 167/606/435 470/290/435 473/296/435
f 153/604/436 152/607/436 469/286/436 472/294/436
f 160/605/437 159/608/437 467/282/437 471/292/437
f 167/606/438 166/609/438 465/278/438 470/290/438
f 152/607/439 151/585/439 468/287/439 469/286/439
f 159/608/440 158/587/440 466/283/440 467/282/440
f 166/609/441 165/589/441 464/279/441 465/278/441
