# Blender v2.79 (sub 0) OBJ File: 'Burg Test.blend'
# www.blender.org
mtllib Baumstamm_v3_MitSeil.mtl
o Seil_Kaputt_Kurz_Cylinder.001
v 0.902455 4.864293 -129.909424
v 0.176003 5.725612 -129.912994
v 0.226316 5.756001 -129.893906
v 0.257412 5.774782 -129.843903
v 0.257412 5.774782 -129.782104
v 0.226316 5.756001 -129.732101
v 0.176003 5.725612 -129.712997
v 0.125689 5.695224 -129.732101
v 0.094594 5.676442 -129.782104
v 0.094594 5.676442 -129.843903
v 0.125689 5.695224 -129.893906
v 0.090729 5.908944 -129.912994
v 0.090729 6.130144 -129.912994
v 0.090729 6.285796 -129.912994
v 0.090729 6.321622 -129.912994
v 0.090729 6.459658 -129.912994
v 0.149507 6.597101 -129.893906
v 0.149507 6.441449 -129.893906
v 0.149507 6.285797 -129.893906
v 0.149507 6.130145 -129.893906
v 0.149507 5.908944 -129.893906
v 0.185834 6.525948 -129.843903
v 0.185834 6.387800 -129.843903
v 0.185834 6.285797 -129.843903
v 0.185834 6.130145 -129.843903
v 0.185834 5.908944 -129.843903
v 0.185834 6.486716 -129.782104
v 0.185834 6.374983 -129.782104
v 0.185834 6.285797 -129.782104
v 0.185834 6.130145 -129.782104
v 0.185834 5.908944 -129.782104
v 0.149507 6.546553 -129.732101
v 0.149507 6.390901 -129.732101
v 0.149507 6.285797 -129.732101
v 0.149507 6.130145 -129.732101
v 0.149507 5.908944 -129.732101
v 0.090729 6.597101 -129.712997
v 0.090729 6.441449 -129.712997
v 0.090729 6.285797 -129.712997
v 0.090729 6.130145 -129.712997
v 0.090729 5.908944 -129.712997
v 0.031950 6.523442 -129.732101
v 0.031950 6.441449 -129.732101
v 0.031950 6.285797 -129.732101
v 0.031950 6.130145 -129.732101
v 0.031950 5.908944 -129.732101
v -0.004377 6.597101 -129.782104
v -0.004377 6.441449 -129.782104
v -0.004377 6.285797 -129.782104
v -0.004377 6.130145 -129.782104
v -0.004377 5.908944 -129.782104
v -0.004377 6.597101 -129.843903
v -0.004377 6.441449 -129.843903
v -0.004377 6.285797 -129.843903
v -0.004377 6.130145 -129.843903
v -0.004377 5.908944 -129.843903
v 0.031950 6.536109 -129.893906
v 0.031950 6.380457 -129.893906
v 0.031950 6.285797 -129.893906
v 0.031950 6.130145 -129.893906
v 0.031950 5.908944 -129.893906
v 0.393966 5.682446 -129.896439
v 0.425308 5.720165 -129.880493
v 0.444678 5.743476 -129.838776
v 0.444678 5.743476 -129.787216
v 0.425308 5.720165 -129.745499
v 0.393966 5.682446 -129.729568
v 0.362624 5.644728 -129.745499
v 0.343254 5.621417 -129.787216
v 0.343254 5.621417 -129.838776
v 0.362624 5.644729 -129.880493
v 0.635059 5.609354 -129.896439
v 0.666401 5.647072 -129.880493
v 0.685771 5.670384 -129.838776
v 0.685771 5.670384 -129.787216
v 0.666401 5.647072 -129.745499
v 0.635059 5.609354 -129.729568
v 0.603717 5.571636 -129.745499
v 0.584347 5.548324 -129.787216
v 0.584347 5.548324 -129.838776
v 0.603717 5.571636 -129.880493
v 0.818139 5.465017 -129.894318
v 0.856581 5.495468 -129.878387
v 0.880339 5.514287 -129.836670
v 0.880339 5.514287 -129.785110
v 0.856581 5.495468 -129.743393
v 0.818139 5.465017 -129.727448
v 0.779697 5.434567 -129.743393
v 0.755939 5.415747 -129.785110
v 0.755939 5.415747 -129.836670
v 0.779697 5.434567 -129.878387
v 0.960704 5.042390 -129.910797
v 1.009414 5.048071 -129.894867
v 1.039520 5.051583 -129.853149
v 1.039520 5.051583 -129.801590
v 1.009414 5.048071 -129.759872
v 0.960704 5.042390 -129.743927
v 0.911993 5.036709 -129.759872
v 0.881889 5.033197 -129.801590
v 0.881889 5.033197 -129.853149
v 0.911994 5.036709 -129.894867
v 0.773495 4.678374 -129.909821
v 0.809697 4.644856 -129.894836
v 0.832744 4.623968 -129.853699
v 0.833830 4.623689 -129.802155
v 0.812542 4.644125 -129.759857
v 0.777012 4.677472 -129.742996
v 0.740810 4.710990 -129.757996
v 0.717763 4.731877 -129.799118
v 0.716676 4.732156 -129.850662
v 0.737965 4.711720 -129.892960
v 0.385884 4.556129 -129.899628
v 0.399672 4.508750 -129.884659
v 0.409254 4.479118 -129.843552
v 0.410969 4.478552 -129.792023
v 0.404161 4.507269 -129.749741
v 0.391432 4.554299 -129.732864
v 0.377644 4.601678 -129.747818
v 0.368063 4.631310 -129.788925
v 0.366348 4.631876 -129.840454
v 0.373156 4.603158 -129.882736
v -0.040764 4.521068 -129.896439
v -0.037448 4.472140 -129.880493
v -0.035398 4.441900 -129.838776
v -0.035398 4.441900 -129.787216
v -0.037448 4.472140 -129.745499
v -0.040764 4.521068 -129.729568
v -0.044080 4.569996 -129.745499
v -0.046131 4.600236 -129.787216
v -0.046131 4.600236 -129.838776
v -0.044081 4.569996 -129.880493
v -0.408083 4.561501 -129.888031
v -0.435057 4.520545 -129.872086
v -0.451728 4.495232 -129.830383
v -0.451728 4.495232 -129.778809
v -0.435057 4.520545 -129.737091
v -0.408083 4.561501 -129.721161
v -0.381109 4.602456 -129.737091
v -0.364439 4.627769 -129.778809
v -0.364439 4.627769 -129.830383
v -0.381110 4.602456 -129.872086
v -0.607431 4.822512 -129.866409
v -0.649866 4.797930 -129.850464
v -0.676092 4.782737 -129.808746
v -0.676092 4.782737 -129.757187
v -0.649866 4.797930 -129.715469
v -0.607431 4.822512 -129.699539
v -0.564996 4.847093 -129.715469
v -0.538770 4.862287 -129.757187
v -0.538770 4.862287 -129.808746
v -0.564997 4.847093 -129.850464
v -0.651189 5.160062 -129.856445
v -0.699675 5.152707 -129.840500
v -0.729642 5.148161 -129.798782
v -0.729642 5.148161 -129.747223
v -0.699675 5.152707 -129.705505
v -0.651189 5.160062 -129.689575
v -0.602703 5.167416 -129.705505
v -0.572737 5.171962 -129.747223
v -0.572737 5.171962 -129.798782
v -0.602704 5.167416 -129.840500
v -0.534357 5.478303 -129.833054
v -0.578062 5.500549 -129.817108
v -0.605074 5.514297 -129.775391
v -0.605074 5.514297 -129.723831
v -0.578062 5.500549 -129.682114
v -0.534357 5.478303 -129.666183
v -0.490652 5.456058 -129.682114
v -0.463640 5.442310 -129.723831
v -0.463640 5.442310 -129.775391
v -0.490652 5.456058 -129.817108
v -0.214409 5.664653 -129.776306
v -0.243095 5.704429 -129.760361
v -0.260825 5.729011 -129.718643
v -0.260825 5.729011 -129.667084
v -0.243095 5.704429 -129.625366
v -0.214409 5.664653 -129.609436
v -0.185723 5.624878 -129.625366
v -0.167992 5.600296 -129.667084
v -0.167992 5.600296 -129.718643
v -0.185723 5.624878 -129.760361
v 0.114439 5.746533 -129.726196
v 0.098762 5.793001 -129.710251
v 0.089072 5.821720 -129.668533
v 0.089072 5.821720 -129.616974
v 0.098762 5.793001 -129.575256
v 0.114439 5.746533 -129.559326
v 0.130115 5.700066 -129.575256
v 0.139805 5.671347 -129.616974
v 0.139805 5.671347 -129.668533
v 0.130115 5.700067 -129.710251
v 0.904214 4.863842 -129.742584
v 0.972031 4.841547 -129.800980
v 0.946334 4.850008 -129.758987
v 0.834638 4.886587 -129.851028
v 0.860335 4.878125 -129.893036
v 0.944912 4.850374 -129.893967
v 0.971487 4.841686 -129.852539
v 0.861757 4.877760 -129.758041
v 0.835182 4.886447 -129.799469
v 0.929880 5.274744 -129.903732
v 1.000068 5.304747 -129.794510
v 0.859692 5.244741 -129.846069
v 0.886502 5.256202 -129.887787
v 0.973258 5.293286 -129.887787
v 1.000068 5.304747 -129.846069
v 0.886501 5.256202 -129.752792
v 0.859692 5.244741 -129.794510
v 0.973258 5.293286 -129.752792
v 0.929880 5.274744 -129.736862
v 0.171841 5.842337 -129.704468
v 0.222718 5.821676 -129.796494
v 0.201556 5.845757 -129.782761
v 0.196135 5.865923 -129.754822
v 0.208526 5.874473 -129.723358
v 0.233997 5.868139 -129.700378
v 0.262817 5.849341 -129.694687
v 0.283979 5.825260 -129.708420
v 0.289400 5.805094 -129.736359
v 0.277009 5.796545 -129.767822
v 0.251538 5.802879 -129.790787
v 0.207238 5.832720 -129.838669
v 0.196703 5.857050 -129.830429
v 0.203261 5.882352 -129.821075
v 0.224409 5.898962 -129.814163
v 0.252067 5.900534 -129.812347
v 0.275673 5.886468 -129.816315
v 0.286208 5.862138 -129.824554
v 0.279650 5.836837 -129.833908
v 0.258502 5.820227 -129.840820
v 0.230843 5.818655 -129.842636
v 0.259965 5.770461 -129.675110
v 0.182610 5.822120 -129.735199
v 0.206095 5.795898 -129.748596
v 0.225711 5.816899 -129.630981
v 0.249196 5.790677 -129.644379
v 0.177903 5.848826 -129.668121
v 0.198480 5.839110 -129.640060
v 0.253903 5.763971 -129.711456
v 0.233326 5.773688 -129.739517
v 0.130296 5.856096 -129.911148
v 0.129480 5.875351 -129.903366
v 0.135102 5.895078 -129.906708
v 0.145016 5.907743 -129.919861
v 0.155434 5.908506 -129.937820
v 0.162377 5.897078 -129.953735
v 0.163194 5.877822 -129.961502
v 0.157571 5.858095 -129.958176
v 0.147658 5.845431 -129.945023
v 0.137239 5.844667 -129.927048
v 0.011476 5.822542 -129.891983
v 0.018390 5.836450 -129.878174
v 0.026482 5.855477 -129.876099
v 0.032661 5.872355 -129.886520
v 0.034566 5.880638 -129.905487
v 0.031471 5.877161 -129.925735
v 0.024557 5.863252 -129.939545
v 0.016465 5.844224 -129.941635
v 0.010286 5.827346 -129.931198
v 0.008381 5.819065 -129.912247
v -0.008690 5.837998 -129.829346
v 0.001434 5.841657 -129.825821
v 0.007608 5.850917 -129.823730
v 0.007473 5.862242 -129.823837
v 0.001080 5.871305 -129.826141
v -0.009128 5.874647 -129.829727
v -0.019253 5.870987 -129.833252
v -0.025427 5.861727 -129.835358
v -0.025291 5.850402 -129.835236
v -0.018898 5.841339 -129.832947
v 0.174106 5.843482 -129.895172
v 0.188642 5.830554 -129.909714
v 0.169098 5.866747 -129.884384
v 0.229001 5.874348 -129.925613
v 0.209457 5.910542 -129.900284
v 0.223993 5.897615 -129.914825
v 0.175531 5.891465 -129.881470
v 0.190946 5.908193 -129.887543
v 0.222568 5.849631 -129.928528
v 0.207153 5.832902 -129.922455
v 0.066217 5.842051 -129.918228
v 0.085368 5.892362 -129.919525
v 0.069429 5.840956 -129.955658
v 0.065563 5.835565 -129.936798
v 0.071143 5.857935 -129.907074
v 0.078458 5.877152 -129.907562
v 0.083654 5.875382 -129.968124
v 0.076338 5.856165 -129.967621
v 0.089234 5.897753 -129.938400
v 0.088579 5.891267 -129.956955
v 0.014631 5.842382 -129.738113
v 0.021457 5.840734 -129.743729
v 0.027328 5.844558 -129.749359
v 0.030003 5.852394 -129.752853
v 0.028460 5.861248 -129.752884
v 0.023287 5.867739 -129.749435
v 0.016461 5.869387 -129.743820
v 0.010590 5.865563 -129.738190
v 0.007915 5.857726 -129.734695
v 0.009459 5.848873 -129.734665
v 0.090729 6.580176 -129.813004
vt 0.840034 0.932127
vt 0.839810 0.947328
vt 0.801463 0.943085
vt 0.801741 0.934432
vt 0.848870 0.898816
vt 0.846342 0.907964
vt 0.806764 0.917576
vt 0.809273 0.908719
vt 0.841871 0.961212
vt 0.845570 0.972154
vt 0.805684 0.960146
vt 0.803119 0.951612
vt 0.847949 0.981942
vt 0.848367 0.991946
vt 0.807814 0.978207
vt 0.807685 0.969064
vt 0.849447 0.889742
vt 0.809974 0.899651
vt 0.842429 0.918443
vt 0.803780 0.925994
vt 0.848403 0.880544
vt 0.808436 0.890890
vt 0.883703 0.900755
vt 0.880886 0.910471
vt 0.917765 0.904365
vt 0.917077 0.914150
vt 0.941704 0.905431
vt 0.941393 0.914870
vt 0.955973 0.905867
vt 0.946862 0.914999
vt 0.979084 0.906459
vt 0.967547 0.915290
vt 0.885493 0.891248
vt 0.918524 0.894783
vt 0.942094 0.896099
vt 0.965342 0.896931
vt 0.988365 0.897598
vt 0.886109 0.881754
vt 0.919318 0.885315
vt 0.942562 0.886845
vt 0.965652 0.887766
vt 0.988640 0.888467
vt 0.884549 0.978888
vt 0.886822 0.988198
vt 0.918924 0.973729
vt 0.919997 0.983128
vt 0.942757 0.971880
vt 0.943392 0.981198
vt 0.966191 0.970619
vt 0.966680 0.979864
vt 0.978419 0.970015
vt 0.989878 0.978653
vt 0.881247 0.968983
vt 0.917901 0.963982
vt 0.942177 0.962469
vt 0.965736 0.961349
vt 0.988924 0.960367
vt 0.877617 0.958204
vt 0.917063 0.954060
vt 0.941708 0.952976
vt 0.957743 0.952374
vt 0.981013 0.951517
vt 0.875105 0.946125
vt 0.916525 0.944031
vt 0.941386 0.943433
vt 0.955040 0.943106
vt 0.971773 0.942684
vt 0.875134 0.933408
vt 0.916361 0.933977
vt 0.941211 0.933881
vt 0.956812 0.933739
vt 0.977417 0.933479
vt 0.877546 0.921301
vt 0.916573 0.923996
vt 0.941210 0.924360
vt 0.964812 0.924439
vt 0.987852 0.924306
vt 0.763926 0.927221
vt 0.765301 0.919859
vt 0.766659 0.912060
vt 0.765611 0.963913
vt 0.764530 0.956112
vt 0.763432 0.948723
vt 0.762837 0.941533
vt 0.767280 0.903714
vt 0.763053 0.934396
vt 0.765980 0.972288
vt 0.766825 0.895274
vt 0.731026 0.903926
vt 0.731061 0.895322
vt 0.730268 0.927329
vt 0.730530 0.919875
vt 0.730813 0.912129
vt 0.730538 0.962857
vt 0.730453 0.955142
vt 0.730310 0.948051
vt 0.730161 0.941197
vt 0.730153 0.934380
vt 0.730385 0.971004
vt 0.699189 0.933807
vt 0.699376 0.940563
vt 0.667307 0.940213
vt 0.667276 0.933717
vt 0.697622 0.896198
vt 0.697499 0.904646
vt 0.662410 0.905301
vt 0.662388 0.896958
vt 0.698233 0.920216
vt 0.698767 0.927062
vt 0.666464 0.927218
vt 0.665044 0.920504
vt 0.697724 0.912744
vt 0.663448 0.913261
vt 0.698707 0.954444
vt 0.697989 0.961722
vt 0.663348 0.961047
vt 0.665087 0.953643
vt 0.699213 0.947420
vt 0.666543 0.946793
vt 0.697209 0.969754
vt 0.662038 0.969249
vt 0.638935 0.947071
vt 0.637999 0.953632
vt 0.606518 0.951935
vt 0.607663 0.945561
vt 0.639555 0.933329
vt 0.639480 0.940282
vt 0.608278 0.939333
vt 0.608265 0.933110
vt 0.636600 0.896853
vt 0.636731 0.905321
vt 0.604909 0.905886
vt 0.605055 0.897849
vt 0.638347 0.919917
vt 0.639146 0.926512
vt 0.607787 0.926873
vt 0.606786 0.920496
vt 0.637404 0.913027
vt 0.605591 0.913601
vt 0.636901 0.960496
vt 0.605164 0.958829
vt 0.636002 0.968349
vt 0.604260 0.966592
vt 0.549143 0.954220
vt 0.549609 0.946864
vt 0.549848 0.939491
vt 0.549791 0.932097
vt 0.548600 0.902270
vt 0.548970 0.894383
vt 0.549491 0.924704
vt 0.549054 0.917304
vt 0.548677 0.909846
vt 0.548609 0.961629
vt 0.548256 0.969392
vt 0.487886 0.931432
vt 0.487654 0.924021
vt 0.484484 0.968870
vt 0.485146 0.961018
vt 0.486056 0.953647
vt 0.486985 0.946321
vt 0.487655 0.938928
vt 0.485768 0.901960
vt 0.485520 0.894316
vt 0.487062 0.916709
vt 0.486347 0.909403
vt 0.435796 0.911604
vt 0.435794 0.904000
vt 0.434203 0.930974
vt 0.434703 0.924817
vt 0.434554 0.964252
vt 0.434223 0.956593
vt 0.433790 0.949618
vt 0.433625 0.943201
vt 0.433779 0.937021
vt 0.435423 0.896066
vt 0.435334 0.918470
vt 0.390826 0.943223
vt 0.391589 0.936699
vt 0.390381 0.909749
vt 0.389626 0.902270
vt 0.391987 0.930134
vt 0.391889 0.923525
vt 0.388712 0.964304
vt 0.388994 0.956678
vt 0.389837 0.949797
vt 0.389436 0.894333
vt 0.391297 0.916792
vt 0.341059 0.956500
vt 0.342999 0.949498
vt 0.344990 0.942833
vt 0.346291 0.936128
vt 0.342559 0.908997
vt 0.341025 0.901617
vt 0.346701 0.929343
vt 0.346104 0.922572
vt 0.340071 0.964226
vt 0.340702 0.893692
vt 0.344571 0.915862
vt 0.298777 0.922046
vt 0.297770 0.915469
vt 0.295934 0.908667
vt 0.293276 0.955343
vt 0.294694 0.948172
vt 0.296597 0.941628
vt 0.298054 0.935163
vt 0.294298 0.901153
vt 0.298844 0.928619
vt 0.293139 0.963417
vt 0.293753 0.892921
vt 0.242123 0.934878
vt 0.243248 0.927213
vt 0.238964 0.895848
vt 0.238510 0.887239
vt 0.243319 0.919446
vt 0.242295 0.911683
vt 0.240543 0.903903
vt 0.237163 0.958134
vt 0.238401 0.950156
vt 0.240325 0.942495
vt 0.237334 0.966697
vt 0.187241 0.952250
vt 0.186922 0.944765
vt 0.185664 0.936808
vt 0.183671 0.927905
vt 0.182180 0.918264
vt 0.182303 0.908300
vt 0.185159 0.889275
vt 0.186016 0.880545
vt 0.183672 0.898419
vt 0.186545 0.959672
vt 0.184958 0.967779
vt 0.158266 0.917616
vt 0.162858 0.927034
vt 0.146929 0.926160
vt 0.141432 0.918410
vt 0.163085 0.953149
vt 0.159330 0.958148
vt 0.146585 0.955310
vt 0.150593 0.950945
vt 0.167041 0.941855
vt 0.165773 0.947776
vt 0.153106 0.945485
vt 0.153756 0.939197
vt 0.166284 0.935015
vt 0.151733 0.932533
vt 0.158498 0.884636
vt 0.156854 0.890972
vt 0.144278 0.893655
vt 0.147187 0.888390
vt 0.155657 0.907296
vt 0.139236 0.908737
vt 0.155222 0.898281
vt 0.140686 0.899896
vt 0.130546 0.947278
vt 0.131364 0.942498
vt 0.131296 0.937442
vt 0.130390 0.931926
vt 0.128081 0.904870
vt 0.129496 0.899276
vt 0.128880 0.925692
vt 0.127365 0.918644
vt 0.128885 0.951782
vt 0.130177 0.894219
vt 0.126982 0.911385
vt 0.109839 0.912239
vt 0.110199 0.919230
vt 0.097238 0.921328
vt 0.096730 0.915455
vt 0.110201 0.906700
vt 0.097416 0.909980
vt 0.112194 0.940438
vt 0.111165 0.944831
vt 0.099131 0.942497
vt 0.100063 0.938989
vt 0.112359 0.931457
vt 0.112629 0.936022
vt 0.100404 0.935218
vt 0.099967 0.931107
vt 0.110711 0.902375
vt 0.098472 0.905217
vt 0.111332 0.925992
vt 0.098641 0.926544
vt 0.109698 0.948989
vt 0.097772 0.945840
vt 0.110818 0.898238
vt 0.099299 0.901217
vt 0.081952 0.923613
vt 0.085284 0.928257
vt 0.065113 0.924269
vt 0.061400 0.918299
vt 0.084100 0.899974
vt 0.081671 0.903279
vt 0.069044 0.902728
vt 0.071091 0.899460
vt 0.078262 0.912348
vt 0.079080 0.917968
vt 0.060718 0.912182
vt 0.063150 0.907661
vt 0.079415 0.907266
vt 0.066488 0.905353
vt 0.086908 0.936754
vt 0.085527 0.940285
vt 0.072419 0.939018
vt 0.072757 0.933984
vt 0.087091 0.932711
vt 0.070014 0.929041
vt 0.083527 0.943497
vt 0.070201 0.943152
vt 0.043836 0.924018
vt 0.043446 0.920745
vt 0.043359 0.917302
vt 0.043858 0.913692
vt 0.047651 0.902240
vt 0.047472 0.899576
vt 0.044996 0.910406
vt 0.046355 0.907633
vt 0.047334 0.904976
vt 0.043889 0.927130
vt 0.043343 0.930127
vt 0.018139 0.918542
vt 0.019889 0.916712
vt 0.021412 0.914851
vt 0.022387 0.912869
vt 0.022699 0.910798
vt 0.022422 0.908716
vt 0.021072 0.900156
vt 0.021778 0.897905
vt 0.021783 0.906674
vt 0.021192 0.904617
vt 0.020880 0.902446
vt 0.048835 0.854941
vt 0.033794 0.859766
vt 0.040639 0.844184
vt 0.027587 0.836179
vt 0.018139 0.857663
vt 0.021031 0.872054
vt 0.048843 0.864566
vt 0.035137 0.844027
vt 0.048843 0.850062
vt 0.048685 0.865036
vt 0.040782 0.874637
vt 0.028721 0.880471
vn 0.5347 0.7812 -0.3221
vn 0.5347 0.7812 0.3220
vn 0.2293 0.9352 0.2699
vn 0.2293 0.9352 -0.2699
vn -0.3832 -0.5248 -0.7601
vn -0.0056 -0.1307 -0.9914
vn 0.0273 -0.0084 -0.9996
vn -0.1380 -0.6339 -0.7609
vn 0.3418 0.4081 0.8465
vn -0.0056 -0.1307 0.9914
vn 0.0273 -0.0083 0.9996
vn 0.1658 0.6228 0.7646
vn -0.3833 -0.5248 0.7600
vn -0.6252 -0.7269 0.2840
vn -0.2347 -0.9343 0.2682
vn -0.1380 -0.6339 0.7610
vn -0.6252 -0.7269 -0.2840
vn -0.2347 -0.9343 -0.2682
vn 0.3417 0.4080 -0.8466
vn 0.1658 0.6229 -0.7645
vn -0.5999 -0.1290 -0.7896
vn -0.0411 -0.0168 -0.9990
vn -0.5877 0.0000 -0.8090
vn 0.0000 0.0000 -1.0000
vn -0.5878 0.0000 -0.8090
vn -0.2110 0.3960 -0.8936
vn -0.0105 0.1190 -0.9928
vn -0.9363 -0.1858 -0.2980
vn -0.9510 0.0000 -0.3090
vn -0.5439 0.7246 -0.4232
vn -0.9363 -0.1858 0.2980
vn -0.9510 0.0000 0.3090
vn -0.5292 0.7195 0.4496
vn -0.6000 -0.1290 0.7895
vn -0.5878 0.0000 0.8090
vn -0.5723 0.2284 0.7876
vn -0.0412 -0.0168 0.9990
vn 0.0000 0.0000 1.0000
vn -0.0611 0.8181 0.5718
vn 0.5419 0.1276 0.8307
vn 0.5878 0.0000 0.8090
vn 0.7502 0.4467 0.4875
vn 0.9163 0.2364 0.3232
vn 0.9510 0.0000 0.3090
vn 0.9314 0.2261 0.2852
vn 0.9163 0.2364 -0.3232
vn 0.9510 0.0000 -0.3090
vn 0.9260 0.3755 -0.0375
vn 0.5418 0.1276 -0.8307
vn 0.5877 0.0000 -0.8090
vn 0.5878 0.0000 -0.8090
vn 0.2380 0.8347 -0.4967
vn 0.2872 0.5483 -0.7854
vn 0.0143 0.0349 -0.9993
vn -0.2607 -0.5108 -0.8192
vn -0.2670 -0.5067 0.8197
vn 0.0077 0.0413 0.9991
vn 0.2822 0.5533 0.7837
vn 0.4497 0.8441 0.2920
vn -0.4281 -0.8479 -0.3125
vn 0.4516 0.8424 -0.2939
vn -0.4310 -0.8470 0.3112
vn -0.7113 -0.6285 -0.3146
vn -0.7013 -0.6352 0.3235
vn 0.4592 0.4105 -0.7878
vn 0.0193 0.0394 -0.9990
vn -0.4329 -0.3627 -0.8253
vn -0.4133 -0.3841 0.8256
vn 0.0349 0.0096 0.9993
vn 0.4686 0.3870 0.7941
vn 0.7280 0.6152 0.3026
vn 0.7245 0.6236 -0.2935
vn 0.8974 0.3258 -0.2974
vn 0.9044 0.3086 0.2946
vn 0.9563 -0.0728 0.2830
vn 0.9533 -0.0661 -0.2945
vn -0.8946 -0.3130 0.3189
vn -0.9026 -0.2877 -0.3202
vn -0.9443 0.1081 -0.3108
vn -0.9456 0.1005 0.3094
vn 0.0238 0.0437 -0.9987
vn 0.5706 0.2253 -0.7897
vn 0.6201 -0.0470 -0.7831
vn 0.0391 -0.0010 -0.9992
vn -0.5443 -0.1512 -0.8251
vn -0.5721 0.0652 -0.8175
vn 0.0531 -0.0222 0.9983
vn -0.5210 -0.2119 0.8268
vn -0.5688 0.0457 0.8212
vn 0.0509 -0.0244 0.9984
vn 0.5914 0.1777 0.7865
vn 0.6300 -0.0652 0.7738
vn 0.5730 -0.2712 0.7734
vn 0.0353 -0.0175 0.9992
vn 0.0515 -0.0656 0.9965
vn 0.3995 -0.5065 0.7641
vn 0.8652 -0.4057 -0.2947
vn 0.8706 -0.4067 0.2768
vn 0.6034 -0.7498 0.2716
vn 0.5918 -0.7452 -0.3072
vn -0.8412 0.4407 0.3133
vn -0.8479 0.4432 -0.2910
vn -0.5339 0.7870 -0.3092
vn -0.5220 0.7833 0.3375
vn 0.0173 -0.0131 -0.9998
vn 0.5589 -0.2684 -0.7845
vn 0.3680 -0.4936 -0.7880
vn 0.0111 -0.0491 -0.9987
vn -0.5338 0.2687 -0.8017
vn -0.3355 0.4528 -0.8260
vn -0.5177 0.2635 0.8139
vn -0.3031 0.4409 0.8448
vn 0.0223 -0.0297 0.9993
vn 0.1382 -0.6046 0.7844
vn 0.2021 -0.9367 0.2858
vn 0.1907 -0.9329 -0.3054
vn -0.1736 0.9399 -0.2940
vn -0.1627 0.9333 0.3199
vn 0.1084 -0.5939 -0.7972
vn -0.0143 -0.0140 -0.9998
vn -0.1223 0.5821 -0.8038
vn -0.0932 0.5667 0.8186
vn -0.0237 -0.9533 -0.3011
vn -0.0249 -0.6050 -0.7958
vn 0.0124 0.9515 0.3074
vn 0.0188 0.5833 0.8120
vn 0.0124 -0.0259 0.9996
vn -0.0025 -0.6148 0.7887
vn -0.0157 -0.9562 0.2921
vn 0.0021 0.9528 -0.3037
vn -0.0179 -0.0127 -0.9998
vn -0.0074 0.5909 -0.8067
vn 0.2177 0.4740 -0.8532
vn 0.4359 0.8295 -0.3491
vn -0.4834 -0.8222 -0.3004
vn -0.3273 -0.5257 -0.7851
vn 0.4685 0.8145 0.3422
vn 0.2876 0.4293 0.8561
vn 0.0005 -0.0962 0.9953
vn -0.2835 -0.5618 0.7772
vn -0.4682 -0.8341 0.2916
vn -0.0663 -0.0435 -0.9968
vn -0.5524 -0.2666 0.7897
vn -0.8709 -0.3897 0.2994
vn 0.4922 0.2442 -0.8355
vn 0.8764 0.3575 -0.3226
vn -0.8824 -0.3698 -0.2909
vn -0.5893 -0.2120 -0.7795
vn 0.8879 0.3246 0.3259
vn 0.5322 0.1694 0.8295
vn -0.0229 -0.0525 0.9984
vn -0.0764 0.0240 -0.9968
vn 0.5581 -0.1149 0.8217
vn -0.0482 -0.0324 0.9983
vn -0.6228 0.0325 0.7817
vn -0.9546 0.0687 0.2897
vn 0.5595 -0.0224 -0.8285
vn 0.9391 -0.1188 -0.3222
vn -0.9514 0.0906 -0.2941
vn -0.6168 0.0966 -0.7811
vn 0.9373 -0.1569 0.3112
vn -0.0457 0.0638 -0.9969
vn -0.4467 0.4542 -0.7708
vn 0.0141 0.1447 -0.9893
vn 0.4706 -0.2641 -0.8419
vn 0.3554 -0.4446 0.8222
vn -0.1033 -0.0404 0.9938
vn -0.5309 0.3424 0.7751
vn -0.7706 0.5704 0.2843
vn 0.7236 -0.6027 -0.3363
vn -0.7396 0.6056 -0.2936
vn 0.6715 -0.6724 0.3114
vn -0.4182 0.8589 0.2956
vn -0.3498 0.8925 -0.2847
vn 0.3791 -0.8720 -0.3097
vn 0.2865 -0.9115 0.2950
vn -0.1515 0.6271 -0.7640
vn 0.1139 0.1183 -0.9864
vn 0.3260 -0.4746 -0.8176
vn 0.1042 -0.6096 0.7858
vn -0.1274 -0.0636 0.9898
vn -0.3327 0.5082 0.7943
vn 0.1575 0.0508 0.9862
vn -0.0501 0.5936 0.8032
vn -0.2099 0.9221 0.3251
vn -0.2824 0.9199 -0.2718
vn -0.2289 0.5652 -0.7926
vn -0.0193 -0.0331 -0.9992
vn 0.4144 -0.8755 -0.2485
vn 0.4421 -0.8317 0.3358
vn 0.2443 -0.5906 -0.7690
vn 0.3436 -0.4903 0.8010
vn -0.7148 0.1669 -0.6791
vn -0.6025 0.7552 -0.2580
vn -0.8666 0.4919 -0.0830
vn -0.9546 -0.2177 -0.2034
vn 0.7628 -0.0974 0.6392
vn 0.8109 -0.5218 0.2649
vn 0.9380 -0.3466 0.0069
vn 0.9316 0.1602 0.3261
vn 0.1633 0.7618 0.6268
vn 0.5153 0.3691 0.7734
vn 0.6536 0.5979 0.4639
vn 0.2151 0.8853 0.4122
vn -0.2252 0.9429 0.2452
vn -0.3504 0.9158 0.1962
vn 0.5720 -0.7864 -0.2331
vn 0.5478 -0.7688 -0.3298
vn -0.4226 -0.4172 -0.8045
vn -0.6632 -0.7084 -0.2414
vn 0.0795 -0.7612 -0.6436
vn -0.1312 -0.9154 -0.3805
vn 0.9562 0.2302 -0.1808
vn 0.7403 0.6722 -0.0069
vn 0.2971 0.9458 0.1313
vn -0.3116 0.9251 0.2168
vn -0.2390 -0.9648 -0.1101
vn 0.4235 -0.8259 -0.3722
vn -0.8530 0.4592 0.2479
vn -0.9445 -0.2180 0.2459
vn 0.8827 -0.3115 -0.3517
vn -0.6985 -0.7002 0.1477
vn -0.5598 -0.7021 0.4400
vn -0.7066 -0.1693 0.6870
vn -0.2467 -0.1278 0.9606
vn -0.1709 -0.6884 0.7049
vn -0.2359 -0.9714 -0.0255
vn -0.0880 -0.9870 0.1344
vn 0.5779 0.6535 -0.4888
vn 0.7038 0.1614 -0.6918
vn 0.2844 0.1712 -0.9433
vn 0.2068 0.6722 -0.7108
vn -0.2666 0.9250 0.2708
vn 0.2223 0.9641 -0.1451
vn 0.0073 0.9651 -0.2618
vn -0.2203 0.9264 0.3052
vn 0.2201 -0.8495 -0.4795
vn 0.0661 -0.8610 -0.5043
vn -0.6327 0.4730 0.6131
vn -0.3125 0.5087 0.8022
vn 0.5839 -0.3938 -0.7098
vn 0.2241 -0.3979 -0.8896
vn 0.1598 0.3093 0.9374
vn -0.1304 0.8766 0.4631
vn 0.5532 0.5870 0.5910
vn 0.7930 -0.1793 0.5822
vn -0.1521 -0.2698 -0.9508
vn -0.0280 -0.8043 -0.5935
vn -0.5715 -0.6166 -0.5414
vn -0.6530 -0.0191 -0.7571
vn 0.3034 -0.8051 0.5096
vn 0.3276 -0.3878 0.8615
vn 0.6267 -0.6308 0.4576
vn 0.1611 -0.9414 0.2963
vn 0.1693 -0.9855 0.0010
vn -0.3335 -0.9389 -0.0848
vn -0.2097 0.7590 -0.6163
vn -0.1868 0.3186 -0.9293
vn -0.5971 0.5163 -0.6138
vn -0.4414 0.8419 -0.3105
vn -0.2244 0.9659 -0.1288
vn -0.1064 0.9873 0.1177
vn -0.1387 0.9893 -0.0444
vn 0.5420 0.8401 0.0200
vn 0.9754 0.2180 0.0324
vn 0.9168 -0.3987 0.0210
vn -0.9917 -0.1278 -0.0126
vn -0.9276 0.3673 -0.0673
vn 0.5489 -0.8284 0.1113
vn -0.1033 -0.9734 0.2046
vn -0.7376 -0.6649 0.1174
vn -0.6424 0.7628 -0.0738
vn -0.8632 0.4044 0.3021
vn -0.4759 0.8566 0.1993
vn 0.1914 0.9815 -0.0006
vn 0.7583 0.6204 -0.2001
vn 0.9560 0.0458 -0.2898
vn 0.8138 -0.5252 -0.2487
vn -0.9414 -0.1081 0.3194
vn 0.3374 -0.9376 -0.0838
vn -0.3010 -0.9453 0.1253
vn -0.7600 -0.5931 0.2658
vn 0.2207 0.9699 -0.1027
usemtl BaumTextur
s 1
f 4/1/1 5/2/2 65/3/3 64/4/4
f 11/5/5 2/6/6 62/7/7 71/8/8
f 6/9/9 7/10/10 67/11/11 66/12/12
f 8/13/13 9/14/14 69/15/15 68/16/16
f 10/17/17 11/5/5 71/8/8 70/18/18
f 3/19/19 4/1/1 64/4/4 63/20/20
f 2/6/6 3/19/19 63/20/20 62/7/7
f 5/2/2 6/9/9 66/12/12 65/3/3
f 7/10/10 8/13/13 68/16/16 67/11/11
f 9/21/14 10/17/17 70/18/18 69/22/15
f 11/5/5 61/23/21 12/24/22 2/6/6
f 61/23/21 60/25/23 13/26/24 12/24/22
f 60/25/23 59/27/25 14/28/24 13/26/24
f 59/27/25 58/29/25 15/30/24 14/28/24
f 58/29/25 57/31/26 16/32/27 15/30/24
f 10/17/17 56/33/28 61/23/21 11/5/5
f 56/33/28 55/34/29 60/25/23 61/23/21
f 55/34/29 54/35/29 59/27/25 60/25/23
f 54/35/29 53/36/29 58/29/25 59/27/25
f 53/36/29 52/37/30 57/31/26 58/29/25
f 9/21/14 51/38/31 56/33/28 10/17/17
f 51/38/31 50/39/32 55/34/29 56/33/28
f 50/39/32 49/40/32 54/35/29 55/34/29
f 49/40/32 48/41/32 53/36/29 54/35/29
f 48/41/32 47/42/33 52/37/30 53/36/29
f 8/13/13 46/43/34 51/44/31 9/14/14
f 46/43/34 45/45/35 50/46/32 51/44/31
f 45/45/35 44/47/35 49/48/32 50/46/32
f 44/47/35 43/49/35 48/50/32 49/48/32
f 43/49/35 42/51/36 47/52/33 48/50/32
f 7/10/10 41/53/37 46/43/34 8/13/13
f 41/53/37 40/54/38 45/45/35 46/43/34
f 40/54/38 39/55/38 44/47/35 45/45/35
f 39/55/38 38/56/38 43/49/35 44/47/35
f 38/56/38 37/57/39 42/51/36 43/49/35
f 6/9/9 36/58/40 41/53/37 7/10/10
f 36/58/40 35/59/41 40/54/38 41/53/37
f 35/59/41 34/60/41 39/55/38 40/54/38
f 34/60/41 33/61/41 38/56/38 39/55/38
f 33/61/41 32/62/42 37/57/39 38/56/38
f 5/2/2 31/63/43 36/58/40 6/9/9
f 31/63/43 30/64/44 35/59/41 36/58/40
f 30/64/44 29/65/44 34/60/41 35/59/41
f 29/65/44 28/66/44 33/61/41 34/60/41
f 28/66/44 27/67/45 32/62/42 33/61/41
f 4/1/1 26/68/46 31/63/43 5/2/2
f 26/68/46 25/69/47 30/64/44 31/63/43
f 25/69/47 24/70/47 29/65/44 30/64/44
f 24/70/47 23/71/47 28/66/44 29/65/44
f 23/71/47 22/72/48 27/67/45 28/66/44
f 3/19/19 21/73/49 26/68/46 4/1/1
f 21/73/49 20/74/50 25/69/47 26/68/46
f 20/74/50 19/75/51 24/70/47 25/69/47
f 19/75/51 18/76/50 23/71/47 24/70/47
f 18/76/50 17/77/52 22/72/48 23/71/47
f 2/6/6 12/24/22 21/73/49 3/19/19
f 12/24/22 13/26/24 20/74/50 21/73/49
f 13/26/24 14/28/24 19/75/51 20/74/50
f 14/28/24 15/30/24 18/76/50 19/75/51
f 15/30/24 16/32/27 17/77/52 18/76/50
f 62/7/7 63/20/20 73/78/53 72/79/54
f 71/8/8 62/7/7 72/79/54 81/80/55
f 67/11/11 68/16/16 78/81/56 77/82/57
f 65/3/3 66/12/12 76/83/58 75/84/59
f 70/18/18 71/8/8 81/80/55 80/85/60
f 63/20/20 64/4/4 74/86/61 73/78/53
f 68/16/16 69/15/15 79/87/62 78/81/56
f 66/12/12 67/11/11 77/82/57 76/83/58
f 64/4/4 65/3/3 75/84/59 74/86/61
f 69/22/15 70/18/18 80/85/60 79/88/62
f 79/88/62 80/85/60 90/89/63 89/90/64
f 72/79/54 73/78/53 83/91/65 82/92/66
f 81/80/55 72/79/54 82/92/66 91/93/67
f 77/82/57 78/81/56 88/94/68 87/95/69
f 75/84/59 76/83/58 86/96/70 85/97/71
f 80/85/60 81/80/55 91/93/67 90/89/63
f 73/78/53 74/86/61 84/98/72 83/91/65
f 78/81/56 79/87/62 89/99/64 88/94/68
f 76/83/58 77/82/57 87/95/69 86/96/70
f 74/86/61 75/84/59 85/97/71 84/98/72
f 206/100/73 202/101/74 95/102/75 94/103/76
f 208/104/77 203/105/78 100/106/79 99/107/80
f 201/108/81 205/109/82 93/110/83 92/111/84
f 204/112/85 201/108/81 92/111/84 101/113/86
f 210/114/87 207/115/88 98/116/89 97/117/90
f 202/101/74 209/118/91 96/119/92 95/102/75
f 203/105/78 204/112/85 101/113/86 100/106/79
f 205/109/82 206/100/73 94/103/76 93/110/83
f 207/115/88 208/120/77 99/121/80 98/116/89
f 209/118/91 210/114/87 97/117/90 96/119/92
f 194/122/93 192/123/94 107/124/95 106/125/96
f 198/126/97 193/127/98 105/128/99 104/129/100
f 200/130/101 195/131/102 110/132/103 109/133/104
f 1/134/105 197/135/106 103/136/107 102/137/108
f 196/138/109 1/134/105 102/137/108 111/139/110
f 192/123/94 199/140/111 108/141/112 107/124/95
f 193/127/98 194/122/93 106/125/96 105/128/99
f 195/131/102 196/138/109 111/139/110 110/132/103
f 197/135/106 198/126/97 104/129/100 103/136/107
f 199/140/111 200/142/101 109/143/104 108/141/112
f 106/125/96 107/124/95 117/144/113 116/145/114
f 104/129/100 105/128/99 115/146/115 114/147/116
f 109/133/104 110/132/103 120/148/117 119/149/118
f 102/137/108 103/136/107 113/150/119 112/151/120
f 111/139/110 102/137/108 112/151/120 121/152/121
f 107/124/95 108/141/112 118/153/122 117/144/113
f 105/128/99 106/125/96 116/145/114 115/146/115
f 110/132/103 111/139/110 121/152/121 120/148/117
f 103/136/107 104/129/100 114/147/116 113/150/119
f 108/141/112 109/143/104 119/154/118 118/153/122
f 113/150/119 114/147/116 124/155/123 123/156/124
f 118/153/122 119/154/118 129/157/125 128/158/126
f 116/145/114 117/144/113 127/159/127 126/160/128
f 114/147/116 115/146/115 125/161/129 124/155/123
f 119/149/118 120/148/117 130/162/130 129/163/125
f 112/151/120 113/150/119 123/156/124 122/164/131
f 121/152/121 112/151/120 122/164/131 131/165/132
f 117/144/113 118/153/122 128/158/126 127/159/127
f 115/146/115 116/145/114 126/160/128 125/161/129
f 120/148/117 121/152/121 131/165/132 130/162/130
f 130/162/130 131/165/132 141/166/133 140/167/134
f 123/156/124 124/155/123 134/168/135 133/169/136
f 128/158/126 129/157/125 139/170/137 138/171/138
f 126/160/128 127/159/127 137/172/139 136/173/140
f 124/155/123 125/161/129 135/174/141 134/168/135
f 129/163/125 130/162/130 140/167/134 139/175/137
f 122/164/131 123/156/124 133/169/136 132/176/142
f 131/165/132 122/164/131 132/176/142 141/166/133
f 127/159/127 128/158/126 138/171/138 137/172/139
f 125/161/129 126/160/128 136/173/140 135/174/141
f 135/174/141 136/173/140 146/177/143 145/178/144
f 140/167/134 141/166/133 151/179/145 150/180/146
f 133/169/136 134/168/135 144/181/147 143/182/148
f 138/171/138 139/170/137 149/183/149 148/184/150
f 136/173/140 137/172/139 147/185/151 146/177/143
f 134/168/135 135/174/141 145/178/144 144/181/147
f 139/175/137 140/167/134 150/180/146 149/186/149
f 132/176/142 133/169/136 143/182/148 142/187/152
f 141/166/133 132/176/142 142/187/152 151/179/145
f 137/172/139 138/171/138 148/184/150 147/185/151
f 147/185/151 148/184/150 158/188/153 157/189/154
f 145/178/144 146/177/143 156/190/155 155/191/156
f 150/180/146 151/179/145 161/192/157 160/193/158
f 143/182/148 144/181/147 154/194/159 153/195/160
f 148/184/150 149/183/149 159/196/161 158/188/153
f 146/177/143 147/185/151 157/189/154 156/190/155
f 144/181/147 145/178/144 155/191/156 154/194/159
f 149/186/149 150/180/146 160/193/158 159/197/161
f 142/187/152 143/182/148 153/195/160 152/198/162
f 151/179/145 142/187/152 152/198/162 161/192/157
f 152/198/162 153/195/160 163/199/163 162/200/164
f 161/192/157 152/198/162 162/200/164 171/201/165
f 157/189/154 158/188/153 168/202/166 167/203/167
f 155/191/156 156/190/155 166/204/168 165/205/169
f 160/193/158 161/192/157 171/201/165 170/206/170
f 153/195/160 154/194/159 164/207/171 163/199/163
f 158/188/153 159/196/161 169/208/172 168/202/166
f 156/190/155 157/189/154 167/203/167 166/204/168
f 154/194/159 155/191/156 165/205/169 164/207/171
f 159/197/161 160/193/158 170/206/170 169/209/172
f 164/207/171 165/205/169 175/210/173 174/211/174
f 169/209/172 170/206/170 180/212/175 179/213/176
f 162/200/164 163/199/163 173/214/177 172/215/178
f 171/201/165 162/200/164 172/215/178 181/216/179
f 167/203/167 168/202/166 178/217/180 177/218/181
f 165/205/169 166/204/168 176/219/182 175/210/173
f 170/206/170 171/201/165 181/216/179 180/212/175
f 163/199/163 164/207/171 174/211/174 173/214/177
f 168/202/166 169/208/172 179/220/176 178/217/180
f 166/204/168 167/203/167 177/218/181 176/219/182
f 176/219/182 177/218/181 187/221/183 186/222/184
f 174/211/174 175/210/173 185/223/185 184/224/186
f 172/215/178 173/214/177 183/225/187 182/226/188
f 179/213/176 180/212/175 190/227/189 189/228/190
f 181/216/179 172/215/178 182/226/188 191/229/191
f 177/218/181 178/217/180 188/230/192 187/221/183
f 175/210/173 176/219/182 186/222/184 185/223/185
f 173/214/177 174/211/174 184/224/186 183/225/187
f 180/212/175 181/216/179 191/229/191 190/227/189
f 178/217/180 179/220/176 189/231/190 188/230/192
f 233/232/193 211/233/194 214/234/195 213/235/196
f 236/236/197 232/237/198 219/238/199 218/239/200
f 238/240/201 235/241/202 217/242/203 216/243/204
f 211/233/194 237/244/205 215/245/206 214/234/195
f 232/246/198 239/247/207 220/248/208 219/249/199
f 234/250/209 233/232/193 213/235/196 212/251/210
f 240/252/211 234/250/209 212/251/210 221/253/212
f 235/241/202 236/236/197 218/239/200 217/242/203
f 237/244/205 238/240/201 216/243/204 215/245/206
f 239/247/207 240/252/211 221/253/212 220/248/208
f 98/116/89 99/121/80 200/142/101 199/140/111
f 93/110/83 94/103/76 198/126/97 197/135/106
f 100/106/79 101/113/86 196/138/109 195/131/102
f 95/102/75 96/119/92 194/122/93 193/127/98
f 97/117/90 98/116/89 199/140/111 192/123/94
f 101/113/86 92/111/84 1/134/105 196/138/109
f 92/111/84 93/110/83 197/135/106 1/134/105
f 99/107/80 100/106/79 195/131/102 200/130/101
f 94/103/76 95/102/75 193/127/98 198/126/97
f 96/119/92 97/117/90 192/123/94 194/122/93
f 86/96/70 87/95/69 210/114/87 209/118/91
f 88/94/68 89/99/64 208/120/77 207/115/88
f 83/91/65 84/98/72 206/100/73 205/109/82
f 90/89/63 91/93/67 204/112/85 203/105/78
f 85/97/71 86/96/70 209/118/91 202/101/74
f 87/95/69 88/94/68 207/115/88 210/114/87
f 91/93/67 82/92/66 201/108/81 204/112/85
f 82/92/66 83/91/65 205/109/82 201/108/81
f 89/90/64 90/89/63 203/105/78 208/104/77
f 84/98/72 85/97/71 202/101/74 206/100/73
f 217/242/203 218/239/200 228/254/213 227/255/214
f 215/245/206 216/243/204 226/256/215 225/257/216
f 220/248/208 221/253/212 231/258/217 230/259/218
f 213/235/196 214/234/195 224/260/219 223/261/220
f 218/239/200 219/238/199 229/262/221 228/254/213
f 216/243/204 217/242/203 227/255/214 226/256/215
f 214/234/195 215/245/206 225/257/216 224/260/219
f 219/249/199 220/248/208 230/259/218 229/263/221
f 212/251/210 213/235/196 223/261/220 222/264/222
f 221/253/212 212/251/210 222/264/222 231/258/217
f 271/265/223 273/266/224 242/267/225 241/268/226
f 272/269/227 271/265/223 241/268/226 250/270/228
f 276/271/229 274/272/230 247/273/231 246/274/232
f 278/275/233 275/276/234 245/277/235 244/278/236
f 280/279/237 272/269/227 250/270/228 249/280/238
f 273/266/224 277/281/239 243/282/240 242/267/225
f 274/272/230 279/283/241 248/284/242 247/273/231
f 275/276/234 276/271/229 246/274/232 245/277/235
f 277/281/239 278/275/233 244/278/236 243/282/240
f 279/285/241 280/279/237 249/280/238 248/286/242
f 190/227/189 191/229/191 240/252/211 239/247/207
f 185/223/185 186/222/184 238/240/201 237/244/205
f 187/221/183 188/230/192 236/236/197 235/241/202
f 191/229/191 182/226/188 234/250/209 240/252/211
f 182/226/188 183/225/187 233/232/193 234/250/209
f 189/228/190 190/227/189 239/247/207 232/246/198
f 184/224/186 185/223/185 237/244/205 211/233/194
f 186/222/184 187/221/183 235/241/202 238/240/201
f 188/230/192 189/231/190 232/237/198 236/236/197
f 183/225/187 184/224/186 211/233/194 233/232/193
f 286/287/243 282/288/244 254/289/245 253/290/246
f 288/291/247 283/292/248 259/293/249 258/294/250
f 281/295/251 285/296/252 252/297/253 251/298/254
f 284/299/255 281/295/251 251/298/254 260/300/256
f 290/301/257 287/302/258 257/303/259 256/304/260
f 282/288/244 289/305/261 255/306/262 254/289/245
f 283/292/248 284/299/255 260/300/256 259/293/249
f 285/296/252 286/287/243 253/290/246 252/297/253
f 287/302/258 288/307/247 258/308/250 257/303/259
f 289/305/261 290/301/257 256/304/260 255/306/262
f 255/306/262 256/304/260 266/309/263 265/310/264
f 253/290/246 254/289/245 264/311/265 263/312/266
f 258/294/250 259/293/249 269/313/267 268/314/268
f 251/298/254 252/297/253 262/315/269 261/316/270
f 260/300/256 251/298/254 261/316/270 270/317/271
f 256/304/260 257/303/259 267/318/272 266/309/263
f 254/289/245 255/306/262 265/310/264 264/311/265
f 259/293/249 260/300/256 270/317/271 269/313/267
f 252/297/253 253/290/246 263/312/266 262/315/269
f 257/303/259 258/308/250 268/319/268 267/318/272
f 267/318/272 268/319/268 298/320/273 297/321/274
f 265/310/264 266/309/263 296/322/275 295/323/276
f 263/312/266 264/311/265 294/324/277 293/325/278
f 268/314/268 269/313/267 299/326/279 298/327/273
f 261/316/270 262/315/269 292/328/280 291/329/281
f 270/317/271 261/316/270 291/329/281 300/330/282
f 266/309/263 267/318/272 297/321/274 296/322/275
f 264/311/265 265/310/264 295/323/276 294/324/277
f 269/313/267 270/317/271 300/330/282 299/326/279
f 262/315/269 263/312/266 293/325/278 292/328/280
f 229/263/221 230/259/218 280/279/237 279/285/241
f 224/260/219 225/257/216 278/275/233 277/281/239
f 226/256/215 227/255/214 276/271/229 275/276/234
f 228/254/213 229/262/221 279/283/241 274/272/230
f 223/261/220 224/260/219 277/281/239 273/266/224
f 230/259/218 231/258/217 272/269/227 280/279/237
f 225/257/216 226/256/215 275/276/234 278/275/233
f 227/255/214 228/254/213 274/272/230 276/271/229
f 231/258/217 222/264/222 271/265/223 272/269/227
f 222/264/222 223/261/220 273/266/224 271/265/223
f 245/277/235 246/274/232 290/301/257 289/305/261
f 247/273/231 248/284/242 288/307/247 287/302/258
f 242/267/225 243/282/240 286/287/243 285/296/252
f 249/280/238 250/270/228 284/299/255 283/292/248
f 244/278/236 245/277/235 289/305/261 282/288/244
f 246/274/232 247/273/231 287/302/258 290/301/257
f 250/270/228 241/268/226 281/295/251 284/299/255
f 241/268/226 242/267/225 285/296/252 281/295/251
f 248/286/242 249/280/238 283/292/248 288/291/247
f 243/282/240 244/278/236 282/288/244 286/287/243
f 52/331/30 301/332/283 57/333/26
f 16/334/27 57/333/26 301/332/283
f 17/335/52 16/334/27 301/332/283
f 22/336/48 17/335/52 301/332/283
f 52/331/30 47/337/33 301/332/283
f 47/338/33 42/339/36 301/332/283
f 42/339/36 37/340/39 301/332/283
f 37/340/39 32/341/42 301/332/283
f 32/341/42 27/342/45 301/332/283
f 27/342/45 22/336/48 301/332/283
o Holzstamm_Cylinder
v 0.092127 5.134697 -124.441429
v 0.105522 5.321413 -135.137360
v 0.092396 4.569375 -124.315018
v 0.058351 4.838758 -135.395081
v 0.377090 4.688622 -124.423164
v 0.434151 4.873766 -135.144485
v 0.630860 4.809531 -124.382835
v 0.766132 4.913815 -135.156174
v 0.690105 5.030074 -124.469398
v 0.875933 5.126119 -135.137268
v 0.675077 5.232262 -124.728294
v 0.823772 5.351807 -135.040924
v 0.592280 5.367690 -124.432541
v 0.792203 5.584086 -135.029175
v 0.379606 5.578958 -124.403671
v 0.584671 5.775300 -134.999054
v 0.092396 5.582730 -124.476509
v 0.242473 5.831284 -135.035721
v -0.164150 5.532035 -124.488136
v -0.109471 5.761278 -135.111481
v -0.343523 5.393649 -124.530083
v -0.431520 5.604773 -135.156998
v -0.454790 5.226610 -124.528061
v -0.571623 5.400497 -135.124954
v -0.504177 5.001075 -124.688042
v -0.567152 5.231627 -135.110336
v -0.431420 4.859329 -124.404922
v -0.538702 5.075105 -135.248672
v -0.247373 4.601405 -124.273895
v -0.354600 4.903224 -135.440567
v 0.104216 4.586493 -126.982063
v 0.121990 4.598130 -129.821045
v 0.103119 4.619088 -132.643524
v 0.427631 4.753749 -132.559723
v 0.460650 4.716082 -129.795059
v 0.427858 4.710808 -127.040665
v 0.730154 4.860748 -132.599701
v 0.767418 4.803667 -129.796799
v 0.718814 4.818296 -127.023651
v 0.838647 5.097075 -132.594360
v 0.869175 5.020240 -129.815460
v 0.797432 5.052440 -127.090561
v 0.788645 5.337445 -132.542007
v 0.833024 5.228362 -129.776840
v 0.768686 5.271934 -127.086357
v 0.710369 5.568784 -132.593063
v 0.745251 5.436645 -129.786072
v 0.598384 5.406439 -127.062592
v 0.465993 5.718851 -132.628845
v 0.486736 5.599688 -129.803253
v 0.431539 5.538049 -127.053345
v 0.107417 5.725532 -132.638184
v 0.119919 5.625127 -129.850510
v 0.091707 5.479542 -127.114418
v -0.243020 5.686120 -132.626541
v -0.221678 5.573138 -129.855515
v -0.218772 5.506925 -127.118561
v -0.500688 5.553591 -132.618591
v -0.467547 5.419739 -129.874969
v -0.397332 5.432330 -127.146919
v -0.590333 5.334843 -132.548767
v -0.574891 5.215161 -129.835251
v -0.552353 5.264526 -127.122223
v -0.565058 5.113503 -132.487488
v -0.581325 5.007167 -129.778091
v -0.581736 5.058627 -127.057426
v -0.499179 4.885406 -132.552673
v -0.508512 4.797082 -129.801193
v -0.501760 4.833989 -127.025795
v -0.291679 4.653115 -132.645020
v -0.291157 4.598640 -129.813339
v -0.288956 4.608976 -126.951538
v 0.121768 4.628392 -130.964874
v 0.113349 4.627700 -131.554825
v 0.441114 4.748934 -131.494217
v 0.452327 4.732186 -130.882416
v 0.740956 4.832211 -131.486298
v 0.753670 4.805227 -130.849548
v 0.804333 5.070412 -131.266479
v 0.867382 5.072796 -130.909653
v 0.793787 5.327194 -131.418076
v 0.804758 5.264052 -130.601044
v 0.696518 5.492283 -131.317520
v 0.746948 5.521079 -130.912933
v 0.471606 5.687314 -131.521088
v 0.474177 5.650928 -130.862259
v 0.116211 5.698017 -131.580902
v 0.113007 5.679664 -130.955688
v -0.232809 5.653324 -131.567764
v -0.231256 5.629394 -130.980621
v -0.488919 5.510543 -131.553802
v -0.480179 5.472345 -130.982956
v -0.585399 5.295103 -131.510803
v -0.579946 5.258021 -130.951752
v -0.569723 5.081555 -131.474304
v -0.573964 5.052378 -130.916260
v -0.500213 4.865546 -131.507782
v -0.501382 4.846014 -130.941254
v -0.287924 4.650729 -131.551392
v -0.285067 4.645322 -130.968933
v 1.077260 5.180736 -131.233185
v 1.125242 5.181442 -130.982437
v 1.071205 5.381226 -131.349289
v 1.079813 5.329834 -130.864182
v 0.996623 5.513244 -131.263229
v 1.036876 5.524632 -130.978439
v 0.408324 4.708241 -125.914757
v 0.682422 4.820029 -125.885201
v 0.752192 5.039935 -125.957642
v 0.729305 5.233685 -126.062172
v 0.642625 5.391202 -125.914322
v 0.411122 5.560045 -125.891998
v 0.093187 5.595291 -125.962875
v -0.194604 5.520933 -125.977776
v -0.356151 5.440152 -126.015358
v -0.509748 5.256554 -126.001450
v -0.547412 5.036647 -126.034645
v -0.469844 4.849827 -125.895988
v -0.268580 4.612864 -125.799484
v 0.101985 4.587091 -125.836143
vt 0.061237 0.426732
vt 0.047942 0.373708
vt 0.075079 0.378339
vt 0.185174 0.417478
vt 0.207881 0.462598
vt 0.167929 0.464348
vt 0.745045 0.086511
vt 0.995100 0.083728
vt 0.972248 0.118356
vt 0.737566 0.118514
vt 0.098729 0.380943
vt 0.237190 0.464348
vt 0.973578 0.148645
vt 0.741383 0.147954
vt 0.110325 0.397518
vt 0.250016 0.447903
vt 0.972269 0.170318
vt 0.741327 0.171992
vt 0.122448 0.422006
vt 0.250150 0.426051
vt 0.963716 0.191491
vt 0.736910 0.193153
vt 0.109488 0.446915
vt 0.251223 0.405622
vt 0.962946 0.212752
vt 0.741643 0.214145
vt 0.092843 0.466059
vt 0.237059 0.385296
vt 0.960038 0.238330
vt 0.744454 0.240770
vt 0.067827 0.469514
vt 0.208432 0.374422
vt 0.962504 0.269913
vt 0.744151 0.273851
vt 0.045483 0.469514
vt 0.176080 0.373708
vt 0.968004 0.302866
vt 0.741873 0.306023
vt 0.027388 0.462230
vt 0.144861 0.379810
vt 0.970633 0.335745
vt 0.739977 0.332345
vt 0.014328 0.451593
vt 0.128122 0.393891
vt 0.966662 0.358206
vt 0.732446 0.353530
vt 0.000083 0.433019
vt 0.124373 0.408221
vt 0.964638 0.373511
vt 0.725710 0.373542
vt 0.008869 0.407500
vt 0.122613 0.426551
vt 0.733472 0.000083
vt 0.972185 0.006137
vt 0.983725 0.021434
vt 0.738405 0.022067
vt 0.020313 0.381341
vt 0.133049 0.452173
vt 0.999917 0.045461
vt 0.745683 0.050669
vt 0.134774 0.058080
vt 0.236509 0.054924
vt 0.239755 0.089640
vt 0.138483 0.090958
vt 0.488371 0.051016
vt 0.489638 0.087729
vt 0.645887 0.048876
vt 0.645745 0.085642
vt 0.142803 0.030393
vt 0.242502 0.027470
vt 0.487065 0.024845
vt 0.642316 0.021081
vt 0.154556 0.012177
vt 0.244693 0.006344
vt 0.484832 0.005041
vt 0.639687 0.000083
vt 0.147920 0.315842
vt 0.246534 0.322624
vt 0.239549 0.340541
vt 0.149441 0.335660
vt 0.485842 0.343797
vt 0.479159 0.361936
vt 0.637546 0.350914
vt 0.632660 0.370151
vt 0.150216 0.294813
vt 0.249895 0.302599
vt 0.491057 0.323427
vt 0.642931 0.329795
vt 0.147546 0.278796
vt 0.248249 0.285355
vt 0.490967 0.297287
vt 0.645200 0.303298
vt 0.147100 0.252602
vt 0.249130 0.257730
vt 0.492026 0.266181
vt 0.647006 0.271490
vt 0.142089 0.224369
vt 0.245057 0.226831
vt 0.489153 0.232708
vt 0.641672 0.239172
vt 0.145243 0.199388
vt 0.246642 0.207966
vt 0.488393 0.204923
vt 0.621266 0.212643
vt 0.158952 0.184115
vt 0.249616 0.188877
vt 0.487719 0.186824
vt 0.629849 0.193059
vt 0.150070 0.166692
vt 0.250301 0.169349
vt 0.490595 0.169974
vt 0.617121 0.167981
vt 0.143731 0.146265
vt 0.244396 0.147518
vt 0.488519 0.148361
vt 0.638122 0.145748
vt 0.145916 0.120017
vt 0.245433 0.120126
vt 0.487852 0.119763
vt 0.639637 0.117375
vt 0.592167 0.085627
vt 0.584786 0.116433
vt 0.581673 0.143341
vt 0.586719 0.167026
vt 0.566405 0.189091
vt 0.586745 0.214782
vt 0.567053 0.189101
vt 0.590140 0.189582
vt 0.596294 0.197347
vt 0.605701 0.183365
vt 0.595588 0.183266
vt 0.583113 0.239687
vt 0.590916 0.271403
vt 0.592290 0.302323
vt 0.591124 0.328698
vt 0.586554 0.349765
vt 0.581593 0.368030
vt 0.588089 0.001746
vt 0.590142 0.021787
vt 0.592497 0.048735
vt 0.608343 0.191505
vt 0.606761 0.197669
vt 0.004183 0.092117
vt 0.014245 0.119106
vt 0.011142 0.143902
vt 0.018743 0.164024
vt 0.041305 0.182301
vt 0.014771 0.195451
vt 0.011073 0.221746
vt 0.016457 0.247312
vt 0.016505 0.270465
vt 0.019334 0.290524
vt 0.018180 0.308183
vt 0.030799 0.329494
vt 0.035771 0.019464
vt 0.011136 0.034075
vt 0.000083 0.062148
vn -0.0289 0.1247 0.9918
vn 0.2394 -0.6523 0.7191
vn 0.3385 -0.6771 0.6534
vn 0.1226 0.2519 -0.9600
vn 0.2979 -0.6827 -0.6671
vn 0.2935 -0.4903 -0.8206
vn 0.1087 -0.9933 -0.0388
vn 0.2942 -0.9554 -0.0262
vn 0.5630 -0.4124 0.7161
vn 0.4958 -0.5896 -0.6376
vn 0.6547 -0.7557 -0.0120
vn 0.7429 0.3049 0.5959
vn 0.7641 0.0287 -0.6445
vn 0.9936 -0.1127 0.0096
vn 0.9283 0.2868 0.2365
vn 0.7505 0.3104 -0.5834
vn 0.9689 0.2467 0.0178
vn 0.7292 0.0262 0.6837
vn 0.6690 0.4657 -0.5792
vn 0.8068 0.5900 0.0316
vn 0.2403 0.6899 0.6828
vn 0.3144 0.7885 -0.5286
vn 0.3321 0.9425 0.0368
vn -0.1489 0.7679 0.6229
vn 0.0626 0.8108 -0.5819
vn -0.0442 0.9985 0.0308
vn -0.3606 0.6734 0.6453
vn -0.1327 0.7482 -0.6500
vn -0.3048 0.9521 0.0245
vn -0.5765 0.5499 0.6043
vn -0.5051 0.5042 -0.7005
vn -0.7129 0.7011 0.0145
vn -0.7201 0.0873 0.6883
vn -0.7663 0.1108 -0.6329
vn -0.9836 0.1801 0.0038
vn -0.9587 -0.0598 0.2780
vn -0.8418 0.0388 -0.5383
vn -0.9840 -0.1781 -0.0063
vn -0.7915 0.0942 0.6038
vn -0.8070 0.0158 -0.5903
vn -0.8725 -0.4884 -0.0148
vn -0.3748 -0.5458 0.7494
vn -0.4024 -0.3323 -0.8530
vn -0.4358 -0.8993 -0.0354
vn -0.4620 -0.8868 0.0080
vn -0.4202 -0.9074 0.0094
vn 0.1579 -0.9874 0.0013
vn 0.1534 -0.9881 -0.0028
vn -0.3822 -0.9239 -0.0165
vn 0.1552 -0.9878 -0.0142
vn -0.4161 -0.9093 -0.0054
vn 0.1470 -0.9891 -0.0048
vn -0.8564 -0.5158 0.0224
vn -0.8501 -0.5264 0.0162
vn -0.8391 -0.5438 -0.0106
vn -0.8569 -0.5152 -0.0126
vn -0.9944 -0.1003 0.0334
vn -0.9943 -0.1045 0.0204
vn -0.9894 -0.1451 -0.0025
vn -0.9821 -0.1878 -0.0085
vn -0.9094 0.4143 0.0356
vn -0.9229 0.3846 0.0182
vn -0.9590 0.2833 0.0082
vn -0.9844 0.1751 0.0155
vn -0.6327 0.7741 0.0204
vn -0.6331 0.7739 0.0138
vn -0.7092 0.7046 0.0254
vn -0.7375 0.6742 0.0389
vn -0.3242 0.9460 -0.0082
vn -0.2566 0.9665 0.0005
vn -0.3060 0.9513 0.0382
vn -0.3135 0.9488 0.0382
vn -0.0694 0.9971 -0.0300
vn -0.0485 0.9988 -0.0073
vn -0.0411 0.9982 0.0438
vn -0.0471 0.9983 0.0330
vn 0.3459 0.9382 -0.0109
vn 0.2915 0.9565 -0.0020
vn 0.2771 0.9598 0.0446
vn 0.3151 0.9486 0.0295
vn 0.7533 0.6574 0.0181
vn 0.6841 0.7291 0.0177
vn 0.7412 0.6705 0.0311
vn 0.4863 0.8543 -0.1835
vn 0.9252 0.3780 0.0325
vn 0.9158 0.4006 0.0285
vn 0.9451 0.3264 0.0146
vn 0.8394 0.2429 -0.4861
vn 0.9961 -0.0798 0.0384
vn 0.9944 -0.1009 0.0307
vn 0.9945 -0.1042 0.0052
vn 0.8509 -0.4695 -0.2355
vn 0.7444 -0.6674 0.0217
vn 0.7107 -0.7031 0.0202
vn 0.6688 -0.7435 0.0011
vn 0.6865 -0.7265 -0.0280
vn 0.3748 -0.9271 0.0021
vn 0.3437 -0.9390 0.0043
vn 0.3072 -0.9516 -0.0060
vn 0.3111 -0.9502 -0.0196
vn 0.1473 -0.9889 -0.0193
vn 0.2882 -0.9573 -0.0227
vn 0.6614 -0.7491 -0.0379
vn 0.8276 -0.5459 0.1306
vn 0.9442 0.2575 0.2054
vn 0.4309 0.8865 0.1684
vn 0.8271 0.1440 0.5432
vn 0.5520 0.8069 0.2101
vn 0.7535 -0.5198 -0.4025
vn 0.8568 -0.4921 0.1539
vn 0.2944 0.9551 0.0331
vn -0.0452 0.9980 0.0439
vn -0.3386 0.9398 0.0462
vn -0.7421 0.6689 0.0428
vn -0.9782 0.2070 0.0156
vn -0.9846 -0.1747 -0.0103
vn -0.8419 -0.5392 -0.0226
vn -0.3873 -0.9217 -0.0227
vn 0.7059 0.1608 -0.6897
vn 0.4521 0.8079 -0.3781
usemtl BaumTextur
s 1
f 302/343/284 304/344/285 306/345/286
f 303/346/287 307/347/288 305/348/289
f 334/349/290 305/350/289 307/351/288 335/352/291
f 302/343/284 306/345/286 308/353/292
f 303/346/287 309/354/293 307/347/288
f 335/352/291 307/351/288 309/355/293 338/356/294
f 302/343/284 308/353/292 310/357/295
f 303/346/287 311/358/296 309/354/293
f 338/356/294 309/355/293 311/359/296 341/360/297
f 302/343/284 310/357/295 312/361/298
f 303/346/287 313/362/299 311/358/296
f 341/360/297 311/359/296 313/363/299 344/364/300
f 302/343/284 312/361/298 314/365/301
f 303/346/287 315/366/302 313/362/299
f 344/364/300 313/363/299 315/367/302 347/368/303
f 302/343/284 314/365/301 316/369/304
f 303/346/287 317/370/305 315/366/302
f 347/368/303 315/367/302 317/371/305 350/372/306
f 302/343/284 316/369/304 318/373/307
f 303/346/287 319/374/308 317/370/305
f 350/372/306 317/371/305 319/375/308 353/376/309
f 302/343/284 318/373/307 320/377/310
f 303/346/287 321/378/311 319/374/308
f 353/376/309 319/375/308 321/379/311 356/380/312
f 302/343/284 320/377/310 322/381/313
f 303/346/287 323/382/314 321/378/311
f 356/380/312 321/379/311 323/383/314 359/384/315
f 302/343/284 322/381/313 324/385/316
f 303/346/287 325/386/317 323/382/314
f 359/384/315 323/383/314 325/387/317 362/388/318
f 302/343/284 324/385/316 326/389/319
f 303/346/287 327/390/320 325/386/317
f 362/388/318 325/387/317 327/391/320 365/392/321
f 302/343/284 326/389/319 328/393/322
f 303/346/287 329/394/323 327/390/320
f 365/395/321 327/396/320 329/397/323 368/398/324
f 302/343/284 328/393/322 330/399/325
f 303/346/287 331/400/326 329/394/323
f 368/398/324 329/397/323 331/401/326 371/402/327
f 302/343/284 330/399/325 304/344/285
f 303/346/287 305/348/289 331/400/326
f 371/402/327 331/401/326 305/350/289 334/349/290
f 420/403/328 373/404/329 332/405/330 421/406/331
f 373/404/329 372/407/332 333/408/333 332/405/330
f 400/409/334 371/402/327 334/349/290 375/410/335
f 419/411/336 370/412/337 373/404/329 420/403/328
f 370/412/337 369/413/338 372/407/332 373/404/329
f 398/414/339 368/398/324 371/402/327 400/409/334
f 418/415/340 367/416/341 370/412/337 419/411/336
f 367/416/341 366/417/342 369/413/338 370/412/337
f 396/418/343 365/395/321 368/398/324 398/414/339
f 417/419/344 364/420/345 367/421/341 418/422/340
f 364/420/345 363/423/346 366/424/342 367/421/341
f 394/425/347 362/388/318 365/392/321 396/426/343
f 416/427/348 361/428/349 364/420/345 417/419/344
f 361/428/349 360/429/350 363/423/346 364/420/345
f 392/430/351 359/384/315 362/388/318 394/425/347
f 415/431/352 358/432/353 361/428/349 416/427/348
f 358/432/353 357/433/354 360/429/350 361/428/349
f 390/434/355 356/380/312 359/384/315 392/430/351
f 414/435/356 355/436/357 358/432/353 415/431/352
f 355/436/357 354/437/358 357/433/354 358/432/353
f 388/438/359 353/376/309 356/380/312 390/434/355
f 413/439/360 352/440/361 355/436/357 414/435/356
f 352/440/361 351/441/362 354/437/358 355/436/357
f 386/442/363 350/372/306 353/376/309 388/438/359
f 412/443/364 349/444/365 352/440/361 413/439/360
f 349/444/365 348/445/366 351/441/362 352/440/361
f 384/446/367 347/368/303 350/372/306 386/442/363
f 411/447/368 346/448/369 349/444/365 412/443/364
f 346/448/369 345/449/370 348/445/366 349/444/365
f 382/450/371 344/364/300 347/368/303 384/446/367
f 410/451/372 343/452/373 346/448/369 411/447/368
f 343/452/373 342/453/374 345/449/370 346/448/369
f 380/454/375 341/360/297 344/364/300 382/450/371
f 409/455/376 340/456/377 343/452/373 410/451/372
f 340/456/377 339/457/378 342/453/374 343/452/373
f 378/458/379 338/356/294 341/360/297 380/454/375
f 408/459/380 337/460/381 340/456/377 409/455/376
f 337/460/381 336/461/382 339/457/378 340/456/377
f 376/462/383 335/352/291 338/356/294 378/458/379
f 421/406/331 332/405/330 337/460/381 408/459/380
f 332/405/330 333/408/333 336/461/382 337/460/381
f 375/410/335 334/349/290 335/352/291 376/462/383
f 333/408/333 374/463/384 377/464/385 336/461/382
f 374/463/384 375/410/335 376/462/383 377/464/385
f 336/461/382 377/464/385 379/465/386 339/457/378
f 377/464/385 376/462/383 378/458/379 379/465/386
f 339/457/378 379/465/386 381/466/387 342/453/374
f 379/465/386 378/458/379 380/454/375 381/466/387
f 342/453/374 381/466/387 383/467/388 345/449/370
f 385/468/389 383/469/388 405/470/390 407/471/391
f 345/449/370 383/467/388 385/468/389 348/445/366
f 381/466/387 380/454/375 402/472/392 403/473/393
f 348/445/366 385/468/389 387/474/394 351/441/362
f 385/468/389 384/446/367 386/442/363 387/474/394
f 351/441/362 387/474/394 389/475/395 354/437/358
f 387/474/394 386/442/363 388/438/359 389/475/395
f 354/437/358 389/475/395 391/476/396 357/433/354
f 389/475/395 388/438/359 390/434/355 391/476/396
f 357/433/354 391/476/396 393/477/397 360/429/350
f 391/476/396 390/434/355 392/430/351 393/477/397
f 360/429/350 393/477/397 395/478/398 363/423/346
f 393/477/397 392/430/351 394/425/347 395/478/398
f 363/423/346 395/478/398 397/479/399 366/424/342
f 395/478/398 394/425/347 396/426/343 397/479/399
f 366/417/342 397/480/399 399/481/400 369/413/338
f 397/480/399 396/418/343 398/414/339 399/481/400
f 369/413/338 399/481/400 401/482/401 372/407/332
f 399/481/400 398/414/339 400/409/334 401/482/401
f 372/407/332 401/482/401 374/463/384 333/408/333
f 401/482/401 400/409/334 375/410/335 374/463/384
f 403/473/393 402/472/392 404/483/402 405/470/390
f 405/470/390 404/483/402 406/484/403 407/471/391
f 383/469/388 381/466/387 403/473/393 405/470/390
f 382/450/371 384/446/367 406/484/403 404/483/402
f 380/454/375 382/450/371 404/483/402 402/472/392
f 384/446/367 385/468/389 407/471/391 406/484/403
f 304/485/285 421/406/331 408/459/380 306/486/286
f 306/486/286 408/459/380 409/455/376 308/487/292
f 308/487/292 409/455/376 410/451/372 310/488/295
f 310/488/295 410/451/372 411/447/368 312/489/298
f 312/489/298 411/447/368 412/443/364 314/490/301
f 314/490/301 412/443/364 413/439/360 316/491/304
f 316/491/304 413/439/360 414/435/356 318/492/307
f 318/492/307 414/435/356 415/431/352 320/493/310
f 320/493/310 415/431/352 416/427/348 322/494/313
f 322/494/313 416/427/348 417/419/344 324/495/316
f 324/495/316 417/419/344 418/422/340 326/496/319
f 326/497/319 418/415/340 419/411/336 328/498/322
f 328/498/322 419/411/336 420/403/328 330/499/325
f 330/499/325 420/403/328 421/406/331 304/485/285
