# Blender v2.79 (sub 0) OBJ File: 'Burg Test.blend'
# www.blender.org
mtllib Baumstumpf.mtl
o Circle_Circle.001
v -12.563581 22.450218 9.720280
v -12.856297 22.450218 9.775794
v -13.169407 22.450218 9.721093
v -13.359675 22.450218 9.873407
v -13.322365 22.450218 10.108730
v -13.466509 22.450218 10.375787
v -13.539392 22.450218 10.627432
v -13.585217 22.450218 10.894906
v -13.562578 22.450218 11.123360
v -13.358621 22.450218 11.323725
v -13.122022 22.450218 11.647070
v -12.938900 22.450218 11.856136
v -12.753332 22.450218 11.810334
v -12.429998 22.450218 11.648766
v -12.176863 22.450218 11.610201
v -11.910881 22.450218 11.678892
v -11.617462 22.450218 11.578291
v -11.570033 22.450218 11.350763
v -11.727750 22.450218 11.019761
v -11.698346 22.450218 10.700659
v -11.700732 22.450218 10.332634
v -11.693766 22.450218 9.933197
v -11.737372 22.450218 9.612134
v -11.934502 22.450218 9.562191
v -12.318563 22.450218 9.743505
v -12.543201 22.738516 9.759153
v -12.804278 22.744638 9.828443
v -13.025011 22.715601 9.877187
v -13.162328 22.665216 9.967216
v -13.250702 22.763260 10.216307
v -13.374386 22.751863 10.424339
v -13.442560 22.733412 10.654402
v -13.542050 22.716389 10.928706
v -13.530825 22.726629 11.134749
v -13.282454 22.745068 11.311996
v -13.045710 22.707310 11.555219
v -12.876950 22.717669 11.713724
v -12.724361 22.728647 11.705419
v -12.437725 22.765751 11.532262
v -12.181508 22.731878 11.559896
v -11.904191 22.684628 11.641637
v -11.743993 22.669819 11.558201
v -11.706471 22.687199 11.255325
v -11.772278 22.789942 10.929674
v -11.721180 22.771894 10.665393
v -11.736140 22.800848 10.299569
v -11.729062 22.731617 10.009718
v -11.855723 22.695490 9.777829
v -12.105398 22.701040 9.738492
v -12.324283 22.746336 9.779930
v -12.537636 23.463398 9.896834
v -12.728995 23.464046 9.929888
v -12.909901 23.467815 10.011514
v -13.059464 23.472366 10.139584
v -13.168292 23.484158 10.311769
v -13.266999 23.482412 10.482675
v -13.338765 23.471369 10.650423
v -13.337719 23.466925 10.827041
v -13.270745 23.470449 10.998783
v -13.150142 23.475965 11.146359
v -12.995386 23.481203 11.261703
v -12.814538 23.484180 11.346478
v -12.593362 23.494072 11.357318
v -12.396697 23.489243 11.375242
v -12.231191 23.489725 11.350691
v -12.082970 23.464853 11.334423
v -11.966480 23.471224 11.215502
v -11.912742 23.491821 11.022217
v -11.871710 23.511574 10.846507
v -11.802749 23.489977 10.669828
v -11.822008 23.480507 10.459121
v -11.885847 23.467848 10.257059
v -12.007029 23.464048 10.095429
v -12.167230 23.463728 9.978915
v -12.347317 23.463537 9.912630
v -13.183466 23.105240 11.208129
v -13.035088 23.114929 11.365291
v -12.327618 23.093632 9.841662
v -12.531020 23.093477 9.832257
v -12.911918 23.131191 9.998425
v -13.090219 23.124683 10.125449
v -11.823865 23.062584 11.121138
v -11.825459 23.140764 10.890136
v -12.860454 23.118340 11.516924
v -13.236132 23.115839 10.287537
v -11.802778 23.142300 10.662849
v -12.682288 23.115776 11.554491
v -13.355460 23.104755 10.452846
v -11.763545 23.105190 10.341203
v -12.421701 23.126427 11.447629
v -13.391352 23.095661 10.640368
v -11.836135 23.098200 10.194071
v -12.205274 23.099447 11.461719
v -13.375811 23.094166 10.855820
v -11.964166 23.089922 10.014543
v -12.056948 23.070419 11.467178
v -13.312298 23.097155 11.049291
v -12.144359 23.089939 9.910016
v -12.724580 23.113459 9.894942
v -11.904152 22.989098 11.358189
v -11.711323 22.635935 10.680626
v -11.733504 22.674614 10.310371
v -12.731799 22.604729 11.780837
v -12.432820 22.630527 11.579605
v -13.416820 22.626427 10.400896
v -13.484940 22.608788 10.642818
v -11.681544 22.613132 9.939908
v -12.178311 22.610205 11.581860
v -13.560678 22.599552 10.914121
v -11.777679 22.618395 9.664146
v -11.885592 22.573816 11.666321
v -13.544527 22.607296 11.129835
v -12.012518 22.590040 9.621966
v -12.554196 22.618103 9.742388
v -12.855418 22.635681 9.820010
v -11.654662 22.568077 11.560870
v -13.315616 22.617277 11.320033
v -12.320520 22.616617 9.762206
v -13.110013 22.590809 9.772978
v -11.639934 22.573185 11.302303
v -13.091103 22.604689 11.595998
v -13.279320 22.564892 9.881679
v -11.753977 22.644585 10.967831
v -12.911398 22.602552 11.817285
v -13.276154 22.638489 10.153442
v -13.032126 22.917227 11.471928
v -12.537251 22.908911 9.794200
v -13.114033 22.920465 10.073981
v -11.797807 22.958349 10.910694
v -12.827805 22.912371 11.575047
v -13.251063 22.932613 10.261716
v -11.760376 22.949732 10.664222
v -12.688019 22.897987 11.600044
v -13.365691 22.921185 10.438518
v -11.739039 22.934353 10.307581
v -12.431867 22.934313 11.494349
v -13.417978 22.907305 10.647665
v -11.803292 22.905172 10.125846
v -12.198463 22.905647 11.512957
v -13.462249 22.897736 10.893719
v -11.975874 22.833452 9.931656
v -12.021484 22.862299 11.547838
v -13.425924 22.904495 11.093726
v -12.172310 22.870750 9.857326
v -12.745996 22.916790 9.845524
v -11.869681 22.816187 11.458320
v -13.234880 22.919573 11.270411
v -12.334527 22.910086 9.814202
v -12.951384 22.927801 9.945837
v -11.765064 22.867743 11.189125
vt 0.582190 0.353853
vt 0.584126 0.330261
vt 0.516286 0.338879
vt 0.514709 0.363836
vt 0.243159 0.308070
vt 0.255958 0.285677
vt 0.196997 0.270070
vt 0.182017 0.290540
vt 0.974396 0.077126
vt 0.954379 0.065693
vt 0.929967 0.100724
vt 0.949995 0.114173
vt 0.648955 0.369297
vt 0.638669 0.345612
vt 0.279690 0.335868
vt 0.291704 0.316752
vt 0.043714 0.113240
vt 0.062836 0.107026
vt 0.048897 0.059125
vt 0.027379 0.067531
vt 0.695866 0.372347
vt 0.686954 0.347776
vt 0.318438 0.371973
vt 0.326384 0.354472
vt 0.061299 0.145011
vt 0.078616 0.136233
vt 0.728711 0.352800
vt 0.724565 0.319707
vt 0.845108 0.239464
vt 0.825611 0.227875
vt 0.785816 0.259764
vt 0.800781 0.276651
vt 0.354376 0.392300
vt 0.351803 0.370115
vt 0.093522 0.184226
vt 0.114066 0.172290
vt 0.766054 0.303456
vt 0.750745 0.283526
vt 0.891164 0.227950
vt 0.864914 0.207022
vt 0.398934 0.388952
vt 0.406051 0.363870
vt 0.128798 0.237405
vt 0.146334 0.225078
vt 0.919376 0.208072
vt 0.893514 0.189270
vt 0.461553 0.364988
vt 0.466359 0.337371
vt 0.154762 0.278100
vt 0.172354 0.257822
vt 0.920207 0.156952
vt 0.903311 0.136539
vt 0.193845 0.157301
vt 0.242085 0.108347
vt 0.219491 0.082577
vt 0.167885 0.127273
vt 0.744792 0.205333
vt 0.706877 0.149111
vt 0.679224 0.167339
vt 0.712905 0.226329
vt 0.829251 0.120163
vt 0.781636 0.079199
vt 0.758024 0.104090
vt 0.799911 0.148864
vt 0.470104 0.270865
vt 0.475454 0.202961
vt 0.443680 0.206396
vt 0.427131 0.287201
vt 0.221291 0.188666
vt 0.267180 0.133180
vt 0.856017 0.090350
vt 0.802981 0.051146
vt 0.512355 0.269179
vt 0.508833 0.206926
vt 0.246355 0.208894
vt 0.300806 0.154096
vt 0.879457 0.062984
vt 0.824242 0.024574
vt 0.572623 0.273591
vt 0.545873 0.206893
vt 0.293174 0.228845
vt 0.330347 0.172791
vt 0.898809 0.036216
vt 0.844306 0.000092
vt 0.603202 0.269647
vt 0.582989 0.203463
vt 0.325215 0.253949
vt 0.356807 0.186530
vt 0.123758 0.065636
vt 0.181302 0.028341
vt 0.167006 0.000092
vt 0.106252 0.030653
vt 0.644279 0.260329
vt 0.617324 0.195142
vt 0.346921 0.272806
vt 0.378821 0.202366
vt 0.143812 0.097727
vt 0.198964 0.055921
vt 0.680742 0.244433
vt 0.649558 0.182554
vt 0.772268 0.178457
vt 0.733114 0.128024
vt 0.377866 0.297345
vt 0.408096 0.208096
vt 0.416292 0.326778
vt 0.360185 0.332272
vt 0.829210 0.177393
vt 0.797295 0.207707
vt 0.733354 0.255499
vt 0.708589 0.279429
vt 0.140371 0.151894
vt 0.108223 0.118691
vt 0.330586 0.313359
vt 0.765950 0.233821
vt 0.673691 0.304604
vt 0.091199 0.087557
vt 0.307047 0.286924
vt 0.619213 0.307329
vt 0.076725 0.046157
vt 0.272893 0.259329
vt 0.581102 0.305313
vt 0.927446 0.051978
vt 0.905264 0.082540
vt 0.222937 0.242582
vt 0.514339 0.305451
vt 0.881535 0.112603
vt 0.202711 0.224082
vt 0.467925 0.305393
vt 0.857163 0.148932
vt 0.172807 0.192950
vt 0.977517 0.131109
vt 0.950875 0.176515
vt 0.165649 0.313202
vt 0.135866 0.296894
vt 0.512901 0.397388
vt 0.456108 0.401610
vt 0.941881 0.216700
vt 0.106496 0.257493
vt 0.391152 0.415025
vt 0.912298 0.245960
vt 0.820472 0.300304
vt 0.786017 0.326909
vt 0.066287 0.198096
vt 0.350532 0.412847
vt 0.862702 0.269308
vt 0.735372 0.382145
vt 0.037148 0.157113
vt 0.303813 0.388084
vt 0.704721 0.400100
vt 0.018739 0.121486
vt 0.264307 0.360549
vt 0.649264 0.398313
vt 0.000092 0.078139
vt 0.225014 0.337570
vt 0.578141 0.395173
vt 0.999908 0.091459
vt 0.149493 0.371989
vt 0.115362 0.383723
vt 0.086120 0.404392
vt 0.063500 0.433796
vt 0.042724 0.463055
vt 0.026827 0.492241
vt 0.023995 0.524238
vt 0.033219 0.556466
vt 0.052569 0.585231
vt 0.078643 0.608738
vt 0.109946 0.627154
vt 0.149840 0.632879
vt 0.185135 0.639532
vt 0.215514 0.637941
vt 0.243000 0.638053
vt 0.265983 0.618324
vt 0.278815 0.583975
vt 0.289172 0.552640
vt 0.304791 0.521646
vt 0.304791 0.483138
vt 0.296672 0.445405
vt 0.277432 0.414110
vt 0.250370 0.390344
vt 0.218881 0.375316
vt 0.184694 0.369242
vn 0.9980 0.0429 -0.0464
vn 0.4707 0.3740 0.7991
vn -0.9096 0.3416 -0.2365
vn 0.9807 0.1889 0.0503
vn -0.0290 0.2595 0.9653
vn -0.9220 0.2637 -0.2834
vn 0.6317 0.7060 -0.3202
vn -0.2532 0.1674 0.9528
vn -0.9897 0.1306 0.0587
vn 0.0639 0.7955 -0.6025
vn -0.2423 0.1706 -0.9551
vn 0.4251 0.3246 0.8449
vn -0.6099 0.1255 0.7825
vn -0.2515 0.3924 -0.8847
vn -0.0760 0.4684 -0.8802
vn 0.7959 0.5975 0.0980
vn -0.6777 0.3662 0.6376
vn 0.0867 0.1336 -0.9872
vn -0.4674 0.7761 -0.4232
vn 0.9495 0.2471 -0.1935
vn -0.6055 0.5819 0.5429
vn -0.6866 0.6497 -0.3264
vn 0.9787 0.1284 0.1602
vn 0.0851 0.5876 0.8047
vn -0.8100 0.3752 -0.4507
vn -0.6573 0.2264 0.7188
vn 0.0627 0.1820 -0.9813
vn -0.6132 0.0607 -0.7876
vn 0.9720 0.1891 0.1398
vn -0.5227 0.3518 0.7765
vn -0.7869 0.1406 -0.6009
vn 0.9734 0.0737 0.2172
vn -0.1153 0.4567 0.8821
vn -0.8238 0.2107 -0.5262
vn 0.9967 0.0752 0.0308
vn 0.1776 0.3122 0.9333
vn -0.9424 0.1910 -0.2747
vn 0.9043 0.2201 -0.3657
vn 0.0430 0.2365 0.9707
vn -0.9917 0.1212 0.0438
vn 0.7859 0.2103 -0.5815
vn 0.0893 0.3009 0.9495
vn -0.9339 0.1349 0.3312
vn 0.5322 0.2110 -0.8199
vn -0.2328 0.1296 -0.9639
vn 0.6643 0.2842 0.6914
vn -0.7679 0.1705 0.6175
vn 0.3426 0.1925 -0.9195
vn -0.4455 0.0609 -0.8932
vn 0.9107 0.2402 0.3361
vn 0.8283 0.3927 0.3995
vn -0.4252 0.2838 -0.8594
vn 0.3210 0.1581 -0.9338
vn -0.6596 0.4562 0.5973
vn 0.6123 0.4278 0.6649
vn -0.2501 0.2337 -0.9396
vn 0.4363 0.2128 -0.8743
vn -0.8523 0.4815 0.2043
vn -0.0496 0.3067 0.9505
vn 0.7279 0.2490 -0.6388
vn -0.9598 0.2758 -0.0531
vn -0.0399 0.2462 0.9684
vn 0.8839 0.2499 -0.3953
vn -0.9725 0.1003 -0.2104
vn 0.3584 0.1918 0.9137
vn 0.9819 0.1742 0.0742
vn -0.8233 0.1173 -0.5553
vn -0.1767 0.2233 0.9586
vn 0.9745 0.1891 0.1208
vn -0.7610 0.1993 -0.6174
vn -0.5351 0.2783 0.7976
vn 0.9742 0.2254 0.0090
vn -0.5818 0.2848 -0.7619
vn 0.0706 0.1723 -0.9825
vn -0.6679 0.3692 0.6463
vn -0.8357 0.3071 -0.4554
vn 0.2151 0.1794 0.9600
vn 0.9856 0.1235 0.1154
vn -0.9237 0.3827 0.0182
vn -0.7242 0.3173 0.6122
vn 0.9191 0.1653 -0.3576
vn -0.5425 0.4623 -0.7014
vn 0.0893 0.1187 -0.9889
vn -0.7592 0.2750 0.5899
vn 0.8947 0.4304 0.1189
vn 0.1512 0.2537 -0.9554
vn -0.4143 0.1229 -0.9018
vn -0.6666 0.1193 0.7358
vn 0.3638 0.1325 0.9220
vn -0.2097 0.1863 -0.9599
vn 0.1671 0.3925 -0.9045
vn -0.9879 0.1303 0.0840
vn -0.2514 0.1589 0.9548
vn 0.9666 0.1220 -0.2253
vn -0.9416 0.2649 -0.2079
vn 0.0796 0.2755 0.9580
vn 0.9959 0.0557 0.0718
vn -0.9155 0.3151 -0.2503
vn 0.4842 0.2223 0.8463
vn 0.9938 0.1080 -0.0274
vn -0.6578 0.3253 0.6793
vn 0.0900 0.2034 -0.9750
vn -0.5862 0.4142 -0.6963
vn 0.9730 0.2124 -0.0907
vn -0.5105 0.4731 0.7180
vn -0.8260 0.2705 -0.4945
vn 0.9689 0.1903 0.1580
vn -0.0406 0.5629 0.8255
vn -0.8478 0.1121 -0.5184
vn 0.9910 0.1337 0.0113
vn 0.3996 0.3151 0.8608
vn -0.9615 0.0988 -0.2564
vn 0.9352 0.3066 -0.1774
vn -0.0611 0.2383 0.9693
vn -0.9373 0.2465 -0.2464
vn 0.4609 0.7277 -0.5079
vn -0.1790 0.3061 0.9350
vn -0.8790 0.4696 0.0833
vn 0.2353 0.7208 -0.6519
vn -0.2388 0.1897 -0.9523
vn 0.4518 0.6823 0.5747
vn -0.5892 0.4172 0.6920
vn 0.1004 0.4342 -0.8952
vn -0.3255 0.3109 -0.8930
vn 0.7776 0.5715 0.2621
vn -0.0049 0.9999 -0.0130
usemtl BaumstumpfTextur
s off
f 102/1/1 46/2/1 45/3/1 101/4/1
f 104/5/2 39/6/2 38/7/2 103/8/2
f 106/9/3 32/10/3 31/11/3 105/12/3
f 107/13/4 47/14/4 46/2/4 102/1/4
f 108/15/5 40/16/5 39/6/5 104/5/5
f 109/17/6 33/18/6 32/19/6 106/20/6
f 110/21/7 48/22/7 47/14/7 107/13/7
f 111/23/8 41/24/8 40/16/8 108/15/8
f 112/25/9 34/26/9 33/18/9 109/17/9
f 113/27/10 49/28/10 48/22/10 110/21/10
f 115/29/11 27/30/11 26/31/11 114/32/11
f 116/33/12 42/34/12 41/24/12 111/23/12
f 117/35/13 35/36/13 34/26/13 112/25/13
f 118/37/14 50/38/14 49/28/14 113/27/14
f 119/39/15 28/40/15 27/30/15 115/29/15
f 120/41/16 43/42/16 42/34/16 116/33/16
f 121/43/17 36/44/17 35/36/17 117/35/17
f 114/32/18 26/31/18 50/38/18 118/37/18
f 122/45/19 29/46/19 28/40/19 119/39/19
f 123/47/20 44/48/20 43/42/20 120/41/20
f 124/49/21 37/50/21 36/44/21 121/43/21
f 125/51/22 30/52/22 29/46/22 122/45/22
f 101/4/23 45/3/23 44/48/23 123/47/23
f 103/8/24 38/7/24 37/50/24 124/49/24
f 105/12/25 31/11/25 30/52/25 125/51/25
f 77/53/26 61/54/26 60/55/26 76/56/26
f 79/57/27 51/58/27 75/59/27 78/60/27
f 81/61/28 54/62/28 53/63/28 80/64/28
f 83/65/29 69/66/29 68/67/29 82/68/29
f 84/69/30 62/70/30 61/54/30 77/53/30
f 85/71/31 55/72/31 54/62/31 81/61/31
f 86/73/32 70/74/32 69/66/32 83/65/32
f 87/75/33 63/76/33 62/70/33 84/69/33
f 88/77/34 56/78/34 55/72/34 85/71/34
f 89/79/35 71/80/35 70/74/35 86/73/35
f 90/81/36 64/82/36 63/76/36 87/75/36
f 91/83/37 57/84/37 56/78/37 88/77/37
f 92/85/38 72/86/38 71/80/38 89/79/38
f 93/87/39 65/88/39 64/82/39 90/81/39
f 94/89/40 58/90/40 57/91/40 91/92/40
f 95/93/41 73/94/41 72/86/41 92/85/41
f 96/95/42 66/96/42 65/88/42 93/87/42
f 97/97/43 59/98/43 58/90/43 94/89/43
f 98/99/44 74/100/44 73/94/44 95/93/44
f 99/101/45 52/102/45 51/58/45 79/57/45
f 100/103/46 67/104/46 66/96/46 96/95/46
f 76/56/47 60/55/47 59/98/47 97/97/47
f 78/60/48 75/59/48 74/100/48 98/99/48
f 80/64/49 53/63/49 52/102/49 99/101/49
f 82/68/50 68/67/50 67/104/50 100/103/50
f 150/105/51 82/68/51 100/103/51 146/106/51
f 149/107/52 80/64/52 99/101/52 145/108/52
f 148/109/53 78/60/53 98/99/53 144/110/53
f 147/111/54 76/56/54 97/97/54 143/112/54
f 146/106/55 100/103/55 96/95/55 142/113/55
f 145/108/56 99/101/56 79/57/56 127/114/56
f 144/110/57 98/99/57 95/93/57 141/115/57
f 143/112/58 97/97/58 94/89/58 140/116/58
f 142/113/59 96/95/59 93/87/59 139/117/59
f 141/115/60 95/93/60 92/85/60 138/118/60
f 140/116/61 94/89/61 91/92/61 137/119/61
f 139/117/62 93/87/62 90/81/62 136/120/62
f 138/118/63 92/85/63 89/79/63 135/121/63
f 137/122/64 91/83/64 88/77/64 134/123/64
f 136/120/65 90/81/65 87/75/65 133/124/65
f 135/121/66 89/79/66 86/73/66 132/125/66
f 134/123/67 88/77/67 85/71/67 131/126/67
f 133/124/68 87/75/68 84/69/68 130/127/68
f 132/125/69 86/73/69 83/65/69 129/128/69
f 131/126/70 85/71/70 81/61/70 128/129/70
f 130/127/71 84/69/71 77/53/71 126/130/71
f 129/128/72 83/65/72 82/68/72 150/105/72
f 128/129/73 81/61/73 80/64/73 149/107/73
f 127/114/74 79/57/74 78/60/74 148/109/74
f 126/130/75 77/53/75 76/56/75 147/111/75
f 6/131/76 105/12/76 125/51/76 5/132/76
f 13/133/77 103/8/77 124/49/77 12/134/77
f 20/135/78 101/4/78 123/47/78 19/136/78
f 5/132/79 125/51/79 122/45/79 4/137/79
f 12/134/80 124/49/80 121/43/80 11/138/80
f 19/136/81 123/47/81 120/41/81 18/139/81
f 4/137/82 122/45/82 119/39/82 3/140/82
f 1/141/83 114/32/83 118/37/83 25/142/83
f 11/138/84 121/43/84 117/35/84 10/143/84
f 18/139/85 120/41/85 116/33/85 17/144/85
f 3/140/86 119/39/86 115/29/86 2/145/86
f 25/142/87 118/37/87 113/27/87 24/146/87
f 10/143/88 117/35/88 112/25/88 9/147/88
f 17/144/89 116/33/89 111/23/89 16/148/89
f 2/145/90 115/29/90 114/32/90 1/141/90
f 24/146/91 113/27/91 110/21/91 23/149/91
f 9/147/92 112/25/92 109/17/92 8/150/92
f 16/148/93 111/23/93 108/15/93 15/151/93
f 23/149/94 110/21/94 107/13/94 22/152/94
f 8/150/95 109/17/95 106/20/95 7/153/95
f 15/151/96 108/15/96 104/5/96 14/154/96
f 22/152/97 107/13/97 102/1/97 21/155/97
f 7/156/98 106/9/98 105/12/98 6/131/98
f 14/154/99 104/5/99 103/8/99 13/133/99
f 21/155/100 102/1/100 101/4/100 20/135/100
f 36/44/101 126/130/101 147/111/101 35/36/101
f 26/31/102 127/114/102 148/109/102 50/38/102
f 29/46/103 128/129/103 149/107/103 28/40/103
f 44/48/104 129/128/104 150/105/104 43/42/104
f 37/50/105 130/127/105 126/130/105 36/44/105
f 30/52/106 131/126/106 128/129/106 29/46/106
f 45/3/107 132/125/107 129/128/107 44/48/107
f 38/7/108 133/124/108 130/127/108 37/50/108
f 31/11/109 134/123/109 131/126/109 30/52/109
f 46/2/110 135/121/110 132/125/110 45/3/110
f 39/6/111 136/120/111 133/124/111 38/7/111
f 32/10/112 137/122/112 134/123/112 31/11/112
f 47/14/113 138/118/113 135/121/113 46/2/113
f 40/16/114 139/117/114 136/120/114 39/6/114
f 33/18/115 140/116/115 137/119/115 32/19/115
f 48/22/116 141/115/116 138/118/116 47/14/116
f 41/24/117 142/113/117 139/117/117 40/16/117
f 34/26/118 143/112/118 140/116/118 33/18/118
f 49/28/119 144/110/119 141/115/119 48/22/119
f 27/30/120 145/108/120 127/114/120 26/31/120
f 42/34/121 146/106/121 142/113/121 41/24/121
f 35/36/122 147/111/122 143/112/122 34/26/122
f 50/38/123 148/109/123 144/110/123 49/28/123
f 28/40/124 149/107/124 145/108/124 27/30/124
f 43/42/125 150/105/125 146/106/125 42/34/125
f 52/157/126 53/158/126 54/159/126 55/160/126 56/161/126 57/162/126 58/163/126 59/164/126 60/165/126 61/166/126 62/167/126 63/168/126 64/169/126 65/170/126 66/171/126 67/172/126 68/173/126 69/174/126 70/175/126 71/176/126 72/177/126 73/178/126 74/179/126 75/180/126 51/181/126
