# Blender v2.79 (sub 0) OBJ File: 'Burg Test.blend'
# www.blender.org
mtllib Baumstumpf2.mtl
o Baumstumpf_2_Stumpf_2_eckig
v 0.551717 3.027581 -97.112770
v 0.519529 3.023113 -97.050270
v 0.093731 3.013666 -96.881165
v 0.039401 3.017421 -96.914879
v 0.963424 3.053300 -97.481918
v 0.612580 3.027906 -97.109947
v 1.074509 3.073401 -98.012100
v 1.096137 3.072481 -97.984665
v 0.953083 3.439003 -98.486725
v 0.555923 3.344598 -98.787895
v 0.592570 5.062144 -98.759903
v 0.980300 5.104838 -98.385376
v 0.047838 3.354267 -98.849854
v 0.051420 3.426680 -98.864563
v 0.062339 5.088292 -98.856354
v -0.901971 3.331197 -98.324707
v -1.038853 3.310853 -97.834900
v -1.045666 3.335622 -97.809502
v -1.000922 5.031216 -97.795082
v -0.858465 5.047957 -98.293274
v -0.505197 3.259127 -96.923218
v -0.006964 3.240104 -96.859711
v 0.038446 3.286059 -96.852654
v 0.068178 5.005926 -96.811897
v -0.466133 4.980836 -96.926750
v 0.962939 3.276618 -97.480186
v 1.097492 3.294179 -97.988258
v 1.073837 3.343905 -97.979622
v 1.124941 5.036591 -97.863029
v 0.986745 5.007032 -97.347801
v 1.103620 3.100006 -98.012733
v 1.103498 3.268240 -98.011169
v 0.919833 7.895345 -98.054085
v 0.901024 7.898120 -98.082092
v 0.717590 7.888931 -97.970085
v 0.735758 7.886308 -97.943680
v 0.937068 7.875572 -98.085762
v 1.059443 7.861420 -97.614433
v 1.090660 7.838243 -97.599747
v 0.534725 7.915623 -98.433846
v 0.535662 7.934691 -98.397263
v 0.504186 7.936636 -98.413010
v 0.406075 7.915637 -98.228210
v 0.435932 7.914160 -98.213028
v 0.009837 7.926608 -98.559692
v 0.028521 7.945834 -98.528404
v -0.005868 7.945173 -98.529289
v 0.007654 7.919369 -98.324036
v 0.040385 7.920085 -98.322533
v -0.489355 7.897656 -98.461708
v -0.458332 7.919077 -98.442345
v -0.486659 7.916204 -98.429176
v -0.367542 7.897670 -98.253426
v -0.340569 7.900167 -98.265244
v -0.835420 7.849776 -98.159019
v -0.799807 7.872421 -98.155899
v -0.814815 7.869431 -98.131081
v -0.621480 7.862712 -98.028297
v -0.607370 7.865514 -98.051239
v -0.937417 7.813021 -97.715309
v -0.906796 7.836163 -97.729668
v -0.904755 7.834834 -97.698586
v -0.688694 7.836799 -97.698753
v -0.690783 7.838030 -97.727486
v -0.780820 7.809958 -97.237656
v -0.762492 7.832357 -97.266922
v -0.744843 7.833165 -97.238358
v -0.559179 7.834911 -97.347260
v -0.576299 7.834314 -97.374062
v -0.413758 7.831476 -96.867332
v -0.411531 7.852573 -96.902679
v -0.382959 7.854062 -96.884453
v -0.271196 7.847326 -97.069130
v -0.298732 7.846196 -97.086830
v 0.075979 7.845762 -96.702171
v 0.061070 7.867046 -96.733643
v 0.094382 7.867171 -96.731232
v 0.104362 7.856930 -96.944695
v 0.072694 7.856616 -96.947617
v 0.579840 7.835517 -96.797005
v 0.550532 7.858560 -96.815842
v 0.580302 7.857503 -96.829811
v 0.481307 7.854472 -97.016289
v 0.453298 7.854938 -97.003448
v 0.954450 7.826837 -97.121529
v 0.919761 7.849501 -97.123169
v 0.937016 7.849500 -97.150185
v 0.756882 7.850441 -97.260979
v 0.740631 7.850452 -97.236145
v 1.059893 7.859769 -97.581764
v 0.846832 7.860447 -97.612175
v 0.847669 7.858867 -97.582069
v 0.696220 7.863624 -97.958710
v 0.424658 7.887417 -98.193016
v 0.714357 7.861062 -97.932365
v 0.695927 7.814393 -97.961304
v 0.714642 7.811746 -97.934113
v 0.821930 7.836327 -97.613647
v 0.394879 7.888858 -98.208153
v 0.042264 7.893000 -98.299393
v 0.394781 7.839428 -98.209602
v 0.425023 7.837936 -98.194374
v 0.009593 7.892288 -98.300934
v -0.326389 7.873944 -98.244675
v 0.009632 7.843102 -98.300858
v 0.042813 7.843809 -98.299393
v -0.353323 7.871478 -98.232948
v -0.584547 7.840878 -98.039421
v -0.353151 7.822355 -98.232292
v -0.325803 7.824855 -98.244164
v -0.598618 7.838114 -98.016685
v -0.665324 7.814411 -97.728363
v -0.598016 7.789052 -98.017517
v -0.583738 7.791860 -98.040459
v -0.663217 7.813157 -97.699852
v -0.554351 7.810356 -97.387512
v -0.662357 7.763963 -97.702705
v -0.664507 7.765262 -97.731491
v -0.537220 7.810909 -97.360779
v -0.285561 7.821355 -97.109634
v -0.536124 7.761547 -97.364464
v -0.553526 7.760989 -97.391632
v -0.258039 7.822444 -97.091934
v 0.073898 7.831250 -96.974045
v -0.257108 7.773026 -97.095650
v -0.285040 7.771927 -97.113632
v 0.105498 7.831583 -96.971039
v 0.441872 7.830166 -97.026978
v 0.105988 7.782063 -96.974632
v 0.073931 7.781732 -96.977730
v 0.469803 7.829761 -97.039726
v 0.719480 7.826488 -97.250648
v 0.469991 7.780151 -97.043144
v 0.441602 7.780571 -97.030182
v 0.735654 7.826517 -97.275322
v 0.822816 7.834746 -97.583725
v 0.735841 7.776859 -97.278748
v 0.719404 7.776830 -97.253708
v 0.821990 7.786699 -97.616623
v 0.822890 7.785093 -97.586273
v 0.401302 7.812510 -98.187141
v 0.027569 7.817091 -98.282784
v 0.689024 7.787563 -97.939774
v 0.803365 7.761727 -97.603241
v 0.304577 7.792481 -98.017204
v 0.289513 7.789535 -97.991661
v 0.476459 7.777585 -97.828918
v 0.505118 7.779038 -97.842926
v 0.043093 7.794090 -98.090111
v 0.045593 7.790801 -98.060532
v 0.552449 7.763773 -97.613388
v 0.586412 7.763789 -97.611404
v -0.328796 7.797931 -98.222740
v -0.207121 7.781886 -98.052124
v -0.187918 7.779617 -98.025673
v -0.573620 7.765995 -98.020187
v -0.379030 7.762279 -97.913918
v -0.348426 7.761750 -97.897018
v -0.644249 7.740910 -97.717865
v -0.428715 7.746076 -97.705719
v -0.394884 7.746851 -97.703041
v -0.528397 7.737251 -97.388428
v -0.346188 7.741255 -97.477913
v -0.317773 7.742032 -97.490852
v -0.261338 7.747778 -97.122192
v -0.155784 7.745564 -97.292671
v -0.139656 7.745578 -97.318192
v 0.090607 7.756804 -96.996574
v 0.094182 7.751082 -97.203629
v 0.094110 7.750584 -97.235046
v 0.446804 7.755682 -97.054718
v 0.343224 7.753351 -97.238968
v 0.326481 7.753124 -97.267395
v 0.711343 7.752730 -97.277618
v 0.525505 7.755512 -97.389366
v 0.496113 7.755775 -97.406975
v 0.194153 7.772685 -97.835426
v 0.179434 7.770404 -97.812057
v 0.268034 7.766750 -97.733665
v 0.295768 7.768191 -97.745766
v 0.061163 7.772544 -97.875854
v 0.063476 7.770170 -97.847740
v 0.304652 7.761485 -97.632263
v 0.337685 7.761975 -97.629379
v -0.066598 7.767227 -97.858704
v -0.048041 7.765645 -97.832939
v -0.154936 7.759018 -97.788589
v -0.125249 7.758702 -97.771683
v -0.180932 7.751665 -97.682579
v -0.148052 7.752397 -97.679092
v -0.138600 7.747993 -97.567551
v -0.111102 7.749058 -97.578773
v -0.039708 7.748175 -97.474037
v -0.024604 7.748963 -97.497330
v 0.090016 7.750340 -97.428627
v 0.088873 7.750767 -97.457756
v 0.217312 7.753107 -97.444824
v 0.200031 7.753357 -97.471771
v 0.308459 7.756722 -97.518639
v 0.279369 7.756792 -97.535889
v -0.468380 5.082894 -98.672813
v -0.856725 5.006464 -97.293129
v 0.600864 5.019175 -96.971596
v 0.078026 7.757287 -97.654633
v 0.577332 3.078973 -97.072029
v 0.613038 3.253396 -97.109604
v 0.576829 3.196095 -97.070953
v 0.575933 3.303678 -97.067200
v 0.091304 3.351616 -96.871590
v 0.517413 3.361215 -97.043152
v 0.040020 3.067133 -96.859039
v 0.114728 2.993290 -96.612000
v 0.061869 3.046257 -96.580704
v 0.374661 2.976378 -96.396523
v 0.326677 3.028509 -96.363327
v 0.523609 3.058098 -96.778046
v 0.466029 3.001810 -96.757240
v 0.724570 3.046581 -96.533600
v 0.676461 2.988900 -96.505051
v 0.470531 2.994486 -96.279503
v 0.440371 3.036053 -96.262779
v 0.478675 3.035366 -96.236908
v 0.646008 3.003966 -96.373489
v 0.655372 3.043246 -96.330986
v 0.479238 3.126758 -96.235947
v 0.439719 3.129133 -96.261101
v 0.675656 3.048712 -96.389221
v 0.675050 3.141828 -96.388008
v 0.653684 3.137820 -96.329056
v 0.462971 3.374990 -96.747574
v 0.522957 3.175881 -96.776833
v 0.674863 3.232623 -96.501862
v 0.723861 3.164683 -96.532425
v 0.644827 3.183279 -96.371010
v 0.469277 3.173755 -96.276329
v 0.039389 3.184256 -96.856804
v 0.061143 3.163734 -96.578255
v 0.111495 3.365617 -96.599960
v 0.325862 3.146548 -96.361122
v 0.372909 3.220012 -96.391861
v 0.012231 3.041044 -96.862244
v 0.011458 3.016196 -96.889671
v -0.902290 3.315773 -97.281830
v -0.883263 3.288199 -97.264221
v -1.038298 3.384459 -97.779678
v -0.910797 3.366396 -97.310165
v -0.526543 3.409147 -98.677467
v -0.528228 3.347429 -98.679596
v -0.025720 3.494001 -98.832703
v -0.486165 3.488494 -98.695518
v 1.095056 3.414187 -98.028008
v 0.936730 3.098125 -98.479706
v 0.954377 3.125790 -98.497932
v 1.209932 3.124792 -98.389687
v 1.210277 3.096428 -98.358810
v 0.542995 3.121423 -98.772400
v 0.556467 3.149316 -98.793938
v 0.013242 3.131416 -98.838646
v 0.021040 3.159255 -98.861855
v -0.228734 3.135135 -98.906693
v -0.202120 3.162687 -98.924385
v -0.480849 3.125690 -98.698013
v -0.510601 3.152572 -98.704567
v -0.599515 3.165717 -99.044891
v -0.570853 3.139000 -99.042404
v -0.901144 3.135657 -98.332901
v -1.020919 3.087113 -97.804428
v -1.044662 3.114305 -97.818352
v -1.232933 3.079267 -97.631569
v -1.242718 3.106980 -97.657188
v -0.887047 3.067924 -97.315308
v -0.901226 3.093582 -97.290581
v -1.099619 3.095535 -97.349327
v -1.093643 3.069881 -97.376503
v -0.490293 3.036569 -96.954460
v -0.504133 3.062114 -96.929596
v -1.519560 3.077907 -97.630852
v -1.528148 3.105626 -97.656494
v -1.385166 3.095930 -97.393089
v -1.389290 3.070290 -97.421814
v -1.694806 3.089808 -97.475883
v -1.707006 3.112493 -97.491074
v -1.713050 3.111401 -97.464012
v -1.598987 3.085244 -97.348526
v -1.618334 3.105659 -97.338181
v -1.713898 3.251534 -97.458763
v -1.707655 3.252259 -97.485573
v -1.587067 3.106771 -97.331421
v -1.587716 3.246536 -97.325920
v -1.619660 3.246687 -97.333519
v -0.902028 3.262494 -97.283928
v -1.095095 3.382386 -97.364212
v -1.100404 3.264373 -97.342690
v -1.390468 3.323946 -97.411835
v -1.385950 3.264768 -97.386452
v -1.599826 3.265828 -97.341423
v -1.695645 3.270393 -97.468781
v -1.045419 3.283141 -97.811539
v -1.243500 3.275818 -97.650536
v -1.234385 3.391772 -97.619270
v -1.528933 3.274464 -97.649849
v -1.520739 3.331563 -97.620880
v -0.276207 3.148233 -99.086639
v -0.259606 3.173639 -99.082069
v -0.466150 3.175557 -99.159912
v -0.450086 3.150137 -99.154671
v -0.273313 3.174369 -99.102043
v -0.442782 3.174584 -99.168938
v -0.274016 3.333228 -99.094872
v -0.260189 3.332724 -99.074852
v -0.466723 3.335093 -99.152596
v -0.442453 3.335544 -99.161186
v -0.511245 3.321416 -98.697021
v -0.572079 3.448107 -99.028198
v -0.600133 3.334549 -99.037216
v -0.450840 3.360160 -99.145004
v -0.276973 3.358258 -99.077057
v 0.020492 3.327981 -98.855171
v -0.202734 3.331498 -98.916939
v -0.229961 3.444222 -98.892693
v 1.096237 3.074498 -98.038300
v 1.344119 3.084302 -98.086769
v 1.355192 3.109846 -98.060295
v 1.527902 3.102974 -98.257164
v 1.542691 3.126605 -98.242790
v 1.392515 3.133312 -98.427170
v 1.406220 3.109073 -98.412567
v 1.548967 3.127881 -98.264015
v 1.428613 3.133365 -98.419838
v 1.548609 3.278342 -98.261391
v 1.542420 3.277251 -98.240097
v 1.392234 3.284774 -98.424400
v 1.428441 3.285034 -98.416878
v 1.405851 3.307900 -98.408936
v 1.209636 3.293145 -98.386726
v 1.219752 3.414831 -98.356422
v 1.527544 3.301791 -98.253609
v 1.354957 3.278140 -98.057793
v 1.343046 3.402119 -98.077309
v 1.170851 3.312110 -98.344933
v 0.546836 6.609945 -98.610771
v -0.871407 6.588696 -98.218193
v 1.082519 6.564990 -97.750053
v 0.936445 6.615741 -98.258606
v -0.502578 6.622825 -98.544823
v -0.843614 6.540765 -97.291771
v 0.019180 6.627263 -98.697968
v 0.044452 6.535226 -96.759064
v 0.558582 6.543535 -96.886864
v 0.943278 6.540836 -97.249367
v -0.466898 6.527014 -96.912262
v -0.994428 6.561402 -97.765343
vt 0.139901 0.413184
vt 0.110196 0.392340
vt 0.246470 0.357865
vt 0.259331 0.401895
vt 0.071008 0.374008
vt 0.087151 0.359571
vt 0.238633 0.310741
vt 0.033898 0.736261
vt 0.046553 0.685150
vt 0.049812 0.683189
vt 0.216540 0.731013
vt 0.205982 0.783346
vt 0.091662 0.592775
vt 0.120178 0.574547
vt 0.119769 0.563292
vt 0.251331 0.581871
vt 0.237549 0.630075
vt 0.149362 0.485562
vt 0.155993 0.438222
vt 0.152483 0.445273
vt 0.261009 0.446977
vt 0.261436 0.490514
vt 0.128309 0.490331
vt 0.141615 0.422261
vt 0.141250 0.420227
vt 0.156489 0.436823
vt 0.955189 0.758685
vt 0.951862 0.764447
vt 0.917482 0.744464
vt 0.920693 0.738902
vt 0.960416 0.765209
vt 0.979211 0.669034
vt 0.987179 0.665774
vt 0.887364 0.838234
vt 0.886234 0.830075
vt 0.880472 0.833402
vt 0.860689 0.798906
vt 0.866251 0.795694
vt 0.787064 0.864970
vt 0.790821 0.857424
vt 0.784168 0.857424
vt 0.784283 0.817658
vt 0.790706 0.817658
vt 0.686679 0.838189
vt 0.694518 0.833402
vt 0.688756 0.830075
vt 0.708738 0.795694
vt 0.714301 0.798906
vt 0.613509 0.765317
vt 0.623127 0.764447
vt 0.619801 0.758685
vt 0.654296 0.738902
vt 0.657508 0.744464
vt 0.587311 0.665962
vt 0.595778 0.669034
vt 0.595778 0.662381
vt 0.635545 0.662496
vt 0.635545 0.668919
vt 0.614383 0.566155
vt 0.619801 0.572730
vt 0.623127 0.566969
vt 0.657508 0.586951
vt 0.654296 0.592514
vt 0.687538 0.492983
vt 0.688756 0.501340
vt 0.694518 0.498014
vt 0.714301 0.532509
vt 0.708738 0.535721
vt 0.787539 0.466160
vt 0.784168 0.473991
vt 0.790821 0.473991
vt 0.790706 0.513757
vt 0.784283 0.513757
vt 0.887698 0.493075
vt 0.880472 0.498014
vt 0.886234 0.501340
vt 0.866251 0.535721
vt 0.860689 0.532509
vt 0.960625 0.566077
vt 0.951862 0.566969
vt 0.955189 0.572730
vt 0.920693 0.592514
vt 0.917482 0.586951
vt 0.979211 0.662381
vt 0.939445 0.668919
vt 0.939445 0.662496
vt 0.913409 0.742113
vt 0.863900 0.791622
vt 0.916621 0.736551
vt 0.913335 0.742188
vt 0.916649 0.736448
vt 0.934743 0.668919
vt 0.858338 0.794834
vt 0.790706 0.812956
vt 0.858286 0.794848
vt 0.863938 0.791584
vt 0.784283 0.812956
vt 0.716651 0.794834
vt 0.784231 0.812942
vt 0.790758 0.812942
vt 0.711089 0.791622
vt 0.661580 0.742113
vt 0.711051 0.791584
vt 0.716703 0.794848
vt 0.658369 0.736551
vt 0.640246 0.668919
vt 0.658355 0.736499
vt 0.661618 0.742151
vt 0.640246 0.662496
vt 0.658369 0.594864
vt 0.640260 0.662444
vt 0.640260 0.668971
vt 0.661580 0.589302
vt 0.711089 0.539793
vt 0.661618 0.589264
vt 0.658355 0.594916
vt 0.716651 0.536581
vt 0.784283 0.518459
vt 0.716703 0.536568
vt 0.711051 0.539831
vt 0.790706 0.518459
vt 0.858338 0.536581
vt 0.790758 0.518473
vt 0.784231 0.518473
vt 0.863900 0.539793
vt 0.913409 0.589302
vt 0.863938 0.539831
vt 0.858286 0.536568
vt 0.916621 0.594864
vt 0.934743 0.662496
vt 0.916635 0.594916
vt 0.913371 0.589264
vt 0.934730 0.668971
vt 0.934730 0.662444
vt 0.859317 0.790108
vt 0.787495 0.809353
vt 0.911895 0.737530
vt 0.931140 0.665708
vt 0.838527 0.754098
vt 0.835202 0.748339
vt 0.870126 0.713415
vt 0.875885 0.716740
vt 0.787495 0.767772
vt 0.787495 0.761122
vt 0.882909 0.665708
vt 0.889559 0.665708
vt 0.715672 0.790108
vt 0.736463 0.754098
vt 0.739788 0.748339
vt 0.663094 0.737530
vt 0.699104 0.716740
vt 0.704864 0.713415
vt 0.643849 0.665708
vt 0.685430 0.665708
vt 0.692081 0.665708
vt 0.663094 0.593885
vt 0.699104 0.614676
vt 0.704864 0.618001
vt 0.715672 0.541307
vt 0.736463 0.577317
vt 0.739788 0.583076
vt 0.787495 0.522062
vt 0.787495 0.563643
vt 0.787495 0.570294
vt 0.859317 0.541307
vt 0.838527 0.577317
vt 0.835202 0.583076
vt 0.911895 0.593885
vt 0.875885 0.614676
vt 0.870126 0.618001
vt 0.813842 0.711342
vt 0.810517 0.705052
vt 0.827371 0.688198
vt 0.833129 0.692055
vt 0.787495 0.718402
vt 0.787495 0.711221
vt 0.833540 0.665176
vt 0.840189 0.665708
vt 0.761147 0.711342
vt 0.764472 0.705052
vt 0.741859 0.692055
vt 0.747619 0.688198
vt 0.734801 0.665708
vt 0.741450 0.665176
vt 0.741859 0.639360
vt 0.747619 0.642153
vt 0.761147 0.620073
vt 0.764472 0.625300
vt 0.787495 0.613014
vt 0.787495 0.619131
vt 0.813842 0.620073
vt 0.810517 0.625300
vt 0.833129 0.639360
vt 0.827371 0.642153
vt 0.394910 0.393886
vt 0.388465 0.343119
vt 0.521891 0.338715
vt 0.523407 0.394914
vt 0.385496 0.290384
vt 0.518870 0.282160
vt 0.381394 0.235853
vt 0.513420 0.229086
vt 0.375272 0.185391
vt 0.507390 0.181063
vt 0.366566 0.805773
vt 0.371333 0.756997
vt 0.501825 0.769363
vt 0.499537 0.817588
vt 0.377543 0.706422
vt 0.509034 0.716692
vt 0.384608 0.652838
vt 0.518652 0.662388
vt 0.392209 0.600091
vt 0.526117 0.608194
vt 0.396855 0.547952
vt 0.528575 0.553966
vt 0.396744 0.496178
vt 0.527607 0.501427
vt 0.395793 0.445555
vt 0.525244 0.448853
vt 0.787495 0.657808
vt 0.165020 0.545785
vt 0.166496 0.541695
vt 0.164399 0.525393
vt 0.166970 0.526205
vt 0.154970 0.524534
vt 0.260380 0.534442
vt 0.129994 0.557063
vt 0.146767 0.524132
vt 0.744908 0.369053
vt 0.702066 0.339093
vt 0.762257 0.301153
vt 0.785217 0.313080
vt 0.792962 0.223786
vt 0.805350 0.234392
vt 0.736600 0.081140
vt 0.767706 0.058824
vt 0.766350 0.114868
vt 0.733685 0.137402
vt 0.813744 0.179143
vt 0.806440 0.184536
vt 0.812030 0.210919
vt 0.815322 0.214803
vt 0.816664 0.211096
vt 0.812896 0.196120
vt 0.817399 0.197771
vt 0.823266 0.212067
vt 0.823723 0.216129
vt 0.816800 0.192658
vt 0.825893 0.191946
vt 0.825077 0.197461
vt 0.826549 0.051624
vt 0.925694 0.081793
vt 0.919773 0.154413
vt 0.825766 0.104097
vt 0.839849 0.179943
vt 0.826819 0.176038
vt 0.830622 0.195495
vt 0.828880 0.213310
vt 0.931255 0.336844
vt 0.820332 0.387194
vt 0.823073 0.322640
vt 0.892035 0.303889
vt 0.829444 0.238598
vt 0.850057 0.231397
vt 0.128501 0.576610
vt 0.126093 0.577042
vt 0.125031 0.574872
vt 0.126421 0.572183
vt 0.132123 0.573553
vt 0.161061 0.549127
vt 0.161451 0.543302
vt 0.116464 0.574559
vt 0.064787 0.622939
vt 0.055121 0.607848
vt 0.226469 0.680106
vt 0.055692 0.680984
vt 0.069118 0.632241
vt 0.066215 0.293506
vt 0.059987 0.294831
vt 0.046759 0.244139
vt 0.217168 0.205322
vt 0.229021 0.258442
vt 0.088258 0.343937
vt 0.075210 0.296605
vt 0.150814 0.446335
vt 0.724569 0.067041
vt 0.740219 0.063977
vt 0.746411 0.124639
vt 0.726913 0.140843
vt 0.141973 0.417273
vt 0.141298 0.419500
vt 0.096816 0.403456
vt 0.097019 0.401059
vt 0.050294 0.411799
vt 0.049980 0.409494
vt 0.934979 0.059525
vt 0.953161 0.068173
vt 0.920592 0.171882
vt 0.905415 0.153484
vt 0.937131 0.369759
vt 0.917204 0.375502
vt 0.867206 0.285700
vt 0.876717 0.279056
vt 0.731129 0.361640
vt 0.713522 0.354572
vt 0.723491 0.289928
vt 0.739119 0.305728
vt 0.717846 0.070949
vt 0.736789 0.063198
vt 0.764774 0.117154
vt 0.751595 0.124539
vt 0.036508 0.568832
vt 0.036745 0.566447
vt 0.081665 0.582649
vt 0.081462 0.585046
vt 0.808265 0.204273
vt 0.811116 0.206374
vt 0.791774 0.155662
vt 0.783530 0.161941
vt 0.817816 0.191141
vt 0.819043 0.191983
vt 0.819235 0.190798
vt 0.815716 0.184026
vt 0.817565 0.184242
vt 0.824887 0.191303
vt 0.824992 0.192641
vt 0.817090 0.182343
vt 0.826409 0.181209
vt 0.826166 0.183400
vt 0.852234 0.030543
vt 0.929969 0.059959
vt 0.896261 0.132862
vt 0.847461 0.108676
vt 0.860030 0.162846
vt 0.844136 0.155234
vt 0.828181 0.182855
vt 0.826424 0.191738
vt 0.932836 0.366095
vt 0.855034 0.397974
vt 0.857170 0.320109
vt 0.918735 0.276130
vt 0.831367 0.210272
vt 0.838655 0.207488
vt 0.879912 0.196972
vt 0.873402 0.187339
vt 0.858063 0.244200
vt 0.864192 0.240630
vt 0.870997 0.194757
vt 0.858103 0.238149
vt 0.815273 0.180889
vt 0.815661 0.172321
vt 0.821186 0.244647
vt 0.821486 0.237829
vt 0.808792 0.395365
vt 0.699636 0.351267
vt 0.773748 0.282580
vt 0.815380 0.295069
vt 0.812652 0.240754
vt 0.803173 0.178540
vt 0.699636 0.056321
vt 0.824289 0.024129
vt 0.803009 0.121466
vt 0.736141 0.154817
vt 0.717714 0.345846
vt 0.702543 0.332160
vt 0.740209 0.299592
vt 0.752735 0.310456
vt 0.777786 0.233925
vt 0.785195 0.238168
vt 0.773791 0.176645
vt 0.766808 0.185962
vt 0.785779 0.232639
vt 0.776298 0.186651
vt 0.818794 0.229609
vt 0.819434 0.235367
vt 0.819898 0.168912
vt 0.819233 0.179871
vt 0.828536 0.176020
vt 0.852771 0.120898
vt 0.883227 0.165672
vt 0.828786 0.230813
vt 0.941985 0.335854
vt 0.839849 0.393766
vt 0.840704 0.324421
vt 0.902074 0.296792
vt 0.064332 0.373255
vt 0.041340 0.302130
vt 0.027544 0.249161
vt 0.057860 0.297767
vt 0.014222 0.731421
vt 0.027540 0.677694
vt 0.044432 0.681974
vt 0.047121 0.610190
vt 0.934715 0.053926
vt 0.893055 0.125567
vt 0.139380 0.421106
vt 0.139979 0.418721
vn 0.6413 -0.0077 -0.7672
vn 0.6664 0.0290 -0.7450
vn 0.6516 0.0156 -0.7584
vn 0.6502 0.0154 -0.7596
vn 0.1557 0.0277 -0.9874
vn 0.2058 0.0644 -0.9765
vn 0.2725 0.1130 -0.9555
vn 0.1649 0.0038 -0.9863
vn 0.1637 0.0027 -0.9865
vn -0.9621 0.0284 -0.2713
vn -0.9566 0.0983 -0.2744
vn -0.9352 0.1265 -0.3308
vn -0.1686 -0.0075 0.9856
vn -0.1743 0.0652 0.9825
vn -0.2257 0.0836 0.9706
vn 0.9714 -0.0318 0.2353
vn 0.9557 0.0291 0.2928
vn 0.9464 0.0389 0.3207
vn 0.9668 -0.0009 0.2556
vn 0.9473 -0.0317 0.3189
vn 0.9519 -0.0588 0.3006
vn 0.0074 0.9956 0.0938
vn 0.6302 0.7591 -0.1632
vn 0.6611 0.7442 -0.0952
vn 0.6289 0.7518 -0.1982
vn 0.6425 0.7563 -0.1231
vn 0.4164 0.7752 -0.4751
vn 0.4669 0.7794 -0.4177
vn 0.4355 0.7821 -0.4457
vn 0.4976 0.7675 -0.4041
vn -0.0008 0.9938 0.1114
vn 0.1077 0.7838 -0.6116
vn 0.1786 0.7917 -0.5843
vn 0.1374 0.7927 -0.5940
vn 0.2127 0.7816 -0.5864
vn -0.0248 0.9917 0.1259
vn -0.2155 0.7745 -0.5947
vn -0.1411 0.7868 -0.6008
vn -0.1822 0.7857 -0.5912
vn -0.1099 0.7794 -0.6168
vn -0.0374 0.9908 0.1302
vn -0.5163 0.7647 -0.3855
vn -0.4559 0.7800 -0.4286
vn -0.4860 0.7771 -0.3999
vn -0.4360 0.7748 -0.4579
vn -0.0224 0.9940 0.1069
vn -0.6551 0.7549 -0.0318
vn -0.6304 0.7695 -0.1022
vn -0.6394 0.7664 -0.0618
vn -0.6311 0.7634 -0.1374
vn -0.0091 0.9990 0.0434
vn -0.6115 0.7465 0.2624
vn -0.6258 0.7570 0.1880
vn -0.6133 0.7562 0.2280
vn -0.6447 0.7476 0.1593
vn -0.0181 0.9997 -0.0140
vn -0.4533 0.7495 0.4824
vn -0.4996 0.7565 0.4220
vn -0.4705 0.7577 0.4522
vn -0.5291 0.7455 0.4053
vn -0.0172 0.9988 -0.0460
vn -0.1826 0.7431 0.6437
vn -0.2509 0.7508 0.6111
vn -0.2112 0.7519 0.6245
vn -0.2850 0.7401 0.6091
vn -0.0028 0.9988 -0.0484
vn 0.1930 0.7232 0.6632
vn 0.1180 0.7342 0.6686
vn 0.1594 0.7339 0.6603
vn 0.0869 0.7246 0.6836
vn 0.0145 0.9996 -0.0254
vn 0.5043 0.7175 0.4805
vn 0.4424 0.7282 0.5234
vn 0.4737 0.7281 0.4954
vn 0.4229 0.7188 0.5518
vn 0.0039 1.0000 0.0023
vn 0.6688 0.7278 0.1515
vn 0.6398 0.7360 0.2215
vn 0.6510 0.7372 0.1809
vn 0.6395 0.7251 0.2555
vn -0.0042 0.9987 0.0515
vn -0.4140 0.7051 0.5757
vn -0.5107 0.5887 0.6266
vn -0.4868 0.5860 0.6477
vn -0.4357 0.7071 0.5569
vn -0.8845 -0.0154 0.4663
vn -0.7536 -0.0345 0.6564
vn -0.7546 -0.0338 0.6553
vn -0.8837 -0.0175 0.4677
vn -0.7206 0.6225 0.3054
vn -0.6241 0.7389 0.2542
vn -0.6157 0.7360 0.2816
vn -0.7305 0.6251 0.2749
vn -0.1618 0.6898 0.7056
vn -0.2122 0.5678 0.7954
vn -0.1812 0.5680 0.8028
vn -0.1897 0.6893 0.6992
vn -0.5524 -0.0214 0.8333
vn -0.3467 -0.0316 0.9375
vn -0.3472 -0.0314 0.9373
vn -0.5516 -0.0223 0.8338
vn 0.0873 0.7032 0.7056
vn 0.0959 0.5811 0.8081
vn 0.1244 0.5843 0.8019
vn 0.0619 0.7001 0.7114
vn -0.1609 -0.0020 0.9870
vn 0.0698 0.0027 0.9976
vn 0.0691 0.0029 0.9976
vn -0.1598 -0.0029 0.9871
vn 0.3833 0.7368 0.5569
vn 0.4452 0.6198 0.6462
vn 0.4669 0.6232 0.6274
vn 0.3643 0.7333 0.5741
vn 0.2894 0.0042 0.9572
vn 0.5005 0.0232 0.8654
vn 0.4997 0.0235 0.8659
vn 0.2902 0.0033 0.9570
vn 0.6158 0.7653 0.1873
vn 0.7178 0.6539 0.2392
vn 0.7258 0.6552 0.2097
vn 0.6089 0.7639 0.2137
vn 0.7833 -0.0097 0.6216
vn 0.9044 0.0137 0.4264
vn 0.9040 0.0140 0.4273
vn 0.7837 -0.0107 0.6210
vn 0.5988 0.7704 -0.2188
vn 0.7156 0.6617 -0.2238
vn 0.7060 0.6614 -0.2532
vn 0.6072 0.7709 -0.1924
vn 0.9990 0.0163 0.0424
vn 0.9819 0.0261 -0.1877
vn 0.9820 0.0265 -0.1869
vn 0.9990 0.0151 0.0415
vn 0.4273 0.7684 -0.4764
vn 0.5265 0.6590 -0.5372
vn 0.5047 0.6587 -0.5581
vn 0.4469 0.7686 -0.4577
vn 0.8966 0.0606 -0.4387
vn 0.7720 0.0563 -0.6331
vn 0.7725 0.0566 -0.6324
vn 0.8963 0.0596 -0.4394
vn 0.1887 0.7644 -0.6165
vn 0.2463 0.6534 -0.7158
vn 0.2188 0.6536 -0.7246
vn 0.2135 0.7638 -0.6091
vn 0.6310 0.0768 -0.7720
vn 0.4369 0.0688 -0.8969
vn 0.4376 0.0692 -0.8965
vn 0.6304 0.0758 -0.7725
vn -0.1144 0.7628 -0.6365
vn -0.1094 0.6514 -0.7508
vn -0.1387 0.6520 -0.7454
vn -0.0881 0.7621 -0.6414
vn 0.2087 0.0742 -0.9752
vn -0.0211 0.0714 -0.9972
vn -0.0202 0.0718 -0.9972
vn 0.2080 0.0732 -0.9754
vn -0.4190 0.7667 -0.4865
vn -0.4698 0.6564 -0.5903
vn -0.4936 0.6568 -0.5701
vn -0.3977 0.7663 -0.5046
vn -0.3058 0.0590 -0.9503
vn -0.5159 0.0618 -0.8544
vn -0.5152 0.0621 -0.8548
vn -0.3066 0.0581 -0.9501
vn -0.6335 0.7605 -0.1424
vn -0.7299 0.6513 -0.2076
vn -0.7390 0.6500 -0.1771
vn -0.6252 0.7618 -0.1697
vn -0.7668 0.0347 -0.6409
vn -0.8935 0.0342 -0.4478
vn -0.8931 0.0345 -0.4486
vn -0.7673 0.0338 -0.6403
vn -0.9963 0.0031 -0.0860
vn -0.9895 -0.0094 0.1444
vn -0.9896 -0.0090 0.1437
vn -0.9964 0.0021 -0.0852
vn -0.2146 0.6130 0.7604
vn -0.1349 0.5643 0.8145
vn -0.2582 0.5637 0.7846
vn -0.1623 0.6132 0.7731
vn -0.5433 0.5919 0.5954
vn -0.4501 0.6347 0.6282
vn -0.4909 0.6395 0.5916
vn -0.4467 0.5845 0.6774
vn -0.7335 0.6400 0.2291
vn -0.6667 0.6782 0.3092
vn -0.6844 0.6821 0.2577
vn -0.6980 0.6256 0.3484
vn -0.0159 0.9955 0.0932
vn -0.0243 0.9940 0.1069
vn -0.0103 0.9976 0.0685
vn 0.0693 0.6259 0.7768
vn 0.1683 0.5849 0.7934
vn 0.0462 0.5723 0.8187
vn 0.1218 0.6302 0.7668
vn -0.0314 0.9934 0.1107
vn 0.3964 0.6714 0.6262
vn 0.4934 0.6324 0.5972
vn 0.4015 0.6177 0.6762
vn 0.4365 0.6772 0.5924
vn -0.0315 0.9944 0.1004
vn 0.6640 0.7081 0.2400
vn 0.7290 0.6643 0.1651
vn 0.6972 0.6590 0.2822
vn 0.6771 0.7112 0.1892
vn -0.0254 0.9972 0.0710
vn 0.6790 0.7056 -0.2030
vn 0.6908 0.6580 -0.2998
vn 0.7289 0.6603 -0.1811
vn 0.6620 0.7052 -0.2537
vn -0.0201 0.9994 0.0292
vn 0.5120 0.6967 -0.5025
vn 0.4746 0.6503 -0.5931
vn 0.5660 0.6515 -0.5052
vn 0.4733 0.6958 -0.5402
vn -0.0194 0.9998 -0.0019
vn 0.2505 0.6976 -0.6712
vn 0.1767 0.6527 -0.7367
vn 0.2969 0.6508 -0.6988
vn 0.1994 0.6975 -0.6883
vn -0.0170 0.9998 -0.0133
vn -0.0862 0.7015 -0.7075
vn -0.1818 0.6565 -0.7321
vn -0.0593 0.6538 -0.7543
vn -0.1389 0.7021 -0.6984
vn -0.0112 0.9999 -0.0090
vn -0.4274 0.7111 -0.5583
vn -0.5226 0.6656 -0.5329
vn -0.4282 0.6641 -0.6129
vn -0.4680 0.7117 -0.5239
vn -0.0071 0.9999 0.0079
vn -0.6706 0.7150 -0.1975
vn -0.7362 0.6648 -0.1270
vn -0.7006 0.6702 -0.2450
vn -0.6858 0.7128 -0.1470
vn -0.0072 0.9993 0.0360
vn -0.0242 0.9968 0.0757
vn -0.0270 0.9961 0.0835
vn -0.0225 0.9979 0.0607
vn -0.0297 0.9960 0.0847
vn -0.0295 0.9965 0.0777
vn -0.0268 0.9977 0.0620
vn -0.0244 0.9988 0.0415
vn -0.0236 0.9994 0.0245
vn -0.0223 0.9996 0.0173
vn -0.0201 0.9996 0.0187
vn -0.0192 0.9994 0.0274
vn -0.0206 0.9989 0.0426
vn 0.6613 0.1042 -0.7428
vn 0.6621 0.1053 -0.7420
vn 0.2000 0.1193 -0.9725
vn -0.2406 0.0835 -0.9670
vn -0.2374 0.0849 -0.9677
vn -0.6633 0.0547 -0.7464
vn -0.9697 0.0463 -0.2401
vn -0.9508 0.0325 0.3081
vn -0.9513 0.0333 0.3064
vn -0.7100 0.0049 0.7042
vn -0.3024 -0.0273 0.9528
vn 0.2132 -0.0593 0.9752
vn 0.2108 -0.0583 0.9758
vn 0.6687 -0.0709 0.7402
vn 0.9623 -0.0365 0.2695
vn 0.9578 0.0331 -0.2856
vn 0.9579 0.0344 -0.2849
vn 0.0049 0.9945 0.1045
vn -0.0128 0.9932 0.1160
vn -0.0329 0.9913 0.1272
vn -0.0301 0.9919 0.1234
vn -0.0088 0.9967 0.0802
vn -0.0073 0.9999 0.0090
vn -0.0177 0.9993 -0.0338
vn -0.0121 0.9988 -0.0467
vn 0.0068 0.9993 -0.0360
vn 0.0079 0.9999 -0.0142
vn -0.0064 0.9997 0.0230
vn -0.0029 0.9969 0.0782
vn -0.0072 0.9951 0.0989
vn -0.0204 0.9934 0.1133
vn -0.0321 0.9924 0.1188
vn -0.0336 0.9934 0.1092
vn -0.0251 0.9969 0.0747
vn -0.0188 0.9996 0.0219
vn -0.0187 0.9997 -0.0139
vn -0.0151 0.9996 -0.0254
vn -0.0049 0.9998 -0.0193
vn 0.0017 1.0000 -0.0001
vn 0.0024 0.9995 0.0322
vn -0.0001 0.9974 0.0722
vn -0.0193 0.9960 0.0869
vn -0.0250 0.9950 0.0966
vn -0.0312 0.9946 0.0988
vn -0.0317 0.9954 0.0909
vn -0.0265 0.9974 0.0676
vn -0.0225 0.9992 0.0341
vn -0.0227 0.9997 0.0096
vn -0.0201 0.9998 0.0012
vn -0.0143 0.9999 0.0036
vn -0.0116 0.9998 0.0151
vn -0.0141 0.9992 0.0379
vn -0.0170 0.9977 0.0662
vn -0.0206 0.9973 0.0698
vn -0.0230 0.9974 0.0683
vn -0.0313 0.9971 0.0689
vn -0.0337 0.9969 0.0705
vn -0.0282 0.9977 0.0610
vn -0.0262 0.9987 0.0429
vn -0.0302 0.9990 0.0332
vn -0.0279 0.9990 0.0346
vn -0.0190 0.9992 0.0341
vn -0.0168 0.9993 0.0327
vn -0.0227 0.9988 0.0427
vn -0.0245 0.9979 0.0606
vn -0.6516 0.0842 0.7539
vn -0.6486 0.0833 0.7565
vn -0.6511 -0.1464 0.7447
vn -0.6484 -0.1456 0.7473
vn -0.2499 0.0999 0.9631
vn -0.2468 0.0988 0.9640
vn -0.2482 -0.1312 0.9598
vn -0.2457 -0.1302 0.9606
vn 0.1622 0.1218 0.9792
vn 0.1643 0.1213 0.9789
vn 0.1643 -0.1088 0.9804
vn 0.1657 -0.1083 0.9802
vn 0.6329 0.1176 0.7653
vn 0.6364 0.1184 0.7622
vn 0.6357 -0.1117 0.7638
vn 0.6387 -0.1124 0.7612
vn 0.9652 0.1191 0.2330
vn 0.9666 0.1197 0.2268
vn 0.9685 -0.1104 0.2231
vn 0.9698 -0.1104 0.2175
vn 0.9361 0.1535 -0.3166
vn 0.9349 0.1534 -0.3202
vn 0.9397 -0.0763 -0.3334
vn 0.9387 -0.0758 -0.3363
vn 0.6983 0.1802 -0.6927
vn 0.6966 0.1805 -0.6944
vn 0.7016 -0.0490 -0.7109
vn 0.7003 -0.0490 -0.7122
vn 0.3310 0.1872 -0.9249
vn 0.3283 0.1876 -0.9258
vn 0.3326 -0.0419 -0.9421
vn 0.3305 -0.0422 -0.9429
vn -0.1603 0.1810 -0.9703
vn -0.1631 0.1812 -0.9698
vn -0.1604 -0.0484 -0.9859
vn -0.1626 -0.0486 -0.9855
vn -0.6388 0.1632 -0.7519
vn -0.6403 0.1632 -0.7506
vn -0.6390 -0.0664 -0.7663
vn -0.6400 -0.0665 -0.7655
vn -0.9557 0.1282 -0.2650
vn -0.9565 0.1282 -0.2622
vn -0.9552 -0.1014 -0.2782
vn -0.9558 -0.1016 -0.2759
vn -0.9405 -0.1340 0.3124
vn -0.9429 0.0958 0.3189
vn -0.9414 0.0959 0.3234
vn -0.9415 -0.1336 0.3094
vn 0.5080 0.8067 -0.3020
vn 0.5111 0.8189 -0.2611
vn 0.5454 0.8023 -0.2426
vn 0.2631 0.8242 -0.5015
vn 0.2864 0.8363 -0.4674
vn 0.3264 0.8212 -0.4680
vn -0.0400 0.8270 -0.5607
vn -0.0037 0.8402 -0.5422
vn 0.0324 0.8266 -0.5618
vn -0.3456 0.8115 -0.4713
vn -0.3068 0.8269 -0.4712
vn -0.2861 0.8135 -0.5063
vn -0.5614 0.8029 -0.2006
vn -0.5284 0.8203 -0.2188
vn -0.5303 0.8074 -0.2587
vn -0.6170 0.7798 0.1057
vn -0.5986 0.7978 0.0721
vn -0.6191 0.7843 0.0382
vn -0.5287 0.7760 0.3439
vn -0.5303 0.7914 0.3040
vn -0.5637 0.7759 0.2833
vn -0.3302 0.7893 0.5177
vn -0.3501 0.8030 0.4823
vn -0.3893 0.7868 0.4790
vn -0.0116 0.7892 0.6141
vn -0.0458 0.8038 0.5932
vn -0.0824 0.7886 0.6094
vn 0.3282 0.7654 0.5536
vn 0.2888 0.7811 0.5536
vn 0.2657 0.7654 0.5861
vn 0.5571 0.7691 0.3132
vn 0.5232 0.7845 0.3330
vn 0.5210 0.7681 0.3722
vn 0.6231 0.7822 -0.0039
vn 0.6048 0.7958 0.0318
vn 0.6241 0.7786 0.0654
vn -0.5174 0.6757 0.5251
vn -0.5227 0.6770 0.5181
vn -0.6080 0.6891 0.3943
vn -0.6125 0.6894 0.3867
vn -0.2428 0.6441 0.7254
vn -0.2509 0.6450 0.7218
vn -0.3853 0.6515 0.6535
vn -0.3929 0.6515 0.6490
vn 0.0348 0.6460 0.7625
vn 0.0259 0.6462 0.7627
vn -0.1247 0.6430 0.7556
vn -0.1334 0.6423 0.7547
vn 0.3178 0.6808 0.6599
vn 0.3099 0.6804 0.6641
vn 0.1720 0.6678 0.7242
vn 0.1639 0.6665 0.7272
vn 0.5941 0.7219 0.3549
vn 0.5900 0.7214 0.3627
vn 0.5111 0.7059 0.4904
vn 0.5062 0.7044 0.4975
vn 0.6712 0.7343 -0.1019
vn 0.6722 0.7345 -0.0931
vn 0.6833 0.7279 0.0572
vn 0.6834 0.7271 0.0660
vn 0.5194 0.7276 -0.4481
vn 0.5244 0.7284 -0.4409
vn 0.6059 0.7310 -0.3139
vn 0.6101 0.7308 -0.3061
vn 0.2783 0.7216 -0.6339
vn 0.2860 0.7225 -0.6295
vn 0.4129 0.7275 -0.5480
vn 0.4199 0.7273 -0.5428
vn -0.0269 0.7178 -0.6958
vn -0.0180 0.7182 -0.6956
vn 0.1322 0.7199 -0.6814
vn 0.1409 0.7194 -0.6802
vn -0.3521 0.7246 -0.5924
vn -0.3445 0.7249 -0.5966
vn -0.2072 0.7228 -0.6592
vn -0.1990 0.7221 -0.6626
vn -0.6154 0.7281 -0.3020
vn -0.6110 0.7285 -0.3097
vn -0.5283 0.7286 -0.4359
vn -0.5232 0.7280 -0.4430
vn -0.6918 0.7080 0.1415
vn -0.6925 0.7091 0.1328
vn -0.6969 0.7169 -0.0178
vn -0.6966 0.7170 -0.0267
vn -0.3458 0.5739 0.7423
vn -0.3868 0.5916 0.7074
vn -0.2923 0.5884 0.7539
vn -0.5905 0.6106 0.5277
vn -0.6311 0.5988 0.4931
vn -0.6478 0.6189 0.4443
vn -0.0496 0.5747 0.8168
vn -0.1005 0.5896 0.8014
vn 0.0036 0.5924 0.8057
vn 0.2686 0.6051 0.7494
vn 0.2149 0.6159 0.7579
vn 0.3107 0.6252 0.7160
vn 0.6141 0.6414 0.4600
vn 0.5729 0.6505 0.4986
vn 0.6286 0.6611 0.4097
vn 0.7551 0.6550 -0.0284
vn 0.7442 0.6674 0.0269
vn 0.7369 0.6715 -0.0778
vn 0.6308 0.6544 -0.4170
vn 0.6461 0.6700 -0.3655
vn 0.5898 0.6683 -0.4533
vn 0.3918 0.6559 -0.6453
vn 0.4262 0.6720 -0.6057
vn 0.3382 0.6692 -0.6617
vn 0.0672 0.6558 -0.7519
vn 0.1168 0.6707 -0.7325
vn 0.0126 0.6701 -0.7421
vn -0.3047 0.6579 -0.6888
vn -0.2509 0.6717 -0.6971
vn -0.3462 0.6732 -0.6535
vn -0.6280 0.6610 -0.4108
vn -0.5866 0.6756 -0.4467
vn -0.6443 0.6752 -0.3591
vn -0.7649 0.6415 0.0577
vn -0.7514 0.6598 0.0050
vn -0.7496 0.6526 0.1107
vn 0.7277 -0.0031 0.6859
vn 0.7321 -0.0724 0.6773
vn 0.7742 -0.0401 0.6316
vn 0.7717 -0.0990 0.6282
vn 0.7423 0.0002 0.6701
vn 0.7121 -0.0562 0.6998
vn 0.7138 -0.0572 0.6980
vn 0.3822 0.0526 0.9226
vn 0.3620 -0.0427 0.9312
vn 0.2932 -0.0441 0.9550
vn 0.3188 0.0573 0.9461
vn 0.3285 -0.0459 0.9434
vn 0.3295 -0.0434 0.9432
vn -0.7062 -0.7080 0.0019
vn -0.4561 -0.7405 0.4936
vn -0.4446 -0.7528 0.4855
vn -0.4604 -0.7458 0.4815
vn 0.7097 -0.7000 0.0793
vn 0.5327 -0.7000 -0.4757
vn 0.4425 -0.6707 -0.5953
vn 0.3921 -0.6684 -0.6320
vn -0.4795 -0.6893 0.5431
vn -0.4674 -0.6970 0.5438
vn -0.4896 -0.6934 0.5287
vn 0.3561 -0.7157 0.6009
vn -0.5487 -0.0122 0.8360
vn 0.8197 -0.5067 0.2673
vn 0.9200 -0.3381 0.1980
vn 0.7220 -0.6241 0.2986
vn 0.9421 0.0059 0.3353
vn 0.9432 0.2816 0.1763
vn 0.7545 0.4207 -0.5036
vn 0.5872 0.4150 -0.6950
vn 0.6473 0.3172 -0.6931
vn 0.8241 0.4435 0.3524
vn 0.7152 0.6261 0.3106
vn 0.9274 0.1785 0.3286
vn 0.3222 0.6653 0.6734
vn -0.9589 0.2731 0.0763
vn -0.5273 0.3352 0.7808
vn -0.4882 0.2798 0.8267
vn -0.5915 0.2841 0.7546
vn -0.4946 0.5746 0.6520
vn -0.4715 0.5104 0.7191
vn -0.5533 0.5298 0.6428
vn 0.4708 -0.0109 0.8822
vn 0.1281 -0.9865 0.1017
vn 0.0464 -0.9936 0.1033
vn 0.0915 -0.9899 0.1080
vn 0.9277 0.1982 0.3164
vn 0.9300 -0.1937 0.3125
vn 0.9472 0.0023 0.3207
vn 0.1057 0.9273 0.3590
vn 0.0950 0.9302 0.3546
vn 0.1007 0.9364 0.3362
vn -0.6616 -0.0184 0.7496
vn 0.0053 -0.9976 -0.0690
vn -0.0063 -0.9937 -0.1119
vn -0.0153 -0.9948 -0.1008
vn 0.7727 0.0109 -0.6347
vn 0.6334 0.0176 -0.7737
vn 0.6333 0.0178 -0.7737
vn 0.1390 0.8932 0.4277
vn 0.1385 0.8903 0.4338
vn 0.1553 0.8885 0.4317
vn 0.1188 0.8898 0.4405
vn -0.6350 -0.0194 0.7723
vn -0.0070 -0.9972 -0.0743
vn 0.9836 0.0031 0.1802
vn -0.0494 0.9975 -0.0509
vn -0.0455 0.9976 -0.0516
vn -0.0357 0.9982 -0.0488
vn -0.9970 -0.0073 0.0775
vn 0.0100 -0.7468 0.6649
vn -0.0074 -0.7709 0.6369
vn 0.0165 -0.7206 0.6932
vn 0.4188 -0.6831 0.5983
vn -0.4563 -0.5968 0.6600
vn 0.8452 -0.4722 0.2501
vn 0.5672 0.0601 0.8214
vn 0.4995 -0.0146 0.8662
vn 0.4599 0.0142 0.8879
vn 0.5728 -0.0487 0.8183
vn 0.8220 0.4644 0.3296
vn 0.1424 -0.0632 0.9878
vn 0.1665 -0.1594 0.9731
vn 0.2248 -0.0545 0.9729
vn 0.1447 0.0414 0.9886
vn -0.4310 0.5338 0.7275
vn -0.5961 -0.0386 0.8020
vn -0.6220 0.0158 0.7829
vn -0.6759 0.0199 0.7367
vn -0.6746 0.0191 0.7379
vn -0.9404 0.1318 0.3136
vn -0.9551 0.0256 0.2953
vn -0.9694 0.0276 0.2441
vn -0.9550 0.1428 0.2601
vn -0.9627 0.0248 0.2694
vn -0.9624 0.0266 0.2702
vn -0.7254 -0.0901 -0.6825
vn -0.7432 0.0264 -0.6685
vn -0.6931 0.0287 -0.7203
vn -0.6954 0.0272 -0.7181
vn -0.4011 0.1264 -0.9073
vn -0.3286 0.0099 -0.9444
vn -0.3094 0.0101 -0.9509
vn -0.3040 0.1365 -0.9428
vn -0.3168 0.0067 -0.9485
vn -0.3180 0.0100 -0.9480
vn 0.9510 0.1094 -0.2890
vn 0.9651 0.0036 -0.2619
vn 0.9684 0.0029 -0.2493
vn 0.9688 0.0022 -0.2480
vn 0.2980 -0.6804 -0.6695
vn 0.2979 -0.6800 -0.6699
vn 0.2885 -0.6799 -0.6742
vn 0.4110 -0.6794 -0.6079
vn 0.4214 -0.6640 -0.6176
vn 0.4161 -0.6717 -0.6129
vn 0.0838 -0.6431 -0.7612
vn 0.0857 -0.6345 -0.7682
vn 0.0816 -0.6517 -0.7540
vn 0.1832 -0.6578 -0.7305
vn 0.1832 -0.6581 -0.7303
vn 0.1942 -0.6579 -0.7276
vn -0.6809 -0.7168 0.1502
vn -0.5030 -0.6931 -0.5163
vn -0.4930 -0.7049 -0.5099
vn -0.4351 -0.6883 -0.5804
vn -0.4357 -0.6868 -0.5818
vn -0.2723 -0.7453 0.6087
vn -0.2772 -0.7362 0.6174
vn -0.1914 -0.7347 0.6509
vn -0.1914 -0.7349 0.6506
vn -0.4523 -0.7841 0.4249
vn -0.5353 -0.6697 0.5147
vn -0.4952 -0.7290 0.4726
vn -0.4955 -0.7284 0.4733
vn -0.1166 -0.7334 0.6697
vn -0.1187 -0.7256 0.6778
vn -0.1506 -0.7252 0.6719
vn -0.1494 -0.7162 0.6817
vn 0.0027 -0.6860 -0.7276
vn 0.0024 -0.6713 -0.7412
vn 0.0448 -0.6744 -0.7370
vn 0.0323 -0.6714 -0.7404
vn -0.1045 -0.7291 0.6764
vn -0.1027 -0.7400 0.6647
vn -0.1024 -0.7529 0.6501
vn -0.1167 -0.7112 0.6933
vn -0.5253 -0.6558 -0.5421
vn -0.5105 -0.6799 -0.5263
vn -0.5381 -0.6230 -0.5677
vn -0.5686 -0.7196 0.3986
vn -0.9750 0.0033 -0.2222
vn 0.1766 -0.7161 0.6752
vn 0.1432 -0.7246 0.6741
vn 0.1491 -0.7176 0.6803
vn -0.2205 -0.0368 0.9747
vn -0.2686 0.1987 0.9425
vn -0.2661 0.2011 0.9427
vn -0.2637 0.2000 0.9436
vn -0.1760 0.2574 0.9501
vn -0.1722 0.2504 0.9527
vn -0.1474 0.1432 0.9787
vn -0.2511 0.3278 0.9108
vn 0.1825 0.4845 0.8556
vn 0.1161 0.4177 0.9012
vn 0.0712 0.4386 0.8959
vn -0.5304 0.7327 0.4264
vn -0.6097 0.2628 -0.7478
vn -0.6080 0.2816 -0.7423
vn -0.6187 0.2333 -0.7501
vn -0.0657 0.3339 -0.9403
vn -0.0532 0.3312 -0.9420
vn 0.0732 0.2448 -0.9668
vn 0.1087 0.3057 -0.9459
vn -0.6347 0.5188 -0.5727
vn -0.6937 0.3753 -0.6148
vn -0.5490 0.6120 -0.5692
vn 0.7129 -0.6481 -0.2678
vn 0.6805 -0.6612 -0.3158
vn 0.7050 -0.6908 -0.1608
vn -0.5307 -0.5508 -0.6442
vn 0.1393 -0.5312 -0.8357
vn 0.3281 -0.5652 -0.7569
vn 0.3080 -0.5268 -0.7922
vn 0.8238 0.0290 -0.5662
vn -0.3463 0.0438 -0.9371
vn -0.9552 0.1718 0.2412
vn -0.5931 0.2785 -0.7554
vn 0.3025 0.5846 -0.7528
vn 0.2662 0.4850 -0.8330
vn 0.1358 0.5894 -0.7964
vn 0.2447 0.2226 -0.9437
vn 0.8751 0.3343 -0.3498
vn 0.9125 0.2756 -0.3023
vn 0.9144 0.3316 -0.2323
vn 0.1562 -0.7322 0.6629
vn 0.5330 -0.6887 0.4916
vn 0.4700 -0.6870 0.5541
vn 0.4400 -0.6966 0.5667
vn -0.1387 -0.6686 -0.7305
vn 0.4464 -0.5970 -0.6665
vn 0.6349 -0.5859 -0.5036
vn 0.5850 -0.6543 -0.4793
vn 0.9597 -0.0030 0.2811
vn 0.2010 0.0188 -0.9794
vn -0.1302 0.3181 -0.9391
vn 0.5824 0.6931 -0.4247
vn 0.6700 0.4343 -0.6020
vn 0.4449 0.6523 -0.6137
vn 0.1872 0.1450 0.9716
vn 0.7052 0.2727 0.6545
vn 0.6935 0.0750 0.7165
vn 0.5014 0.2250 0.8354
vn 0.5985 0.0458 -0.7998
vn 0.6239 0.0278 -0.7810
vn 0.6072 0.0064 -0.7945
vn 0.6165 0.0147 -0.7872
vn 0.1246 0.0694 -0.9898
vn 0.1247 0.0570 -0.9906
vn 0.1809 0.0321 -0.9830
vn 0.1734 -0.0251 -0.9845
vn 0.1015 0.0282 -0.9944
vn 0.3667 0.0438 -0.9293
vn -0.6894 0.0289 -0.7238
vn -0.6533 -0.0235 -0.7568
vn -0.7344 -0.0016 -0.6787
vn -0.9632 0.0065 -0.2685
vn -0.9410 -0.0265 -0.3372
vn -0.9484 -0.0457 -0.3137
vn -0.7993 -0.0273 0.6003
vn -0.6669 0.1095 0.7371
vn -0.6730 -0.0328 0.7389
vn -0.7087 -0.0821 0.7007
vn -0.6728 -0.0496 0.7382
vn -0.1269 -0.0285 0.9915
vn -0.1938 -0.0614 0.9791
vn -0.1762 -0.0827 0.9809
vn 0.7915 0.0127 -0.6110
vn 0.0046 -0.9992 -0.0393
vn 0.0108 -0.9991 -0.0413
vn 0.0097 -0.9990 -0.0445
vn -0.1515 -0.0279 0.9881
vn -0.1514 -0.0512 0.9871
vn -0.1515 -0.0395 0.9877
vn -0.2146 0.9648 0.1522
vn -0.2060 0.9641 0.1674
vn -0.2115 0.9647 0.1572
vn -0.2099 0.9651 0.1564
vn -0.0026 0.0393 -0.9992
vn 0.0164 -0.9966 -0.0807
vn 0.0225 -0.9972 -0.0710
vn 0.0196 -0.9968 -0.0778
vn -0.6540 0.0321 -0.7558
vn 0.1933 0.8855 -0.4225
vn 0.1733 0.8649 -0.4711
vn 0.1894 0.8698 -0.4556
vn 0.9397 0.0187 -0.3415
vn 0.0422 -0.9968 -0.0677
vn 0.0425 -0.9968 -0.0675
vn -0.2016 0.0172 -0.9793
vn 0.3920 0.9018 -0.1820
vn 0.3924 0.9017 -0.1816
vn 0.3912 0.9018 -0.1835
vn 0.6975 -0.0106 0.7165
vn 0.0238 -0.9979 -0.0598
vn 0.0235 -0.9979 -0.0597
vn 0.4454 0.1339 -0.8853
vn 0.4514 0.1506 -0.8795
vn 0.3976 0.1295 -0.9084
vn 0.4046 0.0999 -0.9090
vn 0.4313 0.1341 -0.8922
vn 0.1441 0.9800 -0.1370
vn 0.1425 0.9803 -0.1367
vn 0.1434 0.9802 -0.1366
vn 0.1844 -0.0117 0.9828
vn 0.0020 -0.9991 -0.0428
vn -0.0019 -0.9993 -0.0365
vn 0.0021 -0.9993 -0.0385
vn -0.9676 -0.0150 0.2522
vn -0.0338 0.9794 -0.1992
vn -0.0024 0.9750 -0.2221
vn -0.0060 0.9794 -0.2018
vn 0.2686 0.0412 -0.9624
vn 0.2385 -0.0060 -0.9711
vn 0.2498 0.0415 -0.9674
vn 0.0035 -0.9992 -0.0396
vn -0.4174 -0.0373 0.9080
vn -0.3003 -0.0389 0.9531
vn -0.2729 -0.0391 0.9613
vn 0.0716 0.9974 0.0120
vn 0.0650 0.9978 0.0139
vn 0.0740 0.9972 0.0078
vn -0.6313 0.0280 -0.7750
vn -0.6782 0.0258 -0.7344
vn -0.2021 0.9645 0.1699
vn -0.2013 0.9649 0.1686
vn -0.2010 0.9647 0.1700
vn 0.2901 -0.0363 0.9563
vn -0.0581 -0.9983 0.0095
vn -0.0699 -0.9975 0.0033
vn -0.0651 -0.9978 0.0076
vn -0.8001 -0.5651 -0.2015
vn -0.1561 -0.5601 0.8136
vn -0.8681 -0.0106 0.4962
vn -0.8937 0.0231 0.4481
vn -0.9196 0.0531 0.3893
vn -0.8677 -0.0451 0.4950
vn -0.1928 0.5383 0.8204
vn -0.9996 -0.0262 0.0044
vn -0.9906 -0.1344 0.0237
vn -0.9968 -0.0209 0.0769
vn -0.9969 0.0783 -0.0028
vn -0.7499 0.6426 -0.1573
vn 0.7232 -0.4430 -0.5298
vn 0.7297 -0.5353 -0.4255
vn 0.6666 -0.4743 -0.5751
vn -0.3455 -0.3939 -0.8518
vn -0.3051 0.4482 -0.8402
vn -0.2433 -0.0202 -0.9697
vn -0.3396 -0.1413 -0.9299
vn -0.3158 -0.0051 -0.9488
vn -0.2454 0.0501 -0.9681
vn 0.7390 0.5030 -0.4483
vn 0.7212 0.5738 -0.3882
vn 0.7961 0.3239 -0.5112
vn 0.6741 -0.7382 -0.0265
vn 0.8144 -0.5331 0.2291
vn 0.6041 -0.7730 0.1937
vn 0.7149 -0.6871 0.1299
vn 0.1805 -0.4308 -0.8842
vn 0.1764 0.4735 -0.8630
vn 0.8817 0.1538 0.4461
vn 0.9296 0.0862 0.3584
vn 0.9148 0.1796 0.3617
vn 0.8625 0.2235 0.4541
vn 0.6535 0.6487 0.3900
vn 0.5878 0.7655 0.2617
vn 0.8939 0.3135 0.3205
vn -0.6578 0.2330 -0.7162
vn -0.6741 0.2531 -0.6939
vn -0.6118 0.2325 -0.7561
vn 0.9628 0.0483 -0.2659
vn 0.9629 0.0496 -0.2653
vn 0.9632 0.0476 -0.2647
vn 0.9645 0.0088 0.2639
vn 0.6923 -0.0213 0.7213
vn 0.6916 -0.0238 0.7219
vn 0.2654 -0.0377 0.9634
vn 0.2630 -0.0367 0.9641
vn 0.2644 -0.0402 0.9636
vn -0.2476 -0.0232 0.9686
vn -0.6965 0.0009 0.7176
vn -0.6970 -0.0009 0.7170
vn -0.9571 0.0032 0.2896
vn -0.9577 0.0040 0.2879
vn -0.9574 0.0014 0.2889
vn -0.9632 0.0071 -0.2686
vn -0.6836 0.0409 -0.7287
vn -0.6826 0.0377 -0.7299
vn -0.3044 0.0806 -0.9491
vn -0.3013 0.0820 -0.9500
vn -0.3030 0.0774 -0.9498
vn 0.1731 0.1037 -0.9794
vn 0.1742 0.1026 -0.9793
vn 0.6765 0.0862 -0.7314
vn 0.6783 0.0869 -0.7297
vn 0.6784 0.0846 -0.7298
vn 0.6775 0.0857 -0.7305
vn -0.5775 0.0804 -0.8124
vn -0.5727 0.1495 -0.8060
vn -0.4890 0.1682 -0.8559
usemtl Baumstumpf_2Testur
s off
f 9/1/1 10/2/2 11/3/3 12/4/4
f 10/2/5 13/5/6 14/6/7 15/7/8 11/3/9
f 16/8/10 17/9/11 18/10/12 19/11/10 20/12/10
f 21/13/13 22/14/14 23/15/15 24/16/13 25/17/13
f 26/18/16 27/19/17 28/20/18 29/21/16 30/22/16
f 5/23/19 8/24/19 31/25/19 32/26/20 27/19/21 26/18/19
f 33/27/22 34/28/22 35/29/22 36/30/22
f 37/31/23 33/27/24 38/32/25 39/33/26
f 34/28/27 37/31/28 40/34/29 41/35/30
f 41/35/31 42/36/31 43/37/31 44/38/31
f 42/36/32 40/34/33 45/39/34 46/40/35
f 46/40/36 47/41/36 48/42/36 49/43/36
f 47/41/37 45/39/38 50/44/39 51/45/40
f 51/45/41 52/46/41 53/47/41 54/48/41
f 52/46/42 50/44/43 55/49/44 56/50/45
f 56/50/46 57/51/46 58/52/46 59/53/46
f 57/51/47 55/49/48 60/54/49 61/55/50
f 61/55/51 62/56/51 63/57/51 64/58/51
f 62/56/52 60/54/53 65/59/54 66/60/55
f 66/60/56 67/61/56 68/62/56 69/63/56
f 67/61/57 65/59/58 70/64/59 71/65/60
f 71/65/61 72/66/61 73/67/61 74/68/61
f 72/66/62 70/64/63 75/69/64 76/70/65
f 76/70/66 77/71/66 78/72/66 79/73/66
f 77/71/67 75/69/68 80/74/69 81/75/70
f 81/75/71 82/76/71 83/77/71 84/78/71
f 82/76/72 80/74/73 85/79/74 86/80/75
f 86/80/76 87/81/76 88/82/76 89/83/76
f 87/81/77 85/79/78 39/33/79 90/84/80
f 90/84/81 38/32/81 91/85/81 92/86/81
f 93/87/82 35/29/83 44/38/84 94/88/85
f 95/89/86 93/87/87 96/90/88 97/91/89
f 36/30/90 95/89/91 98/92/92 91/85/93
f 99/93/94 43/37/95 49/43/96 100/94/97
f 94/88/98 99/93/99 101/95/100 102/96/101
f 103/97/102 48/42/103 54/48/104 104/98/105
f 100/94/106 103/97/107 105/99/108 106/100/109
f 107/101/110 53/47/111 59/53/112 108/102/113
f 104/98/114 107/101/115 109/103/116 110/104/117
f 111/105/118 58/52/119 64/58/120 112/106/121
f 108/102/122 111/105/123 113/107/124 114/108/125
f 115/109/126 63/57/127 69/63/128 116/110/129
f 112/106/130 115/109/131 117/111/132 118/112/133
f 119/113/134 68/62/135 74/68/136 120/114/137
f 116/110/138 119/113/139 121/115/140 122/116/141
f 123/117/142 73/67/143 79/73/144 124/118/145
f 120/114/146 123/117/147 125/119/148 126/120/149
f 127/121/150 78/72/151 84/78/152 128/122/153
f 124/118/154 127/121/155 129/123/156 130/124/157
f 131/125/158 83/77/159 89/83/160 132/126/161
f 128/122/162 131/125/163 133/127/164 134/128/165
f 135/129/166 88/82/167 92/86/168 136/130/169
f 132/126/170 135/129/171 137/131/172 138/132/173
f 136/130/174 98/92/175 139/133/176 140/134/177
f 141/135/178 101/95/179 106/100/180 142/136/181
f 102/96/182 141/135/183 143/137/184 96/90/185
f 97/91/186 143/137/187 144/138/188 139/133/189
f 145/139/190 146/140/190 147/141/190 148/142/190
f 146/140/191 145/139/191 149/143/191 150/144/191
f 148/142/192 147/141/192 151/145/192 152/146/192
f 142/136/193 105/99/194 110/104/195 153/147/196
f 150/144/197 149/143/197 154/148/197 155/149/197
f 153/147/198 109/103/199 114/108/200 156/150/201
f 155/149/202 154/148/202 157/151/202 158/152/202
f 156/150/203 113/107/204 118/112/205 159/153/206
f 158/152/207 157/151/207 160/154/207 161/155/207
f 159/153/208 117/111/209 122/116/210 162/156/211
f 161/155/212 160/154/212 163/157/212 164/158/212
f 162/156/213 121/115/214 126/120/215 165/159/216
f 164/158/217 163/157/217 166/160/217 167/161/217
f 165/159/218 125/119/219 130/124/220 168/162/221
f 167/161/222 166/160/222 169/163/222 170/164/222
f 168/162/223 129/123/224 134/128/225 171/165/226
f 170/164/227 169/163/227 172/166/227 173/167/227
f 171/165/228 133/127/229 138/132/230 174/168/231
f 173/167/232 172/166/232 175/169/232 176/170/232
f 174/168/233 137/131/234 140/134/235 144/138/236
f 176/170/237 175/169/237 152/146/237 151/145/237
f 177/171/238 178/172/238 179/173/238 180/174/238
f 178/172/239 177/171/239 181/175/239 182/176/239
f 180/174/240 179/173/240 183/177/240 184/178/240
f 182/176/241 181/175/241 185/179/241 186/180/241
f 186/180/242 185/179/242 187/181/242 188/182/242
f 188/182/243 187/181/243 189/183/243 190/184/243
f 190/184/244 189/183/244 191/185/244 192/186/244
f 192/186/245 191/185/245 193/187/245 194/188/245
f 194/188/246 193/187/246 195/189/246 196/190/246
f 196/190/247 195/189/247 197/191/247 198/192/247
f 198/192/248 197/191/248 199/193/248 200/194/248
f 200/194/249 199/193/249 184/178/249 183/177/249
f 344/195/250 341/196/251 40/197/250 37/198/250
f 341/196/252 347/199/252 45/200/252 40/197/252
f 347/199/253 345/201/254 50/202/253 45/200/253
f 345/201/255 342/203/255 55/204/255 50/202/255
f 342/205/256 352/206/256 60/207/256 55/208/256
f 352/206/257 346/209/258 65/210/257 60/207/257
f 346/209/259 351/211/259 70/212/259 65/210/259
f 351/211/260 348/213/260 75/214/260 70/212/260
f 348/213/261 349/215/262 80/216/261 75/214/261
f 349/215/263 350/217/263 85/218/263 80/216/263
f 350/217/264 343/219/264 39/220/264 85/218/264
f 343/219/265 344/195/266 37/198/265 39/220/265
f 41/35/267 44/38/267 35/29/267 34/28/267
f 46/40/268 49/43/268 43/37/268 42/36/268
f 51/45/269 54/48/269 48/42/269 47/41/269
f 56/50/270 59/53/270 53/47/270 52/46/270
f 61/55/271 64/58/271 58/52/271 57/51/271
f 66/60/272 69/63/272 63/57/272 62/56/272
f 71/65/273 74/68/273 68/62/273 67/61/273
f 76/70/274 79/73/274 73/67/274 72/66/274
f 81/75/275 84/78/275 78/72/275 77/71/275
f 86/80/276 89/83/276 83/77/276 82/76/276
f 90/84/277 92/86/277 88/82/277 87/81/277
f 33/27/278 36/30/278 91/85/278 38/32/278
f 143/137/279 141/135/279 145/139/279 148/142/279
f 141/135/280 142/136/280 149/143/280 145/139/280
f 142/136/281 153/147/281 154/148/281 149/143/281
f 153/147/282 156/150/282 157/151/282 154/148/282
f 156/150/283 159/153/283 160/154/283 157/151/283
f 159/153/284 162/156/284 163/157/284 160/154/284
f 162/156/285 165/159/285 166/160/285 163/157/285
f 165/159/286 168/162/286 169/163/286 166/160/286
f 168/162/287 171/165/287 172/166/287 169/163/287
f 171/165/288 174/168/288 175/169/288 172/166/288
f 174/168/289 144/138/289 152/146/289 175/169/289
f 144/138/290 143/137/290 148/142/290 152/146/290
f 147/141/291 146/140/291 177/171/291 180/174/291
f 146/140/292 150/144/292 181/175/292 177/171/292
f 150/144/293 155/149/293 185/179/293 181/175/293
f 155/149/294 158/152/294 187/181/294 185/179/294
f 158/152/295 161/155/295 189/183/295 187/181/295
f 161/155/296 164/158/296 191/185/296 189/183/296
f 164/158/297 167/161/297 193/187/297 191/185/297
f 167/161/298 170/164/298 195/189/298 193/187/298
f 170/164/299 173/167/299 197/191/299 195/189/299
f 173/167/300 176/170/300 199/193/300 197/191/300
f 176/170/301 151/145/301 184/178/301 199/193/301
f 151/145/302 147/141/302 180/174/302 184/178/302
f 179/173/303 178/172/303 204/221/303
f 178/172/304 182/176/304 204/221/304
f 182/176/305 186/180/305 204/221/305
f 186/180/306 188/182/306 204/221/306
f 188/182/307 190/184/307 204/221/307
f 190/184/308 192/186/308 204/221/308
f 192/186/309 194/188/309 204/221/309
f 194/188/310 196/190/310 204/221/310
f 196/190/311 198/192/311 204/221/311
f 198/192/312 200/194/312 204/221/312
f 200/194/313 183/177/313 204/221/313
f 183/177/314 179/173/314 204/221/314
f 102/96/315 96/90/316 93/87/317 94/88/318
f 106/100/319 101/95/320 99/93/321 100/94/322
f 110/104/323 105/99/324 103/97/325 104/98/326
f 114/108/327 109/103/328 107/101/329 108/102/330
f 118/112/331 113/107/332 111/105/333 112/106/334
f 122/116/335 117/111/336 115/109/337 116/110/338
f 126/120/339 121/115/340 119/113/341 120/114/342
f 130/124/343 125/119/344 123/117/345 124/118/346
f 134/128/347 129/123/348 127/121/349 128/122/350
f 138/132/351 133/127/352 131/125/353 132/126/354
f 140/134/355 137/131/356 135/129/357 136/130/358
f 95/89/359 97/91/360 139/133/361 98/92/362
f 33/27/363 37/31/364 34/28/365
f 41/35/366 40/34/367 42/36/368
f 46/40/369 45/39/370 47/41/371
f 51/45/372 50/44/373 52/46/374
f 56/50/375 55/49/376 57/51/377
f 61/55/378 60/54/379 62/56/380
f 66/60/381 65/59/382 67/61/383
f 71/65/384 70/64/385 72/66/386
f 76/70/387 75/69/388 77/71/389
f 81/75/390 80/74/391 82/76/392
f 86/80/393 85/79/394 87/81/395
f 90/84/396 39/33/397 38/32/398
f 35/29/399 93/87/400 95/89/401 36/30/402
f 43/37/403 99/93/404 94/88/405 44/38/406
f 48/42/407 103/97/408 100/94/409 49/43/410
f 53/47/411 107/101/412 104/98/413 54/48/414
f 58/52/415 111/105/416 108/102/417 59/53/418
f 63/57/419 115/109/420 112/106/421 64/58/422
f 68/62/423 119/113/424 116/110/425 69/63/426
f 73/67/427 123/117/428 120/114/429 74/68/430
f 78/72/431 127/121/432 124/118/433 79/73/434
f 83/77/435 131/125/436 128/122/437 84/78/438
f 88/82/439 135/129/440 132/126/441 89/83/442
f 91/85/443 98/92/444 136/130/445 92/86/446
f 141/135/447 102/96/448 101/95/449
f 96/90/450 143/137/451 97/91/452
f 142/136/453 106/100/454 105/99/455
f 153/147/456 110/104/457 109/103/458
f 156/150/459 114/108/460 113/107/461
f 159/153/462 118/112/463 117/111/464
f 162/156/465 122/116/466 121/115/467
f 165/159/468 126/120/469 125/119/470
f 168/162/471 130/124/472 129/123/473
f 171/165/474 134/128/475 133/127/476
f 174/168/477 138/132/478 137/131/479
f 144/138/480 140/134/481 139/133/482
f 205/222/483 6/223/483 5/23/483 26/18/483 206/224/484 207/225/485
f 208/226/486 206/224/487 26/18/488 30/22/488 203/227/489
f 23/15/490 209/228/491 210/229/492 208/226/493 203/227/494 24/16/495
f 211/230/496 3/231/496 212/232/496 213/233/496
f 213/233/497 212/232/497 214/234/498 215/235/499
f 2/236/500 205/237/500 216/238/500 217/239/500
f 217/239/501 216/238/501 218/240/502 219/241/503
f 220/242/504 221/243/504 215/235/505 214/234/506
f 222/244/507 220/242/507 223/245/507 224/246/507
f 221/243/508 222/244/508 225/247/508 226/248/508
f 227/249/509 223/245/509 219/241/510 218/240/511
f 224/246/512 227/249/512 228/250/512 229/251/512
f 207/252/513 210/253/513 230/254/513 231/255/513
f 231/255/514 230/254/514 232/256/515 233/257/516
f 234/258/517 228/250/517 233/257/518 232/256/519
f 229/251/520 234/258/520 235/259/520 225/247/520
f 209/260/521 236/261/521 237/262/521 238/263/521
f 238/263/522 237/262/522 239/264/523 240/265/524
f 226/248/525 235/259/525 240/265/526 239/264/527
f 222/244/528 224/246/528 229/251/528 225/247/528
f 214/234/529 219/241/530 223/245/531 220/242/531
f 218/240/532 233/257/533 228/250/534 227/249/534
f 232/256/535 240/265/536 235/259/537 234/258/537
f 239/264/538 215/235/538 221/243/538 226/248/538
f 212/232/539 217/239/539 219/241/540 214/234/541
f 216/238/542 231/255/542 233/257/543 218/240/544
f 230/254/545 238/263/546 240/265/547 232/256/548
f 237/262/549 213/233/549 215/235/549 239/264/549
f 212/232/550 3/231/550 2/236/550 217/239/550
f 216/238/551 205/237/551 207/252/551 231/255/551
f 230/254/552 210/253/553 209/260/553 238/263/554
f 237/262/555 236/261/555 211/230/555 213/233/555
f 211/266/556 241/267/557 242/268/558 4/269/556 3/270/556
f 2/271/559 1/272/559 6/223/559 205/222/559
f 220/242/560 222/244/560 221/243/560
f 227/249/561 224/246/561 223/245/561
f 207/225/562 206/224/563 208/226/564 210/229/565
f 234/258/566 229/251/566 228/250/566
f 209/228/567 23/15/568 22/14/569 236/273/570
f 226/248/571 225/247/571 235/259/571
f 243/274/572 244/275/573 21/13/574 25/17/574 202/276/575
f 18/10/576 245/277/577 246/278/578 243/274/579 202/276/580 19/11/581
f 247/279/582 248/280/583 16/281/584 20/282/584 201/283/585
f 14/6/586 249/284/587 250/285/588 247/279/589 201/283/590 15/7/591
f 28/20/592 251/286/593 9/1/594 12/4/595 29/21/594
f 252/287/596 253/288/597 254/289/598 255/290/598
f 253/291/599 252/292/600 256/293/601 257/294/601
f 257/294/602 256/293/602 258/295/603 259/296/604
f 259/297/605 258/298/606 260/299/607 261/300/607
f 262/301/608 263/302/608 264/303/608 265/304/608
f 268/305/609 267/306/610 269/307/611 270/308/612
f 271/309/613 272/310/614 273/311/615 274/312/616
f 272/313/617 271/314/618 275/315/619 276/316/620
f 276/316/621 275/315/622 242/268/623 241/267/624
f 270/308/625 269/307/626 277/317/627 278/318/628
f 274/312/629 273/311/630 279/319/631 280/320/632
f 281/321/633 282/322/633 278/318/634 277/317/635
f 283/323/636 281/321/636 284/324/636 285/325/636
f 282/322/637 283/323/637 286/326/637 287/327/637
f 288/328/638 284/324/638 280/320/639 279/319/640
f 285/325/641 288/328/641 289/329/641 290/330/641
f 291/331/642 246/332/642 292/333/643 293/334/644
f 293/334/645 292/333/646 294/335/647 295/336/648
f 296/337/649 289/329/649 295/336/650 294/335/651
f 290/330/652 296/337/652 297/338/652 286/326/652
f 245/339/653 298/340/653 299/341/654 300/342/655
f 300/342/656 299/341/657 301/343/658 302/344/659
f 287/327/660 297/338/660 302/344/661 301/343/662
f 261/300/663 260/299/663 303/345/664 304/346/665
f 265/304/666 264/303/666 305/347/666 306/348/666
f 307/349/667 303/345/668 306/348/669 308/350/669
f 304/346/670 307/349/670 309/351/670 310/352/670
f 308/350/671 305/347/671 311/353/671 312/354/671
f 313/355/672 250/356/672 314/357/672 315/358/672
f 315/358/673 314/357/673 316/359/673 311/353/673
f 312/354/674 316/359/674 317/360/675 309/351/676
f 249/361/677 318/362/677 319/363/677 320/364/677
f 320/364/678 319/363/678 310/352/679 317/360/680
f 31/365/681 321/366/681 322/367/681 323/368/681
f 323/368/682 322/367/682 324/369/683 325/370/684
f 255/290/685 254/289/685 326/371/685 327/372/685
f 328/373/686 324/369/687 327/372/688 329/374/688
f 325/370/689 328/373/689 330/375/689 331/376/689
f 329/374/690 326/371/690 332/377/690 333/378/690
f 334/379/691 332/377/691 335/380/691 336/381/691
f 333/378/692 334/379/692 337/382/693 330/375/694
f 251/383/695 32/384/695 338/385/695 339/386/695
f 339/386/696 338/385/696 331/376/697 337/382/698
f 253/291/699 257/294/700 10/2/701 9/1/702
f 257/294/703 259/296/704 318/387/705 13/5/706 10/2/707
f 307/349/708 308/350/708 312/354/708 309/351/708
f 263/388/709 266/389/709 16/281/709 248/280/710 313/390/711
f 266/391/712 268/392/712 298/393/713 17/9/714 16/8/712
f 283/323/715 285/325/715 290/330/715 286/326/715
f 272/313/716 276/316/717 21/13/717 244/275/718 291/394/719
f 276/316/720 241/267/720 211/266/720 236/273/721 22/14/722 21/13/720
f 328/373/723 329/374/723 333/378/723 330/375/723
f 269/307/724 274/312/724 280/320/725 277/317/726
f 273/311/727 293/334/728 295/336/729 279/319/729
f 292/333/730 300/342/731 302/344/732 294/335/733
f 299/341/734 270/308/734 278/318/734 301/343/734
f 260/299/735 265/304/736 306/348/737 303/345/737
f 264/303/738 315/358/738 311/353/738 305/347/738
f 314/357/739 320/364/740 317/360/741 316/359/741
f 319/363/742 261/300/742 304/346/742 310/352/742
f 322/367/743 255/290/744 327/372/743 324/369/743
f 254/289/745 335/380/745 332/377/745 326/371/745
f 334/379/746 336/381/747 339/386/748 337/382/746
f 338/385/749 323/368/749 325/370/749 331/376/749
f 322/367/750 321/366/750 252/287/750 255/290/751
f 253/288/752 9/395/753 340/396/754 335/380/755 254/289/756
f 9/395/757 251/383/757 339/386/758 336/381/759 340/396/757
f 338/385/760 32/384/760 31/365/760 323/368/760
f 258/298/761 262/301/761 265/304/762 260/299/763
f 263/302/764 313/355/764 315/358/764 264/303/764
f 314/357/765 250/356/766 249/361/766 320/364/767
f 319/363/768 318/362/769 259/297/770 261/300/768
f 267/306/771 271/309/771 274/312/771 269/307/771
f 272/310/772 291/331/773 293/334/774 273/311/774
f 292/333/775 246/332/776 245/339/776 300/342/777
f 299/341/778 298/340/778 268/305/778 270/308/778
f 301/343/779 278/318/779 282/322/779 287/327/779
f 294/335/780 302/344/781 297/338/782 296/337/782
f 279/319/783 295/336/783 289/329/783 288/328/783
f 277/317/784 280/320/785 284/324/786 281/321/786
f 281/321/787 283/323/787 282/322/787
f 288/328/788 285/325/788 284/324/788
f 291/394/789 244/275/790 243/274/791 246/278/792
f 296/337/793 290/330/793 289/329/793
f 245/277/794 18/10/795 17/9/796 298/393/797
f 287/327/798 286/326/798 297/338/798
f 303/345/799 307/349/800 304/346/801
f 305/347/802 308/350/802 306/348/802
f 316/359/803 312/354/803 311/353/803
f 249/284/804 14/6/805 13/5/806 318/387/807
f 310/352/808 309/351/809 317/360/810
f 31/25/811 8/24/811 7/397/811 321/398/811
f 324/369/812 328/373/813 325/370/814
f 326/371/815 329/374/815 327/372/815
f 334/379/816 333/378/816 332/377/816
f 251/286/817 28/20/818 27/19/819 32/26/820
f 331/376/821 330/375/822 337/382/823
f 336/381/824 335/380/825 340/396/826
f 29/21/827 12/4/828 344/195/829 343/219/827
f 30/22/830 29/21/830 343/219/830 350/217/830
f 203/227/831 30/22/832 350/217/832 349/215/832
f 24/16/833 203/227/834 349/215/835 348/213/833
f 25/17/836 24/16/836 348/213/836 351/211/836
f 202/276/837 25/17/838 351/211/838 346/209/838
f 19/11/839 202/276/840 346/209/841 352/206/839
f 20/12/842 19/11/842 352/206/842 342/205/842
f 201/283/843 20/282/844 342/203/844 345/201/844
f 15/7/845 201/283/846 345/201/847 347/199/845
f 11/3/848 15/7/849 347/199/849 341/196/849
f 12/4/850 11/3/851 341/196/852 344/195/853
f 313/390/854 248/280/855 247/279/856 250/285/854
