# Blender v2.79 (sub 0) OBJ File: 'Burg Test.blend'
# www.blender.org
mtllib Baun_Hängend_Einzeln_Final.mtl
o Holzstamm_Cylinder
v -0.373247 7.969090 -124.321419
v -0.359852 8.155805 -135.017349
v -0.372978 7.403768 -124.195007
v -0.407022 7.673151 -135.275070
v -0.088284 7.523015 -124.303154
v -0.031223 7.708159 -135.024475
v 0.165486 7.643924 -124.262825
v 0.300758 7.748208 -135.036163
v 0.224732 7.864467 -124.349388
v 0.410559 7.960511 -135.017258
v 0.209703 8.066654 -124.608284
v 0.358398 8.186199 -134.920914
v 0.126906 8.202083 -124.312531
v 0.326829 8.418479 -134.909164
v -0.085768 8.413350 -124.283661
v 0.119297 8.609692 -134.879044
v -0.372978 8.417122 -124.356499
v -0.222901 8.665676 -134.915710
v -0.629524 8.366427 -124.368126
v -0.574845 8.595671 -134.991470
v -0.808897 8.228042 -124.410072
v -0.896894 8.439165 -135.036987
v -0.920164 8.061003 -124.408051
v -1.036997 8.234890 -135.004944
v -0.969551 7.835467 -124.568031
v -1.032526 8.066019 -134.990326
v -0.896794 7.693721 -124.284912
v -1.004076 7.909497 -135.128662
v -0.712747 7.435798 -124.153885
v -0.819974 7.737616 -135.320557
v -0.361158 7.420885 -126.862053
v -0.343384 7.432522 -129.701035
v -0.362255 7.453481 -132.523514
v -0.037743 7.588141 -132.439713
v -0.004724 7.550474 -129.675049
v -0.037516 7.545201 -126.920654
v 0.264780 7.695141 -132.479691
v 0.302044 7.638059 -129.676788
v 0.253440 7.652689 -126.903641
v 0.373273 7.931467 -132.474350
v 0.403801 7.854632 -129.695450
v 0.332058 7.886832 -126.970551
v 0.323271 8.171837 -132.421997
v 0.367650 8.062755 -129.656830
v 0.303312 8.106327 -126.966347
v 0.244995 8.403176 -132.473053
v 0.279877 8.271037 -129.666061
v 0.133010 8.240831 -126.942581
v 0.000619 8.553243 -132.508835
v 0.021362 8.434080 -129.683243
v -0.033835 8.372441 -126.933334
v -0.357957 8.559925 -132.518173
v -0.345455 8.459520 -129.730499
v -0.373667 8.313934 -126.994408
v -0.708394 8.520513 -132.506531
v -0.687052 8.407531 -129.735504
v -0.684146 8.341317 -126.998550
v -0.966062 8.387983 -132.498581
v -0.932921 8.254131 -129.754959
v -0.862706 8.266722 -127.026909
v -1.055707 8.169235 -132.428757
v -1.040265 8.049554 -129.715240
v -1.017727 8.098919 -127.002213
v -1.030432 7.947896 -132.367477
v -1.046699 7.841560 -129.658081
v -1.047110 7.893020 -126.937416
v -0.964553 7.719798 -132.432663
v -0.973886 7.631475 -129.681183
v -0.967134 7.668382 -126.905785
v -0.757053 7.487507 -132.525009
v -0.756530 7.433033 -129.693329
v -0.754330 7.443369 -126.831528
v -0.343606 7.462785 -130.844864
v -0.352025 7.462092 -131.434814
v -0.024260 7.583326 -131.374207
v -0.013047 7.566579 -130.762405
v 0.275582 7.666604 -131.366287
v 0.288296 7.639620 -130.729538
v 0.338959 7.904804 -131.146469
v 0.402008 7.907188 -130.789642
v 0.328413 8.161587 -131.298065
v 0.339384 8.098445 -130.481033
v 0.231144 8.326675 -131.197510
v 0.281574 8.355472 -130.792923
v 0.006232 8.521707 -131.401077
v 0.008803 8.485320 -130.742249
v -0.349163 8.532410 -131.460892
v -0.352367 8.514056 -130.835678
v -0.698183 8.487717 -131.447754
v -0.696630 8.463786 -130.860611
v -0.954293 8.344935 -131.433792
v -0.945553 8.306738 -130.862946
v -1.050773 8.129495 -131.390793
v -1.045320 8.092414 -130.831741
v -1.035097 7.915947 -131.354294
v -1.039338 7.886770 -130.796249
v -0.965586 7.699939 -131.387772
v -0.966756 7.680407 -130.821243
v -0.753298 7.485121 -131.431381
v -0.750441 7.479715 -130.848923
v 0.611886 8.015129 -131.113174
v 0.659868 8.015835 -130.862427
v 0.605831 8.215618 -131.229279
v 0.614440 8.164227 -130.744171
v 0.531249 8.347636 -131.143219
v 0.571503 8.359025 -130.858429
v -0.057050 7.542634 -125.794746
v 0.217048 7.654422 -125.765190
v 0.286818 7.874328 -125.837631
v 0.263931 8.068078 -125.942162
v 0.177251 8.225595 -125.794312
v -0.054252 8.394438 -125.771988
v -0.372187 8.429684 -125.842865
v -0.659978 8.355326 -125.857765
v -0.821525 8.274545 -125.895348
v -0.975122 8.090946 -125.881439
v -1.012786 7.871040 -125.914635
v -0.935218 7.684219 -125.775978
v -0.733954 7.447257 -125.679474
v -0.363389 7.421484 -125.716133
vt 0.061237 0.426732
vt 0.047942 0.373708
vt 0.075079 0.378339
vt 0.185174 0.417478
vt 0.207881 0.462598
vt 0.167929 0.464348
vt 0.745045 0.086511
vt 0.995100 0.083728
vt 0.972248 0.118356
vt 0.737566 0.118514
vt 0.098729 0.380943
vt 0.237190 0.464348
vt 0.973578 0.148645
vt 0.741383 0.147954
vt 0.110325 0.397518
vt 0.250016 0.447903
vt 0.972269 0.170318
vt 0.741327 0.171992
vt 0.122448 0.422006
vt 0.250150 0.426051
vt 0.963716 0.191491
vt 0.736910 0.193153
vt 0.109488 0.446915
vt 0.251223 0.405622
vt 0.962946 0.212752
vt 0.741643 0.214145
vt 0.092843 0.466059
vt 0.237059 0.385296
vt 0.960038 0.238330
vt 0.744454 0.240770
vt 0.067827 0.469514
vt 0.208432 0.374422
vt 0.962504 0.269913
vt 0.744151 0.273851
vt 0.045483 0.469514
vt 0.176080 0.373708
vt 0.968004 0.302866
vt 0.741873 0.306023
vt 0.027388 0.462230
vt 0.144861 0.379810
vt 0.970633 0.335745
vt 0.739977 0.332345
vt 0.014328 0.451593
vt 0.128122 0.393891
vt 0.966662 0.358206
vt 0.732446 0.353530
vt 0.000083 0.433019
vt 0.124373 0.408221
vt 0.964638 0.373511
vt 0.725710 0.373542
vt 0.008869 0.407500
vt 0.122613 0.426551
vt 0.733472 0.000083
vt 0.972185 0.006137
vt 0.983725 0.021434
vt 0.738405 0.022067
vt 0.020313 0.381341
vt 0.133049 0.452173
vt 0.999917 0.045461
vt 0.745683 0.050669
vt 0.134774 0.058080
vt 0.236509 0.054924
vt 0.239755 0.089640
vt 0.138483 0.090958
vt 0.488371 0.051016
vt 0.489638 0.087729
vt 0.645887 0.048876
vt 0.645745 0.085642
vt 0.142803 0.030393
vt 0.242502 0.027470
vt 0.487065 0.024845
vt 0.642316 0.021081
vt 0.154556 0.012177
vt 0.244693 0.006344
vt 0.484832 0.005041
vt 0.639687 0.000083
vt 0.147920 0.315842
vt 0.246534 0.322624
vt 0.239549 0.340541
vt 0.149441 0.335660
vt 0.485842 0.343797
vt 0.479159 0.361936
vt 0.637546 0.350914
vt 0.632660 0.370151
vt 0.150216 0.294813
vt 0.249895 0.302599
vt 0.491057 0.323427
vt 0.642931 0.329795
vt 0.147546 0.278796
vt 0.248249 0.285355
vt 0.490967 0.297287
vt 0.645200 0.303298
vt 0.147100 0.252602
vt 0.249130 0.257730
vt 0.492026 0.266181
vt 0.647006 0.271490
vt 0.142089 0.224369
vt 0.245057 0.226831
vt 0.489153 0.232708
vt 0.641672 0.239172
vt 0.145243 0.199388
vt 0.246642 0.207966
vt 0.488393 0.204923
vt 0.621266 0.212643
vt 0.158952 0.184115
vt 0.249616 0.188877
vt 0.487719 0.186824
vt 0.629849 0.193059
vt 0.150070 0.166692
vt 0.250301 0.169349
vt 0.490595 0.169974
vt 0.617121 0.167981
vt 0.143731 0.146265
vt 0.244396 0.147518
vt 0.488519 0.148361
vt 0.638122 0.145748
vt 0.145916 0.120017
vt 0.245433 0.120126
vt 0.487852 0.119763
vt 0.639637 0.117375
vt 0.592167 0.085627
vt 0.584786 0.116433
vt 0.581673 0.143341
vt 0.586719 0.167026
vt 0.566405 0.189091
vt 0.586745 0.214782
vt 0.567053 0.189101
vt 0.590140 0.189582
vt 0.596294 0.197347
vt 0.605701 0.183365
vt 0.595588 0.183266
vt 0.583113 0.239687
vt 0.590916 0.271403
vt 0.592290 0.302323
vt 0.591124 0.328698
vt 0.586554 0.349765
vt 0.581593 0.368030
vt 0.588089 0.001746
vt 0.590142 0.021787
vt 0.592497 0.048735
vt 0.608343 0.191505
vt 0.606761 0.197669
vt 0.004183 0.092117
vt 0.014245 0.119106
vt 0.011142 0.143902
vt 0.018743 0.164024
vt 0.041305 0.182301
vt 0.014771 0.195451
vt 0.011073 0.221746
vt 0.016457 0.247312
vt 0.016505 0.270465
vt 0.019334 0.290524
vt 0.018180 0.308183
vt 0.030799 0.329494
vt 0.035771 0.019464
vt 0.011136 0.034075
vt 0.000083 0.062148
vn -0.0289 0.1247 0.9918
vn 0.2394 -0.6523 0.7191
vn 0.3385 -0.6771 0.6534
vn 0.1226 0.2519 -0.9600
vn 0.2979 -0.6827 -0.6672
vn 0.2935 -0.4903 -0.8206
vn 0.1087 -0.9933 -0.0388
vn 0.2942 -0.9554 -0.0262
vn 0.5630 -0.4124 0.7161
vn 0.4958 -0.5896 -0.6376
vn 0.6547 -0.7557 -0.0120
vn 0.7429 0.3049 0.5959
vn 0.7641 0.0287 -0.6444
vn 0.9936 -0.1127 0.0096
vn 0.9283 0.2868 0.2365
vn 0.7505 0.3104 -0.5834
vn 0.9689 0.2467 0.0178
vn 0.7292 0.0262 0.6837
vn 0.6690 0.4657 -0.5792
vn 0.8068 0.5900 0.0316
vn 0.2403 0.6899 0.6828
vn 0.3143 0.7885 -0.5286
vn 0.3321 0.9425 0.0368
vn -0.1489 0.7679 0.6229
vn 0.0626 0.8108 -0.5819
vn -0.0441 0.9985 0.0308
vn -0.3606 0.6734 0.6453
vn -0.1327 0.7482 -0.6500
vn -0.3048 0.9521 0.0245
vn -0.5765 0.5499 0.6043
vn -0.5051 0.5042 -0.7005
vn -0.7129 0.7011 0.0145
vn -0.7201 0.0873 0.6883
vn -0.7663 0.1108 -0.6329
vn -0.9836 0.1801 0.0038
vn -0.9587 -0.0598 0.2780
vn -0.8418 0.0388 -0.5383
vn -0.9840 -0.1781 -0.0063
vn -0.7915 0.0942 0.6038
vn -0.8070 0.0158 -0.5903
vn -0.8725 -0.4884 -0.0148
vn -0.3748 -0.5458 0.7494
vn -0.4024 -0.3323 -0.8530
vn -0.4358 -0.8993 -0.0354
vn -0.4620 -0.8868 0.0080
vn -0.4202 -0.9074 0.0094
vn 0.1579 -0.9874 0.0013
vn 0.1534 -0.9881 -0.0028
vn -0.3822 -0.9239 -0.0165
vn 0.1552 -0.9878 -0.0142
vn -0.4161 -0.9093 -0.0054
vn 0.1470 -0.9891 -0.0048
vn -0.8564 -0.5158 0.0224
vn -0.8501 -0.5264 0.0162
vn -0.8391 -0.5438 -0.0106
vn -0.8569 -0.5152 -0.0126
vn -0.9944 -0.1004 0.0334
vn -0.9943 -0.1045 0.0204
vn -0.9894 -0.1451 -0.0025
vn -0.9821 -0.1878 -0.0085
vn -0.9094 0.4143 0.0356
vn -0.9229 0.3846 0.0182
vn -0.9590 0.2833 0.0082
vn -0.9844 0.1751 0.0155
vn -0.6327 0.7741 0.0204
vn -0.6331 0.7739 0.0138
vn -0.7092 0.7046 0.0254
vn -0.7375 0.6742 0.0389
vn -0.3242 0.9460 -0.0082
vn -0.2566 0.9665 0.0005
vn -0.3060 0.9513 0.0382
vn -0.3135 0.9488 0.0382
vn -0.0694 0.9971 -0.0300
vn -0.0485 0.9988 -0.0073
vn -0.0411 0.9982 0.0438
vn -0.0471 0.9983 0.0330
vn 0.3459 0.9382 -0.0109
vn 0.2915 0.9565 -0.0020
vn 0.2771 0.9598 0.0446
vn 0.3151 0.9486 0.0295
vn 0.7533 0.6574 0.0181
vn 0.6841 0.7291 0.0177
vn 0.7412 0.6705 0.0311
vn 0.4863 0.8543 -0.1835
vn 0.9252 0.3780 0.0325
vn 0.9158 0.4006 0.0285
vn 0.9451 0.3264 0.0146
vn 0.8394 0.2429 -0.4861
vn 0.9961 -0.0798 0.0384
vn 0.9944 -0.1009 0.0307
vn 0.9945 -0.1042 0.0052
vn 0.8509 -0.4695 -0.2355
vn 0.7443 -0.6674 0.0217
vn 0.7107 -0.7031 0.0202
vn 0.6688 -0.7435 0.0011
vn 0.6865 -0.7265 -0.0280
vn 0.3748 -0.9271 0.0021
vn 0.3437 -0.9390 0.0043
vn 0.3072 -0.9516 -0.0060
vn 0.3111 -0.9502 -0.0196
vn 0.1473 -0.9889 -0.0193
vn 0.2882 -0.9573 -0.0227
vn 0.6614 -0.7491 -0.0379
vn 0.8276 -0.5459 0.1306
vn 0.9442 0.2575 0.2054
vn 0.4309 0.8865 0.1684
vn 0.8271 0.1440 0.5432
vn 0.5520 0.8069 0.2101
vn 0.7535 -0.5198 -0.4025
vn 0.8568 -0.4921 0.1539
vn 0.2944 0.9551 0.0331
vn -0.0452 0.9980 0.0439
vn -0.3386 0.9398 0.0462
vn -0.7421 0.6689 0.0428
vn -0.9782 0.2070 0.0156
vn -0.9846 -0.1747 -0.0103
vn -0.8419 -0.5392 -0.0226
vn -0.3873 -0.9217 -0.0227
vn 0.7059 0.1608 -0.6898
vn 0.4521 0.8079 -0.3781
usemtl BaumTextur
s 1
f 1/1/1 3/2/2 5/3/3
f 2/4/4 6/5/5 4/6/6
f 33/7/7 4/8/6 6/9/5 34/10/8
f 1/1/1 5/3/3 7/11/9
f 2/4/4 8/12/10 6/5/5
f 34/10/8 6/9/5 8/13/10 37/14/11
f 1/1/1 7/11/9 9/15/12
f 2/4/4 10/16/13 8/12/10
f 37/14/11 8/13/10 10/17/13 40/18/14
f 1/1/1 9/15/12 11/19/15
f 2/4/4 12/20/16 10/16/13
f 40/18/14 10/17/13 12/21/16 43/22/17
f 1/1/1 11/19/15 13/23/18
f 2/4/4 14/24/19 12/20/16
f 43/22/17 12/21/16 14/25/19 46/26/20
f 1/1/1 13/23/18 15/27/21
f 2/4/4 16/28/22 14/24/19
f 46/26/20 14/25/19 16/29/22 49/30/23
f 1/1/1 15/27/21 17/31/24
f 2/4/4 18/32/25 16/28/22
f 49/30/23 16/29/22 18/33/25 52/34/26
f 1/1/1 17/31/24 19/35/27
f 2/4/4 20/36/28 18/32/25
f 52/34/26 18/33/25 20/37/28 55/38/29
f 1/1/1 19/35/27 21/39/30
f 2/4/4 22/40/31 20/36/28
f 55/38/29 20/37/28 22/41/31 58/42/32
f 1/1/1 21/39/30 23/43/33
f 2/4/4 24/44/34 22/40/31
f 58/42/32 22/41/31 24/45/34 61/46/35
f 1/1/1 23/43/33 25/47/36
f 2/4/4 26/48/37 24/44/34
f 61/46/35 24/45/34 26/49/37 64/50/38
f 1/1/1 25/47/36 27/51/39
f 2/4/4 28/52/40 26/48/37
f 64/53/38 26/54/37 28/55/40 67/56/41
f 1/1/1 27/51/39 29/57/42
f 2/4/4 30/58/43 28/52/40
f 67/56/41 28/55/40 30/59/43 70/60/44
f 1/1/1 29/57/42 3/2/2
f 2/4/4 4/6/6 30/58/43
f 70/60/44 30/59/43 4/8/6 33/7/7
f 119/61/45 72/62/46 31/63/47 120/64/48
f 72/62/46 71/65/49 32/66/50 31/63/47
f 99/67/51 70/60/44 33/7/7 74/68/52
f 118/69/53 69/70/54 72/62/46 119/61/45
f 69/70/54 68/71/55 71/65/49 72/62/46
f 97/72/56 67/56/41 70/60/44 99/67/51
f 117/73/57 66/74/58 69/70/54 118/69/53
f 66/74/58 65/75/59 68/71/55 69/70/54
f 95/76/60 64/53/38 67/56/41 97/72/56
f 116/77/61 63/78/62 66/79/58 117/80/57
f 63/78/62 62/81/63 65/82/59 66/79/58
f 93/83/64 61/46/35 64/50/38 95/84/60
f 115/85/65 60/86/66 63/78/62 116/77/61
f 60/86/66 59/87/67 62/81/63 63/78/62
f 91/88/68 58/42/32 61/46/35 93/83/64
f 114/89/69 57/90/70 60/86/66 115/85/65
f 57/90/70 56/91/71 59/87/67 60/86/66
f 89/92/72 55/38/29 58/42/32 91/88/68
f 113/93/73 54/94/74 57/90/70 114/89/69
f 54/94/74 53/95/75 56/91/71 57/90/70
f 87/96/76 52/34/26 55/38/29 89/92/72
f 112/97/77 51/98/78 54/94/74 113/93/73
f 51/98/78 50/99/79 53/95/75 54/94/74
f 85/100/80 49/30/23 52/34/26 87/96/76
f 111/101/81 48/102/82 51/98/78 112/97/77
f 48/102/82 47/103/83 50/99/79 51/98/78
f 83/104/84 46/26/20 49/30/23 85/100/80
f 110/105/85 45/106/86 48/102/82 111/101/81
f 45/106/86 44/107/87 47/103/83 48/102/82
f 81/108/88 43/22/17 46/26/20 83/104/84
f 109/109/89 42/110/90 45/106/86 110/105/85
f 42/110/90 41/111/91 44/107/87 45/106/86
f 79/112/92 40/18/14 43/22/17 81/108/88
f 108/113/93 39/114/94 42/110/90 109/109/89
f 39/114/94 38/115/95 41/111/91 42/110/90
f 77/116/96 37/14/11 40/18/14 79/112/92
f 107/117/97 36/118/98 39/114/94 108/113/93
f 36/118/98 35/119/99 38/115/95 39/114/94
f 75/120/100 34/10/8 37/14/11 77/116/96
f 120/64/48 31/63/47 36/118/98 107/117/97
f 31/63/47 32/66/50 35/119/99 36/118/98
f 74/68/52 33/7/7 34/10/8 75/120/100
f 32/66/50 73/121/101 76/122/102 35/119/99
f 73/121/101 74/68/52 75/120/100 76/122/102
f 35/119/99 76/122/102 78/123/103 38/115/95
f 76/122/102 75/120/100 77/116/96 78/123/103
f 38/115/95 78/123/103 80/124/104 41/111/91
f 78/123/103 77/116/96 79/112/92 80/124/104
f 41/111/91 80/124/104 82/125/105 44/107/87
f 84/126/106 82/127/105 104/128/107 106/129/108
f 44/107/87 82/125/105 84/126/106 47/103/83
f 80/124/104 79/112/92 101/130/109 102/131/110
f 47/103/83 84/126/106 86/132/111 50/99/79
f 84/126/106 83/104/84 85/100/80 86/132/111
f 50/99/79 86/132/111 88/133/112 53/95/75
f 86/132/111 85/100/80 87/96/76 88/133/112
f 53/95/75 88/133/112 90/134/113 56/91/71
f 88/133/112 87/96/76 89/92/72 90/134/113
f 56/91/71 90/134/113 92/135/114 59/87/67
f 90/134/113 89/92/72 91/88/68 92/135/114
f 59/87/67 92/135/114 94/136/115 62/81/63
f 92/135/114 91/88/68 93/83/64 94/136/115
f 62/81/63 94/136/115 96/137/116 65/82/59
f 94/136/115 93/83/64 95/84/60 96/137/116
f 65/75/59 96/138/116 98/139/117 68/71/55
f 96/138/116 95/76/60 97/72/56 98/139/117
f 68/71/55 98/139/117 100/140/118 71/65/49
f 98/139/117 97/72/56 99/67/51 100/140/118
f 71/65/49 100/140/118 73/121/101 32/66/50
f 100/140/118 99/67/51 74/68/52 73/121/101
f 102/131/110 101/130/109 103/141/119 104/128/107
f 104/128/107 103/141/119 105/142/120 106/129/108
f 82/127/105 80/124/104 102/131/110 104/128/107
f 81/108/88 83/104/84 105/142/120 103/141/119
f 79/112/92 81/108/88 103/141/119 101/130/109
f 83/104/84 84/126/106 106/129/108 105/142/120
f 3/143/2 120/64/48 107/117/97 5/144/3
f 5/144/3 107/117/97 108/113/93 7/145/9
f 7/145/9 108/113/93 109/109/89 9/146/12
f 9/146/12 109/109/89 110/105/85 11/147/15
f 11/147/15 110/105/85 111/101/81 13/148/18
f 13/148/18 111/101/81 112/97/77 15/149/21
f 15/149/21 112/97/77 113/93/73 17/150/24
f 17/150/24 113/93/73 114/89/69 19/151/27
f 19/151/27 114/89/69 115/85/65 21/152/30
f 21/152/30 115/85/65 116/77/61 23/153/33
f 23/153/33 116/77/61 117/80/57 25/154/36
f 25/155/36 117/73/57 118/69/53 27/156/39
f 27/156/39 118/69/53 119/61/45 29/157/42
f 29/157/42 119/61/45 120/64/48 3/143/2
