# Blender v2.79 (sub 0) OBJ File: 'Burg Test.blend'
# www.blender.org
mtllib Burg_Gitter_anim.mtl
o Cube.002_Cube.010
v -0.176515 0.042577 -1.243181
v -0.201256 1.220852 -1.218440
v -0.176515 0.042577 -1.264152
v -0.201256 1.220852 -1.288893
v -0.155544 0.042577 -1.243181
v -0.130803 1.220852 -1.218440
v -0.155544 0.042577 -1.264152
v -0.130803 1.220852 -1.288893
v -0.201256 0.212130 -1.218440
v -0.201256 0.212130 -1.288893
v -0.130803 0.212130 -1.288893
v -0.130803 0.212130 -1.218440
v -0.062318 0.042577 -1.243181
v -0.087059 1.220852 -1.218440
v -0.062318 0.042577 -1.264152
v -0.087059 1.220852 -1.288893
v -0.041347 0.042577 -1.243181
v -0.016606 1.220852 -1.218440
v -0.041347 0.042577 -1.264152
v -0.016606 1.220852 -1.288893
v -0.087059 0.212130 -1.218440
v -0.087059 0.212130 -1.288893
v -0.016606 0.212130 -1.288893
v -0.016606 0.212130 -1.218440
v 0.056099 0.042577 -1.243181
v 0.031358 1.220852 -1.218440
v 0.056099 0.042577 -1.264152
v 0.031358 1.220852 -1.288893
v 0.077070 0.042577 -1.243181
v 0.101811 1.220852 -1.218440
v 0.077070 0.042577 -1.264152
v 0.101811 1.220852 -1.288893
v 0.031358 0.212130 -1.218440
v 0.031358 0.212130 -1.288893
v 0.101811 0.212130 -1.288893
v 0.101811 0.212130 -1.218440
vn -1.0000 0.0000 0.0000
vn 0.0000 0.0000 -1.0000
vn 1.0000 0.0000 0.0000
vn 0.0000 0.0000 1.0000
vn 0.0000 -1.0000 0.0000
vn 0.0000 1.0000 0.0000
vn 0.0000 -0.1444 0.9895
vn 0.9895 -0.1444 0.0000
vn 0.0000 -0.1444 -0.9895
vn -0.9895 -0.1444 0.0000
usemtl None
s off
f 9//1 2//1 4//1 10//1
f 10//2 4//2 8//2 11//2
f 11//3 8//3 6//3 12//3
f 12//4 6//4 2//4 9//4
f 3//5 7//5 5//5 1//5
f 8//6 4//6 2//6 6//6
f 5//7 12//7 9//7 1//7
f 7//8 11//8 12//8 5//8
f 3//9 10//9 11//9 7//9
f 1//10 9//10 10//10 3//10
f 21//1 14//1 16//1 22//1
f 22//2 16//2 20//2 23//2
f 23//3 20//3 18//3 24//3
f 24//4 18//4 14//4 21//4
f 15//5 19//5 17//5 13//5
f 20//6 16//6 14//6 18//6
f 17//7 24//7 21//7 13//7
f 19//8 23//8 24//8 17//8
f 15//9 22//9 23//9 19//9
f 13//10 21//10 22//10 15//10
f 33//1 26//1 28//1 34//1
f 34//2 28//2 32//2 35//2
f 35//3 32//3 30//3 36//3
f 36//4 30//4 26//4 33//4
f 27//5 31//5 29//5 25//5
f 32//6 28//6 26//6 30//6
f 29//7 36//7 33//7 25//7
f 31//8 35//8 36//8 29//8
f 27//9 34//9 35//9 31//9
f 25//10 33//10 34//10 27//10
