# Blender v2.79 (sub 0) OBJ File: 'Burg Test.blend'
# www.blender.org
mtllib Burg_Final.mtl
o BurgTeil_Cylinder.000
v -1.172394 5.884927 -228.362030
v -3.159389 5.884927 -229.896606
v -3.413149 5.884927 -230.666870
v -3.413149 22.807899 -230.666870
v -1.991716 22.807899 -233.441025
v -2.672429 22.807899 -232.915314
v -2.672429 5.884927 -232.915314
v -0.887136 5.884927 -233.774521
v 1.859552 22.807899 -233.888779
v -3.159389 22.807899 -229.896606
v -2.672426 22.807899 -229.221252
v -1.991712 5.884927 -228.695526
v -1.991712 22.807899 -228.695526
v -1.172394 22.807899 -228.362030
v -1.172394 22.807899 -227.119583
v 1.859553 22.807899 -228.247787
v -2.672426 5.884927 -229.221252
v -3.413150 5.884927 -231.469681
v -3.159390 22.807899 -232.239944
v -1.991716 5.884927 -233.441025
v -1.172398 22.807899 -233.774521
v -3.413150 22.807899 -231.469681
v -3.159390 5.884927 -232.239944
v 1.859553 22.807899 -227.119583
v -4.035290 5.884927 -227.119583
v -4.035290 22.807899 -227.119583
v -3.413149 20.850443 -230.666870
v -2.672429 20.850443 -232.915314
v 1.859553 20.850443 -228.247787
v -4.035290 20.850443 -227.119583
v 1.859552 20.850443 -233.888779
v -3.159389 20.850443 -229.896606
v -3.159390 20.850443 -232.239944
v -2.672426 20.850443 -229.221252
v -3.413150 20.850443 -231.469681
v -1.991712 20.850443 -228.695526
v -1.172394 20.850443 -228.362030
v -1.991716 20.850443 -233.441025
v 1.859553 20.850443 -227.119583
v -2.672429 22.122517 -232.915314
v 1.859552 22.122517 -233.888779
v -3.159389 22.122517 -229.896606
v -3.159390 22.122517 -232.239944
v -3.413149 22.122517 -230.666870
v 1.859553 22.122517 -228.247787
v -4.035290 22.122517 -227.119583
v -2.672426 22.122517 -229.221252
v -3.413150 22.122517 -231.469681
v -1.991712 22.122517 -228.695526
v -1.172394 22.122517 -228.362030
v -1.991716 22.122517 -233.441025
v -1.172398 22.122517 -233.774521
v 1.859553 22.122517 -227.119583
v -1.172398 20.850443 -233.774521
v -0.887132 5.884927 -240.223419
v -3.159389 5.884927 -238.688843
v -3.413149 5.884927 -237.918564
v -3.413149 22.807899 -237.918564
v -1.991716 22.807899 -235.144409
v -2.672429 22.807899 -235.670135
v -2.672429 5.884927 -235.670135
v -0.887136 5.884927 -234.810928
v 1.859552 22.807899 -234.696671
v -3.159389 22.807899 -238.688843
v -2.672426 22.807899 -239.364197
v -1.991712 5.884927 -239.889923
v -1.991712 22.807899 -239.889923
v -1.172394 22.807899 -240.223419
v -0.887136 9.186715 -234.292725
v 1.859553 22.807899 -240.337662
v -2.672426 5.884927 -239.364197
v -3.413150 5.884927 -237.115768
v -3.159390 22.807899 -236.345490
v -1.991716 5.884927 -235.144409
v -1.172398 22.807899 -234.810928
v -3.413150 22.807899 -237.115768
v -3.159390 5.884927 -236.345490
v 1.859552 22.807899 -234.292725
v -0.887136 5.884927 -234.292725
v 1.859553 22.807899 -241.465851
v -4.035290 5.884927 -241.465851
v -4.035290 22.807899 -241.465851
v -3.413149 20.850443 -237.918564
v -2.672429 20.850443 -235.670135
v 1.859553 20.850443 -240.337662
v 1.859552 20.850443 -234.292725
v -4.035290 20.850443 -241.465851
v 1.859552 20.850443 -234.696671
v -3.159389 20.850443 -238.688843
v -3.159390 20.850443 -236.345490
v -2.672426 20.850443 -239.364197
v -3.413150 20.850443 -237.115768
v -1.991712 20.850443 -239.889923
v -1.172394 20.850443 -240.223419
v -1.991716 20.850443 -235.144409
v 1.859553 20.850443 -241.465851
v -2.672429 22.122517 -235.670135
v 1.859552 22.122517 -234.292725
v 1.859552 22.122517 -234.696671
v -3.159389 22.122517 -238.688843
v -3.159390 22.122517 -236.345490
v -3.413149 22.122517 -237.918564
v 1.859553 22.122517 -240.337662
v -4.035290 22.122517 -241.465851
v -2.672426 22.122517 -239.364197
v -3.413150 22.122517 -237.115768
v -1.991712 22.122517 -239.889923
v -1.172394 22.122517 -240.223419
v -1.991716 22.122517 -235.144409
v 1.859553 22.122517 -241.465851
v -1.172398 20.850443 -234.810928
v -1.172398 22.122517 -234.810928
v -1.172398 20.850443 -234.292725
v -1.172398 22.122517 -234.292725
v -3.413149 10.001915 -230.666870
v 1.859553 10.001915 -228.247787
v -4.035290 10.001915 -227.119583
v -2.672426 10.001915 -229.221252
v -3.413150 10.001915 -231.469681
v -1.991712 10.001915 -228.695526
v -1.172394 10.001915 -228.362030
v -1.991716 10.001915 -233.441025
v -1.172398 10.001915 -233.774521
v 1.859553 10.001915 -227.119583
v -2.672429 10.001915 -232.915314
v 1.859552 10.001915 -234.292725
v 1.859552 10.001915 -233.888779
v -3.159389 10.001915 -229.896606
v -3.159390 10.001915 -232.239944
v -3.413149 10.001915 -237.918564
v 1.859553 10.001915 -240.337662
v -4.035290 10.001915 -241.465851
v -2.672426 10.001915 -239.364197
v -3.413150 10.001915 -237.115768
v -1.991712 10.001915 -239.889923
v -1.172394 10.001915 -240.223419
v -1.991716 10.001915 -235.144409
v -1.172398 10.001915 -234.810928
v 1.859553 10.001915 -241.465851
v -2.672429 10.001915 -235.670135
v 1.859552 10.001915 -234.696671
v -3.159389 10.001915 -238.688843
v -3.159390 10.001915 -236.345490
v -3.413149 9.186715 -230.666870
v 1.859553 9.186715 -228.247787
v -4.035290 9.186715 -227.119583
v -2.672426 9.186715 -229.221252
v -3.413150 9.186715 -231.469681
v -1.991712 9.186715 -228.695526
v -1.172394 9.186715 -228.362030
v -1.991716 9.186715 -233.441025
v -0.887136 9.186715 -233.774521
v 1.859553 9.186715 -227.119583
v -3.413149 9.186715 -237.918564
v 1.859553 9.186715 -240.337662
v -4.035290 9.186715 -241.465851
v -2.672426 9.186715 -239.364197
v -3.413150 9.186715 -237.115768
v -1.991712 9.186715 -239.889923
v -0.887132 9.186715 -240.223419
v -1.991716 9.186715 -235.144409
v -0.887136 9.186715 -234.810928
v 1.859553 9.186715 -241.465851
v -2.672429 9.186715 -232.915314
v 1.859552 9.186715 -234.292725
v 1.859552 9.186715 -233.888779
v -3.159389 9.186715 -229.896606
v -3.159390 9.186715 -232.239944
v -2.672429 9.186715 -235.670135
v 1.859552 9.186715 -234.696671
v -3.159389 9.186715 -238.688843
v -3.159390 9.186715 -236.345490
v 1.859553 9.186715 -239.710876
v 1.859553 9.186715 -239.084106
v 1.859553 9.186715 -238.457336
v 1.859553 9.186715 -237.830551
v 1.859553 9.186715 -237.203781
v 1.859552 9.186715 -236.576996
v 1.859552 9.186715 -235.950226
v 1.859552 9.186715 -235.323441
v 1.859553 10.001915 -239.710876
v 1.859553 10.001915 -239.084106
v 1.859553 10.001915 -238.457336
v 1.859553 10.001915 -237.830551
v 1.859553 10.001915 -237.203781
v 1.859552 10.001915 -236.576996
v 1.859552 10.001915 -235.950226
v 1.859552 10.001915 -235.323441
v -2.672429 11.438879 -232.915314
v 1.859552 11.438879 -234.292725
v 1.859552 11.438879 -233.888779
v -3.159389 11.438879 -229.896606
v -3.159390 11.438879 -232.239944
v -2.672429 11.438879 -235.670135
v 1.859552 11.438879 -234.696671
v -3.159389 11.438879 -238.688843
v -3.159390 11.438879 -236.345490
v -3.413149 11.438879 -230.666870
v 1.859553 11.438879 -228.247787
v -4.035290 11.438879 -227.119583
v -2.672426 11.438879 -229.221252
v -3.413150 11.438879 -231.469681
v -1.991712 11.438879 -228.695526
v -1.172394 11.438879 -228.362030
v -1.991716 11.438879 -233.441025
v -1.172398 11.438879 -233.774521
v 1.859553 11.438879 -227.119583
v -3.413149 11.438879 -237.918564
v 1.859553 11.438879 -240.337662
v -4.035290 11.438879 -241.465851
v -2.672426 11.438879 -239.364197
v -3.413150 11.438879 -237.115768
v -1.991712 11.438879 -239.889923
v -1.172394 11.438879 -240.223419
v -1.991716 11.438879 -235.144409
v -1.172398 11.438879 -234.810928
v 1.859553 11.438879 -241.465851
v -1.172394 22.807899 -241.465851
v -0.887132 5.884927 -241.465851
v -1.172394 20.850443 -241.465851
v -1.172394 22.122517 -241.465851
v -1.172394 10.001915 -241.465851
v -0.887132 9.186715 -241.465851
v -1.172394 11.438879 -241.465851
v -1.172394 5.884927 -227.119583
v -1.172394 20.850443 -227.119583
v -1.172394 22.122517 -227.119583
v -1.172394 10.001915 -227.119583
v -1.172394 9.186715 -227.119583
v -1.172394 11.438879 -227.119583
v 0.654048 10.405502 -228.247787
v -3.604065 10.405502 -228.362030
v 0.654048 11.310492 -228.247787
v -3.604065 11.310492 -228.362030
v -3.604065 10.405502 -230.942627
v -3.604065 11.310492 -230.942627
v 0.654048 10.405502 -230.942627
v 0.654048 11.310492 -230.942627
v 0.654048 13.994896 -231.373169
v -3.604065 13.994896 -231.487427
v 0.654048 14.544652 -231.373169
v -3.604065 14.544652 -231.487427
v -3.604065 13.994896 -234.068024
v -3.604065 14.544652 -234.068024
v 0.654048 13.994896 -234.068024
v 0.654048 14.544652 -234.068024
v 0.654048 18.468746 -231.723053
v -3.604065 18.468746 -231.837311
v 0.654048 19.373734 -231.723053
v -3.604065 19.373734 -231.837311
v -3.604065 18.468746 -234.417908
v -3.604065 19.373734 -234.417908
v 0.654048 18.468746 -234.417908
v 0.654048 19.373734 -234.417908
v 0.222007 16.162119 -227.476883
v -3.172025 16.162119 -227.567947
v 0.222007 16.883461 -227.476883
v -3.172025 16.883461 -227.567947
v -3.172025 16.162119 -229.624863
v -3.172025 16.883461 -229.624863
v 0.222007 16.162119 -229.624863
v 0.222007 16.883461 -229.624863
v -3.413149 40.650887 -230.666870
v -1.991716 40.650887 -233.441025
v -2.672429 40.650887 -232.915314
v 1.859552 40.650887 -233.888779
v -3.159389 40.650887 -229.896606
v -2.672426 40.650887 -229.221252
v -1.991712 40.650887 -228.695526
v -1.172394 40.650887 -228.362030
v -1.172394 40.650887 -227.119583
v 1.859553 40.650887 -228.247787
v -3.159390 40.650887 -232.239944
v -1.172398 40.650887 -233.774521
v -3.413150 40.650887 -231.469681
v 1.859553 40.650887 -227.119583
v -4.035290 40.650887 -227.119583
v -3.413149 40.650887 -237.918564
v -1.991716 40.650887 -235.144409
v -2.672429 40.650887 -235.670135
v 1.859552 40.650887 -234.696671
v -3.159389 40.650887 -238.688843
v -2.672426 40.650887 -239.364197
v -1.991712 40.650887 -239.889923
v -1.172394 40.650887 -240.223419
v 1.859553 40.650887 -240.337662
v -3.159390 40.650887 -236.345490
v -1.172398 40.650887 -234.810928
v -3.413150 40.650887 -237.115768
v 1.859552 40.650887 -234.292725
v 1.859553 40.650887 -241.465851
v -4.035290 40.650887 -241.465851
v -1.172394 40.650887 -241.465851
v -5.464763 5.884926 -228.271744
v -5.464763 22.807899 -228.271744
v -5.464763 20.850443 -228.271744
v -5.464763 22.122517 -228.271744
v -5.464763 5.884926 -240.313705
v -5.464763 22.807899 -240.313705
v -5.464763 20.850443 -240.313705
v -5.464763 22.122517 -240.313705
v -5.464763 10.001915 -228.271744
v -5.464763 10.001915 -240.313705
v -5.464763 9.186715 -228.271744
v -5.464763 9.186715 -240.313705
v -5.464763 11.438879 -228.271744
v -5.464763 11.438879 -240.313705
v -5.464763 40.650887 -228.271744
v -5.464763 40.650887 -240.313705
v -6.004820 5.884926 -229.584732
v -6.004820 22.807899 -229.584732
v -6.004820 20.850443 -229.584732
v -6.004820 22.122517 -229.584732
v -6.004820 5.884926 -239.000717
v -6.004820 22.807899 -239.000717
v -6.004820 20.850443 -239.000717
v -6.004820 22.122517 -239.000717
v -6.004820 10.001915 -229.584732
v -6.004820 10.001915 -239.000717
v -6.004820 9.186715 -229.584732
v -6.004820 9.186715 -239.000717
v -6.004820 11.438879 -229.584732
v -6.004820 11.438879 -239.000717
v -6.004820 40.650887 -229.584732
v -6.004820 40.650887 -239.000717
vt 0.395268 0.375584
vt 0.411553 0.375584
vt 0.411553 0.391438
vt 0.395268 0.391438
vt 0.745895 0.428572
vt 0.729069 0.428572
vt 0.729069 0.412718
vt 0.745895 0.412718
vt 0.376551 0.375584
vt 0.376551 0.391438
vt 0.763431 0.428572
vt 0.763431 0.412718
vt 0.310591 0.375584
vt 0.310591 0.391438
vt 0.780257 0.428572
vt 0.780257 0.412718
vt 0.795009 0.428572
vt 0.795009 0.412718
vt 0.714317 0.428572
vt 0.714317 0.412718
vt 0.512454 0.428596
vt 0.496239 0.428580
vt 0.496239 0.412726
vt 0.512454 0.412743
vt 0.477558 0.428571
vt 0.477558 0.412718
vt 0.411553 0.428581
vt 0.411553 0.412728
vt 1.000000 0.428572
vt 0.991176 0.428572
vt 0.991176 0.412718
vt 1.000000 0.412718
vt 0.000000 0.709007
vt 0.065687 0.708992
vt 0.065687 0.727848
vt 0.000000 0.727863
vt 0.127712 0.727834
vt 0.127712 0.804206
vt 0.065687 0.804220
vt 0.065687 0.428636
vt 0.127712 0.428622
vt 0.127712 0.458046
vt 0.065687 0.458060
vt 0.957708 0.299212
vt 0.933064 0.299212
vt 0.933064 0.269789
vt 0.957708 0.269789
vt 0.714317 0.926647
vt 0.705493 0.926647
vt 0.705493 0.708952
vt 0.714317 0.708952
vt 0.477558 0.675689
vt 0.411553 0.675700
vt 0.411553 0.458005
vt 0.477558 0.457995
vt 0.496240 0.675698
vt 0.496239 0.458003
vt 0.512454 0.675714
vt 0.512454 0.458020
vt 0.729069 0.675690
vt 0.714317 0.675690
vt 0.714317 0.457995
vt 0.729069 0.457995
vt 0.795009 0.675690
vt 0.780257 0.675690
vt 0.780257 0.457995
vt 0.795009 0.457995
vt 0.763431 0.675690
vt 0.763431 0.457995
vt 0.310591 0.128466
vt 0.376551 0.128466
vt 0.376551 0.346161
vt 0.310591 0.346161
vt 0.745895 0.675690
vt 0.745895 0.457995
vt 0.395268 0.128466
vt 0.395268 0.346161
vt 0.411553 0.128466
vt 0.411553 0.346161
vt 0.957708 0.315066
vt 0.933064 0.315066
vt 0.065687 0.412783
vt 0.127712 0.412769
vt 0.093302 0.902713
vt 0.093302 0.932137
vt 0.081982 0.932137
vt 0.081982 0.902713
vt 0.445511 0.902673
vt 0.445511 0.972804
vt 0.434192 0.972804
vt 0.436687 0.902673
vt 0.414048 0.972804
vt 0.411553 0.902673
vt 0.422872 0.902673
vt 0.422872 0.972804
vt 0.629630 0.280373
vt 0.629630 0.296226
vt 0.613415 0.296209
vt 0.613415 0.280356
vt 0.826588 0.280356
vt 0.826588 0.296210
vt 0.809762 0.296210
vt 0.809762 0.280356
vt 0.648311 0.280381
vt 0.648311 0.296235
vt 0.844124 0.280356
vt 0.844124 0.296210
vt 0.714317 0.280371
vt 0.714317 0.296224
vt 0.860950 0.280356
vt 0.860950 0.296210
vt 0.875702 0.280356
vt 0.875702 0.296210
vt 0.795009 0.296210
vt 0.795009 0.280356
vt 0.613415 0.280356
vt 0.613415 0.296209
vt 0.597131 0.296209
vt 0.597131 0.280356
vt 0.578414 0.296209
vt 0.578414 0.280356
vt 0.512454 0.296209
vt 0.512454 0.280356
vt 0.982352 0.428572
vt 0.982352 0.412718
vt 0.210644 0.804156
vt 0.270642 0.804156
vt 0.270642 0.830252
vt 0.210644 0.832894
vt 0.214914 0.076372
vt 0.214914 0.000000
vt 0.283052 0.000000
vt 0.283052 0.076372
vt 0.221089 0.375584
vt 0.221089 0.346161
vt 0.283052 0.346161
vt 0.283052 0.375584
vt 0.982352 0.428572
vt 0.982352 0.457995
vt 0.957708 0.457995
vt 0.957708 0.428572
vt 0.696669 0.926647
vt 0.696669 0.708952
vt 0.578414 0.033238
vt 0.578414 0.250932
vt 0.512454 0.250932
vt 0.512454 0.033238
vt 0.597131 0.033238
vt 0.597131 0.250932
vt 0.613415 0.033238
vt 0.613415 0.250932
vt 0.809762 0.033238
vt 0.809762 0.250933
vt 0.795009 0.250933
vt 0.795009 0.033238
vt 0.875702 0.033238
vt 0.875702 0.250933
vt 0.860950 0.250933
vt 0.860950 0.033238
vt 0.844124 0.250933
vt 0.844124 0.033238
vt 0.714317 0.033253
vt 0.714317 0.250947
vt 0.648311 0.250958
vt 0.648311 0.033263
vt 0.826588 0.250933
vt 0.826588 0.033238
vt 0.629630 0.250949
vt 0.629630 0.033254
vt 0.613415 0.250932
vt 0.613415 0.033238
vt 0.982352 0.412718
vt 0.957708 0.412718
vt 0.221089 0.391438
vt 0.283052 0.391438
vt 0.070663 0.902713
vt 0.070663 0.932137
vt 0.454335 0.902673
vt 0.456831 0.972804
vt 0.431696 0.972804
vt 0.434192 0.902673
vt 0.696669 0.978741
vt 0.696669 0.959885
vt 0.705493 0.959885
vt 0.705493 0.978741
vt 0.221089 0.128466
vt 0.221089 0.095228
vt 0.283052 0.095228
vt 0.283052 0.128466
vt 0.155466 0.095228
vt 0.155466 0.076372
vt 0.395268 0.076372
vt 0.411552 0.076372
vt 0.411552 0.095228
vt 0.395268 0.095228
vt 0.745895 0.727784
vt 0.729069 0.727784
vt 0.729069 0.708928
vt 0.745895 0.708928
vt 0.376551 0.076372
vt 0.376551 0.095228
vt 0.763431 0.727784
vt 0.763431 0.708928
vt 0.310591 0.076372
vt 0.310591 0.095228
vt 0.780257 0.727784
vt 0.780257 0.708928
vt 0.795009 0.727784
vt 0.795009 0.708928
vt 0.714317 0.727784
vt 0.714317 0.708928
vt 0.512454 0.727808
vt 0.496240 0.727791
vt 0.496240 0.708935
vt 0.512454 0.708952
vt 0.471378 0.727784
vt 0.477558 0.708927
vt 0.411553 0.727793
vt 0.411553 0.708937
vt 0.714317 0.978741
vt 0.714317 0.959885
vt 0.065687 0.675754
vt 0.127712 0.675740
vt 0.127712 0.708978
vt 0.957708 0.052094
vt 0.933064 0.052094
vt 0.933064 0.018856
vt 0.957708 0.018856
vt 0.270642 0.970074
vt 0.210644 0.970074
vt 0.210644 0.958088
vt 0.270642 0.960731
vt 0.496240 0.804164
vt 0.471378 0.804156
vt 0.512454 0.804180
vt 0.729069 0.804156
vt 0.714317 0.804156
vt 0.795009 0.804156
vt 0.780257 0.804156
vt 0.763431 0.804156
vt 0.000000 0.458075
vt 0.000000 0.675769
vt 0.745895 0.804156
vt 0.376551 0.000000
vt 0.395268 0.000000
vt 0.411552 0.000000
vt 0.270642 0.979418
vt 0.210644 0.982061
vt 0.385819 0.901745
vt 0.397138 0.901745
vt 0.397138 0.978118
vt 0.385819 0.978118
vt 0.900593 0.882662
vt 0.900593 0.959034
vt 0.875702 0.959034
vt 0.875702 0.882662
vt 0.916878 0.882662
vt 0.916878 0.959034
vt 0.786441 0.819777
vt 0.714317 0.819777
vt 0.714317 0.804156
vt 0.786441 0.804156
vt 0.786441 0.889602
vt 0.714317 0.889602
vt 0.714317 0.873980
vt 0.786441 0.873980
vt 0.714317 0.856164
vt 0.786441 0.856164
vt 0.144872 0.804220
vt 0.144872 0.880592
vt 0.117732 0.880592
vt 0.117732 0.804220
vt 0.714317 0.837594
vt 0.786441 0.837594
vt 0.786441 0.979021
vt 0.786441 0.902649
vt 0.811302 0.902656
vt 0.811302 0.979028
vt 0.827516 0.902673
vt 0.827516 0.979045
vt 0.573448 0.959885
vt 0.573448 0.978741
vt 0.548804 0.978741
vt 0.548804 0.959885
vt 0.933064 0.000000
vt 0.957708 0.000000
vt 0.600830 0.978741
vt 0.587139 0.978741
vt 0.587139 0.959885
vt 0.600830 0.959885
vt 0.614522 0.978741
vt 0.614522 0.959885
vt 0.628213 0.978741
vt 0.628213 0.959885
vt 0.641904 0.978741
vt 0.641904 0.959885
vt 0.655595 0.978741
vt 0.655595 0.959885
vt 0.669286 0.978741
vt 0.669286 0.959885
vt 0.682978 0.978741
vt 0.682978 0.959885
vt 0.319589 0.931992
vt 0.301692 0.924279
vt 0.385819 0.920137
vt 0.385819 0.934635
vt 0.301692 0.814512
vt 0.319589 0.806799
vt 0.385819 0.804156
vt 0.385819 0.818654
vt 0.286823 0.826673
vt 0.385819 0.833151
vt 0.276186 0.842294
vt 0.385819 0.847649
vt 0.270642 0.860111
vt 0.385819 0.862147
vt 0.286823 0.912118
vt 0.385819 0.905640
vt 0.276186 0.896497
vt 0.385819 0.891142
vt 0.270642 0.878680
vt 0.385819 0.876644
vt 0.155466 0.886207
vt 0.270642 0.888242
vt 0.270642 0.902740
vt 0.155466 0.904776
vt 0.161009 0.868390
vt 0.270642 0.873745
vt 0.270642 0.917238
vt 0.161009 0.922593
vt 0.270642 0.931735
vt 0.171646 0.938214
vt 0.171646 0.852768
vt 0.270642 0.859247
vt 0.186516 0.840608
vt 0.270642 0.844749
vt 0.270642 0.946233
vt 0.186516 0.950374
vt 0.982352 0.675690
vt 0.957708 0.675690
vt 0.629630 0.000017
vt 0.613415 0.000000
vt 0.826588 0.000000
vt 0.809762 0.000000
vt 0.648311 0.000026
vt 0.844124 0.000000
vt 0.155466 0.346161
vt 0.155466 0.128466
vt 0.860950 0.000000
vt 0.875702 0.000000
vt 0.795009 0.000000
vt 0.613415 0.000000
vt 0.597131 0.000000
vt 0.578414 0.000000
vt 0.512454 0.000000
vt 0.319589 0.960731
vt 0.385819 0.960731
vt 0.155466 0.391438
vt 0.155466 0.375584
vt 0.408458 0.901745
vt 0.408458 0.978118
vt 0.872446 0.971876
vt 0.847802 0.971876
vt 0.845306 0.901746
vt 0.872446 0.901746
vt 0.000000 0.935951
vt 0.000000 0.902713
vt 0.027140 0.902713
vt 0.027140 0.935951
vt 0.000000 0.412798
vt 0.000000 0.428651
vt 0.512454 0.708928
vt 0.539594 0.708928
vt 0.539594 0.785300
vt 0.512454 0.785300
vt 0.841930 0.779059
vt 0.844426 0.708928
vt 0.869070 0.708928
vt 0.869070 0.779059
vt 0.137500 0.977946
vt 0.117732 0.977940
vt 0.117732 0.880592
vt 0.137500 0.880598
vt 0.496368 0.962363
vt 0.496368 0.902673
vt 0.516136 0.902673
vt 0.516136 0.962363
vt 0.385819 0.901745
vt 0.385819 0.804156
vt 0.405587 0.804156
vt 0.405587 0.901745
vt 0.476599 0.902673
vt 0.476599 0.965006
vt 0.456831 0.965006
vt 0.456831 0.902673
vt 0.716812 0.988094
vt 0.714317 0.889602
vt 0.773183 0.889602
vt 0.773183 0.988094
vt 0.470418 0.902673
vt 0.472914 0.804180
vt 0.529284 0.804180
vt 0.529284 0.902673
vt 0.839525 1.000000
vt 0.827516 0.999997
vt 0.827516 0.902649
vt 0.839525 0.902652
vt 0.058654 0.962403
vt 0.058654 0.902713
vt 0.070663 0.902713
vt 0.070663 0.962403
vt 0.785191 0.889602
vt 0.785191 0.987191
vt 0.773183 0.987191
vt 0.773183 0.889602
vt 0.547913 0.902673
vt 0.547913 0.965006
vt 0.535904 0.965006
vt 0.535904 0.902673
vt 0.414048 0.902673
vt 0.411553 0.804180
vt 0.470418 0.804180
vt 0.470418 0.902673
vt 0.058866 0.902713
vt 0.061362 0.804220
vt 0.117732 0.804220
vt 0.117732 0.902713
vt 0.936646 0.980016
vt 0.916878 0.980010
vt 0.916878 0.882662
vt 0.936646 0.882667
vt 0.516136 0.962363
vt 0.516136 0.902673
vt 0.535904 0.902673
vt 0.535904 0.962363
vt 0.865075 0.804156
vt 0.865075 0.901746
vt 0.845306 0.901746
vt 0.845306 0.804156
vt 0.496368 0.902673
vt 0.496368 0.965006
vt 0.476599 0.965006
vt 0.476599 0.902673
vt 0.788936 0.902649
vt 0.786441 0.804156
vt 0.845306 0.804156
vt 0.845306 0.902649
vt 0.058866 0.804220
vt 0.056370 0.902713
vt 0.000000 0.902713
vt 0.000000 0.804220
vt 0.153257 0.958190
vt 0.137500 0.958186
vt 0.137500 0.880592
vt 0.153257 0.880597
vt 0.042897 0.950291
vt 0.042897 0.902713
vt 0.058654 0.902713
vt 0.058654 0.950291
vt 0.529284 0.881967
vt 0.529284 0.804180
vt 0.545041 0.804180
vt 0.545041 0.881967
vt 0.042897 0.902713
vt 0.042897 0.952397
vt 0.027140 0.952397
vt 0.027140 0.902713
vt 0.796999 0.787434
vt 0.795009 0.708928
vt 0.841930 0.708928
vt 0.841930 0.787434
vt 0.875702 0.882662
vt 0.877691 0.804156
vt 0.922623 0.804156
vt 0.922623 0.882662
vt 0.221089 0.804156
vt 0.155466 0.804156
vt 0.957708 0.727784
vt 0.933064 0.727784
vt 0.745895 0.000000
vt 0.763431 0.000000
vt 0.578414 0.708928
vt 0.512454 0.708928
vt 0.780257 0.000000
vt 0.795009 0.000000
vt 0.982352 0.000000
vt 0.991176 0.000000
vt 0.714317 0.000000
vt 0.729069 0.000000
vt 0.714317 0.708942
vt 0.648311 0.708952
vt 0.957708 0.000000
vt 0.982352 0.000000
vt 0.395268 0.804156
vt 0.376551 0.804156
vt 0.844124 0.708928
vt 0.826588 0.708928
vt 0.496239 0.000009
vt 0.512454 0.000026
vt 0.860950 0.708928
vt 0.875702 0.708928
vt 0.411553 0.804156
vt 0.809762 0.708928
vt 0.795009 0.708928
vt 0.477558 0.000000
vt 0.283052 0.804156
vt 0.000000 0.000080
vt 0.065687 0.000065
vt 0.629630 0.708944
vt 0.613415 0.708928
vt 0.597131 0.708928
vt 0.411553 0.000011
vt 0.613415 0.708927
vt 1.000000 0.000000
vt 0.127711 0.000051
vt 0.310591 0.804156
vt 0.155466 0.727783
vt 0.155466 0.804155
vt 0.310591 0.391438
vt 0.310591 0.804156
vt 0.310591 0.375584
vt 0.155466 0.428571
vt 0.155466 0.457995
vt 0.310591 0.000000
vt 0.310591 0.076372
vt 0.310591 0.346161
vt 0.155466 0.675689
vt 0.155466 0.708927
vt 0.310591 0.095228
vt 0.310591 0.128466
vt 0.155466 0.000000
vt 0.155466 0.412718
vt 0.875702 0.095228
vt 0.875702 0.076372
vt 0.904383 0.076372
vt 0.904383 0.095228
vt 0.933064 0.375585
vt 0.933064 0.391438
vt 0.904383 0.391438
vt 0.904383 0.375585
vt 0.933064 0.128466
vt 0.933064 0.346161
vt 0.904383 0.346161
vt 0.904383 0.128466
vt 0.875702 0.000000
vt 0.904383 0.000000
vt 0.875702 0.346161
vt 0.875702 0.128466
vt 0.904383 0.128466
vt 0.904383 0.346161
vt 0.875702 0.375585
vt 0.904383 0.375585
vt 0.875702 0.804156
vt 0.875702 0.391438
vt 0.904383 0.391438
vt 0.904383 0.804156
vt 0.933064 0.804156
vt 0.904383 0.804156
vt 0.933064 0.095228
vt 0.904383 0.095228
vt 0.933064 0.000000
vt 0.933064 0.076372
vt 0.904383 0.076372
vt 0.904383 0.000000
vn 0.6112 0.0000 -0.7914
vn 0.9498 0.0000 0.3129
vn 0.3770 0.0000 -0.9262
vn 1.0000 0.0000 -0.0000
vn 0.0376 0.0000 -0.9993
vn 0.9498 0.0000 -0.3129
vn 0.8111 0.0000 -0.5849
vn 0.8111 0.0000 0.5849
vn 0.6112 0.0000 0.7914
vn 0.3770 0.0000 0.9262
vn 0.0377 0.0000 0.9993
vn 0.0000 0.0000 1.0000
vn 0.6112 0.0000 0.7915
vn 0.8111 0.0000 0.5848
vn 0.0377 0.0000 -0.9993
vn 0.6113 0.0000 -0.7914
vn 0.0000 1.0000 0.0000
vn 0.0000 -1.0000 0.0000
vn 0.6113 0.0000 0.7914
vn 0.0000 0.0000 -1.0000
vn 0.6112 0.0000 -0.7915
vn 0.3270 0.0572 0.9433
vn 0.0395 0.0069 0.9992
vn 0.2890 0.0000 0.9573
vn 0.2890 0.0000 -0.9573
vn -0.0268 0.0000 0.9996
vn -1.0000 0.0000 0.0000
vn -0.6275 0.0000 0.7786
vn -0.6275 0.0000 -0.7786
vn -0.9248 0.0000 -0.3804
vn -0.9248 0.0000 0.3804
usemtl BurgTextur
s off
f 49/1/1 47/2/1 11/3/1 13/4/1
f 48/5/2 43/6/2 19/7/2 22/8/2
f 50/9/3 49/1/3 13/4/3 14/10/3
f 44/11/4 48/5/4 22/8/4 4/12/4
f 45/13/5 50/9/5 14/10/5 16/14/5
f 42/15/6 44/11/6 4/12/6 10/16/6
f 47/17/7 42/15/7 10/16/7 11/18/7
f 43/6/8 40/19/8 6/20/8 19/7/8
f 40/21/9 51/22/9 5/23/9 6/24/9
f 51/22/10 52/25/10 21/26/10 5/23/10
f 52/25/11 41/27/11 9/28/11 21/26/11
f 41/29/4 98/30/4 78/31/4 9/32/4
f 124/33/12 228/34/12 229/35/12 153/36/12
f 229/35/12 146/37/12 25/38/12 225/39/12
f 227/40/12 46/41/12 30/42/12 226/43/12
f 45/44/4 53/45/4 39/46/4 29/47/4
f 191/48/4 190/49/4 86/50/4 31/51/4
f 206/52/11 191/53/11 31/54/11 54/55/11
f 205/56/10 206/52/10 54/55/10 38/57/10
f 189/58/13 205/56/13 38/57/13 28/59/13
f 193/60/14 189/61/14 28/62/14 33/63/14
f 201/64/7 192/65/7 32/66/7 34/67/7
f 192/65/6 198/68/6 27/69/6 32/66/6
f 199/70/15 204/71/15 37/72/15 29/73/15
f 198/68/4 202/74/4 35/75/4 27/69/4
f 204/71/3 203/76/3 36/77/3 37/72/3
f 202/74/2 193/60/2 33/63/2 35/75/2
f 203/76/16 201/78/16 34/79/16 36/77/16
f 16/80/4 24/81/4 53/45/4 45/44/4
f 15/82/12 26/83/12 46/41/12 227/40/12
f 52/84/4 54/85/4 113/86/4 114/87/4
f 38/57/10 54/55/10 52/25/10 51/22/10
f 28/59/13 38/57/13 51/22/13 40/21/13
f 33/63/14 28/62/14 40/19/14 43/6/14
f 34/67/7 32/66/7 42/15/7 47/17/7
f 32/66/6 27/69/6 44/11/6 42/15/6
f 29/73/15 37/72/15 50/9/15 45/13/15
f 27/69/4 35/75/4 48/5/4 44/11/4
f 37/72/3 36/77/3 49/1/3 50/9/3
f 35/75/2 33/63/2 43/6/2 48/5/2
f 36/77/1 34/79/1 47/2/1 49/1/1
f 86/88/17 113/89/17 54/90/17 31/91/17
f 41/92/18 52/93/18 114/94/18 98/95/18
f 107/96/19 67/97/19 65/98/19 105/99/19
f 106/100/6 76/101/6 73/102/6 101/103/6
f 108/104/10 68/105/10 67/97/10 107/96/10
f 102/106/4 58/107/4 76/101/4 106/100/4
f 103/108/11 70/109/11 68/105/11 108/104/11
f 100/110/2 64/111/2 58/107/2 102/106/2
f 105/112/8 65/113/8 64/111/8 100/110/8
f 101/103/7 73/102/7 60/114/7 97/115/7
f 97/116/1 60/117/1 59/118/1 109/119/1
f 109/119/3 59/118/3 75/120/3 112/121/3
f 112/121/15 75/120/15 63/122/15 99/123/15
f 99/124/4 63/125/4 78/31/4 98/30/4
f 223/126/18 163/127/18 155/128/18 160/129/18
f 223/130/20 219/131/20 81/132/20 156/133/20
f 221/134/20 220/135/20 87/136/20 104/137/20
f 103/138/4 85/139/4 96/140/4 110/141/4
f 195/142/4 88/143/4 86/50/4 190/49/4
f 216/144/15 111/145/15 88/146/15 195/147/15
f 215/148/3 95/149/3 111/145/3 216/144/3
f 194/150/21 84/151/21 95/149/21 215/148/21
f 197/152/7 90/153/7 84/154/7 194/155/7
f 211/156/8 91/157/8 89/158/8 196/159/8
f 196/159/2 89/158/2 83/160/2 208/161/2
f 209/162/11 85/163/11 94/164/11 214/165/11
f 208/161/4 83/160/4 92/166/4 212/167/4
f 214/165/10 94/164/10 93/168/10 213/169/10
f 212/167/6 92/166/6 90/153/6 197/152/6
f 213/169/13 93/168/13 91/170/13 211/171/13
f 70/172/4 103/138/4 110/141/4 80/173/4
f 218/174/20 221/134/20 104/137/20 82/175/20
f 112/176/4 114/87/4 113/86/4 111/177/4
f 95/149/3 109/119/3 112/121/3 111/145/3
f 84/151/1 97/116/1 109/119/1 95/149/1
f 90/153/7 101/103/7 97/115/7 84/154/7
f 91/157/8 105/112/8 100/110/8 89/158/8
f 89/158/2 100/110/2 102/106/2 83/160/2
f 85/163/11 103/108/11 108/104/11 94/164/11
f 83/160/4 102/106/4 106/100/4 92/166/4
f 94/164/10 108/104/10 107/96/10 93/168/10
f 92/166/6 106/100/6 101/103/6 90/153/6
f 93/168/9 107/96/9 105/99/9 91/170/9
f 86/88/17 88/178/17 111/179/17 113/89/17
f 99/180/18 98/95/18 114/94/18 112/181/18
f 170/182/4 141/183/4 126/184/4 165/185/4
f 224/186/20 222/187/20 132/188/20 210/189/20
f 139/190/20 163/191/20 223/130/20 222/187/20
f 149/192/1 147/193/1 118/194/1 120/195/1
f 148/196/2 168/197/2 129/198/2 119/199/2
f 150/200/3 149/192/3 120/195/3 121/201/3
f 144/202/4 148/196/4 119/199/4 115/203/4
f 145/204/15 150/200/15 121/201/15 116/205/15
f 167/206/6 144/202/6 115/203/6 128/207/6
f 147/208/7 167/206/7 128/207/7 118/209/7
f 168/197/8 164/210/8 125/211/8 129/198/8
f 164/212/13 151/213/13 122/214/13 125/215/13
f 151/213/22 152/216/22 123/217/22 122/214/22
f 152/216/23 166/218/23 127/219/23 123/217/23
f 166/220/4 165/185/4 126/184/4 127/221/4
f 230/222/12 200/223/12 117/224/12 228/34/12
f 199/225/4 207/226/4 124/227/4 116/228/4
f 165/229/18 69/230/18 162/231/18 170/232/18
f 20/233/24 8/234/24 152/216/24 151/213/24
f 7/235/13 20/233/13 151/213/13 164/212/13
f 23/236/8 7/237/8 164/210/8 168/197/8
f 17/238/7 2/239/7 167/206/7 147/208/7
f 2/239/6 3/240/6 144/202/6 167/206/6
f 39/241/12 226/43/12 230/222/12 207/242/12
f 3/240/4 18/243/4 148/196/4 144/202/4
f 1/244/3 12/245/3 149/192/3 150/200/3
f 18/243/2 23/236/2 168/197/2 148/196/2
f 12/245/21 17/246/21 147/193/21 149/192/21
f 69/230/18 165/229/18 166/247/18 152/248/18
f 8/249/4 79/250/4 69/251/4 152/252/4
f 74/253/25 161/254/25 162/255/25 62/256/25
f 61/257/21 169/258/21 161/254/21 74/253/21
f 77/259/7 172/260/7 169/261/7 61/262/7
f 71/263/8 157/264/8 171/265/8 56/266/8
f 56/266/2 171/265/2 154/267/2 57/268/2
f 219/269/4 223/270/4 160/271/4 55/272/4
f 57/268/4 154/267/4 158/273/4 72/274/4
f 55/275/24 160/276/24 159/277/24 66/278/24
f 72/274/6 158/273/6 172/260/6 77/259/6
f 66/278/9 159/277/9 157/279/9 71/280/9
f 222/187/20 223/130/20 156/133/20 132/188/20
f 131/281/4 155/282/4 163/283/4 139/284/4
f 228/34/12 117/224/12 146/37/12 229/35/12
f 116/228/4 124/227/4 153/285/4 145/286/4
f 174/287/4 173/288/4 181/289/4 182/290/4
f 175/291/4 174/287/4 182/290/4 183/292/4
f 176/293/4 175/291/4 183/292/4 184/294/4
f 177/295/4 176/293/4 184/294/4 185/296/4
f 178/297/4 177/295/4 185/296/4 186/298/4
f 179/299/4 178/297/4 186/298/4 187/300/4
f 180/301/4 179/299/4 187/300/4 188/302/4
f 170/182/4 180/301/4 188/302/4 141/183/4
f 173/288/4 155/282/4 131/281/4 181/289/4
f 136/303/17 135/304/17 181/305/17 131/306/17
f 137/307/17 138/308/17 141/309/17 188/310/17
f 140/311/17 137/307/17 188/310/17 187/312/17
f 143/313/17 140/311/17 187/312/17 186/314/17
f 134/315/17 143/313/17 186/314/17 185/316/17
f 135/304/17 133/317/17 182/318/17 181/305/17
f 133/317/17 142/319/17 183/320/17 182/318/17
f 142/319/17 130/321/17 184/322/17 183/320/17
f 130/321/17 134/315/17 185/316/17 184/322/17
f 154/323/18 176/324/18 177/325/18 158/326/18
f 171/327/18 175/328/18 176/324/18 154/323/18
f 158/326/18 177/325/18 178/329/18 172/330/18
f 172/330/18 178/329/18 179/331/18 169/332/18
f 157/333/18 174/334/18 175/328/18 171/327/18
f 159/335/18 173/336/18 174/334/18 157/333/18
f 169/332/18 179/331/18 180/337/18 161/338/18
f 170/232/18 162/231/18 161/338/18 180/337/18
f 155/128/18 173/336/18 159/335/18 160/129/18
f 29/47/4 39/46/4 207/226/4 199/225/4
f 226/43/12 30/42/12 200/223/12 230/222/12
f 85/139/4 209/339/4 217/340/4 96/140/4
f 220/135/20 224/186/20 210/189/20 87/136/20
f 135/341/19 213/169/19 211/171/19 133/342/19
f 134/343/6 212/167/6 197/152/6 143/344/6
f 136/345/10 214/165/10 213/169/10 135/341/10
f 130/346/4 208/161/4 212/167/4 134/343/4
f 96/347/20 217/348/20 224/186/20 220/135/20
f 142/349/2 196/159/2 208/161/2 130/346/2
f 133/350/8 211/156/8 196/159/8 142/349/8
f 143/344/7 197/152/7 194/155/7 140/351/7
f 140/352/1 194/150/1 215/148/1 137/353/1
f 137/353/3 215/148/3 216/144/3 138/354/3
f 138/354/15 216/144/15 195/147/15 141/355/15
f 141/183/4 195/142/4 190/49/4 126/184/4
f 120/195/1 118/194/1 201/78/1 203/76/1
f 119/199/2 129/198/2 193/60/2 202/74/2
f 121/201/3 120/195/3 203/76/3 204/71/3
f 115/203/4 119/199/4 202/74/4 198/68/4
f 116/205/15 121/201/15 204/71/15 199/70/15
f 128/207/6 115/203/6 198/68/6 192/65/6
f 118/209/7 128/207/7 192/65/7 201/64/7
f 129/198/8 125/211/8 189/61/8 193/60/8
f 125/215/9 122/214/9 205/56/9 189/58/9
f 122/214/10 123/217/10 206/52/10 205/56/10
f 123/217/11 127/219/11 191/53/11 206/52/11
f 127/221/4 126/184/4 190/49/4 191/48/4
f 222/356/17 136/303/17 131/306/17 139/357/17
f 80/358/20 110/359/20 221/134/20 218/174/20
f 110/359/20 96/347/20 220/135/20 221/134/20
f 79/250/4 62/360/4 162/361/4 69/251/4
f 217/362/18 209/363/18 214/364/18 224/365/18
f 214/366/4 136/367/4 222/368/4 224/369/4
f 207/242/12 230/222/12 228/34/12 124/33/12
f 24/370/12 15/82/12 227/40/12 53/371/12
f 53/371/12 227/40/12 226/43/12 39/241/12
f 225/372/4 1/373/4 150/374/4 229/375/4
f 150/376/18 145/377/18 153/378/18 229/379/18
f 231/380/26 233/381/26 234/382/26 232/383/26
f 234/384/27 236/385/27 235/386/27 232/387/27
f 236/388/20 238/389/20 237/390/20 235/391/20
f 231/392/4 237/393/4 238/394/4 233/395/4
f 234/396/17 233/397/17 238/398/17 236/399/17
f 231/400/18 232/401/18 235/402/18 237/403/18
f 239/404/26 241/405/26 242/406/26 240/407/26
f 242/408/27 244/409/27 243/410/27 240/411/27
f 244/412/20 246/413/20 245/414/20 243/415/20
f 239/416/4 245/417/4 246/418/4 241/419/4
f 242/420/17 241/421/17 246/422/17 244/423/17
f 239/424/18 240/425/18 243/426/18 245/427/18
f 247/428/26 249/429/26 250/430/26 248/431/26
f 250/432/27 252/433/27 251/434/27 248/435/27
f 252/436/20 254/437/20 253/438/20 251/439/20
f 247/440/4 253/441/4 254/442/4 249/443/4
f 250/444/17 249/445/17 254/446/17 252/447/17
f 247/448/18 248/449/18 251/450/18 253/451/18
f 255/452/26 257/453/26 258/454/26 256/455/26
f 258/456/27 260/457/27 259/458/27 256/459/27
f 260/460/20 262/461/20 261/462/20 259/463/20
f 255/464/4 261/465/4 262/466/4 257/467/4
f 258/468/17 257/469/17 262/470/17 260/471/17
f 255/472/18 256/473/18 259/474/18 261/475/18
f 80/358/20 218/174/20 293/476/20 291/477/20
f 24/81/4 16/80/4 272/478/4 276/479/4
f 4/12/4 22/8/4 275/480/4 263/481/4
f 63/122/15 75/120/15 288/482/15 281/483/15
f 10/16/6 4/12/6 263/481/6 267/484/6
f 11/18/7 10/16/7 267/484/7 268/485/7
f 78/31/4 63/125/4 281/486/4 290/487/4
f 19/7/8 6/20/8 265/488/8 273/489/8
f 68/105/11 70/109/11 286/490/11 285/491/11
f 22/8/2 19/7/2 273/489/2 275/480/2
f 70/172/4 80/173/4 291/492/4 286/493/4
f 14/10/3 13/4/3 269/494/3 270/495/3
f 76/101/4 58/107/4 278/496/4 289/497/4
f 6/24/9 5/23/9 264/498/9 265/499/9
f 58/107/2 64/111/2 282/500/2 278/496/2
f 64/111/8 65/113/8 283/501/8 282/500/8
f 13/4/1 11/3/1 268/502/1 269/494/1
f 60/114/7 73/102/7 287/503/7 280/504/7
f 73/102/6 76/101/6 289/497/6 287/503/6
f 5/23/10 21/26/10 274/505/10 264/498/10
f 218/174/20 82/175/20 292/506/20 293/476/20
f 15/82/12 24/370/12 276/507/12 271/508/12
f 67/97/10 68/105/10 285/491/10 284/509/10
f 59/118/1 60/117/1 280/510/1 279/511/1
f 21/26/11 9/28/11 266/512/11 274/505/11
f 65/98/19 67/97/19 284/509/19 283/513/19
f 9/32/4 78/31/4 290/487/4 266/514/4
f 26/83/12 15/82/12 271/508/12 277/515/12
f 75/120/3 59/118/3 279/511/3 288/482/3
f 16/14/15 14/10/15 270/495/15 272/516/15
f 25/38/28 146/37/28 304/517/28 294/518/28
f 292/506/29 82/175/29 299/519/29 309/520/29
f 82/175/29 104/137/29 301/521/29 299/519/29
f 30/42/28 46/41/28 297/522/28 296/523/28
f 156/133/29 81/132/29 298/524/29 305/525/29
f 104/137/29 87/136/29 300/526/29 301/521/29
f 200/223/28 30/42/28 296/523/28 306/527/28
f 117/224/28 200/223/28 306/527/28 302/528/28
f 210/189/29 132/188/29 303/529/29 307/530/29
f 87/136/29 210/189/29 307/530/29 300/526/29
f 26/83/28 277/515/28 308/531/28 295/532/28
f 146/37/28 117/224/28 302/528/28 304/517/28
f 46/41/28 26/83/28 295/532/28 297/522/28
f 132/188/29 156/133/29 305/525/29 303/529/29
f 303/533/30 305/534/30 321/535/30 319/536/30
f 297/537/31 295/538/31 311/539/31 313/540/31
f 306/541/31 296/542/31 312/543/31 322/544/31
f 305/534/30 298/545/30 314/546/30 321/535/30
f 300/547/30 307/548/30 323/549/30 316/550/30
f 301/551/30 300/547/30 316/550/30 317/552/30
f 309/553/30 299/554/30 315/555/30 325/556/30
f 299/554/30 301/551/30 317/552/30 315/555/30
f 295/538/31 308/557/31 324/558/31 311/539/31
f 302/559/31 306/541/31 322/544/31 318/560/31
f 307/548/30 303/533/30 319/536/30 323/549/30
f 294/561/31 304/562/31 320/563/31 310/564/31
f 304/562/31 302/559/31 318/560/31 320/563/31
f 296/542/31 297/537/31 313/540/31 312/543/31
