# Blender v2.79 (sub 0) OBJ File: 'Burg Test.blend'
# www.blender.org
mtllib EinzelnerStein2(Tx-Steine+Wurzel).mtl
o EinzelStein2_Circle.004
v -3.090585 4.992657 -58.245209
v -3.130758 5.244664 -58.388542
v -2.870506 5.043684 -61.168968
v -2.796576 4.755550 -61.232513
v -2.576199 5.422615 -59.498962
v -3.063366 5.414229 -59.682625
v -2.273607 4.105801 -58.812237
v -2.867393 3.828430 -58.713619
v 0.867813 4.925430 -59.410381
v 0.863816 4.775343 -59.408970
v 0.905786 4.771248 -59.780724
v 0.908325 4.934310 -59.775440
v 0.795072 4.931000 -60.282135
v 0.789252 4.750271 -60.281647
v 0.309585 4.699391 -60.504993
v 0.341775 4.977459 -60.504242
v -2.942951 5.478739 -60.623001
v -2.906265 5.379446 -60.871372
v -2.518478 3.930055 -60.919842
v -2.545286 3.715714 -60.503574
v -0.108519 5.263348 -60.222885
v 0.270479 5.146144 -60.189014
v 0.038644 5.139079 -60.459457
v -0.092885 4.426144 -60.226685
v 0.052867 4.576217 -60.467400
v 0.299051 4.521677 -60.224895
v 0.335984 5.167061 -59.545937
v 0.276981 5.134967 -59.896439
v -0.098693 5.291870 -59.972466
v -0.065748 5.296275 -59.615574
v -0.066498 4.441694 -59.616116
v -0.093167 4.425156 -59.985420
v 0.309146 4.508617 -59.958645
v 0.348344 4.533289 -59.560791
v -2.010173 4.982983 -58.621788
v -2.040046 5.241221 -58.729481
v -2.448432 5.279731 -58.622307
v -2.422872 5.046569 -58.511871
v -2.056066 4.509917 -58.724464
v -2.480991 4.373583 -58.464577
v -2.157348 4.277218 -58.747257
v 0.743445 4.937414 -59.180679
v 0.330711 4.955658 -59.010960
v 0.290998 4.707753 -59.024498
v 0.727634 4.743528 -59.189369
v -2.495403 5.368274 -58.981117
v -2.064303 5.348835 -58.916481
v -2.206361 5.403522 -59.225616
v 0.100686 5.128041 -59.119656
v 0.327434 5.134460 -59.366402
v -0.046352 5.249262 -59.398014
v -0.036243 4.461753 -59.396740
v 0.356793 4.573370 -59.362549
v 0.119197 4.598341 -59.099159
v -0.900457 4.973298 -60.698677
v -0.899791 4.713171 -60.691772
v -1.346222 4.721356 -60.787987
v -1.352700 4.976484 -60.795254
v -1.603843 5.343039 -59.547852
v -1.163418 5.297736 -59.565086
v -1.245571 5.309230 -59.880997
v -1.660297 5.373500 -59.826580
v -1.202644 4.331489 -59.879921
v -1.110103 4.378697 -59.512718
v -1.466674 4.266680 -59.338226
v -1.643414 4.029333 -59.732533
v -1.074669 5.154525 -60.606853
v -1.557911 5.182532 -60.670963
v -1.649158 5.312446 -60.443909
v -1.224506 5.277487 -60.387745
v -1.490617 4.414660 -60.726791
v -1.053102 4.514983 -60.595695
v -1.192729 4.368302 -60.340031
v -1.581573 4.265011 -60.423119
v -0.739608 4.708404 -58.902615
v -0.736412 4.957589 -58.897820
v -1.209649 5.025654 -58.849815
v -1.162045 4.764248 -58.844471
v -1.470162 5.294016 -59.243378
v -1.327180 5.161391 -58.981152
v -0.862824 5.121410 -59.037334
v -1.023574 5.261468 -59.266254
v -0.840359 4.559294 -59.024639
v -1.274412 4.522309 -58.925728
v -1.428340 4.378690 -59.192295
v -1.013281 4.407727 -59.298645
vt 0.506018 0.871161
vt 0.476261 0.888073
vt 0.374560 0.846024
vt 0.499361 0.827263
vt 0.593917 0.336362
vt 0.586945 0.355144
vt 0.567829 0.350448
vt 0.569256 0.339991
vt 0.510540 0.887996
vt 0.523807 0.926486
vt 0.515329 0.931371
vt 0.491250 0.898445
vt 0.521901 0.944408
vt 0.530916 0.938666
vt 0.544207 0.954537
vt 0.528451 0.969234
vt 0.554021 0.349467
vt 0.513782 0.355095
vt 0.511950 0.329877
vt 0.554428 0.339410
vt 0.530751 0.380895
vt 0.521366 0.369853
vt 0.560382 0.360333
vt 0.572821 0.364798
vt 0.557440 0.324714
vt 0.516836 0.316106
vt 0.526743 0.302122
vt 0.560640 0.315564
vt 0.498695 0.312634
vt 0.459671 0.304580
vt 0.478365 0.292507
vt 0.509166 0.297713
vt 0.461927 0.942672
vt 0.465531 0.933324
vt 0.489018 0.958167
vt 0.488968 0.966766
vt 0.508970 0.954038
vt 0.514147 0.975888
vt 0.503557 0.975938
vt 0.502375 0.959032
vt 0.415350 0.935605
vt 0.423287 0.909249
vt 0.451640 0.922969
vt 0.448259 0.936433
vt 0.552875 0.822407
vt 0.538556 0.876391
vt 0.522610 0.869773
vt 0.512046 0.824973
vt 0.419506 0.310551
vt 0.456168 0.239319
vt 0.478995 0.258224
vt 0.470912 0.277165
vt 0.595111 0.321309
vt 0.572986 0.324672
vt 0.574920 0.316764
vt 0.592189 0.311976
vt 0.548579 0.279738
vt 0.581960 0.300797
vt 0.570043 0.305046
vt 0.538692 0.289066
vt 0.494504 0.265587
vt 0.529964 0.273515
vt 0.521044 0.282342
vt 0.489012 0.277342
vt 0.418496 0.880880
vt 0.463188 0.901006
vt 0.457660 0.907642
vt 0.422661 0.891657
vt 0.453420 0.406219
vt 0.447723 0.381486
vt 0.502537 0.373425
vt 0.513482 0.386796
vt 0.494717 0.324876
vt 0.497123 0.357677
vt 0.444594 0.364922
vt 0.478399 0.909746
vt 0.503061 0.939993
vt 0.496147 0.945779
vt 0.472265 0.918310
vt 0.538018 0.892431
vt 0.544733 0.934617
vt 0.536577 0.927081
vt 0.525933 0.888513
vt 0.603515 0.319516
vt 0.603515 0.338413
vt 0.594568 0.361313
vt 0.579621 0.377725
vt 0.503568 0.251140
vt 0.487208 0.244098
vt 0.407901 0.900480
vt 0.589939 0.290488
vt 0.600966 0.306753
vt 0.536014 0.394924
vt 0.518821 0.400856
vt 0.556438 0.267627
vt 0.540219 0.261115
vt 0.399880 0.934756
vt 0.464198 0.224842
vt 0.460719 0.420796
vt 0.374560 0.928725
vn 0.3257 -0.9455 0.0036
vn 0.3391 0.9398 -0.0416
vn 0.0685 -0.9963 -0.0527
vn 0.4166 -0.9071 -0.0594
vn 0.0164 0.9967 -0.0791
vn 0.1257 0.5132 -0.8490
vn 0.0200 0.9880 0.1532
vn 0.1108 0.9936 0.0206
vn 0.0864 -0.6593 0.7469
vn 0.3773 -0.9164 0.1335
vn 0.2071 -0.2865 0.9354
vn 0.2856 -0.2699 -0.9195
vn -0.0488 0.9869 0.1535
vn 0.3675 0.9152 0.1655
vn 0.0721 0.6407 0.7644
vn 0.2703 0.8192 0.5058
vn 0.4723 -0.6773 0.5640
vn 0.2059 0.6566 -0.7256
vn 0.0764 0.9970 0.0087
vn 0.0668 -0.9934 0.0929
vn 0.1260 -0.5138 -0.8486
vn 0.9936 -0.0221 0.1111
vn 0.4307 -0.0352 -0.9018
vn 0.3063 0.9078 -0.2863
vn 0.2169 -0.8819 -0.4185
vn 0.3594 0.9284 -0.0946
vn 0.2060 -0.9779 0.0348
vn 0.2804 0.4157 0.8652
vn 0.5670 -0.3211 0.7586
vn 0.3666 -0.0927 0.9258
vn 0.0197 0.9860 0.1654
vn 0.2625 0.9277 0.2654
vn 0.2363 -0.9240 0.3007
vn 0.2094 -0.0240 -0.9775
vn 0.1303 0.9907 0.0395
vn 0.5008 -0.8538 0.1420
vn 0.1200 0.8901 -0.4397
vn 0.3076 -0.8874 -0.3433
vn 0.1192 0.0114 0.9928
vn 0.1087 0.8961 0.4303
vn 0.1655 -0.9042 0.3937
vn 0.8646 -0.0603 0.4987
vn 0.9749 -0.0206 -0.2218
vn 0.1535 -0.0203 -0.9879
vn 0.0497 0.9987 -0.0108
vn 0.0794 -0.9941 0.0732
vn 0.4042 -0.9140 0.0356
vn 0.3628 0.9310 -0.0396
vn 0.3463 0.9373 -0.0404
vn 0.2208 -0.9748 -0.0313
vn 0.3166 -0.8063 -0.4997
vn 0.3278 0.8618 -0.3870
vn 0.0733 0.8958 -0.4383
vn 0.4699 -0.8163 -0.3359
vn 0.4084 -0.0810 0.9092
vn 0.1112 -0.0462 0.9927
vn 0.0816 0.9413 0.3276
vn 0.2045 0.9558 0.2113
vn 0.0803 -0.9078 0.4115
vn 0.2684 -0.8761 0.4005
vn 0.2941 0.8549 0.4273
vn 0.2299 -0.9660 0.1178
vn -0.0471 0.9926 0.1115
vn 0.2734 0.9445 0.1819
vn 0.4063 -0.5906 0.6972
vn 0.2783 0.4745 0.8351
vn 0.2676 0.1384 -0.9535
vn 0.0090 0.9999 0.0090
vn 0.4202 -0.8342 0.3571
vn 0.1799 0.9041 -0.3875
vn 0.0987 -0.8781 -0.4682
vn 0.2539 0.2416 0.9366
vn 0.0503 0.9000 0.4330
vn 0.3233 -0.7048 0.6315
vn 0.2655 -0.9274 0.2636
vn 0.1580 0.7299 0.6650
vn 0.1434 -0.5169 0.8440
vn 0.4200 -0.8886 -0.1842
vn 0.1172 0.9900 -0.0784
vn 0.2667 -0.4265 -0.8643
vn 0.1555 0.5931 -0.7899
vn 0.0914 0.9909 0.0986
vn 0.1354 -0.2098 0.9683
usemtl Steine+Wurzel
s off
f 74/1/1 66/2/1 8/3/1 20/4/1
f 12/5/2 13/6/2 22/7/2 28/8/2
f 73/9/3 24/10/3 32/11/3 63/12/3
f 33/13/4 26/14/4 14/15/4 11/16/4
f 21/17/5 70/18/5 61/19/5 29/20/5
f 55/21/6 67/22/6 23/23/6 16/24/6
f 30/25/7 60/26/7 82/27/7 51/28/7
f 59/29/8 5/30/8 48/31/8 79/32/8
f 75/33/9 83/34/9 54/35/9 44/36/9
f 34/37/10 10/38/10 45/39/10 53/40/10
f 35/41/11 39/42/11 84/43/11 78/44/11
f 4/45/12 57/46/12 71/47/12 19/48/12
f 6/49/13 2/50/13 37/51/13 46/52/13
f 9/53/14 27/54/14 50/55/14 42/56/14
f 76/57/15 43/58/15 49/59/15 81/60/15
f 36/61/16 77/62/16 80/63/16 47/64/16
f 7/65/17 65/66/17 85/67/17 41/68/17
f 3/69/18 18/70/18 68/71/18 58/72/18
f 6/49/19 62/73/19 69/74/19 17/75/19
f 64/76/20 31/77/20 52/78/20 86/79/20
f 56/80/21 15/81/21 25/82/21 72/83/21
f 9/53/22 10/84/22 11/85/22 12/5/22
f 13/6/23 14/86/23 15/87/23 16/24/23
f 21/17/24 22/7/24 23/23/24
f 24/10/25 25/82/25 26/14/25
f 27/54/26 28/8/26 29/20/26 30/25/26
f 31/77/27 32/11/27 33/13/27 34/37/27
f 35/88/28 36/61/28 37/51/28 38/89/28
f 39/42/29 40/90/29 41/68/29
f 42/56/30 43/58/30 44/91/30 45/92/30
f 46/52/31 47/64/31 48/31/31
f 49/59/32 50/55/32 51/28/32
f 52/78/33 53/40/33 54/35/33
f 55/21/34 56/93/34 57/94/34 58/72/34
f 59/29/35 60/26/35 61/19/35 62/73/35
f 63/12/36 64/76/36 65/66/36 66/2/36
f 67/22/37 68/71/37 69/74/37 70/18/37
f 71/47/38 72/83/38 73/9/38 74/1/38
f 75/95/39 76/57/39 77/62/39 78/96/39
f 79/32/40 80/63/40 81/60/40 82/27/40
f 83/34/41 84/43/41 85/67/41 86/79/41
f 9/53/42 42/56/42 45/92/42 10/84/42
f 11/85/43 14/86/43 13/6/43 12/5/43
f 55/21/44 16/24/44 15/87/44 56/93/44
f 62/73/45 6/49/45 5/30/45 59/29/45
f 63/12/46 32/11/46 31/77/46 64/76/46
f 33/13/47 11/16/47 10/38/47 34/37/47
f 12/5/48 28/8/48 27/54/48 9/53/48
f 21/17/49 29/20/49 28/8/49 22/7/49
f 32/11/50 24/10/50 26/14/50 33/13/50
f 25/82/51 15/81/51 14/15/51 26/14/51
f 16/24/52 23/23/52 22/7/52 13/6/52
f 70/18/53 21/17/53 23/23/53 67/22/53
f 74/1/54 20/4/54 19/48/54 71/47/54
f 38/97/55 40/90/55 39/42/55 35/41/55
f 75/95/56 44/91/56 43/58/56 76/57/56
f 36/61/57 47/64/57 46/52/57 37/51/57
f 79/32/58 48/31/58 47/64/58 80/63/58
f 86/79/59 52/78/59 54/35/59 83/34/59
f 53/40/60 45/39/60 44/36/60 54/35/60
f 42/56/61 50/55/61 49/59/61 43/58/61
f 52/78/62 31/77/62 34/37/62 53/40/62
f 6/49/63 46/52/63 48/31/63 5/30/63
f 50/55/64 27/54/64 30/25/64 51/28/64
f 40/90/65 8/3/65 7/65/65 41/68/65
f 1/98/66 38/89/66 37/51/66 2/50/66
f 3/69/67 58/72/67 57/94/67 4/99/67
f 29/20/68 61/19/68 60/26/68 30/25/68
f 8/3/69 66/2/69 65/66/69 7/65/69
f 17/75/70 69/74/70 68/71/70 18/70/70
f 24/10/71 73/9/71 72/83/71 25/82/71
f 35/88/72 78/96/72 77/62/72 36/61/72
f 51/28/73 82/27/73 81/60/73 49/59/73
f 41/68/74 85/67/74 84/43/74 39/42/74
f 64/76/75 86/79/75 85/67/75 65/66/75
f 76/57/76 81/60/76 80/63/76 77/62/76
f 83/34/77 75/33/77 78/44/77 84/43/77
f 73/9/78 63/12/78 66/2/78 74/1/78
f 61/19/79 70/18/79 69/74/79 62/73/79
f 56/80/80 72/83/80 71/47/80 57/46/80
f 67/22/81 55/21/81 58/72/81 68/71/81
f 59/29/82 79/32/82 82/27/82 60/26/82
f 1/100/83 8/3/83 40/90/83 38/97/83
