# Blender v2.79 (sub 0) OBJ File: 'Burg Test.blend'
# www.blender.org
mtllib EinzelnerStein(Tx-Steine+Wurzel).mtl
o Anfangs_Steine.001_Circle.003
v -3.785348 5.604450 -52.956806
v -3.785348 5.826870 -52.982582
v 1.664465 5.790499 -54.671616
v 1.629061 5.602099 -54.666348
v 1.593647 5.598431 -54.893677
v 1.629419 5.787865 -54.898762
v -3.785348 5.818073 -56.503788
v -3.728162 5.608055 -56.515366
v -3.785348 6.508183 -54.625874
v -3.785348 6.508183 -54.855572
v -3.736992 4.213378 -54.854046
v -3.785348 4.185346 -54.626060
v -3.516464 6.506407 -53.284496
v -3.936550 6.487775 -53.483612
v -3.535473 4.338387 -53.282902
v -3.858111 4.304547 -53.477901
v 1.497536 5.761681 -53.309750
v 1.493751 5.648881 -53.308567
v 1.575747 5.657042 -53.529816
v 1.576621 5.772062 -53.528816
v 1.365057 6.093623 -54.690044
v 1.358872 6.093322 -54.881802
v 1.058223 6.219252 -54.899097
v 1.070619 6.217999 -54.669888
v 0.827439 5.011891 -54.852085
v 0.827762 5.012534 -54.638721
v 0.552675 4.924531 -54.628498
v 0.552675 4.924531 -54.852959
v 1.297329 5.752298 -55.737480
v 1.291717 5.614635 -55.736839
v 0.938119 5.578426 -55.874557
v 0.963823 5.789779 -55.874905
v -3.785348 6.528636 -55.989540
v -3.785349 6.430476 -56.161278
v -3.255548 4.703539 -56.146183
v -3.249117 4.569554 -55.997360
v 0.203902 6.314695 -55.643162
v 0.539039 6.225489 -55.665737
v 0.228880 6.214463 -55.794621
v 0.169675 5.081788 -55.649368
v 0.234428 5.218969 -55.798992
v 0.464833 5.158886 -55.657894
v 0.449550 6.246348 -53.568897
v 0.524038 6.249792 -53.791748
v 0.199884 6.315813 -53.838009
v 0.146994 6.316659 -53.602875
v 0.146994 5.118343 -53.602875
v 0.169676 5.081787 -53.832088
v 0.468115 5.148396 -53.804089
v 0.449550 5.188654 -53.568897
v -3.057586 5.604432 -52.374542
v -3.057731 5.815057 -52.397945
v -3.313213 5.826870 -52.491817
v -3.307531 5.604266 -52.458298
v -3.062407 4.543489 -52.707981
v -3.305098 4.397836 -52.817146
v -3.157491 4.404893 -52.850956
v 1.154583 5.730155 -52.856537
v 0.853956 5.741525 -52.751080
v 0.824497 5.558262 -52.759270
v 1.142395 5.585999 -52.861683
v -3.313213 6.383725 -52.803261
v -3.058150 6.330129 -52.688747
v -3.134787 6.444732 -52.853264
v 0.321606 6.161016 -52.972961
v 0.489003 6.174116 -53.127430
v 0.219955 6.270973 -53.144814
v 0.219955 5.164029 -53.144814
v 0.506424 5.248154 -53.123863
v 0.332838 5.263422 -52.960205
v -1.193292 5.801990 -56.158710
v -1.196073 5.596361 -56.157345
v -1.531508 5.598776 -56.202656
v -1.529160 5.804409 -56.204079
v -1.166297 6.351119 -54.649570
v -1.168560 6.351377 -54.879143
v -1.499061 6.371439 -54.876160
v -1.498268 6.371271 -54.646572
v -1.443946 4.876627 -54.626778
v -1.748850 4.828460 -54.627480
v -1.748850 4.828460 -54.853973
v -1.443946 4.876627 -54.854675
v -1.920548 6.423747 -53.423195
v -1.597824 6.407032 -53.451241
v -1.591793 6.412468 -53.682491
v -1.929184 6.429350 -53.667957
v -1.632400 5.000285 -53.677834
v -1.597824 5.027970 -53.451241
v -1.903477 4.965211 -53.424118
v -1.934595 4.938208 -53.654823
v -1.562504 6.311893 -55.961445
v -1.914115 6.330105 -55.992004
v -1.934733 6.430045 -55.828770
v -1.588762 6.412125 -55.798702
v -1.914211 5.076360 -56.010792
v -1.557726 5.122303 -55.963173
v -1.632399 5.000285 -55.803619
v -1.942859 4.948621 -55.836323
v -0.988677 5.582424 -52.588634
v -0.983619 5.776517 -52.584610
v -1.312153 5.782305 -52.555592
v -1.315517 5.588182 -52.559769
v -1.688169 6.369804 -52.978985
v -1.578541 6.255999 -52.813072
v -1.246089 6.238780 -52.841965
v -1.365445 6.353089 -53.007030
v -1.239639 5.193018 -52.837128
v -1.573112 5.131955 -52.792507
v -1.668222 5.014448 -52.981255
v -1.365445 5.081913 -53.007030
vt 0.614984 0.633512
vt 0.619118 0.530941
vt 0.653586 0.567430
vt 0.661171 0.643487
vt 0.639001 0.542248
vt 0.724702 0.530055
vt 0.736761 0.561801
vt 0.659203 0.564649
vt 0.836774 0.746400
vt 0.727681 0.735138
vt 0.772287 0.691876
vt 0.861986 0.680022
vt 0.646321 0.266031
vt 0.751764 0.309882
vt 0.721734 0.342475
vt 0.646722 0.337952
vt 0.907018 0.421707
vt 0.853038 0.427385
vt 0.838146 0.375481
vt 0.888644 0.360707
vt 0.685974 0.727399
vt 0.711610 0.672591
vt 0.755679 0.688901
vt 0.711100 0.733771
vt 0.682092 0.743823
vt 0.708675 0.746709
vt 0.743283 0.812199
vt 0.678351 0.828060
vt 0.761229 0.827488
vt 0.847791 0.850351
vt 0.830789 0.880551
vt 0.753713 0.857650
vt 0.833755 0.628701
vt 0.859887 0.666207
vt 0.770002 0.679919
vt 0.727545 0.663467
vt 0.742976 0.429300
vt 0.734758 0.359849
vt 0.823450 0.376724
vt 0.839219 0.428066
vt 0.835366 0.762480
vt 0.849780 0.833913
vt 0.760503 0.811063
vt 0.725174 0.750146
vt 0.768070 0.315682
vt 0.869733 0.350886
vt 0.828635 0.364070
vt 0.740635 0.346212
vt 0.743315 0.445101
vt 0.839730 0.442390
vt 0.828244 0.497237
vt 0.738097 0.512441
vt 0.783114 0.603755
vt 0.762048 0.573784
vt 0.840986 0.557217
vt 0.871385 0.574524
vt 0.844314 0.515027
vt 0.906180 0.533953
vt 0.887333 0.565993
vt 0.848697 0.545491
vt 0.674929 0.643487
vt 0.665476 0.574820
vt 0.743752 0.576622
vt 0.766741 0.609462
vt 0.909115 0.437679
vt 0.910209 0.518338
vt 0.843876 0.498489
vt 0.853670 0.441107
vt 0.971537 0.869787
vt 0.966942 0.940088
vt 0.921041 0.953932
vt 0.925861 0.910212
vt 0.681181 0.844100
vt 0.745155 0.828136
vt 0.739049 0.857991
vt 0.695959 0.877503
vt 0.796953 0.927845
vt 0.708355 0.888052
vt 0.745582 0.869660
vt 0.821538 0.893412
vt 0.906039 0.955858
vt 0.814089 0.933542
vt 0.838831 0.898149
vt 0.911717 0.915824
vt 0.864251 0.854755
vt 0.943995 0.878888
vt 0.917959 0.903393
vt 0.847318 0.884956
vt 0.616564 0.434565
vt 0.644141 0.351754
vt 0.717921 0.357659
vt 0.726953 0.429640
vt 0.614293 0.450606
vt 0.727409 0.445557
vt 0.722311 0.514369
vt 0.979181 0.760667
vt 0.854144 0.747691
vt 0.880691 0.678336
vt 0.984135 0.669831
vt 0.978131 0.599978
vt 0.983857 0.654599
vt 0.879113 0.663952
vt 0.851862 0.624517
vt 0.977501 0.778163
vt 0.867374 0.837229
vt 0.852614 0.764413
vt 0.740620 0.528170
vt 0.828314 0.513172
vt 0.833563 0.544034
vt 0.753441 0.560027
vt 0.666958 0.741411
vt 0.671723 0.722380
vt 0.673006 0.847238
vt 0.669459 0.829080
vt 0.704269 0.665447
vt 0.721166 0.649731
vt 0.904426 0.972047
vt 0.921344 0.971960
vt 0.701559 0.899811
vt 0.687703 0.884673
vt 0.829710 0.614072
vt 0.848293 0.609228
vt 0.791702 0.941428
vt 0.809498 0.947636
vt 0.970435 0.958755
vt 0.971918 0.584594
vn -0.7220 -0.2111 0.6589
vn 0.3557 -0.9259 -0.1269
vn 0.0552 0.9972 0.0513
vn 0.1532 -0.3532 -0.9229
vn 0.5095 -0.8117 -0.2856
vn 0.5478 0.7629 -0.3434
vn 0.4697 0.8691 0.1551
vn 0.0593 0.9942 0.0897
vn 0.1148 0.4050 -0.9071
vn 0.0406 -0.9843 -0.1717
vn 0.0548 0.9973 -0.0488
vn 0.1106 -0.4311 -0.8955
vn 0.0406 -0.9843 0.1717
vn 0.0770 -0.6044 0.7929
vn 0.3933 -0.9107 0.1264
vn 0.1418 -0.3675 0.9191
vn 0.4725 -0.8623 0.1824
vn -0.6670 0.3544 0.6554
vn 0.4043 0.8827 0.2395
vn 0.0910 0.5376 0.8382
vn 0.0918 0.5017 0.8601
vn 0.2923 -0.9410 -0.1705
vn 0.3095 -0.9406 0.1393
vn 0.0559 0.9981 0.0261
vn 0.1126 0.4658 -0.8777
vn 0.0452 0.9990 -0.0053
vn 0.0593 -0.9942 0.0897
vn 0.9712 -0.1870 -0.1480
vn 0.9392 -0.0189 0.3428
vn 0.3876 0.9217 -0.0150
vn 0.3039 -0.9527 0.0012
vn 0.3714 -0.0360 -0.9278
vn 0.1867 0.8332 -0.5206
vn 0.1813 -0.7627 -0.6208
vn 0.2045 0.9769 0.0624
vn 0.2012 -0.9634 0.1772
vn -0.3268 0.1188 0.9376
vn 0.1787 -0.7632 0.6210
vn 0.3195 -0.0791 0.9443
vn -0.1029 0.7931 0.6004
vn 0.2898 0.8748 0.3883
vn 0.2418 -0.9084 0.3412
vn 0.1338 -0.0084 -0.9910
vn 0.0606 0.9982 0.0005
vn 0.1560 -0.9878 0.0000
vn 0.0523 0.9984 0.0229
vn 0.2073 -0.9744 0.0868
vn 0.0887 0.8544 -0.5119
vn 0.1854 -0.8136 -0.5510
vn 0.0876 -0.0229 0.9959
vn 0.0893 0.8479 0.5226
vn 0.2241 -0.8785 0.4219
vn 0.7934 -0.0587 0.6059
vn 0.9910 -0.1176 0.0633
vn 0.5985 -0.8001 -0.0407
vn 0.9290 -0.1236 -0.3488
vn 0.7278 0.6815 -0.0764
vn 0.1308 -0.0130 -0.9913
vn 0.0593 0.9982 0.0014
vn 0.0240 -0.9997 0.0000
vn 0.0335 0.9975 -0.0617
vn 0.0598 -0.9887 0.1378
vn 0.3755 -0.9151 0.1471
vn 0.3780 0.9119 0.1599
vn 0.3123 0.9278 -0.2039
vn 0.2856 0.9476 0.1435
vn 0.2421 -0.9298 0.2773
vn 0.2612 -0.9188 -0.2960
vn 0.2936 -0.6788 -0.6731
vn 0.3153 0.6426 -0.6983
vn 0.0932 0.8462 -0.5247
vn 0.2808 -0.7553 -0.5922
vn -0.2770 -0.2803 0.9191
vn 0.0912 -0.0406 0.9950
vn -0.2813 0.4700 0.8367
vn 0.0884 0.8420 0.5322
vn 0.0812 -0.8800 0.4679
vn 0.2764 -0.8376 0.4713
vn 0.3135 0.7599 0.5695
vn 0.2461 -0.9662 0.0771
vn -0.2032 0.9248 0.3216
vn 0.2719 0.9579 0.0916
vn 0.0517 -0.9935 0.1012
vn -0.7188 0.0828 0.6903
vn 0.1363 0.0422 -0.9898
vn 0.0597 0.9982 0.0003
vn 0.2983 -0.9541 -0.0271
vn 0.0542 0.9984 0.0167
vn 0.3206 -0.9379 -0.1324
vn 0.0905 0.8596 -0.5028
vn 0.0933 -0.7833 -0.6146
vn 0.0984 0.0464 0.9941
vn 0.0870 0.8547 0.5118
vn 0.3634 -0.8266 0.4298
vn 0.2096 -0.9778 0.0033
vn 0.0925 0.5195 0.8494
vn 0.1377 -0.5512 0.8229
vn 0.1661 -0.9737 -0.1558
vn 0.1820 -0.9713 0.1534
vn 0.0545 0.9978 0.0387
vn 0.0542 0.9978 -0.0374
vn 0.1466 -0.4507 -0.8806
vn 0.1117 0.4346 -0.8937
usemtl Steine+Wurzel
s off
f 1/1/1 16/2/1 56/3/1 54/4/1
f 15/5/2 89/6/2 109/7/2 57/8/2
f 76/9/3 23/10/3 37/11/3 94/12/3
f 8/13/4 73/14/4 95/15/4 35/16/4
f 5/17/5 25/18/5 42/19/5 30/20/5
f 6/21/6 29/22/6 38/23/6 22/24/6
f 3/25/7 21/26/7 44/27/7 20/28/7
f 46/29/8 84/30/8 106/31/8 67/32/8
f 71/33/9 91/34/9 39/35/9 32/36/9
f 82/37/10 97/38/10 40/39/10 28/40/10
f 75/41/11 85/42/11 45/43/11 24/44/11
f 72/45/12 31/46/12 41/47/12 96/48/12
f 79/49/13 27/50/13 48/51/13 87/52/13
f 99/53/14 107/54/14 70/55/14 60/56/14
f 50/57/15 18/58/15 61/59/15 69/60/15
f 51/61/16 55/62/16 108/63/16 102/64/16
f 4/65/17 19/66/17 49/67/17 26/68/17
f 14/69/18 2/70/18 53/71/18 62/72/18
f 17/73/19 43/74/19 66/75/19 58/76/19
f 100/77/20 59/78/20 65/79/20 105/80/20
f 52/81/21 101/82/21 104/83/21 63/84/21
f 83/85/8 13/86/8 64/87/8 103/88/8
f 11/89/22 36/90/22 98/91/22 81/92/22
f 12/93/23 80/94/23 90/95/23 16/2/23
f 10/96/24 77/97/24 93/98/24 33/99/24
f 7/100/25 34/101/25 92/102/25 74/103/25
f 9/104/26 14/69/26 86/105/26 78/106/26
f 88/107/27 47/108/27 68/109/27 110/110/27
f 3/25/28 4/111/28 5/112/28 6/21/28
f 17/73/29 18/113/29 19/114/29 20/28/29
f 21/26/30 22/24/30 23/10/30 24/44/30
f 25/18/31 26/68/31 27/50/31 28/40/31
f 29/22/32 30/115/32 31/116/32 32/36/32
f 37/11/33 38/23/33 39/35/33
f 40/39/34 41/47/34 42/19/34
f 43/74/35 44/27/35 45/43/35 46/29/35
f 47/108/36 48/51/36 49/67/36 50/57/36
f 51/117/37 52/81/37 53/71/37 54/118/37
f 55/62/38 56/3/38 57/8/38
f 58/76/39 59/78/39 60/119/39 61/120/39
f 62/72/40 63/84/40 64/87/40
f 65/79/41 66/75/41 67/32/41
f 68/109/42 69/60/42 70/55/42
f 71/33/43 72/121/43 73/122/43 74/103/43
f 75/41/44 76/9/44 77/97/44 78/106/44
f 79/49/45 80/94/45 81/92/45 82/37/45
f 83/85/46 84/30/46 85/42/46 86/105/46
f 87/52/47 88/107/47 89/6/47 90/95/47
f 91/34/48 92/102/48 93/98/48 94/12/48
f 95/15/49 96/48/49 97/38/49 98/91/49
f 99/123/50 100/77/50 101/82/50 102/124/50
f 103/88/51 104/83/51 105/80/51 106/31/51
f 107/54/52 108/63/52 109/7/52 110/110/52
f 17/73/53 58/76/53 61/120/53 18/113/53
f 3/25/54 20/28/54 19/114/54 4/111/54
f 4/65/55 26/68/55 25/18/55 5/17/55
f 5/112/56 30/115/56 29/22/56 6/21/56
f 6/21/57 22/24/57 21/26/57 3/25/57
f 71/33/58 32/36/58 31/116/58 72/121/58
f 75/41/59 24/44/59 23/10/59 76/9/59
f 82/37/60 28/40/60 27/50/60 79/49/60
f 86/105/61 14/69/61 13/86/61 83/85/61
f 87/52/62 48/51/62 47/108/62 88/107/62
f 49/67/63 19/66/63 18/58/63 50/57/63
f 20/28/64 44/27/64 43/74/64 17/73/64
f 37/11/65 23/10/65 22/24/65 38/23/65
f 24/44/66 45/43/66 44/27/66 21/26/66
f 48/51/67 27/50/67 26/68/67 49/67/67
f 28/40/68 40/39/68 42/19/68 25/18/68
f 41/47/69 31/46/69 30/20/69 42/19/69
f 32/36/70 39/35/70 38/23/70 29/22/70
f 94/12/71 37/11/71 39/35/71 91/34/71
f 98/91/72 36/90/72 35/16/72 95/15/72
f 54/4/73 56/3/73 55/62/73 51/61/73
f 99/123/74 60/119/74 59/78/74 100/77/74
f 52/81/75 63/84/75 62/72/75 53/71/75
f 103/88/76 64/87/76 63/84/76 104/83/76
f 110/110/77 68/109/77 70/55/77 107/54/77
f 69/60/78 61/59/78 60/56/78 70/55/78
f 58/76/79 66/75/79 65/79/79 59/78/79
f 68/109/80 47/108/80 50/57/80 69/60/80
f 14/69/81 62/72/81 64/87/81 13/86/81
f 66/75/82 43/74/82 46/29/82 67/32/82
f 56/3/83 16/2/83 15/5/83 57/8/83
f 1/125/84 54/118/84 53/71/84 2/70/84
f 7/100/85 74/103/85 73/122/85 8/126/85
f 9/104/86 78/106/86 77/97/86 10/96/86
f 11/89/87 81/92/87 80/94/87 12/93/87
f 45/43/88 85/42/88 84/30/88 46/29/88
f 16/2/89 90/95/89 89/6/89 15/5/89
f 33/99/90 93/98/90 92/102/90 34/101/90
f 40/39/91 97/38/91 96/48/91 41/47/91
f 51/117/92 102/124/92 101/82/92 52/81/92
f 67/32/93 106/31/93 105/80/93 65/79/93
f 57/8/94 109/7/94 108/63/94 55/62/94
f 88/107/95 110/110/95 109/7/95 89/6/95
f 100/77/96 105/80/96 104/83/96 101/82/96
f 107/54/97 99/53/97 102/64/97 108/63/97
f 97/38/98 82/37/98 81/92/98 98/91/98
f 79/49/99 87/52/99 90/95/99 80/94/99
f 76/9/100 94/12/100 93/98/100 77/97/100
f 85/42/101 75/41/101 78/106/101 86/105/101
f 72/45/102 96/48/102 95/15/102 73/14/102
f 91/34/103 71/33/103 74/103/103 92/102/103
f 83/85/8 103/88/8 106/31/8 84/30/8
