# Blender v2.79 (sub 0) OBJ File: 'Burg Test.blend'
# www.blender.org
mtllib Burg_v4.mtl
o Cube_Cube.021
v -10.206842 14.966897 -292.108032
v -10.206842 23.232567 -292.108032
v -9.354722 14.966897 -299.648224
v -9.354722 23.232567 -299.648224
v 1.454818 15.559076 -290.681610
v 1.463925 21.626932 -290.753571
v 2.270980 15.608605 -298.335175
v 2.270914 22.880074 -298.334595
v -4.507258 15.112421 -299.100403
v -4.507258 23.241459 -299.100403
v -5.359378 15.112421 -291.560211
v -5.448596 23.153887 -291.478424
v -10.627445 35.113388 -292.205200
v -9.354722 36.293907 -299.648224
v -5.459509 34.926476 -291.914429
v -4.505686 36.247326 -299.119812
v -9.780782 15.049946 -295.878113
v -9.780782 23.422928 -295.878113
v 2.647339 15.221483 -294.473602
v 2.246967 21.936670 -294.548615
v -5.100528 24.554569 -294.922363
v -4.933318 15.221483 -295.330292
v -9.780735 36.308197 -295.878693
v -4.938770 35.666080 -295.493774
v -5.719124 15.102091 -299.237366
v -6.930990 15.072114 -299.374298
v -8.142857 15.025471 -299.511261
v -6.646973 23.466091 -291.627747
v -7.826132 23.430710 -291.794678
v -9.005910 23.356720 -291.961060
v -8.142857 23.367451 -299.511261
v -6.930990 23.472939 -299.374298
v -5.719124 23.540422 -299.237366
v -8.994976 15.025471 -291.971069
v -7.783110 15.072114 -291.834106
v -6.571244 15.102091 -291.697174
v -6.718036 34.866005 -291.968842
v -8.046425 35.045559 -291.965729
v -9.381622 35.005230 -292.068176
v -8.142857 36.304825 -299.511261
v -6.930655 36.299210 -299.378448
v -5.717947 36.264473 -299.251892
v -8.574104 36.195534 -295.762726
v -7.375017 35.938179 -295.671722
v -6.163054 35.707977 -295.599243
v -6.145185 15.209432 -295.467255
v -7.357050 15.174376 -295.604218
v -8.568916 15.119525 -295.741150
v -9.922802 15.039979 -294.621429
v -10.064822 15.011200 -293.364716
v 2.140052 22.197527 -293.276459
v 2.045283 21.859921 -291.998962
v -5.223198 24.055847 -293.788788
v -5.316197 23.633060 -292.715576
v -5.075338 15.208531 -294.073608
v -5.217359 15.170944 -292.816895
v -5.119080 35.283287 -294.331665
v -5.299673 34.981892 -293.155243
v -10.064822 23.334913 -293.364716
v -9.922802 23.400379 -294.621429
v 2.403555 15.170944 -291.955658
v 2.612679 15.208531 -293.204773
v -10.361435 35.517319 -293.416565
v -9.998705 36.162945 -294.617859
v -6.356077 35.294754 -294.418457
v -6.549856 34.958561 -293.220795
v -7.568148 35.594505 -294.454102
v -7.844401 35.237389 -293.210510
v -8.811956 35.960594 -294.487671
v -9.165755 35.357620 -293.274139
v -8.710936 15.108298 -294.484467
v -8.852956 15.075796 -293.227753
v -7.499070 15.162207 -294.347504
v -7.641090 15.126925 -293.090820
v -6.287204 15.196678 -294.210571
v -6.429224 15.159675 -292.953857
v -9.638762 23.400379 -297.134827
v -9.496742 23.334913 -298.391510
v 2.760222 15.208531 -295.733612
v 2.621918 15.170944 -297.021973
v -9.638761 36.308105 -297.134827
v -9.496742 36.301758 -298.391510
v -9.496742 15.011200 -298.391510
v -9.638762 15.039979 -297.134827
v 2.621879 23.347980 -297.022003
v 2.434672 22.682034 -295.785187
v -4.665123 23.729027 -297.803833
v -4.876876 24.098450 -296.352539
v -4.649279 15.170944 -297.843689
v -4.791298 15.208531 -296.587006
v -4.644176 36.085243 -297.906738
v -4.782645 35.916435 -296.693909
v -8.284876 15.075796 -298.254547
v -8.426896 15.108298 -296.997864
v -7.073010 15.126925 -298.117615
v -7.215030 15.162207 -296.860901
v -5.861144 15.159675 -297.980652
v -6.003164 15.196678 -296.723969
v -5.856853 36.123055 -298.033661
v -5.995715 35.973930 -296.815979
v -7.070704 36.214165 -298.146088
v -7.210506 36.111938 -296.916809
v -8.284451 36.295551 -298.259827
v -8.425426 36.251335 -297.016022
v -9.496742 40.261986 -298.391510
v -9.354722 40.261986 -299.648224
v -8.764004 38.327885 -292.081757
v -9.796933 38.498146 -292.202118
v -5.719124 40.261986 -299.237366
v -4.507258 40.261986 -299.100403
v -4.972364 39.398354 -293.091614
v -5.120076 39.223572 -291.810303
v -6.431944 39.061325 -291.922394
v -8.142857 40.261986 -299.511261
v -6.252779 39.277504 -293.157104
v -8.543974 38.419556 -293.263824
v -9.596235 38.503822 -293.378235
v -4.617075 40.244648 -297.907318
v -5.850885 40.256760 -298.000854
v -8.284876 40.261986 -298.254547
v -9.496742 41.825172 -298.391510
v -9.354722 41.825172 -299.648224
v -8.643204 39.325134 -292.168152
v -9.698620 39.451218 -292.269562
v -5.719124 41.825172 -299.237366
v -4.507258 41.825172 -299.100403
v -4.882842 40.999413 -293.114502
v -5.002368 40.852814 -291.838684
v -6.266336 40.675209 -291.944275
v -8.142857 41.825172 -299.511261
v -6.093356 40.848862 -293.189148
v -8.402886 39.469547 -293.328491
v -9.459892 39.441570 -293.436371
v -4.648090 41.824730 -297.846008
v -5.861144 41.825172 -297.980652
v -8.284876 41.825172 -298.254547
v -1.618024 22.931337 -298.783020
v -2.577977 15.560425 -290.757751
v -1.622920 15.608606 -298.774231
v -2.547098 22.658270 -291.217743
v -2.515759 23.152563 -295.095245
v -2.542265 15.221483 -295.060089
v -2.702938 23.185265 -293.785522
v -2.870928 23.092957 -292.505798
v -2.684285 15.208531 -293.803406
v -2.826305 15.170944 -292.546692
v -2.258225 15.170944 -297.573486
v -2.400245 15.208531 -296.316803
v -2.206991 23.150324 -297.660431
v -2.328400 23.541571 -296.431641
v 1.911817 21.868919 -290.738495
v 1.900097 15.112421 -290.634766
v -3.027207 15.112421 -290.768951
v -3.012537 23.108578 -291.249451
v 1.496078 21.553185 -291.038055
v 1.486969 15.559076 -290.966125
v -2.545825 15.560425 -291.042267
v -2.514333 22.614996 -291.502808
v -5.923096 40.062649 -295.869751
v -4.608190 39.996998 -295.936554
v -6.143013 44.537224 -295.468933
v -4.845421 44.140335 -295.542084
v -9.551037 39.573639 -295.854004
v -8.381292 39.698120 -295.721924
v -9.672452 44.218498 -295.866730
v -8.487337 44.298645 -295.732605
v -10.232695 31.598385 -292.101990
v -9.354722 31.726107 -299.648224
v -4.506236 31.811615 -299.113037
v -5.294680 31.292582 -292.231293
v -4.919978 32.098358 -295.493927
v -9.780751 31.801971 -295.878510
v -9.035143 31.428551 -292.078033
v -7.808263 31.265083 -292.159027
v -6.495726 30.806326 -292.711334
v -5.718359 31.814629 -299.246826
v -6.930772 31.813616 -299.376984
v -8.142857 31.780380 -299.511261
v -5.156068 31.498550 -293.421234
v -5.511486 31.295042 -294.532928
v -9.928534 31.766964 -294.619263
v -10.084682 31.672550 -293.357697
v -9.496742 31.767004 -298.391510
v -9.638761 31.794025 -297.134827
v -4.785671 32.031334 -296.656525
v -4.645960 31.932499 -297.884705
v -9.354722 24.997625 -299.648224
v -4.507046 25.262619 -299.103027
v -10.212408 24.971075 -292.106873
v -5.443286 25.097147 -291.667877
v -4.984652 26.368185 -295.236877
v -9.780775 25.164192 -295.878204
v -9.020666 25.032745 -291.988190
v -7.838879 25.062445 -291.885315
v -6.576154 25.791077 -292.322205
v -5.718965 25.259899 -299.239319
v -6.930945 25.206230 -299.374878
v -8.142857 25.115757 -299.511261
v -5.289266 25.511269 -292.899384
v -5.590144 26.385450 -294.208313
v -9.923993 25.139053 -294.620972
v -10.068963 25.067591 -293.363312
v -9.496742 25.087202 -298.391510
v -9.638762 25.144678 -297.134827
v -4.835259 25.994017 -296.470947
v -4.653433 25.670208 -297.837097
v -6.317977 26.414478 -294.220215
v -6.228463 31.291159 -294.656067
v -5.039510 31.781143 -294.457458
v -6.242451 31.781143 -294.586548
v -6.651082 25.081732 -291.784424
v -6.556482 31.193819 -292.248047
v -5.163132 25.898338 -293.996765
v -6.339015 25.915224 -294.219330
v -7.761394 26.402187 -295.310822
v -7.672004 31.225624 -295.732849
v -6.421546 31.229507 -295.574646
v -8.107567 25.725542 -292.563904
v -8.030534 30.740791 -292.944397
v -6.493531 26.330090 -295.269958
v -10.054199 28.044277 -292.281464
v -4.816799 29.270172 -295.721069
v -9.780764 28.483082 -295.878357
v -8.914416 28.068558 -292.152435
v -7.800196 28.130379 -292.046753
v -6.599299 28.137775 -292.027649
v -5.806275 28.483387 -299.016968
v -6.947583 28.499640 -299.332764
v -8.142857 28.448067 -299.511261
v -4.906099 28.873886 -294.734009
v -9.910168 28.430019 -294.637024
v -9.968658 28.215584 -293.474243
v -9.496742 28.427101 -298.391510
v -9.638762 28.469353 -297.134827
v -4.776459 29.030165 -296.657776
v -4.731463 28.754564 -297.651184
v -9.354722 28.361866 -299.648224
v -4.638516 28.456024 -298.767700
v -6.511709 28.298702 -292.578461
v -5.400710 28.875841 -294.762177
v -7.714083 28.813906 -295.528473
v -8.036214 28.186268 -292.788696
v -6.385247 28.810307 -295.614319
v -6.192410 17.967201 -291.162018
v -4.841002 17.325911 -291.188477
v -5.651912 14.749520 -285.879700
v -4.460067 14.860443 -286.819611
v -4.471361 14.908909 -285.927704
v -4.939053 17.922211 -291.245850
v -5.895710 16.320704 -288.508698
v -4.700700 16.406336 -288.593475
v -4.626166 16.043310 -289.040253
v -5.377698 17.134056 -291.885742
v -4.996764 14.668589 -287.516876
v -5.162862 15.851457 -289.737518
v -9.478024 15.987885 -291.284271
v -9.335644 15.710658 -292.227325
v -9.520107 15.068341 -290.930206
v -6.142100 15.174754 -290.029083
v -6.210966 16.082870 -290.363373
v -6.021732 15.777821 -291.285248
v -4.924099 15.151452 -289.698761
v -4.973894 16.064941 -290.010132
v -4.825514 15.769404 -290.912018
v -4.835330 14.858435 -290.585571
v -2.110717 23.132504 -298.839508
v 2.763937 23.369802 -298.278687
v 2.763937 15.112421 -298.278687
v -2.116205 15.112421 -298.830200
v -1.397617 22.363342 -298.259003
v 1.402397 22.340572 -297.997406
v -1.401530 18.017530 -298.251099
v -1.667070 22.933702 -298.352875
v 2.221869 22.880331 -297.904480
v 2.221934 15.608863 -297.905060
v -1.671967 15.608864 -298.344086
v -2.468186 22.365551 -293.904724
v 1.080048 22.342781 -293.643127
v 1.080225 18.615723 -293.300110
v -2.472099 18.615725 -293.896820
v 1.916401 23.079418 -298.376190
v 1.043407 15.112421 -290.658112
v 1.418892 22.148073 -294.643646
v 1.298021 22.369261 -293.364960
v 1.190522 22.137833 -292.087067
v 1.782303 23.155306 -297.132996
v 1.606537 22.831478 -295.897583
v 1.915447 15.112421 -298.374573
v 1.055640 22.084454 -290.827332
v 1.745044 15.221483 -294.575592
v 1.691718 15.208531 -293.308868
v 1.494261 15.170944 -292.058411
v 1.773427 15.170944 -297.117859
v 1.862994 15.208531 -295.834991
v 0.753652 15.559310 -290.694855
v 0.766546 21.806248 -290.834259
v 0.785804 15.559310 -290.979370
v 0.798804 21.737797 -291.118866
v 1.594760 22.888987 -298.412567
v 1.593964 15.608605 -298.411530
v 1.545715 22.889244 -297.982422
v 1.544918 15.608863 -297.981384
v 1.011104 22.344532 -298.042908
v 1.402573 18.017530 -298.042816
v -2.187628 22.063416 -295.045837
v -2.191542 18.615145 -295.037933
v 1.164701 18.615145 -294.785797
v 1.164525 22.342201 -294.784241
v -1.796536 18.614330 -296.644531
v 1.283461 22.984930 -296.390839
v -1.792623 23.007698 -296.652405
v 1.283638 18.614330 -296.392395
v -0.100379 15.112421 -298.602386
v -0.978448 22.596516 -291.038391
v -0.398610 15.221483 -294.817841
v -0.496284 15.208531 -293.556122
v -0.666022 15.170944 -292.302551
v -0.242399 15.170944 -297.345673
v -0.268625 15.208531 -296.075897
v -0.890275 22.232258 -291.026001
v -0.857765 22.176397 -291.310852
v -0.014478 15.608605 -298.592865
v -0.063524 15.608864 -298.162750
v 0.000522 18.017530 -298.146973
v -0.695937 18.615725 -293.499115
v -0.991900 15.112421 -290.713531
v -0.702458 22.777262 -293.049438
v -0.840203 22.798090 -292.296417
v -0.912163 15.559868 -290.726318
v -0.880011 15.559868 -291.010803
v -0.513421 18.615145 -294.933777
v -0.256450 18.614330 -296.540375
v -0.694069 22.354166 -293.480377
v 2.647969 23.777737 -297.164734
v 1.285473 23.229383 -297.809937
v -4.702346 30.908430 -298.029968
v -4.440382 29.143061 -298.379761
v -5.308266 30.101336 -297.939362
v 1.670038 23.076221 -297.233521
v -0.567733 26.942516 -297.833191
v -1.819926 26.703751 -297.598633
v -1.581829 26.325249 -298.160858
v 2.354954 23.080410 -298.255005
v -4.764171 30.404087 -298.918396
v -0.319128 26.015095 -298.418335
v 0.440351 25.977104 -297.688293
v 0.473328 24.398714 -297.357147
v 0.514991 24.371878 -297.928741
v 0.509135 25.291927 -298.304993
v -0.945229 27.528488 -297.660858
v -0.512352 25.958469 -298.666656
v 0.663968 26.002642 -297.438660
v 0.771758 24.823454 -298.482300
v 0.221192 27.313026 -298.525452
v 0.405936 26.623844 -298.960297
v 0.970318 26.595613 -298.417786
v 1.021432 26.086445 -298.876068
v 0.154493 26.361193 -298.641632
v 0.686670 25.896542 -298.568817
v -0.005242 26.957085 -298.265686
v 0.642475 26.336784 -298.172577
v 2.229724 23.708843 -299.515289
v 1.216431 23.348209 -298.859222
v 2.779581 24.008347 -298.342682
v 0.405855 27.061699 -297.668152
v 1.241786 27.453159 -298.187836
v 1.860235 27.308983 -297.177765
v 0.264912 28.181389 -297.289581
v 1.110040 28.528091 -297.848206
v 1.695517 28.359503 -296.824768
v 2.242291 19.579596 -300.181824
v 1.345834 19.146708 -299.486023
v 2.945063 19.517557 -299.128845
v 2.610841 15.192572 -300.780609
v 1.668207 15.005316 -300.153748
v 3.308914 15.261130 -299.791077
v -10.206842 18.552940 -292.108032
v -9.354722 18.552940 -299.648224
v 2.763937 18.694868 -298.278687
v 1.905182 18.174543 -290.679779
v -5.398085 18.732023 -291.524719
v -4.507258 18.770016 -299.100403
v 2.473639 18.285976 -294.506134
v -9.780782 18.682547 -295.878113
v -8.142857 18.644621 -299.511261
v -6.930990 18.716793 -299.374298
v -5.719124 18.763042 -299.237366
v -6.604099 18.730793 -291.667053
v -7.801775 18.698473 -291.817017
v -8.999720 18.639965 -291.966705
v -10.064822 18.622425 -293.364716
v -9.922802 18.667120 -294.621429
v 2.407631 18.237116 -292.891296
v 2.248119 18.203772 -291.974457
v 2.621901 18.849363 -297.021973
v 2.719049 18.426058 -295.956451
v -9.638762 18.667120 -297.134827
v -9.496742 18.622425 -298.391510
v -3.020843 18.712364 -290.977417
v -2.113824 18.722746 -298.834229
v 1.458769 18.292316 -290.712830
v -2.564580 18.740524 -290.957306
v 1.490921 18.260321 -290.997345
v -2.532163 18.721750 -291.242065
v 2.270951 18.763315 -298.334930
v -1.620796 18.785557 -298.778046
v 2.221906 18.763573 -297.904785
v -1.669842 18.785814 -298.347900
v 1.402497 19.893072 -297.998291
v -1.399833 19.902950 -298.254547
v -2.470402 19.905159 -293.900269
v 0.791444 18.340548 -291.039886
v 1.164625 20.911671 -294.785126
v -2.189844 19.904581 -295.041351
v -1.794839 19.903767 -296.647949
v 1.255644 20.709904 -296.558289
v 1.080148 20.149422 -293.324249
v -0.695126 19.900221 -293.490997
v -0.870359 18.531149 -291.140961
v -10.206842 21.196053 -292.108032
v 1.164568 21.277081 -294.784637
v 1.283504 21.276264 -296.391205
v -9.354722 21.196051 -299.648224
v 2.763937 21.335329 -298.278687
v 1.908929 20.431496 -290.712921
v -5.426614 21.167725 -291.498566
v -4.507258 21.465866 -299.100403
v 2.345612 21.301956 -294.530121
v -9.780782 21.359974 -295.878113
v -8.142857 21.312134 -299.511261
v -6.930990 21.403124 -299.374298
v -5.719124 21.461365 -299.237366
v -6.628314 21.405348 -291.644836
v -7.815533 21.371298 -291.804382
v -9.003216 21.304047 -291.963501
v -10.064822 21.284096 -293.364716
v -9.922802 21.340523 -294.621429
v 2.256499 20.956959 -292.914215
v 2.133554 20.439131 -291.988281
v 2.621888 21.560560 -297.022003
v 2.668839 20.886339 -295.889679
v -9.638762 21.340523 -297.134827
v -9.496742 21.284096 -298.391510
v -3.016151 21.133579 -291.131073
v -2.112069 21.383753 -298.837219
v 1.461681 20.306866 -290.735840
v -2.554706 20.852289 -291.104401
v 1.493834 20.251289 -291.020325
v -2.522092 20.819677 -291.389343
v 2.270930 21.088512 -298.334747
v -1.619230 21.127144 -298.780853
v 2.221885 21.088770 -297.904602
v -1.668277 21.127401 -298.350708
v 1.402440 21.275452 -297.997803
v -1.398582 21.292610 -298.257050
v 1.080092 21.277658 -293.643524
v -2.469150 21.294819 -293.902771
v 0.795601 20.390474 -291.084503
v -2.188592 21.294239 -295.043884
v -1.793587 21.293425 -296.650482
v -0.694529 21.286240 -293.485016
v -0.863245 20.489004 -291.236908
v -0.113819 26.740143 -297.546051
v -0.197008 25.085196 -297.515594
v -0.177889 24.543755 -298.082794
v 0.151098 25.372051 -298.571411
v -0.046895 26.443726 -297.758331
v 0.108804 25.641460 -298.359772
v 0.608237 26.942368 -298.469818
v 0.723939 26.346191 -298.916779
v 0.329409 26.636599 -298.217560
v 0.429448 26.121124 -298.604034
v -3.344212 23.440773 -297.309937
v -3.572935 23.619764 -297.073853
v -3.021253 23.498634 -296.944702
v -2.888438 23.337265 -297.196228
v -2.143209 25.406445 -297.889832
v -2.730670 24.444952 -297.606171
v -2.962656 24.693399 -297.256531
v -2.378320 25.721395 -297.431488
v -2.210453 24.394089 -297.280640
v -1.701821 25.006056 -297.421417
v -2.151726 24.307468 -297.425171
v -1.658747 24.757013 -297.650238
v -2.321908 24.349915 -297.142944
v -1.652290 25.165009 -297.332764
v -2.202598 24.155781 -297.503784
v -1.545911 24.532972 -297.798248
v -2.112631 23.146355 -297.852783
v -1.653916 23.180752 -297.950470
v -2.129679 23.094818 -297.941315
v -1.686206 23.133701 -298.087280
vt 0.691195 0.514122
vt 0.691195 0.468150
vt 0.719520 0.470445
vt 0.719520 0.516096
vt 0.272302 0.725658
vt 0.272302 0.766095
vt 0.262608 0.766133
vt 0.262608 0.725648
vt 0.030739 0.721328
vt 0.030715 0.753209
vt 0.002337 0.753397
vt 0.001761 0.721179
vt 0.519235 0.434878
vt 0.518317 0.389061
vt 0.545444 0.391160
vt 0.546411 0.436620
vt 0.313216 0.839993
vt 0.313217 0.860503
vt 0.282558 0.852593
vt 0.280922 0.833454
vt 0.577686 0.281251
vt 0.549367 0.282914
vt 0.550629 0.204185
vt 0.578271 0.195111
vt 0.607134 0.685276
vt 0.551385 0.684823
vt 0.552194 0.656176
vt 0.606897 0.657050
vt 0.313210 0.661264
vt 0.313210 0.688603
vt 0.284889 0.688581
vt 0.284889 0.661242
vt 0.384193 0.442239
vt 0.383387 0.397913
vt 0.438149 0.395677
vt 0.438637 0.439979
vt 0.191203 0.145561
vt 0.191203 0.192157
vt 0.163888 0.185459
vt 0.163888 0.145663
vt 0.064977 0.911302
vt 0.092279 0.911100
vt 0.092279 0.999650
vt 0.064977 0.999725
vt 0.245833 0.376830
vt 0.273147 0.375612
vt 0.273147 0.477987
vt 0.245833 0.478233
vt 0.460440 0.214298
vt 0.432200 0.212521
vt 0.433586 0.131995
vt 0.461803 0.132842
vt 0.863824 0.196992
vt 0.891511 0.194334
vt 0.891515 0.293752
vt 0.864179 0.290069
vt 0.786577 0.193459
vt 0.809931 0.200611
vt 0.809752 0.280582
vt 0.783432 0.271973
vt 0.750846 0.585072
vt 0.723541 0.584191
vt 0.723956 0.555942
vt 0.751207 0.556771
vt 0.398183 0.661279
vt 0.398183 0.688618
vt 0.369857 0.688623
vt 0.369856 0.661283
vt 0.609203 0.774602
vt 0.551808 0.767506
vt 0.549367 0.735989
vt 0.608863 0.743773
vt 0.662870 0.278528
vt 0.634553 0.278349
vt 0.634557 0.177336
vt 0.662870 0.177339
vt 0.398189 0.838715
vt 0.398189 0.858953
vt 0.369863 0.859615
vt 0.369862 0.839262
vt 0.118936 0.731345
vt 0.115925 0.771681
vt 0.087917 0.754984
vt 0.087798 0.740718
vt 0.606219 0.512854
vt 0.606219 0.466680
vt 0.634544 0.466175
vt 0.634544 0.512419
vt 0.398191 0.579215
vt 0.398187 0.606575
vt 0.369861 0.606579
vt 0.369865 0.579218
vt 0.398184 0.633930
vt 0.369858 0.633935
vt 0.833029 0.588203
vt 0.805718 0.587395
vt 0.805947 0.559488
vt 0.833430 0.560723
vt 0.778283 0.586250
vt 0.778485 0.557881
vt 0.542040 0.204418
vt 0.515348 0.208631
vt 0.521366 0.128702
vt 0.549367 0.125622
vt 0.488187 0.212498
vt 0.491362 0.128426
vt 0.163898 0.377541
vt 0.191211 0.377605
vt 0.191215 0.477339
vt 0.163904 0.476958
vt 0.218520 0.377578
vt 0.218521 0.478111
vt 0.720197 0.888459
vt 0.748072 0.885945
vt 0.748072 0.982966
vt 0.719679 0.987709
vt 0.805491 0.504363
vt 0.776347 0.500761
vt 0.775751 0.472257
vt 0.805483 0.475970
vt 0.746690 0.498445
vt 0.745971 0.470483
vt 0.273147 0.139610
vt 0.273147 0.185253
vt 0.245833 0.188277
vt 0.245833 0.142213
vt 0.218518 0.190643
vt 0.218518 0.144254
vt 0.313217 0.579203
vt 0.313214 0.606562
vt 0.284892 0.606543
vt 0.284895 0.579186
vt 0.313211 0.633916
vt 0.284890 0.633895
vt 0.465016 0.388031
vt 0.465608 0.434004
vt 0.491651 0.388115
vt 0.492409 0.434070
vt 0.341532 0.661278
vt 0.341534 0.633930
vt 0.341536 0.606574
vt 0.341540 0.579214
vt 0.749982 0.527415
vt 0.778287 0.529744
vt 0.805774 0.532047
vt 0.833430 0.533787
vt 0.833315 0.506672
vt 0.549569 0.516091
vt 0.549569 0.470440
vt 0.577894 0.468146
vt 0.577894 0.514118
vt 0.736416 0.182417
vt 0.763237 0.187082
vt 0.756791 0.265188
vt 0.728773 0.263902
vt 0.722967 0.527114
vt 0.719520 0.498316
vt 0.341532 0.688617
vt 0.550185 0.709632
vt 0.607708 0.714278
vt 0.606156 0.279133
vt 0.605941 0.180603
vt 0.341539 0.862031
vt 0.341538 0.841258
vt 0.059358 0.760806
vt 0.051659 0.732935
vt 0.777163 0.641935
vt 0.749937 0.641279
vt 0.750364 0.613120
vt 0.777709 0.614073
vt 0.804437 0.642681
vt 0.805071 0.615039
vt 0.719520 0.177659
vt 0.691195 0.177482
vt 0.691194 0.088709
vt 0.719520 0.088710
vt 0.832350 0.615771
vt 0.454841 0.633898
vt 0.454840 0.661244
vt 0.426510 0.661265
vt 0.426512 0.633918
vt 0.454843 0.606545
vt 0.426515 0.606564
vt 0.454847 0.579188
vt 0.426518 0.579204
vt 0.172257 0.741498
vt 0.172257 0.787097
vt 0.143937 0.786597
vt 0.143937 0.746536
vt 0.454846 0.833457
vt 0.454847 0.852595
vt 0.426517 0.852617
vt 0.426516 0.833478
vt 0.719520 0.280052
vt 0.691195 0.279135
vt 0.609143 0.827901
vt 0.555129 0.827947
vt 0.553780 0.799615
vt 0.609729 0.801507
vt 0.454840 0.688584
vt 0.426511 0.688605
vt 0.423784 0.036390
vt 0.453343 0.039375
vt 0.723137 0.612440
vt 0.836141 0.199156
vt 0.836850 0.286235
vt 0.662869 0.466682
vt 0.662869 0.512856
vt 0.917881 0.554430
vt 0.944189 0.556725
vt 0.944189 0.613547
vt 0.916980 0.611180
vt 0.872279 0.470483
vt 0.924843 0.472781
vt 0.920567 0.499388
vt 0.868903 0.498233
vt 0.833430 0.561394
vt 0.862804 0.559129
vt 0.862347 0.606906
vt 0.834676 0.605526
vt 0.776374 0.982809
vt 0.748072 0.984700
vt 0.748409 0.890611
vt 0.776374 0.885945
vt 0.506028 0.054697
vt 0.529218 0.050330
vt 0.890945 0.383732
vt 0.864133 0.383283
vt 0.968860 0.318858
vt 0.996345 0.315900
vt 0.996345 0.408567
vt 0.968497 0.408467
vt 0.191203 0.566926
vt 0.163888 0.566927
vt 0.273147 0.566921
vt 0.245833 0.566922
vt 0.131646 0.911493
vt 0.158865 0.920011
vt 0.158865 0.988407
vt 0.132027 0.985745
vt 0.756196 0.364039
vt 0.727319 0.360069
vt 0.972693 0.471204
vt 1.000000 0.470483
vt 1.000000 0.563360
vt 0.972287 0.563434
vt 0.552736 0.128180
vt 0.579422 0.128043
vt 0.036743 0.911100
vt 0.064945 0.911308
vt 0.064977 1.000000
vt 0.036657 1.000000
vt 0.186008 0.981533
vt 0.158865 0.983369
vt 0.162399 0.914344
vt 0.186008 0.911493
vt 0.914526 0.639424
vt 0.860109 0.634690
vt 0.691194 0.053669
vt 0.719520 0.053669
vt 0.554494 0.106802
vt 0.581073 0.107002
vt 0.245833 0.601957
vt 0.191203 0.601960
vt 0.503013 0.032298
vt 0.526692 0.028949
vt 0.204855 0.974241
vt 0.204781 0.919396
vt 0.239726 0.919683
vt 0.239726 0.974336
vt 0.163888 0.601962
vt 0.756915 0.399890
vt 0.728242 0.396541
vt 0.820413 0.377558
vt 0.862627 0.418705
vt 0.810816 0.470483
vt 0.890892 0.418767
vt 0.420434 0.000000
vt 0.448920 0.003356
vt 0.103207 0.965421
vt 0.112962 0.911493
vt 0.131646 0.926142
vt 0.131646 0.986484
vt 0.273147 0.601955
vt 0.634610 0.104101
vt 0.634575 0.000000
vt 0.535197 0.972182
vt 0.506345 0.973197
vt 0.506461 0.946344
vt 0.534740 0.944147
vt 0.534012 0.869232
vt 0.535197 0.893120
vt 0.508773 0.896963
vt 0.507730 0.873293
vt 0.418670 0.862210
vt 0.446909 0.862031
vt 0.446909 0.889282
vt 0.418670 0.889460
vt 0.418670 0.971213
vt 0.418670 0.943962
vt 0.446909 0.943784
vt 0.446855 0.971056
vt 0.657210 0.828269
vt 0.657210 0.940111
vt 0.633451 0.941491
vt 0.630460 0.828760
vt 0.577399 0.827947
vt 0.579276 0.914971
vt 0.551930 0.913810
vt 0.549367 0.838798
vt 0.000000 0.903008
vt 0.003375 0.884554
vt 0.029550 0.877781
vt 0.029631 0.902327
vt 0.699733 0.827501
vt 0.699525 0.799691
vt 0.426513 0.742538
vt 0.398185 0.742552
vt 0.454842 0.742517
vt 0.341534 0.742551
vt 0.313212 0.742537
vt 0.369859 0.742556
vt 0.654575 0.702171
vt 0.653239 0.685142
vt 0.066344 0.898943
vt 0.059838 0.911100
vt 0.272545 0.974196
vt 0.239726 0.971955
vt 0.239797 0.924831
vt 0.272545 0.919396
vt 0.453339 0.914926
vt 0.453339 0.952152
vt 0.446909 0.952167
vt 0.446914 0.914951
vt 0.653469 0.656505
vt 0.273147 0.742514
vt 0.109897 0.183024
vt 0.109922 0.143830
vt 0.284911 0.507907
vt 0.286240 0.568982
vt 0.276430 0.579186
vt 0.274944 0.510742
vt 0.339151 0.568135
vt 0.376388 0.567540
vt 0.386648 0.577378
vt 0.341120 0.578125
vt 0.298911 0.429004
vt 0.283286 0.433388
vt 0.273147 0.428157
vt 0.292314 0.422898
vt 0.373979 0.448716
vt 0.373155 0.408174
vt 0.225306 0.649722
vt 0.225286 0.611898
vt 0.262608 0.601962
vt 0.262607 0.642274
vt 0.973213 0.848330
vt 0.973256 0.818736
vt 0.979688 0.820312
vt 0.979640 0.849498
vt 0.542610 0.650607
vt 0.542841 0.579186
vt 0.549239 0.579611
vt 0.549041 0.650612
vt 0.972287 0.579752
vt 0.972287 0.564073
vt 0.978648 0.563434
vt 0.978648 0.579114
vt 0.332743 0.890955
vt 0.273147 0.890736
vt 0.281934 0.862031
vt 0.332749 0.863596
vt 0.840157 0.497494
vt 0.332749 0.972972
vt 0.280291 0.970355
vt 0.278494 0.943619
vt 0.332747 0.945633
vt 0.944159 0.501333
vt 0.836296 0.131887
vt 0.858494 0.125778
vt 0.815373 0.137201
vt 0.691195 0.354003
vt 0.662870 0.353054
vt 0.719520 0.355466
vt 0.606600 0.353933
vt 0.580582 0.358727
vt 0.634550 0.352746
vt 0.218780 0.303284
vt 0.245833 0.302145
vt 0.192572 0.302838
vt 0.165949 0.302174
vt 0.489293 0.282703
vt 0.462451 0.282951
vt 0.514381 0.283521
vt 0.540064 0.283446
vt 0.793209 0.128269
vt 0.883566 0.119147
vt 0.273147 0.300212
vt 0.553827 0.362558
vt 0.549529 0.431470
vt 0.577852 0.429307
vt 0.273147 0.224811
vt 0.245833 0.227461
vt 0.437447 0.351916
vt 0.464622 0.351647
vt 0.862247 0.013128
vt 0.891515 0.002249
vt 0.891506 0.047550
vt 0.862955 0.056634
vt 0.771448 0.020326
vt 0.796961 0.031554
vt 0.804225 0.072184
vt 0.776182 0.061616
vt 0.634546 0.427143
vt 0.662870 0.427581
vt 0.517899 0.351588
vt 0.544741 0.352353
vt 0.491323 0.351503
vt 0.191205 0.230696
vt 0.163890 0.230759
vt 0.218518 0.229490
vt 0.719520 0.000000
vt 0.747361 0.010794
vt 0.751459 0.052896
vt 0.723677 0.043569
vt 0.606206 0.427705
vt 0.691195 0.428870
vt 0.719520 0.430879
vt 0.829389 0.021366
vt 0.832077 0.063845
vt 0.454847 0.912561
vt 0.471127 0.913203
vt 0.506345 0.932918
vt 0.478118 0.933058
vt 0.384078 0.884757
vt 0.367840 0.883254
vt 0.390298 0.862031
vt 0.418670 0.864166
vt 0.944189 0.653492
vt 0.944260 0.625031
vt 0.971251 0.653803
vt 0.944603 0.599663
vt 0.971251 0.597485
vt 0.455840 0.933382
vt 0.482931 0.933058
vt 0.482985 0.956412
vt 0.482985 0.983252
vt 0.454847 0.986226
vt 0.234756 0.798138
vt 0.218527 0.797997
vt 0.207975 0.787097
vt 0.235062 0.787342
vt 0.933177 0.397218
vt 0.934514 0.340950
vt 0.945616 0.333097
vt 0.945350 0.401771
vt 0.218447 0.908281
vt 0.234720 0.907912
vt 0.235063 0.919069
vt 0.208401 0.919396
vt 0.215873 0.851511
vt 0.204781 0.851404
vt 0.893016 0.436460
vt 0.934715 0.453696
vt 0.945616 0.470483
vt 0.892237 0.447614
vt 0.891515 0.326729
vt 0.893941 0.315900
vt 0.239413 0.851704
vt 0.268911 0.852344
vt 0.268958 0.906637
vt 0.240567 0.907801
vt 0.718210 0.900998
vt 0.719153 0.956371
vt 0.658497 0.936463
vt 0.657698 0.882193
vt 0.471563 0.869232
vt 0.506345 0.869929
vt 0.240756 0.797785
vt 0.332749 0.920020
vt 0.333155 0.863697
vt 0.367840 0.862031
vt 0.367192 0.917291
vt 0.384220 0.928647
vt 0.418670 0.927221
vt 0.333102 0.976281
vt 0.367840 0.974611
vt 0.719153 0.843640
vt 0.657210 0.827947
vt 0.268957 0.798080
vt 0.945656 0.534418
vt 0.972287 0.533334
vt 0.972287 0.595950
vt 0.944189 0.597486
vt 0.956103 0.381154
vt 0.957416 0.325883
vt 0.968497 0.318285
vt 0.968235 0.385826
vt 0.957615 0.436807
vt 0.968497 0.453438
vt 0.945916 0.472188
vt 0.972025 0.470483
vt 0.947128 0.426824
vt 0.945616 0.371171
vt 0.946929 0.315900
vt 0.500735 0.960764
vt 0.487445 0.963533
vt 0.482985 0.949917
vt 0.500735 0.933058
vt 0.972585 0.104943
vt 0.993337 0.106898
vt 0.993210 0.182472
vt 0.972670 0.181708
vt 0.973296 0.000321
vt 0.994519 0.000000
vt 0.993500 0.077126
vt 0.972585 0.075005
vt 0.994519 0.104943
vt 0.973528 0.103290
vt 0.993337 0.211226
vt 0.973461 0.209682
vt 0.241493 0.760515
vt 0.241493 0.782115
vt 0.220495 0.782080
vt 0.219985 0.760396
vt 0.026357 0.177568
vt 0.098790 0.178516
vt 0.019107 0.181837
vt 0.011113 0.137216
vt 0.011113 0.177369
vt 0.000000 0.188345
vt 0.000000 0.142748
vt 0.026372 0.014398
vt 0.011113 0.014399
vt 0.000000 0.003279
vt 0.019124 0.003277
vt 0.098839 0.085597
vt 0.098877 0.014393
vt 0.109995 0.003272
vt 0.109953 0.084189
vt 0.029537 0.860542
vt 0.003375 0.860556
vt 0.973213 0.726447
vt 0.973213 0.655730
vt 0.982909 0.655737
vt 0.982909 0.726454
vt 0.809838 0.922186
vt 0.809838 0.886018
vt 0.819504 0.885945
vt 0.819504 0.922112
vt 0.931692 0.866612
vt 0.931692 0.851360
vt 0.941388 0.851349
vt 0.941388 0.866601
vt 0.482220 0.730184
vt 0.536366 0.730549
vt 0.542610 0.743356
vt 0.470176 0.742399
vt 0.473385 0.706228
vt 0.473397 0.730100
vt 0.454932 0.742208
vt 0.454911 0.702055
vt 0.473460 0.633231
vt 0.454847 0.579238
vt 0.470106 0.579229
vt 0.536375 0.675404
vt 0.536382 0.633145
vt 0.542610 0.579186
vt 0.542610 0.650390
vt 0.895196 0.927156
vt 0.895975 0.957684
vt 0.862910 0.956489
vt 0.859501 0.922786
vt 0.899475 0.889753
vt 0.904713 0.852540
vt 0.930945 0.851349
vt 0.931692 0.891984
vt 0.621539 0.779896
vt 0.690488 0.781671
vt 0.928090 0.931757
vt 0.931692 0.963347
vt 0.142095 0.862819
vt 0.118254 0.864658
vt 0.115307 0.825686
vt 0.139085 0.823829
vt 0.504921 0.633188
vt 0.506358 0.579207
vt 0.931692 0.939084
vt 0.941388 0.939072
vt 0.809838 0.973577
vt 0.809838 0.958353
vt 0.819504 0.958280
vt 0.819504 0.973503
vt 0.062624 0.014395
vt 0.064560 0.003275
vt 0.972287 0.617003
vt 0.978648 0.616365
vt 0.172299 0.655121
vt 0.172257 0.626017
vt 0.187965 0.621835
vt 0.188000 0.651986
vt 0.336033 0.418589
vt 0.337850 0.410405
vt 0.301914 0.568731
vt 0.295593 0.578871
vt 0.719679 0.684040
vt 0.699997 0.684367
vt 0.700042 0.655960
vt 0.719645 0.655730
vt 0.453339 0.862031
vt 0.453339 0.877700
vt 0.446919 0.877735
vt 0.446921 0.862070
vt 0.718006 0.770542
vt 0.699089 0.771248
vt 0.699076 0.741732
vt 0.718062 0.741302
vt 0.698984 0.713422
vt 0.718194 0.713241
vt 0.718259 0.827947
vt 0.718080 0.799645
vt 0.426515 0.788008
vt 0.398187 0.790633
vt 0.454844 0.787987
vt 0.341536 0.791904
vt 0.313214 0.791265
vt 0.369861 0.790909
vt 0.277035 0.787984
vt 0.863162 0.888406
vt 0.867782 0.854217
vt 0.066372 0.860521
vt 0.103207 0.860501
vt 0.103207 0.884499
vt 0.507725 0.758577
vt 0.546894 0.743356
vt 0.546894 0.782757
vt 0.501532 0.795313
vt 0.827793 0.888218
vt 0.831795 0.857053
vt 0.204781 0.787097
vt 0.198595 0.818288
vt 0.164350 0.821027
vt 0.144326 0.795253
vt 0.000000 0.974750
vt 0.000251 0.920552
vt 0.036657 0.911100
vt 0.036657 0.980287
vt 0.000524 0.911729
vt 0.692752 0.744565
vt 0.693542 0.719013
vt 0.121059 0.905164
vt 0.103207 0.911493
vt 0.108929 0.864456
vt 0.654512 0.711020
vt 0.823792 0.919384
vt 0.972287 0.654254
vt 0.978648 0.653616
vt 0.144965 0.903314
vt 0.823792 0.722575
vt 0.794790 0.700879
vt 0.791749 0.660971
vt 0.818211 0.655730
vt 0.549367 0.970175
vt 0.550325 0.944698
vt 0.562182 0.941491
vt 0.562182 0.970948
vt 0.548176 0.887567
vt 0.548176 0.950792
vt 0.535197 0.946520
vt 0.536845 0.869232
vt 0.820799 0.885945
vt 0.798330 0.883130
vt 0.796896 0.773857
vt 0.823792 0.772524
vt 0.892822 0.745848
vt 0.941340 0.821662
vt 0.943384 0.851349
vt 0.872666 0.733099
vt 0.871046 0.699956
vt 0.860961 0.716934
vt 0.182293 0.763322
vt 0.197487 0.760396
vt 0.197487 0.786318
vt 0.172257 0.783154
vt 0.851266 0.731969
vt 0.856127 0.738601
vt 0.850132 0.743429
vt 0.844510 0.735758
vt 0.972585 0.220730
vt 0.993492 0.211226
vt 0.993492 0.314307
vt 0.974894 0.311242
vt 0.391446 0.979328
vt 0.368036 0.994676
vt 0.367840 0.954959
vt 0.391446 0.928647
vt 0.845181 0.663782
vt 0.856494 0.692646
vt 0.850011 0.701813
vt 0.823792 0.655730
vt 0.916304 0.289751
vt 0.916304 0.305596
vt 0.903602 0.307470
vt 0.903790 0.292290
vt 0.823792 0.746717
vt 0.795629 0.722643
vt 0.866946 0.754029
vt 0.867589 0.733137
vt 0.871800 0.768511
vt 0.857948 0.740500
vt 0.857409 0.747090
vt 0.860023 0.722815
vt 0.852946 0.713158
vt 0.849531 0.727843
vt 0.843946 0.727052
vt 0.842968 0.748900
vt 0.849654 0.758954
vt 0.272331 0.766133
vt 0.272331 0.782107
vt 0.262608 0.785287
vt 0.262608 0.766811
vt 0.260499 0.768967
vt 0.247201 0.768967
vt 0.245022 0.760396
vt 0.260401 0.760396
vt 0.925613 0.302732
vt 0.925613 0.312500
vt 0.916304 0.313124
vt 0.916304 0.301827
vt 0.891515 0.303170
vt 0.891515 0.291284
vt 0.903602 0.289751
vt 0.903602 0.297388
vt 0.262190 0.782760
vt 0.241493 0.782760
vt 0.855713 0.752025
vt 0.965623 0.205885
vt 0.944506 0.209186
vt 0.937328 0.115759
vt 0.959561 0.103799
vt 0.952272 0.756930
vt 0.971171 0.748372
vt 0.964844 0.842045
vt 0.943384 0.848759
vt 0.973075 0.925639
vt 0.955147 0.933262
vt 0.949147 0.026268
vt 0.970002 0.024886
vt 0.951223 0.000954
vt 0.972585 0.000000
vt 0.973213 0.950651
vt 0.955261 0.957283
vt 0.953560 0.658675
vt 0.973213 0.655730
vt 0.972585 0.302441
vt 0.953508 0.308267
vt 0.904379 0.000000
vt 0.937328 0.000314
vt 0.937068 0.024660
vt 0.903409 0.022907
vt 0.928467 0.106177
vt 0.891515 0.095501
vt 0.935070 0.198498
vt 0.898160 0.193979
vt 0.937328 0.289751
vt 0.899717 0.287878
vt 0.197487 0.784784
vt 0.219985 0.760396
vt 0.219985 0.787082
vt 0.188120 0.760065
vt 0.188051 0.697846
vt 0.225327 0.693628
vt 0.225361 0.760230
vt 0.204781 0.898693
vt 0.175991 0.900912
vt 0.173037 0.860431
vt 0.201712 0.858231
vt 0.478611 0.769118
vt 0.490834 0.803060
vt 0.103207 0.787097
vt 0.103207 0.829354
vt 0.066372 0.829375
vt 0.066346 0.800475
vt 0.029537 0.829395
vt 0.029511 0.800495
vt 0.510750 0.834208
vt 0.503057 0.837002
vt 0.172444 0.759996
vt 0.172361 0.699621
vt 0.537911 0.859201
vt 0.511738 0.861109
vt 0.809838 0.963807
vt 0.782186 0.958260
vt 0.779865 0.925611
vt 0.806990 0.927674
vt 0.536370 0.706550
vt 0.542610 0.702872
vt 0.473368 0.675246
vt 0.454884 0.649942
vt 0.973213 0.778569
vt 0.982909 0.778576
vt 0.003375 0.829410
vt 0.003349 0.800510
vt 0.098812 0.138079
vt 0.011113 0.085103
vt 0.000000 0.083569
vt 0.542782 0.698056
vt 0.549239 0.697753
vt 0.973276 0.954764
vt 0.973240 0.893491
vt 0.979660 0.894131
vt 0.979688 0.954687
vt 0.262603 0.689411
vt 0.262603 0.760396
vt 0.374938 0.496151
vt 0.385171 0.496597
vt 0.283931 0.462891
vt 0.273848 0.460295
vt 0.163888 0.003268
vt 0.163888 0.085243
vt 0.662869 0.654090
vt 0.662869 0.572783
vt 0.691195 0.573786
vt 0.691195 0.654736
vt 0.634544 0.653866
vt 0.634544 0.572437
vt 0.143937 0.603325
vt 0.143937 0.685770
vt 0.120567 0.676186
vt 0.115741 0.604043
vt 0.172257 0.602023
vt 0.172257 0.682317
vt 0.059161 0.603967
vt 0.051596 0.671912
vt 0.030770 0.671180
vt 0.030812 0.603142
vt 0.087434 0.604311
vt 0.087643 0.673067
vt 0.577894 0.654733
vt 0.577894 0.573783
vt 0.606219 0.572782
vt 0.606219 0.654088
vt 0.549569 0.655725
vt 0.549569 0.575339
vt 0.494728 0.574633
vt 0.493393 0.493713
vt 0.520428 0.494342
vt 0.522045 0.575019
vt 0.467420 0.574620
vt 0.466377 0.493669
vt 0.440121 0.575045
vt 0.439203 0.494306
vt 0.218518 0.002362
vt 0.218518 0.084047
vt 0.191203 0.085085
vt 0.191203 0.003035
vt 0.245833 0.001314
vt 0.245833 0.082428
vt 0.273147 0.000000
vt 0.273147 0.080371
vt 0.547665 0.495621
vt 0.549367 0.575671
vt 0.001014 0.670594
vt 0.000000 0.601962
vt 0.272302 0.601972
vt 0.272302 0.673176
vt 0.262608 0.673167
vt 0.262608 0.601962
vt 0.719520 0.575345
vt 0.719520 0.655730
vt 0.542651 0.738617
vt 0.549127 0.738074
vt 0.973213 0.818729
vt 0.982909 0.818736
vt 0.480625 0.845124
vt 0.489306 0.869232
vt 0.454847 0.816085
vt 0.456179 0.777240
vt 0.776374 0.885945
vt 0.809838 0.896465
vt 0.846718 0.725764
vt 0.891515 0.315875
vt 0.903602 0.305551
vt 0.925613 0.292291
vt 0.916304 0.289751
vt 0.836713 0.739495
vt 0.839250 0.728582
vt 0.200720 0.938846
vt 0.191293 0.935370
vt 0.194116 0.911493
vt 0.200720 0.914030
vt 0.833430 0.649912
vt 0.833583 0.639424
vt 0.839750 0.640979
vt 0.839750 0.653633
vt 0.750844 0.744699
vt 0.746561 0.760613
vt 0.719679 0.753539
vt 0.726197 0.742426
vt 0.396794 0.949111
vt 0.406125 0.947693
vt 0.406125 0.967584
vt 0.399286 0.969096
vt 0.925782 0.709839
vt 0.915516 0.700827
vt 0.933734 0.685996
vt 0.943384 0.690608
vt 0.900098 0.706144
vt 0.908928 0.728252
vt 0.787239 0.715578
vt 0.774444 0.746875
vt 0.765910 0.736739
vt 0.549239 0.771316
vt 0.546998 0.768140
vt 0.547982 0.738617
vt 0.549239 0.740480
vt 0.772300 0.767385
vt 0.200720 0.985312
vt 0.186008 0.980080
vt 0.188591 0.958232
vt 0.200720 0.962607
vt 0.403233 0.945690
vt 0.403253 0.931400
vt 0.406125 0.928647
vt 0.396513 0.934987
vt 0.399399 0.946439
vt 0.391446 0.938592
vt 0.771116 0.745481
vt 0.767780 0.741591
vt 0.722677 0.653201
vt 0.719520 0.653201
vt 0.719807 0.642681
vt 0.721833 0.642758
vt 0.092279 0.921789
vt 0.102163 0.911100
vt 0.102163 0.947331
vt 0.092731 0.948746
vt 0.268957 0.793917
vt 0.272398 0.787097
vt 0.272398 0.829694
vt 0.269862 0.831509
vt 0.417255 0.969354
vt 0.406125 0.955354
vt 0.407193 0.928647
vt 0.417255 0.929660
vn -0.9937 0.0000 -0.1123
vn 0.9936 -0.0005 0.1133
vn 0.9897 0.0313 0.1397
vn -0.1203 -0.0007 0.9927
vn 0.0030 -0.9991 -0.0419
vn -0.9788 -0.0933 -0.1823
vn 0.0998 0.9762 0.1924
vn 0.0139 -0.9989 -0.0446
vn -0.1217 0.0240 0.9923
vn 0.1123 0.0000 -0.9937
vn -0.1101 -0.0007 0.9939
vn -0.0229 -0.0823 0.9963
vn 0.9936 0.0001 0.1132
vn 0.9903 0.0113 0.1387
vn 0.0669 0.9973 0.0299
vn 0.0086 -0.9999 0.0112
vn 0.3577 0.9333 0.0305
vn -0.0012 -0.9999 0.0102
vn 0.9703 0.1255 0.2069
vn 0.0551 -0.9984 0.0147
vn 0.0432 -0.9990 0.0142
vn 0.0272 -0.9995 0.0130
vn 0.0201 0.9772 0.2114
vn 0.1338 0.9723 0.1917
vn 0.1528 0.9822 0.1094
vn -0.0650 0.0063 0.9979
vn -0.0097 -0.0284 0.9995
vn 0.0296 -0.0617 0.9977
vn 0.1090 -0.0013 -0.9940
vn 0.1053 -0.0007 -0.9944
vn 0.1095 -0.0002 -0.9940
vn 0.0511 0.0109 -0.9986
vn 0.1712 0.9757 0.1365
vn 0.0156 0.9755 0.2193
vn 0.0543 -0.9980 -0.0314
vn 0.0444 -0.9983 -0.0367
vn 0.0305 -0.9987 -0.0412
vn -0.1246 -0.0104 0.9922
vn -0.1364 -0.0074 0.9906
vn -0.1360 -0.0034 0.9907
vn 0.0294 -0.9995 -0.0066
vn 0.0306 -0.9992 -0.0253
vn 0.0453 -0.9990 -0.0042
vn 0.0457 -0.9987 -0.0218
vn 0.0570 -0.9984 -0.0020
vn 0.0568 -0.9982 -0.0179
vn 0.2266 0.9394 0.2572
vn 0.1568 0.9056 0.3941
vn 0.1884 0.9275 0.3230
vn 0.2113 0.9288 0.3045
vn -0.0045 0.9471 0.3210
vn -0.0203 0.9664 0.2563
vn 0.9916 0.0327 0.1253
vn 0.9900 0.0238 0.1392
vn 0.1118 0.9796 0.1670
vn 0.0786 0.8758 0.4762
vn 0.0109 -0.9999 -0.0090
vn 0.0127 -0.9995 -0.0282
vn 0.4028 0.8883 0.2205
vn 0.2564 0.9379 0.2338
vn -0.9895 -0.0078 -0.1442
vn -0.9750 -0.0426 -0.2182
vn 0.0012 -0.9999 -0.0102
vn 0.0033 -0.9996 -0.0295
vn 0.9893 0.1279 0.0709
vn 0.9864 0.0947 0.1342
vn 0.0316 0.9986 0.0415
vn 0.0844 0.9941 0.0684
vn 0.0420 0.9944 0.0967
vn 0.0836 0.9903 0.1112
vn 0.0253 0.9909 0.1325
vn 0.0205 -0.9987 0.0470
vn 0.0242 -0.9992 0.0315
vn 0.0351 -0.9983 0.0457
vn 0.0397 -0.9987 0.0314
vn 0.0459 -0.9980 0.0428
vn 0.0513 -0.9982 0.0301
vn 0.9937 0.0000 0.1123
vn 0.9936 0.0622 0.0940
vn -0.0052 -0.9989 0.0459
vn -0.0033 -0.9996 0.0295
vn 0.1528 0.9712 -0.1826
vn 0.2176 0.9457 -0.2414
vn 0.0036 -0.9989 0.0466
vn 0.0061 -0.9995 0.0304
vn -0.0635 -0.0130 0.9979
vn 0.0241 0.9995 0.0179
vn 0.9925 0.0027 0.1222
vn 0.9936 0.0002 0.1132
vn 0.0774 -0.9685 -0.2369
vn 0.3281 -0.9423 -0.0658
vn -0.0292 -0.9938 -0.1075
vn -0.9891 0.0694 -0.1295
vn -0.1092 0.0251 0.9937
vn 0.9947 -0.0033 0.1024
vn -0.9940 0.0012 -0.1095
vn 0.1103 0.0042 -0.9939
vn 0.9717 -0.1886 0.1423
vn 0.9905 -0.0780 0.1137
vn -0.0898 -0.0035 0.9960
vn -0.9594 0.2412 -0.1462
vn 0.9937 -0.0000 0.1124
vn 0.1116 -0.0176 -0.9936
vn -0.0008 -1.0000 -0.0022
vn -0.9770 0.1091 -0.1834
vn -0.0927 0.0886 0.9917
vn -0.1080 -0.0068 0.9941
vn 0.9934 -0.0622 0.0960
vn 0.9987 0.0450 0.0222
vn 0.9948 0.0078 0.1019
vn -0.0872 0.0231 0.9959
vn 0.0754 -0.0454 -0.9961
vn -0.1041 0.0526 0.9932
vn -0.9993 0.0032 0.0378
vn -0.1385 0.9843 0.1090
vn 0.0398 0.9970 0.0659
vn 0.0000 1.0000 0.0000
vn 0.0002 1.0000 0.0002
vn -0.1173 0.4436 0.8885
vn -0.5047 0.8629 0.0274
vn 0.0552 0.5667 0.8221
vn 0.9506 0.2751 0.1438
vn 0.0106 0.9992 -0.0376
vn 0.0011 -0.9999 -0.0102
vn 0.1582 0.9857 0.0584
vn 0.8410 0.4105 0.3524
vn -0.0011 -0.9999 0.0102
vn -0.3614 0.0141 0.9323
vn -0.2648 -0.9547 0.1357
vn 0.1846 0.9784 0.0929
vn 0.0084 -0.9993 -0.0376
vn 0.1087 -0.0007 -0.9941
vn -0.0809 0.0132 0.9966
vn -0.0235 0.0156 0.9996
vn -0.0875 0.0820 0.9928
vn -0.0145 0.0612 0.9980
vn -0.0908 0.0539 0.9944
vn -0.9937 0.0002 -0.1123
vn 0.9936 0.0029 0.1126
vn 0.0003 1.0000 0.0000
vn 0.1270 0.6924 -0.7102
vn 0.9958 0.0198 0.0899
vn 0.0205 -0.9708 -0.2391
vn 0.0540 0.7208 -0.6910
vn -0.9991 -0.0196 -0.0388
vn 0.0637 -0.9021 -0.4267
vn 0.9964 -0.0091 0.0844
vn 0.9966 0.0161 0.0806
vn -0.9957 -0.0179 -0.0904
vn -0.9939 -0.0024 -0.1103
vn 0.1291 -0.0069 -0.9916
vn 0.1857 -0.0434 -0.9816
vn 0.1572 -0.0898 -0.9835
vn 0.0298 0.0535 0.9981
vn -0.0103 0.0056 0.9999
vn -0.0677 -0.0395 0.9969
vn 0.9931 0.0310 0.1134
vn 0.9944 -0.0240 0.1030
vn -0.9944 -0.0376 -0.0986
vn -0.9936 -0.0027 -0.1131
vn -0.0976 0.0964 0.9906
vn 0.9929 -0.0019 0.1186
vn 0.9931 -0.0316 0.1131
vn -0.1109 0.0069 0.9938
vn -0.1147 0.0344 0.9928
vn -0.1138 0.0749 0.9907
vn 0.1119 -0.0012 -0.9937
vn 0.1117 -0.0007 -0.9937
vn 0.1121 -0.0002 -0.9937
vn 0.9932 0.0030 0.1163
vn 0.9953 -0.0132 0.0956
vn -0.9936 -0.0003 -0.1127
vn -0.9935 -0.0015 -0.1135
vn 0.9889 -0.0249 0.1462
vn 0.9901 -0.0082 0.1403
vn -0.0058 -0.9977 0.0682
vn 0.0527 0.9947 -0.0888
vn -0.0424 0.9486 0.3137
vn -0.0407 0.9459 0.3218
vn 0.0279 -0.9652 -0.2601
vn 0.0320 -0.9760 -0.2153
vn -0.1296 -0.0859 0.9878
vn 0.9894 -0.0012 0.1450
vn -0.1167 0.1630 0.9797
vn -0.1244 0.2377 0.9633
vn 0.9922 -0.0242 0.1224
vn 0.9908 0.0024 0.1351
vn 0.0205 0.1135 0.9933
vn 0.9930 -0.0135 0.1177
vn 0.1236 -0.9752 -0.1834
vn -0.7036 -0.0607 0.7080
vn 0.1512 -0.0994 -0.9835
vn -0.1372 0.9584 0.2504
vn 0.1464 -0.0569 -0.9876
vn -0.7072 0.1665 0.6871
vn 0.9925 -0.0007 0.1221
vn -0.0280 0.0341 0.9990
vn -0.0579 -0.0970 0.9936
vn 0.9899 -0.0080 0.1414
vn -0.9953 0.0373 -0.0890
vn 0.9954 0.0255 0.0924
vn 0.9937 -0.0511 0.0996
vn -0.1076 0.0597 0.9924
vn -0.0925 0.0552 0.9942
vn -0.0508 0.0666 0.9965
vn 0.1602 0.0909 -0.9829
vn 0.1875 0.0428 -0.9813
vn 0.1293 0.0066 -0.9916
vn -0.9941 0.0018 -0.1084
vn -0.9965 0.0160 -0.0819
vn 0.9951 -0.0273 0.0947
vn 0.9955 0.0031 0.0949
vn 0.0209 0.8597 0.5103
vn 0.9848 0.1738 0.0083
vn 0.9859 0.1671 0.0119
vn -0.0606 0.8612 0.5046
vn 0.7029 -0.6047 -0.3747
vn 0.7252 -0.5568 -0.4050
vn 0.2356 0.5302 -0.8145
vn 0.0580 0.9558 -0.2881
vn -0.2584 0.3372 0.9053
vn -0.2503 0.3089 0.9176
vn 0.0983 0.9505 -0.2948
vn 0.9919 0.0607 0.1115
vn 0.0457 0.6980 -0.7147
vn -0.2357 0.4654 0.8531
vn 0.0757 -0.9846 -0.1573
vn 0.2315 -0.9109 -0.3415
vn 0.1144 -0.0011 -0.9934
vn 0.1128 0.0000 -0.9936
vn 0.1122 -0.0015 -0.9937
vn 0.1137 -0.0012 -0.9935
vn 0.9711 -0.0005 0.2388
vn -0.9936 0.0000 -0.1133
vn 0.0001 1.0000 -0.0006
vn -0.0131 -0.9999 -0.0009
vn 0.1030 -0.0542 -0.9932
vn 0.1128 0.0002 -0.9936
vn 0.1120 -0.0187 -0.9935
vn 0.3353 -0.0016 -0.9421
vn 0.1685 0.9836 0.0649
vn 0.0001 1.0000 -0.0004
vn 0.6603 0.7320 -0.1678
vn -0.0171 0.9844 0.1752
vn 0.2525 0.9672 0.0273
vn -0.0901 0.0024 -0.9959
vn 0.0944 -0.0079 -0.9955
vn 0.1149 -0.0029 -0.9934
vn -0.0137 -0.9999 0.0015
vn 0.1122 -0.0008 -0.9937
vn -0.0988 0.0198 0.9949
vn -0.0985 0.0393 0.9944
vn -0.0234 0.0740 0.9970
vn 0.2724 0.9611 0.0459
vn -0.2693 -0.9411 0.2047
vn 0.1222 0.8528 0.5077
vn 0.2374 0.9582 -0.1599
vn 0.2270 0.9466 0.2288
vn -0.2691 0.9618 -0.0505
vn -0.0725 0.9295 0.3615
vn 0.0027 -0.9993 -0.0384
vn 0.0000 1.0000 -0.0005
vn 0.9711 -0.0004 0.2387
vn 0.9711 -0.0003 0.2388
vn -0.9966 -0.0095 -0.0814
vn 0.0243 0.9387 -0.3438
vn 0.3108 0.0005 -0.9505
vn -0.0389 -0.9301 0.3652
vn -0.0522 -0.9282 0.3684
vn 0.3754 0.9254 -0.0530
vn 0.3084 0.4348 -0.8460
vn 0.0592 0.9635 0.2610
vn 0.0751 0.9016 0.4260
vn 0.0249 0.8409 -0.5405
vn 0.0292 0.9396 -0.3410
vn 0.0025 -0.9994 -0.0344
vn -0.1145 -0.0241 0.9931
vn 0.1122 0.0001 -0.9937
vn 0.0944 0.0159 -0.9954
vn 0.2309 0.0011 -0.9730
vn 0.0000 1.0000 -0.0004
vn -0.0975 0.0358 0.9946
vn -0.0234 0.0498 0.9985
vn 0.2629 0.9566 0.1254
vn -0.2676 -0.9473 0.1764
vn 0.2572 0.9575 0.1304
vn -0.0756 0.0438 0.9962
vn -0.7786 -0.6051 0.1660
vn -0.6978 -0.6980 0.1610
vn -0.0056 0.0983 0.9951
vn -0.4528 -0.4914 -0.7440
vn -0.4249 -0.4294 -0.7969
vn 0.2881 -0.9387 0.1893
vn -0.3757 -0.5475 -0.7477
vn 0.6157 0.5886 -0.5239
vn 0.6648 0.5314 -0.5250
vn -0.4615 -0.4669 -0.7544
vn -0.5554 -0.7556 0.3474
vn -0.1369 0.0455 0.9895
vn 0.5843 0.5434 -0.6028
vn 0.6073 0.5540 -0.5694
vn 0.5730 0.5548 -0.6032
vn 0.5983 0.5637 -0.5694
vn 0.5868 0.5468 -0.5972
vn -0.8264 0.1249 -0.5491
vn 0.7317 -0.4139 0.5415
vn 0.2937 0.4345 0.8514
vn 0.4792 0.5970 0.6434
vn 0.9474 -0.1563 0.2793
vn -0.5835 0.3157 -0.7482
vn -0.1788 -0.3489 -0.9199
vn 0.8623 0.1014 -0.4961
vn -0.6048 0.1121 -0.7885
vn -0.5704 0.1360 -0.8100
vn 0.8042 0.3796 -0.4575
vn 0.8465 0.2680 -0.4600
vn -0.5869 0.1850 -0.7883
vn -0.5979 0.0701 -0.7985
vn 0.8150 0.1507 -0.5595
vn -0.2499 -0.3407 0.9064
vn -0.1979 -0.3556 0.9134
vn -0.2127 -0.1638 0.9633
vn -0.1827 -0.1683 0.9687
vn -0.2055 0.9400 0.2724
vn -0.0379 0.0332 0.9987
vn 0.2216 0.0016 -0.9751
vn -0.9954 0.0222 -0.0928
vn 0.9711 -0.0006 0.2388
vn -0.9971 0.0413 -0.0644
vn -0.0388 0.0168 0.9991
vn 0.1028 -0.0057 -0.9947
vn -0.9975 -0.0148 -0.0691
vn 0.4956 -0.8258 -0.2692
vn 0.3309 -0.0016 -0.9437
vn 0.1584 0.0088 -0.9873
vn 0.1132 -0.0012 -0.9936
vn 0.1136 0.0000 -0.9935
vn 0.9936 0.0032 0.1131
vn -0.0367 0.0538 0.9979
vn -0.0660 0.0601 0.9960
vn -0.0626 0.0132 0.9980
vn 0.1114 -0.0006 -0.9938
vn 0.9951 0.0027 -0.0991
vn 0.9843 0.0503 0.1692
vn 0.9975 0.0603 0.0361
vn -0.1180 -0.0033 0.9930
vn -0.1180 -0.0073 0.9930
vn -0.1147 -0.0101 0.9933
vn 0.9904 0.0393 0.1328
vn -0.2733 0.0218 0.9617
vn -0.1143 -0.0007 0.9935
vn 0.9508 0.0267 0.3086
vn -0.0488 0.0158 0.9987
vn 0.9935 0.0029 0.1136
vn 0.1132 -0.0013 -0.9936
vn 0.3276 -0.0016 -0.9448
vn -0.9973 -0.0000 -0.0738
vn -0.0730 0.0352 0.9967
vn 0.2269 0.0011 -0.9739
vn 0.9711 -0.0004 0.2388
vn -0.0735 0.0168 0.9972
vn 0.0107 -0.1236 -0.9923
vn 0.1371 -0.9683 0.2090
vn 0.1133 0.0002 -0.9936
vn 0.1132 0.0000 -0.9936
vn -0.0666 0.0600 0.9960
vn -0.0326 0.0663 0.9973
vn 0.1099 -0.0006 -0.9939
vn 0.9981 0.0105 -0.0602
vn 0.9845 0.0540 0.1671
vn -0.1282 -0.0034 0.9917
vn -0.1285 -0.0074 0.9917
vn -0.1200 -0.0106 0.9927
vn -0.1874 0.0249 0.9820
vn -0.1177 -0.0007 0.9930
vn 0.9761 0.0263 0.2159
vn -0.1787 -0.3489 -0.9199
vn 0.5964 0.5605 -0.5746
vn 0.5788 0.5635 -0.5894
vn 0.6011 0.5455 -0.5841
vn -0.0319 0.0496 0.9983
vn -0.6733 0.2350 -0.7010
vn -0.1674 -0.5753 -0.8006
vn -0.2895 -0.8722 0.3942
vn -0.0961 0.2558 0.9619
vn 0.7186 -0.4308 0.5459
vn 0.0635 -0.3543 -0.9330
vn -0.1817 -0.1985 -0.9631
vn -0.1326 -0.2866 -0.9488
vn 0.1086 -0.6502 0.7520
vn -0.9792 0.0403 -0.1990
vn 0.0900 0.1791 0.9797
vn -0.0169 0.2052 0.9786
vn -0.7599 0.3168 -0.5676
vn -0.7294 0.2864 -0.6213
vn 0.7353 -0.5017 0.4556
vn 0.5820 -0.3474 0.7352
vn 0.0415 -0.6140 0.7882
vn 0.7318 -0.4528 0.5093
vn 0.1724 -0.9157 0.3629
vn -0.4766 0.2809 -0.8330
vn 0.9995 -0.0030 0.0319
vn 0.4077 -0.2908 0.8656
usemtl KaputterTurm
s off
f 443/1/1 78/2/1 4/3/1 423/4/1
f 451/5/2 137/6/2 273/7/2 453/8/2
f 439/9/3 52/10/3 151/11/3 425/12/3
f 435/13/4 30/14/4 2/15/4 420/16/4
f 292/17/5 61/18/5 152/19/5 282/20/5
f 182/21/6 167/22/6 13/23/6 63/24/6
f 144/25/7 54/26/7 12/27/7 154/28/7
f 76/29/8 56/30/8 11/31/8 36/32/8
f 444/33/9 154/34/9 12/35/9 426/36/9
f 432/37/10 33/38/10 10/39/10 427/40/10
f 82/41/11 103/42/11 120/43/11 105/44/11
f 178/45/10 168/46/10 14/47/10 40/48/10
f 212/49/12 170/50/12 15/51/12 37/52/12
f 186/53/13 169/54/13 16/55/13 91/56/13
f 209/57/14 171/58/14 24/59/14 57/60/14
f 104/61/15 81/62/15 23/63/15 43/64/15
f 98/65/16 90/66/16 22/67/16 46/68/16
f 150/69/17 88/70/17 21/71/17 141/72/17
f 184/73/1 172/74/1 23/75/1 81/76/1
f 294/77/18 79/78/18 19/79/18 290/80/18
f 441/81/19 86/82/19 20/83/19 428/84/19
f 437/85/1 60/86/1 18/87/1 429/88/1
f 84/89/20 94/90/20 48/91/20 17/92/20
f 94/90/21 96/93/21 47/94/21 48/91/21
f 96/93/22 98/65/22 46/68/22 47/94/22
f 92/95/23 100/96/23 45/97/23 24/98/23
f 100/96/24 102/99/24 44/100/24 45/97/24
f 102/99/25 104/61/25 43/64/25 44/100/25
f 167/101/26 173/102/26 39/103/26 13/104/26
f 173/102/27 174/105/27 38/106/27 39/103/27
f 174/105/28 212/49/28 37/52/28 38/106/28
f 169/107/29 176/108/29 42/109/29 16/110/29
f 176/108/30 177/111/30 41/112/30 42/109/30
f 177/111/31 178/45/31 40/48/31 41/112/31
f 58/113/32 66/114/32 115/115/32 111/116/32
f 66/117/33 68/118/33 38/119/33 37/120/33
f 68/118/34 70/121/34 39/122/34 38/119/34
f 423/123/10 4/124/10 31/125/10 430/126/10
f 430/126/10 31/125/10 32/127/10 431/128/10
f 431/128/10 32/127/10 33/38/10 432/37/10
f 50/129/35 72/130/35 34/131/35 1/132/35
f 72/130/36 74/133/36 35/134/36 34/131/36
f 74/133/37 76/29/37 36/32/37 35/134/37
f 426/36/38 12/35/38 28/135/38 433/136/38
f 433/136/39 28/135/39 29/137/39 434/138/39
f 434/138/40 29/137/40 30/14/40 435/13/40
f 47/94/41 46/68/41 75/139/41 73/140/41
f 73/140/42 75/139/42 76/29/42 74/133/42
f 48/91/43 47/94/43 73/140/43 71/141/43
f 71/141/44 73/140/44 74/133/44 72/130/44
f 17/92/45 48/91/45 71/141/45 49/142/45
f 49/142/46 71/141/46 72/130/46 50/129/46
f 44/100/47 43/64/47 69/143/47 67/144/47
f 67/144/48 69/143/48 70/121/48 68/118/48
f 45/97/49 44/100/49 67/144/49 65/145/49
f 65/145/50 67/144/50 68/118/50 66/117/50
f 24/98/51 45/97/51 65/145/51 57/146/51
f 57/146/52 65/145/52 66/117/52 58/147/52
f 420/148/1 2/149/1 59/150/1 436/151/1
f 436/151/1 59/150/1 60/86/1 437/85/1
f 170/152/53 179/153/53 58/154/53 15/155/53
f 179/153/54 209/57/54 57/60/54 58/154/54
f 43/64/55 23/63/55 64/156/55 69/143/55
f 69/143/56 64/156/56 63/157/56 70/121/56
f 46/68/57 22/67/57 55/158/57 75/139/57
f 75/139/58 55/158/58 56/30/58 76/29/58
f 141/72/59 21/71/59 53/159/59 143/160/59
f 143/160/60 53/159/60 54/26/60 144/25/60
f 172/74/61 181/161/61 64/162/61 23/75/61
f 181/161/62 182/21/62 63/24/62 64/162/62
f 290/80/63 19/79/63 62/163/63 291/164/63
f 291/164/64 62/163/64 61/18/64 292/17/64
f 428/84/65 20/83/65 51/165/65 438/166/65
f 438/166/66 51/165/66 52/10/66 439/9/66
f 41/167/67 40/168/67 103/169/67 101/170/67
f 101/170/68 103/169/68 104/61/68 102/99/68
f 42/171/69 41/167/69 101/170/69 99/172/69
f 99/172/70 101/170/70 102/99/70 100/96/70
f 14/173/1 82/174/1 105/175/1 106/176/1
f 91/177/71 99/172/71 100/96/71 92/95/71
f 26/178/72 25/179/72 97/180/72 95/181/72
f 95/181/73 97/180/73 98/65/73 96/93/73
f 27/182/74 26/178/74 95/181/74 93/183/74
f 93/183/75 95/181/75 96/93/75 94/90/75
f 3/184/76 27/182/76 93/183/76 83/185/76
f 83/185/77 93/183/77 94/90/77 84/89/77
f 424/186/78 267/187/78 85/188/78 440/189/78
f 440/189/79 85/188/79 86/82/79 441/81/79
f 288/190/80 268/191/80 80/192/80 293/193/80
f 293/193/81 80/192/81 79/78/81 294/77/81
f 168/194/1 183/195/1 82/174/1 14/173/1
f 183/195/1 184/73/1 81/76/1 82/174/1
f 266/196/82 10/197/82 87/198/82 149/199/82
f 149/199/83 87/198/83 88/70/83 150/69/83
f 25/179/84 9/200/84 89/201/84 97/180/84
f 97/180/85 89/201/85 90/66/85 98/65/85
f 37/52/86 15/51/86 112/202/86 113/203/86
f 103/169/87 82/204/87 81/62/87 104/61/87
f 171/58/88 185/205/88 92/206/88 24/59/88
f 185/205/89 186/53/89 91/56/89 92/206/89
f 429/88/1 18/87/1 77/207/1 442/208/1
f 442/208/1 77/207/1 78/2/1 443/1/1
f 164/209/90 163/210/90 105/211/90 120/212/90
f 113/213/91 107/214/91 116/215/91 115/216/91
f 160/217/92 159/218/92 119/219/92 118/220/92
f 66/221/93 37/222/93 113/223/93 115/224/93
f 13/104/94 39/103/94 107/225/94 108/226/94
f 91/56/95 16/55/95 110/227/95 118/228/95
f 42/229/96 99/230/96 119/231/96 109/232/96
f 16/110/97 42/109/97 109/233/97 110/234/97
f 40/48/10 14/47/10 106/235/10 114/236/10
f 39/237/98 70/238/98 116/239/98 107/240/98
f 15/155/99 58/154/99 111/241/99 112/242/99
f 99/243/100 91/244/100 118/245/100 119/246/100
f 63/24/101 13/23/101 108/247/101 117/248/101
f 103/249/102 40/250/102 114/251/102 120/252/102
f 70/253/103 63/254/103 117/255/103 116/256/103
f 119/219/104 120/212/104 114/257/104 109/258/104
f 106/176/1 105/175/1 121/259/1 122/260/1
f 117/248/105 108/247/105 124/261/105 133/262/105
f 109/233/10 114/236/10 130/263/10 125/264/10
f 108/226/106 107/225/106 123/265/106 124/266/106
f 120/267/107 119/268/107 135/269/107 136/270/107
f 110/234/10 109/233/10 125/264/10 126/271/10
f 112/242/108 111/241/108 127/272/108 128/273/108
f 160/274/109 118/228/109 134/275/109 162/276/109
f 118/228/110 110/227/110 126/277/110 134/275/110
f 113/203/111 112/202/111 128/278/111 129/279/111
f 115/280/112 116/281/112 132/282/112 131/283/112
f 114/236/10 106/235/10 122/284/10 130/263/10
f 107/225/113 113/203/113 129/279/113 123/265/113
f 163/285/114 117/248/114 133/262/114 165/286/114
f 128/287/115 127/288/115 131/289/115 129/290/115
f 124/291/116 123/292/116 132/293/116 133/294/116
f 122/295/117 121/296/117 136/297/117 130/298/117
f 126/299/118 125/300/118 135/301/118 134/302/118
f 130/298/117 136/297/117 135/301/117 125/300/117
f 165/303/119 133/304/119 132/305/119 166/306/119
f 132/293/120 123/292/120 129/290/120 131/289/120
f 161/307/121 131/308/121 127/309/121 162/310/121
f 143/311/122 277/312/122 305/313/122 141/314/122
f 281/315/123 266/196/123 149/199/123 286/316/123
f 89/201/81 147/317/81 148/318/81 90/66/81
f 9/200/80 269/319/80 147/317/80 89/201/80
f 55/158/64 145/320/64 146/321/64 56/30/64
f 22/67/124 142/322/124 145/320/124 55/158/124
f 327/323/125 143/160/125 144/25/125 328/324/125
f 141/314/126 305/313/126 311/325/126 150/326/126
f 90/66/127 148/318/127 142/322/127 22/67/127
f 441/327/128 416/328/128 312/329/128 396/330/128
f 320/331/129 140/332/129 158/333/129 321/334/129
f 328/324/130 144/25/130 154/28/130 314/335/130
f 56/30/131 146/321/131 153/336/131 11/31/131
f 427/40/132 10/39/132 266/337/132 445/338/132
f 401/339/133 5/340/133 152/341/133 380/342/133
f 329/343/134 138/344/134 153/345/134 326/346/134
f 296/347/135 6/348/135 151/349/135 289/350/135
f 447/351/136 140/352/136 154/34/136 444/33/136
f 462/353/137 321/354/137 158/355/137 449/356/137
f 446/357/138 6/358/138 155/359/138 448/360/138
f 402/361/139 138/362/139 157/363/139 404/364/139
f 295/365/140 5/366/140 156/367/140 297/368/140
f 135/369/141 161/370/141 162/371/141 134/372/141
f 111/241/142 160/274/142 162/276/142 127/272/142
f 111/373/143 115/216/143 159/218/143 160/217/143
f 121/374/144 165/375/144 166/376/144 136/377/144
f 105/175/145 163/285/145 165/286/145 121/259/145
f 116/215/146 117/378/146 163/210/146 164/209/146
f 235/379/147 236/380/147 186/53/147 185/205/147
f 222/381/148 235/379/148 185/205/148 171/58/148
f 233/382/1 234/383/1 184/73/1 183/195/1
f 237/384/1 233/382/1 183/195/1 168/194/1
f 231/385/149 232/386/149 182/21/149 181/161/149
f 223/387/150 231/385/150 181/161/150 172/74/150
f 228/388/151 229/389/151 178/45/151 177/111/151
f 227/390/152 228/388/152 177/111/152 176/108/152
f 238/391/153 227/390/153 176/108/153 169/107/153
f 225/392/154 226/393/154 212/49/154 174/105/154
f 224/394/155 225/392/155 174/105/155 173/102/155
f 221/395/156 224/394/156 173/102/156 167/101/156
f 234/383/1 223/387/1 172/74/1 184/73/1
f 230/396/157 222/381/157 171/58/157 209/57/157
f 236/380/158 238/397/158 169/54/158 186/53/158
f 229/389/10 237/398/10 168/46/10 178/45/10
f 232/386/159 221/399/159 167/22/159 182/21/159
f 59/150/160 2/149/160 189/400/160 202/401/160
f 31/125/10 4/124/10 187/402/10 198/403/10
f 28/135/161 12/35/161 190/404/161 211/405/161
f 87/406/162 10/407/162 188/408/162 206/409/162
f 53/410/163 21/411/163 191/412/163 213/413/163
f 77/207/1 18/87/1 192/414/1 204/415/1
f 2/15/164 30/14/164 193/416/164 189/417/164
f 30/14/165 29/137/165 194/418/165 193/416/165
f 29/137/166 28/135/166 211/405/166 194/418/166
f 10/39/167 33/38/167 196/419/167 188/420/167
f 33/38/168 32/127/168 197/421/168 196/419/168
f 32/127/169 31/125/169 198/403/169 197/421/169
f 12/422/170 54/423/170 199/424/170 190/425/170
f 54/423/171 53/410/171 213/413/171 199/424/171
f 18/87/172 60/86/172 201/426/172 192/414/172
f 60/86/173 59/150/173 202/401/173 201/426/173
f 4/3/1 78/2/1 203/427/1 187/428/1
f 78/2/1 77/207/1 204/415/1 203/427/1
f 21/411/174 88/429/174 205/430/174 191/412/174
f 88/429/175 87/406/175 206/409/175 205/430/175
f 180/431/176 208/432/176 216/433/176 217/434/176
f 207/435/177 200/436/177 220/437/177 215/438/177
f 190/439/178 199/440/178 211/441/178
f 213/442/179 214/443/179 211/441/179 199/440/179
f 210/444/180 209/445/180 179/446/180
f 179/446/181 170/447/181 212/448/181 210/444/181
f 208/449/182 180/450/182 209/451/182 210/452/182
f 239/453/183 175/454/183 212/455/183 226/456/183
f 200/457/184 207/458/184 214/459/184 213/460/184
f 240/461/185 200/457/185 213/460/185 230/462/185
f 207/463/186 195/464/186 211/465/186 214/466/186
f 175/454/187 208/467/187 210/468/187 212/455/187
f 243/469/188 241/470/188 215/471/188 220/472/188
f 242/473/189 218/474/189 215/475/189 241/476/189
f 208/432/190 175/477/190 219/478/190 216/433/190
f 240/461/191 180/450/191 217/479/191 243/469/191
f 239/480/192 195/481/192 218/482/192 242/483/192
f 195/484/193 207/435/193 215/438/193 218/485/193
f 175/486/194 239/480/194 242/483/194 219/487/194
f 200/457/195 240/461/195 243/469/195 220/472/195
f 219/488/196 242/473/196 241/476/196 216/489/196
f 217/479/197 216/490/197 241/470/197 243/469/197
f 180/450/198 240/461/198 230/462/198 209/451/198
f 195/464/199 239/453/199 226/456/199 211/465/199
f 202/401/200 189/400/200 221/399/200 232/386/200
f 198/403/10 187/402/10 237/398/10 229/389/10
f 206/409/201 188/408/201 238/397/201 236/380/201
f 213/413/202 191/412/202 222/381/202 230/396/202
f 204/415/1 192/414/1 223/387/1 234/383/1
f 189/417/203 193/416/203 224/394/203 221/395/203
f 193/416/204 194/418/204 225/392/204 224/394/204
f 194/418/205 211/405/205 226/393/205 225/392/205
f 188/420/206 196/419/206 227/390/206 238/391/206
f 196/419/207 197/421/207 228/388/207 227/390/207
f 197/421/208 198/403/208 229/389/208 228/388/208
f 192/414/209 201/426/209 231/385/209 223/387/209
f 201/426/210 202/401/210 232/386/210 231/385/210
f 187/428/1 203/427/1 233/382/1 237/384/1
f 203/427/1 204/415/1 234/383/1 233/382/1
f 191/412/211 205/430/211 235/379/211 222/381/211
f 205/430/212 206/409/212 236/380/212 235/379/212
f 250/491/213 251/492/213 249/493/213 244/494/213
f 252/495/214 245/496/214 249/497/214 251/498/214
f 247/499/215 252/495/215 251/498/215 248/500/215
f 246/501/216 248/502/216 251/492/216 250/491/216
f 252/495/217 247/499/217 254/503/217 255/504/217
f 245/496/218 252/495/218 255/504/218 253/505/218
f 249/506/219 245/507/219 253/508/219 244/509/219
f 257/510/220 256/511/220 260/512/220 261/513/220
f 256/514/221 258/515/221 259/516/221 260/517/221
f 260/517/222 259/516/222 262/518/222 263/519/222
f 261/513/223 260/512/223 263/520/223 264/521/223
f 263/522/224 262/523/224 265/524/224 264/525/224
f 166/376/225 161/370/225 135/369/225 136/377/225
f 132/305/226 131/308/226 161/307/226 166/306/226
f 120/212/227 119/219/227 159/218/227 164/209/227
f 115/216/228 116/215/228 164/209/228 159/218/228
f 299/526/229 137/527/229 266/337/229 281/528/229
f 450/529/230 8/530/230 267/531/230 424/532/230
f 300/533/231 7/534/231 268/535/231 288/536/231
f 406/537/232 139/538/232 269/539/232 400/540/232
f 459/541/233 305/313/233 277/312/233 457/542/233
f 405/543/234 7/544/234 275/545/234 407/546/234
f 322/547/235 139/548/235 276/549/235 323/550/235
f 299/551/236 8/552/236 274/553/236 301/554/236
f 303/555/237 270/556/237 273/557/237 301/558/237
f 454/559/238 271/560/238 274/561/238 452/562/238
f 304/563/239 275/564/239 302/565/239
f 410/566/240 272/567/240 276/568/240 408/569/240
f 307/570/241 383/571/241 396/572/241 312/573/241
f 331/574/242 306/575/242 280/576/242 325/577/242
f 150/69/243 311/578/243 149/199/243
f 149/199/244 311/578/244 310/579/244 286/316/244
f 279/580/245 393/581/245 383/571/245 307/570/245
f 461/582/246 333/583/246 278/584/246 456/585/246
f 324/586/247 304/563/247 302/565/247 323/587/247
f 271/560/248 303/555/248 301/558/248 274/561/248
f 137/588/249 299/551/249 301/554/249 273/589/249
f 7/590/235 300/591/235 302/592/235 275/593/235
f 322/594/250 300/533/250 288/536/250 313/595/250
f 8/530/248 299/526/248 281/528/248 267/531/248
f 329/596/140 295/365/140 297/368/140 330/597/140
f 448/598/251 155/599/251 298/600/251 458/601/251
f 320/602/252 296/347/252 289/350/252 314/603/252
f 5/340/253 295/604/253 282/605/253 152/341/253
f 52/606/254 285/607/254 289/608/254 151/609/254
f 6/610/255 296/611/255 298/612/255 155/613/255
f 86/614/256 287/615/256 283/616/256 20/617/256
f 20/617/257 283/616/257 284/618/257 51/619/257
f 51/619/258 284/618/258 285/607/258 52/606/258
f 267/620/259 281/315/259 286/316/259 85/621/259
f 85/621/260 286/316/260 287/615/260 86/614/260
f 318/622/81 293/193/81 294/77/81 319/623/81
f 313/624/80 288/190/80 293/193/80 318/622/80
f 316/625/64 291/164/64 292/17/64 317/626/64
f 315/627/124 290/80/124 291/164/124 316/625/124
f 319/623/18 294/77/18 290/80/18 315/627/18
f 317/626/261 292/17/261 282/20/261 326/628/261
f 332/629/262 309/630/262 306/575/262 331/574/262
f 460/631/263 311/325/263 305/313/263 459/541/263
f 455/632/264 270/633/264 311/325/264 460/631/264
f 409/634/265 304/635/265 312/636/265 416/637/265
f 324/638/266 272/639/266 309/630/266 332/629/266
f 393/640/267 279/641/267 417/642/267 438/643/267
f 270/644/268 303/645/268 310/646/268 311/647/268
f 303/645/269 271/648/269 310/646/269
f 283/616/270 308/649/270 278/650/270 284/618/270
f 333/583/271 277/651/271 143/652/271 327/653/271
f 310/579/272 287/615/272 286/316/272
f 287/615/273 310/579/273 308/649/273 283/616/273
f 278/650/274 333/654/274 327/323/274 284/618/274
f 304/655/275 324/638/275 332/629/275 312/573/275
f 312/573/262 332/629/262 331/574/262 307/570/262
f 146/321/276 317/626/276 326/628/276 153/336/276
f 148/318/127 319/623/127 315/627/127 142/322/127
f 142/322/63 315/627/63 316/625/63 145/320/63
f 145/320/64 316/625/64 317/626/64 146/321/64
f 269/319/80 313/624/80 318/622/80 147/317/80
f 147/317/81 318/622/81 319/623/81 148/318/81
f 140/352/277 320/602/277 314/603/277 154/34/277
f 138/656/140 329/596/140 330/597/140 157/657/140
f 139/538/278 322/594/278 313/595/278 269/539/278
f 272/567/279 324/586/279 323/587/279 276/568/279
f 457/658/280 277/651/280 333/583/280 461/582/280
f 307/570/281 331/574/281 325/577/281 279/580/281
f 300/591/235 322/547/235 323/550/235 302/592/235
f 458/601/282 298/600/282 321/354/282 462/353/282
f 295/604/283 329/343/283 326/346/283 282/605/283
f 285/607/284 328/324/284 314/335/284 289/608/284
f 296/611/285 320/331/285 321/334/285 298/612/285
f 284/618/286 327/323/286 328/324/286 285/607/286
f 352/659/287 347/660/287 339/661/287 334/662/287
f 348/663/288 335/664/288 339/665/288 347/666/288
f 337/667/289 342/668/289 341/669/289 338/670/289
f 336/671/290 338/672/290 341/673/290 350/674/290
f 342/675/291 337/676/291 344/677/291 351/678/291
f 465/679/292 342/675/292 351/678/292 466/680/292
f 339/681/293 335/682/293 343/683/293 334/684/293
f 472/685/294 358/686/294 355/687/294 470/688/294
f 350/689/295 351/690/295 344/691/295 336/692/295
f 334/693/296 343/694/296 353/695/296 352/696/296
f 335/697/297 348/698/297 353/699/297 343/700/297
f 465/701/298 348/702/298 347/703/298 464/704/298
f 463/705/299 464/706/299 347/660/299 352/659/299
f 340/707/300 345/708/300 351/678/300 350/709/300
f 467/710/301 340/707/301 350/709/301 463/711/301
f 468/712/302 349/713/302 353/699/302 466/680/302
f 349/713/303 346/714/303 352/715/303 353/699/303
f 469/716/304 470/688/304 355/687/304 354/717/304
f 358/718/305 360/719/305 354/720/305 355/721/305
f 361/722/306 359/723/306 357/724/306 356/725/306
f 471/726/307 361/727/307 356/728/307 469/729/307
f 467/730/308 346/731/308 361/732/308 471/733/308
f 346/734/309 349/735/309 359/723/309 361/722/309
f 345/708/310 340/707/310 360/736/310 358/686/310
f 468/712/311 345/708/311 358/686/311 472/685/311
f 373/737/312 371/738/312 362/739/312 364/740/312
f 371/741/313 372/742/313 363/743/313 362/744/313
f 362/744/314 363/743/314 365/745/314 366/746/314
f 364/740/315 362/739/315 366/747/315 367/748/315
f 367/748/316 366/747/316 369/749/316 370/750/316
f 366/746/317 365/745/317 368/751/317 369/752/317
f 374/753/318 375/754/318 372/742/318 371/741/318
f 376/755/319 374/756/319 371/738/319 373/737/319
f 370/757/320 368/758/320 365/759/320 367/760/320
f 363/761/321 364/762/321 367/760/321 365/759/321
f 363/761/322 372/763/322 373/764/322 364/762/322
f 372/763/323 375/765/323 376/766/323 373/764/323
f 368/767/324 370/768/324 369/769/324
f 297/770/325 412/771/325 419/772/325 330/773/325
f 280/774/326 411/775/326 418/776/326 325/777/326
f 454/778/327 409/634/327 416/637/327 422/779/327
f 272/780/233 410/781/233 415/782/233 309/783/233
f 309/783/328 415/782/328 414/784/328 306/785/328
f 422/779/329 416/637/329 413/786/329 421/787/329
f 156/788/330 403/789/330 412/771/330 297/770/330
f 325/777/331 418/776/331 417/642/331 279/641/331
f 421/787/332 413/786/332 417/790/332 456/791/332
f 438/792/333 417/793/333 413/794/333 428/795/333
f 455/796/334 410/566/334 408/569/334 453/797/334
f 304/563/335 409/798/335 407/799/335 275/564/335
f 450/800/234 405/543/234 407/546/234 452/801/234
f 306/785/328 414/784/328 411/802/328 280/803/328
f 451/804/336 406/537/336 400/540/336 445/338/336
f 7/534/337 405/805/337 379/806/337 268/535/337
f 447/807/338 402/361/338 404/364/338 449/808/338
f 5/809/138 401/810/138 403/811/138 156/812/138
f 330/773/339 419/772/339 404/813/339 157/814/339
f 138/344/340 402/815/340 399/816/340 153/345/340
f 446/817/341 401/339/341 380/342/341 425/818/341
f 9/819/342 382/820/342 400/540/342 269/539/342
f 84/821/1 397/822/1 398/823/1 83/824/1
f 17/825/1 384/826/1 397/822/1 84/821/1
f 80/827/343 395/828/343 396/829/343 79/830/343
f 268/831/78 379/832/78 395/828/78 80/827/78
f 62/833/344 393/834/344 394/835/344 61/836/344
f 19/837/345 383/838/345 393/834/345 62/833/345
f 50/839/1 391/840/1 392/841/1 49/842/1
f 1/843/1 377/844/1 391/840/1 50/839/1
f 35/845/346 389/846/346 390/847/346 34/848/346
f 36/849/347 388/850/347 389/846/347 35/845/347
f 11/851/348 381/852/348 388/850/348 36/849/348
f 26/853/10 386/854/10 387/855/10 25/856/10
f 27/857/10 385/858/10 386/854/10 26/853/10
f 3/859/10 378/860/10 385/858/10 27/857/10
f 49/842/1 392/841/1 384/826/1 17/825/1
f 79/830/349 396/829/349 383/838/349 19/837/349
f 25/856/10 387/855/10 382/820/10 9/819/10
f 153/345/350 399/816/350 381/852/350 11/851/350
f 34/848/351 390/847/351 377/861/351 1/862/351
f 61/836/352 394/835/352 380/863/352 152/864/352
f 139/865/2 406/866/2 408/867/2 276/868/2
f 83/824/1 398/823/1 378/869/1 3/870/1
f 6/348/353 446/817/353 425/818/353 151/349/353
f 140/871/354 447/807/354 449/808/354 158/872/354
f 137/527/355 451/804/355 445/338/355 266/337/355
f 8/873/234 450/800/234 452/801/234 274/874/234
f 270/556/356 455/796/356 453/797/356 273/557/356
f 308/875/357 421/787/357 456/791/357 278/876/357
f 310/877/357 422/779/357 421/787/357 308/875/357
f 271/878/357 454/778/357 422/779/357 310/877/357
f 412/771/358 458/601/358 462/353/358 419/772/358
f 411/775/359 457/658/359 461/582/359 418/776/359
f 410/781/360 455/632/360 460/631/360 415/782/360
f 415/782/263 460/631/263 459/541/263 414/784/263
f 403/789/361 448/598/361 458/601/361 412/771/361
f 418/776/362 461/582/362 456/585/362 417/642/362
f 413/794/363 416/879/363 441/880/363 428/795/363
f 409/798/364 454/559/364 452/562/364 407/799/364
f 414/784/360 459/541/360 457/542/360 411/802/360
f 405/805/365 450/529/365 424/532/365 379/806/365
f 401/810/138 446/357/138 448/360/138 403/811/138
f 419/772/366 462/353/366 449/356/366 404/813/366
f 402/815/367 447/351/367 444/33/367 399/816/367
f 382/820/368 427/40/368 445/338/368 400/540/368
f 397/822/1 442/208/1 443/1/1 398/823/1
f 384/826/1 429/88/1 442/208/1 397/822/1
f 395/828/369 440/189/369 441/81/369 396/829/369
f 379/832/78 424/186/78 440/189/78 395/828/78
f 393/834/370 438/166/370 439/9/370 394/835/370
f 391/840/1 436/151/1 437/85/1 392/841/1
f 377/844/1 420/148/1 436/151/1 391/840/1
f 389/846/371 434/138/371 435/13/371 390/847/371
f 388/850/372 433/136/372 434/138/372 389/846/372
f 381/852/373 426/36/373 433/136/373 388/850/373
f 386/854/10 431/128/10 432/37/10 387/855/10
f 385/858/10 430/126/10 431/128/10 386/854/10
f 378/860/10 423/123/10 430/126/10 385/858/10
f 392/841/1 437/85/1 429/88/1 384/826/1
f 387/855/10 432/37/10 427/40/10 382/820/10
f 399/816/374 444/33/374 426/36/374 381/852/374
f 390/847/375 435/13/375 420/16/375 377/861/375
f 394/835/376 439/9/376 425/12/376 380/863/376
f 406/866/2 451/5/2 453/8/2 408/867/2
f 398/823/1 443/1/1 423/4/1 378/869/1
f 349/713/377 468/712/377 472/685/377 359/881/377
f 340/882/308 467/730/308 471/733/308 360/883/308
f 360/884/307 471/726/307 469/729/307 354/885/307
f 356/886/378 357/887/378 470/688/378 469/716/378
f 345/708/379 468/712/379 466/680/379 351/678/379
f 346/714/380 467/710/380 463/711/380 352/715/380
f 350/674/381 341/673/381 464/706/381 463/705/381
f 479/888/382 478/889/382 473/890/382 474/891/382
f 359/881/294 472/685/294 470/688/294 357/887/294
f 348/698/383 465/679/383 466/680/383 353/699/383
f 473/892/384 476/893/384 475/894/384 474/895/384
f 485/896/385 479/897/385 474/898/385 475/899/385
f 487/900/386 485/901/386 475/902/386 476/903/386
f 478/904/387 487/905/387 476/906/387 473/907/387
f 342/675/388 465/679/388 488/908/388 477/909/388
f 477/909/389 488/908/389 487/905/389 478/904/389
f 465/910/390 464/706/390 486/911/390 488/912/390
f 481/913/391 483/914/391 491/915/391 489/916/391
f 464/706/392 341/673/392 480/917/392 486/911/392
f 486/911/393 480/917/393 479/897/393 485/896/393
f 341/918/394 342/919/394 477/920/394 480/921/394
f 480/921/395 477/920/395 478/889/395 479/888/395
f 481/922/396 482/923/396 486/924/396 485/901/396
f 484/925/397 483/926/397 487/900/397 488/927/397
f 482/928/398 484/929/398 488/912/398 486/911/398
f 483/926/399 481/922/399 485/901/399 487/900/399
f 492/930/400 490/931/400 489/932/400 491/933/400
f 483/934/401 484/935/401 492/936/401 491/937/401
f 484/938/402 482/939/402 490/940/402 492/941/402
f 482/942/403 481/943/403 489/944/403 490/945/403
