# Blender v2.79 (sub 0) OBJ File: 'Burg Test.blend'
# www.blender.org
mtllib Layout_GrasflächeOben.mtl
o BergLochAnfangsSequenz_Cube.019
v 0.000000 22.434586 -9.289764
v 0.747545 21.658360 -22.217468
v -1.830856 20.585426 -33.406860
v -5.813747 20.697750 -64.058197
v 0.000000 22.434586 -5.553223
v 11.659822 21.887405 -22.356262
v 10.900149 21.220985 -27.876572
v 5.136886 20.697750 -64.058197
v 8.203731 20.706554 -36.395325
v 11.654246 22.141682 -19.562210
v 3.327778 22.439913 18.335342
v 3.332879 22.434586 35.834534
v 8.962924 22.434586 50.410339
v 8.962127 22.435417 6.487885
v 4.927393 22.436985 -9.291412
v 3.332879 21.544064 -5.943512
v 4.889491 21.149506 -27.837509
v 2.181702 20.699348 -36.383514
v -0.885962 20.697750 -64.058197
v 3.323974 21.745972 7.498199
v 7.833297 21.762178 5.564331
v 7.934108 22.465839 -9.311295
v 6.108353 20.585426 -33.406860
v 8.661481 22.029766 -19.492783
v 7.896646 21.174370 -27.850510
v 7.668618 21.514240 -2.221664
v 10.945865 22.439564 6.548904
v 10.845122 22.544756 19.878754
v 16.298794 22.381573 -16.796585
v 16.146664 22.528965 -9.413437
v 16.856525 21.959803 -22.408264
v 16.102638 21.259455 -27.909988
v 14.326074 20.598278 -33.415451
v 10.345294 20.697750 -64.058197
v 16.173080 22.285732 6.777008
v 25.485081 22.335960 -9.512039
v 26.198364 21.685560 -22.260239
v 23.551517 20.986305 -33.562759
v 19.640274 20.697750 -64.058197
v 22.665794 20.937881 -36.485687
v 25.537617 22.081444 -3.145676
v 25.454021 22.434586 35.834534
v 33.774139 22.036932 -16.576965
v 33.777164 21.642977 -22.217316
v 33.779507 21.119448 -27.835754
v 33.777222 20.569763 -33.406693
v 33.775219 20.692188 -36.380829
v 33.774117 22.434586 18.256927
v 33.774117 22.434586 35.834534
v 0.691333 20.983406 -50.003387
v 3.688926 21.105015 -50.202744
v 11.887733 21.238659 -50.310715
v 21.142033 21.467072 -50.404739
v 33.769001 20.734182 -49.576309
v 0.196886 22.037056 -16.576965
v -0.037801 21.146645 -27.836029
v -2.745901 20.697750 -36.380890
v 0.747545 21.877861 -19.397522
v 11.108724 22.271290 -16.727249
v 10.938613 22.508240 -9.340500
v 9.119563 20.586664 -33.407501
v 10.950633 22.434586 -2.885361
v 3.332879 22.434586 50.410339
v 3.332879 22.434586 8.289551
v 8.887645 22.513189 19.414047
v 8.962924 22.434586 35.834534
v 0.000000 21.746548 -4.766525
v 5.669084 21.695572 -22.239716
v 5.667068 21.927631 -19.429077
v 3.096929 20.585426 -33.406860
v 5.119049 22.071297 -16.599884
v 3.323980 20.999577 -5.026306
v 8.665385 21.785927 -22.294662
v 5.192324 20.706398 -36.395065
v 2.125462 20.697750 -64.058197
v 8.455556 21.989325 -3.101074
v 8.115436 22.162062 -16.658035
v 10.950633 22.434586 35.834534
v 13.413140 20.697750 -36.380890
v 16.178337 22.361649 -2.978500
v 16.848015 22.230335 -19.619888
v 16.008930 22.591324 20.564270
v 16.159042 22.434586 35.834534
v 25.636627 22.125938 -16.642548
v 25.421238 21.127378 -27.859116
v 26.192005 21.939983 -19.451477
v 25.562660 21.820698 6.734375
v 25.414841 22.454315 18.940826
v 33.784737 22.398235 -9.355667
v 33.774117 20.697750 -64.058197
v 33.801067 22.330589 -3.007324
v 33.775246 21.872158 -19.397461
v 33.812271 22.211205 6.596527
v -4.211575 20.764692 -49.644867
v 6.694471 21.156696 -50.287460
v -5.137516 19.939144 -75.793510
v 4.507979 20.374168 -75.793510
v -1.514868 20.374168 -75.793510
v 1.496556 20.374168 -75.793510
v 9.716388 19.939144 -75.793510
v 19.011368 19.939144 -75.793510
v 33.145210 19.939144 -75.793510
v -5.327284 19.939144 -79.334564
v -5.766423 20.639685 -87.528824
v 4.507979 20.374168 -79.334564
v -1.514868 20.374168 -79.334564
v 1.496556 20.374168 -79.334564
v 9.716388 19.939144 -79.334564
v 19.011368 19.939144 -79.334564
v 33.145210 19.939144 -79.334564
v 4.507979 20.374168 -87.528824
v -1.514868 20.374168 -87.528824
v 1.496556 20.374168 -87.528824
v 9.716388 19.939144 -87.528824
v 19.011368 19.939144 -87.528824
v 33.145210 19.939144 -87.528824
vt 0.390397 0.189424
vt 0.388812 0.170798
vt 0.436345 0.170455
vt 0.436597 0.192442
vt 0.510531 0.185172
vt 0.510510 0.163596
vt 0.530696 0.163170
vt 0.530752 0.184703
vt 0.570954 0.189424
vt 0.570706 0.167895
vt 0.610802 0.179944
vt 0.611185 0.201485
vt 0.632309 0.186115
vt 0.632691 0.207649
vt 0.490166 0.189617
vt 0.490113 0.167960
vt 0.731624 0.216669
vt 0.731872 0.195176
vt 0.830554 0.204750
vt 0.830891 0.226285
vt 0.231350 0.222756
vt 0.224823 0.182446
vt 0.319328 0.184770
vt 0.303490 0.225093
vt 0.105167 0.219259
vt 0.000053 0.216414
vt 0.001152 0.175813
vt 0.106265 0.178658
vt 0.728579 0.273252
vt 0.730556 0.238134
vt 0.831228 0.247819
vt 0.831775 0.283035
vt 0.531620 0.241404
vt 0.530890 0.206219
vt 0.571301 0.210954
vt 0.572000 0.246169
vt 0.439540 0.250212
vt 0.437290 0.214474
vt 0.490400 0.211246
vt 0.491438 0.246487
vt 0.612225 0.258232
vt 0.611581 0.223018
vt 0.632993 0.229175
vt 0.633604 0.264389
vt 0.511445 0.241932
vt 0.510657 0.206726
vt 0.413180 0.253652
vt 0.411980 0.227891
vt 0.404031 0.228531
vt 0.405731 0.253423
vt 0.326500 0.194299
vt 0.310997 0.226302
vt 0.383624 0.196197
vt 0.106656 0.164313
vt 0.221852 0.168162
vt 0.319176 0.170164
vt 0.318142 0.131814
vt 0.389461 0.132413
vt 0.436396 0.132368
vt 0.489907 0.130456
vt 0.570298 0.130568
vt 0.610210 0.142702
vt 0.530378 0.125807
vt 0.631550 0.148859
vt 0.217845 0.130679
vt 0.510226 0.126186
vt 0.107662 0.126762
vt 0.731423 0.158050
vt 0.829941 0.167501
vt 0.390696 0.064299
vt 0.436712 0.064621
vt 0.528580 0.058654
vt 0.569043 0.063685
vt 0.319337 0.063581
vt 0.610157 0.076535
vt 0.631210 0.082570
vt 0.488121 0.063146
vt 0.508320 0.058943
vt 0.731002 0.091911
vt 0.828853 0.101074
vt 0.109394 0.059884
vt 0.231107 0.063084
vt 0.321021 0.004096
vt 0.389922 0.004774
vt 0.608079 0.003242
vt 0.629370 0.003008
vt 0.487179 0.004748
vt 0.507416 0.004545
vt 0.527679 0.004317
vt 0.723671 0.001666
vt 0.827186 0.000057
vt 0.110820 0.000053
vt 0.237238 0.002999
vt 0.435421 0.004942
vt 0.568049 0.003807
vt 0.914050 0.170575
vt 0.914605 0.207933
vt 0.911306 0.003173
vt 0.912958 0.104180
vt 0.914948 0.229477
vt 0.915781 0.277133
vt 0.915293 0.251032
vt 0.938265 0.103767
vt 0.939342 0.170179
vt 0.940276 0.229063
vt 0.940634 0.250593
vt 0.939927 0.207531
vt 0.936612 0.002759
vt 0.995173 0.001805
vt 0.996818 0.102815
vt 0.997889 0.169232
vt 0.998496 0.206574
vt 0.998852 0.228093
vt 0.999212 0.249613
vt 0.941114 0.278028
vt 0.999947 0.280053
vn -0.0898 0.9948 0.0470
vn -0.0374 0.9954 -0.0887
vn -0.0084 0.9942 -0.1070
vn -0.0002 0.9992 0.0403
vn -0.0381 0.9978 -0.0534
vn -0.0259 0.9990 -0.0373
vn -0.0262 0.9935 -0.1110
vn -0.0090 0.9995 -0.0303
vn -0.0069 1.0000 -0.0036
vn 0.0000 1.0000 0.0000
vn -0.0068 1.0000 0.0025
vn -0.0226 0.9997 -0.0099
vn -0.0043 0.9956 -0.0933
vn -0.0038 0.9986 -0.0523
vn -0.0002 0.9993 0.0380
vn -0.0003 0.9949 -0.1004
vn -0.0092 0.9968 -0.0799
vn 0.1127 0.9824 0.1492
vn 0.2484 0.7842 0.5686
vn -0.1956 0.8270 -0.5270
vn -0.0210 0.9995 -0.0225
vn -0.0202 0.9947 -0.1004
vn -0.0205 0.9987 -0.0461
vn -0.0333 0.9979 -0.0550
vn -0.0011 0.9992 0.0397
vn -0.0043 0.9948 -0.1017
vn -0.0337 0.9959 -0.0845
vn -0.1026 0.9862 0.1298
vn -0.3061 0.8798 0.3637
vn -0.5138 0.8578 -0.0144
vn -0.0087 0.9999 0.0059
vn -0.0081 0.9999 -0.0070
vn -0.0985 0.9949 -0.0210
vn 0.0216 0.9998 0.0037
vn -0.0130 0.9996 -0.0263
vn -0.0052 0.9934 -0.1149
vn 0.0053 0.9998 0.0187
vn -0.0116 0.9925 -0.1215
vn -0.0003 0.9993 0.0369
vn 0.0116 0.9998 -0.0150
vn -0.0198 0.9984 -0.0534
vn -0.0164 0.9955 -0.0936
vn -0.0051 1.0000 0.0086
vn -0.0080 0.9993 -0.0354
vn 0.0258 0.9991 0.0328
vn 0.0229 0.9930 -0.1157
vn 0.0399 0.9991 0.0171
vn -0.0337 0.9993 0.0190
vn 0.0301 0.9981 -0.0539
vn 0.0316 0.9951 -0.0932
vn -0.0125 0.9988 -0.0464
vn 0.0078 1.0000 0.0054
vn 0.0241 0.9994 -0.0241
vn -0.0141 0.9977 -0.0668
vn 0.0288 0.9989 -0.0357
vn -0.0387 0.9991 0.0196
vn 0.0309 0.9995 0.0079
vn 0.0104 0.9981 -0.0612
vn 0.0078 0.9963 -0.0856
vn 0.0283 0.9991 -0.0301
vn 0.0012 1.0000 0.0006
vn 0.0022 0.9992 -0.0398
vn 0.0234 0.9976 -0.0650
vn -0.0241 0.9991 -0.0361
vn -0.0192 0.9995 0.0254
vn 0.0036 0.9954 -0.0962
vn 0.0404 0.9990 0.0188
vn -0.0248 0.9988 0.0411
vn -0.0070 0.9993 0.0364
vn -0.0204 0.9994 0.0271
vn -0.0218 0.9996 0.0155
vn -0.0082 0.9995 0.0315
vn -0.0088 0.9984 -0.0552
vn 0.0417 0.9980 -0.0482
vn 0.0000 0.9979 -0.0645
vn 0.0000 0.9996 -0.0276
vn -0.0508 0.9976 -0.0461
vn 0.0832 0.9965 0.0000
vn -0.1162 0.9932 0.0031
vn -0.0210 0.9988 0.0433
usemtl Gras
s off
f 76/1/1 62/2/1 60/3/1 22/4/1
f 24/5/2 10/6/2 6/7/2 73/8/2
f 25/9/3 7/10/3 61/11/3 23/12/3
f 23/12/4 61/11/4 9/13/4 74/14/4
f 77/15/5 59/16/5 10/6/5 24/5/5
f 22/4/6 60/3/6 59/16/6 77/15/6
f 73/8/7 6/7/7 7/10/7 25/9/7
f 51/17/8 95/18/8 8/19/8 75/20/8
f 11/21/9 65/22/9 14/23/9 64/24/9
f 12/25/10 63/26/10 13/27/10 66/28/10
f 12/25/11 66/28/11 65/22/11 11/21/11
f 94/29/12 50/30/12 19/31/12 4/32/12
f 2/33/13 68/34/13 17/35/13 56/36/13
f 1/37/14 15/38/14 71/39/14 55/40/14
f 3/41/15 70/42/15 18/43/15 57/44/15
f 56/36/16 17/35/16 70/42/16 3/41/16
f 58/45/17 69/46/17 68/34/17 2/33/17
f 5/47/18 16/48/18 15/38/18 1/37/18
f 72/49/19 16/48/19 5/47/19 67/50/19
f 14/23/20 21/51/20 20/52/20 64/24/20
f 50/30/21 51/17/21 75/20/21 19/31/21
f 68/34/22 73/8/22 25/9/22 17/35/22
f 15/38/23 22/4/23 77/15/23 71/39/23
f 71/39/24 77/15/24 24/5/24 69/46/24
f 70/42/25 23/12/25 74/14/25 18/43/25
f 17/35/26 25/9/26 23/12/26 70/42/26
f 69/46/27 24/5/27 73/8/27 68/34/27
f 16/48/28 76/1/28 22/4/28 15/38/28
f 26/53/29 76/1/29 16/48/29 72/49/29
f 21/51/30 14/23/30 76/1/30 26/53/30
f 66/28/31 78/54/31 28/55/31 65/22/31
f 27/56/32 14/23/32 65/22/32 28/55/32
f 62/2/33 76/1/33 14/23/33 27/56/33
f 27/56/34 35/57/34 80/58/34 62/2/34
f 60/3/35 30/59/35 29/60/35 59/16/35
f 7/10/36 32/61/36 33/62/36 61/11/36
f 62/2/37 80/58/37 30/59/37 60/3/37
f 6/7/38 31/63/38 32/61/38 7/10/38
f 61/11/39 33/62/39 79/64/39 9/13/39
f 28/55/40 82/65/40 35/57/40 27/56/40
f 59/16/41 29/60/41 81/66/41 10/6/41
f 10/6/42 81/66/42 31/63/42 6/7/42
f 78/54/43 83/67/43 82/65/43 28/55/43
f 95/18/44 52/68/44 34/69/44 8/19/44
f 80/58/45 41/70/45 36/71/45 30/59/45
f 31/63/46 37/72/46 85/73/46 32/61/46
f 35/57/47 87/74/47 41/70/47 80/58/47
f 33/62/48 38/75/48 40/76/48 79/64/48
f 29/60/49 84/77/49 86/78/49 81/66/49
f 81/66/50 86/78/50 37/72/50 31/63/50
f 52/68/51 53/79/51 39/80/51 34/69/51
f 83/67/52 42/81/52 88/82/52 82/65/52
f 30/59/53 36/71/53 84/77/53 29/60/53
f 32/61/54 85/73/54 38/75/54 33/62/54
f 82/65/55 88/82/55 87/74/55 35/57/55
f 87/74/56 93/83/56 91/84/56 41/70/56
f 38/75/57 46/85/57 47/86/57 40/76/57
f 84/77/58 43/87/58 92/88/58 86/78/58
f 86/78/59 92/88/59 44/89/59 37/72/59
f 53/79/60 54/90/60 90/91/60 39/80/60
f 42/81/61 49/92/61 48/93/61 88/82/61
f 36/71/62 89/94/62 43/87/62 84/77/62
f 85/73/63 45/95/63 46/85/63 38/75/63
f 88/82/64 48/93/64 93/83/64 87/74/64
f 41/70/65 91/84/65 89/94/65 36/71/65
f 37/72/66 44/89/66 45/95/66 85/73/66
f 40/76/67 47/86/67 54/90/67 53/79/67
f 79/64/68 40/76/68 53/79/68 52/68/68
f 9/13/69 79/64/69 52/68/69 95/18/69
f 18/43/70 74/14/70 51/17/70 50/30/70
f 57/44/71 18/43/71 50/30/71 94/29/71
f 74/14/72 9/13/72 95/18/72 51/17/72
f 55/40/73 71/39/73 69/46/73 58/45/73
f 34/69/74 100/96/74 97/97/74 8/19/74
f 90/91/75 102/98/75 101/99/75 39/80/75
f 8/19/76 97/97/76 99/100/76 75/20/76
f 96/101/77 4/32/77 19/31/77 98/102/77
f 39/80/75 101/99/75 100/96/75 34/69/75
f 75/20/76 99/100/76 98/102/76 19/31/76
f 101/99/10 109/103/10 108/104/10 100/96/10
f 99/100/10 107/105/10 106/106/10 98/102/10
f 97/97/10 105/107/10 107/105/10 99/100/10
f 102/98/10 110/108/10 109/103/10 101/99/10
f 100/96/78 108/104/78 105/107/78 97/97/78
f 110/108/10 116/109/10 115/110/10 109/103/10
f 108/104/78 114/111/78 111/112/78 105/107/78
f 105/107/10 111/112/10 113/113/10 107/105/10
f 109/103/10 115/110/10 114/111/10 108/104/10
f 107/105/10 113/113/10 112/114/10 106/106/10
f 98/102/79 106/106/79 103/115/79 96/101/79
f 104/116/80 103/115/80 106/106/80 112/114/80
