# Blender v2.79 (sub 0) OBJ File: 'Burg Test.blend'
# www.blender.org
mtllib Layout_Collison.mtl
o BergLochDing.002_Cube.014
v -3.629044 5.720813 -75.793518
v -2.655067 5.822421 -79.168221
v -2.747218 8.520929 -199.112015
v -2.747218 8.936990 -203.474258
v -3.605618 10.898085 -203.474258
v -1.118676 1.524674 -191.608856
v -1.118676 1.882163 -189.282028
v 1.149583 1.882163 -189.282028
v 1.149583 1.524674 -191.608856
v 1.408595 3.245837 -188.360168
v -1.342866 3.245837 -188.360168
v 1.149583 3.175641 -218.081848
v -1.184406 3.175641 -218.081848
v 1.408595 4.266300 -219.197739
v -1.408596 4.266300 -219.197739
v -1.184406 2.726978 -215.331985
v 1.149583 2.726978 -215.331985
v -3.604649 10.909989 -210.613617
v 0.000000 0.000000 -3.959717
v 0.000000 0.000000 2.139984
v 0.000000 0.000000 -6.779205
v 0.000000 0.000000 -11.437683
v 0.000000 0.000000 -22.217468
v 0.000000 0.000000 -27.836029
v 0.000000 0.000000 -33.406860
v 0.000000 1.837104 -64.058205
v 0.000000 0.228940 -36.380890
v 0.000000 2.537643 -87.528831
v 0.000000 1.837104 -75.014351
v 0.000000 1.837104 -79.875938
v -0.287711 5.675605 -75.793518
v -0.327534 5.822421 -79.334572
v 0.000000 4.237830 -119.355598
v 0.000000 4.237830 -141.078323
v 0.000000 5.008595 -173.942627
v 0.000000 5.008595 -186.968460
v 0.000000 1.882163 -188.864502
v 0.000000 1.524674 -191.608856
v 0.000000 3.245837 -187.823334
v 0.000000 3.175641 -218.430054
v 0.000000 4.266300 -219.430511
v 0.000000 2.726978 -215.331985
v -0.222898 6.029058 -220.253891
v -1.037984 6.029058 -224.409058
v -1.037984 6.029058 -249.584152
v -0.312566 0.000000 -1.169586
v -2.634121 5.822421 -77.472038
v 2.020946 5.623866 -77.472038
v -0.306588 5.822421 -77.472038
v -2.373609 7.001254 -198.407715
v 1.004693 5.557587 -75.793518
v 1.851329 5.588951 -76.810936
v 1.643559 5.602582 -78.244896
v 0.779898 5.679164 -78.729637
v 0.000000 4.237830 -125.875252
v 0.000000 3.762078 -126.427467
v 0.000000 3.757270 -133.837418
v 0.000000 4.237830 -134.322083
v 1.232640 5.285293 -198.195007
v 1.232640 8.520929 -199.112015
v 1.775246 8.309823 -199.250061
v 1.106523 8.936990 -203.474258
v 1.775246 8.710917 -203.474258
v 1.232640 7.001254 -198.407715
v 1.775246 7.001254 -198.643616
v 1.101094 10.898085 -203.659698
v 1.597032 10.898085 -205.336319
v 0.000000 5.008595 -192.979355
v -0.435349 6.029058 -215.088547
v -0.802496 10.901933 -210.621735
v -3.774519 6.029058 -219.835815
v -3.774519 6.029058 -215.621765
v -3.774519 6.029058 -224.409058
v -3.278481 6.029058 -249.584152
v -0.741252 6.029058 -214.706787
v 1.579060 10.898085 -210.625610
v 1.968022 10.898085 -210.205887
v -3.774519 6.029058 -215.139618
v -3.411946 6.029057 -214.769302
v -1.184406 2.961425 -216.787018
v 1.334374 2.961425 -216.787018
v 0.000000 2.942819 -216.961121
v -1.540206 5.008595 -188.105347
v -1.342866 4.712008 -188.360168
v -1.757019 6.029058 -219.477005
v -1.408596 5.732471 -219.197739
v 1.408595 4.712008 -188.360168
v 1.613744 5.008595 -188.063629
v 1.613743 5.008595 -191.905396
v 1.408595 4.712008 -191.608856
v -1.342866 4.712008 -191.608856
v -1.540206 5.008595 -191.863678
v 1.694110 6.029058 -219.359863
v 1.408595 5.732471 -219.197739
v 1.559491 6.029058 -216.162903
v 1.408595 5.733577 -216.298187
v -1.757019 6.029058 -216.165894
v -1.408596 5.732471 -216.259857
v -0.050049 6.029058 -219.759094
v 0.000000 5.732471 -219.430511
v 0.000000 5.008595 -187.448608
v 0.000000 4.712008 -187.823334
v 0.000000 4.712008 -192.124481
v 0.000000 5.008595 -192.496124
v 0.000000 5.732471 -215.925827
v -0.122470 6.029058 -215.547134
v -1.037984 6.029058 -225.938721
v -3.774519 6.029058 -225.938721
v -1.037984 6.029058 -241.484619
v -3.278481 6.029058 -241.484619
v -1.037984 6.029058 -240.543671
v -4.075968 6.029058 -240.532379
v 2.000000 6.029058 -250.805817
v -1.037984 6.029058 -250.805817
v -3.278481 6.029058 -250.805817
v -1.037982 8.029056 -251.805817
v -3.278481 8.021718 -251.805817
v -1.037984 7.029058 -250.805817
v 2.000107 7.028909 -250.806549
v -3.278481 7.029058 -250.805817
v -1.037984 7.029058 -251.805817
v 2.002337 7.025791 -251.822067
v -3.278481 7.029058 -251.805817
v 2.005308 8.021639 -251.842743
v -1.037433 8.028288 -252.809647
v 2.009908 8.015208 -252.874756
v -3.278481 8.029058 -252.805817
v -1.037021 9.027712 -252.812515
v 2.011945 9.012362 -252.888916
v -3.278481 9.029058 -252.805817
v -1.036485 9.026962 -253.816238
v 2.014418 9.008905 -253.906113
v -3.278481 9.029058 -253.805801
v -1.037021 10.027712 -253.812500
v 2.011945 10.012362 -253.888916
v -3.278481 10.029058 -253.805801
v -1.037433 10.028288 -254.809631
v 2.009535 10.021904 -254.877502
v -3.278481 10.029058 -254.805801
v -3.278481 11.029058 -255.805801
v -1.038049 11.030218 -255.806274
v 1.999377 11.078897 -255.843948
v 2.004192 11.041657 -254.850983
v -3.278481 11.029058 -254.805801
v -1.037982 11.029057 -254.805817
v -1.038572 12.039618 -257.369141
v 1.994341 12.130579 -257.406616
v -1.038145 12.031946 -255.806992
v 1.996524 12.093178 -255.833023
v -3.278481 12.029058 -257.364777
v -1.037984 13.929983 -274.025452
v 2.382256 13.929983 -274.025452
v -3.278481 13.929983 -274.025452
v -3.605618 10.898085 -207.630249
v -3.278481 12.976166 -263.081940
v -1.037984 12.976166 -263.081940
v 2.382256 12.976165 -263.081940
v -3.278481 12.029058 -255.805801
v -3.278481 13.447829 -268.423798
v 2.382256 13.447829 -268.423798
v -1.037984 13.447829 -268.423798
v 2.382257 15.308518 -316.202332
v -3.484221 15.308518 -316.202332
v -0.742110 15.308518 -316.202332
v -0.742110 15.308518 -319.580444
v -3.484221 15.308518 -319.580444
v 2.382257 15.308518 -319.580444
v -0.919635 15.308518 -289.099426
v -3.360777 15.308518 -289.099426
v 2.382257 15.308518 -289.099426
v -0.742110 14.748821 -321.478485
v -3.484221 14.748821 -321.478485
v 2.382257 14.748821 -321.478485
v -0.742110 14.402637 -331.109772
v -3.484221 14.402637 -331.109772
v 2.382257 14.402637 -331.109772
v -0.742110 15.308518 -332.848572
v -3.484221 15.308518 -332.848572
v 2.382257 15.308518 -332.848572
v -0.978809 14.619251 -282.460846
v -3.319629 14.619251 -282.460846
v 2.382257 14.619251 -282.460846
v 0.000000 0.000000 -16.828156
v 1.760891 0.000000 2.831451
v 1.760891 0.000000 -3.959717
v 1.760891 0.000000 -6.779205
v 1.760891 0.000000 -11.437683
v 1.760891 0.000000 -22.217468
v 1.760891 0.000000 -27.836029
v 1.760891 0.000000 -33.406860
v 1.760891 1.837104 -64.058205
v 1.760891 0.228940 -36.380890
v 1.760844 2.537643 -87.528831
v 1.984053 1.837104 -75.398323
v 1.983417 1.837104 -79.540558
v 1.760844 4.237830 -119.355598
v 1.760891 4.237830 -141.078323
v 1.760891 5.008595 -173.942627
v 1.760891 5.008595 -187.505295
v 1.760891 5.008595 -192.525375
v 1.760891 0.000000 -1.169586
v 1.807706 3.613226 -126.446503
v 1.760844 4.237830 -126.084198
v 1.760891 4.237830 -134.322083
v 1.760892 3.757270 -133.837418
v 1.775067 5.089703 -197.652588
v 1.760891 0.000000 -16.828156
v 2.253224 6.029058 -215.733612
v 2.244466 6.029058 -219.793839
v 1.839002 6.029058 -224.409058
v 1.839002 6.029058 -249.584152
v 1.793303 6.032248 -214.763153
v 1.839002 6.029058 -225.938721
v 1.839002 6.029058 -241.484619
v 1.839002 6.029058 -240.543671
v -1.184406 1.796648 -198.178818
v -1.184406 1.827859 -198.932770
v -1.184406 2.034906 -203.934357
v -1.184406 2.344739 -210.079117
v -1.184406 2.614908 -214.015518
v 1.149583 1.796648 -198.178818
v 1.149583 1.827859 -198.932770
v 1.149583 2.034906 -203.934357
v 1.149583 2.344739 -210.079117
v 1.149583 2.614908 -214.015518
v 0.000000 1.796648 -198.178818
v 0.000000 1.827859 -198.932770
v 0.000000 2.034906 -203.934357
v 0.000000 2.344739 -210.079117
v 0.000000 2.614908 -214.015518
v -1.184406 1.763038 -197.366913
v 1.149583 1.763038 -197.366913
v 0.000000 1.763038 -197.366913
v -1.759742 0.000000 1.340179
v -1.788179 0.000000 -3.959717
v -1.788179 0.000000 -6.779205
v -1.788179 0.000000 -11.437683
v -1.788179 0.000000 -22.217468
v -1.788179 0.000000 -27.836029
v -1.788179 0.000000 -33.406860
v -1.788179 1.837104 -64.058205
v -1.788179 0.228940 -36.380890
v -1.790710 2.537643 -87.528831
v -1.788179 1.837104 -74.841805
v -1.790725 1.837104 -80.102394
v -1.790710 4.237830 -119.355598
v -1.790710 4.237830 -141.078323
v -1.790710 5.008595 -173.942627
v -1.790696 5.305468 -198.195007
v -1.790710 5.008595 -192.517685
v -1.790710 5.008595 -187.505295
v -2.413312 0.000000 -1.169586
v -1.790614 3.757362 -133.511307
v -1.790710 4.237830 -133.986877
v -1.790710 4.237830 -126.087746
v -1.790604 3.760118 -126.623993
v -1.788179 0.000000 -16.828156
v 0.000000 1.033022 -50.219543
v 1.760891 1.033022 -50.219543
v -1.788179 1.033022 -50.219543
vt 0.943126 0.466916
vt 0.941815 0.457854
vt 0.950390 0.457844
vt 0.950409 0.466908
vt 0.935731 0.466925
vt 0.933126 0.457864
vt 0.943177 0.491209
vt 0.950459 0.491201
vt 0.950496 0.508712
vt 0.943213 0.508720
vt 0.935818 0.508729
vt 0.943249 0.526228
vt 0.935854 0.526236
vt 0.950532 0.526219
vt 0.935930 0.562586
vt 0.943325 0.562577
vt 0.943330 0.572245
vt 0.935934 0.572254
vt 0.936013 0.662212
vt 0.943409 0.662203
vt 0.943483 0.697795
vt 0.936086 0.697243
vt 0.935974 0.617233
vt 0.943369 0.617224
vt 0.952834 0.467583
vt 0.960240 0.467551
vt 0.960865 0.570990
vt 0.953459 0.571022
vt 0.950652 0.617216
vt 0.950691 0.662195
vt 0.466706 0.729259
vt 0.462496 0.732007
vt 0.459760 0.732556
vt 0.459756 0.724985
vt 0.960109 0.442670
vt 0.968304 0.441545
vt 0.967522 0.467520
vt 0.963948 0.439252
vt 0.956542 0.438162
vt 0.956542 0.416214
vt 0.963948 0.416215
vt 0.949260 0.416213
vt 0.949312 0.309429
vt 0.956594 0.309430
vt 0.949260 0.438161
vt 0.324778 0.735757
vt 0.318322 0.734647
vt 0.318322 0.722947
vt 0.324778 0.722845
vt 0.294612 0.735763
vt 0.276514 0.735763
vt 0.276424 0.722835
vt 0.294526 0.723245
vt 0.964000 0.249088
vt 0.956594 0.247588
vt 0.951515 0.230635
vt 0.964020 0.230636
vt 0.949312 0.265370
vt 0.956594 0.267114
vt 0.962964 0.251213
vt 0.956594 0.249157
vt 0.964245 0.693473
vt 0.959489 0.692120
vt 0.959454 0.684572
vt 0.964209 0.684568
vt 0.624683 0.735855
vt 0.619478 0.735261
vt 0.621628 0.730558
vt 0.625894 0.731035
vt 0.949920 0.263556
vt 0.956594 0.265554
vt 0.302358 0.725872
vt 0.302658 0.721269
vt 0.307417 0.721974
vt 0.307124 0.725869
vt 0.964188 0.602169
vt 0.958671 0.602738
vt 0.959444 0.598525
vt 0.964197 0.597390
vt 0.964179 0.611747
vt 0.959425 0.611751
vt 0.959426 0.607471
vt 0.964181 0.607467
vt 0.753351 0.688786
vt 0.760112 0.686778
vt 0.768455 0.688547
vt 0.754645 0.690276
vt 0.757145 0.659998
vt 0.745246 0.659995
vt 0.745247 0.655026
vt 0.757146 0.655029
vt 0.768459 0.674858
vt 0.753770 0.673496
vt 0.768462 0.660001
vt 0.743565 0.674988
vt 0.935750 0.476084
vt 0.943145 0.476076
vt 0.935781 0.491218
vt 0.760114 0.676021
vt 0.753055 0.675103
vt 0.969078 0.611743
vt 0.969079 0.607464
vt 0.969088 0.602730
vt 0.969097 0.598517
vt 0.302182 0.730401
vt 0.307022 0.729540
vt 0.630578 0.735977
vt 0.630778 0.731149
vt 0.968870 0.692113
vt 0.968835 0.684565
vt 0.459759 0.717425
vt 0.466706 0.714199
vt 0.466704 0.725055
vt 0.952708 0.443437
vt 0.943287 0.544480
vt 0.935892 0.544489
vt 0.968148 0.570959
vt 0.950428 0.476067
vt 0.950570 0.544472
vt 0.950608 0.562569
vt 0.951691 0.699033
vt 0.950613 0.572237
vt 0.943085 0.447101
vt 0.950363 0.444846
vt 0.452743 0.717356
vt 0.452052 0.724916
vt 0.456564 0.731331
vt 0.454558 0.728521
vt 0.766424 0.604530
vt 0.757158 0.604527
vt 0.757164 0.578216
vt 0.766431 0.578218
vt 0.961017 0.592170
vt 0.953616 0.592892
vt 0.398345 0.700468
vt 0.391047 0.699812
vt 0.391519 0.698028
vt 0.398464 0.698289
vt 0.964000 0.309430
vt 0.964000 0.265371
vt 0.543675 0.706559
vt 0.551144 0.706615
vt 0.551243 0.708270
vt 0.543776 0.708216
vt 0.536401 0.706571
vt 0.536503 0.708227
vt 0.968304 0.592817
vt 0.383633 0.699741
vt 0.384091 0.697958
vt 0.318383 0.721147
vt 0.323942 0.721059
vt 0.276975 0.721059
vt 0.294502 0.721061
vt 0.746395 0.686784
vt 0.743526 0.688178
vt 0.962964 0.263422
vt 0.949920 0.251076
vt 0.949312 0.249061
vt 0.768455 0.690114
vt 0.766955 0.691316
vt 0.755910 0.691517
vt 0.949258 0.232403
vt 0.745841 0.676398
vt 0.296311 0.725662
vt 0.296136 0.730191
vt 0.294821 0.731100
vt 0.295009 0.725510
vt 0.624376 0.740562
vt 0.630271 0.740683
vt 0.630778 0.741795
vt 0.623981 0.741674
vt 0.962128 0.252049
vt 0.956574 0.250373
vt 0.399606 0.706176
vt 0.400179 0.701248
vt 0.401449 0.701820
vt 0.401057 0.706044
vt 0.758653 0.676937
vt 0.752828 0.676179
vt 0.950749 0.262601
vt 0.956574 0.264346
vt 0.950749 0.252048
vt 0.399761 0.711789
vt 0.401074 0.710745
vt 0.768463 0.655032
vt 0.744601 0.574244
vt 0.757165 0.574247
vt 0.745266 0.578212
vt 0.769722 0.607624
vt 0.757157 0.607584
vt 0.745259 0.607581
vt 0.745259 0.604524
vt 0.766432 0.574249
vt 0.941197 0.439379
vt 0.941197 0.432101
vt 0.945333 0.432101
vt 0.945333 0.439378
vt 0.941197 0.422233
vt 0.945333 0.422232
vt 0.783045 0.678694
vt 0.783045 0.688562
vt 0.778909 0.688563
vt 0.778909 0.678695
vt 0.778909 0.671417
vt 0.783045 0.671417
vt 0.778357 0.738959
vt 0.778357 0.729090
vt 0.782493 0.729090
vt 0.782493 0.738958
vt 0.778357 0.746236
vt 0.782493 0.746236
vt 0.782493 0.719221
vt 0.782493 0.729089
vt 0.778357 0.729090
vt 0.778357 0.719222
vt 0.782493 0.711944
vt 0.778357 0.711944
vt 0.403742 0.728512
vt 0.403742 0.735790
vt 0.399606 0.735790
vt 0.399606 0.728513
vt 0.799041 0.213997
vt 0.786485 0.213637
vt 0.786719 0.208576
vt 0.799275 0.208936
vt 0.403742 0.745658
vt 0.399606 0.745659
vt 0.808301 0.214262
vt 0.808536 0.209201
vt 0.801034 0.172995
vt 0.786898 0.172590
vt 0.787772 0.154392
vt 0.801908 0.154797
vt 0.810294 0.173260
vt 0.811168 0.155062
vt 0.605633 0.708688
vt 0.607242 0.707324
vt 0.617093 0.707325
vt 0.607168 0.724507
vt 0.628685 0.707327
vt 0.628685 0.717057
vt 0.628685 0.730558
vt 0.609219 0.729954
vt 0.800199 0.190350
vt 0.809459 0.190615
vt 0.786063 0.189945
vt 0.807115 0.017800
vt 0.794202 0.017430
vt 0.794709 0.006464
vt 0.807622 0.006834
vt 0.818448 0.018125
vt 0.818956 0.007158
vt 0.803778 0.105809
vt 0.813867 0.106098
vt 0.790131 0.105418
vt 0.789087 0.126988
vt 0.802978 0.127386
vt 0.812653 0.127663
vt 0.807869 0.000687
vt 0.819202 0.001012
vt 0.794956 0.000317
vt 0.856317 0.421969
vt 0.860980 0.431433
vt 0.854220 0.433437
vt 0.849557 0.423972
vt 0.852225 0.413662
vt 0.845465 0.415665
vt 0.745427 0.691331
vt 0.969097 0.665852
vt 0.964198 0.665856
vt 0.964197 0.663217
vt 0.969095 0.663214
vt 0.964195 0.660767
vt 0.969094 0.660764
vt 0.964186 0.644513
vt 0.969085 0.644510
vt 0.964179 0.624543
vt 0.969077 0.624539
vt 0.959444 0.665860
vt 0.959442 0.663221
vt 0.959441 0.660771
vt 0.959432 0.644517
vt 0.959425 0.624546
vt 0.935812 0.449708
vn 0.0000 1.0000 0.0000
vn 0.0000 0.9971 0.0768
vn 0.0000 0.9983 0.0580
vn 0.0000 0.9986 0.0533
vn 0.0805 0.9929 0.0879
vn -0.0080 0.9960 0.0893
vn 0.0000 0.9997 0.0234
vn 0.0000 0.4205 0.9073
vn 0.0000 0.9955 0.0949
vn 0.0093 0.9985 0.0536
vn -0.0253 0.9899 -0.1396
vn -0.2853 0.5776 -0.7648
vn 0.1570 0.6960 0.7007
vn -0.0415 0.9859 0.1622
vn 0.0000 0.9964 0.0848
vn 0.0429 0.9863 0.1595
vn -0.1588 0.6972 0.6991
vn 0.2960 0.5739 -0.7635
vn 0.0260 0.9899 -0.1396
vn 0.0080 0.9971 0.0761
vn -0.0058 0.9957 0.0925
vn 0.0930 0.9945 -0.0481
vn 0.1291 0.9916 -0.0015
vn -0.0225 0.6384 -0.7693
vn 0.1295 0.7009 0.7014
vn 0.0000 0.7101 0.7041
vn 0.0746 0.7501 -0.6571
vn 0.3669 0.3912 0.8440
vn 0.3467 0.9342 0.0838
vn 0.0663 0.9969 0.0425
vn 0.0184 0.9893 0.1444
vn -0.0175 0.9895 0.1434
vn -0.1469 0.6645 0.7327
vn 0.2563 0.7423 -0.6191
vn 0.2483 0.7412 0.6236
vn -0.2332 0.6438 -0.7288
vn 0.1086 0.7461 0.6569
vn -0.2302 0.7631 -0.6040
vn -0.2226 0.7620 0.6081
vn 0.2115 0.7063 -0.6756
vn 0.0006 1.0000 -0.0015
vn 0.0033 1.0000 -0.0035
vn -0.0015 1.0000 0.0033
vn 0.0054 1.0000 -0.0021
vn 0.0008 1.0000 -0.0004
vn 0.0037 1.0000 0.0051
vn 0.0005 1.0000 0.0003
vn -0.0003 1.0000 0.0006
vn -0.0249 0.9996 0.0144
vn -0.0098 0.9998 0.0193
vn -0.0030 1.0000 0.0025
vn 0.0000 0.9963 0.0858
vn 0.0014 1.0000 -0.0000
vn 0.0005 1.0000 0.0018
vn -0.0022 0.9867 0.1626
vn -0.0130 0.9880 0.1542
vn 0.0000 0.9961 0.0880
vn 0.0000 0.9947 0.1033
vn 0.0000 0.9592 -0.2828
vn 0.0000 0.8869 0.4620
vn 0.0000 0.9967 0.0814
vn 0.0906 0.9922 0.0858
vn -0.0010 1.0000 -0.0029
vn 0.0000 0.9991 0.0414
vn 0.0000 0.9987 0.0504
vn 0.0000 0.9977 0.0685
usemtl (null)
s off
f 19/1/1 46/2/1 201/3/1 185/4/1
f 235/5/1 252/6/1 46/2/1 19/1/1
f 22/7/1 187/8/1 207/9/1 183/10/1
f 257/11/1 183/10/1 23/12/1 238/13/1
f 183/10/1 207/9/1 188/14/1 23/12/1
f 240/15/2 25/16/2 27/17/2 242/18/2
f 241/19/1 26/20/1 29/21/1 244/22/1
f 260/23/3 258/24/3 26/20/3 241/19/3
f 243/25/4 28/26/4 33/27/4 246/28/4
f 258/24/3 259/29/3 191/30/3 26/20/3
f 51/31/5 52/32/5 48/33/5 49/34/5
f 30/35/6 195/36/6 193/37/6 28/26/6
f 254/38/1 58/39/1 34/40/1 247/41/1
f 34/40/7 197/42/7 198/43/7 35/44/7
f 58/39/1 204/45/1 197/42/1 34/40/1
f 3/46/8 50/47/8 64/48/8 60/49/8
f 4/50/9 3/51/9 60/52/9 62/53/9
f 250/54/10 68/55/10 59/56/10 249/57/10
f 35/44/1 198/43/1 199/58/1 36/59/1
f 92/60/1 104/61/1 68/55/1 250/54/1
f 37/62/11 8/63/11 9/64/11 38/65/11
f 39/66/12 10/67/12 8/68/12 37/69/12
f 88/70/1 101/71/1 36/59/1 199/58/1
f 41/72/13 15/73/13 13/74/13 40/75/13
f 82/76/14 81/77/14 12/78/14 40/79/14
f 230/80/15 225/81/15 17/82/15 42/83/15
f 106/84/1 97/85/1 72/86/1 69/87/1
f 44/88/1 210/89/1 213/90/1 107/91/1
f 71/92/1 43/93/1 44/88/1 73/94/1
f 43/93/1 209/95/1 210/89/1 44/88/1
f 236/96/1 21/97/1 22/7/1 237/98/1
f 85/99/1 99/100/1 43/93/1 71/92/1
f 220/101/15 230/80/15 42/83/15 16/102/15
f 80/103/16 82/76/16 40/79/16 13/104/16
f 14/105/17 41/72/17 40/75/17 12/106/17
f 11/107/18 39/66/18 37/69/18 7/108/18
f 7/109/19 37/62/19 38/65/19 6/110/19
f 47/111/20 1/112/20 31/113/20 49/34/20
f 245/114/21 30/35/21 28/26/21 243/25/21
f 238/13/1 23/12/1 24/115/1 239/116/1
f 28/26/4 193/37/4 196/117/4 33/27/4
f 19/1/1 185/4/1 186/118/1 21/97/1
f 21/97/1 186/118/1 187/8/1 22/7/1
f 24/115/1 189/119/1 190/120/1 25/16/1
f 26/20/1 191/30/1 194/121/1 29/21/1
f 25/16/2 190/120/2 192/122/2 27/17/2
f 46/2/1 20/123/1 184/124/1 201/3/1
f 2/125/1 47/111/1 49/34/1 32/126/1
f 48/33/22 53/127/22 54/128/22 49/34/22
f 110/129/1 109/130/1 45/131/1 74/132/1
f 246/28/1 33/27/1 55/133/1 255/134/1
f 235/5/1 19/1/1 21/97/1 236/96/1
f 237/98/1 22/7/1 183/10/1 257/11/1
f 32/126/23 49/34/23 54/128/23
f 202/135/24 56/136/24 55/137/24 203/138/24
f 248/139/1 35/44/1 36/59/1 251/140/1
f 58/141/25 254/142/25 253/143/25 57/144/25
f 204/145/26 58/141/26 57/144/26 205/146/26
f 247/41/7 34/40/7 35/44/7 248/139/7
f 33/27/1 196/117/1 203/147/1 55/133/1
f 56/136/27 256/148/27 255/149/27 55/137/27
f 65/150/28 61/151/28 60/49/28 64/48/28
f 62/53/29 60/52/29 61/152/29 63/153/29
f 95/154/1 106/84/1 69/87/1 208/155/1
f 101/71/1 83/156/1 251/140/1 36/59/1
f 104/61/1 89/157/1 200/158/1 68/55/1
f 69/87/1 72/86/1 78/159/1 79/160/1 75/161/1
f 59/56/30 68/55/30 200/158/30 206/162/30
f 99/100/1 93/163/1 209/95/1 43/93/1
f 16/102/31 42/83/31 82/76/31 80/103/31
f 42/83/32 17/82/32 81/77/32 82/76/32
f 100/164/33 94/165/33 93/166/33 99/167/33
f 102/168/34 84/169/34 83/170/34 101/171/34
f 104/61/35 92/60/35 91/172/35 103/173/35
f 106/174/36 95/175/36 96/176/36 105/177/36
f 86/178/37 100/179/37 99/100/37 85/99/37
f 87/180/38 102/181/38 101/71/38 88/70/38
f 89/157/39 104/61/39 103/173/39 90/182/39
f 97/183/40 106/174/40 105/177/40 98/184/40
f 108/185/1 73/94/1 44/88/1 107/91/1
f 113/186/1 114/187/1 45/131/1 211/188/1
f 112/189/1 111/190/1 109/130/1 110/129/1
f 111/190/1 215/191/1 214/192/1 109/130/1
f 107/91/1 213/90/1 215/191/1 111/190/1
f 109/130/1 214/192/1 211/188/1 45/131/1
f 74/132/1 45/131/1 114/187/1 115/193/1
f 120/194/1 118/195/1 121/196/1 123/197/1
f 118/195/41 119/198/41 122/199/41 121/196/41
f 116/200/42 124/201/42 126/202/42 125/203/42
f 125/203/43 127/204/43 117/205/43 116/200/43
f 128/206/44 129/207/44 132/208/44 131/209/44
f 130/210/45 128/206/45 131/209/45 133/211/45
f 134/212/46 135/213/46 138/214/46 137/215/46
f 136/216/47 134/212/47 137/215/47 139/217/47
f 144/218/48 145/219/48 141/220/48 140/221/48
f 148/222/49 149/223/49 147/224/49 146/225/49
f 145/219/50 143/226/50 142/227/50 141/220/50
f 158/228/51 148/222/51 146/225/51 150/229/51
f 161/230/52 160/231/52 152/232/52 151/233/52
f 159/234/52 161/230/52 151/233/52 153/235/52
f 77/236/53 76/237/53 70/238/53 67/239/53
f 70/238/54 18/240/54 154/241/54 67/239/54
f 5/242/1 66/243/1 67/239/1 154/241/1
f 150/229/55 146/225/55 156/244/55 155/245/55
f 146/225/56 147/224/56 157/246/56 156/244/56
f 155/245/57 156/244/57 161/230/57 159/234/57
f 156/244/57 157/246/57 160/231/57 161/230/57
f 164/247/1 162/248/1 167/249/1 165/250/1
f 163/251/1 164/247/1 165/250/1 166/252/1
f 168/253/1 164/247/1 163/251/1 169/254/1
f 170/255/1 162/248/1 164/247/1 168/253/1
f 182/256/58 170/255/58 168/253/58 180/257/58
f 180/257/58 168/253/58 169/254/58 181/258/58
f 166/252/59 165/250/59 171/259/59 172/260/59
f 165/250/59 167/249/59 173/261/59 171/259/59
f 174/262/60 176/263/60 179/264/60 177/265/60
f 175/266/60 174/262/60 177/265/60 178/267/60
f 151/233/61 180/257/61 181/258/61 153/235/61
f 152/232/61 182/256/61 180/257/61 151/233/61
f 23/12/1 188/14/1 189/119/1 24/115/1
f 239/116/1 24/115/1 25/16/1 240/15/1
f 31/113/62 51/31/62 49/34/62
f 208/155/63 69/87/63 75/161/63 212/268/63
f 231/269/64 233/270/64 226/271/64 216/272/64
f 216/272/64 226/271/64 227/273/64 217/274/64
f 217/274/64 227/273/64 228/275/64 218/276/64
f 218/276/65 228/275/65 229/277/65 219/278/65
f 219/278/66 229/277/66 230/80/66 220/101/66
f 233/270/64 232/279/64 221/280/64 226/271/64
f 226/271/64 221/280/64 222/281/64 227/273/64
f 227/273/64 222/281/64 223/282/64 228/275/64
f 228/275/65 223/282/65 224/283/65 229/277/65
f 229/277/66 224/283/66 225/81/66 230/80/66
f 38/65/64 9/64/64 232/279/64 233/270/64
f 6/110/64 38/65/64 233/270/64 231/269/64
f 252/6/1 234/284/1 20/123/1 46/2/1
f 108/185/1 107/91/1 111/190/1 112/189/1
f 27/17/3 192/122/3 259/29/3 258/24/3
f 242/18/3 27/17/3 258/24/3 260/23/3
