# Blender v2.79 (sub 0) OBJ File: 'untitled.blend'
# www.blender.org
mtllib Layout_Loch_Deckel.mtl
o LochDeckelLinks_Cube.015
v -1.342866 4.712008 -188.360153
v 1.408596 4.712008 -188.360153
v 1.408596 4.712008 -191.608841
v -1.342866 4.712008 -191.608841
v 0.000000 4.712008 -187.823318
v 0.000000 4.712008 -192.124466
v -1.540206 5.008595 -191.863663
v -1.540206 5.008595 -188.105331
v 0.000000 5.008595 -187.448593
v 0.000000 5.008595 -192.496094
v 1.613744 5.008595 -188.063614
v 1.613743 5.008595 -191.905380
v -1.346290 5.079496 -188.241516
v -0.963099 5.127666 -188.493011
v -1.155949 5.113557 -188.366776
v 1.419631 5.079496 -188.205261
v 1.036440 5.127666 -188.470917
v 1.229290 5.113557 -188.336884
v 1.036439 5.127666 -191.492554
v 1.419630 5.079496 -191.761887
v 1.229288 5.113557 -191.628418
v -0.963099 5.127666 -191.470352
v -1.346290 5.079496 -191.725662
v -1.155949 5.113557 -191.598526
v 0.004010 5.079496 -187.665741
v 0.007964 5.127666 -188.078949
v 0.006807 5.113557 -187.870987
v 0.007889 5.127666 -191.869064
v 0.003969 5.079496 -192.280106
v 0.006739 5.113557 -192.075943
vt 0.701784 0.505796
vt 0.692055 0.490096
vt 0.692055 0.289931
vt 0.701784 0.274230
vt 0.625848 0.256855
vt 0.625848 0.233766
vt 0.625848 0.544763
vt 0.625848 0.521865
vt 0.556400 0.289931
vt 0.546286 0.271660
vt 0.546286 0.508367
vt 0.556400 0.490096
vt 0.781141 0.531385
vt 0.847714 0.495910
vt 0.857283 0.504299
vt 0.781346 0.544763
vt 0.711347 0.279005
vt 0.711347 0.498143
vt 0.701784 0.506870
vt 0.701784 0.270163
vt 0.828817 0.296969
vt 0.828817 0.480415
vt 0.780941 0.505926
vt 0.780944 0.272403
vt 0.730234 0.481776
vt 0.730234 0.295601
vt 0.847714 0.281238
vt 0.781143 0.247076
vt 0.781346 0.233766
vt 0.857283 0.272733
vt 0.838326 0.488192
vt 0.838326 0.289072
vt 0.780999 0.518740
vt 0.781003 0.259656
vt 0.720727 0.490034
vt 0.720728 0.287229
vn -0.8325 -0.5540 0.0000
vn -0.2563 -0.7423 0.6191
vn -0.2483 -0.7412 -0.6236
vn 0.2302 -0.7631 0.6039
vn 0.2226 -0.7620 -0.6081
vn 0.8224 -0.5689 -0.0000
vn -0.1303 0.9432 0.3056
vn 0.3431 0.9393 -0.0000
vn 0.0000 -1.0000 0.0000
vn 0.0000 1.0000 0.0000
vn 0.1182 0.9433 0.3102
vn -0.1262 0.9432 -0.3073
vn 0.1141 0.9433 -0.3117
vn -0.1762 0.9844 0.0000
vn -0.0730 0.9973 0.0000
vn -0.0692 0.9843 0.1624
vn -0.0288 0.9973 0.0675
vn -0.0671 0.9843 -0.1633
vn -0.0279 0.9973 -0.0679
vn 0.0626 0.9844 0.1642
vn 0.0258 0.9974 0.0678
vn 0.0604 0.9844 -0.1651
vn 0.0249 0.9974 -0.0682
vn 0.1762 0.9844 -0.0000
vn 0.0730 0.9973 -0.0000
vn -0.3434 0.9392 0.0000
usemtl Abdeckung
s off
f 7/1/1 4/2/1 1/3/1 8/4/1
f 5/5/2 9/6/2 8/4/2 1/3/2
f 10/7/3 6/8/3 4/2/3 7/1/3
f 2/9/4 11/10/4 9/6/4 5/5/4
f 12/11/5 3/12/5 6/8/5 10/7/5
f 2/9/6 3/12/6 12/11/6 11/10/6
f 25/13/7 13/14/7 8/15/7 9/16/7
f 20/17/8 16/18/8 11/19/8 12/20/8
f 2/9/9 5/5/9 6/8/9 3/12/9
f 4/2/9 6/8/9 5/5/9 1/3/9
f 22/21/10 14/22/10 26/23/10 28/24/10
f 16/18/11 25/13/11 9/16/11 11/19/11
f 26/23/10 17/25/10 19/26/10 28/24/10
f 23/27/12 29/28/12 10/29/12 7/30/12
f 29/28/13 20/17/13 12/20/13 10/29/13
f 23/27/14 13/14/14 15/31/14 24/32/14
f 24/32/15 15/31/15 14/22/15 22/21/15
f 13/14/16 25/13/16 27/33/16 15/31/16
f 15/31/17 27/33/17 26/23/17 14/22/17
f 29/28/18 23/27/18 24/32/18 30/34/18
f 30/34/19 24/32/19 22/21/19 28/24/19
f 25/13/20 16/18/20 18/35/20 27/33/20
f 27/33/21 18/35/21 17/25/21 26/23/21
f 20/17/22 29/28/22 30/34/22 21/36/22
f 21/36/23 30/34/23 28/24/23 19/26/23
f 16/18/24 20/17/24 21/36/24 18/35/24
f 18/35/25 21/36/25 19/26/25 17/25/25
f 13/14/26 23/27/26 7/30/26 8/15/26
