# Blender v2.79 (sub 0) OBJ File: 'Burg Test.blend'
# www.blender.org
mtllib Layout_Loch_Vorteil.mtl
o LochVorteil_Cube.013
v 3.004370 5.650445 -203.474243
v 2.134809 0.566216 -187.505280
v 2.513636 2.017076 -219.532272
v 3.004370 5.883386 -210.625610
v 2.000000 4.983781 -199.000366
v 2.000000 4.775475 -198.313629
v 2.235338 5.823900 -214.174866
v 2.235338 1.407114 -214.174866
v 2.235338 1.407054 -214.777771
v 2.000000 0.543764 -199.000366
v 3.004370 1.078708 -203.474243
v 2.134809 0.566216 -192.463715
v 2.134809 0.566216 -197.427643
v 3.004370 1.452608 -210.625610
v 2.000000 0.532142 -198.313629
v 2.901243 1.718005 -217.728790
v 1.408596 4.712008 -188.360168
v 1.613744 5.008595 -188.063614
v 1.613743 5.008595 -191.905396
v 1.408596 4.712008 -191.608856
v 1.694109 6.029058 -219.359863
v 1.408596 5.732471 -219.197723
v 1.559492 6.029058 -216.162903
v 1.408596 5.733577 -216.298172
v 1.593387 5.732481 -217.748016
v 1.908175 6.029058 -217.728790
v 2.134809 4.769454 -187.505280
v 1.760891 5.008595 -187.505280
v 2.134809 4.769454 -192.735947
v 1.760891 5.008595 -192.525360
v 2.134809 4.769454 -197.427643
v 2.253224 6.029058 -215.733612
v 2.517927 5.635367 -215.370361
v 2.672021 5.634240 -219.557373
v 2.244466 6.029058 -219.793823
v 2.235338 5.638041 -214.774323
v 2.503331 6.029058 -217.728790
v 2.901243 5.634240 -217.728790
vt 0.405822 0.176820
vt 0.405937 0.192927
vt 0.388608 0.193022
vt 0.388493 0.176915
vt 0.388723 0.209147
vt 0.406052 0.209052
vt 0.402233 0.263477
vt 0.385558 0.265527
vt 0.383918 0.263577
vt 0.748541 0.677110
vt 0.747654 0.682409
vt 0.746165 0.682409
vt 0.747237 0.675700
vt 0.388013 0.212029
vt 0.406213 0.211929
vt 0.385724 0.268288
vt 0.402411 0.268197
vt 0.402556 0.275054
vt 0.385869 0.275146
vt 0.386468 0.214268
vt 0.405370 0.214165
vt 0.384199 0.252097
vt 0.384033 0.228866
vt 0.402348 0.228766
vt 0.402514 0.251997
vt 0.402509 0.281886
vt 0.385822 0.281977
vt 0.965508 0.418298
vt 0.965508 0.405817
vt 0.966117 0.404003
vt 0.966117 0.420313
vt 0.749097 0.687497
vt 0.747200 0.688891
vt 0.749720 0.677641
vt 0.748955 0.682351
vt 0.964661 0.417331
vt 0.964661 0.406776
vt 0.749720 0.687061
vt 0.387622 0.193027
vt 0.387507 0.176920
vt 0.384194 0.281986
vt 0.384240 0.275314
vt 0.384237 0.274995
vt 0.384101 0.268501
vn 1.0000 -0.0000 0.0000
vn 0.0000 1.0000 -0.0000
vn 0.9886 0.0000 -0.1504
vn 0.9811 -0.0200 0.1927
vn 0.9773 0.0000 -0.2118
vn 0.9854 -0.0213 -0.1691
vn 0.9757 0.0000 0.2190
vn -0.6892 0.7190 0.0892
vn -0.8224 0.5689 0.0000
vn -0.7614 0.6341 -0.1349
vn 0.5388 0.8424 0.0000
vn 0.9733 -0.0002 0.2294
vn 0.7016 0.7071 -0.0880
vn 0.7364 0.6681 0.1070
usemtl Texturetest
s off
f 2/1/1 12/2/1 29/3/1 27/4/1
f 31/5/1 29/3/1 12/2/1 13/6/1
f 8/7/1 36/8/1 7/9/1
f 21/10/2 26/11/2 37/12/2 35/13/2
f 6/14/3 31/5/3 13/6/3 15/15/3
f 33/16/4 9/17/4 16/18/4 38/19/4
f 5/20/1 6/14/1 15/15/1 10/21/1
f 4/22/1 1/23/1 11/24/1 14/25/1
f 7/9/5 4/22/5 14/25/5 8/7/5
f 38/19/6 16/18/6 3/26/6 34/27/6
f 1/23/7 5/20/7 10/21/7 11/24/7
f 19/28/2 18/29/2 28/30/2 30/31/2
f 26/11/2 23/32/2 32/33/2 37/12/2
f 26/11/8 21/10/8 22/34/8 25/35/8
f 18/29/9 19/28/9 20/36/9 17/37/9
f 23/32/10 26/11/10 25/35/10 24/38/10
f 27/4/11 29/3/11 30/39/11 28/40/11
f 9/17/12 33/16/12 36/8/12 8/7/12
f 38/19/13 34/27/13 35/41/13 37/42/13
f 33/16/14 38/19/14 37/43/14 32/44/14
