# Blender v2.79 (sub 0) OBJ File: 'Burg Test.blend'
# www.blender.org
mtllib Seil_Kaputt_Kurz.mtl
o Seil_Kaputt_Kurz_Cylinder.001
v 0.902455 4.864293 -129.909424
v 0.176003 5.725612 -129.912994
v 0.226316 5.756001 -129.893906
v 0.257412 5.774782 -129.843903
v 0.257412 5.774782 -129.782104
v 0.226316 5.756001 -129.732101
v 0.176003 5.725612 -129.712997
v 0.125689 5.695224 -129.732101
v 0.094594 5.676442 -129.782104
v 0.094594 5.676442 -129.843903
v 0.125689 5.695224 -129.893906
v 0.090729 5.908944 -129.912994
v 0.090729 6.130144 -129.912994
v 0.090729 6.285796 -129.912994
v 0.090729 6.321622 -129.912994
v 0.090729 6.459658 -129.912994
v 0.149507 6.597101 -129.893906
v 0.149507 6.441449 -129.893906
v 0.149507 6.285797 -129.893906
v 0.149507 6.130145 -129.893906
v 0.149507 5.908944 -129.893906
v 0.185834 6.525948 -129.843903
v 0.185834 6.387800 -129.843903
v 0.185834 6.285797 -129.843903
v 0.185834 6.130145 -129.843903
v 0.185834 5.908944 -129.843903
v 0.185834 6.486716 -129.782104
v 0.185834 6.374983 -129.782104
v 0.185834 6.285797 -129.782104
v 0.185834 6.130145 -129.782104
v 0.185834 5.908944 -129.782104
v 0.149507 6.546553 -129.732101
v 0.149507 6.390901 -129.732101
v 0.149507 6.285797 -129.732101
v 0.149507 6.130145 -129.732101
v 0.149507 5.908944 -129.732101
v 0.090729 6.597101 -129.712997
v 0.090729 6.441449 -129.712997
v 0.090729 6.285797 -129.712997
v 0.090729 6.130145 -129.712997
v 0.090729 5.908944 -129.712997
v 0.031950 6.523442 -129.732101
v 0.031950 6.441449 -129.732101
v 0.031950 6.285797 -129.732101
v 0.031950 6.130145 -129.732101
v 0.031950 5.908944 -129.732101
v -0.004377 6.597101 -129.782104
v -0.004377 6.441449 -129.782104
v -0.004377 6.285797 -129.782104
v -0.004377 6.130145 -129.782104
v -0.004377 5.908944 -129.782104
v -0.004377 6.597101 -129.843903
v -0.004377 6.441449 -129.843903
v -0.004377 6.285797 -129.843903
v -0.004377 6.130145 -129.843903
v -0.004377 5.908944 -129.843903
v 0.031950 6.536109 -129.893906
v 0.031950 6.380457 -129.893906
v 0.031950 6.285797 -129.893906
v 0.031950 6.130145 -129.893906
v 0.031950 5.908944 -129.893906
v 0.393966 5.682446 -129.896439
v 0.425308 5.720165 -129.880493
v 0.444678 5.743476 -129.838776
v 0.444678 5.743476 -129.787216
v 0.425308 5.720165 -129.745499
v 0.393966 5.682446 -129.729568
v 0.362624 5.644728 -129.745499
v 0.343254 5.621417 -129.787216
v 0.343254 5.621417 -129.838776
v 0.362624 5.644729 -129.880493
v 0.635059 5.609354 -129.896439
v 0.666401 5.647072 -129.880493
v 0.685771 5.670384 -129.838776
v 0.685771 5.670384 -129.787216
v 0.666401 5.647072 -129.745499
v 0.635059 5.609354 -129.729568
v 0.603717 5.571636 -129.745499
v 0.584347 5.548324 -129.787216
v 0.584347 5.548324 -129.838776
v 0.603717 5.571636 -129.880493
v 0.818139 5.465017 -129.894318
v 0.856581 5.495468 -129.878387
v 0.880339 5.514287 -129.836670
v 0.880339 5.514287 -129.785110
v 0.856581 5.495468 -129.743393
v 0.818139 5.465017 -129.727448
v 0.779697 5.434567 -129.743393
v 0.755939 5.415747 -129.785110
v 0.755939 5.415747 -129.836670
v 0.779697 5.434567 -129.878387
v 0.960704 5.042390 -129.910797
v 1.009414 5.048071 -129.894867
v 1.039520 5.051583 -129.853149
v 1.039520 5.051583 -129.801590
v 1.009414 5.048071 -129.759872
v 0.960704 5.042390 -129.743927
v 0.911993 5.036709 -129.759872
v 0.881889 5.033197 -129.801590
v 0.881889 5.033197 -129.853149
v 0.911994 5.036709 -129.894867
v 0.773495 4.678374 -129.909821
v 0.809697 4.644856 -129.894836
v 0.832744 4.623968 -129.853699
v 0.833830 4.623689 -129.802155
v 0.812542 4.644125 -129.759857
v 0.777012 4.677472 -129.742996
v 0.740810 4.710990 -129.757996
v 0.717763 4.731877 -129.799118
v 0.716676 4.732156 -129.850662
v 0.737965 4.711720 -129.892960
v 0.385884 4.556129 -129.899628
v 0.399672 4.508750 -129.884659
v 0.409254 4.479118 -129.843552
v 0.410969 4.478552 -129.792023
v 0.404161 4.507269 -129.749741
v 0.391432 4.554299 -129.732864
v 0.377644 4.601678 -129.747818
v 0.368063 4.631310 -129.788925
v 0.366348 4.631876 -129.840454
v 0.373156 4.603158 -129.882736
v -0.040764 4.521068 -129.896439
v -0.037448 4.472140 -129.880493
v -0.035398 4.441900 -129.838776
v -0.035398 4.441900 -129.787216
v -0.037448 4.472140 -129.745499
v -0.040764 4.521068 -129.729568
v -0.044080 4.569996 -129.745499
v -0.046131 4.600236 -129.787216
v -0.046131 4.600236 -129.838776
v -0.044081 4.569996 -129.880493
v -0.408083 4.561501 -129.888031
v -0.435057 4.520545 -129.872086
v -0.451728 4.495232 -129.830383
v -0.451728 4.495232 -129.778809
v -0.435057 4.520545 -129.737091
v -0.408083 4.561501 -129.721161
v -0.381109 4.602456 -129.737091
v -0.364439 4.627769 -129.778809
v -0.364439 4.627769 -129.830383
v -0.381110 4.602456 -129.872086
v -0.607431 4.822512 -129.866409
v -0.649866 4.797930 -129.850464
v -0.676092 4.782737 -129.808746
v -0.676092 4.782737 -129.757187
v -0.649866 4.797930 -129.715469
v -0.607431 4.822512 -129.699539
v -0.564996 4.847093 -129.715469
v -0.538770 4.862287 -129.757187
v -0.538770 4.862287 -129.808746
v -0.564997 4.847093 -129.850464
v -0.651189 5.160062 -129.856445
v -0.699675 5.152707 -129.840500
v -0.729642 5.148161 -129.798782
v -0.729642 5.148161 -129.747223
v -0.699675 5.152707 -129.705505
v -0.651189 5.160062 -129.689575
v -0.602703 5.167416 -129.705505
v -0.572737 5.171962 -129.747223
v -0.572737 5.171962 -129.798782
v -0.602704 5.167416 -129.840500
v -0.534357 5.478303 -129.833054
v -0.578062 5.500549 -129.817108
v -0.605074 5.514297 -129.775391
v -0.605074 5.514297 -129.723831
v -0.578062 5.500549 -129.682114
v -0.534357 5.478303 -129.666183
v -0.490652 5.456058 -129.682114
v -0.463640 5.442310 -129.723831
v -0.463640 5.442310 -129.775391
v -0.490652 5.456058 -129.817108
v -0.214409 5.664653 -129.776306
v -0.243095 5.704429 -129.760361
v -0.260825 5.729011 -129.718643
v -0.260825 5.729011 -129.667084
v -0.243095 5.704429 -129.625366
v -0.214409 5.664653 -129.609436
v -0.185723 5.624878 -129.625366
v -0.167992 5.600296 -129.667084
v -0.167992 5.600296 -129.718643
v -0.185723 5.624878 -129.760361
v 0.114439 5.746533 -129.726196
v 0.098762 5.793001 -129.710251
v 0.089072 5.821720 -129.668533
v 0.089072 5.821720 -129.616974
v 0.098762 5.793001 -129.575256
v 0.114439 5.746533 -129.559326
v 0.130115 5.700066 -129.575256
v 0.139805 5.671347 -129.616974
v 0.139805 5.671347 -129.668533
v 0.130115 5.700067 -129.710251
v 0.904214 4.863842 -129.742584
v 0.972031 4.841547 -129.800980
v 0.946334 4.850008 -129.758987
v 0.834638 4.886587 -129.851028
v 0.860335 4.878125 -129.893036
v 0.944912 4.850374 -129.893967
v 0.971487 4.841686 -129.852539
v 0.861757 4.877760 -129.758041
v 0.835182 4.886447 -129.799469
v 0.929880 5.274744 -129.903732
v 1.000068 5.304747 -129.794510
v 0.859692 5.244741 -129.846069
v 0.886502 5.256202 -129.887787
v 0.973258 5.293286 -129.887787
v 1.000068 5.304747 -129.846069
v 0.886501 5.256202 -129.752792
v 0.859692 5.244741 -129.794510
v 0.973258 5.293286 -129.752792
v 0.929880 5.274744 -129.736862
v 0.171841 5.842337 -129.704468
v 0.222718 5.821676 -129.796494
v 0.201556 5.845757 -129.782761
v 0.196135 5.865923 -129.754822
v 0.208526 5.874473 -129.723358
v 0.233997 5.868139 -129.700378
v 0.262817 5.849341 -129.694687
v 0.283979 5.825260 -129.708420
v 0.289400 5.805094 -129.736359
v 0.277009 5.796545 -129.767822
v 0.251538 5.802879 -129.790787
v 0.207238 5.832720 -129.838669
v 0.196703 5.857050 -129.830429
v 0.203261 5.882352 -129.821075
v 0.224409 5.898962 -129.814163
v 0.252067 5.900534 -129.812347
v 0.275673 5.886468 -129.816315
v 0.286208 5.862138 -129.824554
v 0.279650 5.836837 -129.833908
v 0.258502 5.820227 -129.840820
v 0.230843 5.818655 -129.842636
v 0.259965 5.770461 -129.675110
v 0.182610 5.822120 -129.735199
v 0.206095 5.795898 -129.748596
v 0.225711 5.816899 -129.630981
v 0.249196 5.790677 -129.644379
v 0.177903 5.848826 -129.668121
v 0.198480 5.839110 -129.640060
v 0.253903 5.763971 -129.711456
v 0.233326 5.773688 -129.739517
v 0.130296 5.856096 -129.911148
v 0.129480 5.875351 -129.903366
v 0.135102 5.895078 -129.906708
v 0.145016 5.907743 -129.919861
v 0.155434 5.908506 -129.937820
v 0.162377 5.897078 -129.953735
v 0.163194 5.877822 -129.961502
v 0.157571 5.858095 -129.958176
v 0.147658 5.845431 -129.945023
v 0.137239 5.844667 -129.927048
v 0.011476 5.822542 -129.891983
v 0.018390 5.836450 -129.878174
v 0.026482 5.855477 -129.876099
v 0.032661 5.872355 -129.886520
v 0.034566 5.880638 -129.905487
v 0.031471 5.877161 -129.925735
v 0.024557 5.863252 -129.939545
v 0.016465 5.844224 -129.941635
v 0.010286 5.827346 -129.931198
v 0.008381 5.819065 -129.912247
v -0.008690 5.837998 -129.829346
v 0.001434 5.841657 -129.825821
v 0.007608 5.850917 -129.823730
v 0.007473 5.862242 -129.823837
v 0.001080 5.871305 -129.826141
v -0.009128 5.874647 -129.829727
v -0.019253 5.870987 -129.833252
v -0.025427 5.861727 -129.835358
v -0.025291 5.850402 -129.835236
v -0.018898 5.841339 -129.832947
v 0.174106 5.843482 -129.895172
v 0.188642 5.830554 -129.909714
v 0.169098 5.866747 -129.884384
v 0.229001 5.874348 -129.925613
v 0.209457 5.910542 -129.900284
v 0.223993 5.897615 -129.914825
v 0.175531 5.891465 -129.881470
v 0.190946 5.908193 -129.887543
v 0.222568 5.849631 -129.928528
v 0.207153 5.832902 -129.922455
v 0.066217 5.842051 -129.918228
v 0.085368 5.892362 -129.919525
v 0.069429 5.840956 -129.955658
v 0.065563 5.835565 -129.936798
v 0.071143 5.857935 -129.907074
v 0.078458 5.877152 -129.907562
v 0.083654 5.875382 -129.968124
v 0.076338 5.856165 -129.967621
v 0.089234 5.897753 -129.938400
v 0.088579 5.891267 -129.956955
v 0.018959 5.855061 -129.743774
v 0.014631 5.842382 -129.738113
v 0.021457 5.840734 -129.743729
v 0.027328 5.844558 -129.749359
v 0.030003 5.852394 -129.752853
v 0.028460 5.861248 -129.752884
v 0.023287 5.867739 -129.749435
v 0.016461 5.869387 -129.743820
v 0.010590 5.865563 -129.738190
v 0.007915 5.857726 -129.734695
v 0.009459 5.848873 -129.734665
v 0.090729 6.580176 -129.813004
vn 0.5347 0.7812 -0.3221
vn 0.5347 0.7812 0.3220
vn 0.2293 0.9352 0.2699
vn 0.2293 0.9352 -0.2699
vn -0.3832 -0.5248 -0.7601
vn -0.0056 -0.1307 -0.9914
vn 0.0273 -0.0084 -0.9996
vn -0.1380 -0.6339 -0.7609
vn 0.3418 0.4081 0.8465
vn -0.0056 -0.1307 0.9914
vn 0.0273 -0.0083 0.9996
vn 0.1658 0.6228 0.7646
vn -0.3833 -0.5248 0.7600
vn -0.6252 -0.7269 0.2840
vn -0.2347 -0.9343 0.2682
vn -0.1380 -0.6339 0.7610
vn -0.6252 -0.7269 -0.2840
vn -0.2347 -0.9343 -0.2682
vn 0.3417 0.4080 -0.8466
vn 0.1658 0.6229 -0.7645
vn -0.5999 -0.1290 -0.7896
vn -0.0411 -0.0168 -0.9990
vn -0.5877 0.0000 -0.8090
vn 0.0000 0.0000 -1.0000
vn -0.5878 0.0000 -0.8090
vn -0.2110 0.3960 -0.8936
vn -0.0105 0.1190 -0.9928
vn -0.9363 -0.1858 -0.2980
vn -0.9510 0.0000 -0.3090
vn -0.5439 0.7246 -0.4232
vn -0.9363 -0.1858 0.2980
vn -0.9510 0.0000 0.3090
vn -0.5292 0.7195 0.4496
vn -0.6000 -0.1290 0.7895
vn -0.5878 0.0000 0.8090
vn -0.5723 0.2284 0.7876
vn -0.0412 -0.0168 0.9990
vn 0.0000 0.0000 1.0000
vn -0.0611 0.8181 0.5718
vn 0.5419 0.1276 0.8307
vn 0.5878 0.0000 0.8090
vn 0.7502 0.4467 0.4875
vn 0.9163 0.2364 0.3232
vn 0.9510 0.0000 0.3090
vn 0.9314 0.2261 0.2852
vn 0.9163 0.2364 -0.3232
vn 0.9510 0.0000 -0.3090
vn 0.9260 0.3755 -0.0375
vn 0.5418 0.1276 -0.8307
vn 0.5877 0.0000 -0.8090
vn 0.5878 0.0000 -0.8090
vn 0.2380 0.8347 -0.4967
vn 0.2872 0.5483 -0.7854
vn 0.0143 0.0349 -0.9993
vn -0.2607 -0.5108 -0.8192
vn -0.2670 -0.5067 0.8197
vn 0.0077 0.0413 0.9991
vn 0.2822 0.5533 0.7837
vn 0.4497 0.8441 0.2920
vn -0.4281 -0.8479 -0.3125
vn 0.4516 0.8424 -0.2939
vn -0.4310 -0.8470 0.3112
vn -0.7113 -0.6285 -0.3146
vn -0.7013 -0.6352 0.3235
vn 0.4592 0.4105 -0.7878
vn 0.0193 0.0394 -0.9990
vn -0.4329 -0.3627 -0.8253
vn -0.4133 -0.3841 0.8256
vn 0.0349 0.0096 0.9993
vn 0.4686 0.3870 0.7941
vn 0.7280 0.6152 0.3026
vn 0.7245 0.6236 -0.2935
vn 0.8974 0.3258 -0.2974
vn 0.9044 0.3086 0.2946
vn 0.9563 -0.0728 0.2830
vn 0.9533 -0.0661 -0.2945
vn -0.8946 -0.3130 0.3189
vn -0.9026 -0.2877 -0.3202
vn -0.9443 0.1081 -0.3108
vn -0.9456 0.1005 0.3094
vn 0.0238 0.0437 -0.9987
vn 0.5706 0.2253 -0.7897
vn 0.6201 -0.0470 -0.7831
vn 0.0391 -0.0010 -0.9992
vn -0.5443 -0.1512 -0.8251
vn -0.5721 0.0652 -0.8175
vn 0.0531 -0.0222 0.9983
vn -0.5210 -0.2119 0.8268
vn -0.5688 0.0457 0.8212
vn 0.0509 -0.0244 0.9984
vn 0.5914 0.1777 0.7865
vn 0.6300 -0.0652 0.7738
vn 0.5730 -0.2712 0.7734
vn 0.0353 -0.0175 0.9992
vn 0.0515 -0.0656 0.9965
vn 0.3995 -0.5065 0.7641
vn 0.8652 -0.4057 -0.2947
vn 0.8706 -0.4067 0.2768
vn 0.6034 -0.7498 0.2716
vn 0.5918 -0.7452 -0.3072
vn -0.8412 0.4407 0.3133
vn -0.8479 0.4432 -0.2910
vn -0.5339 0.7870 -0.3092
vn -0.5220 0.7833 0.3375
vn 0.0173 -0.0131 -0.9998
vn 0.5589 -0.2684 -0.7845
vn 0.3680 -0.4936 -0.7880
vn 0.0111 -0.0491 -0.9987
vn -0.5338 0.2687 -0.8017
vn -0.3355 0.4528 -0.8260
vn -0.5177 0.2635 0.8139
vn -0.3031 0.4409 0.8448
vn 0.0223 -0.0297 0.9993
vn 0.1382 -0.6046 0.7844
vn 0.2021 -0.9367 0.2858
vn 0.1907 -0.9329 -0.3054
vn -0.1736 0.9399 -0.2940
vn -0.1627 0.9333 0.3199
vn 0.1084 -0.5939 -0.7972
vn -0.0143 -0.0140 -0.9998
vn -0.1223 0.5821 -0.8038
vn -0.0932 0.5667 0.8186
vn -0.0237 -0.9533 -0.3011
vn -0.0249 -0.6050 -0.7958
vn 0.0124 0.9515 0.3074
vn 0.0188 0.5833 0.8120
vn 0.0124 -0.0259 0.9996
vn -0.0025 -0.6148 0.7887
vn -0.0157 -0.9562 0.2921
vn 0.0021 0.9528 -0.3037
vn -0.0179 -0.0127 -0.9998
vn -0.0074 0.5909 -0.8067
vn 0.2177 0.4740 -0.8532
vn 0.4359 0.8295 -0.3491
vn -0.4834 -0.8222 -0.3004
vn -0.3273 -0.5257 -0.7851
vn 0.4685 0.8145 0.3422
vn 0.2876 0.4293 0.8561
vn 0.0005 -0.0962 0.9953
vn -0.2835 -0.5618 0.7772
vn -0.4682 -0.8341 0.2916
vn -0.0663 -0.0435 -0.9968
vn -0.5524 -0.2666 0.7897
vn -0.8709 -0.3897 0.2994
vn 0.4922 0.2442 -0.8355
vn 0.8764 0.3575 -0.3226
vn -0.8824 -0.3698 -0.2909
vn -0.5893 -0.2120 -0.7795
vn 0.8879 0.3246 0.3259
vn 0.5322 0.1694 0.8295
vn -0.0229 -0.0525 0.9984
vn -0.0764 0.0240 -0.9968
vn 0.5581 -0.1149 0.8217
vn -0.0482 -0.0324 0.9983
vn -0.6228 0.0325 0.7817
vn -0.9546 0.0687 0.2897
vn 0.5595 -0.0224 -0.8285
vn 0.9391 -0.1188 -0.3222
vn -0.9514 0.0906 -0.2941
vn -0.6168 0.0966 -0.7811
vn 0.9373 -0.1569 0.3112
vn -0.0457 0.0638 -0.9969
vn -0.4467 0.4542 -0.7708
vn 0.0141 0.1447 -0.9893
vn 0.4706 -0.2641 -0.8419
vn 0.3554 -0.4446 0.8222
vn -0.1033 -0.0404 0.9938
vn -0.5309 0.3424 0.7751
vn -0.7706 0.5704 0.2843
vn 0.7236 -0.6027 -0.3363
vn -0.7396 0.6056 -0.2936
vn 0.6715 -0.6724 0.3114
vn -0.4182 0.8589 0.2956
vn -0.3498 0.8925 -0.2847
vn 0.3791 -0.8720 -0.3097
vn 0.2865 -0.9115 0.2950
vn -0.1515 0.6271 -0.7640
vn 0.1139 0.1183 -0.9864
vn 0.3260 -0.4746 -0.8176
vn 0.1042 -0.6096 0.7858
vn -0.1274 -0.0636 0.9898
vn -0.3327 0.5082 0.7943
vn 0.1575 0.0508 0.9862
vn -0.0501 0.5936 0.8032
vn -0.2099 0.9221 0.3251
vn -0.2824 0.9199 -0.2718
vn -0.2289 0.5652 -0.7926
vn -0.0193 -0.0331 -0.9992
vn 0.4144 -0.8755 -0.2485
vn 0.4421 -0.8317 0.3358
vn 0.2443 -0.5906 -0.7690
vn 0.3436 -0.4903 0.8010
vn -0.7148 0.1669 -0.6791
vn -0.6025 0.7552 -0.2580
vn -0.8666 0.4919 -0.0830
vn -0.9546 -0.2177 -0.2034
vn 0.7628 -0.0974 0.6392
vn 0.8109 -0.5218 0.2649
vn 0.9380 -0.3466 0.0069
vn 0.9316 0.1602 0.3261
vn 0.1633 0.7618 0.6268
vn 0.5153 0.3691 0.7734
vn 0.6536 0.5979 0.4639
vn 0.2151 0.8853 0.4122
vn -0.2252 0.9429 0.2452
vn -0.3504 0.9158 0.1962
vn 0.5720 -0.7864 -0.2331
vn 0.5478 -0.7688 -0.3298
vn -0.4226 -0.4172 -0.8045
vn -0.6632 -0.7084 -0.2414
vn 0.0795 -0.7612 -0.6436
vn -0.1312 -0.9154 -0.3805
vn 0.9562 0.2302 -0.1808
vn 0.7403 0.6722 -0.0069
vn 0.2971 0.9458 0.1313
vn -0.3116 0.9251 0.2168
vn -0.2390 -0.9648 -0.1101
vn 0.4235 -0.8259 -0.3722
vn -0.8530 0.4592 0.2479
vn -0.9445 -0.2180 0.2459
vn 0.8827 -0.3115 -0.3517
vn -0.6985 -0.7002 0.1477
vn -0.5598 -0.7021 0.4400
vn -0.7066 -0.1693 0.6870
vn -0.2467 -0.1278 0.9606
vn -0.1709 -0.6884 0.7049
vn -0.2359 -0.9714 -0.0255
vn -0.0880 -0.9870 0.1344
vn 0.5779 0.6535 -0.4888
vn 0.7038 0.1614 -0.6918
vn 0.2844 0.1712 -0.9433
vn 0.2068 0.6722 -0.7108
vn -0.2666 0.9250 0.2708
vn 0.2223 0.9641 -0.1451
vn 0.0073 0.9651 -0.2618
vn -0.2203 0.9264 0.3052
vn 0.2201 -0.8495 -0.4795
vn 0.0661 -0.8610 -0.5043
vn -0.6327 0.4730 0.6131
vn -0.3125 0.5087 0.8022
vn 0.5839 -0.3938 -0.7098
vn 0.2241 -0.3979 -0.8896
vn 0.1598 0.3093 0.9374
vn -0.1304 0.8766 0.4631
vn 0.5532 0.5870 0.5910
vn 0.7930 -0.1793 0.5822
vn -0.1521 -0.2698 -0.9508
vn -0.0280 -0.8043 -0.5935
vn -0.5715 -0.6166 -0.5414
vn -0.6530 -0.0191 -0.7571
vn 0.3034 -0.8051 0.5096
vn 0.3276 -0.3878 0.8615
vn 0.6267 -0.6308 0.4576
vn 0.1611 -0.9414 0.2963
vn 0.1693 -0.9855 0.0010
vn -0.3335 -0.9389 -0.0848
vn -0.2097 0.7590 -0.6163
vn -0.1868 0.3186 -0.9293
vn -0.5971 0.5163 -0.6138
vn -0.4414 0.8419 -0.3105
vn -0.2244 0.9659 -0.1288
vn -0.1064 0.9873 0.1177
vn -0.1387 0.9893 -0.0444
vn 0.5420 0.8401 0.0200
vn 0.9754 0.2180 0.0324
vn 0.9168 -0.3987 0.0210
vn -0.9917 -0.1278 -0.0126
vn -0.9276 0.3673 -0.0673
vn 0.5489 -0.8284 0.1113
vn -0.1033 -0.9734 0.2046
vn -0.7376 -0.6649 0.1174
vn -0.6424 0.7628 -0.0738
vn -0.2689 0.4498 0.8516
vn 0.0499 0.7547 0.6541
vn 0.4988 0.7556 0.4245
vn 0.8417 0.4743 0.2579
vn 0.9760 0.0907 0.1982
vn 0.9218 -0.2989 0.2467
vn -0.3417 -0.0047 0.9398
vn 0.6624 -0.6230 0.4160
vn 0.2345 -0.7027 0.6717
vn -0.1592 -0.4509 0.8782
vn 0.6471 0.1153 0.7536
vn 0.2207 0.9699 -0.1027
usemtl None
s 1
f 4//1 5//2 65//3 64//4
f 11//5 2//6 62//7 71//8
f 6//9 7//10 67//11 66//12
f 8//13 9//14 69//15 68//16
f 10//17 11//5 71//8 70//18
f 3//19 4//1 64//4 63//20
f 2//6 3//19 63//20 62//7
f 5//2 6//9 66//12 65//3
f 7//10 8//13 68//16 67//11
f 9//14 10//17 70//18 69//15
f 11//5 61//21 12//22 2//6
f 61//21 60//23 13//24 12//22
f 60//23 59//25 14//24 13//24
f 59//25 58//25 15//24 14//24
f 58//25 57//26 16//27 15//24
f 10//17 56//28 61//21 11//5
f 56//28 55//29 60//23 61//21
f 55//29 54//29 59//25 60//23
f 54//29 53//29 58//25 59//25
f 53//29 52//30 57//26 58//25
f 9//14 51//31 56//28 10//17
f 51//31 50//32 55//29 56//28
f 50//32 49//32 54//29 55//29
f 49//32 48//32 53//29 54//29
f 48//32 47//33 52//30 53//29
f 8//13 46//34 51//31 9//14
f 46//34 45//35 50//32 51//31
f 45//35 44//35 49//32 50//32
f 44//35 43//35 48//32 49//32
f 43//35 42//36 47//33 48//32
f 7//10 41//37 46//34 8//13
f 41//37 40//38 45//35 46//34
f 40//38 39//38 44//35 45//35
f 39//38 38//38 43//35 44//35
f 38//38 37//39 42//36 43//35
f 6//9 36//40 41//37 7//10
f 36//40 35//41 40//38 41//37
f 35//41 34//41 39//38 40//38
f 34//41 33//41 38//38 39//38
f 33//41 32//42 37//39 38//38
f 5//2 31//43 36//40 6//9
f 31//43 30//44 35//41 36//40
f 30//44 29//44 34//41 35//41
f 29//44 28//44 33//41 34//41
f 28//44 27//45 32//42 33//41
f 4//1 26//46 31//43 5//2
f 26//46 25//47 30//44 31//43
f 25//47 24//47 29//44 30//44
f 24//47 23//47 28//44 29//44
f 23//47 22//48 27//45 28//44
f 3//19 21//49 26//46 4//1
f 21//49 20//50 25//47 26//46
f 20//50 19//51 24//47 25//47
f 19//51 18//50 23//47 24//47
f 18//50 17//52 22//48 23//47
f 2//6 12//22 21//49 3//19
f 12//22 13//24 20//50 21//49
f 13//24 14//24 19//51 20//50
f 14//24 15//24 18//50 19//51
f 15//24 16//27 17//52 18//50
f 62//7 63//20 73//53 72//54
f 71//8 62//7 72//54 81//55
f 67//11 68//16 78//56 77//57
f 65//3 66//12 76//58 75//59
f 70//18 71//8 81//55 80//60
f 63//20 64//4 74//61 73//53
f 68//16 69//15 79//62 78//56
f 66//12 67//11 77//57 76//58
f 64//4 65//3 75//59 74//61
f 69//15 70//18 80//60 79//62
f 79//62 80//60 90//63 89//64
f 72//54 73//53 83//65 82//66
f 81//55 72//54 82//66 91//67
f 77//57 78//56 88//68 87//69
f 75//59 76//58 86//70 85//71
f 80//60 81//55 91//67 90//63
f 73//53 74//61 84//72 83//65
f 78//56 79//62 89//64 88//68
f 76//58 77//57 87//69 86//70
f 74//61 75//59 85//71 84//72
f 206//73 202//74 95//75 94//76
f 208//77 203//78 100//79 99//80
f 201//81 205//82 93//83 92//84
f 204//85 201//81 92//84 101//86
f 210//87 207//88 98//89 97//90
f 202//74 209//91 96//92 95//75
f 203//78 204//85 101//86 100//79
f 205//82 206//73 94//76 93//83
f 207//88 208//77 99//80 98//89
f 209//91 210//87 97//90 96//92
f 194//93 192//94 107//95 106//96
f 198//97 193//98 105//99 104//100
f 200//101 195//102 110//103 109//104
f 1//105 197//106 103//107 102//108
f 196//109 1//105 102//108 111//110
f 192//94 199//111 108//112 107//95
f 193//98 194//93 106//96 105//99
f 195//102 196//109 111//110 110//103
f 197//106 198//97 104//100 103//107
f 199//111 200//101 109//104 108//112
f 106//96 107//95 117//113 116//114
f 104//100 105//99 115//115 114//116
f 109//104 110//103 120//117 119//118
f 102//108 103//107 113//119 112//120
f 111//110 102//108 112//120 121//121
f 107//95 108//112 118//122 117//113
f 105//99 106//96 116//114 115//115
f 110//103 111//110 121//121 120//117
f 103//107 104//100 114//116 113//119
f 108//112 109//104 119//118 118//122
f 113//119 114//116 124//123 123//124
f 118//122 119//118 129//125 128//126
f 116//114 117//113 127//127 126//128
f 114//116 115//115 125//129 124//123
f 119//118 120//117 130//130 129//125
f 112//120 113//119 123//124 122//131
f 121//121 112//120 122//131 131//132
f 117//113 118//122 128//126 127//127
f 115//115 116//114 126//128 125//129
f 120//117 121//121 131//132 130//130
f 130//130 131//132 141//133 140//134
f 123//124 124//123 134//135 133//136
f 128//126 129//125 139//137 138//138
f 126//128 127//127 137//139 136//140
f 124//123 125//129 135//141 134//135
f 129//125 130//130 140//134 139//137
f 122//131 123//124 133//136 132//142
f 131//132 122//131 132//142 141//133
f 127//127 128//126 138//138 137//139
f 125//129 126//128 136//140 135//141
f 135//141 136//140 146//143 145//144
f 140//134 141//133 151//145 150//146
f 133//136 134//135 144//147 143//148
f 138//138 139//137 149//149 148//150
f 136//140 137//139 147//151 146//143
f 134//135 135//141 145//144 144//147
f 139//137 140//134 150//146 149//149
f 132//142 133//136 143//148 142//152
f 141//133 132//142 142//152 151//145
f 137//139 138//138 148//150 147//151
f 147//151 148//150 158//153 157//154
f 145//144 146//143 156//155 155//156
f 150//146 151//145 161//157 160//158
f 143//148 144//147 154//159 153//160
f 148//150 149//149 159//161 158//153
f 146//143 147//151 157//154 156//155
f 144//147 145//144 155//156 154//159
f 149//149 150//146 160//158 159//161
f 142//152 143//148 153//160 152//162
f 151//145 142//152 152//162 161//157
f 152//162 153//160 163//163 162//164
f 161//157 152//162 162//164 171//165
f 157//154 158//153 168//166 167//167
f 155//156 156//155 166//168 165//169
f 160//158 161//157 171//165 170//170
f 153//160 154//159 164//171 163//163
f 158//153 159//161 169//172 168//166
f 156//155 157//154 167//167 166//168
f 154//159 155//156 165//169 164//171
f 159//161 160//158 170//170 169//172
f 164//171 165//169 175//173 174//174
f 169//172 170//170 180//175 179//176
f 162//164 163//163 173//177 172//178
f 171//165 162//164 172//178 181//179
f 167//167 168//166 178//180 177//181
f 165//169 166//168 176//182 175//173
f 170//170 171//165 181//179 180//175
f 163//163 164//171 174//174 173//177
f 168//166 169//172 179//176 178//180
f 166//168 167//167 177//181 176//182
f 176//182 177//181 187//183 186//184
f 174//174 175//173 185//185 184//186
f 172//178 173//177 183//187 182//188
f 179//176 180//175 190//189 189//190
f 181//179 172//178 182//188 191//191
f 177//181 178//180 188//192 187//183
f 175//173 176//182 186//184 185//185
f 173//177 174//174 184//186 183//187
f 180//175 181//179 191//191 190//189
f 178//180 179//176 189//190 188//192
f 233//193 211//194 214//195 213//196
f 236//197 232//198 219//199 218//200
f 238//201 235//202 217//203 216//204
f 211//194 237//205 215//206 214//195
f 232//198 239//207 220//208 219//199
f 234//209 233//193 213//196 212//210
f 240//211 234//209 212//210 221//212
f 235//202 236//197 218//200 217//203
f 237//205 238//201 216//204 215//206
f 239//207 240//211 221//212 220//208
f 98//89 99//80 200//101 199//111
f 93//83 94//76 198//97 197//106
f 100//79 101//86 196//109 195//102
f 95//75 96//92 194//93 193//98
f 97//90 98//89 199//111 192//94
f 101//86 92//84 1//105 196//109
f 92//84 93//83 197//106 1//105
f 99//80 100//79 195//102 200//101
f 94//76 95//75 193//98 198//97
f 96//92 97//90 192//94 194//93
f 86//70 87//69 210//87 209//91
f 88//68 89//64 208//77 207//88
f 83//65 84//72 206//73 205//82
f 90//63 91//67 204//85 203//78
f 85//71 86//70 209//91 202//74
f 87//69 88//68 207//88 210//87
f 91//67 82//66 201//81 204//85
f 82//66 83//65 205//82 201//81
f 89//64 90//63 203//78 208//77
f 84//72 85//71 202//74 206//73
f 217//203 218//200 228//213 227//214
f 215//206 216//204 226//215 225//216
f 220//208 221//212 231//217 230//218
f 213//196 214//195 224//219 223//220
f 218//200 219//199 229//221 228//213
f 216//204 217//203 227//214 226//215
f 214//195 215//206 225//216 224//219
f 219//199 220//208 230//218 229//221
f 212//210 213//196 223//220 222//222
f 221//212 212//210 222//222 231//217
f 271//223 273//224 242//225 241//226
f 272//227 271//223 241//226 250//228
f 276//229 274//230 247//231 246//232
f 278//233 275//234 245//235 244//236
f 280//237 272//227 250//228 249//238
f 273//224 277//239 243//240 242//225
f 274//230 279//241 248//242 247//231
f 275//234 276//229 246//232 245//235
f 277//239 278//233 244//236 243//240
f 279//241 280//237 249//238 248//242
f 190//189 191//191 240//211 239//207
f 185//185 186//184 238//201 237//205
f 187//183 188//192 236//197 235//202
f 191//191 182//188 234//209 240//211
f 182//188 183//187 233//193 234//209
f 189//190 190//189 239//207 232//198
f 184//186 185//185 237//205 211//194
f 186//184 187//183 235//202 238//201
f 188//192 189//190 232//198 236//197
f 183//187 184//186 211//194 233//193
f 286//243 282//244 254//245 253//246
f 288//247 283//248 259//249 258//250
f 281//251 285//252 252//253 251//254
f 284//255 281//251 251//254 260//256
f 290//257 287//258 257//259 256//260
f 282//244 289//261 255//262 254//245
f 283//248 284//255 260//256 259//249
f 285//252 286//243 253//246 252//253
f 287//258 288//247 258//250 257//259
f 289//261 290//257 256//260 255//262
f 255//262 256//260 266//263 265//264
f 253//246 254//245 264//265 263//266
f 258//250 259//249 269//267 268//268
f 251//254 252//253 262//269 261//270
f 260//256 251//254 261//270 270//271
f 256//260 257//259 267//272 266//263
f 254//245 255//262 265//264 264//265
f 259//249 260//256 270//271 269//267
f 252//253 253//246 263//266 262//269
f 257//259 258//250 268//268 267//272
f 267//272 268//268 299//273 298//274
f 265//264 266//263 297//275 296//276
f 263//266 264//265 295//277 294//278
f 268//268 269//267 300//279 299//273
f 261//270 262//269 293//280 292//281
f 270//271 261//270 292//281 301//282
f 266//263 267//272 298//274 297//275
f 264//265 265//264 296//276 295//277
f 269//267 270//271 301//282 300//279
f 262//269 263//266 294//278 293//280
f 229//221 230//218 280//237 279//241
f 224//219 225//216 278//233 277//239
f 226//215 227//214 276//229 275//234
f 228//213 229//221 279//241 274//230
f 223//220 224//219 277//239 273//224
f 230//218 231//217 272//227 280//237
f 225//216 226//215 275//234 278//233
f 227//214 228//213 274//230 276//229
f 231//217 222//222 271//223 272//227
f 222//222 223//220 273//224 271//223
f 245//235 246//232 290//257 289//261
f 247//231 248//242 288//247 287//258
f 242//225 243//240 286//243 285//252
f 249//238 250//228 284//255 283//248
f 244//236 245//235 289//261 282//244
f 246//232 247//231 287//258 290//257
f 250//228 241//226 281//251 284//255
f 241//226 242//225 285//252 281//251
f 248//242 249//238 283//248 288//247
f 243//240 244//236 282//244 286//243
f 291//283 292//281 293//280
f 291//283 293//280 294//278
f 291//283 294//278 295//277
f 291//283 295//277 296//276
f 291//283 296//276 297//275
f 291//283 297//275 298//274
f 291//283 298//274 299//273
f 291//283 299//273 300//279
f 291//283 300//279 301//282
f 291//283 301//282 292//281
f 52//30 302//284 57//26
f 16//27 57//26 302//284
f 17//52 16//27 302//284
f 22//48 17//52 302//284
f 52//30 47//33 302//284
f 47//33 42//36 302//284
f 42//36 37//39 302//284
f 37//39 32//42 302//284
f 32//42 27//45 302//284
f 27//45 22//48 302//284
