# Blender v2.79 (sub 0) OBJ File: 'Burg Test.blend'
# www.blender.org
mtllib Seil_Kaputt_Lang.mtl
o Seil_Kaputt_Lang_Cylinder.005
v 0.090729 16.558840 -129.813004
v 0.090729 16.558840 -129.913010
v 0.149507 16.558840 -129.893906
v 0.185834 16.558840 -129.843903
v 0.185834 16.558840 -129.782104
v 0.149507 16.558840 -129.732101
v 0.090729 16.558840 -129.712997
v 0.031950 16.558840 -129.732101
v -0.004377 16.558840 -129.782104
v -0.004377 16.558840 -129.843903
v 0.031950 16.558840 -129.893906
v 0.090729 6.597101 -129.913010
v 0.090729 6.752753 -129.913010
v 0.090729 6.908405 -129.913010
v 0.090729 7.064057 -129.913010
v 0.090729 7.219709 -129.913010
v 0.090729 7.375361 -129.913010
v 0.090729 7.531013 -129.913010
v 0.090729 7.686666 -129.913010
v 0.090729 7.842318 -129.913010
v 0.090729 7.997971 -129.913010
v 0.090729 8.153623 -129.913010
v 0.090729 8.309275 -129.913010
v 0.090729 8.464927 -129.913010
v 0.090729 8.620579 -129.913010
v 0.090729 8.776232 -129.913010
v 0.090729 8.931884 -129.913010
v 0.090729 9.087536 -129.913010
v 0.090729 9.243188 -129.913010
v 0.090729 9.398840 -129.913010
v 0.090729 9.554492 -129.913010
v 0.090729 9.710144 -129.913010
v 0.090729 9.865797 -129.913010
v 0.090729 10.021449 -129.913010
v 0.090729 10.177101 -129.913010
v 0.090729 10.332753 -129.913010
v 0.090729 10.488405 -129.913010
v 0.090729 10.644057 -129.913010
v 0.090729 10.799709 -129.913010
v 0.090729 10.955361 -129.913010
v 0.090729 11.111013 -129.913010
v 0.090729 11.266666 -129.913010
v 0.090729 11.422318 -129.913010
v 0.090729 11.577971 -129.913010
v 0.090729 11.733623 -129.913010
v 0.090729 11.889275 -129.913010
v 0.090729 12.044927 -129.913010
v 0.090729 12.200579 -129.913010
v 0.090729 12.356232 -129.913010
v 0.090729 12.511884 -129.913010
v 0.090729 12.667536 -129.913010
v 0.090729 12.823188 -129.913010
v 0.090729 12.978840 -129.913010
v 0.090729 13.134492 -129.913010
v 0.090729 13.290144 -129.913010
v 0.090729 13.445797 -129.913010
v 0.090729 13.601449 -129.913010
v 0.090729 13.757101 -129.913010
v 0.090729 13.912753 -129.913010
v 0.090729 14.068405 -129.913010
v 0.090729 14.224057 -129.913010
v 0.090729 14.379709 -129.913010
v 0.090729 14.535362 -129.913010
v 0.090729 14.691014 -129.913010
v 0.090729 14.846666 -129.913010
v 0.090729 15.002318 -129.913010
v 0.090729 15.157970 -129.913010
v 0.090729 15.313622 -129.913010
v 0.090729 15.469275 -129.913010
v 0.090729 15.624928 -129.913010
v 0.090729 15.780579 -129.913010
v 0.090729 15.936232 -129.913010
v 0.090729 16.091883 -129.913010
v 0.090729 16.247536 -129.913010
v 0.090729 16.403189 -129.913010
v 0.149507 16.403189 -129.893906
v 0.149507 16.247536 -129.893906
v 0.149507 16.091885 -129.893906
v 0.149507 15.936232 -129.893906
v 0.149507 15.780581 -129.893906
v 0.149507 15.624928 -129.893906
v 0.149507 15.469275 -129.893906
v 0.149507 15.313623 -129.893906
v 0.149507 15.157971 -129.893906
v 0.149507 15.002319 -129.893906
v 0.149507 14.846666 -129.893906
v 0.149507 14.691014 -129.893906
v 0.149507 14.535362 -129.893906
v 0.149507 14.379710 -129.893906
v 0.149507 14.224058 -129.893906
v 0.149507 14.068405 -129.893906
v 0.149507 13.912753 -129.893906
v 0.149507 13.757101 -129.893906
v 0.149507 13.601449 -129.893906
v 0.149507 13.445797 -129.893906
v 0.149507 13.290145 -129.893906
v 0.149507 13.134493 -129.893906
v 0.149507 12.978841 -129.893906
v 0.149507 12.823189 -129.893906
v 0.149507 12.667536 -129.893906
v 0.149507 12.511884 -129.893906
v 0.149507 12.356232 -129.893906
v 0.149507 12.200580 -129.893906
v 0.149507 12.044928 -129.893906
v 0.149507 11.889276 -129.893906
v 0.149507 11.733624 -129.893906
v 0.149507 11.577971 -129.893906
v 0.149507 11.422318 -129.893906
v 0.149507 11.266666 -129.893906
v 0.149507 11.111014 -129.893906
v 0.149507 10.955362 -129.893906
v 0.149507 10.799710 -129.893906
v 0.149507 10.644058 -129.893906
v 0.149507 10.488405 -129.893906
v 0.149507 10.332753 -129.893906
v 0.149507 10.177101 -129.893906
v 0.149507 10.021449 -129.893906
v 0.149507 9.865797 -129.893906
v 0.149507 9.710145 -129.893906
v 0.149507 9.554493 -129.893906
v 0.149507 9.398840 -129.893906
v 0.149507 9.243189 -129.893906
v 0.149507 9.087536 -129.893906
v 0.149507 8.931884 -129.893906
v 0.149507 8.776232 -129.893906
v 0.149507 8.620580 -129.893906
v 0.149507 8.464928 -129.893906
v 0.149507 8.309275 -129.893906
v 0.149507 8.153623 -129.893906
v 0.149507 7.997971 -129.893906
v 0.149507 7.842319 -129.893906
v 0.149507 7.686666 -129.893906
v 0.149507 7.531014 -129.893906
v 0.149507 7.375362 -129.893906
v 0.149507 7.219710 -129.893906
v 0.149507 7.064058 -129.893906
v 0.149507 6.908406 -129.893906
v 0.149507 6.752754 -129.893906
v 0.149507 6.597102 -129.893906
v 0.185834 16.403189 -129.843903
v 0.185834 16.247536 -129.843903
v 0.185834 16.091885 -129.843903
v 0.185834 15.936232 -129.843903
v 0.185834 15.780581 -129.843903
v 0.185834 15.624928 -129.843903
v 0.185834 15.469275 -129.843903
v 0.185834 15.313623 -129.843903
v 0.185834 15.157971 -129.843903
v 0.185834 15.002319 -129.843903
v 0.185834 14.846666 -129.843903
v 0.185834 14.691014 -129.843903
v 0.185834 14.535362 -129.843903
v 0.185834 14.379710 -129.843903
v 0.185834 14.224058 -129.843903
v 0.185834 14.068405 -129.843903
v 0.185834 13.912753 -129.843903
v 0.185834 13.757101 -129.843903
v 0.185834 13.601449 -129.843903
v 0.185834 13.445797 -129.843903
v 0.185834 13.290145 -129.843903
v 0.185834 13.134493 -129.843903
v 0.185834 12.978841 -129.843903
v 0.185834 12.823189 -129.843903
v 0.185834 12.667536 -129.843903
v 0.185834 12.511884 -129.843903
v 0.185834 12.356232 -129.843903
v 0.185834 12.200580 -129.843903
v 0.185834 12.044928 -129.843903
v 0.185834 11.889276 -129.843903
v 0.185834 11.733624 -129.843903
v 0.185834 11.577971 -129.843903
v 0.185834 11.422318 -129.843903
v 0.185834 11.266666 -129.843903
v 0.185834 11.111014 -129.843903
v 0.185834 10.955362 -129.843903
v 0.185834 10.799710 -129.843903
v 0.185834 10.644058 -129.843903
v 0.185834 10.488405 -129.843903
v 0.185834 10.332753 -129.843903
v 0.185834 10.177101 -129.843903
v 0.185834 10.021449 -129.843903
v 0.185834 9.865797 -129.843903
v 0.185834 9.710145 -129.843903
v 0.185834 9.554493 -129.843903
v 0.185834 9.398840 -129.843903
v 0.185834 9.243189 -129.843903
v 0.185834 9.087536 -129.843903
v 0.185834 8.931884 -129.843903
v 0.185834 8.776232 -129.843903
v 0.185834 8.620580 -129.843903
v 0.185834 8.464928 -129.843903
v 0.185834 8.309275 -129.843903
v 0.185834 8.153623 -129.843903
v 0.185834 7.997971 -129.843903
v 0.185834 7.842319 -129.843903
v 0.185834 7.686666 -129.843903
v 0.185834 7.531014 -129.843903
v 0.185834 7.375362 -129.843903
v 0.185834 7.219710 -129.843903
v 0.185834 7.064058 -129.843903
v 0.185834 6.908406 -129.843903
v 0.185834 6.829278 -129.843903
v 0.185834 6.765728 -129.843903
v 0.185834 16.403189 -129.782104
v 0.185834 16.247536 -129.782104
v 0.185834 16.091885 -129.782104
v 0.185834 15.936232 -129.782104
v 0.185834 15.780581 -129.782104
v 0.185834 15.624928 -129.782104
v 0.185834 15.469275 -129.782104
v 0.185834 15.313623 -129.782104
v 0.185834 15.157971 -129.782104
v 0.185834 15.002319 -129.782104
v 0.185834 14.846666 -129.782104
v 0.185834 14.691014 -129.782104
v 0.185834 14.535362 -129.782104
v 0.185834 14.379710 -129.782104
v 0.185834 14.224058 -129.782104
v 0.185834 14.068405 -129.782104
v 0.185834 13.912753 -129.782104
v 0.185834 13.757101 -129.782104
v 0.185834 13.601449 -129.782104
v 0.185834 13.445797 -129.782104
v 0.185834 13.290145 -129.782104
v 0.185834 13.134493 -129.782104
v 0.185834 12.978841 -129.782104
v 0.185834 12.823189 -129.782104
v 0.185834 12.667536 -129.782104
v 0.185834 12.511884 -129.782104
v 0.185834 12.356232 -129.782104
v 0.185834 12.200580 -129.782104
v 0.185834 12.044928 -129.782104
v 0.185834 11.889276 -129.782104
v 0.185834 11.733624 -129.782104
v 0.185834 11.577971 -129.782104
v 0.185834 11.422318 -129.782104
v 0.185834 11.266666 -129.782104
v 0.185834 11.111014 -129.782104
v 0.185834 10.955362 -129.782104
v 0.185834 10.799710 -129.782104
v 0.185834 10.644058 -129.782104
v 0.185834 10.488405 -129.782104
v 0.185834 10.332753 -129.782104
v 0.185834 10.177101 -129.782104
v 0.185834 10.021449 -129.782104
v 0.185834 9.865797 -129.782104
v 0.185834 9.710145 -129.782104
v 0.185834 9.554493 -129.782104
v 0.185834 9.398840 -129.782104
v 0.185834 9.243189 -129.782104
v 0.185834 9.087536 -129.782104
v 0.185834 8.931884 -129.782104
v 0.185834 8.776232 -129.782104
v 0.185834 8.620580 -129.782104
v 0.185834 8.464928 -129.782104
v 0.185834 8.309275 -129.782104
v 0.185834 8.153623 -129.782104
v 0.185834 7.997971 -129.782104
v 0.185834 7.842319 -129.782104
v 0.185834 7.686666 -129.782104
v 0.185834 7.531014 -129.782104
v 0.185834 7.375362 -129.782104
v 0.185834 7.219710 -129.782104
v 0.185834 7.064058 -129.782104
v 0.185834 6.908406 -129.782104
v 0.185834 6.752754 -129.782104
v 0.185834 6.629293 -129.782104
v 0.149507 16.403189 -129.732101
v 0.149507 16.247536 -129.732101
v 0.149507 16.091885 -129.732101
v 0.149507 15.936232 -129.732101
v 0.149507 15.780581 -129.732101
v 0.149507 15.624928 -129.732101
v 0.149507 15.469275 -129.732101
v 0.149507 15.313623 -129.732101
v 0.149507 15.157971 -129.732101
v 0.149507 15.002319 -129.732101
v 0.149507 14.846666 -129.732101
v 0.149507 14.691014 -129.732101
v 0.149507 14.535362 -129.732101
v 0.149507 14.379710 -129.732101
v 0.149507 14.224058 -129.732101
v 0.149507 14.068405 -129.732101
v 0.149507 13.912753 -129.732101
v 0.149507 13.757101 -129.732101
v 0.149507 13.601449 -129.732101
v 0.149507 13.445797 -129.732101
v 0.149507 13.290145 -129.732101
v 0.149507 13.134493 -129.732101
v 0.149507 12.978841 -129.732101
v 0.149507 12.823189 -129.732101
v 0.149507 12.667536 -129.732101
v 0.149507 12.511884 -129.732101
v 0.149507 12.356232 -129.732101
v 0.149507 12.200580 -129.732101
v 0.149507 12.044928 -129.732101
v 0.149507 11.889276 -129.732101
v 0.149507 11.733624 -129.732101
v 0.149507 11.577971 -129.732101
v 0.149507 11.422318 -129.732101
v 0.149507 11.266666 -129.732101
v 0.149507 11.111014 -129.732101
v 0.149507 10.955362 -129.732101
v 0.149507 10.799710 -129.732101
v 0.149507 10.644058 -129.732101
v 0.149507 10.488405 -129.732101
v 0.149507 10.332753 -129.732101
v 0.149507 10.177101 -129.732101
v 0.149507 10.021449 -129.732101
v 0.149507 9.865797 -129.732101
v 0.149507 9.710145 -129.732101
v 0.149507 9.554493 -129.732101
v 0.149507 9.398840 -129.732101
v 0.149507 9.243189 -129.732101
v 0.149507 9.087536 -129.732101
v 0.149507 8.931884 -129.732101
v 0.149507 8.776232 -129.732101
v 0.149507 8.620580 -129.732101
v 0.149507 8.464928 -129.732101
v 0.149507 8.309275 -129.732101
v 0.149507 8.153623 -129.732101
v 0.149507 7.997971 -129.732101
v 0.149507 7.842319 -129.732101
v 0.149507 7.686666 -129.732101
v 0.149507 7.531014 -129.732101
v 0.149507 7.375362 -129.732101
v 0.149507 7.219710 -129.732101
v 0.149507 7.064058 -129.732101
v 0.149507 6.908406 -129.732101
v 0.149507 6.752754 -129.732101
v 0.149507 6.597102 -129.732101
v 0.090729 16.403189 -129.712997
v 0.090729 16.247536 -129.712997
v 0.090729 16.091885 -129.712997
v 0.090729 15.936232 -129.712997
v 0.090729 15.780581 -129.712997
v 0.090729 15.624928 -129.712997
v 0.090729 15.469275 -129.712997
v 0.090729 15.313623 -129.712997
v 0.090729 15.157971 -129.712997
v 0.090729 15.002319 -129.712997
v 0.090729 14.846666 -129.712997
v 0.090729 14.691014 -129.712997
v 0.090729 14.535362 -129.712997
v 0.090729 14.379710 -129.712997
v 0.090729 14.224058 -129.712997
v 0.090729 14.068405 -129.712997
v 0.090729 13.912753 -129.712997
v 0.090729 13.757101 -129.712997
v 0.090729 13.601449 -129.712997
v 0.090729 13.445797 -129.712997
v 0.090729 13.290145 -129.712997
v 0.090729 13.134493 -129.712997
v 0.090729 12.978841 -129.712997
v 0.090729 12.823189 -129.712997
v 0.090729 12.667536 -129.712997
v 0.090729 12.511884 -129.712997
v 0.090729 12.356232 -129.712997
v 0.090729 12.200580 -129.712997
v 0.090729 12.044928 -129.712997
v 0.090729 11.889276 -129.712997
v 0.090729 11.733624 -129.712997
v 0.090729 11.577971 -129.712997
v 0.090729 11.422318 -129.712997
v 0.090729 11.266666 -129.712997
v 0.090729 11.111014 -129.712997
v 0.090729 10.955362 -129.712997
v 0.090729 10.799710 -129.712997
v 0.090729 10.644058 -129.712997
v 0.090729 10.488405 -129.712997
v 0.090729 10.332753 -129.712997
v 0.090729 10.177101 -129.712997
v 0.090729 10.021449 -129.712997
v 0.090729 9.865797 -129.712997
v 0.090729 9.710145 -129.712997
v 0.090729 9.554493 -129.712997
v 0.090729 9.398840 -129.712997
v 0.090729 9.243189 -129.712997
v 0.090729 9.087536 -129.712997
v 0.090729 8.931884 -129.712997
v 0.090729 8.776232 -129.712997
v 0.090729 8.620580 -129.712997
v 0.090729 8.464928 -129.712997
v 0.090729 8.309275 -129.712997
v 0.090729 8.153623 -129.712997
v 0.090729 7.997971 -129.712997
v 0.090729 7.842319 -129.712997
v 0.090729 7.686666 -129.712997
v 0.090729 7.531014 -129.712997
v 0.090729 7.375362 -129.712997
v 0.090729 7.219710 -129.712997
v 0.090729 7.064058 -129.712997
v 0.090729 6.908406 -129.712997
v 0.090729 6.752754 -129.712997
v 0.090729 6.695904 -129.712997
v 0.031950 16.403189 -129.732101
v 0.031950 16.247536 -129.732101
v 0.031950 16.091885 -129.732101
v 0.031950 15.936232 -129.732101
v 0.031950 15.780581 -129.732101
v 0.031950 15.624928 -129.732101
v 0.031950 15.469275 -129.732101
v 0.031950 15.313623 -129.732101
v 0.031950 15.157971 -129.732101
v 0.031950 15.002319 -129.732101
v 0.031950 14.846666 -129.732101
v 0.031950 14.691014 -129.732101
v 0.031950 14.535362 -129.732101
v 0.031950 14.379710 -129.732101
v 0.031950 14.224058 -129.732101
v 0.031950 14.068405 -129.732101
v 0.031950 13.912753 -129.732101
v 0.031950 13.757101 -129.732101
v 0.031950 13.601449 -129.732101
v 0.031950 13.445797 -129.732101
v 0.031950 13.290145 -129.732101
v 0.031950 13.134493 -129.732101
v 0.031950 12.978841 -129.732101
v 0.031950 12.823189 -129.732101
v 0.031950 12.667536 -129.732101
v 0.031950 12.511884 -129.732101
v 0.031950 12.356232 -129.732101
v 0.031950 12.200580 -129.732101
v 0.031950 12.044928 -129.732101
v 0.031950 11.889276 -129.732101
v 0.031950 11.733624 -129.732101
v 0.031950 11.577971 -129.732101
v 0.031950 11.422318 -129.732101
v 0.031950 11.266666 -129.732101
v 0.031950 11.111014 -129.732101
v 0.031950 10.955362 -129.732101
v 0.031950 10.799710 -129.732101
v 0.031950 10.644058 -129.732101
v 0.031950 10.488405 -129.732101
v 0.031950 10.332753 -129.732101
v 0.031950 10.177101 -129.732101
v 0.031950 10.021449 -129.732101
v 0.031950 9.865797 -129.732101
v 0.031950 9.710145 -129.732101
v 0.031950 9.554493 -129.732101
v 0.031950 9.398840 -129.732101
v 0.031950 9.243189 -129.732101
v 0.031950 9.087536 -129.732101
v 0.031950 8.931884 -129.732101
v 0.031950 8.776232 -129.732101
v 0.031950 8.620580 -129.732101
v 0.031950 8.464928 -129.732101
v 0.031950 8.309275 -129.732101
v 0.031950 8.153623 -129.732101
v 0.031950 7.997971 -129.732101
v 0.031950 7.842319 -129.732101
v 0.031950 7.686666 -129.732101
v 0.031950 7.531014 -129.732101
v 0.031950 7.375362 -129.732101
v 0.031950 7.219710 -129.732101
v 0.031950 7.064058 -129.732101
v 0.031950 6.908406 -129.732101
v 0.031950 6.752754 -129.732101
v 0.031950 6.666310 -129.732101
v -0.004377 16.403189 -129.782104
v -0.004377 16.247536 -129.782104
v -0.004377 16.091885 -129.782104
v -0.004377 15.936232 -129.782104
v -0.004377 15.780581 -129.782104
v -0.004377 15.624928 -129.782104
v -0.004377 15.469275 -129.782104
v -0.004377 15.313623 -129.782104
v -0.004377 15.157971 -129.782104
v -0.004377 15.002319 -129.782104
v -0.004377 14.846666 -129.782104
v -0.004377 14.691014 -129.782104
v -0.004377 14.535362 -129.782104
v -0.004377 14.379710 -129.782104
v -0.004377 14.224058 -129.782104
v -0.004377 14.068405 -129.782104
v -0.004377 13.912753 -129.782104
v -0.004377 13.757101 -129.782104
v -0.004377 13.601449 -129.782104
v -0.004377 13.445797 -129.782104
v -0.004377 13.290145 -129.782104
v -0.004377 13.134493 -129.782104
v -0.004377 12.978841 -129.782104
v -0.004377 12.823189 -129.782104
v -0.004377 12.667536 -129.782104
v -0.004377 12.511884 -129.782104
v -0.004377 12.356232 -129.782104
v -0.004377 12.200580 -129.782104
v -0.004377 12.044928 -129.782104
v -0.004377 11.889276 -129.782104
v -0.004377 11.733624 -129.782104
v -0.004377 11.577971 -129.782104
v -0.004377 11.422318 -129.782104
v -0.004377 11.266666 -129.782104
v -0.004377 11.111014 -129.782104
v -0.004377 10.955362 -129.782104
v -0.004377 10.799710 -129.782104
v -0.004377 10.644058 -129.782104
v -0.004377 10.488405 -129.782104
v -0.004377 10.332753 -129.782104
v -0.004377 10.177101 -129.782104
v -0.004377 10.021449 -129.782104
v -0.004377 9.865797 -129.782104
v -0.004377 9.710145 -129.782104
v -0.004377 9.554493 -129.782104
v -0.004377 9.398840 -129.782104
v -0.004377 9.243189 -129.782104
v -0.004377 9.087536 -129.782104
v -0.004377 8.931884 -129.782104
v -0.004377 8.776232 -129.782104
v -0.004377 8.620580 -129.782104
v -0.004377 8.464928 -129.782104
v -0.004377 8.309275 -129.782104
v -0.004377 8.153623 -129.782104
v -0.004377 7.997971 -129.782104
v -0.004377 7.842319 -129.782104
v -0.004377 7.686666 -129.782104
v -0.004377 7.531014 -129.782104
v -0.004377 7.375362 -129.782104
v -0.004377 7.219710 -129.782104
v -0.004377 7.064058 -129.782104
v -0.004377 6.908406 -129.782104
v -0.004377 6.752754 -129.782104
v -0.004377 6.597102 -129.782104
v -0.004377 16.403189 -129.843903
v -0.004377 16.247536 -129.843903
v -0.004377 16.091885 -129.843903
v -0.004377 15.936232 -129.843903
v -0.004377 15.780581 -129.843903
v -0.004377 15.624928 -129.843903
v -0.004377 15.469275 -129.843903
v -0.004377 15.313623 -129.843903
v -0.004377 15.157971 -129.843903
v -0.004377 15.002319 -129.843903
v -0.004377 14.846666 -129.843903
v -0.004377 14.691014 -129.843903
v -0.004377 14.535362 -129.843903
v -0.004377 14.379710 -129.843903
v -0.004377 14.224058 -129.843903
v -0.004377 14.068405 -129.843903
v -0.004377 13.912753 -129.843903
v -0.004377 13.757101 -129.843903
v -0.004377 13.601449 -129.843903
v -0.004377 13.445797 -129.843903
v -0.004377 13.290145 -129.843903
v -0.004377 13.134493 -129.843903
v -0.004377 12.978841 -129.843903
v -0.004377 12.823189 -129.843903
v -0.004377 12.667536 -129.843903
v -0.004377 12.511884 -129.843903
v -0.004377 12.356232 -129.843903
v -0.004377 12.200580 -129.843903
v -0.004377 12.044928 -129.843903
v -0.004377 11.889276 -129.843903
v -0.004377 11.733624 -129.843903
v -0.004377 11.577971 -129.843903
v -0.004377 11.422318 -129.843903
v -0.004377 11.266666 -129.843903
v -0.004377 11.111014 -129.843903
v -0.004377 10.955362 -129.843903
v -0.004377 10.799710 -129.843903
v -0.004377 10.644058 -129.843903
v -0.004377 10.488405 -129.843903
v -0.004377 10.332753 -129.843903
v -0.004377 10.177101 -129.843903
v -0.004377 10.021449 -129.843903
v -0.004377 9.865797 -129.843903
v -0.004377 9.710145 -129.843903
v -0.004377 9.554493 -129.843903
v -0.004377 9.398840 -129.843903
v -0.004377 9.243189 -129.843903
v -0.004377 9.087536 -129.843903
v -0.004377 8.931884 -129.843903
v -0.004377 8.776232 -129.843903
v -0.004377 8.620580 -129.843903
v -0.004377 8.464928 -129.843903
v -0.004377 8.309275 -129.843903
v -0.004377 8.153623 -129.843903
v -0.004377 7.997971 -129.843903
v -0.004377 7.842319 -129.843903
v -0.004377 7.686666 -129.843903
v -0.004377 7.531014 -129.843903
v -0.004377 7.375362 -129.843903
v -0.004377 7.219710 -129.843903
v -0.004377 7.064058 -129.843903
v -0.004377 6.908406 -129.843903
v -0.004377 6.752754 -129.843903
v -0.004377 6.664247 -129.843903
v 0.031950 16.403189 -129.893906
v 0.031950 16.247536 -129.893906
v 0.031950 16.091885 -129.893906
v 0.031950 15.936232 -129.893906
v 0.031950 15.780581 -129.893906
v 0.031950 15.624928 -129.893906
v 0.031950 15.469275 -129.893906
v 0.031950 15.313623 -129.893906
v 0.031950 15.157971 -129.893906
v 0.031950 15.002319 -129.893906
v 0.031950 14.846666 -129.893906
v 0.031950 14.691014 -129.893906
v 0.031950 14.535362 -129.893906
v 0.031950 14.379710 -129.893906
v 0.031950 14.224058 -129.893906
v 0.031950 14.068405 -129.893906
v 0.031950 13.912753 -129.893906
v 0.031950 13.757101 -129.893906
v 0.031950 13.601449 -129.893906
v 0.031950 13.445797 -129.893906
v 0.031950 13.290145 -129.893906
v 0.031950 13.134493 -129.893906
v 0.031950 12.978841 -129.893906
v 0.031950 12.823189 -129.893906
v 0.031950 12.667536 -129.893906
v 0.031950 12.511884 -129.893906
v 0.031950 12.356232 -129.893906
v 0.031950 12.200580 -129.893906
v 0.031950 12.044928 -129.893906
v 0.031950 11.889276 -129.893906
v 0.031950 11.733624 -129.893906
v 0.031950 11.577971 -129.893906
v 0.031950 11.422318 -129.893906
v 0.031950 11.266666 -129.893906
v 0.031950 11.111014 -129.893906
v 0.031950 10.955362 -129.893906
v 0.031950 10.799710 -129.893906
v 0.031950 10.644058 -129.893906
v 0.031950 10.488405 -129.893906
v 0.031950 10.332753 -129.893906
v 0.031950 10.177101 -129.893906
v 0.031950 10.021449 -129.893906
v 0.031950 9.865797 -129.893906
v 0.031950 9.710145 -129.893906
v 0.031950 9.554493 -129.893906
v 0.031950 9.398840 -129.893906
v 0.031950 9.243189 -129.893906
v 0.031950 9.087536 -129.893906
v 0.031950 8.931884 -129.893906
v 0.031950 8.776232 -129.893906
v 0.031950 8.620580 -129.893906
v 0.031950 8.464928 -129.893906
v 0.031950 8.309275 -129.893906
v 0.031950 8.153623 -129.893906
v 0.031950 7.997971 -129.893906
v 0.031950 7.842319 -129.893906
v 0.031950 7.686666 -129.893906
v 0.031950 7.531014 -129.893906
v 0.031950 7.375362 -129.893906
v 0.031950 7.219710 -129.893906
v 0.031950 7.064058 -129.893906
v 0.031950 6.908406 -129.893906
v 0.031950 6.850985 -129.893906
v 0.031950 6.712111 -129.893906
v 0.090729 6.597101 -129.813004
vn 0.0000 1.0000 0.0000
vn 0.4498 0.6437 -0.6191
vn 0.0000 0.6437 -0.7653
vn 0.0000 0.0000 -1.0000
vn 0.5878 0.0000 -0.8090
vn 0.7278 0.6437 -0.2365
vn 0.9510 0.0000 -0.3090
vn 0.7278 0.6437 0.2365
vn 0.9510 0.0000 0.3090
vn 0.4498 0.6437 0.6191
vn 0.5878 0.0000 0.8090
vn 0.0000 0.6437 0.7653
vn 0.0000 0.0000 1.0000
vn -0.4498 0.6437 0.6191
vn -0.5878 0.0000 0.8090
vn -0.7278 0.6437 0.2365
vn -0.9510 0.0000 0.3090
vn -0.7278 0.6437 -0.2365
vn -0.9510 0.0000 -0.3090
vn -0.4498 0.6437 -0.6191
vn -0.5878 0.0000 -0.8090
vn -0.5988 -0.1549 -0.7857
vn 0.0001 0.0000 -1.0000
vn -0.3234 -0.6589 -0.6791
vn -0.7747 -0.3562 -0.5225
vn -0.5870 -0.7855 0.1959
vn -0.3769 -0.3468 0.8588
vn -0.0412 -0.2021 0.9785
vn 0.2352 -0.7519 0.6158
vn 0.8776 -0.4541 -0.1538
vn 0.9495 -0.0654 -0.3067
vn 0.9510 0.0000 -0.3089
vn 0.6952 -0.6402 -0.3267
vn 0.5878 0.0000 -0.8089
vn -0.0253 -0.9989 0.0384
usemtl None
s 1
f 1//1 3//2 2//3
f 75//4 2//3 3//2 76//5
f 1//1 4//6 3//2
f 76//5 3//2 4//6 140//7
f 1//1 5//8 4//6
f 140//7 4//6 5//8 204//9
f 1//1 6//10 5//8
f 204//9 5//8 6//10 268//11
f 1//1 7//12 6//10
f 268//11 6//10 7//12 332//13
f 1//1 8//14 7//12
f 332//13 7//12 8//14 396//15
f 1//1 9//16 8//14
f 396//15 8//14 9//16 460//17
f 1//1 10//18 9//16
f 460//17 9//16 10//18 524//19
f 1//1 11//20 10//18
f 524//19 10//18 11//20 588//21
f 1//1 2//3 11//20
f 588//21 11//20 2//3 75//4
f 651//22 650//21 13//23 12//24
f 650//21 649//21 14//4 13//23
f 649//21 648//21 15//4 14//4
f 648//21 647//21 16//4 15//4
f 647//21 646//21 17//4 16//4
f 646//21 645//21 18//4 17//4
f 645//21 644//21 19//4 18//4
f 644//21 643//21 20//4 19//4
f 643//21 642//21 21//4 20//4
f 642//21 641//21 22//4 21//4
f 641//21 640//21 23//4 22//4
f 640//21 639//21 24//4 23//4
f 639//21 638//21 25//4 24//4
f 638//21 637//21 26//4 25//4
f 637//21 636//21 27//4 26//4
f 636//21 635//21 28//4 27//4
f 635//21 634//21 29//4 28//4
f 634//21 633//21 30//4 29//4
f 633//21 632//21 31//4 30//4
f 632//21 631//21 32//4 31//4
f 631//21 630//21 33//4 32//4
f 630//21 629//21 34//4 33//4
f 629//21 628//21 35//4 34//4
f 628//21 627//21 36//4 35//4
f 627//21 626//21 37//4 36//4
f 626//21 625//21 38//4 37//4
f 625//21 624//21 39//4 38//4
f 624//21 623//21 40//4 39//4
f 623//21 622//21 41//4 40//4
f 622//21 621//21 42//4 41//4
f 621//21 620//21 43//4 42//4
f 620//21 619//21 44//4 43//4
f 619//21 618//21 45//4 44//4
f 618//21 617//21 46//4 45//4
f 617//21 616//21 47//4 46//4
f 616//21 615//21 48//4 47//4
f 615//21 614//21 49//4 48//4
f 614//21 613//21 50//4 49//4
f 613//21 612//21 51//4 50//4
f 612//21 611//21 52//4 51//4
f 611//21 610//21 53//4 52//4
f 610//21 609//21 54//4 53//4
f 609//21 608//21 55//4 54//4
f 608//21 607//21 56//4 55//4
f 607//21 606//21 57//4 56//4
f 606//21 605//21 58//4 57//4
f 605//21 604//21 59//4 58//4
f 604//21 603//21 60//4 59//4
f 603//21 602//21 61//4 60//4
f 602//21 601//21 62//4 61//4
f 601//21 600//21 63//4 62//4
f 600//21 599//21 64//4 63//4
f 599//21 598//21 65//4 64//4
f 598//21 597//21 66//4 65//4
f 597//21 596//21 67//4 66//4
f 596//21 595//21 68//4 67//4
f 595//21 594//21 69//4 68//4
f 594//21 593//21 70//4 69//4
f 593//21 592//21 71//4 70//4
f 592//21 591//21 72//4 71//4
f 591//21 590//21 73//4 72//4
f 590//21 589//21 74//4 73//4
f 589//21 588//21 75//4 74//4
f 587//25 586//19 650//21 651//22
f 586//19 585//19 649//21 650//21
f 585//19 584//19 648//21 649//21
f 584//19 583//19 647//21 648//21
f 583//19 582//19 646//21 647//21
f 582//19 581//19 645//21 646//21
f 581//19 580//19 644//21 645//21
f 580//19 579//19 643//21 644//21
f 579//19 578//19 642//21 643//21
f 578//19 577//19 641//21 642//21
f 577//19 576//19 640//21 641//21
f 576//19 575//19 639//21 640//21
f 575//19 574//19 638//21 639//21
f 574//19 573//19 637//21 638//21
f 573//19 572//19 636//21 637//21
f 572//19 571//19 635//21 636//21
f 571//19 570//19 634//21 635//21
f 570//19 569//19 633//21 634//21
f 569//19 568//19 632//21 633//21
f 568//19 567//19 631//21 632//21
f 567//19 566//19 630//21 631//21
f 566//19 565//19 629//21 630//21
f 565//19 564//19 628//21 629//21
f 564//19 563//19 627//21 628//21
f 563//19 562//19 626//21 627//21
f 562//19 561//19 625//21 626//21
f 561//19 560//19 624//21 625//21
f 560//19 559//19 623//21 624//21
f 559//19 558//19 622//21 623//21
f 558//19 557//19 621//21 622//21
f 557//19 556//19 620//21 621//21
f 556//19 555//19 619//21 620//21
f 555//19 554//19 618//21 619//21
f 554//19 553//19 617//21 618//21
f 553//19 552//19 616//21 617//21
f 552//19 551//19 615//21 616//21
f 551//19 550//19 614//21 615//21
f 550//19 549//19 613//21 614//21
f 549//19 548//19 612//21 613//21
f 548//19 547//19 611//21 612//21
f 547//19 546//19 610//21 611//21
f 546//19 545//19 609//21 610//21
f 545//19 544//19 608//21 609//21
f 544//19 543//19 607//21 608//21
f 543//19 542//19 606//21 607//21
f 542//19 541//19 605//21 606//21
f 541//19 540//19 604//21 605//21
f 540//19 539//19 603//21 604//21
f 539//19 538//19 602//21 603//21
f 538//19 537//19 601//21 602//21
f 537//19 536//19 600//21 601//21
f 536//19 535//19 599//21 600//21
f 535//19 534//19 598//21 599//21
f 534//19 533//19 597//21 598//21
f 533//19 532//19 596//21 597//21
f 532//19 531//19 595//21 596//21
f 531//19 530//19 594//21 595//21
f 530//19 529//19 593//21 594//21
f 529//19 528//19 592//21 593//21
f 528//19 527//19 591//21 592//21
f 527//19 526//19 590//21 591//21
f 526//19 525//19 589//21 590//21
f 525//19 524//19 588//21 589//21
f 523//26 522//17 586//19 587//25
f 522//17 521//17 585//19 586//19
f 521//17 520//17 584//19 585//19
f 520//17 519//17 583//19 584//19
f 519//17 518//17 582//19 583//19
f 518//17 517//17 581//19 582//19
f 517//17 516//17 580//19 581//19
f 516//17 515//17 579//19 580//19
f 515//17 514//17 578//19 579//19
f 514//17 513//17 577//19 578//19
f 513//17 512//17 576//19 577//19
f 512//17 511//17 575//19 576//19
f 511//17 510//17 574//19 575//19
f 510//17 509//17 573//19 574//19
f 509//17 508//17 572//19 573//19
f 508//17 507//17 571//19 572//19
f 507//17 506//17 570//19 571//19
f 506//17 505//17 569//19 570//19
f 505//17 504//17 568//19 569//19
f 504//17 503//17 567//19 568//19
f 503//17 502//17 566//19 567//19
f 502//17 501//17 565//19 566//19
f 501//17 500//17 564//19 565//19
f 500//17 499//17 563//19 564//19
f 499//17 498//17 562//19 563//19
f 498//17 497//17 561//19 562//19
f 497//17 496//17 560//19 561//19
f 496//17 495//17 559//19 560//19
f 495//17 494//17 558//19 559//19
f 494//17 493//17 557//19 558//19
f 493//17 492//17 556//19 557//19
f 492//17 491//17 555//19 556//19
f 491//17 490//17 554//19 555//19
f 490//17 489//17 553//19 554//19
f 489//17 488//17 552//19 553//19
f 488//17 487//17 551//19 552//19
f 487//17 486//17 550//19 551//19
f 486//17 485//17 549//19 550//19
f 485//17 484//17 548//19 549//19
f 484//17 483//17 547//19 548//19
f 483//17 482//17 546//19 547//19
f 482//17 481//17 545//19 546//19
f 481//17 480//17 544//19 545//19
f 480//17 479//17 543//19 544//19
f 479//17 478//17 542//19 543//19
f 478//17 477//17 541//19 542//19
f 477//17 476//17 540//19 541//19
f 476//17 475//17 539//19 540//19
f 475//17 474//17 538//19 539//19
f 474//17 473//17 537//19 538//19
f 473//17 472//17 536//19 537//19
f 472//17 471//17 535//19 536//19
f 471//17 470//17 534//19 535//19
f 470//17 469//17 533//19 534//19
f 469//17 468//17 532//19 533//19
f 468//17 467//17 531//19 532//19
f 467//17 466//17 530//19 531//19
f 466//17 465//17 529//19 530//19
f 465//17 464//17 528//19 529//19
f 464//17 463//17 527//19 528//19
f 463//17 462//17 526//19 527//19
f 462//17 461//17 525//19 526//19
f 461//17 460//17 524//19 525//19
f 459//27 458//15 522//17 523//26
f 458//15 457//15 521//17 522//17
f 457//15 456//15 520//17 521//17
f 456//15 455//15 519//17 520//17
f 455//15 454//15 518//17 519//17
f 454//15 453//15 517//17 518//17
f 453//15 452//15 516//17 517//17
f 452//15 451//15 515//17 516//17
f 451//15 450//15 514//17 515//17
f 450//15 449//15 513//17 514//17
f 449//15 448//15 512//17 513//17
f 448//15 447//15 511//17 512//17
f 447//15 446//15 510//17 511//17
f 446//15 445//15 509//17 510//17
f 445//15 444//15 508//17 509//17
f 444//15 443//15 507//17 508//17
f 443//15 442//15 506//17 507//17
f 442//15 441//15 505//17 506//17
f 441//15 440//15 504//17 505//17
f 440//15 439//15 503//17 504//17
f 439//15 438//15 502//17 503//17
f 438//15 437//15 501//17 502//17
f 437//15 436//15 500//17 501//17
f 436//15 435//15 499//17 500//17
f 435//15 434//15 498//17 499//17
f 434//15 433//15 497//17 498//17
f 433//15 432//15 496//17 497//17
f 432//15 431//15 495//17 496//17
f 431//15 430//15 494//17 495//17
f 430//15 429//15 493//17 494//17
f 429//15 428//15 492//17 493//17
f 428//15 427//15 491//17 492//17
f 427//15 426//15 490//17 491//17
f 426//15 425//15 489//17 490//17
f 425//15 424//15 488//17 489//17
f 424//15 423//15 487//17 488//17
f 423//15 422//15 486//17 487//17
f 422//15 421//15 485//17 486//17
f 421//15 420//15 484//17 485//17
f 420//15 419//15 483//17 484//17
f 419//15 418//15 482//17 483//17
f 418//15 417//15 481//17 482//17
f 417//15 416//15 480//17 481//17
f 416//15 415//15 479//17 480//17
f 415//15 414//15 478//17 479//17
f 414//15 413//15 477//17 478//17
f 413//15 412//15 476//17 477//17
f 412//15 411//15 475//17 476//17
f 411//15 410//15 474//17 475//17
f 410//15 409//15 473//17 474//17
f 409//15 408//15 472//17 473//17
f 408//15 407//15 471//17 472//17
f 407//15 406//15 470//17 471//17
f 406//15 405//15 469//17 470//17
f 405//15 404//15 468//17 469//17
f 404//15 403//15 467//17 468//17
f 403//15 402//15 466//17 467//17
f 402//15 401//15 465//17 466//17
f 401//15 400//15 464//17 465//17
f 400//15 399//15 463//17 464//17
f 399//15 398//15 462//17 463//17
f 398//15 397//15 461//17 462//17
f 397//15 396//15 460//17 461//17
f 395//28 394//13 458//15 459//27
f 394//13 393//13 457//15 458//15
f 393//13 392//13 456//15 457//15
f 392//13 391//13 455//15 456//15
f 391//13 390//13 454//15 455//15
f 390//13 389//13 453//15 454//15
f 389//13 388//13 452//15 453//15
f 388//13 387//13 451//15 452//15
f 387//13 386//13 450//15 451//15
f 386//13 385//13 449//15 450//15
f 385//13 384//13 448//15 449//15
f 384//13 383//13 447//15 448//15
f 383//13 382//13 446//15 447//15
f 382//13 381//13 445//15 446//15
f 381//13 380//13 444//15 445//15
f 380//13 379//13 443//15 444//15
f 379//13 378//13 442//15 443//15
f 378//13 377//13 441//15 442//15
f 377//13 376//13 440//15 441//15
f 376//13 375//13 439//15 440//15
f 375//13 374//13 438//15 439//15
f 374//13 373//13 437//15 438//15
f 373//13 372//13 436//15 437//15
f 372//13 371//13 435//15 436//15
f 371//13 370//13 434//15 435//15
f 370//13 369//13 433//15 434//15
f 369//13 368//13 432//15 433//15
f 368//13 367//13 431//15 432//15
f 367//13 366//13 430//15 431//15
f 366//13 365//13 429//15 430//15
f 365//13 364//13 428//15 429//15
f 364//13 363//13 427//15 428//15
f 363//13 362//13 426//15 427//15
f 362//13 361//13 425//15 426//15
f 361//13 360//13 424//15 425//15
f 360//13 359//13 423//15 424//15
f 359//13 358//13 422//15 423//15
f 358//13 357//13 421//15 422//15
f 357//13 356//13 420//15 421//15
f 356//13 355//13 419//15 420//15
f 355//13 354//13 418//15 419//15
f 354//13 353//13 417//15 418//15
f 353//13 352//13 416//15 417//15
f 352//13 351//13 415//15 416//15
f 351//13 350//13 414//15 415//15
f 350//13 349//13 413//15 414//15
f 349//13 348//13 412//15 413//15
f 348//13 347//13 411//15 412//15
f 347//13 346//13 410//15 411//15
f 346//13 345//13 409//15 410//15
f 345//13 344//13 408//15 409//15
f 344//13 343//13 407//15 408//15
f 343//13 342//13 406//15 407//15
f 342//13 341//13 405//15 406//15
f 341//13 340//13 404//15 405//15
f 340//13 339//13 403//15 404//15
f 339//13 338//13 402//15 403//15
f 338//13 337//13 401//15 402//15
f 337//13 336//13 400//15 401//15
f 336//13 335//13 399//15 400//15
f 335//13 334//13 398//15 399//15
f 334//13 333//13 397//15 398//15
f 333//13 332//13 396//15 397//15
f 331//29 330//11 394//13 395//28
f 330//11 329//11 393//13 394//13
f 329//11 328//11 392//13 393//13
f 328//11 327//11 391//13 392//13
f 327//11 326//11 390//13 391//13
f 326//11 325//11 389//13 390//13
f 325//11 324//11 388//13 389//13
f 324//11 323//11 387//13 388//13
f 323//11 322//11 386//13 387//13
f 322//11 321//11 385//13 386//13
f 321//11 320//11 384//13 385//13
f 320//11 319//11 383//13 384//13
f 319//11 318//11 382//13 383//13
f 318//11 317//11 381//13 382//13
f 317//11 316//11 380//13 381//13
f 316//11 315//11 379//13 380//13
f 315//11 314//11 378//13 379//13
f 314//11 313//11 377//13 378//13
f 313//11 312//11 376//13 377//13
f 312//11 311//11 375//13 376//13
f 311//11 310//11 374//13 375//13
f 310//11 309//11 373//13 374//13
f 309//11 308//11 372//13 373//13
f 308//11 307//11 371//13 372//13
f 307//11 306//11 370//13 371//13
f 306//11 305//11 369//13 370//13
f 305//11 304//11 368//13 369//13
f 304//11 303//11 367//13 368//13
f 303//11 302//11 366//13 367//13
f 302//11 301//11 365//13 366//13
f 301//11 300//11 364//13 365//13
f 300//11 299//11 363//13 364//13
f 299//11 298//11 362//13 363//13
f 298//11 297//11 361//13 362//13
f 297//11 296//11 360//13 361//13
f 296//11 295//11 359//13 360//13
f 295//11 294//11 358//13 359//13
f 294//11 293//11 357//13 358//13
f 293//11 292//11 356//13 357//13
f 292//11 291//11 355//13 356//13
f 291//11 290//11 354//13 355//13
f 290//11 289//11 353//13 354//13
f 289//11 288//11 352//13 353//13
f 288//11 287//11 351//13 352//13
f 287//11 286//11 350//13 351//13
f 286//11 285//11 349//13 350//13
f 285//11 284//11 348//13 349//13
f 284//11 283//11 347//13 348//13
f 283//11 282//11 346//13 347//13
f 282//11 281//11 345//13 346//13
f 281//11 280//11 344//13 345//13
f 280//11 279//11 343//13 344//13
f 279//11 278//11 342//13 343//13
f 278//11 277//11 341//13 342//13
f 277//11 276//11 340//13 341//13
f 276//11 275//11 339//13 340//13
f 275//11 274//11 338//13 339//13
f 274//11 273//11 337//13 338//13
f 273//11 272//11 336//13 337//13
f 272//11 271//11 335//13 336//13
f 271//11 270//11 334//13 335//13
f 270//11 269//11 333//13 334//13
f 269//11 268//11 332//13 333//13
f 267//30 266//9 330//11 331//29
f 266//9 265//9 329//11 330//11
f 265//9 264//9 328//11 329//11
f 264//9 263//9 327//11 328//11
f 263//9 262//9 326//11 327//11
f 262//9 261//9 325//11 326//11
f 261//9 260//9 324//11 325//11
f 260//9 259//9 323//11 324//11
f 259//9 258//9 322//11 323//11
f 258//9 257//9 321//11 322//11
f 257//9 256//9 320//11 321//11
f 256//9 255//9 319//11 320//11
f 255//9 254//9 318//11 319//11
f 254//9 253//9 317//11 318//11
f 253//9 252//9 316//11 317//11
f 252//9 251//9 315//11 316//11
f 251//9 250//9 314//11 315//11
f 250//9 249//9 313//11 314//11
f 249//9 248//9 312//11 313//11
f 248//9 247//9 311//11 312//11
f 247//9 246//9 310//11 311//11
f 246//9 245//9 309//11 310//11
f 245//9 244//9 308//11 309//11
f 244//9 243//9 307//11 308//11
f 243//9 242//9 306//11 307//11
f 242//9 241//9 305//11 306//11
f 241//9 240//9 304//11 305//11
f 240//9 239//9 303//11 304//11
f 239//9 238//9 302//11 303//11
f 238//9 237//9 301//11 302//11
f 237//9 236//9 300//11 301//11
f 236//9 235//9 299//11 300//11
f 235//9 234//9 298//11 299//11
f 234//9 233//9 297//11 298//11
f 233//9 232//9 296//11 297//11
f 232//9 231//9 295//11 296//11
f 231//9 230//9 294//11 295//11
f 230//9 229//9 293//11 294//11
f 229//9 228//9 292//11 293//11
f 228//9 227//9 291//11 292//11
f 227//9 226//9 290//11 291//11
f 226//9 225//9 289//11 290//11
f 225//9 224//9 288//11 289//11
f 224//9 223//9 287//11 288//11
f 223//9 222//9 286//11 287//11
f 222//9 221//9 285//11 286//11
f 221//9 220//9 284//11 285//11
f 220//9 219//9 283//11 284//11
f 219//9 218//9 282//11 283//11
f 218//9 217//9 281//11 282//11
f 217//9 216//9 280//11 281//11
f 216//9 215//9 279//11 280//11
f 215//9 214//9 278//11 279//11
f 214//9 213//9 277//11 278//11
f 213//9 212//9 276//11 277//11
f 212//9 211//9 275//11 276//11
f 211//9 210//9 274//11 275//11
f 210//9 209//9 273//11 274//11
f 209//9 208//9 272//11 273//11
f 208//9 207//9 271//11 272//11
f 207//9 206//9 270//11 271//11
f 206//9 205//9 269//11 270//11
f 205//9 204//9 268//11 269//11
f 203//31 202//32 266//9 267//30
f 202//32 201//7 265//9 266//9
f 201//7 200//7 264//9 265//9
f 200//7 199//7 263//9 264//9
f 199//7 198//7 262//9 263//9
f 198//7 197//7 261//9 262//9
f 197//7 196//7 260//9 261//9
f 196//7 195//7 259//9 260//9
f 195//7 194//7 258//9 259//9
f 194//7 193//7 257//9 258//9
f 193//7 192//7 256//9 257//9
f 192//7 191//7 255//9 256//9
f 191//7 190//7 254//9 255//9
f 190//7 189//7 253//9 254//9
f 189//7 188//7 252//9 253//9
f 188//7 187//7 251//9 252//9
f 187//7 186//7 250//9 251//9
f 186//7 185//7 249//9 250//9
f 185//7 184//7 248//9 249//9
f 184//7 183//7 247//9 248//9
f 183//7 182//7 246//9 247//9
f 182//7 181//7 245//9 246//9
f 181//7 180//7 244//9 245//9
f 180//7 179//7 243//9 244//9
f 179//7 178//7 242//9 243//9
f 178//7 177//7 241//9 242//9
f 177//7 176//7 240//9 241//9
f 176//7 175//7 239//9 240//9
f 175//7 174//7 238//9 239//9
f 174//7 173//7 237//9 238//9
f 173//7 172//7 236//9 237//9
f 172//7 171//7 235//9 236//9
f 171//7 170//7 234//9 235//9
f 170//7 169//7 233//9 234//9
f 169//7 168//7 232//9 233//9
f 168//7 167//7 231//9 232//9
f 167//7 166//7 230//9 231//9
f 166//7 165//7 229//9 230//9
f 165//7 164//7 228//9 229//9
f 164//7 163//7 227//9 228//9
f 163//7 162//7 226//9 227//9
f 162//7 161//7 225//9 226//9
f 161//7 160//7 224//9 225//9
f 160//7 159//7 223//9 224//9
f 159//7 158//7 222//9 223//9
f 158//7 157//7 221//9 222//9
f 157//7 156//7 220//9 221//9
f 156//7 155//7 219//9 220//9
f 155//7 154//7 218//9 219//9
f 154//7 153//7 217//9 218//9
f 153//7 152//7 216//9 217//9
f 152//7 151//7 215//9 216//9
f 151//7 150//7 214//9 215//9
f 150//7 149//7 213//9 214//9
f 149//7 148//7 212//9 213//9
f 148//7 147//7 211//9 212//9
f 147//7 146//7 210//9 211//9
f 146//7 145//7 209//9 210//9
f 145//7 144//7 208//9 209//9
f 144//7 143//7 207//9 208//9
f 143//7 142//7 206//9 207//9
f 142//7 141//7 205//9 206//9
f 141//7 140//7 204//9 205//9
f 139//33 138//34 202//32 203//31
f 138//34 137//5 201//7 202//32
f 137//5 136//5 200//7 201//7
f 136//5 135//5 199//7 200//7
f 135//5 134//5 198//7 199//7
f 134//5 133//5 197//7 198//7
f 133//5 132//5 196//7 197//7
f 132//5 131//5 195//7 196//7
f 131//5 130//5 194//7 195//7
f 130//5 129//5 193//7 194//7
f 129//5 128//5 192//7 193//7
f 128//5 127//5 191//7 192//7
f 127//5 126//5 190//7 191//7
f 126//5 125//5 189//7 190//7
f 125//5 124//5 188//7 189//7
f 124//5 123//5 187//7 188//7
f 123//5 122//5 186//7 187//7
f 122//5 121//5 185//7 186//7
f 121//5 120//5 184//7 185//7
f 120//5 119//5 183//7 184//7
f 119//5 118//5 182//7 183//7
f 118//5 117//5 181//7 182//7
f 117//5 116//5 180//7 181//7
f 116//5 115//5 179//7 180//7
f 115//5 114//5 178//7 179//7
f 114//5 113//5 177//7 178//7
f 113//5 112//5 176//7 177//7
f 112//5 111//5 175//7 176//7
f 111//5 110//5 174//7 175//7
f 110//5 109//5 173//7 174//7
f 109//5 108//5 172//7 173//7
f 108//5 107//5 171//7 172//7
f 107//5 106//5 170//7 171//7
f 106//5 105//5 169//7 170//7
f 105//5 104//5 168//7 169//7
f 104//5 103//5 167//7 168//7
f 103//5 102//5 166//7 167//7
f 102//5 101//5 165//7 166//7
f 101//5 100//5 164//7 165//7
f 100//5 99//5 163//7 164//7
f 99//5 98//5 162//7 163//7
f 98//5 97//5 161//7 162//7
f 97//5 96//5 160//7 161//7
f 96//5 95//5 159//7 160//7
f 95//5 94//5 158//7 159//7
f 94//5 93//5 157//7 158//7
f 93//5 92//5 156//7 157//7
f 92//5 91//5 155//7 156//7
f 91//5 90//5 154//7 155//7
f 90//5 89//5 153//7 154//7
f 89//5 88//5 152//7 153//7
f 88//5 87//5 151//7 152//7
f 87//5 86//5 150//7 151//7
f 86//5 85//5 149//7 150//7
f 85//5 84//5 148//7 149//7
f 84//5 83//5 147//7 148//7
f 83//5 82//5 146//7 147//7
f 82//5 81//5 145//7 146//7
f 81//5 80//5 144//7 145//7
f 80//5 79//5 143//7 144//7
f 79//5 78//5 142//7 143//7
f 78//5 77//5 141//7 142//7
f 77//5 76//5 140//7 141//7
f 12//24 13//23 138//34 139//33
f 13//23 14//4 137//5 138//34
f 14//4 15//4 136//5 137//5
f 15//4 16//4 135//5 136//5
f 16//4 17//4 134//5 135//5
f 17//4 18//4 133//5 134//5
f 18//4 19//4 132//5 133//5
f 19//4 20//4 131//5 132//5
f 20//4 21//4 130//5 131//5
f 21//4 22//4 129//5 130//5
f 22//4 23//4 128//5 129//5
f 23//4 24//4 127//5 128//5
f 24//4 25//4 126//5 127//5
f 25//4 26//4 125//5 126//5
f 26//4 27//4 124//5 125//5
f 27//4 28//4 123//5 124//5
f 28//4 29//4 122//5 123//5
f 29//4 30//4 121//5 122//5
f 30//4 31//4 120//5 121//5
f 31//4 32//4 119//5 120//5
f 32//4 33//4 118//5 119//5
f 33//4 34//4 117//5 118//5
f 34//4 35//4 116//5 117//5
f 35//4 36//4 115//5 116//5
f 36//4 37//4 114//5 115//5
f 37//4 38//4 113//5 114//5
f 38//4 39//4 112//5 113//5
f 39//4 40//4 111//5 112//5
f 40//4 41//4 110//5 111//5
f 41//4 42//4 109//5 110//5
f 42//4 43//4 108//5 109//5
f 43//4 44//4 107//5 108//5
f 44//4 45//4 106//5 107//5
f 45//4 46//4 105//5 106//5
f 46//4 47//4 104//5 105//5
f 47//4 48//4 103//5 104//5
f 48//4 49//4 102//5 103//5
f 49//4 50//4 101//5 102//5
f 50//4 51//4 100//5 101//5
f 51//4 52//4 99//5 100//5
f 52//4 53//4 98//5 99//5
f 53//4 54//4 97//5 98//5
f 54//4 55//4 96//5 97//5
f 55//4 56//4 95//5 96//5
f 56//4 57//4 94//5 95//5
f 57//4 58//4 93//5 94//5
f 58//4 59//4 92//5 93//5
f 59//4 60//4 91//5 92//5
f 60//4 61//4 90//5 91//5
f 61//4 62//4 89//5 90//5
f 62//4 63//4 88//5 89//5
f 63//4 64//4 87//5 88//5
f 64//4 65//4 86//5 87//5
f 65//4 66//4 85//5 86//5
f 66//4 67//4 84//5 85//5
f 67//4 68//4 83//5 84//5
f 68//4 69//4 82//5 83//5
f 69//4 70//4 81//5 82//5
f 70//4 71//4 80//5 81//5
f 71//4 72//4 79//5 80//5
f 72//4 73//4 78//5 79//5
f 73//4 74//4 77//5 78//5
f 74//4 75//4 76//5 77//5
f 652//35 523//26 587//25
f 523//26 652//35 459//27
f 395//28 459//27 652//35
f 395//28 652//35 331//29
f 331//29 652//35 267//30
f 267//30 652//35 203//31
f 203//31 652//35 139//33
f 12//24 652//35 651//22
f 587//25 651//22 652//35
f 139//33 652//35 12//24
