# Blender v2.79 (sub 0) OBJ File: 'Burg Test.blend'
# www.blender.org
mtllib Seil_Heil.mtl
o Seil_Heil_Cylinder.004
v 0.902455 4.864293 -129.909439
v 0.090729 16.558840 -129.813004
v 0.176003 5.725613 -129.913010
v 0.090729 16.558840 -129.913010
v 0.226316 5.756001 -129.893906
v 0.149507 16.558840 -129.893906
v 0.257412 5.774783 -129.843903
v 0.185834 16.558840 -129.843903
v 0.257412 5.774783 -129.782104
v 0.185834 16.558840 -129.782104
v 0.226316 5.756001 -129.732101
v 0.149507 16.558840 -129.732101
v 0.176003 5.725613 -129.712997
v 0.090729 16.558840 -129.712997
v 0.125689 5.695224 -129.732101
v 0.031950 16.558840 -129.732101
v 0.094594 5.676443 -129.782104
v -0.004377 16.558840 -129.782104
v 0.094594 5.676443 -129.843903
v -0.004377 16.558840 -129.843903
v 0.125689 5.695224 -129.893906
v 0.031950 16.558840 -129.893906
v 0.090729 5.908944 -129.913010
v 0.090729 6.130145 -129.913010
v 0.090729 6.285797 -129.913010
v 0.090729 6.441449 -129.913010
v 0.090729 6.597101 -129.913010
v 0.090729 6.752753 -129.913010
v 0.090729 6.908405 -129.913010
v 0.090729 7.064057 -129.913010
v 0.090729 7.219709 -129.913010
v 0.090729 7.375361 -129.913010
v 0.090729 7.531013 -129.913010
v 0.090729 7.686666 -129.913010
v 0.090729 7.842319 -129.913010
v 0.090729 7.997971 -129.913010
v 0.090729 8.153623 -129.913010
v 0.090729 8.309275 -129.913010
v 0.090729 8.464928 -129.913010
v 0.090729 8.620580 -129.913010
v 0.090729 8.776232 -129.913010
v 0.090729 8.931884 -129.913010
v 0.090729 9.087536 -129.913010
v 0.090729 9.243188 -129.913010
v 0.090729 9.398840 -129.913010
v 0.090729 9.554492 -129.913010
v 0.090729 9.710144 -129.913010
v 0.090729 9.865797 -129.913010
v 0.090729 10.021449 -129.913010
v 0.090729 10.177101 -129.913010
v 0.090729 10.332753 -129.913010
v 0.090729 10.488405 -129.913010
v 0.090729 10.644057 -129.913010
v 0.090729 10.799709 -129.913010
v 0.090729 10.955362 -129.913010
v 0.090729 11.111014 -129.913010
v 0.090729 11.266666 -129.913010
v 0.090729 11.422318 -129.913010
v 0.090729 11.577971 -129.913010
v 0.090729 11.733623 -129.913010
v 0.090729 11.889275 -129.913010
v 0.090729 12.044928 -129.913010
v 0.090729 12.200579 -129.913010
v 0.090729 12.356232 -129.913010
v 0.090729 12.511884 -129.913010
v 0.090729 12.667536 -129.913010
v 0.090729 12.823188 -129.913010
v 0.090729 12.978840 -129.913010
v 0.090729 13.134493 -129.913010
v 0.090729 13.290144 -129.913010
v 0.090729 13.445797 -129.913010
v 0.090729 13.601449 -129.913010
v 0.090729 13.757101 -129.913010
v 0.090729 13.912753 -129.913010
v 0.090729 14.068405 -129.913010
v 0.090729 14.224058 -129.913010
v 0.090729 14.379710 -129.913010
v 0.090729 14.535362 -129.913010
v 0.090729 14.691014 -129.913010
v 0.090729 14.846666 -129.913010
v 0.090729 15.002318 -129.913010
v 0.090729 15.157970 -129.913010
v 0.090729 15.313623 -129.913010
v 0.090729 15.469275 -129.913010
v 0.090729 15.624928 -129.913010
v 0.090729 15.780579 -129.913010
v 0.090729 15.936232 -129.913010
v 0.090729 16.091883 -129.913010
v 0.090729 16.247536 -129.913010
v 0.090729 16.403189 -129.913010
v 0.149507 16.403189 -129.893906
v 0.149507 16.247536 -129.893906
v 0.149507 16.091885 -129.893906
v 0.149507 15.936232 -129.893906
v 0.149507 15.780581 -129.893906
v 0.149507 15.624928 -129.893906
v 0.149507 15.469276 -129.893906
v 0.149507 15.313623 -129.893906
v 0.149507 15.157971 -129.893906
v 0.149507 15.002319 -129.893906
v 0.149507 14.846667 -129.893906
v 0.149507 14.691015 -129.893906
v 0.149507 14.535362 -129.893906
v 0.149507 14.379710 -129.893906
v 0.149507 14.224058 -129.893906
v 0.149507 14.068406 -129.893906
v 0.149507 13.912754 -129.893906
v 0.149507 13.757101 -129.893906
v 0.149507 13.601449 -129.893906
v 0.149507 13.445797 -129.893906
v 0.149507 13.290145 -129.893906
v 0.149507 13.134493 -129.893906
v 0.149507 12.978841 -129.893906
v 0.149507 12.823189 -129.893906
v 0.149507 12.667536 -129.893906
v 0.149507 12.511885 -129.893906
v 0.149507 12.356232 -129.893906
v 0.149507 12.200580 -129.893906
v 0.149507 12.044928 -129.893906
v 0.149507 11.889276 -129.893906
v 0.149507 11.733624 -129.893906
v 0.149507 11.577971 -129.893906
v 0.149507 11.422319 -129.893906
v 0.149507 11.266666 -129.893906
v 0.149507 11.111014 -129.893906
v 0.149507 10.955362 -129.893906
v 0.149507 10.799710 -129.893906
v 0.149507 10.644058 -129.893906
v 0.149507 10.488406 -129.893906
v 0.149507 10.332754 -129.893906
v 0.149507 10.177101 -129.893906
v 0.149507 10.021449 -129.893906
v 0.149507 9.865797 -129.893906
v 0.149507 9.710145 -129.893906
v 0.149507 9.554493 -129.893906
v 0.149507 9.398841 -129.893906
v 0.149507 9.243189 -129.893906
v 0.149507 9.087536 -129.893906
v 0.149507 8.931884 -129.893906
v 0.149507 8.776232 -129.893906
v 0.149507 8.620580 -129.893906
v 0.149507 8.464928 -129.893906
v 0.149507 8.309275 -129.893906
v 0.149507 8.153624 -129.893906
v 0.149507 7.997971 -129.893906
v 0.149507 7.842319 -129.893906
v 0.149507 7.686666 -129.893906
v 0.149507 7.531014 -129.893906
v 0.149507 7.375362 -129.893906
v 0.149507 7.219710 -129.893906
v 0.149507 7.064058 -129.893906
v 0.149507 6.908406 -129.893906
v 0.149507 6.752754 -129.893906
v 0.149507 6.597102 -129.893906
v 0.149507 6.441450 -129.893906
v 0.149507 6.285798 -129.893906
v 0.149507 6.130145 -129.893906
v 0.149507 5.908944 -129.893906
v 0.185834 16.403189 -129.843903
v 0.185834 16.247536 -129.843903
v 0.185834 16.091885 -129.843903
v 0.185834 15.936232 -129.843903
v 0.185834 15.780581 -129.843903
v 0.185834 15.624928 -129.843903
v 0.185834 15.469276 -129.843903
v 0.185834 15.313623 -129.843903
v 0.185834 15.157971 -129.843903
v 0.185834 15.002319 -129.843903
v 0.185834 14.846667 -129.843903
v 0.185834 14.691015 -129.843903
v 0.185834 14.535362 -129.843903
v 0.185834 14.379710 -129.843903
v 0.185834 14.224058 -129.843903
v 0.185834 14.068406 -129.843903
v 0.185834 13.912754 -129.843903
v 0.185834 13.757101 -129.843903
v 0.185834 13.601449 -129.843903
v 0.185834 13.445797 -129.843903
v 0.185834 13.290145 -129.843903
v 0.185834 13.134493 -129.843903
v 0.185834 12.978841 -129.843903
v 0.185834 12.823189 -129.843903
v 0.185834 12.667536 -129.843903
v 0.185834 12.511885 -129.843903
v 0.185834 12.356232 -129.843903
v 0.185834 12.200580 -129.843903
v 0.185834 12.044928 -129.843903
v 0.185834 11.889276 -129.843903
v 0.185834 11.733624 -129.843903
v 0.185834 11.577971 -129.843903
v 0.185834 11.422319 -129.843903
v 0.185834 11.266666 -129.843903
v 0.185834 11.111014 -129.843903
v 0.185834 10.955362 -129.843903
v 0.185834 10.799710 -129.843903
v 0.185834 10.644058 -129.843903
v 0.185834 10.488406 -129.843903
v 0.185834 10.332754 -129.843903
v 0.185834 10.177101 -129.843903
v 0.185834 10.021449 -129.843903
v 0.185834 9.865797 -129.843903
v 0.185834 9.710145 -129.843903
v 0.185834 9.554493 -129.843903
v 0.185834 9.398841 -129.843903
v 0.185834 9.243189 -129.843903
v 0.185834 9.087536 -129.843903
v 0.185834 8.931884 -129.843903
v 0.185834 8.776232 -129.843903
v 0.185834 8.620580 -129.843903
v 0.185834 8.464928 -129.843903
v 0.185834 8.309275 -129.843903
v 0.185834 8.153624 -129.843903
v 0.185834 7.997971 -129.843903
v 0.185834 7.842319 -129.843903
v 0.185834 7.686666 -129.843903
v 0.185834 7.531014 -129.843903
v 0.185834 7.375362 -129.843903
v 0.185834 7.219710 -129.843903
v 0.185834 7.064058 -129.843903
v 0.185834 6.908406 -129.843903
v 0.185834 6.752754 -129.843903
v 0.185834 6.597102 -129.843903
v 0.185834 6.441450 -129.843903
v 0.185834 6.285798 -129.843903
v 0.185834 6.130145 -129.843903
v 0.185834 5.908944 -129.843903
v 0.185834 16.403189 -129.782104
v 0.185834 16.247536 -129.782104
v 0.185834 16.091885 -129.782104
v 0.185834 15.936232 -129.782104
v 0.185834 15.780581 -129.782104
v 0.185834 15.624928 -129.782104
v 0.185834 15.469276 -129.782104
v 0.185834 15.313623 -129.782104
v 0.185834 15.157971 -129.782104
v 0.185834 15.002319 -129.782104
v 0.185834 14.846667 -129.782104
v 0.185834 14.691015 -129.782104
v 0.185834 14.535362 -129.782104
v 0.185834 14.379710 -129.782104
v 0.185834 14.224058 -129.782104
v 0.185834 14.068406 -129.782104
v 0.185834 13.912754 -129.782104
v 0.185834 13.757101 -129.782104
v 0.185834 13.601449 -129.782104
v 0.185834 13.445797 -129.782104
v 0.185834 13.290145 -129.782104
v 0.185834 13.134493 -129.782104
v 0.185834 12.978841 -129.782104
v 0.185834 12.823189 -129.782104
v 0.185834 12.667536 -129.782104
v 0.185834 12.511885 -129.782104
v 0.185834 12.356232 -129.782104
v 0.185834 12.200580 -129.782104
v 0.185834 12.044928 -129.782104
v 0.185834 11.889276 -129.782104
v 0.185834 11.733624 -129.782104
v 0.185834 11.577971 -129.782104
v 0.185834 11.422319 -129.782104
v 0.185834 11.266666 -129.782104
v 0.185834 11.111014 -129.782104
v 0.185834 10.955362 -129.782104
v 0.185834 10.799710 -129.782104
v 0.185834 10.644058 -129.782104
v 0.185834 10.488406 -129.782104
v 0.185834 10.332754 -129.782104
v 0.185834 10.177101 -129.782104
v 0.185834 10.021449 -129.782104
v 0.185834 9.865797 -129.782104
v 0.185834 9.710145 -129.782104
v 0.185834 9.554493 -129.782104
v 0.185834 9.398841 -129.782104
v 0.185834 9.243189 -129.782104
v 0.185834 9.087536 -129.782104
v 0.185834 8.931884 -129.782104
v 0.185834 8.776232 -129.782104
v 0.185834 8.620580 -129.782104
v 0.185834 8.464928 -129.782104
v 0.185834 8.309275 -129.782104
v 0.185834 8.153624 -129.782104
v 0.185834 7.997971 -129.782104
v 0.185834 7.842319 -129.782104
v 0.185834 7.686666 -129.782104
v 0.185834 7.531014 -129.782104
v 0.185834 7.375362 -129.782104
v 0.185834 7.219710 -129.782104
v 0.185834 7.064058 -129.782104
v 0.185834 6.908406 -129.782104
v 0.185834 6.752754 -129.782104
v 0.185834 6.597102 -129.782104
v 0.185834 6.441450 -129.782104
v 0.185834 6.285798 -129.782104
v 0.185834 6.130145 -129.782104
v 0.185834 5.908944 -129.782104
v 0.149507 16.403189 -129.732101
v 0.149507 16.247536 -129.732101
v 0.149507 16.091885 -129.732101
v 0.149507 15.936232 -129.732101
v 0.149507 15.780581 -129.732101
v 0.149507 15.624928 -129.732101
v 0.149507 15.469276 -129.732101
v 0.149507 15.313623 -129.732101
v 0.149507 15.157971 -129.732101
v 0.149507 15.002319 -129.732101
v 0.149507 14.846667 -129.732101
v 0.149507 14.691015 -129.732101
v 0.149507 14.535362 -129.732101
v 0.149507 14.379710 -129.732101
v 0.149507 14.224058 -129.732101
v 0.149507 14.068406 -129.732101
v 0.149507 13.912754 -129.732101
v 0.149507 13.757101 -129.732101
v 0.149507 13.601449 -129.732101
v 0.149507 13.445797 -129.732101
v 0.149507 13.290145 -129.732101
v 0.149507 13.134493 -129.732101
v 0.149507 12.978841 -129.732101
v 0.149507 12.823189 -129.732101
v 0.149507 12.667536 -129.732101
v 0.149507 12.511885 -129.732101
v 0.149507 12.356232 -129.732101
v 0.149507 12.200580 -129.732101
v 0.149507 12.044928 -129.732101
v 0.149507 11.889276 -129.732101
v 0.149507 11.733624 -129.732101
v 0.149507 11.577971 -129.732101
v 0.149507 11.422319 -129.732101
v 0.149507 11.266666 -129.732101
v 0.149507 11.111014 -129.732101
v 0.149507 10.955362 -129.732101
v 0.149507 10.799710 -129.732101
v 0.149507 10.644058 -129.732101
v 0.149507 10.488406 -129.732101
v 0.149507 10.332754 -129.732101
v 0.149507 10.177101 -129.732101
v 0.149507 10.021449 -129.732101
v 0.149507 9.865797 -129.732101
v 0.149507 9.710145 -129.732101
v 0.149507 9.554493 -129.732101
v 0.149507 9.398841 -129.732101
v 0.149507 9.243189 -129.732101
v 0.149507 9.087536 -129.732101
v 0.149507 8.931884 -129.732101
v 0.149507 8.776232 -129.732101
v 0.149507 8.620580 -129.732101
v 0.149507 8.464928 -129.732101
v 0.149507 8.309275 -129.732101
v 0.149507 8.153624 -129.732101
v 0.149507 7.997971 -129.732101
v 0.149507 7.842319 -129.732101
v 0.149507 7.686666 -129.732101
v 0.149507 7.531014 -129.732101
v 0.149507 7.375362 -129.732101
v 0.149507 7.219710 -129.732101
v 0.149507 7.064058 -129.732101
v 0.149507 6.908406 -129.732101
v 0.149507 6.752754 -129.732101
v 0.149507 6.597102 -129.732101
v 0.149507 6.441450 -129.732101
v 0.149507 6.285798 -129.732101
v 0.149507 6.130145 -129.732101
v 0.149507 5.908944 -129.732101
v 0.090729 16.403189 -129.712997
v 0.090729 16.247536 -129.712997
v 0.090729 16.091885 -129.712997
v 0.090729 15.936232 -129.712997
v 0.090729 15.780581 -129.712997
v 0.090729 15.624928 -129.712997
v 0.090729 15.469276 -129.712997
v 0.090729 15.313623 -129.712997
v 0.090729 15.157971 -129.712997
v 0.090729 15.002319 -129.712997
v 0.090729 14.846667 -129.712997
v 0.090729 14.691015 -129.712997
v 0.090729 14.535362 -129.712997
v 0.090729 14.379710 -129.712997
v 0.090729 14.224058 -129.712997
v 0.090729 14.068406 -129.712997
v 0.090729 13.912754 -129.712997
v 0.090729 13.757101 -129.712997
v 0.090729 13.601449 -129.712997
v 0.090729 13.445797 -129.712997
v 0.090729 13.290145 -129.712997
v 0.090729 13.134493 -129.712997
v 0.090729 12.978841 -129.712997
v 0.090729 12.823189 -129.712997
v 0.090729 12.667536 -129.712997
v 0.090729 12.511885 -129.712997
v 0.090729 12.356232 -129.712997
v 0.090729 12.200580 -129.712997
v 0.090729 12.044928 -129.712997
v 0.090729 11.889276 -129.712997
v 0.090729 11.733624 -129.712997
v 0.090729 11.577971 -129.712997
v 0.090729 11.422319 -129.712997
v 0.090729 11.266666 -129.712997
v 0.090729 11.111014 -129.712997
v 0.090729 10.955362 -129.712997
v 0.090729 10.799710 -129.712997
v 0.090729 10.644058 -129.712997
v 0.090729 10.488406 -129.712997
v 0.090729 10.332754 -129.712997
v 0.090729 10.177101 -129.712997
v 0.090729 10.021449 -129.712997
v 0.090729 9.865797 -129.712997
v 0.090729 9.710145 -129.712997
v 0.090729 9.554493 -129.712997
v 0.090729 9.398841 -129.712997
v 0.090729 9.243189 -129.712997
v 0.090729 9.087536 -129.712997
v 0.090729 8.931884 -129.712997
v 0.090729 8.776232 -129.712997
v 0.090729 8.620580 -129.712997
v 0.090729 8.464928 -129.712997
v 0.090729 8.309275 -129.712997
v 0.090729 8.153624 -129.712997
v 0.090729 7.997971 -129.712997
v 0.090729 7.842319 -129.712997
v 0.090729 7.686666 -129.712997
v 0.090729 7.531014 -129.712997
v 0.090729 7.375362 -129.712997
v 0.090729 7.219710 -129.712997
v 0.090729 7.064058 -129.712997
v 0.090729 6.908406 -129.712997
v 0.090729 6.752754 -129.712997
v 0.090729 6.597102 -129.712997
v 0.090729 6.441450 -129.712997
v 0.090729 6.285798 -129.712997
v 0.090729 6.130145 -129.712997
v 0.090729 5.908944 -129.712997
v 0.031950 16.403189 -129.732101
v 0.031950 16.247536 -129.732101
v 0.031950 16.091885 -129.732101
v 0.031950 15.936232 -129.732101
v 0.031950 15.780581 -129.732101
v 0.031950 15.624928 -129.732101
v 0.031950 15.469276 -129.732101
v 0.031950 15.313623 -129.732101
v 0.031950 15.157971 -129.732101
v 0.031950 15.002319 -129.732101
v 0.031950 14.846667 -129.732101
v 0.031950 14.691015 -129.732101
v 0.031950 14.535362 -129.732101
v 0.031950 14.379710 -129.732101
v 0.031950 14.224058 -129.732101
v 0.031950 14.068406 -129.732101
v 0.031950 13.912754 -129.732101
v 0.031950 13.757101 -129.732101
v 0.031950 13.601449 -129.732101
v 0.031950 13.445797 -129.732101
v 0.031950 13.290145 -129.732101
v 0.031950 13.134493 -129.732101
v 0.031950 12.978841 -129.732101
v 0.031950 12.823189 -129.732101
v 0.031950 12.667536 -129.732101
v 0.031950 12.511885 -129.732101
v 0.031950 12.356232 -129.732101
v 0.031950 12.200580 -129.732101
v 0.031950 12.044928 -129.732101
v 0.031950 11.889276 -129.732101
v 0.031950 11.733624 -129.732101
v 0.031950 11.577971 -129.732101
v 0.031950 11.422319 -129.732101
v 0.031950 11.266666 -129.732101
v 0.031950 11.111014 -129.732101
v 0.031950 10.955362 -129.732101
v 0.031950 10.799710 -129.732101
v 0.031950 10.644058 -129.732101
v 0.031950 10.488406 -129.732101
v 0.031950 10.332754 -129.732101
v 0.031950 10.177101 -129.732101
v 0.031950 10.021449 -129.732101
v 0.031950 9.865797 -129.732101
v 0.031950 9.710145 -129.732101
v 0.031950 9.554493 -129.732101
v 0.031950 9.398841 -129.732101
v 0.031950 9.243189 -129.732101
v 0.031950 9.087536 -129.732101
v 0.031950 8.931884 -129.732101
v 0.031950 8.776232 -129.732101
v 0.031950 8.620580 -129.732101
v 0.031950 8.464928 -129.732101
v 0.031950 8.309275 -129.732101
v 0.031950 8.153624 -129.732101
v 0.031950 7.997971 -129.732101
v 0.031950 7.842319 -129.732101
v 0.031950 7.686666 -129.732101
v 0.031950 7.531014 -129.732101
v 0.031950 7.375362 -129.732101
v 0.031950 7.219710 -129.732101
v 0.031950 7.064058 -129.732101
v 0.031950 6.908406 -129.732101
v 0.031950 6.752754 -129.732101
v 0.031950 6.597102 -129.732101
v 0.031950 6.441450 -129.732101
v 0.031950 6.285798 -129.732101
v 0.031950 6.130145 -129.732101
v 0.031950 5.908944 -129.732101
v -0.004377 16.403189 -129.782104
v -0.004377 16.247536 -129.782104
v -0.004377 16.091885 -129.782104
v -0.004377 15.936232 -129.782104
v -0.004377 15.780581 -129.782104
v -0.004377 15.624928 -129.782104
v -0.004377 15.469276 -129.782104
v -0.004377 15.313623 -129.782104
v -0.004377 15.157971 -129.782104
v -0.004377 15.002319 -129.782104
v -0.004377 14.846667 -129.782104
v -0.004377 14.691015 -129.782104
v -0.004377 14.535362 -129.782104
v -0.004377 14.379710 -129.782104
v -0.004377 14.224058 -129.782104
v -0.004377 14.068406 -129.782104
v -0.004377 13.912754 -129.782104
v -0.004377 13.757101 -129.782104
v -0.004377 13.601449 -129.782104
v -0.004377 13.445797 -129.782104
v -0.004377 13.290145 -129.782104
v -0.004377 13.134493 -129.782104
v -0.004377 12.978841 -129.782104
v -0.004377 12.823189 -129.782104
v -0.004377 12.667536 -129.782104
v -0.004377 12.511885 -129.782104
v -0.004377 12.356232 -129.782104
v -0.004377 12.200580 -129.782104
v -0.004377 12.044928 -129.782104
v -0.004377 11.889276 -129.782104
v -0.004377 11.733624 -129.782104
v -0.004377 11.577971 -129.782104
v -0.004377 11.422319 -129.782104
v -0.004377 11.266666 -129.782104
v -0.004377 11.111014 -129.782104
v -0.004377 10.955362 -129.782104
v -0.004377 10.799710 -129.782104
v -0.004377 10.644058 -129.782104
v -0.004377 10.488406 -129.782104
v -0.004377 10.332754 -129.782104
v -0.004377 10.177101 -129.782104
v -0.004377 10.021449 -129.782104
v -0.004377 9.865797 -129.782104
v -0.004377 9.710145 -129.782104
v -0.004377 9.554493 -129.782104
v -0.004377 9.398841 -129.782104
v -0.004377 9.243189 -129.782104
v -0.004377 9.087536 -129.782104
v -0.004377 8.931884 -129.782104
v -0.004377 8.776232 -129.782104
v -0.004377 8.620580 -129.782104
v -0.004377 8.464928 -129.782104
v -0.004377 8.309275 -129.782104
v -0.004377 8.153624 -129.782104
v -0.004377 7.997971 -129.782104
v -0.004377 7.842319 -129.782104
v -0.004377 7.686666 -129.782104
v -0.004377 7.531014 -129.782104
v -0.004377 7.375362 -129.782104
v -0.004377 7.219710 -129.782104
v -0.004377 7.064058 -129.782104
v -0.004377 6.908406 -129.782104
v -0.004377 6.752754 -129.782104
v -0.004377 6.597102 -129.782104
v -0.004377 6.441450 -129.782104
v -0.004377 6.285798 -129.782104
v -0.004377 6.130145 -129.782104
v -0.004377 5.908944 -129.782104
v -0.004377 16.403189 -129.843903
v -0.004377 16.247536 -129.843903
v -0.004377 16.091885 -129.843903
v -0.004377 15.936232 -129.843903
v -0.004377 15.780581 -129.843903
v -0.004377 15.624928 -129.843903
v -0.004377 15.469276 -129.843903
v -0.004377 15.313623 -129.843903
v -0.004377 15.157971 -129.843903
v -0.004377 15.002319 -129.843903
v -0.004377 14.846667 -129.843903
v -0.004377 14.691015 -129.843903
v -0.004377 14.535362 -129.843903
v -0.004377 14.379710 -129.843903
v -0.004377 14.224058 -129.843903
v -0.004377 14.068406 -129.843903
v -0.004377 13.912754 -129.843903
v -0.004377 13.757101 -129.843903
v -0.004377 13.601449 -129.843903
v -0.004377 13.445797 -129.843903
v -0.004377 13.290145 -129.843903
v -0.004377 13.134493 -129.843903
v -0.004377 12.978841 -129.843903
v -0.004377 12.823189 -129.843903
v -0.004377 12.667536 -129.843903
v -0.004377 12.511885 -129.843903
v -0.004377 12.356232 -129.843903
v -0.004377 12.200580 -129.843903
v -0.004377 12.044928 -129.843903
v -0.004377 11.889276 -129.843903
v -0.004377 11.733624 -129.843903
v -0.004377 11.577971 -129.843903
v -0.004377 11.422319 -129.843903
v -0.004377 11.266666 -129.843903
v -0.004377 11.111014 -129.843903
v -0.004377 10.955362 -129.843903
v -0.004377 10.799710 -129.843903
v -0.004377 10.644058 -129.843903
v -0.004377 10.488406 -129.843903
v -0.004377 10.332754 -129.843903
v -0.004377 10.177101 -129.843903
v -0.004377 10.021449 -129.843903
v -0.004377 9.865797 -129.843903
v -0.004377 9.710145 -129.843903
v -0.004377 9.554493 -129.843903
v -0.004377 9.398841 -129.843903
v -0.004377 9.243189 -129.843903
v -0.004377 9.087536 -129.843903
v -0.004377 8.931884 -129.843903
v -0.004377 8.776232 -129.843903
v -0.004377 8.620580 -129.843903
v -0.004377 8.464928 -129.843903
v -0.004377 8.309275 -129.843903
v -0.004377 8.153624 -129.843903
v -0.004377 7.997971 -129.843903
v -0.004377 7.842319 -129.843903
v -0.004377 7.686666 -129.843903
v -0.004377 7.531014 -129.843903
v -0.004377 7.375362 -129.843903
v -0.004377 7.219710 -129.843903
v -0.004377 7.064058 -129.843903
v -0.004377 6.908406 -129.843903
v -0.004377 6.752754 -129.843903
v -0.004377 6.597102 -129.843903
v -0.004377 6.441450 -129.843903
v -0.004377 6.285798 -129.843903
v -0.004377 6.130145 -129.843903
v -0.004377 5.908944 -129.843903
v 0.031950 16.403189 -129.893906
v 0.031950 16.247536 -129.893906
v 0.031950 16.091885 -129.893906
v 0.031950 15.936232 -129.893906
v 0.031950 15.780581 -129.893906
v 0.031950 15.624928 -129.893906
v 0.031950 15.469276 -129.893906
v 0.031950 15.313623 -129.893906
v 0.031950 15.157971 -129.893906
v 0.031950 15.002319 -129.893906
v 0.031950 14.846667 -129.893906
v 0.031950 14.691015 -129.893906
v 0.031950 14.535362 -129.893906
v 0.031950 14.379710 -129.893906
v 0.031950 14.224058 -129.893906
v 0.031950 14.068406 -129.893906
v 0.031950 13.912754 -129.893906
v 0.031950 13.757101 -129.893906
v 0.031950 13.601449 -129.893906
v 0.031950 13.445797 -129.893906
v 0.031950 13.290145 -129.893906
v 0.031950 13.134493 -129.893906
v 0.031950 12.978841 -129.893906
v 0.031950 12.823189 -129.893906
v 0.031950 12.667536 -129.893906
v 0.031950 12.511885 -129.893906
v 0.031950 12.356232 -129.893906
v 0.031950 12.200580 -129.893906
v 0.031950 12.044928 -129.893906
v 0.031950 11.889276 -129.893906
v 0.031950 11.733624 -129.893906
v 0.031950 11.577971 -129.893906
v 0.031950 11.422319 -129.893906
v 0.031950 11.266666 -129.893906
v 0.031950 11.111014 -129.893906
v 0.031950 10.955362 -129.893906
v 0.031950 10.799710 -129.893906
v 0.031950 10.644058 -129.893906
v 0.031950 10.488406 -129.893906
v 0.031950 10.332754 -129.893906
v 0.031950 10.177101 -129.893906
v 0.031950 10.021449 -129.893906
v 0.031950 9.865797 -129.893906
v 0.031950 9.710145 -129.893906
v 0.031950 9.554493 -129.893906
v 0.031950 9.398841 -129.893906
v 0.031950 9.243189 -129.893906
v 0.031950 9.087536 -129.893906
v 0.031950 8.931884 -129.893906
v 0.031950 8.776232 -129.893906
v 0.031950 8.620580 -129.893906
v 0.031950 8.464928 -129.893906
v 0.031950 8.309275 -129.893906
v 0.031950 8.153624 -129.893906
v 0.031950 7.997971 -129.893906
v 0.031950 7.842319 -129.893906
v 0.031950 7.686666 -129.893906
v 0.031950 7.531014 -129.893906
v 0.031950 7.375362 -129.893906
v 0.031950 7.219710 -129.893906
v 0.031950 7.064058 -129.893906
v 0.031950 6.908406 -129.893906
v 0.031950 6.752754 -129.893906
v 0.031950 6.597102 -129.893906
v 0.031950 6.441450 -129.893906
v 0.031950 6.285798 -129.893906
v 0.031950 6.130145 -129.893906
v 0.031950 5.908944 -129.893906
v 0.393966 5.682447 -129.896439
v 0.425308 5.720165 -129.880508
v 0.444678 5.743477 -129.838791
v 0.444678 5.743477 -129.787216
v 0.425308 5.720165 -129.745499
v 0.393966 5.682447 -129.729568
v 0.362624 5.644729 -129.745499
v 0.343254 5.621417 -129.787216
v 0.343254 5.621417 -129.838791
v 0.362624 5.644729 -129.880508
v 0.635059 5.609354 -129.896439
v 0.666401 5.647073 -129.880508
v 0.685771 5.670384 -129.838791
v 0.685771 5.670384 -129.787216
v 0.666401 5.647073 -129.745499
v 0.635059 5.609354 -129.729568
v 0.603717 5.571636 -129.745499
v 0.584347 5.548325 -129.787216
v 0.584347 5.548325 -129.838791
v 0.603717 5.571637 -129.880508
v 0.818139 5.465018 -129.894318
v 0.856581 5.495468 -129.878387
v 0.880339 5.514288 -129.836670
v 0.880339 5.514288 -129.785110
v 0.856581 5.495468 -129.743393
v 0.818139 5.465018 -129.727463
v 0.779697 5.434567 -129.743393
v 0.755939 5.415748 -129.785110
v 0.755939 5.415748 -129.836670
v 0.779697 5.434568 -129.878387
v 0.960704 5.042390 -129.910797
v 1.009414 5.048071 -129.894867
v 1.039520 5.051583 -129.853149
v 1.039520 5.051583 -129.801590
v 1.009414 5.048071 -129.759872
v 0.960704 5.042390 -129.743942
v 0.911993 5.036709 -129.759872
v 0.881889 5.033197 -129.801590
v 0.881889 5.033197 -129.853149
v 0.911994 5.036709 -129.894867
v 0.773495 4.678374 -129.909821
v 0.809697 4.644856 -129.894836
v 0.832744 4.623969 -129.853699
v 0.833830 4.623690 -129.802155
v 0.812542 4.644126 -129.759872
v 0.777012 4.677472 -129.742996
v 0.740810 4.710990 -129.757996
v 0.717763 4.731878 -129.799118
v 0.716676 4.732157 -129.850677
v 0.737965 4.711720 -129.892960
v 0.385884 4.556129 -129.899628
v 0.399672 4.508750 -129.884659
v 0.409254 4.479118 -129.843567
v 0.410969 4.478553 -129.792023
v 0.404161 4.507270 -129.749741
v 0.391432 4.554299 -129.732864
v 0.377644 4.601679 -129.747833
v 0.368062 4.631310 -129.788925
v 0.366348 4.631876 -129.840454
v 0.373156 4.603159 -129.882736
v -0.040764 4.521069 -129.896439
v -0.037448 4.472140 -129.880508
v -0.035398 4.441900 -129.838791
v -0.035398 4.441900 -129.787216
v -0.037448 4.472140 -129.745499
v -0.040764 4.521069 -129.729568
v -0.044080 4.569997 -129.745499
v -0.046131 4.600237 -129.787216
v -0.046131 4.600237 -129.838791
v -0.044081 4.569996 -129.880508
v -0.408083 4.561501 -129.888031
v -0.435057 4.520545 -129.872101
v -0.451728 4.495232 -129.830383
v -0.451728 4.495232 -129.778809
v -0.435057 4.520545 -129.737091
v -0.408083 4.561501 -129.721161
v -0.381109 4.602457 -129.737091
v -0.364439 4.627770 -129.778809
v -0.364439 4.627770 -129.830383
v -0.381110 4.602457 -129.872101
v -0.607431 4.822512 -129.866409
v -0.649866 4.797930 -129.850479
v -0.676092 4.782737 -129.808762
v -0.676092 4.782737 -129.757187
v -0.649866 4.797930 -129.715469
v -0.607431 4.822512 -129.699539
v -0.564996 4.847094 -129.715469
v -0.538770 4.862287 -129.757187
v -0.538770 4.862287 -129.808762
v -0.564997 4.847094 -129.850479
v -0.651189 5.160062 -129.856445
v -0.699675 5.152708 -129.840515
v -0.729642 5.148162 -129.798798
v -0.729642 5.148162 -129.747223
v -0.699675 5.152708 -129.705505
v -0.651189 5.160062 -129.689575
v -0.602703 5.167417 -129.705505
v -0.572737 5.171963 -129.747223
v -0.572737 5.171963 -129.798798
v -0.602704 5.167417 -129.840515
v -0.534357 5.478304 -129.833054
v -0.578062 5.500549 -129.817123
v -0.605074 5.514297 -129.775406
v -0.605074 5.514297 -129.723831
v -0.578062 5.500549 -129.682114
v -0.534357 5.478304 -129.666183
v -0.490652 5.456058 -129.682114
v -0.463640 5.442310 -129.723831
v -0.463640 5.442310 -129.775406
v -0.490652 5.456059 -129.817123
v -0.214409 5.664654 -129.776306
v -0.243095 5.704429 -129.760376
v -0.260825 5.729012 -129.718658
v -0.260825 5.729012 -129.667084
v -0.243095 5.704429 -129.625366
v -0.214409 5.664654 -129.609436
v -0.185723 5.624878 -129.625366
v -0.167992 5.600296 -129.667084
v -0.167992 5.600296 -129.718658
v -0.185723 5.624879 -129.760376
v 0.114439 5.746534 -129.726196
v 0.098762 5.793002 -129.710266
v 0.089072 5.821720 -129.668549
v 0.089072 5.821720 -129.616974
v 0.098762 5.793002 -129.575256
v 0.114439 5.746534 -129.559326
v 0.130115 5.700067 -129.575256
v 0.139805 5.671348 -129.616974
v 0.139805 5.671348 -129.668549
v 0.130115 5.700067 -129.710266
v 0.904214 4.863842 -129.742584
v 0.972031 4.841547 -129.800995
v 0.946334 4.850009 -129.758987
v 0.834638 4.886588 -129.851028
v 0.860335 4.878125 -129.893036
v 0.944912 4.850374 -129.893967
v 0.971487 4.841686 -129.852554
v 0.861757 4.877760 -129.758057
v 0.835182 4.886448 -129.799469
v 0.929880 5.274745 -129.903732
v 1.000068 5.304748 -129.794510
v 0.859692 5.244741 -129.846085
v 0.886502 5.256202 -129.887802
v 0.973258 5.293287 -129.887802
v 1.000068 5.304748 -129.846085
v 0.886501 5.256202 -129.752792
v 0.859692 5.244741 -129.794510
v 0.973258 5.293287 -129.752792
v 0.929880 5.274745 -129.736862
v 0.171841 5.842337 -129.704468
v 0.222718 5.821677 -129.796494
v 0.201556 5.845757 -129.782761
v 0.196135 5.865924 -129.754822
v 0.208526 5.874474 -129.723358
v 0.233997 5.868140 -129.700394
v 0.262817 5.849342 -129.694687
v 0.283979 5.825261 -129.708420
v 0.289400 5.805095 -129.736359
v 0.277009 5.796545 -129.767822
v 0.251538 5.802879 -129.790787
v 0.207238 5.832721 -129.838669
v 0.196703 5.857051 -129.830429
v 0.203261 5.882352 -129.821075
v 0.224409 5.898962 -129.814163
v 0.252067 5.900534 -129.812347
v 0.275673 5.886469 -129.816315
v 0.286208 5.862139 -129.824554
v 0.279650 5.836837 -129.833908
v 0.258502 5.820228 -129.840820
v 0.230843 5.818656 -129.842636
v 0.259965 5.770461 -129.675125
v 0.182610 5.822121 -129.735199
v 0.206095 5.795899 -129.748596
v 0.225711 5.816899 -129.630997
v 0.249196 5.790678 -129.644379
v 0.177903 5.848826 -129.668121
v 0.198480 5.839110 -129.640060
v 0.253903 5.763971 -129.711456
v 0.233326 5.773688 -129.739517
v 0.130296 5.856096 -129.911148
v 0.129480 5.875351 -129.903381
v 0.135102 5.895079 -129.906708
v 0.145016 5.907743 -129.919861
v 0.155434 5.908507 -129.937836
v 0.162377 5.897079 -129.953735
v 0.163194 5.877823 -129.961517
v 0.157571 5.858096 -129.958176
v 0.147658 5.845431 -129.945023
v 0.137239 5.844668 -129.927063
v 0.011476 5.822542 -129.891983
v 0.018390 5.836451 -129.878189
v 0.026482 5.855478 -129.876099
v 0.032661 5.872356 -129.886536
v 0.034566 5.880638 -129.905487
v 0.031471 5.877161 -129.925751
v 0.024557 5.863252 -129.939545
v 0.016465 5.844225 -129.941635
v 0.010286 5.827347 -129.931213
v 0.008381 5.819065 -129.912247
v -0.008690 5.837998 -129.829346
v 0.001434 5.841657 -129.825821
v 0.007608 5.850917 -129.823730
v 0.007473 5.862242 -129.823853
v 0.001080 5.871306 -129.826141
v -0.009128 5.874647 -129.829742
v -0.019253 5.870987 -129.833252
v -0.025427 5.861727 -129.835358
v -0.025291 5.850402 -129.835236
v -0.018898 5.841339 -129.832947
v 0.174106 5.843482 -129.895172
v 0.188642 5.830555 -129.909714
v 0.169098 5.866748 -129.884384
v 0.229001 5.874349 -129.925629
v 0.209457 5.910542 -129.900299
v 0.223993 5.897615 -129.914841
v 0.175531 5.891465 -129.881470
v 0.190946 5.908193 -129.887543
v 0.222568 5.849631 -129.928528
v 0.207153 5.832903 -129.922455
v 0.066217 5.842051 -129.918228
v 0.085368 5.892362 -129.919525
v 0.069429 5.840956 -129.955658
v 0.065563 5.835565 -129.936798
v 0.071143 5.857935 -129.907074
v 0.078458 5.877153 -129.907562
v 0.083654 5.875383 -129.968124
v 0.076338 5.856165 -129.967636
v 0.089234 5.897753 -129.938400
v 0.088579 5.891267 -129.956955
v 0.018959 5.855061 -129.743774
v 0.014631 5.842382 -129.738113
v 0.021457 5.840734 -129.743729
v 0.027328 5.844558 -129.749359
v 0.030003 5.852395 -129.752853
v 0.028460 5.861248 -129.752884
v 0.023287 5.867740 -129.749435
v 0.016461 5.869387 -129.743820
v 0.010590 5.865563 -129.738190
v 0.007915 5.857727 -129.734695
v 0.009459 5.848873 -129.734665
vn 0.5347 0.7813 -0.3221
vn 0.5347 0.7813 0.3220
vn 0.2293 0.9352 0.2699
vn 0.2293 0.9352 -0.2699
vn 0.0000 1.0000 0.0000
vn 0.4498 0.6437 -0.6191
vn 0.0000 0.6437 -0.7653
vn 0.0000 0.0000 -1.0000
vn 0.5878 0.0000 -0.8090
vn -0.3833 -0.5248 -0.7600
vn -0.0056 -0.1307 -0.9914
vn 0.0273 -0.0083 -0.9996
vn -0.1380 -0.6339 -0.7610
vn 0.7278 0.6437 -0.2365
vn 0.9510 0.0000 -0.3090
vn 0.3418 0.4081 0.8465
vn -0.0056 -0.1307 0.9914
vn 0.0273 -0.0083 0.9996
vn 0.1658 0.6228 0.7646
vn 0.7278 0.6437 0.2365
vn 0.9510 0.0000 0.3090
vn -0.3833 -0.5248 0.7600
vn -0.6252 -0.7269 0.2840
vn -0.2347 -0.9343 0.2682
vn -0.1380 -0.6339 0.7610
vn 0.4498 0.6437 0.6191
vn 0.5878 0.0000 0.8090
vn -0.6252 -0.7269 -0.2840
vn -0.2347 -0.9343 -0.2682
vn 0.0000 0.6437 0.7653
vn 0.0000 0.0000 1.0000
vn 0.3418 0.4081 -0.8465
vn 0.1658 0.6228 -0.7646
vn -0.4498 0.6437 0.6191
vn -0.5878 0.0000 0.8090
vn -0.7278 0.6437 0.2365
vn -0.9510 0.0000 0.3090
vn -0.7278 0.6437 -0.2365
vn -0.9510 0.0000 -0.3090
vn -0.4498 0.6437 -0.6191
vn -0.5878 0.0000 -0.8090
vn -0.6000 -0.1290 -0.7895
vn -0.0412 -0.0168 -0.9990
vn -0.9363 -0.1858 -0.2980
vn -0.9363 -0.1858 0.2980
vn -0.6000 -0.1290 0.7895
vn -0.0412 -0.0168 0.9990
vn 0.5419 0.1276 0.8307
vn 0.9163 0.2364 0.3232
vn 0.9163 0.2364 -0.3232
vn 0.5419 0.1276 -0.8307
vn 0.2872 0.5482 -0.7855
vn 0.0142 0.0349 -0.9993
vn -0.2607 -0.5107 -0.8193
vn -0.2670 -0.5067 0.8197
vn 0.0078 0.0413 0.9991
vn 0.2822 0.5532 0.7837
vn 0.4498 0.8440 0.2920
vn -0.4281 -0.8479 -0.3125
vn 0.4517 0.8423 -0.2939
vn -0.4310 -0.8470 0.3112
vn -0.7114 -0.6285 -0.3146
vn -0.7013 -0.6352 0.3235
vn 0.4592 0.4104 -0.7878
vn 0.0192 0.0394 -0.9990
vn -0.4328 -0.3627 -0.8253
vn -0.4133 -0.3841 0.8256
vn 0.0349 0.0096 0.9993
vn 0.4686 0.3870 0.7941
vn 0.7280 0.6152 0.3026
vn 0.7246 0.6236 -0.2934
vn 0.8974 0.3258 -0.2975
vn 0.9044 0.3086 0.2946
vn 0.9563 -0.0728 0.2830
vn 0.9533 -0.0661 -0.2945
vn -0.8946 -0.3130 0.3189
vn -0.9026 -0.2877 -0.3202
vn -0.9443 0.1081 -0.3108
vn -0.9456 0.1005 0.3095
vn 0.0239 0.0437 -0.9987
vn 0.5706 0.2253 -0.7897
vn 0.6201 -0.0470 -0.7830
vn 0.0392 -0.0010 -0.9992
vn -0.5443 -0.1511 -0.8252
vn -0.5722 0.0652 -0.8175
vn 0.0529 -0.0222 0.9983
vn -0.5209 -0.2119 0.8269
vn -0.5688 0.0457 0.8212
vn 0.0509 -0.0244 0.9984
vn 0.5914 0.1777 0.7866
vn 0.6300 -0.0652 0.7739
vn 0.5730 -0.2712 0.7733
vn 0.0353 -0.0175 0.9992
vn 0.0516 -0.0656 0.9965
vn 0.3995 -0.5065 0.7641
vn 0.8652 -0.4057 -0.2947
vn 0.8706 -0.4067 0.2768
vn 0.6033 -0.7498 0.2716
vn 0.5918 -0.7452 -0.3072
vn -0.8412 0.4407 0.3133
vn -0.8479 0.4432 -0.2910
vn -0.5338 0.7870 -0.3093
vn -0.5220 0.7833 0.3375
vn 0.0173 -0.0131 -0.9998
vn 0.5591 -0.2684 -0.7844
vn 0.3681 -0.4936 -0.7879
vn 0.0111 -0.0491 -0.9987
vn -0.5340 0.2687 -0.8016
vn -0.3356 0.4528 -0.8260
vn -0.5177 0.2635 0.8139
vn -0.3030 0.4409 0.8448
vn 0.0223 -0.0297 0.9993
vn 0.1382 -0.6046 0.7844
vn 0.2020 -0.9367 0.2858
vn 0.1907 -0.9329 -0.3055
vn -0.1736 0.9399 -0.2940
vn -0.1627 0.9333 0.3200
vn 0.1084 -0.5938 -0.7972
vn -0.0143 -0.0140 -0.9998
vn -0.1223 0.5821 -0.8038
vn -0.0932 0.5668 0.8186
vn -0.0237 -0.9533 -0.3011
vn -0.0249 -0.6049 -0.7959
vn 0.0124 0.9515 0.3074
vn 0.0188 0.5833 0.8120
vn 0.0124 -0.0258 0.9996
vn -0.0025 -0.6148 0.7887
vn -0.0157 -0.9562 0.2921
vn 0.0021 0.9528 -0.3037
vn -0.0179 -0.0126 -0.9998
vn -0.0074 0.5908 -0.8068
vn 0.2175 0.4739 -0.8533
vn 0.4360 0.8295 -0.3490
vn -0.4834 -0.8222 -0.3003
vn -0.3272 -0.5257 -0.7852
vn 0.4685 0.8144 0.3422
vn 0.2876 0.4293 0.8561
vn 0.0005 -0.0962 0.9953
vn -0.2835 -0.5618 0.7772
vn -0.4682 -0.8341 0.2916
vn -0.0663 -0.0434 -0.9968
vn -0.5524 -0.2666 0.7897
vn -0.8709 -0.3897 0.2994
vn 0.4920 0.2442 -0.8356
vn 0.8764 0.3575 -0.3225
vn -0.8824 -0.3697 -0.2909
vn -0.5893 -0.2120 -0.7796
vn 0.8879 0.3246 0.3259
vn 0.5322 0.1694 0.8295
vn -0.0229 -0.0525 0.9984
vn -0.0764 0.0240 -0.9968
vn 0.5581 -0.1149 0.8217
vn -0.0482 -0.0324 0.9983
vn -0.6228 0.0325 0.7817
vn -0.9546 0.0687 0.2897
vn 0.5593 -0.0224 -0.8287
vn 0.9392 -0.1188 -0.3222
vn -0.9514 0.0906 -0.2941
vn -0.6167 0.0966 -0.7812
vn 0.9373 -0.1569 0.3112
vn -0.0457 0.0638 -0.9969
vn -0.4465 0.4542 -0.7709
vn 0.0141 0.1447 -0.9893
vn 0.4704 -0.2640 -0.8420
vn 0.3554 -0.4446 0.8222
vn -0.1033 -0.0404 0.9938
vn -0.5310 0.3424 0.7751
vn -0.7706 0.5703 0.2842
vn 0.7237 -0.6026 -0.3363
vn -0.7396 0.6055 -0.2936
vn 0.6715 -0.6724 0.3114
vn -0.4182 0.8589 0.2956
vn -0.3498 0.8925 -0.2847
vn 0.3791 -0.8719 -0.3097
vn 0.2866 -0.9115 0.2950
vn -0.1513 0.6270 -0.7641
vn 0.1138 0.1182 -0.9864
vn 0.3260 -0.4745 -0.8177
vn 0.1042 -0.6096 0.7858
vn -0.1274 -0.0636 0.9898
vn -0.3327 0.5082 0.7943
vn 0.1575 0.0508 0.9862
vn -0.0501 0.5936 0.8032
vn -0.2099 0.9221 0.3251
vn -0.2824 0.9199 -0.2718
vn -0.2288 0.5651 -0.7927
vn -0.0193 -0.0330 -0.9993
vn 0.4144 -0.8755 -0.2485
vn 0.4421 -0.8317 0.3358
vn 0.2443 -0.5905 -0.7691
vn 0.3436 -0.4902 0.8010
vn -0.7148 0.1669 -0.6791
vn -0.6025 0.7552 -0.2580
vn -0.8666 0.4919 -0.0830
vn -0.9546 -0.2177 -0.2034
vn 0.7628 -0.0974 0.6392
vn 0.8108 -0.5219 0.2649
vn 0.9380 -0.3466 0.0069
vn 0.9316 0.1602 0.3262
vn 0.1634 0.7618 0.6269
vn 0.5153 0.3691 0.7734
vn 0.6535 0.5980 0.4639
vn 0.2151 0.8853 0.4122
vn -0.2252 0.9429 0.2452
vn -0.3504 0.9158 0.1962
vn 0.5720 -0.7864 -0.2331
vn 0.5478 -0.7689 -0.3298
vn -0.4226 -0.4172 -0.8046
vn -0.6632 -0.7084 -0.2414
vn 0.0796 -0.7612 -0.6436
vn -0.1312 -0.9154 -0.3805
vn 0.9562 0.2302 -0.1808
vn 0.7403 0.6723 -0.0069
vn 0.2970 0.9458 0.1313
vn -0.3116 0.9251 0.2168
vn -0.2390 -0.9648 -0.1101
vn 0.4235 -0.8259 -0.3722
vn -0.8530 0.4592 0.2479
vn -0.9445 -0.2180 0.2459
vn 0.8827 -0.3116 -0.3517
vn -0.6985 -0.7002 0.1477
vn -0.5598 -0.7021 0.4400
vn -0.7067 -0.1693 0.6870
vn -0.2466 -0.1279 0.9606
vn -0.1710 -0.6883 0.7049
vn -0.2358 -0.9714 -0.0255
vn -0.0879 -0.9870 0.1342
vn 0.5779 0.6535 -0.4888
vn 0.7038 0.1614 -0.6918
vn 0.2843 0.1712 -0.9433
vn 0.2069 0.6723 -0.7108
vn -0.2666 0.9250 0.2708
vn 0.2224 0.9641 -0.1451
vn 0.0072 0.9651 -0.2619
vn -0.2203 0.9265 0.3052
vn 0.2201 -0.8495 -0.4795
vn 0.0661 -0.8610 -0.5043
vn -0.6328 0.4730 0.6130
vn -0.3126 0.5086 0.8022
vn 0.5839 -0.3940 -0.7098
vn 0.2240 -0.3981 -0.8896
vn 0.1599 0.3093 0.9374
vn -0.1305 0.8766 0.4631
vn 0.5532 0.5871 0.5910
vn 0.7931 -0.1792 0.5820
vn -0.1521 -0.2697 -0.9508
vn -0.0279 -0.8043 -0.5935
vn -0.5714 -0.6167 -0.5414
vn -0.6530 -0.0190 -0.7571
vn 0.3034 -0.8051 0.5097
vn 0.3276 -0.3878 0.8615
vn 0.6267 -0.6307 0.4576
vn 0.1611 -0.9414 0.2964
vn 0.1694 -0.9855 0.0010
vn -0.3334 -0.9389 -0.0848
vn -0.2098 0.7591 -0.6163
vn -0.1869 0.3187 -0.9292
vn -0.5972 0.5164 -0.6138
vn -0.4415 0.8418 -0.3106
vn -0.2245 0.9659 -0.1288
vn -0.1064 0.9873 0.1178
vn -0.1390 0.9893 -0.0445
vn 0.5423 0.8399 0.0199
vn 0.9754 0.2180 0.0328
vn 0.9168 -0.3987 0.0209
vn -0.9917 -0.1278 -0.0126
vn -0.9276 0.3674 -0.0673
vn 0.5490 -0.8284 0.1113
vn -0.1032 -0.9734 0.2046
vn -0.7375 -0.6650 0.1174
vn -0.6424 0.7628 -0.0738
vn -0.2689 0.4498 0.8516
vn 0.0499 0.7547 0.6541
vn 0.4988 0.7556 0.4245
vn 0.8417 0.4743 0.2579
vn 0.9760 0.0906 0.1982
vn 0.9218 -0.2989 0.2467
vn -0.3417 -0.0047 0.9398
vn 0.6624 -0.6230 0.4160
vn 0.2346 -0.7027 0.6717
vn -0.1592 -0.4509 0.8782
vn 0.6471 0.1153 0.7536
usemtl None
s 1
f 7//1 9//2 706//3 705//4
f 2//5 6//6 4//7
f 90//8 4//7 6//6 91//9
f 21//10 3//11 703//12 712//13
f 2//5 8//14 6//6
f 91//9 6//6 8//14 159//15
f 11//16 13//17 708//18 707//19
f 2//5 10//20 8//14
f 159//15 8//14 10//20 227//21
f 15//22 17//23 710//24 709//25
f 2//5 12//26 10//20
f 227//21 10//20 12//26 295//27
f 19//28 21//10 712//13 711//29
f 2//5 14//30 12//26
f 295//27 12//26 14//30 363//31
f 5//32 7//1 705//4 704//33
f 2//5 16//34 14//30
f 363//31 14//30 16//34 431//35
f 3//11 5//32 704//33 703//12
f 2//5 18//36 16//34
f 431//35 16//34 18//36 499//37
f 9//2 11//16 707//19 706//3
f 2//5 20//38 18//36
f 499//37 18//36 20//38 567//39
f 13//17 15//22 709//25 708//18
f 2//5 22//40 20//38
f 567//39 20//38 22//40 635//41
f 17//23 19//28 711//29 710//24
f 2//5 4//7 22//40
f 635//41 22//40 4//7 90//8
f 21//10 702//42 23//43 3//11
f 702//42 701//41 24//8 23//43
f 701//41 700//41 25//8 24//8
f 700//41 699//41 26//8 25//8
f 699//41 698//41 27//8 26//8
f 698//41 697//41 28//8 27//8
f 697//41 696//41 29//8 28//8
f 696//41 695//41 30//8 29//8
f 695//41 694//41 31//8 30//8
f 694//41 693//41 32//8 31//8
f 693//41 692//41 33//8 32//8
f 692//41 691//41 34//8 33//8
f 691//41 690//41 35//8 34//8
f 690//41 689//41 36//8 35//8
f 689//41 688//41 37//8 36//8
f 688//41 687//41 38//8 37//8
f 687//41 686//41 39//8 38//8
f 686//41 685//41 40//8 39//8
f 685//41 684//41 41//8 40//8
f 684//41 683//41 42//8 41//8
f 683//41 682//41 43//8 42//8
f 682//41 681//41 44//8 43//8
f 681//41 680//41 45//8 44//8
f 680//41 679//41 46//8 45//8
f 679//41 678//41 47//8 46//8
f 678//41 677//41 48//8 47//8
f 677//41 676//41 49//8 48//8
f 676//41 675//41 50//8 49//8
f 675//41 674//41 51//8 50//8
f 674//41 673//41 52//8 51//8
f 673//41 672//41 53//8 52//8
f 672//41 671//41 54//8 53//8
f 671//41 670//41 55//8 54//8
f 670//41 669//41 56//8 55//8
f 669//41 668//41 57//8 56//8
f 668//41 667//41 58//8 57//8
f 667//41 666//41 59//8 58//8
f 666//41 665//41 60//8 59//8
f 665//41 664//41 61//8 60//8
f 664//41 663//41 62//8 61//8
f 663//41 662//41 63//8 62//8
f 662//41 661//41 64//8 63//8
f 661//41 660//41 65//8 64//8
f 660//41 659//41 66//8 65//8
f 659//41 658//41 67//8 66//8
f 658//41 657//41 68//8 67//8
f 657//41 656//41 69//8 68//8
f 656//41 655//41 70//8 69//8
f 655//41 654//41 71//8 70//8
f 654//41 653//41 72//8 71//8
f 653//41 652//41 73//8 72//8
f 652//41 651//41 74//8 73//8
f 651//41 650//41 75//8 74//8
f 650//41 649//41 76//8 75//8
f 649//41 648//41 77//8 76//8
f 648//41 647//41 78//8 77//8
f 647//41 646//41 79//8 78//8
f 646//41 645//41 80//8 79//8
f 645//41 644//41 81//8 80//8
f 644//41 643//41 82//8 81//8
f 643//41 642//41 83//8 82//8
f 642//41 641//41 84//8 83//8
f 641//41 640//41 85//8 84//8
f 640//41 639//41 86//8 85//8
f 639//41 638//41 87//8 86//8
f 638//41 637//41 88//8 87//8
f 637//41 636//41 89//8 88//8
f 636//41 635//41 90//8 89//8
f 19//28 634//44 702//42 21//10
f 634//44 633//39 701//41 702//42
f 633//39 632//39 700//41 701//41
f 632//39 631//39 699//41 700//41
f 631//39 630//39 698//41 699//41
f 630//39 629//39 697//41 698//41
f 629//39 628//39 696//41 697//41
f 628//39 627//39 695//41 696//41
f 627//39 626//39 694//41 695//41
f 626//39 625//39 693//41 694//41
f 625//39 624//39 692//41 693//41
f 624//39 623//39 691//41 692//41
f 623//39 622//39 690//41 691//41
f 622//39 621//39 689//41 690//41
f 621//39 620//39 688//41 689//41
f 620//39 619//39 687//41 688//41
f 619//39 618//39 686//41 687//41
f 618//39 617//39 685//41 686//41
f 617//39 616//39 684//41 685//41
f 616//39 615//39 683//41 684//41
f 615//39 614//39 682//41 683//41
f 614//39 613//39 681//41 682//41
f 613//39 612//39 680//41 681//41
f 612//39 611//39 679//41 680//41
f 611//39 610//39 678//41 679//41
f 610//39 609//39 677//41 678//41
f 609//39 608//39 676//41 677//41
f 608//39 607//39 675//41 676//41
f 607//39 606//39 674//41 675//41
f 606//39 605//39 673//41 674//41
f 605//39 604//39 672//41 673//41
f 604//39 603//39 671//41 672//41
f 603//39 602//39 670//41 671//41
f 602//39 601//39 669//41 670//41
f 601//39 600//39 668//41 669//41
f 600//39 599//39 667//41 668//41
f 599//39 598//39 666//41 667//41
f 598//39 597//39 665//41 666//41
f 597//39 596//39 664//41 665//41
f 596//39 595//39 663//41 664//41
f 595//39 594//39 662//41 663//41
f 594//39 593//39 661//41 662//41
f 593//39 592//39 660//41 661//41
f 592//39 591//39 659//41 660//41
f 591//39 590//39 658//41 659//41
f 590//39 589//39 657//41 658//41
f 589//39 588//39 656//41 657//41
f 588//39 587//39 655//41 656//41
f 587//39 586//39 654//41 655//41
f 586//39 585//39 653//41 654//41
f 585//39 584//39 652//41 653//41
f 584//39 583//39 651//41 652//41
f 583//39 582//39 650//41 651//41
f 582//39 581//39 649//41 650//41
f 581//39 580//39 648//41 649//41
f 580//39 579//39 647//41 648//41
f 579//39 578//39 646//41 647//41
f 578//39 577//39 645//41 646//41
f 577//39 576//39 644//41 645//41
f 576//39 575//39 643//41 644//41
f 575//39 574//39 642//41 643//41
f 574//39 573//39 641//41 642//41
f 573//39 572//39 640//41 641//41
f 572//39 571//39 639//41 640//41
f 571//39 570//39 638//41 639//41
f 570//39 569//39 637//41 638//41
f 569//39 568//39 636//41 637//41
f 568//39 567//39 635//41 636//41
f 17//23 566//45 634//44 19//28
f 566//45 565//37 633//39 634//44
f 565//37 564//37 632//39 633//39
f 564//37 563//37 631//39 632//39
f 563//37 562//37 630//39 631//39
f 562//37 561//37 629//39 630//39
f 561//37 560//37 628//39 629//39
f 560//37 559//37 627//39 628//39
f 559//37 558//37 626//39 627//39
f 558//37 557//37 625//39 626//39
f 557//37 556//37 624//39 625//39
f 556//37 555//37 623//39 624//39
f 555//37 554//37 622//39 623//39
f 554//37 553//37 621//39 622//39
f 553//37 552//37 620//39 621//39
f 552//37 551//37 619//39 620//39
f 551//37 550//37 618//39 619//39
f 550//37 549//37 617//39 618//39
f 549//37 548//37 616//39 617//39
f 548//37 547//37 615//39 616//39
f 547//37 546//37 614//39 615//39
f 546//37 545//37 613//39 614//39
f 545//37 544//37 612//39 613//39
f 544//37 543//37 611//39 612//39
f 543//37 542//37 610//39 611//39
f 542//37 541//37 609//39 610//39
f 541//37 540//37 608//39 609//39
f 540//37 539//37 607//39 608//39
f 539//37 538//37 606//39 607//39
f 538//37 537//37 605//39 606//39
f 537//37 536//37 604//39 605//39
f 536//37 535//37 603//39 604//39
f 535//37 534//37 602//39 603//39
f 534//37 533//37 601//39 602//39
f 533//37 532//37 600//39 601//39
f 532//37 531//37 599//39 600//39
f 531//37 530//37 598//39 599//39
f 530//37 529//37 597//39 598//39
f 529//37 528//37 596//39 597//39
f 528//37 527//37 595//39 596//39
f 527//37 526//37 594//39 595//39
f 526//37 525//37 593//39 594//39
f 525//37 524//37 592//39 593//39
f 524//37 523//37 591//39 592//39
f 523//37 522//37 590//39 591//39
f 522//37 521//37 589//39 590//39
f 521//37 520//37 588//39 589//39
f 520//37 519//37 587//39 588//39
f 519//37 518//37 586//39 587//39
f 518//37 517//37 585//39 586//39
f 517//37 516//37 584//39 585//39
f 516//37 515//37 583//39 584//39
f 515//37 514//37 582//39 583//39
f 514//37 513//37 581//39 582//39
f 513//37 512//37 580//39 581//39
f 512//37 511//37 579//39 580//39
f 511//37 510//37 578//39 579//39
f 510//37 509//37 577//39 578//39
f 509//37 508//37 576//39 577//39
f 508//37 507//37 575//39 576//39
f 507//37 506//37 574//39 575//39
f 506//37 505//37 573//39 574//39
f 505//37 504//37 572//39 573//39
f 504//37 503//37 571//39 572//39
f 503//37 502//37 570//39 571//39
f 502//37 501//37 569//39 570//39
f 501//37 500//37 568//39 569//39
f 500//37 499//37 567//39 568//39
f 15//22 498//46 566//45 17//23
f 498//46 497//35 565//37 566//45
f 497//35 496//35 564//37 565//37
f 496//35 495//35 563//37 564//37
f 495//35 494//35 562//37 563//37
f 494//35 493//35 561//37 562//37
f 493//35 492//35 560//37 561//37
f 492//35 491//35 559//37 560//37
f 491//35 490//35 558//37 559//37
f 490//35 489//35 557//37 558//37
f 489//35 488//35 556//37 557//37
f 488//35 487//35 555//37 556//37
f 487//35 486//35 554//37 555//37
f 486//35 485//35 553//37 554//37
f 485//35 484//35 552//37 553//37
f 484//35 483//35 551//37 552//37
f 483//35 482//35 550//37 551//37
f 482//35 481//35 549//37 550//37
f 481//35 480//35 548//37 549//37
f 480//35 479//35 547//37 548//37
f 479//35 478//35 546//37 547//37
f 478//35 477//35 545//37 546//37
f 477//35 476//35 544//37 545//37
f 476//35 475//35 543//37 544//37
f 475//35 474//35 542//37 543//37
f 474//35 473//35 541//37 542//37
f 473//35 472//35 540//37 541//37
f 472//35 471//35 539//37 540//37
f 471//35 470//35 538//37 539//37
f 470//35 469//35 537//37 538//37
f 469//35 468//35 536//37 537//37
f 468//35 467//35 535//37 536//37
f 467//35 466//35 534//37 535//37
f 466//35 465//35 533//37 534//37
f 465//35 464//35 532//37 533//37
f 464//35 463//35 531//37 532//37
f 463//35 462//35 530//37 531//37
f 462//35 461//35 529//37 530//37
f 461//35 460//35 528//37 529//37
f 460//35 459//35 527//37 528//37
f 459//35 458//35 526//37 527//37
f 458//35 457//35 525//37 526//37
f 457//35 456//35 524//37 525//37
f 456//35 455//35 523//37 524//37
f 455//35 454//35 522//37 523//37
f 454//35 453//35 521//37 522//37
f 453//35 452//35 520//37 521//37
f 452//35 451//35 519//37 520//37
f 451//35 450//35 518//37 519//37
f 450//35 449//35 517//37 518//37
f 449//35 448//35 516//37 517//37
f 448//35 447//35 515//37 516//37
f 447//35 446//35 514//37 515//37
f 446//35 445//35 513//37 514//37
f 445//35 444//35 512//37 513//37
f 444//35 443//35 511//37 512//37
f 443//35 442//35 510//37 511//37
f 442//35 441//35 509//37 510//37
f 441//35 440//35 508//37 509//37
f 440//35 439//35 507//37 508//37
f 439//35 438//35 506//37 507//37
f 438//35 437//35 505//37 506//37
f 437//35 436//35 504//37 505//37
f 436//35 435//35 503//37 504//37
f 435//35 434//35 502//37 503//37
f 434//35 433//35 501//37 502//37
f 433//35 432//35 500//37 501//37
f 432//35 431//35 499//37 500//37
f 13//17 430//47 498//46 15//22
f 430//47 429//31 497//35 498//46
f 429//31 428//31 496//35 497//35
f 428//31 427//31 495//35 496//35
f 427//31 426//31 494//35 495//35
f 426//31 425//31 493//35 494//35
f 425//31 424//31 492//35 493//35
f 424//31 423//31 491//35 492//35
f 423//31 422//31 490//35 491//35
f 422//31 421//31 489//35 490//35
f 421//31 420//31 488//35 489//35
f 420//31 419//31 487//35 488//35
f 419//31 418//31 486//35 487//35
f 418//31 417//31 485//35 486//35
f 417//31 416//31 484//35 485//35
f 416//31 415//31 483//35 484//35
f 415//31 414//31 482//35 483//35
f 414//31 413//31 481//35 482//35
f 413//31 412//31 480//35 481//35
f 412//31 411//31 479//35 480//35
f 411//31 410//31 478//35 479//35
f 410//31 409//31 477//35 478//35
f 409//31 408//31 476//35 477//35
f 408//31 407//31 475//35 476//35
f 407//31 406//31 474//35 475//35
f 406//31 405//31 473//35 474//35
f 405//31 404//31 472//35 473//35
f 404//31 403//31 471//35 472//35
f 403//31 402//31 470//35 471//35
f 402//31 401//31 469//35 470//35
f 401//31 400//31 468//35 469//35
f 400//31 399//31 467//35 468//35
f 399//31 398//31 466//35 467//35
f 398//31 397//31 465//35 466//35
f 397//31 396//31 464//35 465//35
f 396//31 395//31 463//35 464//35
f 395//31 394//31 462//35 463//35
f 394//31 393//31 461//35 462//35
f 393//31 392//31 460//35 461//35
f 392//31 391//31 459//35 460//35
f 391//31 390//31 458//35 459//35
f 390//31 389//31 457//35 458//35
f 389//31 388//31 456//35 457//35
f 388//31 387//31 455//35 456//35
f 387//31 386//31 454//35 455//35
f 386//31 385//31 453//35 454//35
f 385//31 384//31 452//35 453//35
f 384//31 383//31 451//35 452//35
f 383//31 382//31 450//35 451//35
f 382//31 381//31 449//35 450//35
f 381//31 380//31 448//35 449//35
f 380//31 379//31 447//35 448//35
f 379//31 378//31 446//35 447//35
f 378//31 377//31 445//35 446//35
f 377//31 376//31 444//35 445//35
f 376//31 375//31 443//35 444//35
f 375//31 374//31 442//35 443//35
f 374//31 373//31 441//35 442//35
f 373//31 372//31 440//35 441//35
f 372//31 371//31 439//35 440//35
f 371//31 370//31 438//35 439//35
f 370//31 369//31 437//35 438//35
f 369//31 368//31 436//35 437//35
f 368//31 367//31 435//35 436//35
f 367//31 366//31 434//35 435//35
f 366//31 365//31 433//35 434//35
f 365//31 364//31 432//35 433//35
f 364//31 363//31 431//35 432//35
f 11//16 362//48 430//47 13//17
f 362//48 361//27 429//31 430//47
f 361//27 360//27 428//31 429//31
f 360//27 359//27 427//31 428//31
f 359//27 358//27 426//31 427//31
f 358//27 357//27 425//31 426//31
f 357//27 356//27 424//31 425//31
f 356//27 355//27 423//31 424//31
f 355//27 354//27 422//31 423//31
f 354//27 353//27 421//31 422//31
f 353//27 352//27 420//31 421//31
f 352//27 351//27 419//31 420//31
f 351//27 350//27 418//31 419//31
f 350//27 349//27 417//31 418//31
f 349//27 348//27 416//31 417//31
f 348//27 347//27 415//31 416//31
f 347//27 346//27 414//31 415//31
f 346//27 345//27 413//31 414//31
f 345//27 344//27 412//31 413//31
f 344//27 343//27 411//31 412//31
f 343//27 342//27 410//31 411//31
f 342//27 341//27 409//31 410//31
f 341//27 340//27 408//31 409//31
f 340//27 339//27 407//31 408//31
f 339//27 338//27 406//31 407//31
f 338//27 337//27 405//31 406//31
f 337//27 336//27 404//31 405//31
f 336//27 335//27 403//31 404//31
f 335//27 334//27 402//31 403//31
f 334//27 333//27 401//31 402//31
f 333//27 332//27 400//31 401//31
f 332//27 331//27 399//31 400//31
f 331//27 330//27 398//31 399//31
f 330//27 329//27 397//31 398//31
f 329//27 328//27 396//31 397//31
f 328//27 327//27 395//31 396//31
f 327//27 326//27 394//31 395//31
f 326//27 325//27 393//31 394//31
f 325//27 324//27 392//31 393//31
f 324//27 323//27 391//31 392//31
f 323//27 322//27 390//31 391//31
f 322//27 321//27 389//31 390//31
f 321//27 320//27 388//31 389//31
f 320//27 319//27 387//31 388//31
f 319//27 318//27 386//31 387//31
f 318//27 317//27 385//31 386//31
f 317//27 316//27 384//31 385//31
f 316//27 315//27 383//31 384//31
f 315//27 314//27 382//31 383//31
f 314//27 313//27 381//31 382//31
f 313//27 312//27 380//31 381//31
f 312//27 311//27 379//31 380//31
f 311//27 310//27 378//31 379//31
f 310//27 309//27 377//31 378//31
f 309//27 308//27 376//31 377//31
f 308//27 307//27 375//31 376//31
f 307//27 306//27 374//31 375//31
f 306//27 305//27 373//31 374//31
f 305//27 304//27 372//31 373//31
f 304//27 303//27 371//31 372//31
f 303//27 302//27 370//31 371//31
f 302//27 301//27 369//31 370//31
f 301//27 300//27 368//31 369//31
f 300//27 299//27 367//31 368//31
f 299//27 298//27 366//31 367//31
f 298//27 297//27 365//31 366//31
f 297//27 296//27 364//31 365//31
f 296//27 295//27 363//31 364//31
f 9//2 294//49 362//48 11//16
f 294//49 293//21 361//27 362//48
f 293//21 292//21 360//27 361//27
f 292//21 291//21 359//27 360//27
f 291//21 290//21 358//27 359//27
f 290//21 289//21 357//27 358//27
f 289//21 288//21 356//27 357//27
f 288//21 287//21 355//27 356//27
f 287//21 286//21 354//27 355//27
f 286//21 285//21 353//27 354//27
f 285//21 284//21 352//27 353//27
f 284//21 283//21 351//27 352//27
f 283//21 282//21 350//27 351//27
f 282//21 281//21 349//27 350//27
f 281//21 280//21 348//27 349//27
f 280//21 279//21 347//27 348//27
f 279//21 278//21 346//27 347//27
f 278//21 277//21 345//27 346//27
f 277//21 276//21 344//27 345//27
f 276//21 275//21 343//27 344//27
f 275//21 274//21 342//27 343//27
f 274//21 273//21 341//27 342//27
f 273//21 272//21 340//27 341//27
f 272//21 271//21 339//27 340//27
f 271//21 270//21 338//27 339//27
f 270//21 269//21 337//27 338//27
f 269//21 268//21 336//27 337//27
f 268//21 267//21 335//27 336//27
f 267//21 266//21 334//27 335//27
f 266//21 265//21 333//27 334//27
f 265//21 264//21 332//27 333//27
f 264//21 263//21 331//27 332//27
f 263//21 262//21 330//27 331//27
f 262//21 261//21 329//27 330//27
f 261//21 260//21 328//27 329//27
f 260//21 259//21 327//27 328//27
f 259//21 258//21 326//27 327//27
f 258//21 257//21 325//27 326//27
f 257//21 256//21 324//27 325//27
f 256//21 255//21 323//27 324//27
f 255//21 254//21 322//27 323//27
f 254//21 253//21 321//27 322//27
f 253//21 252//21 320//27 321//27
f 252//21 251//21 319//27 320//27
f 251//21 250//21 318//27 319//27
f 250//21 249//21 317//27 318//27
f 249//21 248//21 316//27 317//27
f 248//21 247//21 315//27 316//27
f 247//21 246//21 314//27 315//27
f 246//21 245//21 313//27 314//27
f 245//21 244//21 312//27 313//27
f 244//21 243//21 311//27 312//27
f 243//21 242//21 310//27 311//27
f 242//21 241//21 309//27 310//27
f 241//21 240//21 308//27 309//27
f 240//21 239//21 307//27 308//27
f 239//21 238//21 306//27 307//27
f 238//21 237//21 305//27 306//27
f 237//21 236//21 304//27 305//27
f 236//21 235//21 303//27 304//27
f 235//21 234//21 302//27 303//27
f 234//21 233//21 301//27 302//27
f 233//21 232//21 300//27 301//27
f 232//21 231//21 299//27 300//27
f 231//21 230//21 298//27 299//27
f 230//21 229//21 297//27 298//27
f 229//21 228//21 296//27 297//27
f 228//21 227//21 295//27 296//27
f 7//1 226//50 294//49 9//2
f 226//50 225//15 293//21 294//49
f 225//15 224//15 292//21 293//21
f 224//15 223//15 291//21 292//21
f 223//15 222//15 290//21 291//21
f 222//15 221//15 289//21 290//21
f 221//15 220//15 288//21 289//21
f 220//15 219//15 287//21 288//21
f 219//15 218//15 286//21 287//21
f 218//15 217//15 285//21 286//21
f 217//15 216//15 284//21 285//21
f 216//15 215//15 283//21 284//21
f 215//15 214//15 282//21 283//21
f 214//15 213//15 281//21 282//21
f 213//15 212//15 280//21 281//21
f 212//15 211//15 279//21 280//21
f 211//15 210//15 278//21 279//21
f 210//15 209//15 277//21 278//21
f 209//15 208//15 276//21 277//21
f 208//15 207//15 275//21 276//21
f 207//15 206//15 274//21 275//21
f 206//15 205//15 273//21 274//21
f 205//15 204//15 272//21 273//21
f 204//15 203//15 271//21 272//21
f 203//15 202//15 270//21 271//21
f 202//15 201//15 269//21 270//21
f 201//15 200//15 268//21 269//21
f 200//15 199//15 267//21 268//21
f 199//15 198//15 266//21 267//21
f 198//15 197//15 265//21 266//21
f 197//15 196//15 264//21 265//21
f 196//15 195//15 263//21 264//21
f 195//15 194//15 262//21 263//21
f 194//15 193//15 261//21 262//21
f 193//15 192//15 260//21 261//21
f 192//15 191//15 259//21 260//21
f 191//15 190//15 258//21 259//21
f 190//15 189//15 257//21 258//21
f 189//15 188//15 256//21 257//21
f 188//15 187//15 255//21 256//21
f 187//15 186//15 254//21 255//21
f 186//15 185//15 253//21 254//21
f 185//15 184//15 252//21 253//21
f 184//15 183//15 251//21 252//21
f 183//15 182//15 250//21 251//21
f 182//15 181//15 249//21 250//21
f 181//15 180//15 248//21 249//21
f 180//15 179//15 247//21 248//21
f 179//15 178//15 246//21 247//21
f 178//15 177//15 245//21 246//21
f 177//15 176//15 244//21 245//21
f 176//15 175//15 243//21 244//21
f 175//15 174//15 242//21 243//21
f 174//15 173//15 241//21 242//21
f 173//15 172//15 240//21 241//21
f 172//15 171//15 239//21 240//21
f 171//15 170//15 238//21 239//21
f 170//15 169//15 237//21 238//21
f 169//15 168//15 236//21 237//21
f 168//15 167//15 235//21 236//21
f 167//15 166//15 234//21 235//21
f 166//15 165//15 233//21 234//21
f 165//15 164//15 232//21 233//21
f 164//15 163//15 231//21 232//21
f 163//15 162//15 230//21 231//21
f 162//15 161//15 229//21 230//21
f 161//15 160//15 228//21 229//21
f 160//15 159//15 227//21 228//21
f 5//32 158//51 226//50 7//1
f 158//51 157//9 225//15 226//50
f 157//9 156//9 224//15 225//15
f 156//9 155//9 223//15 224//15
f 155//9 154//9 222//15 223//15
f 154//9 153//9 221//15 222//15
f 153//9 152//9 220//15 221//15
f 152//9 151//9 219//15 220//15
f 151//9 150//9 218//15 219//15
f 150//9 149//9 217//15 218//15
f 149//9 148//9 216//15 217//15
f 148//9 147//9 215//15 216//15
f 147//9 146//9 214//15 215//15
f 146//9 145//9 213//15 214//15
f 145//9 144//9 212//15 213//15
f 144//9 143//9 211//15 212//15
f 143//9 142//9 210//15 211//15
f 142//9 141//9 209//15 210//15
f 141//9 140//9 208//15 209//15
f 140//9 139//9 207//15 208//15
f 139//9 138//9 206//15 207//15
f 138//9 137//9 205//15 206//15
f 137//9 136//9 204//15 205//15
f 136//9 135//9 203//15 204//15
f 135//9 134//9 202//15 203//15
f 134//9 133//9 201//15 202//15
f 133//9 132//9 200//15 201//15
f 132//9 131//9 199//15 200//15
f 131//9 130//9 198//15 199//15
f 130//9 129//9 197//15 198//15
f 129//9 128//9 196//15 197//15
f 128//9 127//9 195//15 196//15
f 127//9 126//9 194//15 195//15
f 126//9 125//9 193//15 194//15
f 125//9 124//9 192//15 193//15
f 124//9 123//9 191//15 192//15
f 123//9 122//9 190//15 191//15
f 122//9 121//9 189//15 190//15
f 121//9 120//9 188//15 189//15
f 120//9 119//9 187//15 188//15
f 119//9 118//9 186//15 187//15
f 118//9 117//9 185//15 186//15
f 117//9 116//9 184//15 185//15
f 116//9 115//9 183//15 184//15
f 115//9 114//9 182//15 183//15
f 114//9 113//9 181//15 182//15
f 113//9 112//9 180//15 181//15
f 112//9 111//9 179//15 180//15
f 111//9 110//9 178//15 179//15
f 110//9 109//9 177//15 178//15
f 109//9 108//9 176//15 177//15
f 108//9 107//9 175//15 176//15
f 107//9 106//9 174//15 175//15
f 106//9 105//9 173//15 174//15
f 105//9 104//9 172//15 173//15
f 104//9 103//9 171//15 172//15
f 103//9 102//9 170//15 171//15
f 102//9 101//9 169//15 170//15
f 101//9 100//9 168//15 169//15
f 100//9 99//9 167//15 168//15
f 99//9 98//9 166//15 167//15
f 98//9 97//9 165//15 166//15
f 97//9 96//9 164//15 165//15
f 96//9 95//9 163//15 164//15
f 95//9 94//9 162//15 163//15
f 94//9 93//9 161//15 162//15
f 93//9 92//9 160//15 161//15
f 92//9 91//9 159//15 160//15
f 3//11 23//43 158//51 5//32
f 23//43 24//8 157//9 158//51
f 24//8 25//8 156//9 157//9
f 25//8 26//8 155//9 156//9
f 26//8 27//8 154//9 155//9
f 27//8 28//8 153//9 154//9
f 28//8 29//8 152//9 153//9
f 29//8 30//8 151//9 152//9
f 30//8 31//8 150//9 151//9
f 31//8 32//8 149//9 150//9
f 32//8 33//8 148//9 149//9
f 33//8 34//8 147//9 148//9
f 34//8 35//8 146//9 147//9
f 35//8 36//8 145//9 146//9
f 36//8 37//8 144//9 145//9
f 37//8 38//8 143//9 144//9
f 38//8 39//8 142//9 143//9
f 39//8 40//8 141//9 142//9
f 40//8 41//8 140//9 141//9
f 41//8 42//8 139//9 140//9
f 42//8 43//8 138//9 139//9
f 43//8 44//8 137//9 138//9
f 44//8 45//8 136//9 137//9
f 45//8 46//8 135//9 136//9
f 46//8 47//8 134//9 135//9
f 47//8 48//8 133//9 134//9
f 48//8 49//8 132//9 133//9
f 49//8 50//8 131//9 132//9
f 50//8 51//8 130//9 131//9
f 51//8 52//8 129//9 130//9
f 52//8 53//8 128//9 129//9
f 53//8 54//8 127//9 128//9
f 54//8 55//8 126//9 127//9
f 55//8 56//8 125//9 126//9
f 56//8 57//8 124//9 125//9
f 57//8 58//8 123//9 124//9
f 58//8 59//8 122//9 123//9
f 59//8 60//8 121//9 122//9
f 60//8 61//8 120//9 121//9
f 61//8 62//8 119//9 120//9
f 62//8 63//8 118//9 119//9
f 63//8 64//8 117//9 118//9
f 64//8 65//8 116//9 117//9
f 65//8 66//8 115//9 116//9
f 66//8 67//8 114//9 115//9
f 67//8 68//8 113//9 114//9
f 68//8 69//8 112//9 113//9
f 69//8 70//8 111//9 112//9
f 70//8 71//8 110//9 111//9
f 71//8 72//8 109//9 110//9
f 72//8 73//8 108//9 109//9
f 73//8 74//8 107//9 108//9
f 74//8 75//8 106//9 107//9
f 75//8 76//8 105//9 106//9
f 76//8 77//8 104//9 105//9
f 77//8 78//8 103//9 104//9
f 78//8 79//8 102//9 103//9
f 79//8 80//8 101//9 102//9
f 80//8 81//8 100//9 101//9
f 81//8 82//8 99//9 100//9
f 82//8 83//8 98//9 99//9
f 83//8 84//8 97//9 98//9
f 84//8 85//8 96//9 97//9
f 85//8 86//8 95//9 96//9
f 86//8 87//8 94//9 95//9
f 87//8 88//8 93//9 94//9
f 88//8 89//8 92//9 93//9
f 89//8 90//8 91//9 92//9
f 703//12 704//33 714//52 713//53
f 712//13 703//12 713//53 722//54
f 708//18 709//25 719//55 718//56
f 706//3 707//19 717//57 716//58
f 711//29 712//13 722//54 721//59
f 704//33 705//4 715//60 714//52
f 709//25 710//24 720//61 719//55
f 707//19 708//18 718//56 717//57
f 705//4 706//3 716//58 715//60
f 710//24 711//29 721//59 720//61
f 720//61 721//59 731//62 730//63
f 713//53 714//52 724//64 723//65
f 722//54 713//53 723//65 732//66
f 718//56 719//55 729//67 728//68
f 716//58 717//57 727//69 726//70
f 721//59 722//54 732//66 731//62
f 714//52 715//60 725//71 724//64
f 719//55 720//61 730//63 729//67
f 717//57 718//56 728//68 727//69
f 715//60 716//58 726//70 725//71
f 847//72 843//73 736//74 735//75
f 849//76 844//77 741//78 740//79
f 842//80 846//81 734//82 733//83
f 845//84 842//80 733//83 742//85
f 851//86 848//87 739//88 738//89
f 843//73 850//90 737//91 736//74
f 844//77 845//84 742//85 741//78
f 846//81 847//72 735//75 734//82
f 848//87 849//76 740//79 739//88
f 850//90 851//86 738//89 737//91
f 835//92 833//93 748//94 747//95
f 839//96 834//97 746//98 745//99
f 841//100 836//101 751//102 750//103
f 1//104 838//105 744//106 743//107
f 837//108 1//104 743//107 752//109
f 833//93 840//110 749//111 748//94
f 834//97 835//92 747//95 746//98
f 836//101 837//108 752//109 751//102
f 838//105 839//96 745//99 744//106
f 840//110 841//100 750//103 749//111
f 747//95 748//94 758//112 757//113
f 745//99 746//98 756//114 755//115
f 750//103 751//102 761//116 760//117
f 743//107 744//106 754//118 753//119
f 752//109 743//107 753//119 762//120
f 748//94 749//111 759//121 758//112
f 746//98 747//95 757//113 756//114
f 751//102 752//109 762//120 761//116
f 744//106 745//99 755//115 754//118
f 749//111 750//103 760//117 759//121
f 754//118 755//115 765//122 764//123
f 759//121 760//117 770//124 769//125
f 757//113 758//112 768//126 767//127
f 755//115 756//114 766//128 765//122
f 760//117 761//116 771//129 770//124
f 753//119 754//118 764//123 763//130
f 762//120 753//119 763//130 772//131
f 758//112 759//121 769//125 768//126
f 756//114 757//113 767//127 766//128
f 761//116 762//120 772//131 771//129
f 771//129 772//131 782//132 781//133
f 764//123 765//122 775//134 774//135
f 769//125 770//124 780//136 779//137
f 767//127 768//126 778//138 777//139
f 765//122 766//128 776//140 775//134
f 770//124 771//129 781//133 780//136
f 763//130 764//123 774//135 773//141
f 772//131 763//130 773//141 782//132
f 768//126 769//125 779//137 778//138
f 766//128 767//127 777//139 776//140
f 776//140 777//139 787//142 786//143
f 781//133 782//132 792//144 791//145
f 774//135 775//134 785//146 784//147
f 779//137 780//136 790//148 789//149
f 777//139 778//138 788//150 787//142
f 775//134 776//140 786//143 785//146
f 780//136 781//133 791//145 790//148
f 773//141 774//135 784//147 783//151
f 782//132 773//141 783//151 792//144
f 778//138 779//137 789//149 788//150
f 788//150 789//149 799//152 798//153
f 786//143 787//142 797//154 796//155
f 791//145 792//144 802//156 801//157
f 784//147 785//146 795//158 794//159
f 789//149 790//148 800//160 799//152
f 787//142 788//150 798//153 797//154
f 785//146 786//143 796//155 795//158
f 790//148 791//145 801//157 800//160
f 783//151 784//147 794//159 793//161
f 792//144 783//151 793//161 802//156
f 793//161 794//159 804//162 803//163
f 802//156 793//161 803//163 812//164
f 798//153 799//152 809//165 808//166
f 796//155 797//154 807//167 806//168
f 801//157 802//156 812//164 811//169
f 794//159 795//158 805//170 804//162
f 799//152 800//160 810//171 809//165
f 797//154 798//153 808//166 807//167
f 795//158 796//155 806//168 805//170
f 800//160 801//157 811//169 810//171
f 805//170 806//168 816//172 815//173
f 810//171 811//169 821//174 820//175
f 803//163 804//162 814//176 813//177
f 812//164 803//163 813//177 822//178
f 808//166 809//165 819//179 818//180
f 806//168 807//167 817//181 816//172
f 811//169 812//164 822//178 821//174
f 804//162 805//170 815//173 814//176
f 809//165 810//171 820//175 819//179
f 807//167 808//166 818//180 817//181
f 817//181 818//180 828//182 827//183
f 815//173 816//172 826//184 825//185
f 813//177 814//176 824//186 823//187
f 820//175 821//174 831//188 830//189
f 822//178 813//177 823//187 832//190
f 818//180 819//179 829//191 828//182
f 816//172 817//181 827//183 826//184
f 814//176 815//173 825//185 824//186
f 821//174 822//178 832//190 831//188
f 819//179 820//175 830//189 829//191
f 874//192 852//193 855//194 854//195
f 877//196 873//197 860//198 859//199
f 879//200 876//201 858//202 857//203
f 852//193 878//204 856//205 855//194
f 873//197 880//206 861//207 860//198
f 875//208 874//192 854//195 853//209
f 881//210 875//208 853//209 862//211
f 876//201 877//196 859//199 858//202
f 878//204 879//200 857//203 856//205
f 880//206 881//210 862//211 861//207
f 739//88 740//79 841//100 840//110
f 734//82 735//75 839//96 838//105
f 741//78 742//85 837//108 836//101
f 736//74 737//91 835//92 834//97
f 738//89 739//88 840//110 833//93
f 742//85 733//83 1//104 837//108
f 733//83 734//82 838//105 1//104
f 740//79 741//78 836//101 841//100
f 735//75 736//74 834//97 839//96
f 737//91 738//89 833//93 835//92
f 727//69 728//68 851//86 850//90
f 729//67 730//63 849//76 848//87
f 724//64 725//71 847//72 846//81
f 731//62 732//66 845//84 844//77
f 726//70 727//69 850//90 843//73
f 728//68 729//67 848//87 851//86
f 732//66 723//65 842//80 845//84
f 723//65 724//64 846//81 842//80
f 730//63 731//62 844//77 849//76
f 725//71 726//70 843//73 847//72
f 858//202 859//199 869//212 868//213
f 856//205 857//203 867//214 866//215
f 861//207 862//211 872//216 871//217
f 854//195 855//194 865//218 864//219
f 859//199 860//198 870//220 869//212
f 857//203 858//202 868//213 867//214
f 855//194 856//205 866//215 865//218
f 860//198 861//207 871//217 870//220
f 853//209 854//195 864//219 863//221
f 862//211 853//209 863//221 872//216
f 912//222 914//223 883//224 882//225
f 913//226 912//222 882//225 891//227
f 917//228 915//229 888//230 887//231
f 919//232 916//233 886//234 885//235
f 921//236 913//226 891//227 890//237
f 914//223 918//238 884//239 883//224
f 915//229 920//240 889//241 888//230
f 916//233 917//228 887//231 886//234
f 918//238 919//232 885//235 884//239
f 920//240 921//236 890//237 889//241
f 831//188 832//190 881//210 880//206
f 826//184 827//183 879//200 878//204
f 828//182 829//191 877//196 876//201
f 832//190 823//187 875//208 881//210
f 823//187 824//186 874//192 875//208
f 830//189 831//188 880//206 873//197
f 825//185 826//184 878//204 852//193
f 827//183 828//182 876//201 879//200
f 829//191 830//189 873//197 877//196
f 824//186 825//185 852//193 874//192
f 927//242 923//243 895//244 894//245
f 929//246 924//247 900//248 899//249
f 922//250 926//251 893//252 892//253
f 925//254 922//250 892//253 901//255
f 931//256 928//257 898//258 897//259
f 923//243 930//260 896//261 895//244
f 924//247 925//254 901//255 900//248
f 926//251 927//242 894//245 893//252
f 928//257 929//246 899//249 898//258
f 930//260 931//256 897//259 896//261
f 896//261 897//259 907//262 906//263
f 894//245 895//244 905//264 904//265
f 899//249 900//248 910//266 909//267
f 892//253 893//252 903//268 902//269
f 901//255 892//253 902//269 911//270
f 897//259 898//258 908//271 907//262
f 895//244 896//261 906//263 905//264
f 900//248 901//255 911//270 910//266
f 893//252 894//245 904//265 903//268
f 898//258 899//249 909//267 908//271
f 908//271 909//267 940//272 939//273
f 906//263 907//262 938//274 937//275
f 904//265 905//264 936//276 935//277
f 909//267 910//266 941//278 940//272
f 902//269 903//268 934//279 933//280
f 911//270 902//269 933//280 942//281
f 907//262 908//271 939//273 938//274
f 905//264 906//263 937//275 936//276
f 910//266 911//270 942//281 941//278
f 903//268 904//265 935//277 934//279
f 870//220 871//217 921//236 920//240
f 865//218 866//215 919//232 918//238
f 867//214 868//213 917//228 916//233
f 869//212 870//220 920//240 915//229
f 864//219 865//218 918//238 914//223
f 871//217 872//216 913//226 921//236
f 866//215 867//214 916//233 919//232
f 868//213 869//212 915//229 917//228
f 872//216 863//221 912//222 913//226
f 863//221 864//219 914//223 912//222
f 886//234 887//231 931//256 930//260
f 888//230 889//241 929//246 928//257
f 883//224 884//239 927//242 926//251
f 890//237 891//227 925//254 924//247
f 885//235 886//234 930//260 923//243
f 887//231 888//230 928//257 931//256
f 891//227 882//225 922//250 925//254
f 882//225 883//224 926//251 922//250
f 889//241 890//237 924//247 929//246
f 884//239 885//235 923//243 927//242
f 932//282 933//280 934//279
f 932//282 934//279 935//277
f 932//282 935//277 936//276
f 932//282 936//276 937//275
f 932//282 937//275 938//274
f 932//282 938//274 939//273
f 932//282 939//273 940//272
f 932//282 940//272 941//278
f 932//282 941//278 942//281
f 932//282 942//281 933//280
