# Blender v2.79 (sub 0) OBJ File: 'Burg Test.blend'
# www.blender.org
mtllib Seil_Kaputt_Lang.mtl
o Seil_Kaputt_Lang_Cylinder.005
v -0.374645 19.393230 -129.692993
v -0.374645 19.393230 -129.792999
v -0.315867 19.393230 -129.773895
v -0.279540 19.393230 -129.723892
v -0.279540 19.393230 -129.662094
v -0.315867 19.393230 -129.612091
v -0.374645 19.393230 -129.592987
v -0.433424 19.393230 -129.612091
v -0.469751 19.393230 -129.662094
v -0.469751 19.393230 -129.723892
v -0.433424 19.393230 -129.773895
v -0.374645 9.431492 -129.792999
v -0.374645 9.587143 -129.792999
v -0.374645 9.742796 -129.792999
v -0.374645 9.898447 -129.792999
v -0.374645 10.054100 -129.792999
v -0.374645 10.209752 -129.792999
v -0.374645 10.365404 -129.792999
v -0.374645 10.521056 -129.792999
v -0.374645 10.676708 -129.792999
v -0.374645 10.832361 -129.792999
v -0.374645 10.988013 -129.792999
v -0.374645 11.143665 -129.792999
v -0.374645 11.299317 -129.792999
v -0.374645 11.454969 -129.792999
v -0.374645 11.610622 -129.792999
v -0.374645 11.766274 -129.792999
v -0.374645 11.921926 -129.792999
v -0.374645 12.077579 -129.792999
v -0.374645 12.233231 -129.792999
v -0.374645 12.388883 -129.792999
v -0.374645 12.544535 -129.792999
v -0.374645 12.700188 -129.792999
v -0.374645 12.855840 -129.792999
v -0.374645 13.011492 -129.792999
v -0.374645 13.167144 -129.792999
v -0.374645 13.322796 -129.792999
v -0.374645 13.478448 -129.792999
v -0.374645 13.634100 -129.792999
v -0.374645 13.789752 -129.792999
v -0.374645 13.945404 -129.792999
v -0.374645 14.101057 -129.792999
v -0.374645 14.256709 -129.792999
v -0.374645 14.412361 -129.792999
v -0.374645 14.568013 -129.792999
v -0.374645 14.723665 -129.792999
v -0.374645 14.879317 -129.792999
v -0.374645 15.034969 -129.792999
v -0.374645 15.190622 -129.792999
v -0.374645 15.346274 -129.792999
v -0.374645 15.501926 -129.792999
v -0.374645 15.657578 -129.792999
v -0.374645 15.813231 -129.792999
v -0.374645 15.968883 -129.792999
v -0.374645 16.124535 -129.792999
v -0.374645 16.280188 -129.792999
v -0.374645 16.435839 -129.792999
v -0.374645 16.591492 -129.792999
v -0.374645 16.747143 -129.792999
v -0.374645 16.902796 -129.792999
v -0.374645 17.058449 -129.792999
v -0.374645 17.214100 -129.792999
v -0.374645 17.369753 -129.792999
v -0.374645 17.525404 -129.792999
v -0.374645 17.681057 -129.792999
v -0.374645 17.836708 -129.792999
v -0.374645 17.992361 -129.792999
v -0.374645 18.148014 -129.792999
v -0.374645 18.303665 -129.792999
v -0.374645 18.459318 -129.792999
v -0.374645 18.614969 -129.792999
v -0.374645 18.770622 -129.792999
v -0.374645 18.926273 -129.792999
v -0.374645 19.081926 -129.792999
v -0.374645 19.237579 -129.792999
v -0.315867 19.237579 -129.773895
v -0.315867 19.081926 -129.773895
v -0.315867 18.926275 -129.773895
v -0.315867 18.770622 -129.773895
v -0.315867 18.614971 -129.773895
v -0.315867 18.459318 -129.773895
v -0.315867 18.303667 -129.773895
v -0.315867 18.148014 -129.773895
v -0.315867 17.992363 -129.773895
v -0.315867 17.836710 -129.773895
v -0.315867 17.681057 -129.773895
v -0.315867 17.525406 -129.773895
v -0.315867 17.369753 -129.773895
v -0.315867 17.214100 -129.773895
v -0.315867 17.058449 -129.773895
v -0.315867 16.902796 -129.773895
v -0.315867 16.747145 -129.773895
v -0.315867 16.591492 -129.773895
v -0.315867 16.435839 -129.773895
v -0.315867 16.280188 -129.773895
v -0.315867 16.124535 -129.773895
v -0.315867 15.968884 -129.773895
v -0.315867 15.813231 -129.773895
v -0.315867 15.657579 -129.773895
v -0.315867 15.501926 -129.773895
v -0.315867 15.346274 -129.773895
v -0.315867 15.190622 -129.773895
v -0.315867 15.034970 -129.773895
v -0.315867 14.879318 -129.773895
v -0.315867 14.723666 -129.773895
v -0.315867 14.568014 -129.773895
v -0.315867 14.412361 -129.773895
v -0.315867 14.256709 -129.773895
v -0.315867 14.101057 -129.773895
v -0.315867 13.945405 -129.773895
v -0.315867 13.789753 -129.773895
v -0.315867 13.634101 -129.773895
v -0.315867 13.478449 -129.773895
v -0.315867 13.322796 -129.773895
v -0.315867 13.167144 -129.773895
v -0.315867 13.011492 -129.773895
v -0.315867 12.855840 -129.773895
v -0.315867 12.700188 -129.773895
v -0.315867 12.544536 -129.773895
v -0.315867 12.388884 -129.773895
v -0.315867 12.233231 -129.773895
v -0.315867 12.077579 -129.773895
v -0.315867 11.921926 -129.773895
v -0.315867 11.766274 -129.773895
v -0.315867 11.610622 -129.773895
v -0.315867 11.454970 -129.773895
v -0.315867 11.299318 -129.773895
v -0.315867 11.143665 -129.773895
v -0.315867 10.988013 -129.773895
v -0.315867 10.832361 -129.773895
v -0.315867 10.676709 -129.773895
v -0.315867 10.521057 -129.773895
v -0.315867 10.365405 -129.773895
v -0.315867 10.209753 -129.773895
v -0.315867 10.054100 -129.773895
v -0.315867 9.898449 -129.773895
v -0.315867 9.742796 -129.773895
v -0.315867 9.587145 -129.773895
v -0.315867 9.431492 -129.773895
v -0.279540 19.237579 -129.723892
v -0.279540 19.081926 -129.723892
v -0.279540 18.926275 -129.723892
v -0.279540 18.770622 -129.723892
v -0.279540 18.614971 -129.723892
v -0.279540 18.459318 -129.723892
v -0.279540 18.303667 -129.723892
v -0.279540 18.148014 -129.723892
v -0.279540 17.992363 -129.723892
v -0.279540 17.836710 -129.723892
v -0.279540 17.681057 -129.723892
v -0.279540 17.525406 -129.723892
v -0.279540 17.369753 -129.723892
v -0.279540 17.214100 -129.723892
v -0.279540 17.058449 -129.723892
v -0.279540 16.902796 -129.723892
v -0.279540 16.747145 -129.723892
v -0.279540 16.591492 -129.723892
v -0.279540 16.435839 -129.723892
v -0.279540 16.280188 -129.723892
v -0.279540 16.124535 -129.723892
v -0.279540 15.968884 -129.723892
v -0.279540 15.813231 -129.723892
v -0.279540 15.657579 -129.723892
v -0.279540 15.501926 -129.723892
v -0.279540 15.346274 -129.723892
v -0.279540 15.190622 -129.723892
v -0.279540 15.034970 -129.723892
v -0.279540 14.879318 -129.723892
v -0.279540 14.723666 -129.723892
v -0.279540 14.568014 -129.723892
v -0.279540 14.412361 -129.723892
v -0.279540 14.256709 -129.723892
v -0.279540 14.101057 -129.723892
v -0.279540 13.945405 -129.723892
v -0.279540 13.789753 -129.723892
v -0.279540 13.634101 -129.723892
v -0.279540 13.478449 -129.723892
v -0.279540 13.322796 -129.723892
v -0.279540 13.167144 -129.723892
v -0.279540 13.011492 -129.723892
v -0.279540 12.855840 -129.723892
v -0.279540 12.700188 -129.723892
v -0.279540 12.544536 -129.723892
v -0.279540 12.388884 -129.723892
v -0.279540 12.233231 -129.723892
v -0.279540 12.077579 -129.723892
v -0.279540 11.921926 -129.723892
v -0.279540 11.766274 -129.723892
v -0.279540 11.610622 -129.723892
v -0.279540 11.454970 -129.723892
v -0.279540 11.299318 -129.723892
v -0.279540 11.143665 -129.723892
v -0.279540 10.988013 -129.723892
v -0.279540 10.832361 -129.723892
v -0.279540 10.676709 -129.723892
v -0.279540 10.521057 -129.723892
v -0.279540 10.365405 -129.723892
v -0.279540 10.209753 -129.723892
v -0.279540 10.054100 -129.723892
v -0.279540 9.898449 -129.723892
v -0.279540 9.742796 -129.723892
v -0.279540 9.663670 -129.723892
v -0.279540 9.600119 -129.723892
v -0.279540 19.237579 -129.662094
v -0.279540 19.081926 -129.662094
v -0.279540 18.926275 -129.662094
v -0.279540 18.770622 -129.662094
v -0.279540 18.614971 -129.662094
v -0.279540 18.459318 -129.662094
v -0.279540 18.303667 -129.662094
v -0.279540 18.148014 -129.662094
v -0.279540 17.992363 -129.662094
v -0.279540 17.836710 -129.662094
v -0.279540 17.681057 -129.662094
v -0.279540 17.525406 -129.662094
v -0.279540 17.369753 -129.662094
v -0.279540 17.214100 -129.662094
v -0.279540 17.058449 -129.662094
v -0.279540 16.902796 -129.662094
v -0.279540 16.747145 -129.662094
v -0.279540 16.591492 -129.662094
v -0.279540 16.435839 -129.662094
v -0.279540 16.280188 -129.662094
v -0.279540 16.124535 -129.662094
v -0.279540 15.968884 -129.662094
v -0.279540 15.813231 -129.662094
v -0.279540 15.657579 -129.662094
v -0.279540 15.501926 -129.662094
v -0.279540 15.346274 -129.662094
v -0.279540 15.190622 -129.662094
v -0.279540 15.034970 -129.662094
v -0.279540 14.879318 -129.662094
v -0.279540 14.723666 -129.662094
v -0.279540 14.568014 -129.662094
v -0.279540 14.412361 -129.662094
v -0.279540 14.256709 -129.662094
v -0.279540 14.101057 -129.662094
v -0.279540 13.945405 -129.662094
v -0.279540 13.789753 -129.662094
v -0.279540 13.634101 -129.662094
v -0.279540 13.478449 -129.662094
v -0.279540 13.322796 -129.662094
v -0.279540 13.167144 -129.662094
v -0.279540 13.011492 -129.662094
v -0.279540 12.855840 -129.662094
v -0.279540 12.700188 -129.662094
v -0.279540 12.544536 -129.662094
v -0.279540 12.388884 -129.662094
v -0.279540 12.233231 -129.662094
v -0.279540 12.077579 -129.662094
v -0.279540 11.921926 -129.662094
v -0.279540 11.766274 -129.662094
v -0.279540 11.610622 -129.662094
v -0.279540 11.454970 -129.662094
v -0.279540 11.299318 -129.662094
v -0.279540 11.143665 -129.662094
v -0.279540 10.988013 -129.662094
v -0.279540 10.832361 -129.662094
v -0.279540 10.676709 -129.662094
v -0.279540 10.521057 -129.662094
v -0.279540 10.365405 -129.662094
v -0.279540 10.209753 -129.662094
v -0.279540 10.054100 -129.662094
v -0.279540 9.898449 -129.662094
v -0.279540 9.742796 -129.662094
v -0.279540 9.587145 -129.662094
v -0.279540 9.463684 -129.662094
v -0.315867 19.237579 -129.612091
v -0.315867 19.081926 -129.612091
v -0.315867 18.926275 -129.612091
v -0.315867 18.770622 -129.612091
v -0.315867 18.614971 -129.612091
v -0.315867 18.459318 -129.612091
v -0.315867 18.303667 -129.612091
v -0.315867 18.148014 -129.612091
v -0.315867 17.992363 -129.612091
v -0.315867 17.836710 -129.612091
v -0.315867 17.681057 -129.612091
v -0.315867 17.525406 -129.612091
v -0.315867 17.369753 -129.612091
v -0.315867 17.214100 -129.612091
v -0.315867 17.058449 -129.612091
v -0.315867 16.902796 -129.612091
v -0.315867 16.747145 -129.612091
v -0.315867 16.591492 -129.612091
v -0.315867 16.435839 -129.612091
v -0.315867 16.280188 -129.612091
v -0.315867 16.124535 -129.612091
v -0.315867 15.968884 -129.612091
v -0.315867 15.813231 -129.612091
v -0.315867 15.657579 -129.612091
v -0.315867 15.501926 -129.612091
v -0.315867 15.346274 -129.612091
v -0.315867 15.190622 -129.612091
v -0.315867 15.034970 -129.612091
v -0.315867 14.879318 -129.612091
v -0.315867 14.723666 -129.612091
v -0.315867 14.568014 -129.612091
v -0.315867 14.412361 -129.612091
v -0.315867 14.256709 -129.612091
v -0.315867 14.101057 -129.612091
v -0.315867 13.945405 -129.612091
v -0.315867 13.789753 -129.612091
v -0.315867 13.634101 -129.612091
v -0.315867 13.478449 -129.612091
v -0.315867 13.322796 -129.612091
v -0.315867 13.167144 -129.612091
v -0.315867 13.011492 -129.612091
v -0.315867 12.855840 -129.612091
v -0.315867 12.700188 -129.612091
v -0.315867 12.544536 -129.612091
v -0.315867 12.388884 -129.612091
v -0.315867 12.233231 -129.612091
v -0.315867 12.077579 -129.612091
v -0.315867 11.921926 -129.612091
v -0.315867 11.766274 -129.612091
v -0.315867 11.610622 -129.612091
v -0.315867 11.454970 -129.612091
v -0.315867 11.299318 -129.612091
v -0.315867 11.143665 -129.612091
v -0.315867 10.988013 -129.612091
v -0.315867 10.832361 -129.612091
v -0.315867 10.676709 -129.612091
v -0.315867 10.521057 -129.612091
v -0.315867 10.365405 -129.612091
v -0.315867 10.209753 -129.612091
v -0.315867 10.054100 -129.612091
v -0.315867 9.898449 -129.612091
v -0.315867 9.742796 -129.612091
v -0.315867 9.587145 -129.612091
v -0.315867 9.431492 -129.612091
v -0.374645 19.237579 -129.592987
v -0.374645 19.081926 -129.592987
v -0.374645 18.926275 -129.592987
v -0.374645 18.770622 -129.592987
v -0.374645 18.614971 -129.592987
v -0.374645 18.459318 -129.592987
v -0.374645 18.303667 -129.592987
v -0.374645 18.148014 -129.592987
v -0.374645 17.992363 -129.592987
v -0.374645 17.836710 -129.592987
v -0.374645 17.681057 -129.592987
v -0.374645 17.525406 -129.592987
v -0.374645 17.369753 -129.592987
v -0.374645 17.214100 -129.592987
v -0.374645 17.058449 -129.592987
v -0.374645 16.902796 -129.592987
v -0.374645 16.747145 -129.592987
v -0.374645 16.591492 -129.592987
v -0.374645 16.435839 -129.592987
v -0.374645 16.280188 -129.592987
v -0.374645 16.124535 -129.592987
v -0.374645 15.968884 -129.592987
v -0.374645 15.813231 -129.592987
v -0.374645 15.657579 -129.592987
v -0.374645 15.501926 -129.592987
v -0.374645 15.346274 -129.592987
v -0.374645 15.190622 -129.592987
v -0.374645 15.034970 -129.592987
v -0.374645 14.879318 -129.592987
v -0.374645 14.723666 -129.592987
v -0.374645 14.568014 -129.592987
v -0.374645 14.412361 -129.592987
v -0.374645 14.256709 -129.592987
v -0.374645 14.101057 -129.592987
v -0.374645 13.945405 -129.592987
v -0.374645 13.789753 -129.592987
v -0.374645 13.634101 -129.592987
v -0.374645 13.478449 -129.592987
v -0.374645 13.322796 -129.592987
v -0.374645 13.167144 -129.592987
v -0.374645 13.011492 -129.592987
v -0.374645 12.855840 -129.592987
v -0.374645 12.700188 -129.592987
v -0.374645 12.544536 -129.592987
v -0.374645 12.388884 -129.592987
v -0.374645 12.233231 -129.592987
v -0.374645 12.077579 -129.592987
v -0.374645 11.921926 -129.592987
v -0.374645 11.766274 -129.592987
v -0.374645 11.610622 -129.592987
v -0.374645 11.454970 -129.592987
v -0.374645 11.299318 -129.592987
v -0.374645 11.143665 -129.592987
v -0.374645 10.988013 -129.592987
v -0.374645 10.832361 -129.592987
v -0.374645 10.676709 -129.592987
v -0.374645 10.521057 -129.592987
v -0.374645 10.365405 -129.592987
v -0.374645 10.209753 -129.592987
v -0.374645 10.054100 -129.592987
v -0.374645 9.898449 -129.592987
v -0.374645 9.742796 -129.592987
v -0.374645 9.587145 -129.592987
v -0.374645 9.530294 -129.592987
v -0.433424 19.237579 -129.612091
v -0.433424 19.081926 -129.612091
v -0.433424 18.926275 -129.612091
v -0.433424 18.770622 -129.612091
v -0.433424 18.614971 -129.612091
v -0.433424 18.459318 -129.612091
v -0.433424 18.303667 -129.612091
v -0.433424 18.148014 -129.612091
v -0.433424 17.992363 -129.612091
v -0.433424 17.836710 -129.612091
v -0.433424 17.681057 -129.612091
v -0.433424 17.525406 -129.612091
v -0.433424 17.369753 -129.612091
v -0.433424 17.214100 -129.612091
v -0.433424 17.058449 -129.612091
v -0.433424 16.902796 -129.612091
v -0.433424 16.747145 -129.612091
v -0.433424 16.591492 -129.612091
v -0.433424 16.435839 -129.612091
v -0.433424 16.280188 -129.612091
v -0.433424 16.124535 -129.612091
v -0.433424 15.968884 -129.612091
v -0.433424 15.813231 -129.612091
v -0.433424 15.657579 -129.612091
v -0.433424 15.501926 -129.612091
v -0.433424 15.346274 -129.612091
v -0.433424 15.190622 -129.612091
v -0.433424 15.034970 -129.612091
v -0.433424 14.879318 -129.612091
v -0.433424 14.723666 -129.612091
v -0.433424 14.568014 -129.612091
v -0.433424 14.412361 -129.612091
v -0.433424 14.256709 -129.612091
v -0.433424 14.101057 -129.612091
v -0.433424 13.945405 -129.612091
v -0.433424 13.789753 -129.612091
v -0.433424 13.634101 -129.612091
v -0.433424 13.478449 -129.612091
v -0.433424 13.322796 -129.612091
v -0.433424 13.167144 -129.612091
v -0.433424 13.011492 -129.612091
v -0.433424 12.855840 -129.612091
v -0.433424 12.700188 -129.612091
v -0.433424 12.544536 -129.612091
v -0.433424 12.388884 -129.612091
v -0.433424 12.233231 -129.612091
v -0.433424 12.077579 -129.612091
v -0.433424 11.921926 -129.612091
v -0.433424 11.766274 -129.612091
v -0.433424 11.610622 -129.612091
v -0.433424 11.454970 -129.612091
v -0.433424 11.299318 -129.612091
v -0.433424 11.143665 -129.612091
v -0.433424 10.988013 -129.612091
v -0.433424 10.832361 -129.612091
v -0.433424 10.676709 -129.612091
v -0.433424 10.521057 -129.612091
v -0.433424 10.365405 -129.612091
v -0.433424 10.209753 -129.612091
v -0.433424 10.054100 -129.612091
v -0.433424 9.898449 -129.612091
v -0.433424 9.742796 -129.612091
v -0.433424 9.587145 -129.612091
v -0.433424 9.500701 -129.612091
v -0.469751 19.237579 -129.662094
v -0.469751 19.081926 -129.662094
v -0.469751 18.926275 -129.662094
v -0.469751 18.770622 -129.662094
v -0.469751 18.614971 -129.662094
v -0.469751 18.459318 -129.662094
v -0.469751 18.303667 -129.662094
v -0.469751 18.148014 -129.662094
v -0.469751 17.992363 -129.662094
v -0.469751 17.836710 -129.662094
v -0.469751 17.681057 -129.662094
v -0.469751 17.525406 -129.662094
v -0.469751 17.369753 -129.662094
v -0.469751 17.214100 -129.662094
v -0.469751 17.058449 -129.662094
v -0.469751 16.902796 -129.662094
v -0.469751 16.747145 -129.662094
v -0.469751 16.591492 -129.662094
v -0.469751 16.435839 -129.662094
v -0.469751 16.280188 -129.662094
v -0.469751 16.124535 -129.662094
v -0.469751 15.968884 -129.662094
v -0.469751 15.813231 -129.662094
v -0.469751 15.657579 -129.662094
v -0.469751 15.501926 -129.662094
v -0.469751 15.346274 -129.662094
v -0.469751 15.190622 -129.662094
v -0.469751 15.034970 -129.662094
v -0.469751 14.879318 -129.662094
v -0.469751 14.723666 -129.662094
v -0.469751 14.568014 -129.662094
v -0.469751 14.412361 -129.662094
v -0.469751 14.256709 -129.662094
v -0.469751 14.101057 -129.662094
v -0.469751 13.945405 -129.662094
v -0.469751 13.789753 -129.662094
v -0.469751 13.634101 -129.662094
v -0.469751 13.478449 -129.662094
v -0.469751 13.322796 -129.662094
v -0.469751 13.167144 -129.662094
v -0.469751 13.011492 -129.662094
v -0.469751 12.855840 -129.662094
v -0.469751 12.700188 -129.662094
v -0.469751 12.544536 -129.662094
v -0.469751 12.388884 -129.662094
v -0.469751 12.233231 -129.662094
v -0.469751 12.077579 -129.662094
v -0.469751 11.921926 -129.662094
v -0.469751 11.766274 -129.662094
v -0.469751 11.610622 -129.662094
v -0.469751 11.454970 -129.662094
v -0.469751 11.299318 -129.662094
v -0.469751 11.143665 -129.662094
v -0.469751 10.988013 -129.662094
v -0.469751 10.832361 -129.662094
v -0.469751 10.676709 -129.662094
v -0.469751 10.521057 -129.662094
v -0.469751 10.365405 -129.662094
v -0.469751 10.209753 -129.662094
v -0.469751 10.054100 -129.662094
v -0.469751 9.898449 -129.662094
v -0.469751 9.742796 -129.662094
v -0.469751 9.587145 -129.662094
v -0.469751 9.431492 -129.662094
v -0.469751 19.237579 -129.723892
v -0.469751 19.081926 -129.723892
v -0.469751 18.926275 -129.723892
v -0.469751 18.770622 -129.723892
v -0.469751 18.614971 -129.723892
v -0.469751 18.459318 -129.723892
v -0.469751 18.303667 -129.723892
v -0.469751 18.148014 -129.723892
v -0.469751 17.992363 -129.723892
v -0.469751 17.836710 -129.723892
v -0.469751 17.681057 -129.723892
v -0.469751 17.525406 -129.723892
v -0.469751 17.369753 -129.723892
v -0.469751 17.214100 -129.723892
v -0.469751 17.058449 -129.723892
v -0.469751 16.902796 -129.723892
v -0.469751 16.747145 -129.723892
v -0.469751 16.591492 -129.723892
v -0.469751 16.435839 -129.723892
v -0.469751 16.280188 -129.723892
v -0.469751 16.124535 -129.723892
v -0.469751 15.968884 -129.723892
v -0.469751 15.813231 -129.723892
v -0.469751 15.657579 -129.723892
v -0.469751 15.501926 -129.723892
v -0.469751 15.346274 -129.723892
v -0.469751 15.190622 -129.723892
v -0.469751 15.034970 -129.723892
v -0.469751 14.879318 -129.723892
v -0.469751 14.723666 -129.723892
v -0.469751 14.568014 -129.723892
v -0.469751 14.412361 -129.723892
v -0.469751 14.256709 -129.723892
v -0.469751 14.101057 -129.723892
v -0.469751 13.945405 -129.723892
v -0.469751 13.789753 -129.723892
v -0.469751 13.634101 -129.723892
v -0.469751 13.478449 -129.723892
v -0.469751 13.322796 -129.723892
v -0.469751 13.167144 -129.723892
v -0.469751 13.011492 -129.723892
v -0.469751 12.855840 -129.723892
v -0.469751 12.700188 -129.723892
v -0.469751 12.544536 -129.723892
v -0.469751 12.388884 -129.723892
v -0.469751 12.233231 -129.723892
v -0.469751 12.077579 -129.723892
v -0.469751 11.921926 -129.723892
v -0.469751 11.766274 -129.723892
v -0.469751 11.610622 -129.723892
v -0.469751 11.454970 -129.723892
v -0.469751 11.299318 -129.723892
v -0.469751 11.143665 -129.723892
v -0.469751 10.988013 -129.723892
v -0.469751 10.832361 -129.723892
v -0.469751 10.676709 -129.723892
v -0.469751 10.521057 -129.723892
v -0.469751 10.365405 -129.723892
v -0.469751 10.209753 -129.723892
v -0.469751 10.054100 -129.723892
v -0.469751 9.898449 -129.723892
v -0.469751 9.742796 -129.723892
v -0.469751 9.587145 -129.723892
v -0.469751 9.498638 -129.723892
v -0.433424 19.237579 -129.773895
v -0.433424 19.081926 -129.773895
v -0.433424 18.926275 -129.773895
v -0.433424 18.770622 -129.773895
v -0.433424 18.614971 -129.773895
v -0.433424 18.459318 -129.773895
v -0.433424 18.303667 -129.773895
v -0.433424 18.148014 -129.773895
v -0.433424 17.992363 -129.773895
v -0.433424 17.836710 -129.773895
v -0.433424 17.681057 -129.773895
v -0.433424 17.525406 -129.773895
v -0.433424 17.369753 -129.773895
v -0.433424 17.214100 -129.773895
v -0.433424 17.058449 -129.773895
v -0.433424 16.902796 -129.773895
v -0.433424 16.747145 -129.773895
v -0.433424 16.591492 -129.773895
v -0.433424 16.435839 -129.773895
v -0.433424 16.280188 -129.773895
v -0.433424 16.124535 -129.773895
v -0.433424 15.968884 -129.773895
v -0.433424 15.813231 -129.773895
v -0.433424 15.657579 -129.773895
v -0.433424 15.501926 -129.773895
v -0.433424 15.346274 -129.773895
v -0.433424 15.190622 -129.773895
v -0.433424 15.034970 -129.773895
v -0.433424 14.879318 -129.773895
v -0.433424 14.723666 -129.773895
v -0.433424 14.568014 -129.773895
v -0.433424 14.412361 -129.773895
v -0.433424 14.256709 -129.773895
v -0.433424 14.101057 -129.773895
v -0.433424 13.945405 -129.773895
v -0.433424 13.789753 -129.773895
v -0.433424 13.634101 -129.773895
v -0.433424 13.478449 -129.773895
v -0.433424 13.322796 -129.773895
v -0.433424 13.167144 -129.773895
v -0.433424 13.011492 -129.773895
v -0.433424 12.855840 -129.773895
v -0.433424 12.700188 -129.773895
v -0.433424 12.544536 -129.773895
v -0.433424 12.388884 -129.773895
v -0.433424 12.233231 -129.773895
v -0.433424 12.077579 -129.773895
v -0.433424 11.921926 -129.773895
v -0.433424 11.766274 -129.773895
v -0.433424 11.610622 -129.773895
v -0.433424 11.454970 -129.773895
v -0.433424 11.299318 -129.773895
v -0.433424 11.143665 -129.773895
v -0.433424 10.988013 -129.773895
v -0.433424 10.832361 -129.773895
v -0.433424 10.676709 -129.773895
v -0.433424 10.521057 -129.773895
v -0.433424 10.365405 -129.773895
v -0.433424 10.209753 -129.773895
v -0.433424 10.054100 -129.773895
v -0.433424 9.898449 -129.773895
v -0.433424 9.742796 -129.773895
v -0.433424 9.685375 -129.773895
v -0.433424 9.546501 -129.773895
v -0.374645 9.431492 -129.692993
vt 0.057272 0.617808
vt 0.054248 0.608500
vt 0.060297 0.608500
vt 0.974775 0.639272
vt 0.990009 0.639272
vt 0.990009 0.645321
vt 0.974775 0.645321
vt 0.049354 0.612055
vt 0.990009 0.651369
vt 0.974775 0.651369
vt 0.047485 0.617808
vt 0.990009 0.657418
vt 0.974775 0.657418
vt 0.049354 0.623561
vt 0.990009 0.663467
vt 0.974775 0.663467
vt 0.054248 0.627116
vt 0.990009 0.669516
vt 0.974775 0.669516
vt 0.060297 0.627116
vt 0.990009 0.675565
vt 0.974775 0.675565
vt 0.065190 0.623561
vt 0.990009 0.681613
vt 0.974776 0.681614
vt 0.067060 0.617808
vt 0.990009 0.687662
vt 0.974776 0.687662
vt 0.065190 0.612055
vt 0.974775 0.627174
vt 0.990009 0.627174
vt 0.990009 0.633223
vt 0.974775 0.633223
vt 0.026293 0.633229
vt 0.039885 0.633229
vt 0.030271 0.639278
vt 0.015037 0.639278
vt 0.045505 0.633229
vt 0.045505 0.639278
vt 0.060739 0.633229
vt 0.060739 0.639278
vt 0.075973 0.633229
vt 0.075973 0.639278
vt 0.091207 0.633229
vt 0.091207 0.639277
vt 0.106441 0.633229
vt 0.106441 0.639277
vt 0.121675 0.633228
vt 0.121675 0.639277
vt 0.136908 0.633228
vt 0.136908 0.639277
vt 0.152142 0.633228
vt 0.152142 0.639277
vt 0.167376 0.633228
vt 0.167376 0.639277
vt 0.182610 0.633228
vt 0.182610 0.639277
vt 0.197844 0.633228
vt 0.197844 0.639277
vt 0.213078 0.633228
vt 0.213078 0.639277
vt 0.228312 0.633228
vt 0.228312 0.639277
vt 0.243546 0.633228
vt 0.243546 0.639277
vt 0.258780 0.633228
vt 0.258780 0.639277
vt 0.274014 0.633228
vt 0.274014 0.639276
vt 0.289248 0.633228
vt 0.289248 0.639276
vt 0.304482 0.633227
vt 0.304482 0.639276
vt 0.319716 0.633227
vt 0.319716 0.639276
vt 0.334950 0.633227
vt 0.334950 0.639276
vt 0.350184 0.633227
vt 0.350184 0.639276
vt 0.365418 0.633227
vt 0.365418 0.639276
vt 0.380652 0.633227
vt 0.380652 0.639276
vt 0.395886 0.633227
vt 0.395886 0.639276
vt 0.411120 0.633227
vt 0.411120 0.639276
vt 0.426354 0.633227
vt 0.426354 0.639275
vt 0.441588 0.633227
vt 0.441588 0.639275
vt 0.456822 0.633227
vt 0.456822 0.639275
vt 0.472055 0.633226
vt 0.472055 0.639275
vt 0.487289 0.633226
vt 0.487289 0.639275
vt 0.502523 0.633226
vt 0.502523 0.639275
vt 0.517757 0.633226
vt 0.517757 0.639275
vt 0.532991 0.633226
vt 0.532991 0.639275
vt 0.548225 0.633226
vt 0.548225 0.639275
vt 0.563459 0.633226
vt 0.563459 0.639275
vt 0.578693 0.633226
vt 0.578693 0.639275
vt 0.593927 0.633226
vt 0.593927 0.639274
vt 0.609161 0.633226
vt 0.609161 0.639274
vt 0.624395 0.633226
vt 0.624395 0.639274
vt 0.639629 0.633225
vt 0.639629 0.639274
vt 0.654863 0.633225
vt 0.654863 0.639274
vt 0.670097 0.633225
vt 0.670097 0.639274
vt 0.685330 0.633225
vt 0.685330 0.639274
vt 0.700564 0.633225
vt 0.700564 0.639274
vt 0.715798 0.633225
vt 0.715798 0.639274
vt 0.731032 0.633225
vt 0.731032 0.639273
vt 0.746266 0.633225
vt 0.746266 0.639273
vt 0.761500 0.633224
vt 0.761500 0.639273
vt 0.776734 0.633224
vt 0.776734 0.639273
vt 0.791968 0.633224
vt 0.791968 0.639273
vt 0.807202 0.633224
vt 0.807202 0.639273
vt 0.822436 0.633224
vt 0.822436 0.639273
vt 0.837670 0.633224
vt 0.837670 0.639273
vt 0.852904 0.633224
vt 0.852904 0.639273
vt 0.868138 0.633224
vt 0.868138 0.639272
vt 0.883372 0.633224
vt 0.883371 0.639272
vt 0.898605 0.633223
vt 0.898605 0.639272
vt 0.913839 0.633223
vt 0.913839 0.639272
vt 0.929073 0.633223
vt 0.929073 0.639272
vt 0.944307 0.633223
vt 0.944307 0.639272
vt 0.959541 0.633223
vt 0.959541 0.639272
vt 0.021609 0.627180
vt 0.030271 0.627180
vt 0.045505 0.627180
vt 0.060739 0.627180
vt 0.075973 0.627180
vt 0.091207 0.627180
vt 0.106441 0.627180
vt 0.121675 0.627180
vt 0.136908 0.627180
vt 0.152142 0.627180
vt 0.167376 0.627179
vt 0.182610 0.627179
vt 0.197844 0.627179
vt 0.213078 0.627179
vt 0.228312 0.627179
vt 0.243546 0.627179
vt 0.258780 0.627179
vt 0.274014 0.627179
vt 0.289248 0.627179
vt 0.304482 0.627179
vt 0.319716 0.627179
vt 0.334950 0.627178
vt 0.350184 0.627178
vt 0.365418 0.627178
vt 0.380652 0.627178
vt 0.395886 0.627178
vt 0.411120 0.627178
vt 0.426354 0.627178
vt 0.441588 0.627178
vt 0.456822 0.627178
vt 0.472055 0.627178
vt 0.487289 0.627178
vt 0.502523 0.627177
vt 0.517757 0.627177
vt 0.532991 0.627177
vt 0.548225 0.627177
vt 0.563459 0.627177
vt 0.578693 0.627177
vt 0.593927 0.627177
vt 0.609161 0.627177
vt 0.624395 0.627177
vt 0.639629 0.627177
vt 0.654863 0.627176
vt 0.670096 0.627176
vt 0.685330 0.627176
vt 0.700564 0.627176
vt 0.715798 0.627176
vt 0.731032 0.627176
vt 0.746266 0.627176
vt 0.761500 0.627176
vt 0.776734 0.627176
vt 0.791968 0.627175
vt 0.807202 0.627175
vt 0.822436 0.627175
vt 0.837670 0.627175
vt 0.852904 0.627175
vt 0.868138 0.627175
vt 0.883371 0.627175
vt 0.898605 0.627175
vt 0.913839 0.627175
vt 0.929073 0.627174
vt 0.944307 0.627174
vt 0.959541 0.627174
vt 0.015037 0.681620
vt 0.030271 0.681620
vt 0.030271 0.687668
vt 0.021609 0.687668
vt 0.045505 0.681619
vt 0.045505 0.687668
vt 0.060739 0.681619
vt 0.060739 0.687668
vt 0.075973 0.681619
vt 0.075973 0.687668
vt 0.091207 0.681619
vt 0.091207 0.687668
vt 0.106441 0.681619
vt 0.106441 0.687668
vt 0.121675 0.681619
vt 0.121675 0.687668
vt 0.136909 0.681619
vt 0.136909 0.687668
vt 0.152143 0.681619
vt 0.152143 0.687668
vt 0.167377 0.681619
vt 0.167377 0.687667
vt 0.182611 0.681619
vt 0.182611 0.687667
vt 0.197845 0.681619
vt 0.197845 0.687667
vt 0.213078 0.681618
vt 0.213079 0.687667
vt 0.228312 0.681618
vt 0.228312 0.687667
vt 0.243546 0.681618
vt 0.243546 0.687667
vt 0.258780 0.681618
vt 0.258780 0.687667
vt 0.274014 0.681618
vt 0.274014 0.687667
vt 0.289248 0.681618
vt 0.289248 0.687667
vt 0.304482 0.681618
vt 0.304482 0.687667
vt 0.319716 0.681618
vt 0.319716 0.687667
vt 0.334950 0.681618
vt 0.334950 0.687667
vt 0.350184 0.681618
vt 0.350184 0.687666
vt 0.365418 0.681618
vt 0.365418 0.687666
vt 0.380652 0.681617
vt 0.380652 0.687666
vt 0.395886 0.681617
vt 0.395886 0.687666
vt 0.411120 0.681617
vt 0.411120 0.687666
vt 0.426354 0.681617
vt 0.426354 0.687666
vt 0.441588 0.681617
vt 0.441588 0.687666
vt 0.456822 0.681617
vt 0.456822 0.687666
vt 0.472056 0.681617
vt 0.472056 0.687666
vt 0.487290 0.681617
vt 0.487290 0.687666
vt 0.502524 0.681617
vt 0.502524 0.687665
vt 0.517758 0.681617
vt 0.517758 0.687665
vt 0.532992 0.681616
vt 0.532992 0.687665
vt 0.548226 0.681616
vt 0.548226 0.687665
vt 0.563459 0.681616
vt 0.563459 0.687665
vt 0.578693 0.681616
vt 0.578693 0.687665
vt 0.593927 0.681616
vt 0.593927 0.687665
vt 0.609161 0.681616
vt 0.609161 0.687665
vt 0.624395 0.681616
vt 0.624395 0.687665
vt 0.639629 0.681616
vt 0.639629 0.687664
vt 0.654863 0.681616
vt 0.654863 0.687664
vt 0.670097 0.681615
vt 0.670097 0.687664
vt 0.685331 0.681615
vt 0.685331 0.687664
vt 0.700565 0.681615
vt 0.700565 0.687664
vt 0.715799 0.681615
vt 0.715799 0.687664
vt 0.731032 0.681615
vt 0.731032 0.687664
vt 0.746266 0.681615
vt 0.746266 0.687664
vt 0.761500 0.681615
vt 0.761500 0.687664
vt 0.776734 0.681615
vt 0.776734 0.687663
vt 0.791968 0.681615
vt 0.791968 0.687663
vt 0.807202 0.681615
vt 0.807202 0.687663
vt 0.822436 0.681614
vt 0.822436 0.687663
vt 0.837670 0.681614
vt 0.837670 0.687663
vt 0.852904 0.681614
vt 0.852904 0.687663
vt 0.868138 0.681614
vt 0.868138 0.687663
vt 0.883372 0.681614
vt 0.883372 0.687663
vt 0.898606 0.681614
vt 0.898606 0.687663
vt 0.913840 0.681614
vt 0.913840 0.687663
vt 0.929074 0.681614
vt 0.929074 0.687663
vt 0.944308 0.681614
vt 0.944308 0.687662
vt 0.959541 0.681614
vt 0.959541 0.687662
vt 0.021811 0.675571
vt 0.030271 0.675571
vt 0.045505 0.675571
vt 0.060739 0.675570
vt 0.075973 0.675570
vt 0.091207 0.675570
vt 0.106441 0.675570
vt 0.121675 0.675570
vt 0.136909 0.675570
vt 0.152143 0.675570
vt 0.167377 0.675570
vt 0.182611 0.675570
vt 0.197845 0.675570
vt 0.213078 0.675570
vt 0.228312 0.675570
vt 0.243546 0.675569
vt 0.258780 0.675569
vt 0.274014 0.675569
vt 0.289248 0.675569
vt 0.304482 0.675569
vt 0.319716 0.675569
vt 0.334950 0.675569
vt 0.350184 0.675569
vt 0.365418 0.675569
vt 0.380652 0.675569
vt 0.395886 0.675569
vt 0.411120 0.675568
vt 0.426354 0.675568
vt 0.441588 0.675568
vt 0.456822 0.675568
vt 0.472056 0.675568
vt 0.487290 0.675568
vt 0.502524 0.675568
vt 0.517758 0.675568
vt 0.532991 0.675568
vt 0.548225 0.675568
vt 0.563459 0.675567
vt 0.578693 0.675567
vt 0.593927 0.675567
vt 0.609161 0.675567
vt 0.624395 0.675567
vt 0.639629 0.675567
vt 0.654863 0.675567
vt 0.670097 0.675567
vt 0.685331 0.675567
vt 0.700565 0.675566
vt 0.715798 0.675566
vt 0.731032 0.675566
vt 0.746266 0.675566
vt 0.761500 0.675566
vt 0.776734 0.675566
vt 0.791968 0.675566
vt 0.807202 0.675566
vt 0.822436 0.675566
vt 0.837670 0.675565
vt 0.852904 0.675565
vt 0.868138 0.675565
vt 0.883372 0.675565
vt 0.898606 0.675565
vt 0.913840 0.675565
vt 0.929074 0.675565
vt 0.944308 0.675565
vt 0.959541 0.675565
vt 0.024707 0.669522
vt 0.030271 0.669522
vt 0.045505 0.669522
vt 0.060739 0.669522
vt 0.075973 0.669522
vt 0.091207 0.669522
vt 0.106441 0.669521
vt 0.121675 0.669521
vt 0.136909 0.669521
vt 0.152143 0.669521
vt 0.167377 0.669521
vt 0.182611 0.669521
vt 0.197844 0.669521
vt 0.213078 0.669521
vt 0.228312 0.669521
vt 0.243546 0.669521
vt 0.258780 0.669521
vt 0.274014 0.669520
vt 0.289248 0.669520
vt 0.304482 0.669520
vt 0.319716 0.669520
vt 0.334950 0.669520
vt 0.350184 0.669520
vt 0.365418 0.669520
vt 0.380652 0.669520
vt 0.395886 0.669520
vt 0.411120 0.669520
vt 0.426354 0.669520
vt 0.441588 0.669519
vt 0.456822 0.669519
vt 0.472056 0.669519
vt 0.487290 0.669519
vt 0.502524 0.669519
vt 0.517758 0.669519
vt 0.532991 0.669519
vt 0.548225 0.669519
vt 0.563459 0.669519
vt 0.578693 0.669519
vt 0.593927 0.669518
vt 0.609161 0.669518
vt 0.624395 0.669518
vt 0.639629 0.669518
vt 0.654863 0.669518
vt 0.670097 0.669518
vt 0.685331 0.669518
vt 0.700565 0.669518
vt 0.715798 0.669518
vt 0.731032 0.669517
vt 0.746266 0.669517
vt 0.761500 0.669517
vt 0.776734 0.669517
vt 0.791968 0.669517
vt 0.807202 0.669517
vt 0.822436 0.669517
vt 0.837670 0.669517
vt 0.852904 0.669517
vt 0.868138 0.669517
vt 0.883372 0.669516
vt 0.898606 0.669516
vt 0.913840 0.669516
vt 0.929074 0.669516
vt 0.944308 0.669516
vt 0.959541 0.669516
vt 0.015037 0.663473
vt 0.030271 0.663473
vt 0.045505 0.663473
vt 0.060739 0.663473
vt 0.075973 0.663473
vt 0.091207 0.663473
vt 0.106441 0.663473
vt 0.121675 0.663473
vt 0.136909 0.663472
vt 0.152143 0.663472
vt 0.167377 0.663472
vt 0.182610 0.663472
vt 0.197844 0.663472
vt 0.213078 0.663472
vt 0.228312 0.663472
vt 0.243546 0.663472
vt 0.258780 0.663472
vt 0.274014 0.663472
vt 0.289248 0.663472
vt 0.304482 0.663471
vt 0.319716 0.663471
vt 0.334950 0.663471
vt 0.350184 0.663471
vt 0.365418 0.663471
vt 0.380652 0.663471
vt 0.395886 0.663471
vt 0.411120 0.663471
vt 0.426354 0.663471
vt 0.441588 0.663471
vt 0.456822 0.663471
vt 0.472056 0.663470
vt 0.487290 0.663470
vt 0.502524 0.663470
vt 0.517758 0.663470
vt 0.532991 0.663470
vt 0.548225 0.663470
vt 0.563459 0.663470
vt 0.578693 0.663470
vt 0.593927 0.663470
vt 0.609161 0.663469
vt 0.624395 0.663469
vt 0.639629 0.663469
vt 0.654863 0.663469
vt 0.670097 0.663469
vt 0.685331 0.663469
vt 0.700565 0.663469
vt 0.715798 0.663469
vt 0.731032 0.663469
vt 0.746266 0.663469
vt 0.761500 0.663468
vt 0.776734 0.663468
vt 0.791968 0.663468
vt 0.807202 0.663468
vt 0.822436 0.663468
vt 0.837670 0.663468
vt 0.852904 0.663468
vt 0.868138 0.663468
vt 0.883372 0.663468
vt 0.898606 0.663467
vt 0.913840 0.663467
vt 0.929074 0.663467
vt 0.944307 0.663467
vt 0.959541 0.663467
vt 0.018188 0.657424
vt 0.030271 0.657424
vt 0.045505 0.657424
vt 0.060739 0.657424
vt 0.075973 0.657424
vt 0.091207 0.657424
vt 0.106441 0.657424
vt 0.121675 0.657424
vt 0.136909 0.657424
vt 0.152143 0.657424
vt 0.167376 0.657423
vt 0.182610 0.657423
vt 0.197844 0.657423
vt 0.213078 0.657423
vt 0.228312 0.657423
vt 0.243546 0.657423
vt 0.258780 0.657423
vt 0.274014 0.657423
vt 0.289248 0.657423
vt 0.304482 0.657423
vt 0.319716 0.657423
vt 0.334950 0.657422
vt 0.350184 0.657422
vt 0.365418 0.657422
vt 0.380652 0.657422
vt 0.395886 0.657422
vt 0.411120 0.657422
vt 0.426354 0.657422
vt 0.441588 0.657422
vt 0.456822 0.657422
vt 0.472056 0.657422
vt 0.487290 0.657422
vt 0.502524 0.657421
vt 0.517757 0.657421
vt 0.532991 0.657421
vt 0.548225 0.657421
vt 0.563459 0.657421
vt 0.578693 0.657421
vt 0.593927 0.657421
vt 0.609161 0.657421
vt 0.624395 0.657421
vt 0.639629 0.657420
vt 0.654863 0.657420
vt 0.670097 0.657420
vt 0.685331 0.657420
vt 0.700564 0.657420
vt 0.715798 0.657420
vt 0.731032 0.657420
vt 0.746266 0.657420
vt 0.761500 0.657420
vt 0.776734 0.657420
vt 0.791968 0.657419
vt 0.807202 0.657419
vt 0.822436 0.657419
vt 0.837670 0.657419
vt 0.852904 0.657419
vt 0.868138 0.657419
vt 0.883372 0.657419
vt 0.898606 0.657419
vt 0.913839 0.657419
vt 0.929074 0.657418
vt 0.944307 0.657418
vt 0.959541 0.657418
vt 0.031541 0.651375
vt 0.037761 0.651375
vt 0.045505 0.651375
vt 0.060739 0.651375
vt 0.075973 0.651375
vt 0.091207 0.651375
vt 0.106441 0.651375
vt 0.121675 0.651375
vt 0.136909 0.651375
vt 0.152142 0.651375
vt 0.167376 0.651375
vt 0.182610 0.651375
vt 0.197844 0.651374
vt 0.213078 0.651374
vt 0.228312 0.651374
vt 0.243546 0.651374
vt 0.258780 0.651374
vt 0.274014 0.651374
vt 0.289248 0.651374
vt 0.304482 0.651374
vt 0.319716 0.651374
vt 0.334950 0.651374
vt 0.350184 0.651374
vt 0.365418 0.651373
vt 0.380652 0.651373
vt 0.395886 0.651373
vt 0.411120 0.651373
vt 0.426354 0.651373
vt 0.441588 0.651373
vt 0.456822 0.651373
vt 0.472056 0.651373
vt 0.487290 0.651373
vt 0.502524 0.651373
vt 0.517757 0.651373
vt 0.532991 0.651372
vt 0.548225 0.651372
vt 0.563459 0.651372
vt 0.578693 0.651372
vt 0.593927 0.651372
vt 0.609161 0.651372
vt 0.624395 0.651372
vt 0.639629 0.651372
vt 0.654863 0.651372
vt 0.670097 0.651371
vt 0.685331 0.651371
vt 0.700564 0.651371
vt 0.715798 0.651371
vt 0.731032 0.651371
vt 0.746266 0.651371
vt 0.761500 0.651371
vt 0.776734 0.651371
vt 0.791968 0.651371
vt 0.807202 0.651371
vt 0.822436 0.651370
vt 0.837670 0.651370
vt 0.852904 0.651370
vt 0.868138 0.651370
vt 0.883372 0.651370
vt 0.898606 0.651370
vt 0.913839 0.651370
vt 0.929073 0.651370
vt 0.944307 0.651370
vt 0.959541 0.651370
vt 0.015037 0.645327
vt 0.030271 0.645327
vt 0.045505 0.645327
vt 0.060739 0.645326
vt 0.075973 0.645326
vt 0.091207 0.645326
vt 0.106441 0.645326
vt 0.121675 0.645326
vt 0.136909 0.645326
vt 0.152142 0.645326
vt 0.167376 0.645326
vt 0.182610 0.645326
vt 0.197844 0.645326
vt 0.213078 0.645326
vt 0.228312 0.645325
vt 0.243546 0.645325
vt 0.258780 0.645325
vt 0.274014 0.645325
vt 0.289248 0.645325
vt 0.304482 0.645325
vt 0.319716 0.645325
vt 0.334950 0.645325
vt 0.350184 0.645325
vt 0.365418 0.645325
vt 0.380652 0.645325
vt 0.395886 0.645324
vt 0.411120 0.645324
vt 0.426354 0.645324
vt 0.441588 0.645324
vt 0.456822 0.645324
vt 0.472056 0.645324
vt 0.487290 0.645324
vt 0.502523 0.645324
vt 0.517757 0.645324
vt 0.532991 0.645324
vt 0.548225 0.645324
vt 0.563459 0.645323
vt 0.578693 0.645323
vt 0.593927 0.645323
vt 0.609161 0.645323
vt 0.624395 0.645323
vt 0.639629 0.645323
vt 0.654863 0.645323
vt 0.670097 0.645323
vt 0.685330 0.645323
vt 0.700564 0.645322
vt 0.715798 0.645322
vt 0.731032 0.645322
vt 0.746266 0.645322
vt 0.761500 0.645322
vt 0.776734 0.645322
vt 0.791968 0.645322
vt 0.807202 0.645322
vt 0.822436 0.645322
vt 0.837670 0.645321
vt 0.852904 0.645321
vt 0.868138 0.645321
vt 0.883372 0.645321
vt 0.898606 0.645321
vt 0.913839 0.645321
vt 0.929073 0.645321
vt 0.944307 0.645321
vt 0.959541 0.645321
vt 0.028883 0.612076
vt 0.019310 0.617832
vt 0.015834 0.610621
vt 0.024075 0.624500
vt 0.029199 0.627116
vt 0.036672 0.619961
vt 0.040091 0.615019
vt 0.047427 0.604084
vt 0.031422 0.601609
vt 0.026257 0.601609
vt 0.015037 0.604174
vn 0.0000 1.0000 0.0000
vn 0.4498 0.6437 -0.6191
vn 0.0000 0.6437 -0.7653
vn 0.0000 0.0000 -1.0000
vn 0.5878 0.0000 -0.8090
vn 0.7278 0.6437 -0.2365
vn 0.9510 0.0000 -0.3090
vn 0.7278 0.6437 0.2364
vn 0.9510 0.0000 0.3090
vn 0.4498 0.6437 0.6191
vn 0.5878 0.0000 0.8090
vn 0.0000 0.6437 0.7653
vn 0.0000 0.0000 1.0000
vn -0.4498 0.6437 0.6191
vn -0.5878 0.0000 0.8090
vn -0.7278 0.6437 0.2364
vn -0.9510 0.0000 0.3090
vn -0.7278 0.6437 -0.2365
vn -0.9510 0.0000 -0.3090
vn -0.4498 0.6437 -0.6191
vn -0.5878 0.0000 -0.8090
vn -0.5988 -0.1549 -0.7857
vn 0.0001 0.0000 -1.0000
vn -0.3234 -0.6589 -0.6791
vn -0.7746 -0.3562 -0.5225
vn -0.5868 -0.7856 0.1959
vn -0.3770 -0.3469 0.8588
vn -0.0412 -0.2021 0.9785
vn 0.2354 -0.7519 0.6158
vn 0.8776 -0.4541 -0.1538
vn 0.9495 -0.0654 -0.3069
vn 0.6953 -0.6401 -0.3269
vn 0.5877 0.0000 -0.8090
vn -0.0252 -0.9989 0.0383
usemtl BaumTextur
s 1
f 1/1/1 3/2/2 2/3/3
f 75/4/4 2/5/3 3/6/2 76/7/5
f 1/1/1 4/8/6 3/2/2
f 76/7/5 3/6/2 4/9/6 140/10/7
f 1/1/1 5/11/8 4/8/6
f 140/10/7 4/9/6 5/12/8 204/13/9
f 1/1/1 6/14/10 5/11/8
f 204/13/9 5/12/8 6/15/10 268/16/11
f 1/1/1 7/17/12 6/14/10
f 268/16/11 6/15/10 7/18/12 332/19/13
f 1/1/1 8/20/14 7/17/12
f 332/19/13 7/18/12 8/21/14 396/22/15
f 1/1/1 9/23/16 8/20/14
f 396/22/15 8/21/14 9/24/16 460/25/17
f 1/1/1 10/26/18 9/23/16
f 460/25/17 9/24/16 10/27/18 524/28/19
f 1/1/1 11/29/20 10/26/18
f 524/30/19 10/31/18 11/32/20 588/33/21
f 1/1/1 2/3/3 11/29/20
f 588/33/21 11/32/20 2/5/3 75/4/4
f 651/34/22 650/35/21 13/36/23 12/37/24
f 650/35/21 649/38/21 14/39/4 13/36/23
f 649/38/21 648/40/21 15/41/4 14/39/4
f 648/40/21 647/42/21 16/43/4 15/41/4
f 647/42/21 646/44/21 17/45/4 16/43/4
f 646/44/21 645/46/21 18/47/4 17/45/4
f 645/46/21 644/48/21 19/49/4 18/47/4
f 644/48/21 643/50/21 20/51/4 19/49/4
f 643/50/21 642/52/21 21/53/4 20/51/4
f 642/52/21 641/54/21 22/55/4 21/53/4
f 641/54/21 640/56/21 23/57/4 22/55/4
f 640/56/21 639/58/21 24/59/4 23/57/4
f 639/58/21 638/60/21 25/61/4 24/59/4
f 638/60/21 637/62/21 26/63/4 25/61/4
f 637/62/21 636/64/21 27/65/4 26/63/4
f 636/64/21 635/66/21 28/67/4 27/65/4
f 635/66/21 634/68/21 29/69/4 28/67/4
f 634/68/21 633/70/21 30/71/4 29/69/4
f 633/70/21 632/72/21 31/73/4 30/71/4
f 632/72/21 631/74/21 32/75/4 31/73/4
f 631/74/21 630/76/21 33/77/4 32/75/4
f 630/76/21 629/78/21 34/79/4 33/77/4
f 629/78/21 628/80/21 35/81/4 34/79/4
f 628/80/21 627/82/21 36/83/4 35/81/4
f 627/82/21 626/84/21 37/85/4 36/83/4
f 626/84/21 625/86/21 38/87/4 37/85/4
f 625/86/21 624/88/21 39/89/4 38/87/4
f 624/88/21 623/90/21 40/91/4 39/89/4
f 623/90/21 622/92/21 41/93/4 40/91/4
f 622/92/21 621/94/21 42/95/4 41/93/4
f 621/94/21 620/96/21 43/97/4 42/95/4
f 620/96/21 619/98/21 44/99/4 43/97/4
f 619/98/21 618/100/21 45/101/4 44/99/4
f 618/100/21 617/102/21 46/103/4 45/101/4
f 617/102/21 616/104/21 47/105/4 46/103/4
f 616/104/21 615/106/21 48/107/4 47/105/4
f 615/106/21 614/108/21 49/109/4 48/107/4
f 614/108/21 613/110/21 50/111/4 49/109/4
f 613/110/21 612/112/21 51/113/4 50/111/4
f 612/112/21 611/114/21 52/115/4 51/113/4
f 611/114/21 610/116/21 53/117/4 52/115/4
f 610/116/21 609/118/21 54/119/4 53/117/4
f 609/118/21 608/120/21 55/121/4 54/119/4
f 608/120/21 607/122/21 56/123/4 55/121/4
f 607/122/21 606/124/21 57/125/4 56/123/4
f 606/124/21 605/126/21 58/127/4 57/125/4
f 605/126/21 604/128/21 59/129/4 58/127/4
f 604/128/21 603/130/21 60/131/4 59/129/4
f 603/130/21 602/132/21 61/133/4 60/131/4
f 602/132/21 601/134/21 62/135/4 61/133/4
f 601/134/21 600/136/21 63/137/4 62/135/4
f 600/136/21 599/138/21 64/139/4 63/137/4
f 599/138/21 598/140/21 65/141/4 64/139/4
f 598/140/21 597/142/21 66/143/4 65/141/4
f 597/142/21 596/144/21 67/145/4 66/143/4
f 596/144/21 595/146/21 68/147/4 67/145/4
f 595/146/21 594/148/21 69/149/4 68/147/4
f 594/148/21 593/150/21 70/151/4 69/149/4
f 593/150/21 592/152/21 71/153/4 70/151/4
f 592/152/21 591/154/21 72/155/4 71/153/4
f 591/154/21 590/156/21 73/157/4 72/155/4
f 590/156/21 589/158/21 74/159/4 73/157/4
f 589/158/21 588/33/21 75/4/4 74/159/4
f 587/160/25 586/161/19 650/35/21 651/34/22
f 586/161/19 585/162/19 649/38/21 650/35/21
f 585/162/19 584/163/19 648/40/21 649/38/21
f 584/163/19 583/164/19 647/42/21 648/40/21
f 583/164/19 582/165/19 646/44/21 647/42/21
f 582/165/19 581/166/19 645/46/21 646/44/21
f 581/166/19 580/167/19 644/48/21 645/46/21
f 580/167/19 579/168/19 643/50/21 644/48/21
f 579/168/19 578/169/19 642/52/21 643/50/21
f 578/169/19 577/170/19 641/54/21 642/52/21
f 577/170/19 576/171/19 640/56/21 641/54/21
f 576/171/19 575/172/19 639/58/21 640/56/21
f 575/172/19 574/173/19 638/60/21 639/58/21
f 574/173/19 573/174/19 637/62/21 638/60/21
f 573/174/19 572/175/19 636/64/21 637/62/21
f 572/175/19 571/176/19 635/66/21 636/64/21
f 571/176/19 570/177/19 634/68/21 635/66/21
f 570/177/19 569/178/19 633/70/21 634/68/21
f 569/178/19 568/179/19 632/72/21 633/70/21
f 568/179/19 567/180/19 631/74/21 632/72/21
f 567/180/19 566/181/19 630/76/21 631/74/21
f 566/181/19 565/182/19 629/78/21 630/76/21
f 565/182/19 564/183/19 628/80/21 629/78/21
f 564/183/19 563/184/19 627/82/21 628/80/21
f 563/184/19 562/185/19 626/84/21 627/82/21
f 562/185/19 561/186/19 625/86/21 626/84/21
f 561/186/19 560/187/19 624/88/21 625/86/21
f 560/187/19 559/188/19 623/90/21 624/88/21
f 559/188/19 558/189/19 622/92/21 623/90/21
f 558/189/19 557/190/19 621/94/21 622/92/21
f 557/190/19 556/191/19 620/96/21 621/94/21
f 556/191/19 555/192/19 619/98/21 620/96/21
f 555/192/19 554/193/19 618/100/21 619/98/21
f 554/193/19 553/194/19 617/102/21 618/100/21
f 553/194/19 552/195/19 616/104/21 617/102/21
f 552/195/19 551/196/19 615/106/21 616/104/21
f 551/196/19 550/197/19 614/108/21 615/106/21
f 550/197/19 549/198/19 613/110/21 614/108/21
f 549/198/19 548/199/19 612/112/21 613/110/21
f 548/199/19 547/200/19 611/114/21 612/112/21
f 547/200/19 546/201/19 610/116/21 611/114/21
f 546/201/19 545/202/19 609/118/21 610/116/21
f 545/202/19 544/203/19 608/120/21 609/118/21
f 544/203/19 543/204/19 607/122/21 608/120/21
f 543/204/19 542/205/19 606/124/21 607/122/21
f 542/205/19 541/206/19 605/126/21 606/124/21
f 541/206/19 540/207/19 604/128/21 605/126/21
f 540/207/19 539/208/19 603/130/21 604/128/21
f 539/208/19 538/209/19 602/132/21 603/130/21
f 538/209/19 537/210/19 601/134/21 602/132/21
f 537/210/19 536/211/19 600/136/21 601/134/21
f 536/211/19 535/212/19 599/138/21 600/136/21
f 535/212/19 534/213/19 598/140/21 599/138/21
f 534/213/19 533/214/19 597/142/21 598/140/21
f 533/214/19 532/215/19 596/144/21 597/142/21
f 532/215/19 531/216/19 595/146/21 596/144/21
f 531/216/19 530/217/19 594/148/21 595/146/21
f 530/217/19 529/218/19 593/150/21 594/148/21
f 529/218/19 528/219/19 592/152/21 593/150/21
f 528/219/19 527/220/19 591/154/21 592/152/21
f 527/220/19 526/221/19 590/156/21 591/154/21
f 526/221/19 525/222/19 589/158/21 590/156/21
f 525/222/19 524/30/19 588/33/21 589/158/21
f 523/223/26 522/224/17 586/225/19 587/226/25
f 522/224/17 521/227/17 585/228/19 586/225/19
f 521/227/17 520/229/17 584/230/19 585/228/19
f 520/229/17 519/231/17 583/232/19 584/230/19
f 519/231/17 518/233/17 582/234/19 583/232/19
f 518/233/17 517/235/17 581/236/19 582/234/19
f 517/235/17 516/237/17 580/238/19 581/236/19
f 516/237/17 515/239/17 579/240/19 580/238/19
f 515/239/17 514/241/17 578/242/19 579/240/19
f 514/241/17 513/243/17 577/244/19 578/242/19
f 513/243/17 512/245/17 576/246/19 577/244/19
f 512/245/17 511/247/17 575/248/19 576/246/19
f 511/247/17 510/249/17 574/250/19 575/248/19
f 510/249/17 509/251/17 573/252/19 574/250/19
f 509/251/17 508/253/17 572/254/19 573/252/19
f 508/253/17 507/255/17 571/256/19 572/254/19
f 507/255/17 506/257/17 570/258/19 571/256/19
f 506/257/17 505/259/17 569/260/19 570/258/19
f 505/259/17 504/261/17 568/262/19 569/260/19
f 504/261/17 503/263/17 567/264/19 568/262/19
f 503/263/17 502/265/17 566/266/19 567/264/19
f 502/265/17 501/267/17 565/268/19 566/266/19
f 501/267/17 500/269/17 564/270/19 565/268/19
f 500/269/17 499/271/17 563/272/19 564/270/19
f 499/271/17 498/273/17 562/274/19 563/272/19
f 498/273/17 497/275/17 561/276/19 562/274/19
f 497/275/17 496/277/17 560/278/19 561/276/19
f 496/277/17 495/279/17 559/280/19 560/278/19
f 495/279/17 494/281/17 558/282/19 559/280/19
f 494/281/17 493/283/17 557/284/19 558/282/19
f 493/283/17 492/285/17 556/286/19 557/284/19
f 492/285/17 491/287/17 555/288/19 556/286/19
f 491/287/17 490/289/17 554/290/19 555/288/19
f 490/289/17 489/291/17 553/292/19 554/290/19
f 489/291/17 488/293/17 552/294/19 553/292/19
f 488/293/17 487/295/17 551/296/19 552/294/19
f 487/295/17 486/297/17 550/298/19 551/296/19
f 486/297/17 485/299/17 549/300/19 550/298/19
f 485/299/17 484/301/17 548/302/19 549/300/19
f 484/301/17 483/303/17 547/304/19 548/302/19
f 483/303/17 482/305/17 546/306/19 547/304/19
f 482/305/17 481/307/17 545/308/19 546/306/19
f 481/307/17 480/309/17 544/310/19 545/308/19
f 480/309/17 479/311/17 543/312/19 544/310/19
f 479/311/17 478/313/17 542/314/19 543/312/19
f 478/313/17 477/315/17 541/316/19 542/314/19
f 477/315/17 476/317/17 540/318/19 541/316/19
f 476/317/17 475/319/17 539/320/19 540/318/19
f 475/319/17 474/321/17 538/322/19 539/320/19
f 474/321/17 473/323/17 537/324/19 538/322/19
f 473/323/17 472/325/17 536/326/19 537/324/19
f 472/325/17 471/327/17 535/328/19 536/326/19
f 471/327/17 470/329/17 534/330/19 535/328/19
f 470/329/17 469/331/17 533/332/19 534/330/19
f 469/331/17 468/333/17 532/334/19 533/332/19
f 468/333/17 467/335/17 531/336/19 532/334/19
f 467/335/17 466/337/17 530/338/19 531/336/19
f 466/337/17 465/339/17 529/340/19 530/338/19
f 465/339/17 464/341/17 528/342/19 529/340/19
f 464/341/17 463/343/17 527/344/19 528/342/19
f 463/343/17 462/345/17 526/346/19 527/344/19
f 462/345/17 461/347/17 525/348/19 526/346/19
f 461/347/17 460/25/17 524/28/19 525/348/19
f 459/349/27 458/350/15 522/224/17 523/223/26
f 458/350/15 457/351/15 521/227/17 522/224/17
f 457/351/15 456/352/15 520/229/17 521/227/17
f 456/352/15 455/353/15 519/231/17 520/229/17
f 455/353/15 454/354/15 518/233/17 519/231/17
f 454/354/15 453/355/15 517/235/17 518/233/17
f 453/355/15 452/356/15 516/237/17 517/235/17
f 452/356/15 451/357/15 515/239/17 516/237/17
f 451/357/15 450/358/15 514/241/17 515/239/17
f 450/358/15 449/359/15 513/243/17 514/241/17
f 449/359/15 448/360/15 512/245/17 513/243/17
f 448/360/15 447/361/15 511/247/17 512/245/17
f 447/361/15 446/362/15 510/249/17 511/247/17
f 446/362/15 445/363/15 509/251/17 510/249/17
f 445/363/15 444/364/15 508/253/17 509/251/17
f 444/364/15 443/365/15 507/255/17 508/253/17
f 443/365/15 442/366/15 506/257/17 507/255/17
f 442/366/15 441/367/15 505/259/17 506/257/17
f 441/367/15 440/368/15 504/261/17 505/259/17
f 440/368/15 439/369/15 503/263/17 504/261/17
f 439/369/15 438/370/15 502/265/17 503/263/17
f 438/370/15 437/371/15 501/267/17 502/265/17
f 437/371/15 436/372/15 500/269/17 501/267/17
f 436/372/15 435/373/15 499/271/17 500/269/17
f 435/373/15 434/374/15 498/273/17 499/271/17
f 434/374/15 433/375/15 497/275/17 498/273/17
f 433/375/15 432/376/15 496/277/17 497/275/17
f 432/376/15 431/377/15 495/279/17 496/277/17
f 431/377/15 430/378/15 494/281/17 495/279/17
f 430/378/15 429/379/15 493/283/17 494/281/17
f 429/379/15 428/380/15 492/285/17 493/283/17
f 428/380/15 427/381/15 491/287/17 492/285/17
f 427/381/15 426/382/15 490/289/17 491/287/17
f 426/382/15 425/383/15 489/291/17 490/289/17
f 425/383/15 424/384/15 488/293/17 489/291/17
f 424/384/15 423/385/15 487/295/17 488/293/17
f 423/385/15 422/386/15 486/297/17 487/295/17
f 422/386/15 421/387/15 485/299/17 486/297/17
f 421/387/15 420/388/15 484/301/17 485/299/17
f 420/388/15 419/389/15 483/303/17 484/301/17
f 419/389/15 418/390/15 482/305/17 483/303/17
f 418/390/15 417/391/15 481/307/17 482/305/17
f 417/391/15 416/392/15 480/309/17 481/307/17
f 416/392/15 415/393/15 479/311/17 480/309/17
f 415/393/15 414/394/15 478/313/17 479/311/17
f 414/394/15 413/395/15 477/315/17 478/313/17
f 413/395/15 412/396/15 476/317/17 477/315/17
f 412/396/15 411/397/15 475/319/17 476/317/17
f 411/397/15 410/398/15 474/321/17 475/319/17
f 410/398/15 409/399/15 473/323/17 474/321/17
f 409/399/15 408/400/15 472/325/17 473/323/17
f 408/400/15 407/401/15 471/327/17 472/325/17
f 407/401/15 406/402/15 470/329/17 471/327/17
f 406/402/15 405/403/15 469/331/17 470/329/17
f 405/403/15 404/404/15 468/333/17 469/331/17
f 404/404/15 403/405/15 467/335/17 468/333/17
f 403/405/15 402/406/15 466/337/17 467/335/17
f 402/406/15 401/407/15 465/339/17 466/337/17
f 401/407/15 400/408/15 464/341/17 465/339/17
f 400/408/15 399/409/15 463/343/17 464/341/17
f 399/409/15 398/410/15 462/345/17 463/343/17
f 398/410/15 397/411/15 461/347/17 462/345/17
f 397/411/15 396/22/15 460/25/17 461/347/17
f 395/412/28 394/413/13 458/350/15 459/349/27
f 394/413/13 393/414/13 457/351/15 458/350/15
f 393/414/13 392/415/13 456/352/15 457/351/15
f 392/415/13 391/416/13 455/353/15 456/352/15
f 391/416/13 390/417/13 454/354/15 455/353/15
f 390/417/13 389/418/13 453/355/15 454/354/15
f 389/418/13 388/419/13 452/356/15 453/355/15
f 388/419/13 387/420/13 451/357/15 452/356/15
f 387/420/13 386/421/13 450/358/15 451/357/15
f 386/421/13 385/422/13 449/359/15 450/358/15
f 385/422/13 384/423/13 448/360/15 449/359/15
f 384/423/13 383/424/13 447/361/15 448/360/15
f 383/424/13 382/425/13 446/362/15 447/361/15
f 382/425/13 381/426/13 445/363/15 446/362/15
f 381/426/13 380/427/13 444/364/15 445/363/15
f 380/427/13 379/428/13 443/365/15 444/364/15
f 379/428/13 378/429/13 442/366/15 443/365/15
f 378/429/13 377/430/13 441/367/15 442/366/15
f 377/430/13 376/431/13 440/368/15 441/367/15
f 376/431/13 375/432/13 439/369/15 440/368/15
f 375/432/13 374/433/13 438/370/15 439/369/15
f 374/433/13 373/434/13 437/371/15 438/370/15
f 373/434/13 372/435/13 436/372/15 437/371/15
f 372/435/13 371/436/13 435/373/15 436/372/15
f 371/436/13 370/437/13 434/374/15 435/373/15
f 370/437/13 369/438/13 433/375/15 434/374/15
f 369/438/13 368/439/13 432/376/15 433/375/15
f 368/439/13 367/440/13 431/377/15 432/376/15
f 367/440/13 366/441/13 430/378/15 431/377/15
f 366/441/13 365/442/13 429/379/15 430/378/15
f 365/442/13 364/443/13 428/380/15 429/379/15
f 364/443/13 363/444/13 427/381/15 428/380/15
f 363/444/13 362/445/13 426/382/15 427/381/15
f 362/445/13 361/446/13 425/383/15 426/382/15
f 361/446/13 360/447/13 424/384/15 425/383/15
f 360/447/13 359/448/13 423/385/15 424/384/15
f 359/448/13 358/449/13 422/386/15 423/385/15
f 358/449/13 357/450/13 421/387/15 422/386/15
f 357/450/13 356/451/13 420/388/15 421/387/15
f 356/451/13 355/452/13 419/389/15 420/388/15
f 355/452/13 354/453/13 418/390/15 419/389/15
f 354/453/13 353/454/13 417/391/15 418/390/15
f 353/454/13 352/455/13 416/392/15 417/391/15
f 352/455/13 351/456/13 415/393/15 416/392/15
f 351/456/13 350/457/13 414/394/15 415/393/15
f 350/457/13 349/458/13 413/395/15 414/394/15
f 349/458/13 348/459/13 412/396/15 413/395/15
f 348/459/13 347/460/13 411/397/15 412/396/15
f 347/460/13 346/461/13 410/398/15 411/397/15
f 346/461/13 345/462/13 409/399/15 410/398/15
f 345/462/13 344/463/13 408/400/15 409/399/15
f 344/463/13 343/464/13 407/401/15 408/400/15
f 343/464/13 342/465/13 406/402/15 407/401/15
f 342/465/13 341/466/13 405/403/15 406/402/15
f 341/466/13 340/467/13 404/404/15 405/403/15
f 340/467/13 339/468/13 403/405/15 404/404/15
f 339/468/13 338/469/13 402/406/15 403/405/15
f 338/469/13 337/470/13 401/407/15 402/406/15
f 337/470/13 336/471/13 400/408/15 401/407/15
f 336/471/13 335/472/13 399/409/15 400/408/15
f 335/472/13 334/473/13 398/410/15 399/409/15
f 334/473/13 333/474/13 397/411/15 398/410/15
f 333/474/13 332/19/13 396/22/15 397/411/15
f 331/475/29 330/476/11 394/413/13 395/412/28
f 330/476/11 329/477/11 393/414/13 394/413/13
f 329/477/11 328/478/11 392/415/13 393/414/13
f 328/478/11 327/479/11 391/416/13 392/415/13
f 327/479/11 326/480/11 390/417/13 391/416/13
f 326/480/11 325/481/11 389/418/13 390/417/13
f 325/481/11 324/482/11 388/419/13 389/418/13
f 324/482/11 323/483/11 387/420/13 388/419/13
f 323/483/11 322/484/11 386/421/13 387/420/13
f 322/484/11 321/485/11 385/422/13 386/421/13
f 321/485/11 320/486/11 384/423/13 385/422/13
f 320/486/11 319/487/11 383/424/13 384/423/13
f 319/487/11 318/488/11 382/425/13 383/424/13
f 318/488/11 317/489/11 381/426/13 382/425/13
f 317/489/11 316/490/11 380/427/13 381/426/13
f 316/490/11 315/491/11 379/428/13 380/427/13
f 315/491/11 314/492/11 378/429/13 379/428/13
f 314/492/11 313/493/11 377/430/13 378/429/13
f 313/493/11 312/494/11 376/431/13 377/430/13
f 312/494/11 311/495/11 375/432/13 376/431/13
f 311/495/11 310/496/11 374/433/13 375/432/13
f 310/496/11 309/497/11 373/434/13 374/433/13
f 309/497/11 308/498/11 372/435/13 373/434/13
f 308/498/11 307/499/11 371/436/13 372/435/13
f 307/499/11 306/500/11 370/437/13 371/436/13
f 306/500/11 305/501/11 369/438/13 370/437/13
f 305/501/11 304/502/11 368/439/13 369/438/13
f 304/502/11 303/503/11 367/440/13 368/439/13
f 303/503/11 302/504/11 366/441/13 367/440/13
f 302/504/11 301/505/11 365/442/13 366/441/13
f 301/505/11 300/506/11 364/443/13 365/442/13
f 300/506/11 299/507/11 363/444/13 364/443/13
f 299/507/11 298/508/11 362/445/13 363/444/13
f 298/508/11 297/509/11 361/446/13 362/445/13
f 297/509/11 296/510/11 360/447/13 361/446/13
f 296/510/11 295/511/11 359/448/13 360/447/13
f 295/511/11 294/512/11 358/449/13 359/448/13
f 294/512/11 293/513/11 357/450/13 358/449/13
f 293/513/11 292/514/11 356/451/13 357/450/13
f 292/514/11 291/515/11 355/452/13 356/451/13
f 291/515/11 290/516/11 354/453/13 355/452/13
f 290/516/11 289/517/11 353/454/13 354/453/13
f 289/517/11 288/518/11 352/455/13 353/454/13
f 288/518/11 287/519/11 351/456/13 352/455/13
f 287/519/11 286/520/11 350/457/13 351/456/13
f 286/520/11 285/521/11 349/458/13 350/457/13
f 285/521/11 284/522/11 348/459/13 349/458/13
f 284/522/11 283/523/11 347/460/13 348/459/13
f 283/523/11 282/524/11 346/461/13 347/460/13
f 282/524/11 281/525/11 345/462/13 346/461/13
f 281/525/11 280/526/11 344/463/13 345/462/13
f 280/526/11 279/527/11 343/464/13 344/463/13
f 279/527/11 278/528/11 342/465/13 343/464/13
f 278/528/11 277/529/11 341/466/13 342/465/13
f 277/529/11 276/530/11 340/467/13 341/466/13
f 276/530/11 275/531/11 339/468/13 340/467/13
f 275/531/11 274/532/11 338/469/13 339/468/13
f 274/532/11 273/533/11 337/470/13 338/469/13
f 273/533/11 272/534/11 336/471/13 337/470/13
f 272/534/11 271/535/11 335/472/13 336/471/13
f 271/535/11 270/536/11 334/473/13 335/472/13
f 270/536/11 269/537/11 333/474/13 334/473/13
f 269/537/11 268/16/11 332/19/13 333/474/13
f 267/538/30 266/539/9 330/476/11 331/475/29
f 266/539/9 265/540/9 329/477/11 330/476/11
f 265/540/9 264/541/9 328/478/11 329/477/11
f 264/541/9 263/542/9 327/479/11 328/478/11
f 263/542/9 262/543/9 326/480/11 327/479/11
f 262/543/9 261/544/9 325/481/11 326/480/11
f 261/544/9 260/545/9 324/482/11 325/481/11
f 260/545/9 259/546/9 323/483/11 324/482/11
f 259/546/9 258/547/9 322/484/11 323/483/11
f 258/547/9 257/548/9 321/485/11 322/484/11
f 257/548/9 256/549/9 320/486/11 321/485/11
f 256/549/9 255/550/9 319/487/11 320/486/11
f 255/550/9 254/551/9 318/488/11 319/487/11
f 254/551/9 253/552/9 317/489/11 318/488/11
f 253/552/9 252/553/9 316/490/11 317/489/11
f 252/553/9 251/554/9 315/491/11 316/490/11
f 251/554/9 250/555/9 314/492/11 315/491/11
f 250/555/9 249/556/9 313/493/11 314/492/11
f 249/556/9 248/557/9 312/494/11 313/493/11
f 248/557/9 247/558/9 311/495/11 312/494/11
f 247/558/9 246/559/9 310/496/11 311/495/11
f 246/559/9 245/560/9 309/497/11 310/496/11
f 245/560/9 244/561/9 308/498/11 309/497/11
f 244/561/9 243/562/9 307/499/11 308/498/11
f 243/562/9 242/563/9 306/500/11 307/499/11
f 242/563/9 241/564/9 305/501/11 306/500/11
f 241/564/9 240/565/9 304/502/11 305/501/11
f 240/565/9 239/566/9 303/503/11 304/502/11
f 239/566/9 238/567/9 302/504/11 303/503/11
f 238/567/9 237/568/9 301/505/11 302/504/11
f 237/568/9 236/569/9 300/506/11 301/505/11
f 236/569/9 235/570/9 299/507/11 300/506/11
f 235/570/9 234/571/9 298/508/11 299/507/11
f 234/571/9 233/572/9 297/509/11 298/508/11
f 233/572/9 232/573/9 296/510/11 297/509/11
f 232/573/9 231/574/9 295/511/11 296/510/11
f 231/574/9 230/575/9 294/512/11 295/511/11
f 230/575/9 229/576/9 293/513/11 294/512/11
f 229/576/9 228/577/9 292/514/11 293/513/11
f 228/577/9 227/578/9 291/515/11 292/514/11
f 227/578/9 226/579/9 290/516/11 291/515/11
f 226/579/9 225/580/9 289/517/11 290/516/11
f 225/580/9 224/581/9 288/518/11 289/517/11
f 224/581/9 223/582/9 287/519/11 288/518/11
f 223/582/9 222/583/9 286/520/11 287/519/11
f 222/583/9 221/584/9 285/521/11 286/520/11
f 221/584/9 220/585/9 284/522/11 285/521/11
f 220/585/9 219/586/9 283/523/11 284/522/11
f 219/586/9 218/587/9 282/524/11 283/523/11
f 218/587/9 217/588/9 281/525/11 282/524/11
f 217/588/9 216/589/9 280/526/11 281/525/11
f 216/589/9 215/590/9 279/527/11 280/526/11
f 215/590/9 214/591/9 278/528/11 279/527/11
f 214/591/9 213/592/9 277/529/11 278/528/11
f 213/592/9 212/593/9 276/530/11 277/529/11
f 212/593/9 211/594/9 275/531/11 276/530/11
f 211/594/9 210/595/9 274/532/11 275/531/11
f 210/595/9 209/596/9 273/533/11 274/532/11
f 209/596/9 208/597/9 272/534/11 273/533/11
f 208/597/9 207/598/9 271/535/11 272/534/11
f 207/598/9 206/599/9 270/536/11 271/535/11
f 206/599/9 205/600/9 269/537/11 270/536/11
f 205/600/9 204/13/9 268/16/11 269/537/11
f 203/601/31 202/602/7 266/539/9 267/538/30
f 202/602/7 201/603/7 265/540/9 266/539/9
f 201/603/7 200/604/7 264/541/9 265/540/9
f 200/604/7 199/605/7 263/542/9 264/541/9
f 199/605/7 198/606/7 262/543/9 263/542/9
f 198/606/7 197/607/7 261/544/9 262/543/9
f 197/607/7 196/608/7 260/545/9 261/544/9
f 196/608/7 195/609/7 259/546/9 260/545/9
f 195/609/7 194/610/7 258/547/9 259/546/9
f 194/610/7 193/611/7 257/548/9 258/547/9
f 193/611/7 192/612/7 256/549/9 257/548/9
f 192/612/7 191/613/7 255/550/9 256/549/9
f 191/613/7 190/614/7 254/551/9 255/550/9
f 190/614/7 189/615/7 253/552/9 254/551/9
f 189/615/7 188/616/7 252/553/9 253/552/9
f 188/616/7 187/617/7 251/554/9 252/553/9
f 187/617/7 186/618/7 250/555/9 251/554/9
f 186/618/7 185/619/7 249/556/9 250/555/9
f 185/619/7 184/620/7 248/557/9 249/556/9
f 184/620/7 183/621/7 247/558/9 248/557/9
f 183/621/7 182/622/7 246/559/9 247/558/9
f 182/622/7 181/623/7 245/560/9 246/559/9
f 181/623/7 180/624/7 244/561/9 245/560/9
f 180/624/7 179/625/7 243/562/9 244/561/9
f 179/625/7 178/626/7 242/563/9 243/562/9
f 178/626/7 177/627/7 241/564/9 242/563/9
f 177/627/7 176/628/7 240/565/9 241/564/9
f 176/628/7 175/629/7 239/566/9 240/565/9
f 175/629/7 174/630/7 238/567/9 239/566/9
f 174/630/7 173/631/7 237/568/9 238/567/9
f 173/631/7 172/632/7 236/569/9 237/568/9
f 172/632/7 171/633/7 235/570/9 236/569/9
f 171/633/7 170/634/7 234/571/9 235/570/9
f 170/634/7 169/635/7 233/572/9 234/571/9
f 169/635/7 168/636/7 232/573/9 233/572/9
f 168/636/7 167/637/7 231/574/9 232/573/9
f 167/637/7 166/638/7 230/575/9 231/574/9
f 166/638/7 165/639/7 229/576/9 230/575/9
f 165/639/7 164/640/7 228/577/9 229/576/9
f 164/640/7 163/641/7 227/578/9 228/577/9
f 163/641/7 162/642/7 226/579/9 227/578/9
f 162/642/7 161/643/7 225/580/9 226/579/9
f 161/643/7 160/644/7 224/581/9 225/580/9
f 160/644/7 159/645/7 223/582/9 224/581/9
f 159/645/7 158/646/7 222/583/9 223/582/9
f 158/646/7 157/647/7 221/584/9 222/583/9
f 157/647/7 156/648/7 220/585/9 221/584/9
f 156/648/7 155/649/7 219/586/9 220/585/9
f 155/649/7 154/650/7 218/587/9 219/586/9
f 154/650/7 153/651/7 217/588/9 218/587/9
f 153/651/7 152/652/7 216/589/9 217/588/9
f 152/652/7 151/653/7 215/590/9 216/589/9
f 151/653/7 150/654/7 214/591/9 215/590/9
f 150/654/7 149/655/7 213/592/9 214/591/9
f 149/655/7 148/656/7 212/593/9 213/592/9
f 148/656/7 147/657/7 211/594/9 212/593/9
f 147/657/7 146/658/7 210/595/9 211/594/9
f 146/658/7 145/659/7 209/596/9 210/595/9
f 145/659/7 144/660/7 208/597/9 209/596/9
f 144/660/7 143/661/7 207/598/9 208/597/9
f 143/661/7 142/662/7 206/599/9 207/598/9
f 142/662/7 141/663/7 205/600/9 206/599/9
f 141/663/7 140/10/7 204/13/9 205/600/9
f 139/664/32 138/665/33 202/602/7 203/601/31
f 138/665/33 137/666/5 201/603/7 202/602/7
f 137/666/5 136/667/5 200/604/7 201/603/7
f 136/667/5 135/668/5 199/605/7 200/604/7
f 135/668/5 134/669/5 198/606/7 199/605/7
f 134/669/5 133/670/5 197/607/7 198/606/7
f 133/670/5 132/671/5 196/608/7 197/607/7
f 132/671/5 131/672/5 195/609/7 196/608/7
f 131/672/5 130/673/5 194/610/7 195/609/7
f 130/673/5 129/674/5 193/611/7 194/610/7
f 129/674/5 128/675/5 192/612/7 193/611/7
f 128/675/5 127/676/5 191/613/7 192/612/7
f 127/676/5 126/677/5 190/614/7 191/613/7
f 126/677/5 125/678/5 189/615/7 190/614/7
f 125/678/5 124/679/5 188/616/7 189/615/7
f 124/679/5 123/680/5 187/617/7 188/616/7
f 123/680/5 122/681/5 186/618/7 187/617/7
f 122/681/5 121/682/5 185/619/7 186/618/7
f 121/682/5 120/683/5 184/620/7 185/619/7
f 120/683/5 119/684/5 183/621/7 184/620/7
f 119/684/5 118/685/5 182/622/7 183/621/7
f 118/685/5 117/686/5 181/623/7 182/622/7
f 117/686/5 116/687/5 180/624/7 181/623/7
f 116/687/5 115/688/5 179/625/7 180/624/7
f 115/688/5 114/689/5 178/626/7 179/625/7
f 114/689/5 113/690/5 177/627/7 178/626/7
f 113/690/5 112/691/5 176/628/7 177/627/7
f 112/691/5 111/692/5 175/629/7 176/628/7
f 111/692/5 110/693/5 174/630/7 175/629/7
f 110/693/5 109/694/5 173/631/7 174/630/7
f 109/694/5 108/695/5 172/632/7 173/631/7
f 108/695/5 107/696/5 171/633/7 172/632/7
f 107/696/5 106/697/5 170/634/7 171/633/7
f 106/697/5 105/698/5 169/635/7 170/634/7
f 105/698/5 104/699/5 168/636/7 169/635/7
f 104/699/5 103/700/5 167/637/7 168/636/7
f 103/700/5 102/701/5 166/638/7 167/637/7
f 102/701/5 101/702/5 165/639/7 166/638/7
f 101/702/5 100/703/5 164/640/7 165/639/7
f 100/703/5 99/704/5 163/641/7 164/640/7
f 99/704/5 98/705/5 162/642/7 163/641/7
f 98/705/5 97/706/5 161/643/7 162/642/7
f 97/706/5 96/707/5 160/644/7 161/643/7
f 96/707/5 95/708/5 159/645/7 160/644/7
f 95/708/5 94/709/5 158/646/7 159/645/7
f 94/709/5 93/710/5 157/647/7 158/646/7
f 93/710/5 92/711/5 156/648/7 157/647/7
f 92/711/5 91/712/5 155/649/7 156/648/7
f 91/712/5 90/713/5 154/650/7 155/649/7
f 90/713/5 89/714/5 153/651/7 154/650/7
f 89/714/5 88/715/5 152/652/7 153/651/7
f 88/715/5 87/716/5 151/653/7 152/652/7
f 87/716/5 86/717/5 150/654/7 151/653/7
f 86/717/5 85/718/5 149/655/7 150/654/7
f 85/718/5 84/719/5 148/656/7 149/655/7
f 84/719/5 83/720/5 147/657/7 148/656/7
f 83/720/5 82/721/5 146/658/7 147/657/7
f 82/721/5 81/722/5 145/659/7 146/658/7
f 81/722/5 80/723/5 144/660/7 145/659/7
f 80/723/5 79/724/5 143/661/7 144/660/7
f 79/724/5 78/725/5 142/662/7 143/661/7
f 78/725/5 77/726/5 141/663/7 142/662/7
f 77/726/5 76/7/5 140/10/7 141/663/7
f 12/37/24 13/36/23 138/665/33 139/664/32
f 13/36/23 14/39/4 137/666/5 138/665/33
f 14/39/4 15/41/4 136/667/5 137/666/5
f 15/41/4 16/43/4 135/668/5 136/667/5
f 16/43/4 17/45/4 134/669/5 135/668/5
f 17/45/4 18/47/4 133/670/5 134/669/5
f 18/47/4 19/49/4 132/671/5 133/670/5
f 19/49/4 20/51/4 131/672/5 132/671/5
f 20/51/4 21/53/4 130/673/5 131/672/5
f 21/53/4 22/55/4 129/674/5 130/673/5
f 22/55/4 23/57/4 128/675/5 129/674/5
f 23/57/4 24/59/4 127/676/5 128/675/5
f 24/59/4 25/61/4 126/677/5 127/676/5
f 25/61/4 26/63/4 125/678/5 126/677/5
f 26/63/4 27/65/4 124/679/5 125/678/5
f 27/65/4 28/67/4 123/680/5 124/679/5
f 28/67/4 29/69/4 122/681/5 123/680/5
f 29/69/4 30/71/4 121/682/5 122/681/5
f 30/71/4 31/73/4 120/683/5 121/682/5
f 31/73/4 32/75/4 119/684/5 120/683/5
f 32/75/4 33/77/4 118/685/5 119/684/5
f 33/77/4 34/79/4 117/686/5 118/685/5
f 34/79/4 35/81/4 116/687/5 117/686/5
f 35/81/4 36/83/4 115/688/5 116/687/5
f 36/83/4 37/85/4 114/689/5 115/688/5
f 37/85/4 38/87/4 113/690/5 114/689/5
f 38/87/4 39/89/4 112/691/5 113/690/5
f 39/89/4 40/91/4 111/692/5 112/691/5
f 40/91/4 41/93/4 110/693/5 111/692/5
f 41/93/4 42/95/4 109/694/5 110/693/5
f 42/95/4 43/97/4 108/695/5 109/694/5
f 43/97/4 44/99/4 107/696/5 108/695/5
f 44/99/4 45/101/4 106/697/5 107/696/5
f 45/101/4 46/103/4 105/698/5 106/697/5
f 46/103/4 47/105/4 104/699/5 105/698/5
f 47/105/4 48/107/4 103/700/5 104/699/5
f 48/107/4 49/109/4 102/701/5 103/700/5
f 49/109/4 50/111/4 101/702/5 102/701/5
f 50/111/4 51/113/4 100/703/5 101/702/5
f 51/113/4 52/115/4 99/704/5 100/703/5
f 52/115/4 53/117/4 98/705/5 99/704/5
f 53/117/4 54/119/4 97/706/5 98/705/5
f 54/119/4 55/121/4 96/707/5 97/706/5
f 55/121/4 56/123/4 95/708/5 96/707/5
f 56/123/4 57/125/4 94/709/5 95/708/5
f 57/125/4 58/127/4 93/710/5 94/709/5
f 58/127/4 59/129/4 92/711/5 93/710/5
f 59/129/4 60/131/4 91/712/5 92/711/5
f 60/131/4 61/133/4 90/713/5 91/712/5
f 61/133/4 62/135/4 89/714/5 90/713/5
f 62/135/4 63/137/4 88/715/5 89/714/5
f 63/137/4 64/139/4 87/716/5 88/715/5
f 64/139/4 65/141/4 86/717/5 87/716/5
f 65/141/4 66/143/4 85/718/5 86/717/5
f 66/143/4 67/145/4 84/719/5 85/718/5
f 67/145/4 68/147/4 83/720/5 84/719/5
f 68/147/4 69/149/4 82/721/5 83/720/5
f 69/149/4 70/151/4 81/722/5 82/721/5
f 70/151/4 71/153/4 80/723/5 81/722/5
f 71/153/4 72/155/4 79/724/5 80/723/5
f 72/155/4 73/157/4 78/725/5 79/724/5
f 73/157/4 74/159/4 77/726/5 78/725/5
f 74/159/4 75/4/4 76/7/5 77/726/5
f 652/727/34 523/728/26 587/729/25
f 523/728/26 652/727/34 459/730/27
f 395/731/28 459/730/27 652/727/34
f 395/731/28 652/727/34 331/732/29
f 331/732/29 652/727/34 267/733/30
f 267/733/30 652/727/34 203/734/31
f 203/734/31 652/727/34 139/735/32
f 12/736/24 652/727/34 651/737/22
f 587/729/25 651/737/22 652/727/34
f 139/735/32 652/727/34 12/736/24
