# Blender v2.79 (sub 0) OBJ File: 'Burg Test.blend'
# www.blender.org
mtllib Stein_Schiebbar.mtl
o Schiebestein_Cube.002
v 1.213417 2.281597 -71.010384
v 0.766362 2.117687 -71.331299
v 1.297423 2.601348 -69.721054
v -0.343137 2.799277 -68.976791
v 0.543904 2.991134 -69.680840
v 0.524399 1.805362 -69.703545
v -0.456002 1.823117 -69.702621
v 0.694105 1.907850 -71.234268
v -0.461332 1.857446 -70.370201
v -0.149276 2.516967 -68.778870
v 1.006925 1.818339 -69.706085
v -0.385073 2.291268 -68.761711
v 1.015643 2.812278 -70.789673
v -0.211724 1.810063 -70.051186
v 0.276461 1.808714 -69.381721
v 0.046705 1.825742 -69.065041
v -0.107280 1.912506 -68.842842
v -0.286180 1.850893 -70.722641
v 0.537059 1.829703 -69.094017
v 0.737391 1.817792 -70.692635
v -0.443352 1.839092 -69.059494
v -0.630193 1.903478 -69.428383
v 1.087845 1.914702 -69.466194
v 1.276348 2.276074 -69.701103
v -0.055393 2.296245 -68.720566
v 0.964069 2.707361 -69.107971
v 0.472445 2.811265 -68.934250
v -0.059105 1.873540 -71.075821
v 1.156822 2.588755 -69.181282
v 0.650612 2.858097 -69.107674
v -0.215880 1.816202 -69.375877
v 1.271377 2.122236 -70.031845
v -0.725150 2.133539 -69.349541
v 0.050467 1.966518 -71.303398
v 1.193188 2.719726 -69.481827
v 0.750641 1.822795 -69.423637
v 0.724878 2.428379 -68.824570
v 0.251472 2.703843 -68.834145
v 0.887146 2.580630 -68.908279
v 0.524149 2.954131 -69.351891
v -0.726492 2.275797 -69.702187
v 1.068152 2.166419 -71.202293
v 1.215770 2.681181 -70.547325
v 1.245010 1.980692 -69.705170
v 0.497232 2.570454 -68.786644
v -0.084336 2.563078 -70.887283
v 0.520993 2.004598 -68.807564
v 1.040354 2.609787 -71.073822
v 0.773721 1.809474 -70.037766
v -0.455784 2.667141 -68.983841
v 0.514262 1.817290 -70.995743
v 1.250013 2.433665 -69.387489
v 0.024619 1.805286 -69.702721
v -0.249743 2.114397 -68.745651
v 1.046197 2.486744 -69.008400
v 1.014263 2.255546 -69.008141
v 1.069236 1.864528 -70.476486
v 1.214506 2.124075 -69.415253
v 0.526439 2.273144 -71.338295
v 1.252527 2.447183 -70.771461
v -0.694336 2.262138 -70.346703
v 0.503391 2.279350 -68.757187
v -0.384838 2.825759 -70.167824
v 1.235262 2.779007 -70.066780
v -0.578030 1.969971 -70.318390
v 1.238675 2.116630 -70.691544
v 1.298277 2.282153 -70.382927
v -0.324876 2.453038 -70.823502
v -0.613299 2.161380 -68.922722
v 0.296798 2.114343 -71.326790
v -0.632099 2.565859 -69.143539
v 1.060659 2.945387 -70.415550
v 1.152508 2.864513 -69.756081
v 0.431052 2.803909 -70.921722
v 0.041534 2.958627 -69.274033
v 0.494185 2.616472 -71.186012
v -0.166035 2.889385 -69.118217
v -0.149651 2.752270 -68.880798
v 0.671786 2.160658 -68.820053
v 0.055935 2.999543 -69.734238
v 0.801459 1.973548 -69.042053
v -0.699580 2.275270 -69.135735
v -0.434461 2.895819 -69.476082
v 0.045661 2.831719 -68.934273
v 1.239303 1.969389 -70.332840
v 0.250776 2.124138 -68.742607
v 0.661527 2.683404 -68.885765
v -0.104197 2.371108 -71.099190
v -0.578060 2.553139 -70.273781
v 0.768881 2.755332 -71.048370
v 0.315561 1.886021 -68.896851
v 0.512894 1.805254 -70.344360
v 0.202747 1.809982 -70.612915
v 0.889646 2.913982 -69.539932
v 0.055530 2.260077 -71.258957
v 0.755846 2.951281 -70.657570
v -0.697898 2.580681 -69.694489
v 0.290953 2.934503 -70.487083
v -0.132114 2.970309 -69.939003
v 0.054257 2.755313 -70.716148
v 0.197913 2.618307 -71.040474
v -0.564472 2.415653 -68.963463
v 0.225666 2.985770 -69.502365
v -0.328912 2.967350 -69.699997
v -0.438472 2.899792 -69.873573
v -0.582288 2.700724 -69.959167
v -0.705458 2.427860 -69.403397
v 0.073499 2.963690 -70.203033
v -0.696351 2.425256 -70.013214
v -0.402597 2.243176 -70.961502
v 0.757596 3.003623 -70.094963
v 0.062004 2.497910 -71.085030
v -0.575948 2.827622 -69.678520
v 0.277926 2.408441 -71.241806
v -0.692714 2.117900 -70.009102
v -0.558626 2.075469 -70.630302
v -0.554574 1.883600 -70.002419
v -0.142636 2.112691 -71.229774
v -0.124842 2.973941 -69.518684
v 0.770229 2.427740 -71.295158
v -0.561498 2.391715 -70.548431
v 1.145395 1.891512 -69.984329
v -0.119516 2.876304 -70.320351
v 1.070936 2.952151 -70.006683
v 0.536682 3.001590 -70.332802
v -0.626571 2.707426 -69.407951
v 1.281556 2.445894 -70.056465
v -0.299025 2.914931 -70.098328
v 0.285776 1.805271 -69.998978
v 0.290353 3.000040 -69.999222
v 0.260286 2.899626 -69.088165
v 0.287503 1.877746 -71.182877
v 1.105092 2.404311 -71.168159
v 0.293732 2.422727 -68.746727
v -0.450131 2.812953 -69.151764
v -0.539947 1.961134 -68.924171
v -0.340663 2.649740 -70.480927
v -0.358071 2.001909 -71.029823
v 1.000354 1.936048 -71.025078
vt 0.834278 0.671227
vt 0.954905 0.685472
vt 0.905211 0.754139
vt 0.224997 0.640864
vt 0.185705 0.637184
vt 0.206346 0.613859
vt 0.584371 0.437716
vt 0.611908 0.417120
vt 0.626274 0.453546
vt 0.359061 0.492747
vt 0.353156 0.439366
vt 0.378106 0.453076
vt 0.412839 0.480997
vt 0.343426 0.390743
vt 0.395485 0.333087
vt 0.401496 0.408906
vt 0.295619 0.397225
vt 0.311212 0.333801
vt 0.440168 0.359395
vt 0.493433 0.316443
vt 0.243320 0.360951
vt 0.268802 0.309891
vt 0.644933 0.356114
vt 0.666579 0.288129
vt 0.685806 0.383221
vt 0.854061 0.584830
vt 0.894217 0.641682
vt 0.319705 0.244167
vt 0.386157 0.675928
vt 0.443100 0.836293
vt 0.298410 0.704891
vt 0.758618 0.537542
vt 0.733985 0.555741
vt 0.710640 0.514749
vt 0.272651 0.376238
vt 0.740234 0.500350
vt 0.383591 0.274491
vt 0.802383 0.530148
vt 0.766171 0.484767
vt 0.493318 0.406419
vt 0.543065 0.375411
vt 0.588958 0.358455
vt 0.332234 0.557621
vt 0.315705 0.508638
vt 0.228399 0.586780
vt 0.495058 0.650243
vt 0.335422 0.470182
vt 0.252799 0.595212
vt 0.757766 0.594960
vt 0.284082 0.607824
vt 0.590808 0.271716
vt 0.401225 0.566858
vt 0.798519 0.582159
vt 0.556561 0.487234
vt 0.255821 0.668366
vt 0.215756 0.732226
vt 0.850239 0.499440
vt 0.879352 0.425364
vt 0.891139 0.467571
vt 0.639132 0.412191
vt 0.660272 0.482408
vt 0.771094 0.315338
vt 0.708162 0.349438
vt 0.412567 0.218077
vt 0.516796 0.149170
vt 0.487479 0.243390
vt 0.823253 0.418374
vt 0.772963 0.421859
vt 0.548831 0.292570
vt 0.310924 0.449551
vt 0.436330 0.283206
vt 0.749810 0.444019
vt 0.719636 0.454328
vt 0.271870 0.165359
vt 0.929569 0.149750
vt 0.731398 0.399548
vt 0.800369 0.474385
vt 0.706973 0.197412
vt 0.935734 0.435189
vt 0.937106 0.512109
vt 0.034840 0.149750
vt 0.214787 0.282786
vt 0.923779 0.344611
vt 0.672979 0.425108
vt 0.121714 0.506502
vt 0.086009 0.549254
vt 0.042377 0.512109
vt 0.045016 0.599351
vt 0.126177 0.574243
vt 0.491326 0.501153
vt 0.445900 0.445557
vt 0.222182 0.533135
vt 0.189645 0.592048
vt 0.145841 0.372224
vt 0.121567 0.282659
vt 0.541085 0.568677
vt 0.595201 0.613646
vt 0.029050 0.344611
vt 0.636102 0.550211
vt 0.618834 0.495501
vt 0.446254 0.526007
vt 0.200959 0.409373
vt 0.248226 0.422919
vt 0.690556 0.469712
vt 0.199830 0.461839
vt 0.224671 0.481387
vt 0.193800 0.504584
vt 0.338297 0.620109
vt 0.666474 0.606753
vt 0.711191 0.576253
vt 0.677150 0.543129
vt 0.201991 0.361189
vt 0.162536 0.456209
vt 0.163504 0.498078
vt 0.480459 0.565952
vt 0.280872 0.435025
vt 0.264234 0.480247
vt 0.162514 0.697587
vt 0.086003 0.403571
vt 0.041005 0.435189
vt 0.145985 0.529835
vt 0.172567 0.544965
vt 0.159750 0.588032
vt 0.141390 0.640286
vt 0.271027 0.545194
vt 0.112884 0.449077
vt 0.591321 0.540064
vt 0.650734 0.734366
vt 0.730597 0.662841
vt 0.291539 0.495962
vt 0.156337 0.422365
vt 0.302015 0.554708
vt 0.258240 0.801608
vt 0.123712 0.847763
vt 0.890414 0.555648
vt 0.092570 0.754915
vt 0.115413 0.699239
vt 0.149539 0.760603
vt 0.939745 0.599351
vt 0.716551 0.884018
vt 0.924048 0.801490
vt 0.811089 0.798497
vt 0.720352 0.938889
vt 0.060176 0.685472
vt 0.565036 0.709307
vt 0.096173 0.629863
vt 0.029319 0.801490
vt 0.987300 0.754915
vn -0.7533 0.5222 -0.3999
vn -0.2787 0.9291 0.2430
vn 0.8789 0.3125 -0.3604
vn 0.5604 0.5049 0.6565
vn 0.5854 0.7149 0.3824
vn 0.8693 -0.1422 0.4735
vn 0.5209 -0.4781 0.7072
vn 0.9701 -0.2252 0.0902
vn 0.3066 -0.7671 0.5635
vn 0.2092 -0.9618 -0.1766
vn -0.6320 0.6509 -0.4207
vn 0.4139 -0.8641 0.2863
vn -0.0008 0.9996 0.0286
vn -0.3410 0.5334 -0.7741
vn 0.5377 -0.4632 0.7045
vn 0.2880 -0.8422 0.4559
vn 0.6590 -0.5580 0.5043
vn -0.3331 0.5849 -0.7395
vn 0.6665 -0.5306 0.5237
vn -0.5254 0.4447 -0.7254
vn 0.9830 0.1793 -0.0396
vn 0.9910 -0.0692 -0.1143
vn 0.3575 0.7423 0.5668
vn -0.0389 0.8641 0.5017
vn 0.9814 -0.1256 0.1455
vn -0.0017 0.9996 0.0293
vn 0.6531 0.4999 0.5688
vn 0.9995 -0.0315 -0.0004
vn 0.8674 -0.1193 0.4831
vn 0.9858 -0.0773 -0.1489
vn -0.2054 0.8413 0.5000
vn -0.4676 0.6765 -0.5690
vn -0.0470 0.9364 0.3477
vn 0.2359 -0.9594 -0.1547
vn 0.4085 0.8488 0.3356
vn -0.5328 0.5938 -0.6029
vn 0.1704 0.9783 0.1175
vn -0.6397 0.6534 -0.4047
vn -0.6858 0.5598 -0.4651
vn 0.9806 0.1918 -0.0395
vn 0.3814 0.7069 0.5956
vn -0.1832 0.9655 0.1850
vn -0.0473 0.9347 0.3524
vn -0.5972 0.7231 -0.3472
vn 0.9963 0.0704 0.0483
vn -0.4515 0.4550 -0.7676
vn -0.7276 -0.6349 -0.2600
vn 0.9639 -0.2622 -0.0456
vn 0.3583 0.0779 -0.9304
vn 0.0134 -0.9999 -0.0082
vn 0.0068 -0.9997 0.0219
vn 0.7400 -0.6488 -0.1775
vn 0.6195 -0.7782 0.1036
vn -0.0601 -0.9929 -0.1023
vn 0.8810 -0.4530 0.1362
vn 0.4975 -0.0841 0.8634
vn 0.5040 -0.8585 0.0944
vn -0.2119 0.2017 -0.9563
vn 0.0081 -0.9999 -0.0062
vn -0.0256 -0.9922 -0.1218
vn 0.2289 -0.5124 -0.8277
vn 0.9976 -0.0265 0.0644
vn 0.5048 -0.0688 0.8605
vn -0.6627 -0.7218 -0.1998
vn -0.0097 -0.9999 -0.0064
vn -0.6302 -0.5638 -0.5338
vn -0.3644 -0.5907 -0.7199
vn 0.2127 -0.9769 0.0207
vn -0.8580 -0.5081 -0.0752
vn -0.8959 -0.0401 -0.4424
vn 0.9954 0.0263 0.0917
vn 0.0102 -0.9995 -0.0294
vn 0.9924 -0.1133 -0.0482
vn -0.0064 -1.0000 0.0055
vn 0.2323 -0.9629 -0.1376
vn -0.2074 -0.9781 0.0170
vn 0.0271 -0.9412 -0.3369
vn 0.5195 -0.4995 -0.6933
vn -0.1470 -0.9794 -0.1383
vn -0.6649 -0.6759 -0.3179
vn -0.9914 -0.1230 -0.0458
vn -0.1294 -0.9905 -0.0459
vn 0.8105 -0.4915 -0.3185
vn 0.8084 -0.0413 -0.5872
vn 0.0091 -0.9999 0.0060
vn 0.3769 0.1026 -0.9205
vn 0.8552 -0.4971 -0.1464
vn 0.5481 -0.8355 -0.0390
vn -0.9859 0.1667 -0.0154
vn 0.1528 -0.9880 -0.0210
vn -0.7180 -0.6832 -0.1334
vn -0.9946 -0.0131 -0.1027
vn -0.1202 -0.8974 -0.4245
vn 0.2440 -0.9533 -0.1780
vn -0.0715 -0.9960 -0.0526
vn -0.9210 -0.3481 -0.1750
vn -0.9968 0.0728 0.0331
vn -0.0090 -0.9999 -0.0065
vn 0.0479 -0.9986 0.0235
vn 0.8142 -0.4851 -0.3191
vn -0.4149 -0.8512 -0.3214
vn -0.0057 -0.4181 -0.9084
vn 0.3889 -0.6309 -0.6714
vn 0.7614 -0.5457 0.3500
vn 0.0333 -0.9993 -0.0145
vn 0.6656 -0.6900 -0.2844
vn 0.2865 -0.9035 0.3188
vn 0.2849 -0.9189 0.2730
vn -0.0697 -0.5164 -0.8535
vn -0.6983 0.0728 -0.7121
vn 0.0328 -0.9988 0.0357
vn 0.2204 0.2790 0.9347
vn 0.8481 0.5175 0.1134
vn -0.3867 0.3660 0.8465
vn -0.0149 -0.9996 0.0224
vn 0.0926 0.9914 -0.0925
vn 0.9851 0.1335 -0.1085
vn 0.0064 -1.0000 0.0057
vn -0.0333 -0.9994 0.0089
vn 0.2408 0.5846 -0.7747
vn 0.8832 0.4560 0.1097
vn 0.0750 -0.5277 0.8461
vn -0.1139 0.4296 -0.8958
vn -0.1238 -0.0046 0.9923
vn 0.0012 0.9791 0.2035
vn 0.8323 0.4254 -0.3553
vn -0.0399 0.8927 -0.4489
vn -0.2895 0.7468 -0.5988
vn 0.1159 0.9433 0.3109
vn -0.0147 -0.9990 0.0431
vn -0.9063 -0.3339 0.2593
vn 0.1887 -0.1041 0.9765
vn 0.7199 0.6935 -0.0296
vn 0.7260 0.6876 0.0041
vn -0.2224 -0.9505 0.2170
vn 0.3198 -0.0475 0.9463
vn -0.0174 0.2484 0.9685
vn -0.0035 -0.1330 0.9911
vn -0.0088 -0.9999 -0.0077
vn -0.2173 0.9593 0.1802
vn -0.2246 -0.9669 -0.1212
vn -0.9391 -0.2239 0.2607
vn -0.8490 0.2386 0.4714
vn -0.9543 0.2713 0.1253
vn 0.9804 -0.1922 0.0427
vn -0.0217 0.5944 0.8038
vn -0.6471 0.2402 0.7235
vn -0.8563 -0.5076 -0.0952
vn -0.8774 -0.4329 0.2066
vn -0.0131 -0.9345 0.3558
vn 0.1693 0.9782 0.1202
vn -0.8405 0.4626 0.2822
vn -0.0408 -0.9991 0.0088
vn 0.7632 0.5557 -0.3297
vn 0.0475 0.9923 0.1145
vn 0.0953 0.5992 -0.7949
vn -0.9947 0.0788 0.0667
vn 0.9885 0.1353 -0.0676
vn -0.6790 0.6531 0.3355
vn 0.8196 0.5540 -0.1460
vn -0.7314 0.3629 0.5774
vn -0.2137 -0.5420 0.8127
vn 0.7497 0.5898 -0.3001
vn 0.4519 0.8148 0.3631
vn -0.4492 -0.1709 0.8769
vn 0.1725 0.1815 0.9682
vn 0.1877 0.7748 0.6037
vn -0.8094 0.4567 0.3693
vn -0.0063 0.2961 0.9551
vn 0.0334 -0.9985 0.0426
vn -0.4404 0.7035 -0.5578
vn -0.6631 0.7323 0.1551
vn 0.9242 0.2720 0.2681
vn -0.4496 -0.2666 0.8525
vn 0.9381 0.2613 0.2274
vn -0.0438 -0.5515 0.8330
vn -0.1545 0.9314 -0.3296
vn -0.4214 0.7533 -0.5049
vn -0.2249 0.2571 -0.9398
vn -0.4495 0.5246 0.7231
vn -0.3719 0.7846 -0.4961
vn 0.1773 0.0215 0.9839
vn -0.1243 0.2037 0.9711
vn -0.9508 -0.0649 0.3029
vn -0.4564 -0.8893 -0.0293
vn -0.1973 -0.7939 0.5751
vn -0.9281 -0.3704 -0.0369
vn -0.1098 0.7891 0.6044
vn 0.1316 0.5388 0.8321
vn 0.0736 0.0032 0.9973
vn 0.1025 0.1139 -0.9882
vn -0.0587 0.3967 0.9161
vn 0.3405 0.4788 -0.8092
vn -0.3740 0.2715 0.8868
vn -0.0091 -0.0591 -0.9982
vn -0.1071 0.7987 -0.5921
vn 0.2477 0.8694 -0.4276
vn 0.2963 0.8880 -0.3516
vn 0.3347 0.2977 0.8941
vn -0.4447 0.2616 0.8566
vn 0.2317 0.9402 0.2497
vn -0.6864 0.5604 0.4635
vn -0.1970 -0.9778 -0.0709
vn -0.3119 0.8775 -0.3642
vn 0.8261 0.4521 -0.3365
vn -0.2213 -0.9648 0.1422
vn 0.1252 0.9837 0.1291
vn 0.4683 0.8258 0.3143
vn -0.1028 -0.9810 0.1647
vn 0.1677 0.9856 -0.0205
vn 0.0977 0.9760 0.1948
vn 0.1953 -0.2282 0.9538
vn 0.3567 0.7425 0.5670
vn -0.6481 -0.7348 0.2000
vn 0.5043 -0.0640 0.8611
vn 0.1152 -0.9814 0.1538
vn 0.1286 -0.9809 0.1460
vn 0.0538 0.0060 0.9985
vn 0.0029 -0.4321 0.9018
vn -0.0377 0.9954 0.0879
vn -0.0255 0.2933 0.9557
vn -0.2778 0.9339 0.2252
vn 0.3436 0.9157 0.2084
vn 0.8671 -0.1214 0.4832
vn 0.1322 0.5164 0.8461
vn 0.3656 0.7727 -0.5189
vn 0.1166 0.9222 0.3688
vn -0.0798 0.9944 -0.0687
vn -0.9007 -0.4011 -0.1670
vn -0.4497 0.8931 0.0135
vn -0.0376 0.9955 0.0867
vn -0.2149 0.0965 -0.9718
vn -0.2129 0.9554 0.2049
vn -0.2606 0.9439 -0.2029
vn -0.5406 0.8411 0.0139
vn -0.3590 0.5712 -0.7381
vn -0.8405 0.4847 -0.2421
vn -0.6472 0.7342 0.2050
vn -0.8627 0.1194 -0.4914
vn -0.0409 0.9903 -0.1331
vn 0.0355 0.9988 0.0333
vn -0.1061 0.2697 -0.9571
vn -0.4200 0.7738 -0.4742
vn -0.9999 -0.0118 -0.0003
vn -0.0250 0.9997 -0.0082
vn -0.2764 0.9309 -0.2386
vn -0.7207 0.6377 -0.2720
vn -0.0079 1.0000 -0.0012
vn -0.1144 0.3666 -0.9233
vn -0.9179 0.0916 -0.3861
vn -0.0826 0.9926 -0.0892
vn -0.9705 0.2270 -0.0807
vn -0.1472 0.9891 -0.0060
vn -0.1192 0.9658 -0.2301
vn -0.4258 0.7617 -0.4883
vn -0.0904 0.9663 -0.2412
vn -0.9997 0.0208 -0.0150
vn -0.8898 0.4084 -0.2035
vn -0.7921 0.6063 -0.0710
vn -0.2405 0.9670 -0.0841
vn -0.4744 0.7510 -0.4594
vn -0.2468 0.9265 -0.2841
vn -0.2833 0.8753 -0.3919
vn -0.4669 0.7673 -0.4396
vn -0.9552 0.2714 0.1177
vn 0.0905 0.9916 -0.0925
vn -0.9096 0.3320 -0.2500
vn -0.7119 0.6393 -0.2906
vn -0.2901 0.6026 -0.7434
vn -0.1837 0.9742 -0.1311
vn -0.4619 0.6784 -0.5713
vn -0.5620 0.7721 -0.2967
vn -0.4674 0.7572 -0.4563
usemtl Steintextur
s off
f 137/1/1 106/2/1 63/3/1
f 77/4/2 135/5/2 4/6/2
f 60/7/3 1/8/3 133/9/3
f 26/10/4 55/11/4 29/12/4
f 26/10/5 29/12/5 35/13/5
f 56/14/6 58/15/6 52/16/6
f 56/14/7 79/17/7 81/18/7
f 24/19/8 58/15/8 32/20/8
f 81/18/9 91/21/9 19/22/9
f 139/23/10 20/24/10 8/25/10
f 137/1/11 121/26/11 89/27/11
f 81/18/12 19/22/12 36/28/12
f 5/29/13 130/30/13 103/31/13
f 88/32/14 112/33/14 114/34/14
f 81/18/15 79/17/15 47/35/15
f 81/18/16 47/35/16 91/21/16
f 56/14/17 81/18/17 58/15/17
f 88/32/18 114/34/18 95/36/18
f 81/18/19 23/37/19 58/15/19
f 110/38/20 88/32/20 118/39/20
f 60/7/21 127/40/21 67/41/21
f 60/7/22 66/42/22 1/8/22
f 26/10/23 30/43/23 87/44/23
f 77/4/24 4/6/24 78/45/24
f 58/15/25 24/19/25 52/16/25
f 5/29/26 111/46/26 130/30/26
f 26/10/27 39/47/27 55/11/27
f 127/40/28 24/19/28 32/20/28
f 56/14/29 52/16/29 55/11/29
f 60/7/30 67/41/30 66/42/30
f 77/4/31 78/45/31 84/48/31
f 88/32/32 46/49/32 112/33/32
f 77/4/33 84/48/33 131/50/33
f 139/23/34 57/51/34 20/24/34
f 26/10/35 94/52/35 30/43/35
f 110/38/36 68/53/36 88/32/36
f 5/29/37 94/52/37 111/46/37
f 137/1/38 68/53/38 121/26/38
f 110/38/39 121/26/39 68/53/39
f 60/7/40 43/54/40 127/40/40
f 26/10/41 87/44/41 39/47/41
f 77/4/42 75/55/42 119/56/42
f 77/4/43 131/50/43 75/55/43
f 137/1/44 89/27/44 106/2/44
f 24/19/45 127/40/45 52/16/45
f 88/32/46 95/36/46 118/39/46
f 116/57/47 9/58/47 65/59/47
f 66/42/48 67/41/48 32/20/48
f 42/60/49 120/61/49 133/9/49
f 93/62/50 51/63/50 20/24/50
f 11/64/51 36/28/51 49/65/51
f 57/51/52 139/23/52 66/42/52
f 11/64/53 122/66/53 23/37/53
f 18/67/54 28/68/54 93/62/54
f 122/66/55 85/69/55 32/20/55
f 79/17/56 56/14/56 37/70/56
f 122/66/57 44/71/57 23/37/57
f 34/72/58 118/39/58 70/73/58
f 6/74/59 129/75/59 49/65/59
f 93/62/60 28/68/60 132/76/60
f 132/76/61 34/72/61 70/73/61
f 67/41/62 127/40/62 32/20/62
f 56/14/63 55/11/63 37/70/63
f 116/57/64 138/77/64 18/67/64
f 92/78/65 129/75/65 93/62/65
f 28/68/66 118/39/66 34/72/66
f 28/68/67 138/77/67 118/39/67
f 57/51/68 122/66/68 49/65/68
f 65/59/69 117/79/69 115/80/69
f 116/57/70 110/38/70 138/77/70
f 58/15/71 44/71/71 32/20/71
f 20/24/72 92/78/72 93/62/72
f 85/69/73 66/42/73 32/20/73
f 129/81/74 6/74/74 15/82/74
f 122/66/75 11/64/75 49/65/75
f 117/79/76 9/58/76 14/83/76
f 51/63/77 132/76/77 8/25/77
f 139/23/78 8/25/78 2/84/78
f 93/62/79 132/76/79 51/63/79
f 116/57/80 18/67/80 9/58/80
f 33/85/81 41/86/81 115/87/81
f 18/67/82 14/83/82 9/58/82
f 1/8/83 66/42/83 42/60/83
f 133/9/84 1/8/84 42/60/84
f 129/75/85 92/78/85 49/65/85
f 42/60/86 2/84/86 120/61/86
f 44/71/87 122/66/87 32/20/87
f 57/51/88 85/69/88 122/66/88
f 109/88/89 41/86/89 107/89/89
f 20/24/90 57/51/90 49/65/90
f 117/79/91 65/59/91 9/58/91
f 41/86/92 109/88/92 115/87/92
f 28/68/93 34/72/93 132/76/93
f 20/24/94 51/63/94 8/25/94
f 18/67/95 93/62/95 14/83/95
f 65/59/96 115/80/96 116/57/96
f 41/86/97 33/85/97 107/89/97
f 93/62/98 129/75/98 14/83/98
f 36/28/99 6/74/99 49/65/99
f 139/23/100 42/60/100 66/42/100
f 28/68/101 18/67/101 138/77/101
f 8/25/102 70/73/102 2/84/102
f 139/23/103 2/84/103 42/60/103
f 44/71/104 58/15/104 23/37/104
f 92/78/105 20/24/105 49/65/105
f 57/51/106 66/42/106 85/69/106
f 81/18/107 36/28/107 23/37/107
f 36/28/108 11/64/108 23/37/108
f 8/25/109 132/76/109 70/73/109
f 110/38/110 118/39/110 138/77/110
f 6/74/111 36/28/111 15/82/111
f 39/47/112 87/44/112 37/70/112
f 64/90/113 35/13/113 3/91/113
f 10/92/114 78/45/114 50/93/114
f 31/94/115 53/95/115 15/82/115
f 72/96/116 96/97/116 111/46/116
f 64/90/117 3/91/117 127/40/117
f 53/95/118 129/81/118 15/82/118
f 53/95/119 31/94/119 14/98/119
f 90/99/120 48/100/120 120/61/120
f 64/90/121 73/101/121 35/13/121
f 17/102/122 91/21/122 86/103/122
f 59/104/123 114/34/123 120/61/123
f 54/105/124 25/106/124 12/107/124
f 40/108/125 103/31/125 131/50/125
f 60/7/126 133/9/126 48/100/126
f 90/99/127 74/109/127 96/97/127
f 101/110/128 74/109/128 76/111/128
f 30/43/129 40/108/129 131/50/129
f 16/112/130 31/94/130 15/82/130
f 136/113/131 69/114/131 33/85/131
f 47/35/132 79/17/132 86/103/132
f 124/115/133 64/90/133 72/96/133
f 64/90/134 124/115/134 73/101/134
f 17/102/135 31/94/135 16/112/135
f 62/116/136 79/17/136 37/70/136
f 25/106/137 134/117/137 10/92/137
f 25/106/138 54/105/138 86/103/138
f 129/81/139 53/95/139 14/98/139
f 77/4/140 119/56/140 83/118/140
f 7/119/141 117/120/141 14/98/141
f 69/114/142 82/121/142 33/85/142
f 82/121/143 69/114/143 102/122/143
f 71/123/144 126/124/144 107/89/144
f 127/40/145 3/91/145 52/16/145
f 84/48/146 78/45/146 38/125/146
f 12/107/147 102/122/147 69/114/147
f 22/126/148 115/87/148 117/120/148
f 22/126/149 136/113/149 33/85/149
f 17/102/150 16/112/150 91/21/150
f 94/52/151 5/29/151 40/108/151
f 107/89/152 82/121/152 102/122/152
f 31/94/153 7/119/153 14/98/153
f 43/54/154 48/100/154 13/127/154
f 5/29/155 103/31/155 40/108/155
f 90/99/156 120/61/156 76/111/156
f 82/121/157 107/89/157 33/85/157
f 64/90/158 127/40/158 43/54/158
f 50/93/159 126/124/159 71/123/159
f 64/90/160 43/54/160 72/96/160
f 50/93/161 71/123/161 102/122/161
f 136/113/162 17/102/162 54/105/162
f 43/54/163 13/127/163 72/96/163
f 94/52/164 35/13/164 73/101/164
f 136/113/165 54/105/165 69/114/165
f 134/117/166 62/116/166 37/70/166
f 131/50/167 84/48/167 38/125/167
f 50/93/168 135/5/168 126/124/168
f 10/92/169 134/117/169 38/125/169
f 36/28/170 19/22/170 15/82/170
f 101/110/171 112/33/171 46/49/171
f 135/5/172 83/118/172 126/124/172
f 3/91/173 35/13/173 52/16/173
f 54/105/174 12/107/174 69/114/174
f 35/13/175 29/12/175 52/16/175
f 91/21/176 47/35/176 86/103/176
f 74/109/177 98/128/177 96/97/177
f 101/110/178 46/49/178 100/129/178
f 114/34/179 59/104/179 70/73/179
f 10/92/180 102/122/180 12/107/180
f 74/109/181 101/110/181 100/129/181
f 45/130/182 134/117/182 37/70/182
f 25/106/183 10/92/183 12/107/183
f 102/122/184 71/123/184 107/89/184
f 117/120/185 7/119/185 22/126/185
f 17/102/186 136/113/186 21/131/186
f 22/126/187 33/85/187 115/87/187
f 27/132/188 131/50/188 38/125/188
f 45/130/189 87/44/189 38/125/189
f 25/106/190 86/103/190 134/117/190
f 2/84/191 59/104/191 120/61/191
f 78/45/192 10/92/192 38/125/192
f 48/100/193 133/9/193 120/61/193
f 50/93/194 78/45/194 4/6/194
f 59/104/195 2/84/195 70/73/195
f 90/99/196 76/111/196 74/109/196
f 13/127/197 90/99/197 96/97/197
f 72/96/198 13/127/198 96/97/198
f 87/44/199 45/130/199 37/70/199
f 10/92/200 50/93/200 102/122/200
f 94/52/201 40/108/201 30/43/201
f 50/93/202 4/6/202 135/5/202
f 31/94/203 21/131/203 22/126/203
f 74/109/204 100/129/204 98/128/204
f 43/54/205 60/7/205 48/100/205
f 7/119/206 31/94/206 22/126/206
f 94/52/207 124/115/207 111/46/207
f 94/52/208 26/10/208 35/13/208
f 19/22/209 91/21/209 15/82/209
f 124/115/210 72/96/210 111/46/210
f 75/55/211 131/50/211 103/31/211
f 79/17/212 62/116/212 86/103/212
f 27/132/213 87/44/213 30/43/213
f 21/131/214 136/113/214 22/126/214
f 55/11/215 39/47/215 37/70/215
f 17/102/216 21/131/216 31/94/216
f 91/21/217 16/112/217 15/82/217
f 62/116/218 134/117/218 86/103/218
f 54/105/219 17/102/219 86/103/219
f 119/56/220 75/55/220 103/31/220
f 134/117/221 45/130/221 38/125/221
f 135/5/222 77/4/222 83/118/222
f 94/52/223 73/101/223 124/115/223
f 29/12/224 55/11/224 52/16/224
f 87/44/225 27/132/225 38/125/225
f 90/99/226 13/127/226 48/100/226
f 131/50/227 27/132/227 30/43/227
f 80/133/228 130/30/228 99/134/228
f 61/135/229 116/57/229 115/80/229
f 105/136/230 113/137/230 83/118/230
f 80/133/231 119/56/231 103/31/231
f 118/39/232 95/36/232 70/73/232
f 119/56/233 104/138/233 83/118/233
f 105/136/234 104/138/234 99/134/234
f 104/138/235 105/136/235 83/118/235
f 76/111/236 114/34/236 101/110/236
f 61/135/237 109/139/237 121/26/237
f 113/137/238 126/124/238 83/118/238
f 116/57/239 61/135/239 121/26/239
f 108/140/240 130/30/240 98/128/240
f 130/30/241 80/133/241 103/31/241
f 95/36/242 114/34/242 70/73/242
f 63/3/243 128/141/243 123/142/243
f 109/139/244 61/135/244 115/80/244
f 104/138/245 119/56/245 99/134/245
f 108/140/246 123/142/246 99/143/246
f 113/137/247 105/136/247 106/144/247
f 125/145/248 130/30/248 111/46/248
f 114/34/249 76/111/249 120/61/249
f 110/38/250 116/57/250 121/26/250
f 130/30/251 108/140/251 99/143/251
f 126/124/252 113/137/252 106/144/252
f 119/56/253 80/133/253 99/134/253
f 125/145/254 96/97/254 98/128/254
f 63/3/255 123/142/255 137/1/255
f 123/142/256 128/141/256 99/143/256
f 97/146/257 109/88/257 107/89/257
f 89/27/258 109/139/258 106/2/258
f 97/146/259 126/124/259 106/144/259
f 128/147/260 105/136/260 99/134/260
f 100/129/261 46/49/261 137/1/261
f 123/142/262 108/140/262 98/128/262
f 100/129/263 123/142/263 98/128/263
f 100/129/264 137/1/264 123/142/264
f 109/88/258 97/146/258 106/144/258
f 126/124/265 97/146/265 107/89/265
f 96/97/266 125/145/266 111/46/266
f 109/139/267 89/27/267 121/26/267
f 105/148/268 63/3/268 106/2/268
f 114/34/269 112/33/269 101/110/269
f 130/30/270 125/145/270 98/128/270
f 68/53/271 46/49/271 88/32/271
f 63/3/272 105/148/272 128/141/272
f 68/53/273 137/1/273 46/49/273
