# Blender v2.79 (sub 0) OBJ File: 'Burg Test.blend'
# www.blender.org
mtllib Tanne.mtl
o BergLochDing.001_Cube.001
v -12.905293 22.472801 15.861221
v -13.017253 22.471769 15.881500
v -13.119341 22.469898 15.934525
v -13.201470 22.467468 16.015366
v -13.255703 22.464859 16.116287
v -13.276937 22.462446 16.227478
v -13.263350 22.460533 16.337906
v -13.216992 22.459293 16.436356
v -13.143272 22.458775 16.512512
v -13.049755 22.458906 16.558456
v -12.945469 22.459570 16.569656
v -12.839951 22.460630 16.545273
v -12.742414 22.461967 16.488403
v -12.661201 22.463486 16.405457
v -12.603692 22.465126 16.305115
v -12.576477 22.466911 16.196823
v -12.583661 22.468796 16.090439
v -12.625614 22.470608 15.995743
v -12.698618 22.472069 15.921585
v -12.795222 22.472876 15.875183
v -12.875950 23.324924 15.931839
v -12.977045 23.323828 15.958023
v -13.070233 23.320999 16.014511
v -13.146300 23.316853 16.096039
v -13.198036 23.311966 16.194763
v -13.220984 23.306953 16.300919
v -13.213623 23.302364 16.403748
v -13.176809 23.298605 16.492981
v -13.114296 23.295925 16.559647
v -13.032360 23.294436 16.596817
v -12.938967 23.294144 16.600723
v -12.842815 23.295010 16.571075
v -12.752453 23.296970 16.511444
v -12.675582 23.299944 16.428467
v -12.619105 23.303799 16.330917
v -12.589960 23.308311 16.227737
v -12.592559 23.313129 16.128235
v -12.627497 23.317753 16.041595
v -12.691357 23.321609 15.976074
v -12.777263 23.324135 15.938156
v -12.157982 23.341068 14.212738
v -11.579488 23.459904 14.500854
v -11.034191 23.402828 14.993637
v -10.712029 23.277517 15.563583
v -10.615799 23.219131 16.220078
v -10.826969 23.215773 16.857925
v -11.338328 23.249252 17.325638
v -11.668825 23.306236 17.836655
v -12.192724 23.249252 18.316833
v -12.986573 23.281208 18.442215
v -13.853092 23.392595 18.257111
v -14.322113 23.281212 18.008255
v -14.712461 23.258820 17.553162
v -15.008399 23.332083 16.926971
v -15.143997 23.263138 16.224396
v -14.939175 23.253036 15.586945
v -14.385758 23.303604 15.087158
v -14.083385 23.290211 14.543747
v -13.540686 23.299896 14.218704
v -12.833703 23.307829 14.123154
v -12.460770 25.182240 15.434647
v -12.166185 25.158348 15.556351
v -11.937939 25.135456 15.750488
v -11.795805 25.132435 16.006973
v -11.755086 25.115829 16.311127
v -11.816469 25.075241 16.630966
v -11.980309 25.061047 16.915802
v -12.227672 25.058647 17.143509
v -12.533783 25.068363 17.288971
v -12.880268 25.052130 17.343521
v -13.221954 25.048992 17.293030
v -13.525044 25.036222 17.146408
v -13.761332 25.021854 16.920319
v -13.912969 25.047752 16.634384
v -13.960087 25.089371 16.322876
v -13.893857 25.109316 16.021103
v -13.723856 25.130890 15.755997
v -13.467374 25.150921 15.551315
v -13.150731 25.165461 15.423264
v -12.804859 25.173981 15.381989
v -12.103620 25.217232 14.709183
v -11.603008 25.099112 14.874985
v -11.216384 25.023788 15.160950
v -10.966388 25.117172 15.587906
v -10.900362 25.185156 16.142624
v -10.987344 24.990738 16.819946
v -11.264917 24.905832 17.396469
v -11.686852 24.980507 17.821625
v -12.210924 25.097630 18.082230
v -12.866855 24.980499 18.205032
v -13.510363 24.904282 18.122681
v -14.056366 24.831978 17.849533
v -14.485373 24.775921 17.420990
v -14.779301 24.830105 16.864334
v -14.881945 24.929544 16.263748
v -14.767796 24.955769 15.694748
v -14.462212 24.989182 15.201141
v -13.996572 25.024353 14.826447
v -13.419550 25.052780 14.597534
v -12.761358 25.131554 14.567886
v -12.653590 26.719452 15.749817
v -12.488074 26.705189 15.817810
v -12.358216 26.706654 15.946213
v -12.274683 26.708870 16.108093
v -12.245689 26.708691 16.271576
v -12.274899 26.712006 16.430130
v -12.360771 26.729111 16.584213
v -12.491149 26.756844 16.714828
v -12.658527 26.772583 16.805756
v -12.847538 26.771465 16.842026
v -13.037619 26.761585 16.819824
v -13.208935 26.752096 16.742126
v -13.332880 26.738621 16.622177
v -13.401455 26.721230 16.471130
v -13.424286 26.707821 16.297745
v -13.406389 26.702515 16.116226
v -13.344362 26.699432 15.946442
v -13.221811 26.703369 15.816559
v -13.040763 26.718618 15.748871
v -12.843156 26.726625 15.728714
v -12.342611 26.801952 15.040573
v -11.973192 26.745621 15.167297
v -11.680343 26.804802 15.509003
v -11.492729 26.842766 15.926666
v -11.417503 26.790142 16.303665
v -11.480641 26.746109 16.634460
v -11.688671 26.748436 16.983932
v -11.992189 26.829027 17.329086
v -12.383160 26.873291 17.582535
v -12.846153 26.805954 17.685135
v -13.287606 26.764553 17.642792
v -13.682642 26.777752 17.445190
v -13.990812 26.744810 17.129440
v -14.100204 26.705956 16.767349
v -14.098133 26.708942 16.355301
v -14.099203 26.709299 15.890564
v -14.013414 26.704060 15.455627
v -13.720203 26.721996 15.150299
v -13.263614 26.800976 15.039474
v -12.776444 26.853107 15.029770
v -12.817410 28.779030 16.214050
v -12.827019 28.779034 16.215576
v -12.835661 28.779030 16.219986
v -12.842491 28.779011 16.226868
v -12.846842 28.778984 16.235550
v -12.848284 28.778950 16.245178
v -12.846679 28.778915 16.254822
v -12.842182 28.778877 16.263504
v -12.835234 28.778843 16.270401
v -12.826515 28.778816 16.274841
v -12.816879 28.778797 16.276382
v -12.807270 28.778790 16.274872
v -12.798628 28.778797 16.270447
v -12.791799 28.778816 16.263565
v -12.787451 28.778843 16.254883
v -12.786010 28.778877 16.245255
v -12.787616 28.778915 16.235626
v -12.792112 28.778950 16.226929
v -12.799059 28.778984 16.220032
v -12.807775 28.779011 16.215591
vt 0.661593 0.283182
vt 0.664920 0.346250
vt 0.658038 0.346370
vt 0.653614 0.283127
vt 0.768463 0.282850
vt 0.763330 0.347115
vt 0.755475 0.346754
vt 0.759905 0.282503
vt 0.727856 0.282250
vt 0.727040 0.345870
vt 0.719539 0.345746
vt 0.719830 0.282357
vt 0.669438 0.283216
vt 0.671695 0.346152
vt 0.777109 0.283393
vt 0.771519 0.347607
vt 0.735654 0.282200
vt 0.734078 0.346045
vt 0.677333 0.283185
vt 0.678729 0.346039
vt 0.785749 0.284176
vt 0.779895 0.348270
vt 0.743488 0.282213
vt 0.740970 0.346249
vt 0.685486 0.283077
vt 0.686303 0.345912
vt 0.628532 0.283622
vt 0.634844 0.347499
vt 0.626482 0.348270
vt 0.619927 0.284244
vt 0.751556 0.282305
vt 0.748037 0.346478
vt 0.693983 0.282908
vt 0.694453 0.345791
vt 0.637047 0.283265
vt 0.643011 0.346937
vt 0.702719 0.282710
vt 0.702971 0.345709
vt 0.645422 0.283126
vt 0.650771 0.346576
vt 0.711425 0.282517
vt 0.711461 0.345690
vt 0.606950 0.535808
vt 0.611929 0.540780
vt 0.515523 0.640459
vt 0.476548 0.585684
vt 0.655157 0.532070
vt 0.657581 0.525460
vt 0.799641 0.547117
vt 0.788434 0.596028
vt 0.642153 0.503263
vt 0.634083 0.501778
vt 0.650632 0.368338
vt 0.697425 0.377202
vt 0.604316 0.529567
vt 0.463409 0.547016
vt 0.650256 0.537749
vt 0.760480 0.637653
vt 0.649151 0.506847
vt 0.741982 0.407188
vt 0.604318 0.522685
vt 0.465360 0.501893
vt 0.643401 0.542024
vt 0.716374 0.662410
vt 0.606900 0.515886
vt 0.481483 0.452006
vt 0.635308 0.544591
vt 0.664146 0.662395
vt 0.611798 0.509857
vt 0.510440 0.406292
vt 0.626821 0.545313
vt 0.619615 0.673976
vt 0.654389 0.512137
vt 0.775552 0.446074
vt 0.618553 0.505237
vt 0.554581 0.381950
vt 0.618772 0.544029
vt 0.565947 0.673976
vt 0.657323 0.518571
vt 0.794196 0.491892
vt 0.626497 0.502511
vt 0.610829 0.383226
vt 0.625720 0.502559
vt 0.606436 0.383805
vt 0.496311 0.099430
vt 0.530397 0.126795
vt 0.409726 0.213118
vt 0.396962 0.196113
vt 0.052760 0.346527
vt 0.036231 0.299637
vt 0.180640 0.291705
vt 0.185110 0.312222
vt 0.159243 0.069122
vt 0.206057 0.043214
vt 0.259327 0.173580
vt 0.238113 0.183354
vt 0.459827 0.066663
vt 0.382303 0.182521
vt 0.583484 0.248931
vt 0.579090 0.290074
vt 0.442527 0.296681
vt 0.439230 0.275062
vt 0.116619 0.110501
vt 0.219454 0.196763
vt 0.424403 0.039992
vt 0.365102 0.173319
vt 0.575289 0.207651
vt 0.432442 0.253358
vt 0.087886 0.132338
vt 0.203334 0.212335
vt 0.383010 0.024186
vt 0.345759 0.166705
vt 0.555983 0.164295
vt 0.422598 0.232374
vt 0.066233 0.165865
vt 0.190452 0.229891
vt 0.338390 0.021598
vt 0.324476 0.161838
vt 0.052171 0.210009
vt 0.182950 0.250145
vt 0.293359 0.031711
vt 0.302599 0.162123
vt 0.036231 0.255093
vt 0.180268 0.271114
vt 0.253212 0.038152
vt 0.280574 0.166013
vt 0.728396 0.103252
vt 0.715603 0.119915
vt 0.664412 0.097969
vt 0.687878 0.067843
vt 0.755013 0.201480
vt 0.775718 0.201521
vt 0.781516 0.255916
vt 0.743737 0.255916
vt 0.829219 0.107964
vt 0.818135 0.092674
vt 0.850401 0.045550
vt 0.870540 0.073662
vt 0.745414 0.090258
vt 0.722180 0.045797
vt 0.735841 0.195393
vt 0.708174 0.244272
vt 0.835034 0.127275
vt 0.885965 0.114476
vt 0.719950 0.183328
vt 0.677328 0.220692
vt 0.834070 0.147463
vt 0.887472 0.154112
vt 0.709194 0.167029
vt 0.656056 0.189281
vt 0.826784 0.166797
vt 0.875393 0.189183
vt 0.765268 0.082283
vt 0.761734 0.032672
vt 0.704747 0.148532
vt 0.646983 0.154755
vt 0.813799 0.183091
vt 0.853010 0.218241
vt 0.784735 0.079671
vt 0.794280 0.026072
vt 0.706944 0.129258
vt 0.650414 0.119186
vt 0.796014 0.195307
vt 0.819508 0.242960
vt 0.802887 0.083071
vt 0.824004 0.029410
vt 0.708277 0.138742
vt 0.651218 0.132313
vt 0.009786 0.505156
vt 0.028987 0.465865
vt 0.171856 0.563614
vt 0.164386 0.575142
vt 0.276740 0.380136
vt 0.321372 0.385326
vt 0.259790 0.542474
vt 0.245775 0.539220
vt 0.458771 0.588787
vt 0.444327 0.626818
vt 0.301219 0.614227
vt 0.304033 0.601011
vt 0.000213 0.547870
vt 0.159024 0.587651
vt 0.227121 0.368338
vt 0.231366 0.537713
vt 0.462984 0.552388
vt 0.302642 0.587334
vt 0.396129 0.764313
vt 0.365958 0.797794
vt 0.273009 0.663020
vt 0.283065 0.654094
vt 0.177948 0.368338
vt 0.216955 0.538371
vt 0.448075 0.517542
vt 0.298501 0.574260
vt 0.421193 0.724816
vt 0.290407 0.641480
vt 0.132588 0.377517
vt 0.203155 0.541625
vt 0.423288 0.483187
vt 0.292556 0.563266
vt 0.436484 0.677263
vt 0.296345 0.627743
vt 0.090517 0.395723
vt 0.191215 0.546825
vt 0.398363 0.435906
vt 0.284297 0.554369
vt 0.054998 0.427354
vt 0.180922 0.554016
vt 0.363697 0.401859
vt 0.272984 0.547300
vt 0.059049 0.914079
vt 0.066481 0.924773
vt 0.021330 0.969914
vt 0.003105 0.942037
vt 0.139877 0.914447
vt 0.144198 0.903103
vt 0.205396 0.916707
vt 0.195927 0.940453
vt 0.056146 0.901863
vt 0.000213 0.913560
vt 0.131410 0.924758
vt 0.175760 0.963489
vt 0.056982 0.888688
vt 0.006373 0.883157
vt 0.119907 0.932823
vt 0.148344 0.985451
vt 0.120843 0.858997
vt 0.107056 0.854950
vt 0.121036 0.803097
vt 0.153178 0.810092
vt 0.060939 0.875532
vt 0.013034 0.848813
vt 0.106249 0.937347
vt 0.115865 0.999103
vt 0.132224 0.866282
vt 0.178994 0.824784
vt 0.067987 0.863891
vt 0.025684 0.817929
vt 0.091761 0.937402
vt 0.079815 0.999787
vt 0.140167 0.877500
vt 0.196655 0.854034
vt 0.077810 0.856885
vt 0.067148 0.865075
vt 0.023287 0.820597
vt 0.048744 0.801384
vt 0.078019 0.933014
vt 0.047682 0.990213
vt 0.144213 0.890605
vt 0.205396 0.887497
vt 0.092121 0.854015
vt 0.084471 0.798219
vt 0.746926 0.698525
vt 0.776633 0.713660
vt 0.675859 0.853630
vt 0.673206 0.852275
vt 0.804244 0.731621
vt 0.817318 0.757097
vt 0.680110 0.857776
vt 0.678267 0.855440
vt 0.862496 0.847884
vt 0.865072 0.878483
vt 0.683836 0.868839
vt 0.683536 0.865714
vt 0.469304 0.846613
vt 0.478096 0.813843
vt 0.646982 0.864897
vt 0.646419 0.867955
vt 0.570341 0.698460
vt 0.604065 0.689727
vt 0.658656 0.851453
vt 0.655901 0.852632
vt 0.636878 0.680823
vt 0.670164 0.674402
vt 0.664460 0.850140
vt 0.661492 0.850538
vt 0.699689 0.675489
vt 0.667527 0.850259
vt 0.722932 0.683769
vt 0.670491 0.851048
vt 0.828067 0.786911
vt 0.846314 0.817381
vt 0.682760 0.862853
vt 0.681521 0.860274
vt 0.518308 0.735386
vt 0.541297 0.712880
vt 0.653306 0.854313
vt 0.651163 0.856608
vt 0.484820 0.784570
vt 0.497213 0.759779
vt 0.649230 0.859105
vt 0.647874 0.861949
vt 0.463409 0.878483
vt 0.646332 0.871090
vn -0.7237 -0.0129 0.6900
vn -0.2130 0.0927 -0.9726
vn 0.9988 0.0152 -0.0470
vn -0.4281 -0.0343 0.9031
vn -0.4883 0.1052 -0.8663
vn 0.9207 0.0251 -0.3895
vn -0.0761 -0.0403 0.9963
vn -0.7142 0.1091 -0.6914
vn 0.7145 0.0390 -0.6986
vn 0.2589 -0.0335 0.9653
vn -0.8803 0.1020 -0.4634
vn 0.4196 0.0563 -0.9060
vn 0.5271 -0.0208 0.8495
vn -0.9771 0.0832 -0.1958
vn 0.0967 0.0752 -0.9925
vn 0.7241 -0.0084 0.6897
vn -0.9936 0.0541 0.0992
vn 0.8665 0.0009 0.4991
vn -0.9139 0.0193 0.4055
vn 0.9662 0.0079 0.2577
vn -0.1147 -0.9934 -0.0043
vn -0.0610 -0.9849 -0.1617
vn 0.0231 -0.9997 0.0057
vn 0.1364 -0.9839 0.1154
vn -0.0438 -0.9960 -0.0775
vn 0.0126 -0.9999 0.0097
vn 0.0303 -0.9995 0.0114
vn -0.0436 -0.9987 -0.0247
vn -0.0393 -0.9953 -0.0889
vn -0.0467 -0.9989 0.0054
vn 0.0131 -0.9969 0.0773
vn -0.0615 -0.9969 0.0484
vn 0.0409 -0.9991 0.0077
vn 0.0253 -0.9996 0.0146
vn 0.0570 -0.9974 -0.0440
vn 0.1551 -0.9872 0.0360
vn 0.0480 -0.9979 -0.0439
vn -0.0367 -0.9993 -0.0102
vn -0.0095 -0.9951 -0.0983
vn 0.0020 -0.9999 0.0160
vn 0.2982 0.5683 -0.7669
vn -0.6598 0.4791 -0.5789
vn 0.1408 0.5114 0.8477
vn 0.5806 0.5629 -0.5883
vn -0.7043 0.4813 -0.5219
vn -0.1162 0.5304 0.8397
vn 0.7665 0.5406 -0.3467
vn -0.4030 0.5452 -0.7351
vn -0.4472 0.5604 0.6972
vn 0.8523 0.5166 -0.0812
vn -0.1156 0.5562 -0.8229
vn -0.6305 0.5472 0.5505
vn 0.8360 0.4832 0.2601
vn -0.7304 0.5407 0.4172
vn 0.6844 0.4089 0.6036
vn -0.8298 0.5414 0.1349
vn 0.7315 0.4141 0.5416
vn 0.0923 0.5585 -0.8244
vn -0.8173 0.5281 -0.2303
vn 0.5126 0.4741 0.7159
vn 0.0901 -0.9902 0.1064
vn 0.1644 -0.9772 -0.1345
vn 0.0506 -0.9973 0.0534
vn 0.0920 -0.9924 0.0812
vn 0.2259 -0.9660 -0.1257
vn -0.0060 -0.9731 -0.2302
vn 0.1919 -0.9623 -0.1929
vn -0.0848 -0.9840 -0.1567
vn 0.1867 -0.9658 -0.1800
vn -0.1462 -0.9884 -0.0405
vn 0.0880 -0.9957 0.0277
vn 0.1752 -0.9844 -0.0159
vn -0.1301 -0.9906 0.0435
vn -0.1474 -0.9859 -0.0794
vn 0.1636 -0.9860 0.0311
vn 0.1230 -0.9911 -0.0504
vn -0.1463 -0.9891 -0.0149
vn 0.1347 -0.9881 0.0737
vn 0.0947 -0.9893 -0.1112
vn 0.0030 -0.9916 0.1294
vn -0.7681 0.6295 -0.1176
vn 0.4486 0.6123 0.6510
vn 0.3672 0.6149 -0.6979
vn -0.6973 0.6209 -0.3580
vn 0.0634 0.6096 0.7902
vn 0.5399 0.6275 -0.5611
vn -0.5423 0.6026 -0.5855
vn -0.1602 0.5964 0.7866
vn 0.6171 0.6427 -0.4539
vn -0.3241 0.5868 -0.7420
vn -0.4085 0.5881 0.6980
vn 0.7349 0.6592 -0.1595
vn -0.1059 0.5816 -0.8066
vn -0.6095 0.5795 0.5410
vn 0.7430 0.6226 0.2456
vn -0.7081 0.5865 0.3932
vn 0.6920 0.6010 0.4000
vn -0.7673 0.6118 0.1924
vn 0.6209 0.5980 0.5069
vn 0.0990 0.5898 -0.8014
vn 0.0415 -0.9970 0.0650
vn 0.0807 -0.9945 -0.0675
vn 0.0591 -0.9943 0.0885
vn 0.0165 -0.9987 0.0482
vn 0.0148 -0.9997 0.0173
vn -0.0654 -0.9842 0.1644
vn -0.0833 -0.9822 -0.1681
vn -0.0067 -0.9999 0.0075
vn -0.0227 -0.9905 0.1357
vn -0.0801 -0.9872 -0.1379
vn -0.0138 -0.9999 0.0104
vn 0.1174 -0.9911 0.0627
vn 0.1274 -0.9918 0.0134
vn 0.0153 -0.9992 -0.0356
vn 0.0774 -0.9964 0.0340
vn 0.1553 -0.9879 -0.0042
vn 0.1093 -0.9855 -0.1297
vn -0.0127 -0.9998 0.0127
vn 0.1207 -0.9855 -0.1195
vn 0.0797 -0.9847 -0.1549
vn 0.7388 0.5551 -0.3823
vn 0.3467 0.5383 -0.7681
vn -0.6153 0.5553 -0.5594
vn -0.8558 0.5173 -0.0002
vn 0.0963 0.5776 0.8106
vn 0.6870 0.5446 0.4810
vn 0.7232 0.5441 0.4254
vn 0.8001 0.5566 0.2238
vn -0.0739 0.5215 -0.8501
vn -0.3493 0.5799 0.7360
vn -0.8170 0.5430 0.1941
vn -0.6132 0.5765 0.5401
vn 0.8218 0.5632 -0.0866
vn -0.2876 0.5359 -0.7938
vn -0.8288 0.5316 -0.1746
vn -0.1314 0.5774 0.8058
vn 0.4909 0.5642 0.6639
vn 0.5864 0.5473 -0.5971
vn 0.0840 0.5234 -0.8479
vn -0.8557 0.5175 0.0028
usemtl Tree
s off
f 9/1/1 29/2/1 28/3/1 8/4/1
f 2/5/2 22/6/2 21/7/2 1/8/2
f 17/9/3 37/10/3 36/11/3 16/12/3
f 10/13/4 30/14/4 29/2/4 9/1/4
f 3/15/5 23/16/5 22/6/5 2/5/5
f 18/17/6 38/18/6 37/10/6 17/9/6
f 11/19/7 31/20/7 30/14/7 10/13/7
f 4/21/8 24/22/8 23/16/8 3/15/8
f 19/23/9 39/24/9 38/18/9 18/17/9
f 12/25/10 32/26/10 31/20/10 11/19/10
f 5/27/11 25/28/11 24/29/11 4/30/11
f 20/31/12 40/32/12 39/24/12 19/23/12
f 13/33/13 33/34/13 32/26/13 12/25/13
f 6/35/14 26/36/14 25/28/14 5/27/14
f 1/8/15 21/7/15 40/32/15 20/31/15
f 14/37/16 34/38/16 33/34/16 13/33/16
f 7/39/17 27/40/17 26/36/17 6/35/17
f 15/41/18 35/42/18 34/38/18 14/37/18
f 8/4/19 28/3/19 27/40/19 7/39/19
f 16/12/20 36/11/20 35/42/20 15/41/20
f 30/43/21 31/44/21 50/45/21 51/46/21
f 37/47/22 38/48/22 43/49/22 44/50/22
f 22/51/23 23/52/23 58/53/23 59/54/23
f 29/55/24 30/43/24 51/46/24 52/56/24
f 36/57/25 37/47/25 44/50/25 45/58/25
f 21/59/26 22/51/26 59/54/26 60/60/26
f 28/61/27 29/55/27 52/56/27 53/62/27
f 35/63/28 36/57/28 45/58/28 46/64/28
f 27/65/29 28/61/29 53/62/29 54/66/29
f 34/67/30 35/63/30 46/64/30 47/68/30
f 26/69/31 27/65/31 54/66/31 55/70/31
f 33/71/32 34/67/32 47/68/32 48/72/32
f 40/73/33 21/59/33 60/60/33 41/74/33
f 25/75/34 26/69/34 55/70/34 56/76/34
f 32/77/35 33/71/35 48/72/35 49/78/35
f 39/79/36 40/73/36 41/74/36 42/80/36
f 24/81/37 25/75/37 56/76/37 57/82/37
f 31/44/38 32/77/38 49/78/38 50/45/38
f 38/48/39 39/79/39 42/80/39 43/49/39
f 23/52/40 24/83/40 57/84/40 58/53/40
f 42/85/41 41/86/41 61/87/41 62/88/41
f 57/89/42 56/90/42 76/91/42 77/92/42
f 50/93/43 49/94/43 69/95/43 70/96/43
f 43/97/44 42/85/44 62/88/44 63/98/44
f 58/99/45 57/100/45 77/101/45 78/102/45
f 51/103/46 50/93/46 70/96/46 71/104/46
f 44/105/47 43/97/47 63/98/47 64/106/47
f 59/107/48 58/99/48 78/102/48 79/108/48
f 52/109/49 51/103/49 71/104/49 72/110/49
f 45/111/50 44/105/50 64/106/50 65/112/50
f 60/113/51 59/107/51 79/108/51 80/114/51
f 53/115/52 52/109/52 72/110/52 73/116/52
f 46/117/53 45/111/53 65/112/53 66/118/53
f 54/119/54 53/115/54 73/116/54 74/120/54
f 47/121/55 46/117/55 66/118/55 67/122/55
f 55/123/56 54/119/56 74/120/56 75/124/56
f 48/125/57 47/121/57 67/122/57 68/126/57
f 41/86/58 60/113/58 80/114/58 61/87/58
f 56/90/59 55/123/59 75/124/59 76/91/59
f 49/94/60 48/125/60 68/126/60 69/95/60
f 79/127/61 78/128/61 98/129/61 99/130/61
f 72/131/62 71/132/62 91/133/62 92/134/62
f 65/135/63 64/136/63 84/137/63 85/138/63
f 80/139/64 79/127/64 99/130/64 100/140/64
f 73/141/65 72/131/65 92/134/65 93/142/65
f 66/143/66 65/135/66 85/138/66 86/144/66
f 74/145/67 73/141/67 93/142/67 94/146/67
f 67/147/68 66/143/68 86/144/68 87/148/68
f 75/149/69 74/145/69 94/146/69 95/150/69
f 68/151/70 67/147/70 87/148/70 88/152/70
f 61/153/71 80/139/71 100/140/71 81/154/71
f 76/155/72 75/149/72 95/150/72 96/156/72
f 69/157/73 68/151/73 88/152/73 89/158/73
f 62/159/74 61/153/74 81/154/74 82/160/74
f 77/161/75 76/155/75 96/156/75 97/162/75
f 70/163/76 69/157/76 89/158/76 90/164/76
f 63/165/77 62/159/77 82/160/77 83/166/77
f 78/128/78 77/167/78 97/168/78 98/129/78
f 71/132/79 70/163/79 90/164/79 91/133/79
f 64/136/80 63/165/80 83/166/80 84/137/80
f 96/169/81 95/170/81 115/171/81 116/172/81
f 89/173/82 88/174/82 108/175/82 109/176/82
f 82/177/83 81/178/83 101/179/83 102/180/83
f 97/181/84 96/169/84 116/172/84 117/182/84
f 90/183/85 89/173/85 109/176/85 110/184/85
f 83/185/86 82/177/86 102/180/86 103/186/86
f 98/187/87 97/188/87 117/189/87 118/190/87
f 91/191/88 90/183/88 110/184/88 111/192/88
f 84/193/89 83/185/89 103/186/89 104/194/89
f 99/195/90 98/187/90 118/190/90 119/196/90
f 92/197/91 91/191/91 111/192/91 112/198/91
f 85/199/92 84/193/92 104/194/92 105/200/92
f 100/201/93 99/195/93 119/196/93 120/202/93
f 93/203/94 92/197/94 112/198/94 113/204/94
f 86/205/95 85/199/95 105/200/95 106/206/95
f 94/207/96 93/203/96 113/204/96 114/208/96
f 87/209/97 86/205/97 106/206/97 107/210/97
f 95/170/98 94/207/98 114/208/98 115/171/98
f 88/174/99 87/209/99 107/210/99 108/175/99
f 81/178/100 100/201/100 120/202/100 101/179/100
f 113/211/101 112/212/101 132/213/101 133/214/101
f 106/215/102 105/216/102 125/217/102 126/218/102
f 114/219/103 113/211/103 133/214/103 134/220/103
f 107/221/104 106/215/104 126/218/104 127/222/104
f 115/223/105 114/219/105 134/220/105 135/224/105
f 108/225/106 107/221/106 127/222/106 128/226/106
f 101/227/107 120/228/107 140/229/107 121/230/107
f 116/231/108 115/223/108 135/224/108 136/232/108
f 109/233/109 108/225/109 128/226/109 129/234/109
f 102/235/110 101/227/110 121/230/110 122/236/110
f 117/237/111 116/231/111 136/232/111 137/238/111
f 110/239/112 109/233/112 129/234/112 130/240/112
f 103/241/113 102/235/113 122/236/113 123/242/113
f 118/243/114 117/244/114 137/245/114 138/246/114
f 111/247/115 110/239/115 130/240/115 131/248/115
f 104/249/116 103/241/116 123/242/116 124/250/116
f 119/251/117 118/243/117 138/246/117 139/252/117
f 112/212/118 111/247/118 131/248/118 132/213/118
f 105/216/119 104/249/119 124/250/119 125/217/119
f 120/228/120 119/251/120 139/252/120 140/229/120
f 124/253/121 123/254/121 158/255/121 157/256/121
f 122/257/122 121/258/122 160/259/122 159/260/122
f 138/261/123 137/262/123 144/263/123 143/264/123
f 136/265/124 135/266/124 146/267/124 145/268/124
f 130/269/125 129/270/125 152/271/125 151/272/125
f 128/273/126 127/274/126 154/275/126 153/276/126
f 127/274/127 126/277/127 155/278/127 154/275/127
f 126/277/128 125/279/128 156/280/128 155/278/128
f 140/281/129 139/282/129 142/283/129 141/284/129
f 132/285/130 131/286/130 150/287/130 149/288/130
f 134/289/131 133/290/131 148/291/131 147/292/131
f 133/290/132 132/285/132 149/288/132 148/291/132
f 125/279/133 124/253/133 157/256/133 156/280/133
f 139/282/134 138/261/134 143/264/134 142/283/134
f 137/293/135 136/265/135 145/268/135 144/294/135
f 131/286/136 130/269/136 151/272/136 150/287/136
f 129/270/137 128/273/137 153/276/137 152/271/137
f 123/254/138 122/257/138 159/260/138 158/255/138
f 121/258/139 140/281/139 141/284/139 160/259/139
f 135/266/140 134/289/140 147/292/140 146/267/140
