# Blender v2.79 (sub 0) OBJ File: 'Burg Test.blend'
# www.blender.org
mtllib WurzelCollisionObjekt.mtl
o WurzelCollisionObjekt_Plane
v -0.578587 2.974311 -10.975057
v 0.295827 2.974311 -10.975057
v -0.578587 3.181564 -11.774974
v 0.295827 3.181564 -11.774974
v -0.578587 3.233857 -12.224059
v 0.295827 3.233857 -12.224059
v -0.578587 2.813695 -10.447752
v 0.295827 2.813695 -10.447752
v -0.578587 3.140829 -11.371949
v 0.295827 3.140829 -11.371949
v -0.578587 2.669814 -9.610153
v 0.295827 2.669814 -9.610153
v -0.578587 1.970599 -8.748928
v 0.295827 1.970599 -8.748928
v 0.295827 2.754237 -9.961282
v -0.578587 2.754237 -9.961282
v 0.295827 2.377526 -9.173332
v -0.578587 2.377526 -9.173332
v -0.578587 1.598268 -8.063711
v 0.295827 1.598268 -8.063711
v -0.578587 1.209199 -7.635919
v 0.295827 1.209199 -7.635919
v -0.578587 1.033585 -7.437622
v 0.295827 1.033585 -7.437622
vn 0.0000 0.9949 0.1006
vn 0.0000 0.9933 0.1157
vn 0.0000 0.9566 0.2914
vn 0.0000 0.9221 0.3869
vn 0.0000 0.9723 0.2338
vn 0.0000 0.7218 0.6921
vn 0.0000 0.9926 0.1213
vn 0.0000 0.8311 0.5561
vn 0.0000 0.8787 0.4774
vn 0.0000 0.7398 0.6728
vn 0.0000 0.7486 0.6630
usemtl None
s off
f 9//1 10//1 4//1 3//1
f 3//2 4//2 6//2 5//2
f 2//3 1//3 7//3 8//3
f 1//4 2//4 10//4 9//4
f 15//5 16//5 11//5 12//5
f 17//6 18//6 13//6 14//6
f 8//7 7//7 16//7 15//7
f 12//8 11//8 18//8 17//8
f 14//9 13//9 19//9 20//9
f 20//10 19//10 21//10 22//10
f 22//11 21//11 23//11 24//11
