# Blender v2.79 (sub 0) OBJ File: 'Burg Test.blend'
# www.blender.org
mtllib ZugbrückeSeilOben.mtl
o ZugbrückeSeilOben_Cylinder.003
v 0.659580 28.823542 -319.727386
v 0.600801 28.073132 -321.464630
v 0.600801 27.832745 -322.122070
v 0.659580 28.091068 -321.471191
v 0.659580 27.850681 -322.128601
v 0.695907 28.138029 -321.488342
v 0.695907 27.897640 -322.145782
v 0.695907 28.196074 -321.509583
v 0.695907 27.955687 -322.167023
v 0.659580 28.243032 -321.526764
v 0.659580 28.002645 -322.184174
v 0.600801 28.260969 -321.533295
v 0.600801 28.020582 -322.190735
v 0.542023 28.243032 -321.526764
v 0.542023 28.002645 -322.184174
v 0.505696 28.196074 -321.509583
v 0.505696 27.955687 -322.167023
v 0.505696 28.138029 -321.488342
v 0.505696 27.897640 -322.145782
v 0.542023 28.091068 -321.471191
v 0.542023 27.850681 -322.128601
v 0.659580 29.340847 -318.424225
v 0.600801 29.322910 -318.417664
v 0.695907 29.387808 -318.441376
v 0.695907 29.445852 -318.462616
v 0.659580 29.492811 -318.479797
v 0.600801 29.510748 -318.486328
v 0.542023 29.492811 -318.479797
v 0.505696 29.445852 -318.462616
v 0.505696 29.387808 -318.441376
v 0.542023 29.340847 -318.424225
v 0.505696 28.870501 -319.744568
v 0.695907 28.870501 -319.744568
v 0.695907 28.928545 -319.765778
v 0.542023 28.823542 -319.727386
v 0.600801 28.805605 -319.720825
v 0.659580 28.975506 -319.782959
v 0.600801 28.993443 -319.789520
v 0.542023 28.975506 -319.782959
v 0.505696 28.928545 -319.765778
v 0.660489 29.475096 -317.720856
v 0.601995 29.455557 -317.716797
v 0.696184 29.525244 -317.726379
v 0.695447 29.586847 -317.731293
v 0.658558 29.636375 -317.733704
v 0.599608 29.654911 -317.732666
v 0.541114 29.635372 -317.728638
v 0.505419 29.585224 -317.723083
v 0.506156 29.523621 -317.718201
v 0.543045 29.474092 -317.715790
v 0.695447 29.284124 -317.318695
v 0.695447 29.437025 -317.419403
v 0.695447 29.346388 -317.339539
v 0.695447 29.402353 -317.376404
v 0.696184 29.387106 -317.452759
v 0.696184 29.232334 -317.353271
v 0.696184 29.351645 -317.410248
v 0.696184 29.294994 -317.373840
v 0.601995 29.171471 -317.389343
v 0.601995 29.329189 -317.486877
v 0.601995 29.234610 -317.409485
v 0.601995 29.292339 -317.445190
v 0.543045 29.342815 -317.474762
v 0.543045 29.185406 -317.376984
v 0.543045 29.306112 -317.432983
v 0.543045 29.248497 -317.397217
v 0.505419 29.277719 -317.313354
v 0.505419 29.431688 -317.413513
v 0.505419 29.340147 -317.334076
v 0.505419 29.396503 -317.370728
v 0.541114 29.473190 -317.387512
v 0.541114 29.320705 -317.286377
v 0.541114 29.438675 -317.344360
v 0.541114 29.382862 -317.307343
v 0.658558 29.324644 -317.289673
v 0.658558 29.476530 -317.391144
v 0.658558 29.386715 -317.310699
v 0.658558 29.442308 -317.347839
v 0.660489 29.189344 -317.380280
v 0.660489 29.346004 -317.478485
v 0.660489 29.252331 -317.400574
v 0.660489 29.309671 -317.436523
v 0.506156 29.225927 -317.347961
v 0.506156 29.381866 -317.446777
v 0.506156 29.288765 -317.368408
v 0.506156 29.345842 -317.404572
v 0.599608 29.338579 -317.277313
v 0.599608 29.490351 -317.378906
v 0.599608 29.400629 -317.298370
v 0.599608 29.456182 -317.335571
v 0.695447 23.768398 -316.351562
v 0.696184 23.748348 -316.407532
v 0.660489 23.730621 -316.452698
v 0.601995 23.721966 -316.469849
v 0.543045 23.725672 -316.452393
v 0.506156 23.740334 -316.407013
v 0.505419 23.760384 -316.351044
v 0.541114 23.778112 -316.305878
v 0.599608 23.786766 -316.288757
v 0.658558 23.783062 -316.306213
vt 0.014923 0.692967
vt 0.007655 0.693172
vt 0.008163 0.527305
vt 0.015342 0.527813
vt 0.073374 0.917365
vt 0.073124 0.999973
vt 0.065804 0.999950
vt 0.066063 0.917302
vt 0.066045 0.693211
vt 0.058779 0.692996
vt 0.058738 0.527876
vt 0.065932 0.527388
vt 0.058498 0.999926
vt 0.058749 0.917156
vt 0.073380 0.693289
vt 0.073110 0.527142
vt 0.051211 0.999906
vt 0.051415 0.916977
vt 0.051498 0.692727
vt 0.044189 0.692506
vt 0.044263 0.528874
vt 0.051513 0.528440
vt 0.043938 0.999893
vt 0.044061 0.916830
vt 0.036852 0.692418
vt 0.029514 0.692496
vt 0.029804 0.528852
vt 0.037054 0.529026
vt 0.036669 0.999888
vt 0.036692 0.916771
vt 0.022205 0.692707
vt 0.022555 0.528398
vt 0.029395 0.999893
vt 0.029326 0.916818
vt 0.022106 0.999904
vt 0.021976 0.916953
vt 0.000318 0.693240
vt 0.000827 0.527016
vt 0.014798 0.999919
vt 0.014648 0.917122
vt 0.007476 0.999934
vt 0.007337 0.917259
vt 0.000180 0.999947
vt 0.000027 0.917313
vt 0.055883 0.444063
vt 0.062917 0.442254
vt 0.024490 0.445014
vt 0.030667 0.446410
vt 0.036892 0.447069
vt 0.043186 0.446903
vt 0.049457 0.445861
vt 0.018091 0.443173
vt 0.070628 0.441321
vt 0.003300 0.441458
vt 0.010989 0.441775
vt 0.042657 0.408664
vt 0.048829 0.408148
vt 0.063153 0.406031
vt 0.071770 0.405098
vt 0.018077 0.406516
vt 0.024781 0.407489
vt 0.055573 0.407197
vt 0.001949 0.405637
vt 0.010488 0.405755
vt 0.030913 0.408285
vt 0.036799 0.408717
vt 0.030394 0.390715
vt 0.036662 0.391885
vt 0.036677 0.398028
vt 0.031001 0.397061
vt 0.036691 0.403835
vt 0.031200 0.403162
vt 0.011178 0.379114
vt 0.018147 0.382807
vt 0.018833 0.391332
vt 0.011301 0.388211
vt 0.018841 0.399759
vt 0.011050 0.397972
vt 0.055274 0.383434
vt 0.062098 0.379165
vt 0.062093 0.388372
vt 0.054692 0.392010
vt 0.062463 0.398179
vt 0.054748 0.400441
vt 0.042966 0.391136
vt 0.042421 0.397472
vt 0.042280 0.403589
vt 0.024318 0.387474
vt 0.025209 0.394734
vt 0.025404 0.401732
vt 0.069478 0.377051
vt 0.070513 0.386248
vt 0.071298 0.396632
vt 0.049135 0.388202
vt 0.048315 0.395433
vt 0.048163 0.402415
vt 0.003725 0.377713
vt 0.002826 0.386904
vt 0.002159 0.397219
vt 0.061489 0.000680
vt 0.068057 0.000027
vt 0.014340 0.001103
vt 0.020970 0.002249
vt 0.034671 0.003946
vt 0.041567 0.003822
vt 0.027774 0.003340
vt 0.007806 0.000372
vt 0.054978 0.001813
vt 0.001220 0.000315
vt 0.048364 0.003021
vn -0.8088 -0.5466 0.2170
vn 0.3091 -0.8932 0.3266
vn 0.8088 -0.5466 0.2170
vn 0.8091 -0.5519 0.2018
vn 0.3091 -0.8839 0.3509
vn 1.0000 0.0000 -0.0000
vn 0.8090 0.5463 -0.2169
vn 0.8090 0.5521 -0.2019
vn -0.3089 0.8840 -0.3509
vn 0.3090 0.8932 -0.3266
vn -1.0000 -0.0000 0.0000
vn -0.3090 0.8932 -0.3266
vn -0.8089 0.5522 -0.2019
vn -0.3091 -0.8839 0.3509
vn 0.3089 0.8840 -0.3509
vn -0.8090 -0.5520 0.2018
vn -0.8090 0.5463 -0.2169
vn -0.3091 -0.8932 0.3266
vn 0.8104 -0.5755 0.1096
vn -0.8105 0.5755 -0.1095
vn 0.2987 0.9373 -0.1794
vn 1.0000 0.0059 -0.0010
vn -1.0000 -0.0059 0.0012
vn 0.3141 -0.9328 0.1768
vn -0.2988 -0.9377 0.1774
vn -0.3140 0.9326 -0.1781
vn 0.8024 0.5861 -0.1121
vn -0.8024 -0.5864 0.1110
vn -0.8087 0.5423 -0.2278
vn 0.3088 0.8769 -0.3683
vn -0.3089 -0.8769 0.3683
vn -0.3088 0.8769 -0.3683
vn 0.8087 0.5423 -0.2278
vn 0.3090 -0.8768 0.3683
vn 0.8087 -0.5424 0.2278
vn -0.8087 -0.5424 0.2278
vn 0.7786 0.5673 0.2684
vn 0.2793 -0.8446 -0.4568
vn -0.9999 -0.0117 -0.0060
vn 0.9999 0.0118 0.0058
vn -0.2808 -0.8420 -0.4606
vn -0.7880 0.5539 0.2688
vn 0.2843 0.8690 0.4049
vn -0.2879 0.8666 0.4075
vn -0.7741 -0.5587 -0.2977
vn 0.7846 -0.5505 -0.2851
vn -0.2372 0.3113 0.9202
vn -0.2821 0.5320 0.7983
vn -0.3088 0.7448 0.5915
vn -0.7345 -0.2086 -0.6458
vn -0.7768 -0.3346 -0.5335
vn -0.7943 -0.4593 -0.3977
vn 0.7360 -0.2094 -0.6438
vn 0.7840 -0.3327 -0.5241
vn 0.8054 -0.4517 -0.3838
vn 0.2641 0.3097 0.9134
vn 0.2918 0.5318 0.7950
vn 0.2989 0.7490 0.5913
vn -0.9999 -0.0047 -0.0144
vn -0.9999 -0.0071 -0.0111
vn -0.9999 -0.0094 -0.0079
vn 0.2324 -0.2969 -0.9262
vn 0.2748 -0.5082 -0.8162
vn 0.3007 -0.7178 -0.6280
vn 0.7378 0.2154 0.6398
vn 0.7807 0.3454 0.5207
vn 0.7976 0.4714 0.3763
vn -0.7383 0.2140 0.6396
vn -0.7867 0.3389 0.5161
vn -0.8082 0.4574 0.3709
vn -0.2617 -0.2940 -0.9193
vn -0.2872 -0.5045 -0.8142
vn -0.2970 -0.7164 -0.6313
vn 0.9999 0.0047 0.0143
vn 0.9999 0.0071 0.0110
vn 0.9999 0.0095 0.0078
vn 0.2502 -0.1616 -0.9546
vn -0.9999 -0.0025 -0.0143
vn 0.2655 0.1687 0.9492
vn -0.2522 0.1691 0.9528
vn -0.7456 -0.1120 -0.6570
vn 0.7519 -0.1112 -0.6498
vn -0.7524 0.1140 0.6488
vn -0.2647 -0.1607 -0.9508
vn 0.9999 0.0025 0.0143
vn 0.7470 0.1155 0.6548
usemtl Zugbrücke+SeilTextur
s off
f 32/1/1 35/2/1 31/3/1 30/4/1
f 2/5/2 3/6/2 5/7/2 4/8/2
f 1/9/3 33/10/3 24/11/3 22/12/3
f 4/8/4 5/7/4 7/13/4 6/14/4
f 36/15/5 1/9/5 22/12/5 23/16/5
f 6/14/6 7/13/6 9/17/6 8/18/6
f 34/19/7 37/20/7 26/21/7 25/22/7
f 8/18/8 9/17/8 11/23/8 10/24/8
f 38/25/9 39/26/9 28/27/9 27/28/9
f 10/24/10 11/23/10 13/29/10 12/30/10
f 40/31/11 32/1/11 30/4/11 29/32/11
f 12/30/12 13/29/12 15/33/12 14/34/12
f 33/10/6 34/19/6 25/22/6 24/11/6
f 14/34/13 15/33/13 17/35/13 16/36/13
f 35/2/14 36/37/14 23/38/14 31/3/14
f 16/36/11 17/35/11 19/39/11 18/40/11
f 37/20/15 38/25/15 27/28/15 26/21/15
f 18/40/16 19/39/16 21/41/16 20/42/16
f 39/26/17 40/31/17 29/32/17 28/27/17
f 20/42/18 21/41/18 3/43/18 2/44/18
f 22/12/19 24/11/19 43/45/19 41/46/19
f 28/27/20 29/32/20 48/47/20 47/48/20
f 26/21/21 27/28/21 46/49/21 45/50/21
f 24/11/22 25/22/22 44/51/22 43/45/22
f 29/32/23 30/4/23 49/52/23 48/47/23
f 23/16/24 22/12/24 41/46/24 42/53/24
f 31/3/25 23/38/25 42/54/25 50/55/25
f 27/28/26 28/27/26 47/48/26 46/49/26
f 25/22/27 26/21/27 45/50/27 44/51/27
f 30/4/28 31/3/28 50/55/28 49/52/28
f 14/34/29 16/36/29 40/31/29 39/26/29
f 10/24/30 12/30/30 38/25/30 37/20/30
f 20/42/31 2/44/31 36/37/31 35/2/31
f 6/14/6 8/18/6 34/19/6 33/10/6
f 16/36/11 18/40/11 32/1/11 40/31/11
f 12/30/32 14/34/32 39/26/32 38/25/32
f 8/18/33 10/24/33 37/20/33 34/19/33
f 2/5/34 4/8/34 1/9/34 36/15/34
f 4/8/35 6/14/35 33/10/35 1/9/35
f 18/40/36 20/42/36 35/2/36 32/1/36
f 44/51/37 45/50/37 76/56/37 52/57/37
f 42/53/38 41/46/38 80/58/38 60/59/38
f 48/47/39 49/52/39 84/60/39 68/61/39
f 43/45/40 44/51/40 52/57/40 55/62/40
f 50/55/41 42/54/41 60/63/41 63/64/41
f 47/48/42 48/47/42 68/61/42 71/65/42
f 45/50/43 46/49/43 88/66/43 76/56/43
f 46/49/44 47/48/44 71/65/44 88/66/44
f 49/52/45 50/55/45 63/64/45 84/60/45
f 41/46/46 43/45/46 55/62/46 80/58/46
f 72/67/47 87/68/47 89/69/47 74/70/47
f 74/70/48 89/69/48 90/71/48 73/72/48
f 73/72/49 90/71/49 88/66/49 71/65/49
f 64/73/50 83/74/50 85/75/50 66/76/50
f 66/76/51 85/75/51 86/77/51 65/78/51
f 65/78/52 86/77/52 84/60/52 63/64/52
f 56/79/53 79/80/53 81/81/53 58/82/53
f 58/82/54 81/81/54 82/83/54 57/84/54
f 57/84/55 82/83/55 80/58/55 55/62/55
f 87/68/56 75/85/56 77/86/56 89/69/56
f 89/69/57 77/86/57 78/87/57 90/71/57
f 90/71/58 78/87/58 76/56/58 88/66/58
f 83/74/59 67/88/59 69/89/59 85/75/59
f 85/75/60 69/89/60 70/90/60 86/77/60
f 86/77/61 70/90/61 68/61/61 84/60/61
f 79/80/62 59/91/62 61/92/62 81/81/62
f 81/81/63 61/92/63 62/93/63 82/83/63
f 82/83/64 62/93/64 60/59/64 80/58/64
f 75/85/65 51/94/65 53/95/65 77/86/65
f 77/86/66 53/95/66 54/96/66 78/87/66
f 78/87/67 54/96/67 52/57/67 76/56/67
f 67/88/68 72/67/68 74/70/68 69/89/68
f 69/89/69 74/70/69 73/72/69 70/90/69
f 70/90/70 73/72/70 71/65/70 68/61/70
f 59/97/71 64/73/71 66/76/71 61/98/71
f 61/98/72 66/76/72 65/78/72 62/99/72
f 62/99/73 65/78/73 63/64/73 60/63/73
f 51/94/74 56/79/74 58/82/74 53/95/74
f 53/95/75 58/82/75 57/84/75 54/96/75
f 54/96/76 57/84/76 55/62/76 52/57/76
f 59/91/77 79/80/77 93/100/77 94/101/77
f 67/88/78 83/74/78 96/102/78 97/103/78
f 75/85/79 87/68/79 99/104/79 100/105/79
f 87/68/80 72/67/80 98/106/80 99/104/80
f 83/74/81 64/73/81 95/107/81 96/102/81
f 79/80/82 56/79/82 92/108/82 93/100/82
f 72/67/83 67/88/83 97/103/83 98/106/83
f 64/73/84 59/97/84 94/109/84 95/107/84
f 56/79/85 51/94/85 91/110/85 92/108/85
f 51/94/86 75/85/86 100/105/86 91/110/86
