# Blender v2.79 (sub 0) OBJ File: 'Burg Test.blend'
# www.blender.org
mtllib ZugbrückeSeinUnten.mtl
o ZugbrückeSeilUnten_Cylinder.006
v 0.660489 22.729107 -316.281494
v 0.601995 22.722319 -316.300232
v 0.696184 22.741724 -316.232635
v 0.695447 22.755352 -316.172363
v 0.658558 22.764786 -316.123688
v 0.599608 22.766420 -316.105194
v 0.541114 22.759632 -316.123932
v 0.505419 22.747013 -316.172791
v 0.506156 22.733385 -316.233063
v 0.543045 22.723953 -316.281769
v 0.349910 22.382946 -316.111053
v 0.330296 22.370070 -316.088043
v 0.329904 22.354918 -316.058868
v 0.348883 22.343277 -316.034698
v 0.379985 22.339594 -316.024750
v 0.411329 22.345276 -316.032837
v 0.430943 22.358152 -316.055847
v 0.431335 22.373304 -316.084991
v 0.381254 22.388628 -316.119110
v 0.412356 22.384945 -316.109161
v 0.715458 21.905769 -315.130249
v 0.692217 22.036428 -315.008484
v 0.701719 21.943758 -315.044525
v 0.628917 22.020128 -314.994324
v 0.650637 21.889021 -315.115753
v 0.637462 21.927195 -315.030151
v 0.754933 21.950602 -315.162476
v 0.730845 22.080837 -315.040253
v 0.740907 21.988649 -315.076691
v 0.753957 22.006266 -315.199799
v 0.730047 22.136391 -315.077484
v 0.740050 22.044685 -315.114258
v 0.712834 22.051414 -315.228516
v 0.690127 22.181868 -315.105957
v 0.699455 22.090433 -315.143036
v 0.647276 22.068911 -315.237549
v 0.626333 22.199902 -315.114807
v 0.634630 22.108456 -315.152008
v 0.582411 22.052246 -315.222961
v 0.563033 22.183599 -315.100647
v 0.570360 22.091915 -315.137604
v 0.543028 22.007715 -315.190796
v 0.524405 22.139193 -315.068878
v 0.531199 22.047113 -315.105469
v 0.544104 21.952156 -315.153595
v 0.525204 22.083639 -315.031647
v 0.532085 21.991110 -315.067932
v 0.585203 21.906778 -315.124786
v 0.565124 22.038160 -315.003174
v 0.572672 21.945293 -315.039154
v 0.607963 22.653912 -314.979736
v 0.575482 22.785807 -315.102753
v 0.592806 22.730118 -315.007751
v 0.519287 22.801424 -315.091980
v 0.548177 22.665270 -314.963318
v 0.534059 22.741192 -314.991272
v 0.645722 22.630095 -315.022522
v 0.608978 22.748703 -315.132721
v 0.628788 22.706217 -315.051300
v 0.647182 22.604231 -315.074768
v 0.606722 22.704189 -315.170654
v 0.628228 22.679007 -315.105194
v 0.612022 22.584499 -315.116272
v 0.568980 22.668190 -315.204712
v 0.591227 22.658384 -315.149628
v 0.553080 22.578447 -315.131744
v 0.511137 22.655785 -315.218262
v 0.532040 22.652180 -315.166656
v 0.492362 22.589792 -315.115967
v 0.455346 22.671362 -315.207214
v 0.473142 22.663206 -315.150299
v 0.453965 22.612959 -315.074432
v 0.422394 22.708502 -315.177216
v 0.437138 22.686920 -315.107086
v 0.452881 22.638887 -315.022369
v 0.424715 22.753202 -315.139130
v 0.437828 22.714188 -315.053192
v 0.488976 22.659121 -314.979736
v 0.461815 22.789156 -315.105469
v 0.474908 22.734991 -315.008545
v 0.694272 22.022112 -316.161865
v 0.701411 21.910770 -316.025238
v 0.698554 21.943653 -316.114105
v 0.633934 21.893206 -316.040039
v 0.627813 22.004633 -316.177063
v 0.631258 21.926064 -316.129059
v 0.734649 22.062901 -316.119843
v 0.742674 21.952185 -315.983398
v 0.739593 21.984707 -316.072266
v 0.733509 22.111729 -316.067047
v 0.742006 22.001766 -315.929810
v 0.738709 22.033670 -316.019348
v 0.691419 22.149307 -316.023590
v 0.699708 22.040676 -315.886139
v 0.696292 22.071684 -315.975891
v 0.624495 22.161478 -316.006073
v 0.631937 22.053923 -315.868652
v 0.628556 22.084249 -315.958344
v 0.558206 22.144016 -316.021332
v 0.564516 22.036287 -315.883362
v 0.561326 22.066645 -315.973267
v 0.517799 22.103163 -316.063385
v 0.523156 21.994555 -315.925262
v 0.520250 22.025480 -316.015137
v 0.518735 22.054342 -316.116119
v 0.523703 21.944841 -315.978943
v 0.521038 21.976479 -316.068054
v 0.560744 22.016823 -316.159576
v 0.566033 21.906181 -316.022522
v 0.563441 21.938555 -316.111511
v 0.432011 22.796509 -315.933990
v 0.419057 22.675037 -316.093201
v 0.425766 22.773468 -316.047089
v 0.370319 22.680807 -316.108795
v 0.378720 22.811304 -315.945007
v 0.371502 22.784790 -316.061829
v 0.465169 22.756336 -315.908234
v 0.448800 22.656796 -316.055298
v 0.459074 22.741474 -316.012207
v 0.465702 22.706348 -315.878052
v 0.448185 22.633049 -316.009613
v 0.458757 22.701061 -315.970642
v 0.433482 22.666735 -315.856873
v 0.417448 22.612873 -315.973572
v 0.424958 22.667845 -315.938934
v 0.381166 22.651398 -315.850372
v 0.368330 22.603968 -315.960907
v 0.370694 22.654331 -315.928406
v 0.328247 22.666279 -315.861267
v 0.319591 22.609739 -315.976501
v 0.316543 22.665691 -315.943115
v 0.294229 22.706915 -315.887726
v 0.289849 22.627981 -316.014374
v 0.282973 22.697769 -315.978241
v 0.293174 22.756258 -315.917023
v 0.290463 22.651726 -316.060089
v 0.283132 22.738058 -316.019470
v 0.325612 22.795839 -315.938354
v 0.321200 22.671906 -316.096130
v 0.316997 22.771254 -316.051239
v 0.695447 23.762854 -316.349243
v 0.658558 23.777084 -316.303619
v 0.696184 23.743336 -316.405579
v 0.660489 23.726030 -316.451050
v 0.601995 23.717531 -316.468323
v 0.543045 23.721066 -316.450775
v 0.506156 23.735294 -316.405121
v 0.505419 23.754812 -316.348816
v 0.541114 23.772118 -316.303345
v 0.599608 23.780617 -316.286072
v 0.600801 23.749073 -316.377197
v 0.651756 23.656158 -316.291412
v 0.684301 23.644096 -316.332001
v 0.684952 23.627481 -316.382080
v 0.653460 23.612696 -316.422546
v 0.601855 23.605371 -316.437958
v 0.549846 23.608295 -316.422363
v 0.517301 23.620356 -316.381775
v 0.516651 23.636971 -316.331696
v 0.548142 23.651758 -316.291229
v 0.599748 23.659081 -316.275848
v 0.644822 23.480211 -316.269745
v 0.672938 23.470480 -316.305237
v 0.673501 23.456974 -316.349091
v 0.646294 23.444874 -316.384521
v 0.601711 23.438793 -316.398041
v 0.556781 23.441044 -316.384460
v 0.528665 23.450775 -316.348938
v 0.528102 23.464281 -316.305115
v 0.555309 23.476381 -316.269653
v 0.599892 23.482462 -316.256165
v 0.659002 23.306255 -316.219086
v 0.696175 23.294409 -316.266663
v 0.696918 23.277805 -316.325470
v 0.660948 23.262804 -316.373047
v 0.602004 23.255129 -316.391235
v 0.542601 23.257702 -316.373047
v 0.505428 23.269547 -316.325470
v 0.504685 23.286152 -316.266663
v 0.540654 23.301153 -316.219086
v 0.599599 23.308828 -316.200928
vt 0.239314 0.913912
vt 0.228453 0.913178
vt 0.231757 0.820502
vt 0.242703 0.820751
vt 0.168429 0.911976
vt 0.158415 0.911681
vt 0.156167 0.819706
vt 0.166952 0.819891
vt 0.198248 0.913524
vt 0.188290 0.913212
vt 0.188321 0.820678
vt 0.199050 0.820801
vt 0.178341 0.912615
vt 0.177636 0.820297
vt 0.148073 0.912156
vt 0.145255 0.819938
vt 0.218151 0.913173
vt 0.220732 0.820554
vt 0.137335 0.913754
vt 0.134337 0.820637
vt 0.208165 0.913418
vt 0.209827 0.820720
vt 0.133705 0.668138
vt 0.122403 0.668939
vt 0.122736 0.483844
vt 0.133795 0.483454
vt 0.255106 0.293961
vt 0.244284 0.295734
vt 0.237112 0.094710
vt 0.248205 0.092111
vt 0.171173 0.649744
vt 0.156549 0.656765
vt 0.158540 0.487089
vt 0.173819 0.490787
vt 0.221595 0.656826
vt 0.207013 0.649792
vt 0.209096 0.495019
vt 0.223583 0.493679
vt 0.233092 0.664246
vt 0.235620 0.491025
vt 0.145064 0.664198
vt 0.145613 0.484245
vt 0.189101 0.647154
vt 0.191507 0.493983
vt 0.244417 0.668277
vt 0.246789 0.489192
vt 0.148320 0.057305
vt 0.138782 0.054847
vt 0.159812 0.002043
vt 0.166428 0.002535
vt 0.184818 0.063391
vt 0.170950 0.061666
vt 0.179617 0.001290
vt 0.186215 0.000992
vt 0.198794 0.063675
vt 0.192792 0.001575
vt 0.158850 0.059478
vt 0.173044 0.002023
vt 0.222810 0.060160
vt 0.211662 0.062410
vt 0.199329 0.002602
vt 0.205934 0.003404
vt 0.219800 0.696146
vt 0.232400 0.694065
vt 0.123330 0.694142
vt 0.134052 0.693404
vt 0.158025 0.696043
vt 0.172544 0.698170
vt 0.205253 0.698238
vt 0.243735 0.693463
vt 0.254416 0.694173
vt 0.145419 0.693977
vt 0.188896 0.698896
vt 0.257968 0.488535
vt 0.249735 0.475975
vt 0.259664 0.475112
vt 0.246117 0.461534
vt 0.257698 0.460693
vt 0.239044 0.475445
vt 0.234316 0.458274
vt 0.226057 0.472812
vt 0.224086 0.449645
vt 0.210156 0.468156
vt 0.211637 0.438944
vt 0.191492 0.464248
vt 0.193189 0.432137
vt 0.171884 0.462890
vt 0.173056 0.432640
vt 0.155432 0.464915
vt 0.156586 0.440234
vt 0.142715 0.468021
vt 0.146048 0.450068
vt 0.132587 0.470096
vt 0.135811 0.456332
vt 0.123407 0.471338
vt 0.125168 0.458306
vt 0.241375 0.053909
vt 0.232538 0.057279
vt 0.212590 0.003182
vt 0.218978 0.001416
vt 0.221915 0.330257
vt 0.234187 0.328780
vt 0.122674 0.318079
vt 0.133680 0.316342
vt 0.157946 0.315949
vt 0.172685 0.319200
vt 0.206898 0.328673
vt 0.245458 0.326263
vt 0.256360 0.324390
vt 0.145589 0.315248
vt 0.189932 0.324144
vt 0.247466 0.313325
vt 0.257233 0.311812
vt 0.236832 0.313187
vt 0.232807 0.295588
vt 0.224425 0.310016
vt 0.220488 0.291699
vt 0.209667 0.302369
vt 0.206049 0.283736
vt 0.190962 0.294660
vt 0.189253 0.276109
vt 0.170805 0.292558
vt 0.171837 0.273667
vt 0.154169 0.295359
vt 0.156944 0.276495
vt 0.141975 0.299758
vt 0.145082 0.281456
vt 0.132218 0.303281
vt 0.134076 0.285829
vt 0.122838 0.305473
vt 0.123587 0.287997
vt 0.129557 0.051739
vt 0.153508 0.000037
vt 0.246303 0.681212
vt 0.256018 0.681980
vt 0.255570 0.669192
vt 0.235816 0.679740
vt 0.222991 0.677411
vt 0.207116 0.674951
vt 0.188963 0.673828
vt 0.170817 0.674913
vt 0.154963 0.677347
vt 0.142132 0.679654
vt 0.131614 0.681097
vt 0.121832 0.681843
vt 0.146440 0.092950
vt 0.158309 0.096726
vt 0.184512 0.106418
vt 0.198877 0.107151
vt 0.225152 0.099315
vt 0.134888 0.091869
vt 0.170976 0.102254
vt 0.212503 0.104383
vt 0.123272 0.092887
vt 0.239160 0.074346
vt 0.248435 0.071536
vt 0.229380 0.077428
vt 0.217373 0.081005
vt 0.201909 0.083096
vt 0.184154 0.082203
vt 0.167157 0.079877
vt 0.152968 0.076061
vt 0.141877 0.073408
vt 0.132228 0.071791
vt 0.122444 0.070679
vt 0.212926 0.999963
vt 0.187765 0.998671
vt 0.205979 0.989574
vt 0.200678 0.985061
vt 0.196235 0.982876
vt 0.192170 0.981854
vt 0.188155 0.981548
vt 0.184082 0.981584
vt 0.169472 0.989324
vt 0.162496 0.999963
vt 0.175038 0.984619
vt 0.179793 0.982435
vt 0.194348 0.971283
vt 0.200697 0.972136
vt 0.207692 0.973520
vt 0.150550 0.978678
vt 0.160000 0.974941
vt 0.175378 0.971226
vt 0.181934 0.970715
vt 0.215866 0.975774
vt 0.168199 0.972490
vt 0.188212 0.970680
vt 0.225507 0.978968
vt 0.196603 0.944325
vt 0.204931 0.944701
vt 0.213364 0.945038
vt 0.145735 0.946630
vt 0.154428 0.944938
vt 0.171512 0.943777
vt 0.179896 0.943929
vt 0.222023 0.945639
vt 0.163050 0.944004
vt 0.188272 0.944167
vt 0.230826 0.946782
vn 0.3138 -0.1603 -0.9358
vn -0.9999 -0.0034 -0.0116
vn 0.2972 0.1657 0.9403
vn -0.3141 0.1645 0.9350
vn -0.7992 -0.1026 -0.5922
vn 0.8121 -0.1000 -0.5748
vn -0.8121 0.0997 0.5749
vn -0.2973 -0.1610 -0.9411
vn 0.9999 0.0008 0.0122
vn -0.2244 -0.9745 0.0025
vn 0.2676 0.9630 -0.0334
vn -0.7304 0.6830 0.0055
vn 0.7078 0.7061 -0.0205
vn 0.9997 0.0180 -0.0156
vn -0.9995 -0.0195 0.0261
vn 0.2232 0.9745 -0.0244
vn 0.7307 -0.6825 -0.0138
vn -0.7078 -0.7061 0.0195
vn -0.2509 0.9679 -0.0167
vn -0.7489 -0.0403 -0.6614
vn -0.3221 -0.2356 0.9169
vn 0.2800 -0.2137 0.9359
vn -0.8154 -0.2077 0.5404
vn 0.9981 -0.0596 -0.0176
vn -0.9879 -0.1317 -0.0817
vn 0.7921 -0.1492 0.5919
vn 0.9984 0.0555 -0.0141
vn -0.2877 -0.1711 -0.9423
vn -0.7881 0.0842 0.6098
vn 0.7863 0.1424 0.6012
vn 0.2861 -0.1493 -0.9465
vn -0.9998 -0.0195 -0.0040
vn 0.2880 0.1675 0.9429
vn 0.7832 -0.0629 -0.6186
vn -0.7839 -0.1221 -0.6087
vn -0.2860 0.1466 0.9469
vn 0.3143 -0.8482 0.4264
vn 0.2847 -0.3219 0.9029
vn 0.8144 -0.4701 0.3403
vn 0.7383 -0.1771 0.6508
vn 0.9884 0.0956 0.1184
vn 0.9934 0.0735 0.0877
vn 0.7805 0.6068 -0.1502
vn 0.7590 0.3108 -0.5721
vn 0.2911 0.8854 -0.3624
vn 0.2318 0.3852 -0.8933
vn -0.3145 0.8431 -0.4363
vn -0.2876 0.3383 -0.8960
vn -0.8140 0.4752 -0.3340
vn -0.7473 0.1967 -0.6348
vn -0.9914 -0.0843 -0.0997
vn -0.9971 -0.0521 -0.0552
vn -0.7834 -0.6008 0.1595
vn -0.7506 -0.2899 0.5937
vn -0.2935 -0.8881 0.3537
vn -0.2288 -0.3681 0.9012
vn 0.3090 0.0451 -0.9500
vn 0.9850 0.1614 0.0609
vn -0.2070 -0.0676 0.9760
vn -0.6661 -0.1242 -0.7354
vn 0.6991 0.1231 -0.7044
vn 0.2415 -0.0143 0.9703
vn -0.9894 -0.1371 -0.0487
vn 0.1951 0.0035 -0.9808
vn 0.6867 0.0709 0.7234
vn -0.6979 -0.1078 0.7080
vn -0.2309 -0.0822 -0.9695
vn 0.3137 0.3804 0.8700
vn 0.3015 0.8412 0.4488
vn 0.7991 0.3504 0.4885
vn 0.7540 0.6284 0.1910
vn 0.9763 0.1969 -0.0902
vn 0.9639 0.1946 -0.1816
vn 0.7781 -0.0602 -0.6253
vn 0.7851 -0.4573 -0.4177
vn 0.2828 -0.3356 -0.8985
vn 0.2054 -0.9573 -0.2034
vn -0.3101 -0.4729 -0.8247
vn -0.2312 -0.9726 -0.0230
vn -0.7865 -0.4045 -0.4667
vn -0.6644 -0.7473 -0.0047
vn -0.9812 -0.1740 0.0837
vn -0.9842 -0.1225 0.1281
vn -0.7839 0.0913 0.6141
vn -0.7785 0.5071 0.3699
vn -0.2900 0.2875 0.9128
vn -0.2642 0.8181 0.5108
vn -0.2535 0.0247 -0.9670
vn 0.3112 -0.4836 -0.8181
vn 0.3068 -0.8896 -0.3383
vn 0.8092 -0.2699 -0.5218
vn 0.7961 -0.5588 -0.2323
vn 0.9985 0.0489 -0.0261
vn 0.9990 0.0391 -0.0216
vn 0.8050 0.3470 0.4812
vn 0.7599 0.6218 0.1897
vn 0.3035 0.5125 0.8033
vn 0.2535 0.9182 0.3043
vn -0.3128 0.4897 0.8138
vn -0.3045 0.8990 0.3149
vn -0.8119 0.2867 0.5085
vn -0.7939 0.5668 0.2201
vn -0.9996 -0.0258 0.0076
vn -0.9992 -0.0342 0.0191
vn -0.8041 -0.3301 -0.4944
vn -0.7617 -0.6166 -0.1991
vn -0.3024 -0.5065 -0.8075
vn -0.2551 -0.9103 -0.3260
vn 0.2511 -0.9679 -0.0091
vn -0.9851 -0.0028 0.1719
vn 0.2468 -0.9680 -0.0466
vn 0.7478 0.6519 -0.1262
vn -0.7400 0.6605 0.1270
vn -0.2692 -0.9612 0.0609
vn 0.9820 -0.0024 -0.1886
vn -0.2459 0.9680 0.0499
vn -0.7468 -0.6495 0.1429
vn 0.7383 -0.6575 -0.1505
vn 0.2792 0.9352 -0.2179
vn 0.3196 0.3856 -0.8656
vn 0.7867 0.5991 -0.1493
vn 0.8044 0.1982 -0.5601
vn 0.9970 -0.0463 -0.0614
vn 0.9928 -0.1012 -0.0638
vn 0.7226 -0.6896 -0.0475
vn 0.8003 -0.3902 0.4552
vn 0.2528 -0.9660 -0.0544
vn 0.2939 -0.5332 0.7933
vn -0.2423 -0.9700 0.0194
vn -0.3207 -0.5004 0.8042
vn -0.7811 -0.6089 0.1384
vn -0.8137 -0.3291 0.4791
vn -0.9926 0.0686 0.0998
vn -0.9964 -0.0633 -0.0555
vn -0.7601 0.6468 -0.0626
vn -0.7863 0.2174 -0.5783
vn -0.2835 0.9400 -0.1895
vn -0.2821 0.3915 -0.8759
vn 0.7903 0.0155 -0.6125
vn 0.7991 0.1031 0.5923
vn -0.0407 0.9440 -0.3273
vn -0.0406 0.9440 -0.3273
vn -0.0407 0.9440 -0.3275
vn -0.0411 0.9440 -0.3275
vn -0.0404 0.9441 -0.3273
vn -0.0407 0.9441 -0.3273
vn -0.0411 0.9440 -0.3273
vn -0.0409 0.9439 -0.3277
vn -0.0407 0.9440 -0.3274
vn 0.7817 0.0181 0.6234
vn 0.9952 -0.0876 0.0427
vn -0.2904 -0.2500 -0.9237
vn -0.7903 0.0146 0.6126
vn 0.8065 -0.1912 -0.5594
vn -0.7923 -0.1939 -0.5785
vn -0.2944 0.0792 0.9524
vn 0.2894 0.0803 0.9538
vn -0.9955 -0.0926 0.0184
vn 0.3083 -0.2495 -0.9180
vn 0.7872 0.0440 0.6152
vn 0.9976 -0.0605 0.0323
vn -0.2920 -0.2228 -0.9301
vn -0.7973 0.0407 0.6022
vn 0.8075 -0.1634 -0.5668
vn -0.7937 -0.1660 -0.5852
vn -0.2999 0.1049 0.9482
vn 0.2916 0.1059 0.9506
vn -0.9978 -0.0651 0.0080
vn 0.3090 -0.2223 -0.9247
vn 0.7932 0.2287 0.5643
vn 0.9917 0.1260 -0.0243
vn -0.2928 -0.0364 -0.9555
vn -0.8095 0.2240 0.5428
vn 0.7919 0.0241 -0.6102
vn -0.7833 0.0210 -0.6212
vn -0.3149 0.2878 0.9044
vn 0.2908 0.2895 0.9120
vn -0.9916 0.1204 -0.0479
vn 0.2972 -0.0356 -0.9542
usemtl Zugbrücke+SeilTextur
s off
f 176/1/1 175/2/1 1/3/1 2/4/1
f 179/5/2 178/6/2 9/7/2 8/8/2
f 172/9/3 181/10/3 6/11/3 5/12/3
f 181/10/4 180/13/4 7/14/4 6/11/4
f 178/6/5 177/15/5 10/16/5 9/7/5
f 175/2/6 174/17/6 3/18/6 1/3/6
f 180/13/7 179/5/7 8/8/7 7/14/7
f 177/15/8 176/19/8 2/20/8 10/16/8
f 174/17/9 173/21/9 4/22/9 3/18/9
f 109/23/10 84/24/10 25/25/10 48/26/10
f 54/27/11 52/28/11 111/29/11 115/30/11
f 100/31/12 103/32/12 42/33/12 39/34/12
f 91/35/13 94/36/13 33/37/13 30/38/13
f 88/39/14 91/35/14 30/38/14 27/40/14
f 103/32/15 106/41/15 45/42/15 42/33/15
f 94/36/16 97/43/16 36/44/16 33/37/16
f 82/45/17 88/39/17 27/40/17 21/46/17
f 106/41/18 109/23/18 48/26/18 45/42/18
f 97/43/19 100/31/19 39/34/19 36/44/19
f 136/47/20 139/48/20 11/49/20 12/50/20
f 127/51/21 130/52/21 14/53/21 15/54/21
f 124/55/22 127/51/22 15/54/22 16/56/22
f 130/52/23 133/57/23 13/58/23 14/53/23
f 118/59/24 121/60/24 17/61/24 18/62/24
f 133/57/25 136/47/25 12/50/25 13/58/25
f 121/60/26 124/55/26 16/56/26 17/61/26
f 3/18/27 4/22/27 90/63/27 87/64/27
f 10/16/28 2/20/28 85/65/28 108/66/28
f 7/14/29 8/8/29 102/67/29 99/68/29
f 4/22/30 5/12/30 93/69/30 90/63/30
f 2/4/31 1/3/31 81/70/31 85/71/31
f 8/8/32 9/7/32 105/72/32 102/67/32
f 5/12/33 6/11/33 96/73/33 93/69/33
f 1/3/34 3/18/34 87/64/34 81/70/34
f 9/7/35 10/16/35 108/66/35 105/72/35
f 6/11/36 7/14/36 99/68/36 96/73/36
f 25/74/37 21/46/37 23/75/37 26/76/37
f 26/76/38 23/75/38 22/77/38 24/78/38
f 21/46/39 27/40/39 29/79/39 23/75/39
f 23/75/40 29/79/40 28/80/40 22/77/40
f 27/40/41 30/38/41 32/81/41 29/79/41
f 29/79/42 32/81/42 31/82/42 28/80/42
f 30/38/43 33/37/43 35/83/43 32/81/43
f 32/81/44 35/83/44 34/84/44 31/82/44
f 33/37/45 36/44/45 38/85/45 35/83/45
f 35/83/46 38/85/46 37/86/46 34/84/46
f 36/44/47 39/34/47 41/87/47 38/85/47
f 38/85/48 41/87/48 40/88/48 37/86/48
f 39/34/49 42/33/49 44/89/49 41/87/49
f 41/87/50 44/89/50 43/90/50 40/88/50
f 42/33/51 45/42/51 47/91/51 44/89/51
f 44/89/52 47/91/52 46/92/52 43/90/52
f 45/42/53 48/26/53 50/93/53 47/91/53
f 47/91/54 50/93/54 49/94/54 46/92/54
f 48/26/55 25/25/55 26/95/55 50/93/55
f 50/93/56 26/95/56 24/96/56 49/94/56
f 114/97/57 112/98/57 20/99/57 19/100/57
f 28/80/58 31/82/58 60/101/58 57/102/58
f 49/94/59 24/96/59 55/103/59 78/104/59
f 40/88/60 43/90/60 72/105/60 69/106/60
f 31/82/61 34/84/61 63/107/61 60/101/61
f 24/78/62 22/77/62 51/108/62 55/109/62
f 43/90/63 46/92/63 75/110/63 72/105/63
f 34/84/64 37/86/64 66/111/64 63/107/64
f 22/77/65 28/80/65 57/102/65 51/108/65
f 46/92/66 49/94/66 78/104/66 75/110/66
f 37/86/67 40/88/67 69/106/67 66/111/67
f 55/109/68 51/108/68 53/112/68 56/113/68
f 56/113/69 53/112/69 52/28/69 54/27/69
f 51/108/70 57/102/70 59/114/70 53/112/70
f 53/112/71 59/114/71 58/115/71 52/28/71
f 57/102/72 60/101/72 62/116/72 59/114/72
f 59/114/73 62/116/73 61/117/73 58/115/73
f 60/101/74 63/107/74 65/118/74 62/116/74
f 62/116/75 65/118/75 64/119/75 61/117/75
f 63/107/76 66/111/76 68/120/76 65/118/76
f 65/118/77 68/120/77 67/121/77 64/119/77
f 66/111/78 69/106/78 71/122/78 68/120/78
f 68/120/79 71/122/79 70/123/79 67/121/79
f 69/106/80 72/105/80 74/124/80 71/122/80
f 71/122/81 74/124/81 73/125/81 70/123/81
f 72/105/82 75/110/82 77/126/82 74/124/82
f 74/124/83 77/126/83 76/127/83 73/125/83
f 75/110/84 78/104/84 80/128/84 77/126/84
f 77/126/85 80/128/85 79/129/85 76/127/85
f 78/104/86 55/103/86 56/130/86 80/128/86
f 80/128/87 56/130/87 54/131/87 79/129/87
f 139/48/88 114/132/88 19/133/88 11/49/88
f 85/71/89 81/70/89 83/134/89 86/135/89
f 86/135/90 83/134/90 82/45/90 84/136/90
f 81/70/91 87/64/91 89/137/91 83/134/91
f 83/134/92 89/137/92 88/39/92 82/45/92
f 87/64/93 90/63/93 92/138/93 89/137/93
f 89/137/94 92/138/94 91/35/94 88/39/94
f 90/63/95 93/69/95 95/139/95 92/138/95
f 92/138/96 95/139/96 94/36/96 91/35/96
f 93/69/97 96/73/97 98/140/97 95/139/97
f 95/139/98 98/140/98 97/43/98 94/36/98
f 96/73/99 99/68/99 101/141/99 98/140/99
f 98/140/100 101/141/100 100/31/100 97/43/100
f 99/68/101 102/67/101 104/142/101 101/141/101
f 101/141/102 104/142/102 103/32/102 100/31/102
f 102/67/103 105/72/103 107/143/103 104/142/103
f 104/142/104 107/143/104 106/41/104 103/32/104
f 105/72/105 108/66/105 110/144/105 107/143/105
f 107/143/106 110/144/106 109/23/106 106/41/106
f 108/66/107 85/65/107 86/145/107 110/144/107
f 110/144/108 86/145/108 84/24/108 109/23/108
f 84/136/109 82/45/109 21/46/109 25/74/109
f 73/125/110 76/127/110 135/146/110 132/147/110
f 64/119/111 67/121/111 126/148/111 123/149/111
f 52/28/112 58/115/112 117/150/112 111/29/112
f 76/127/113 79/129/113 138/151/113 135/146/113
f 67/121/114 70/123/114 129/152/114 126/148/114
f 58/115/115 61/117/115 120/153/115 117/150/115
f 79/129/116 54/131/116 115/154/116 138/151/116
f 70/123/117 73/125/117 132/147/117 129/152/117
f 61/117/118 64/119/118 123/149/118 120/153/118
f 115/30/119 111/29/119 113/155/119 116/156/119
f 116/156/120 113/155/120 112/98/120 114/97/120
f 111/29/121 117/150/121 119/157/121 113/155/121
f 113/155/122 119/157/122 118/59/122 112/98/122
f 117/150/123 120/153/123 122/158/123 119/157/123
f 119/157/124 122/158/124 121/60/124 118/59/124
f 120/153/125 123/149/125 125/159/125 122/158/125
f 122/158/126 125/159/126 124/55/126 121/60/126
f 123/149/127 126/148/127 128/160/127 125/159/127
f 125/159/128 128/160/128 127/51/128 124/55/128
f 126/148/129 129/152/129 131/161/129 128/160/129
f 128/160/130 131/161/130 130/52/130 127/51/130
f 129/152/131 132/147/131 134/162/131 131/161/131
f 131/161/132 134/162/132 133/57/132 130/52/132
f 132/147/133 135/146/133 137/163/133 134/162/133
f 134/162/134 137/163/134 136/47/134 133/57/134
f 135/146/135 138/151/135 140/164/135 137/163/135
f 137/163/136 140/164/136 139/48/136 136/47/136
f 138/151/137 115/154/137 116/165/137 140/164/137
f 140/164/138 116/165/138 114/132/138 139/48/138
f 112/98/139 118/59/139 18/62/139 20/99/139
f 173/21/140 172/9/140 5/12/140 4/22/140
f 145/166/141 151/167/141 144/168/141
f 144/168/142 151/167/142 143/169/142
f 143/169/143 151/167/143 141/170/143
f 141/170/144 151/167/144 142/171/144
f 150/172/141 142/171/141 151/167/141
f 150/172/145 151/167/145 149/173/145
f 146/174/146 151/167/146 145/175/146
f 147/176/147 151/167/147 146/174/147
f 148/177/148 151/167/148 147/176/148
f 149/173/149 151/167/149 148/177/149
f 141/170/150 142/171/150 152/178/150 153/179/150
f 143/169/151 141/170/151 153/179/151 154/180/151
f 146/174/152 145/175/152 156/181/152 157/182/152
f 149/173/153 148/177/153 159/183/153 160/184/153
f 144/168/154 143/169/154 154/180/154 155/185/154
f 147/176/155 146/174/155 157/182/155 158/186/155
f 150/172/156 149/173/156 160/184/156 161/187/156
f 142/171/157 150/172/157 161/187/157 152/178/157
f 148/177/158 147/176/158 158/186/158 159/183/158
f 145/166/159 144/168/159 155/185/159 156/188/159
f 153/179/160 152/178/160 162/189/160 163/190/160
f 154/180/161 153/179/161 163/190/161 164/191/161
f 157/182/162 156/181/162 166/192/162 167/193/162
f 160/184/163 159/183/163 169/194/163 170/195/163
f 155/185/164 154/180/164 164/191/164 165/196/164
f 158/186/165 157/182/165 167/193/165 168/197/165
f 161/187/166 160/184/166 170/195/166 171/198/166
f 152/178/167 161/187/167 171/198/167 162/189/167
f 159/183/168 158/186/168 168/197/168 169/194/168
f 156/188/169 155/185/169 165/196/169 166/199/169
f 163/190/170 162/189/170 172/9/170 173/21/170
f 164/191/171 163/190/171 173/21/171 174/17/171
f 167/193/172 166/192/172 176/19/172 177/15/172
f 170/195/173 169/194/173 179/5/173 180/13/173
f 165/196/174 164/191/174 174/17/174 175/2/174
f 168/197/175 167/193/175 177/15/175 178/6/175
f 171/198/176 170/195/176 180/13/176 181/10/176
f 162/189/177 171/198/177 181/10/177 172/9/177
f 169/194/178 168/197/178 178/6/178 179/5/178
f 166/199/179 165/196/179 175/2/179 176/1/179
